<svg width="1700" height="611" viewBox="0 0 1700 611" fill="none" xmlns="http://www.w3.org/2000/svg"><mask id="a" style="mask-type:alpha" maskUnits="userSpaceOnUse" x="0" y="0" width="1700" height="611"><path fill="#F6F6F6" d="M0 611h1700V0H0z"/></mask><g mask="url(#a)"><g filter="url(#b)"><path d="M930.043-248c0-209.316-177.396-379.001-396.226-379.001S137.589-457.316 137.589-248 112.955 64 533.817 131c420.861 67 396.226-169.684 396.226-379" fill="url(#c)"/></g><g filter="url(#d)"><path d="M1632-88.363C1632-236.175 1271.59-356 827-356S22-236.175 22-88.363 527.74-7.86 827 179.274s805-119.825 805-267.637" fill="url(#e)"/></g><ellipse cx="396.227" cy="379" rx="396.227" ry="379" transform="matrix(1 0 0 -1 603.863 145)" fill="url(#f)"/></g><defs><radialGradient id="c" cx="0" cy="0" r="1" gradientUnits="userSpaceOnUse" gradientTransform="matrix(-.45654 -450.99877 471.49876 -.4773 534.273 -176.001)"><stop stop-color="#CFF2FE"/><stop offset=".906" stop-color="#FFF0EA"/></radialGradient><radialGradient id="f" cx="0" cy="0" r="1" gradientUnits="userSpaceOnUse" gradientTransform="scale(396.227 379)rotate(90 0 1)"><stop stop-color="#FFF8E0"/><stop offset="1" stop-color="#D3EFFF" stop-opacity="0"/></radialGradient><filter id="b" x="57.319" y="-707" width="952.995" height="929.577" filterUnits="userSpaceOnUse" color-interpolation-filters="sRGB"><feFlood flood-opacity="0" result="BackgroundImageFix"/><feBlend in="SourceGraphic" in2="BackgroundImageFix" result="shape"/><feGaussianBlur stdDeviation="40" result="effect1_foregroundBlur_1_2"/></filter><filter id="d" x="-38" y="-416" width="1730" height="714" filterUnits="userSpaceOnUse" color-interpolation-filters="sRGB"><feFlood flood-opacity="0" result="BackgroundImageFix"/><feBlend in="SourceGraphic" in2="BackgroundImageFix" result="shape"/><feGaussianBlur stdDeviation="30" result="effect1_foregroundBlur_1_2"/></filter><linearGradient id="e" x1="503.955" y1="-4" x2="1181.49" y2="182.861" gradientUnits="userSpaceOnUse"><stop stop-color="#D0F5FF"/><stop offset=".505" stop-color="#FFE4E4" stop-opacity=".17"/><stop offset="1" stop-color="#FFDFCC"/></linearGradient></defs></svg>