<svg xmlns="http://www.w3.org/2000/svg" width="220" height="220" fill="none" xmlns:v="https://vecta.io/nano"><circle cx="110" cy="110" r="109.5" stroke="#3d3d3d"/><path d="M157.246 10.663A110.01 110.01 0 0 1 220 110.124l-66-.074a44 44 0 0 0-6.788-23.529c-4.443-7.042-10.794-12.679-18.314-16.256l28.348-59.602z" fill="#8d3360"/><path d="M220 110c0 23.842-7.746 47.039-22.073 66.097s-34.456 32.945-57.359 39.57-47.339 5.631-69.628-2.835A110 110 0 0 1 .364 101.055 110 110 0 0 1 88.127 2.197a110 110 0 0 1 69.166 8.489l-28.376 59.589a44 44 0 0 0-51.821 10.515 44 44 0 0 0-4.3 52.702c5.092 8.064 12.665 14.255 21.581 17.642s18.69 3.784 27.851 1.134 17.213-8.205 22.944-15.828S154 119.537 154 110h66z" fill="#ff49a4"/><path d="M220 110a110 110 0 0 1-18.538 61.113c-12.087 18.089-29.267 32.188-49.367 40.514a110 110 0 0 1-63.555 6.259c-21.338-4.244-40.938-14.72-56.322-30.104l46.669-46.669c6.154 6.153 13.994 10.344 22.529 12.042a44.01 44.01 0 0 0 25.422-2.504c8.04-3.331 14.912-8.97 19.747-16.206S154 118.702 154 110h66z" fill="#ff80bf"/></svg>