<svg xmlns="http://www.w3.org/2000/svg" width="113" height="146" fill="none" xmlns:v="https://vecta.io/nano"><circle cx="4" cy="21" r="4" fill="#ff49a4"/><path d="M16.861 14V5.273h1.581v7.402h3.844V14h-5.425zm6.729 0V7.455h1.543V14H23.59zm.776-7.474a.9.9 0 0 1-.631-.243c-.176-.165-.264-.362-.264-.592s.088-.43.264-.592a.89.89 0 0 1 .631-.247.88.88 0 0 1 .631.247c.176.162.264.359.264.592s-.088.428-.264.592a.89.89 0 0 1-.631.243zm6.721 9.929v-3.486h-.064a2.64 2.64 0 0 1-.345.507 1.9 1.9 0 0 1-.597.452c-.247.125-.558.188-.933.188-.514 0-.975-.132-1.381-.396s-.727-.648-.963-1.151-.354-1.114-.354-1.832c0-.727.119-1.341.358-1.841s.567-.882.976-1.138.865-.388 1.368-.388c.384 0 .699.065.946.196s.443.283.588.464.257.348.337.507h.094V7.455h1.517v9h-1.547zm-1.509-3.605c.327 0 .605-.088.835-.264s.405-.428.524-.746.179-.689.179-1.112-.06-.791-.179-1.104a1.57 1.57 0 0 0-.52-.729c-.227-.173-.507-.26-.84-.26-.344 0-.631.089-.861.268s-.403.426-.52.741-.175.676-.175 1.082.058.774.175 1.095.294.57.524.754.518.273.857.273zm8.813-1.602V7.455h1.543V14h-1.496v-1.163h-.068a1.97 1.97 0 0 1-.729.899c-.335.233-.749.349-1.24.349-.429 0-.808-.095-1.138-.286s-.582-.473-.767-.839-.277-.815-.277-1.338V7.455h1.543v3.929c0 .415.114.744.341.989s.526.366.895.366c.227 0 .447-.055.66-.166s.388-.275.524-.494.209-.499.209-.831zM41.519 14V7.455h1.543V14h-1.543zm.776-7.474a.9.9 0 0 1-.631-.243c-.176-.165-.264-.362-.264-.592s.088-.43.264-.592a.89.89 0 0 1 .631-.247.88.88 0 0 1 .631.247c.176.162.264.359.264.592s-.088.428-.264.592a.89.89 0 0 1-.631.243zm4.782 7.59c-.514 0-.974-.132-1.381-.396s-.727-.648-.963-1.151-.354-1.114-.354-1.832c0-.727.119-1.341.358-1.841s.567-.882.976-1.138.865-.388 1.368-.388c.383 0 .699.065.946.196s.443.283.588.464.257.348.337.507h.064V5.273h1.547V14h-1.517v-1.031h-.094a2.64 2.64 0 0 1-.345.507 1.9 1.9 0 0 1-.597.452c-.247.125-.558.188-.933.188zm.43-1.266c.327 0 .605-.088.835-.264s.405-.428.524-.746.179-.689.179-1.112-.06-.791-.179-1.104a1.57 1.57 0 0 0-.52-.729c-.227-.173-.507-.26-.839-.26-.344 0-.631.089-.861.268s-.403.426-.52.741-.175.676-.175 1.082.058.774.175 1.095.294.57.524.754.519.273.857.273zM52.207 14V7.455h1.543V14h-1.543zm.776-7.474a.9.9 0 0 1-.631-.243c-.176-.165-.264-.362-.264-.592s.088-.43.264-.592a.89.89 0 0 1 .631-.247.88.88 0 0 1 .631.247c.176.162.264.359.264.592s-.088.428-.264.592a.89.89 0 0 1-.631.243zm5.622.929v1.193h-3.763V7.455h3.763zM55.77 5.886h1.543v6.145c0 .207.031.367.094.477s.151.182.256.222a.98.98 0 0 0 .349.06 1.51 1.51 0 0 0 .264-.021l.188-.038.26 1.206a3.45 3.45 0 0 1-.354.094c-.151.034-.335.054-.554.06-.386.011-.734-.047-1.044-.175s-.555-.332-.737-.605-.267-.614-.264-1.023V5.886zm5.083 10.568c-.21 0-.405-.017-.584-.051s-.317-.068-.422-.111l.358-1.202c.224.065.425.097.601.094s.331-.058.465-.166.251-.281.345-.528l.132-.354-2.374-6.682h1.636l1.508 4.943h.068L64.1 7.455h1.641l-2.621 7.338c-.122.347-.284.643-.486.891s-.449.44-.741.571-.636.2-1.04.2zm9-2.454V5.273h3.273c.671 0 1.233.125 1.688.375s.803.594 1.035 1.031.354.929.354 1.483c0 .56-.118 1.057-.354 1.491s-.584.777-1.044 1.027-1.027.371-1.7.371h-2.169v-1.3h1.956c.392 0 .713-.068.963-.205a1.29 1.29 0 0 0 .554-.562 1.78 1.78 0 0 0 .183-.822c0-.31-.061-.582-.183-.818s-.305-.419-.558-.55-.572-.2-.967-.2h-1.449V14h-1.581zm10.416.128c-.639 0-1.193-.141-1.662-.422s-.832-.675-1.091-1.18-.384-1.097-.384-1.773.128-1.268.384-1.777.622-.903 1.091-1.185 1.023-.422 1.662-.422 1.193.141 1.662.422a2.83 2.83 0 0 1 1.087 1.185c.258.509.388 1.101.388 1.777s-.129 1.267-.388 1.773-.618.899-1.087 1.18-1.023.422-1.662.422zm.008-1.236c.347 0 .636-.095.869-.285a1.72 1.72 0 0 0 .52-.776 3.18 3.18 0 0 0 .175-1.082c0-.401-.058-.763-.175-1.087a1.72 1.72 0 0 0-.52-.78c-.233-.193-.523-.29-.869-.29-.355 0-.65.097-.886.29s-.408.453-.524.78-.17.686-.17 1.087.057.758.17 1.082a1.75 1.75 0 0 0 .524.776c.236.19.531.285.886.285zm7.292 1.236c-.639 0-1.193-.141-1.662-.422s-.832-.675-1.091-1.18-.384-1.097-.384-1.773.128-1.268.384-1.777.622-.903 1.091-1.185 1.023-.422 1.662-.422 1.193.141 1.662.422a2.83 2.83 0 0 1 1.087 1.185c.258.509.388 1.101.388 1.777s-.129 1.267-.388 1.773-.618.899-1.087 1.18-1.023.422-1.662.422zm.009-1.236c.347 0 .636-.095.869-.285a1.72 1.72 0 0 0 .52-.776 3.18 3.18 0 0 0 .175-1.082c0-.401-.058-.763-.175-1.087s-.287-.587-.52-.78-.523-.29-.869-.29c-.355 0-.651.097-.886.29s-.408.453-.524.78-.17.686-.17 1.087.057.758.17 1.082a1.75 1.75 0 0 0 .524.776c.236.19.531.285.886.285zm5.98-7.619V14h-1.543V5.273h1.543zm6.759 3.912l-1.406.153a1.13 1.13 0 0 0-.209-.401c-.097-.125-.227-.226-.392-.303s-.367-.115-.605-.115c-.321 0-.591.07-.81.209s-.322.32-.32.541c-.003.19.067.345.209.464s.383.217.716.294l1.117.239c.619.134 1.08.345 1.381.635s.457.669.46 1.138c-.003.412-.123.776-.362 1.091s-.564.557-.984.733-.903.264-1.449.264c-.801 0-1.446-.168-1.935-.503a2.02 2.02 0 0 1-.874-1.411l1.504-.145c.068.296.213.519.435.669s.51.226.865.226c.367 0 .66-.075.882-.226s.337-.337.337-.558a.58.58 0 0 0-.217-.465c-.142-.122-.364-.216-.665-.281l-1.116-.234c-.628-.131-1.092-.351-1.394-.661s-.45-.707-.448-1.185c-.003-.403.107-.753.328-1.048s.536-.528.933-.69.862-.247 1.385-.247c.767 0 1.371.163 1.811.49a2.06 2.06 0 0 1 .822 1.325z" fill="#bab8b9"/><path d="M20.559 36.139c-.716 0-1.352-.123-1.909-.368s-.991-.587-1.312-1.024-.492-.943-.512-1.516h1.869c.017.275.108.515.273.721s.386.36.661.472a2.42 2.42 0 0 0 .925.169c.365 0 .688-.063.969-.189s.502-.308.661-.537.237-.492.234-.79c.003-.308-.076-.58-.239-.815s-.398-.419-.706-.552-.673-.199-1.104-.199h-.9v-1.422h.9c.355 0 .665-.061.93-.184s.479-.295.631-.517.227-.486.224-.781c.003-.288-.061-.538-.194-.751a1.31 1.31 0 0 0-.552-.502c-.235-.119-.512-.179-.83-.179-.312 0-.6.056-.865.169s-.479.273-.641.482-.248.451-.258.736h-1.775c.013-.57.177-1.07.492-1.501s.743-.772 1.273-1.014 1.125-.368 1.785-.368c.679 0 1.269.128 1.77.383s.893.592 1.168 1.019.413.9.413 1.417c.003.573-.166 1.054-.507 1.442s-.782.641-1.332.761v.08c.716.099 1.264.365 1.646.795s.575.959.572 1.596c0 .57-.162 1.081-.487 1.531s-.766.799-1.332 1.054-1.21.383-1.939.383zm9.005 0c-.663 0-1.256-.124-1.78-.373s-.94-.597-1.248-1.034-.467-.938-.487-1.501h1.79a1.41 1.41 0 0 0 .542 1.024c.328.262.723.393 1.183.393.361 0 .683-.083.964-.249a1.78 1.78 0 0 0 .666-.691 2.02 2.02 0 0 0 .239-1.009c.003-.385-.078-.726-.244-1.024s-.393-.532-.681-.701a1.9 1.9 0 0 0-.994-.259 2.37 2.37 0 0 0-.9.169c-.295.116-.529.268-.701.457l-1.666-.273.532-5.25h5.906v1.541h-4.38l-.293 2.7h.06c.189-.222.456-.406.8-.552s.723-.224 1.134-.224c.616 0 1.167.146 1.651.438s.865.686 1.143 1.193.418 1.087.418 1.74c0 .673-.156 1.273-.467 1.8s-.737.936-1.288 1.238-1.18.447-1.899.447zm10.763-2.048v-.537a2.4 2.4 0 0 1 .249-1.089 2.01 2.01 0 0 1 .736-.8c.322-.202.711-.303 1.168-.303.471 0 .865.101 1.183.303s.558.464.721.795a2.41 2.41 0 0 1 .248 1.094v.537a2.4 2.4 0 0 1-.248 1.089c-.166.331-.409.598-.731.8s-.709.303-1.173.303-.857-.101-1.178-.303-.565-.469-.731-.8a2.44 2.44 0 0 1-.244-1.089zm1.298-.537v.537a1.42 1.42 0 0 0 .189.721c.126.219.348.328.666.328s.542-.108.661-.323a1.46 1.46 0 0 0 .184-.726v-.537c0-.265-.058-.507-.174-.726s-.34-.333-.671-.333c-.312 0-.532.111-.661.333a1.4 1.4 0 0 0-.194.726zm-6.473-5.29v-.537a2.37 2.37 0 0 1 .254-1.094c.169-.331.414-.597.736-.795s.711-.303 1.168-.303c.467 0 .86.101 1.178.303s.564.464.726.795.244.696.244 1.094v.537c0 .398-.083.762-.249 1.094s-.404.592-.726.79-.713.298-1.173.298c-.467 0-.862-.099-1.183-.298a1.95 1.95 0 0 1-.726-.795 2.4 2.4 0 0 1-.249-1.089zm1.307-.537v.537a1.46 1.46 0 0 0 .184.726c.126.215.348.323.666.323s.537-.108.656-.323a1.46 1.46 0 0 0 .184-.726v-.537c0-.265-.058-.507-.174-.726s-.338-.333-.666-.333c-.315 0-.535.111-.661.333s-.189.464-.189.726zM35.719 36l7-10.182h1.243l-7 10.182h-1.243z" fill="#fffbfd"/><circle cx="4" cy="73" r="4" fill="#ff80bf"/><path d="M16.861 66v-8.727h3.341c.631 0 1.155.099 1.572.298s.734.465.942.805.315.727.315 1.159c0 .355-.068.659-.204.912a1.72 1.72 0 0 1-.55.609c-.23.156-.487.268-.771.337v.085a1.89 1.89 0 0 1 .891.285 1.98 1.98 0 0 1 .703.724c.182.313.273.69.273 1.134 0 .452-.109.858-.328 1.219s-.548.641-.989.848-.994.311-1.662.311h-3.533zm1.581-1.321h1.7c.574 0 .987-.109 1.24-.328s.383-.506.383-.852c0-.259-.064-.492-.192-.699s-.31-.375-.545-.494-.517-.183-.844-.183h-1.743v2.557zm0-3.695h1.564a1.76 1.76 0 0 0 .737-.149 1.24 1.24 0 0 0 .516-.43 1.15 1.15 0 0 0 .192-.665c0-.338-.119-.616-.358-.835s-.587-.328-1.053-.328h-1.598v2.408zm8.121 5.148c-.415 0-.788-.074-1.121-.222a1.83 1.83 0 0 1-.784-.665c-.19-.293-.286-.653-.286-1.082 0-.369.068-.675.205-.916a1.58 1.58 0 0 1 .558-.58c.236-.145.501-.254.797-.328a6.48 6.48 0 0 1 .925-.166l.933-.106c.239-.034.412-.085.52-.153s.166-.18.166-.328v-.026c0-.321-.095-.57-.285-.746s-.465-.264-.822-.264c-.378 0-.678.082-.899.247s-.367.359-.443.584l-1.44-.205c.114-.398.301-.73.563-.997s.581-.472.959-.605.795-.205 1.253-.205a4.08 4.08 0 0 1 .942.111 2.65 2.65 0 0 1 .857.367 1.84 1.84 0 0 1 .622.686c.159.29.239.652.239 1.087V66h-1.483v-.899h-.051a1.88 1.88 0 0 1-.396.511c-.168.156-.379.283-.635.379a2.56 2.56 0 0 1-.891.141zm.401-1.133c.31 0 .578-.061.805-.183s.402-.29.524-.494a1.26 1.26 0 0 0 .188-.669v-.771c-.048.04-.131.077-.247.111s-.241.064-.384.09l-.422.068-.362.051c-.23.031-.436.082-.618.153s-.325.17-.43.298-.158.287-.158.486c0 .284.104.499.311.643s.472.217.793.217zm9.78-3.814l-1.406.153a1.13 1.13 0 0 0-.209-.401c-.097-.125-.227-.226-.392-.303s-.366-.115-.605-.115c-.321 0-.591.07-.81.209s-.322.32-.32.541c-.003.19.067.345.209.465s.383.217.716.294l1.117.239c.619.134 1.08.345 1.381.635s.457.669.46 1.138a1.78 1.78 0 0 1-.362 1.091c-.236.313-.564.557-.984.733s-.903.264-1.449.264c-.801 0-1.446-.168-1.935-.503a2.02 2.02 0 0 1-.874-1.41l1.504-.145c.068.296.213.519.435.669s.51.226.865.226c.366 0 .66-.075.882-.226s.337-.337.337-.558a.58.58 0 0 0-.217-.465c-.142-.122-.364-.216-.665-.281l-1.117-.234c-.628-.131-1.092-.351-1.393-.66s-.45-.707-.448-1.185c-.003-.403.107-.753.328-1.048s.536-.528.933-.69.862-.247 1.385-.247c.767 0 1.371.163 1.811.49a2.06 2.06 0 0 1 .822 1.325zM38.156 66v-6.545h1.543V66h-1.543zm.776-7.474a.9.9 0 0 1-.631-.243c-.176-.165-.264-.362-.264-.592s.088-.43.264-.592a.89.89 0 0 1 .631-.247.88.88 0 0 1 .631.247c.176.162.264.359.264.592s-.088.428-.264.592a.89.89 0 0 1-.631.243zm5.208 7.602c-.653 0-1.214-.143-1.683-.43s-.825-.683-1.078-1.189-.375-1.094-.375-1.756.128-1.251.383-1.76.617-.909 1.082-1.193 1.023-.43 1.662-.43c.531 0 1.001.098 1.41.294a2.41 2.41 0 0 1 .984.822c.244.352.383.764.418 1.236H45.47a1.41 1.41 0 0 0-.426-.788c-.222-.213-.518-.32-.891-.32-.315 0-.592.085-.831.256s-.425.409-.558.724-.196.693-.196 1.133c0 .446.065.83.196 1.151s.314.564.55.737.518.256.84.256a1.4 1.4 0 0 0 .609-.128c.182-.088.334-.215.456-.379s.206-.365.251-.601h1.474a2.57 2.57 0 0 1-.409 1.231c-.236.355-.557.633-.963.835s-.883.298-1.432.298zm6.732-7.53v-1.325h6.963v1.325h-2.697V66h-1.568v-7.402h-2.697zM58.429 66v-6.545h1.496v1.091h.068c.119-.378.324-.669.614-.874a1.69 1.69 0 0 1 1.001-.311l.285.013c.108.006.197.016.269.03v1.419c-.065-.023-.169-.043-.311-.06a2.86 2.86 0 0 0-.405-.03 1.56 1.56 0 0 0-.758.183 1.34 1.34 0 0 0-.524.499c-.128.213-.192.459-.192.737V66h-1.543zm6.524.132c-.415 0-.788-.074-1.121-.222s-.591-.372-.784-.665-.286-.653-.286-1.082c0-.369.068-.675.205-.916a1.58 1.58 0 0 1 .558-.58c.236-.145.501-.254.797-.328a6.48 6.48 0 0 1 .925-.166l.933-.106c.239-.034.412-.085.52-.153s.166-.18.166-.328v-.026c0-.321-.095-.57-.285-.746s-.465-.264-.822-.264c-.378 0-.678.082-.899.247s-.366.359-.443.584l-1.44-.205c.114-.398.301-.73.563-.997s.581-.472.959-.605.796-.205 1.253-.205a4.08 4.08 0 0 1 .942.111 2.65 2.65 0 0 1 .857.367 1.84 1.84 0 0 1 .622.686c.159.29.239.652.239 1.087V66h-1.483v-.899h-.051c-.094.182-.226.352-.396.511s-.379.283-.635.379a2.56 2.56 0 0 1-.891.141zm.4-1.133c.31 0 .578-.061.805-.183s.402-.29.524-.494a1.26 1.26 0 0 0 .188-.669v-.771c-.048.04-.131.077-.247.111a3.5 3.5 0 0 1-.384.09l-.422.068-.362.051c-.23.031-.436.082-.618.153s-.325.17-.43.298-.158.287-.158.486c0 .284.104.499.311.643s.472.217.793.217zm7.036 1.117c-.514 0-.975-.132-1.381-.396s-.727-.648-.963-1.151-.354-1.114-.354-1.832c0-.727.119-1.341.358-1.841s.567-.882.976-1.138.865-.388 1.368-.388c.383 0 .699.065.946.196s.443.283.588.465.257.348.337.507h.064v-3.264h1.547V66h-1.517v-1.031h-.094a2.64 2.64 0 0 1-.345.507 1.9 1.9 0 0 1-.597.452c-.247.125-.558.188-.933.188zm.43-1.266c.327 0 .605-.088.835-.264s.405-.427.524-.746.179-.689.179-1.112-.06-.791-.179-1.104a1.57 1.57 0 0 0-.52-.729c-.227-.173-.507-.26-.839-.26-.344 0-.631.09-.861.268s-.403.426-.52.742-.175.676-.175 1.082.058.774.175 1.095.294.57.524.754.519.273.857.273zM77.519 66v-6.545h1.543V66h-1.543zm.776-7.474a.9.9 0 0 1-.631-.243c-.176-.165-.264-.362-.264-.592s.088-.43.264-.592a.89.89 0 0 1 .631-.247.88.88 0 0 1 .631.247c.176.162.264.359.264.592s-.088.428-.264.592a.89.89 0 0 1-.631.243zm3.896 3.639V66h-1.543v-6.545h1.474v1.112h.077a1.87 1.87 0 0 1 .72-.874c.332-.216.743-.324 1.231-.324.452 0 .845.097 1.18.29a1.95 1.95 0 0 1 .784.84c.188.366.28.811.277 1.334V66H84.85v-3.929c0-.437-.114-.78-.341-1.027s-.535-.371-.933-.371c-.27 0-.51.06-.72.179a1.24 1.24 0 0 0-.49.507c-.116.222-.175.49-.175.805zm8.616 6.426c-.554 0-1.03-.075-1.428-.226s-.717-.347-.959-.597-.409-.527-.503-.831l1.389-.337a1.53 1.53 0 0 0 .273.379c.119.128.28.233.482.315s.462.128.771.128c.438 0 .8-.106 1.087-.32s.43-.557.43-1.04v-1.24h-.077a2.19 2.19 0 0 1-.349.49c-.151.168-.351.308-.601.422s-.558.17-.933.17a2.69 2.69 0 0 1-1.368-.354c-.406-.239-.73-.594-.972-1.065s-.358-1.068-.358-1.781c0-.719.119-1.325.358-1.82s.567-.874.976-1.129.865-.388 1.368-.388c.383 0 .699.065.946.196s.449.283.597.465.26.348.337.507h.085v-1.082h1.521v6.652c0 .56-.133 1.023-.401 1.389s-.632.641-1.095.823-.989.273-1.577.273zm.013-3.895c.327 0 .605-.079.835-.239a1.47 1.47 0 0 0 .524-.686c.119-.298.179-.656.179-1.074 0-.412-.06-.773-.179-1.082s-.29-.55-.52-.72-.507-.26-.839-.26c-.344 0-.631.09-.861.268s-.403.425-.52.737-.175.662-.175 1.057c0 .401.058.752.175 1.053s.294.531.524.699.519.247.857.247z" fill="#bab8b9"/><path d="M20.559 88.139c-.716 0-1.352-.123-1.909-.368s-.991-.587-1.312-1.024-.492-.943-.512-1.516h1.869c.017.275.108.515.273.721s.386.36.661.472a2.42 2.42 0 0 0 .925.169c.365 0 .688-.063.969-.189s.502-.308.661-.537.237-.492.234-.79c.003-.308-.076-.58-.239-.815s-.398-.419-.706-.552-.673-.199-1.104-.199h-.9v-1.422h.9c.355 0 .665-.061.93-.184s.479-.295.631-.517.227-.486.224-.781c.003-.288-.061-.538-.194-.751a1.31 1.31 0 0 0-.552-.502c-.235-.119-.512-.179-.83-.179-.312 0-.6.056-.865.169s-.479.273-.641.482-.248.451-.258.736h-1.775c.013-.57.177-1.07.492-1.501s.743-.772 1.273-1.014 1.125-.368 1.785-.368c.679 0 1.269.128 1.77.383s.893.592 1.168 1.019.413.9.413 1.417c.003.573-.166 1.054-.507 1.442s-.782.641-1.332.761v.079c.716.1 1.264.365 1.646.796s.575.96.572 1.596c0 .57-.162 1.081-.487 1.531s-.766.799-1.332 1.054-1.21.383-1.939.383zm9.229.055c-.819 0-1.521-.207-2.108-.621s-1.032-1.019-1.347-1.805-.467-1.738-.467-2.849.161-2.055.472-2.834.764-1.379 1.347-1.79 1.288-.617 2.103-.617 1.516.206 2.103.617 1.036 1.007 1.347 1.79.472 1.727.472 2.834c0 1.114-.157 2.065-.472 2.854s-.761 1.385-1.347 1.8-1.284.621-2.103.621zm0-1.556c.636 0 1.138-.313 1.506-.94s.557-1.556.557-2.779c0-.809-.084-1.488-.254-2.038s-.408-.965-.716-1.243-.673-.423-1.094-.423c-.633 0-1.134.315-1.501.945s-.553 1.546-.557 2.759c-.003.812.078 1.495.244 2.048s.408.971.716 1.253.674.418 1.099.418zm11.018-.547v-.537a2.4 2.4 0 0 1 .248-1.089 2.01 2.01 0 0 1 .736-.8c.322-.202.711-.303 1.168-.303.471 0 .865.101 1.183.303s.559.464.721.795a2.41 2.41 0 0 1 .249 1.094v.537a2.4 2.4 0 0 1-.249 1.089c-.166.331-.409.598-.731.8s-.709.303-1.173.303-.857-.101-1.178-.303-.565-.469-.731-.8a2.44 2.44 0 0 1-.244-1.089zm1.297-.537v.537a1.42 1.42 0 0 0 .189.721c.126.219.348.328.666.328s.542-.108.661-.323a1.46 1.46 0 0 0 .184-.726v-.537c0-.265-.058-.507-.174-.726s-.34-.333-.671-.333c-.312 0-.532.111-.661.333a1.4 1.4 0 0 0-.194.726zm-6.473-5.29v-.537a2.37 2.37 0 0 1 .254-1.094c.169-.331.414-.597.736-.795s.711-.303 1.168-.303c.467 0 .86.101 1.178.303s.563.464.726.795.244.696.244 1.094v.537a2.41 2.41 0 0 1-.249 1.094c-.162.328-.404.592-.726.79s-.713.298-1.173.298c-.467 0-.862-.099-1.183-.298a1.95 1.95 0 0 1-.726-.795 2.4 2.4 0 0 1-.249-1.089zm1.308-.537v.537a1.46 1.46 0 0 0 .184.726c.126.215.348.323.666.323s.537-.108.656-.323a1.46 1.46 0 0 0 .184-.726v-.537c0-.265-.058-.507-.174-.726s-.338-.333-.666-.333c-.315 0-.535.111-.661.333s-.189.464-.189.726zM36.197 88l7-10.182h1.243L37.44 88h-1.243z" fill="#fffbfd"/><circle cx="4" cy="125" r="4" fill="#8d3360"/><path d="M18.442 109.273V118h-1.581v-8.727h1.581zm6.817 3.912l-1.406.153c-.04-.142-.109-.276-.209-.4a1.03 1.03 0 0 0-.392-.303c-.165-.077-.366-.115-.605-.115-.321 0-.591.069-.81.209s-.322.319-.32.541c-.003.19.067.345.209.464s.384.218.716.294l1.116.239c.619.134 1.08.345 1.381.635s.457.669.46 1.138a1.78 1.78 0 0 1-.362 1.091c-.236.312-.564.556-.984.733s-.903.264-1.449.264c-.801 0-1.446-.168-1.935-.503a2.02 2.02 0 0 1-.874-1.411l1.504-.144c.068.295.213.518.435.669s.51.225.865.225c.367 0 .661-.075.882-.225s.337-.337.337-.559a.58.58 0 0 0-.217-.464c-.142-.122-.364-.216-.665-.281l-1.116-.235c-.628-.13-1.092-.351-1.393-.66s-.45-.708-.448-1.185c-.003-.403.107-.753.328-1.048s.535-.529.933-.691.862-.247 1.385-.247c.767 0 1.371.164 1.811.49s.717.769.823 1.326zm4.268 4.943c-.639 0-1.193-.141-1.662-.422s-.832-.675-1.091-1.18-.384-1.097-.384-1.773.128-1.269.384-1.777.622-.904 1.091-1.185 1.023-.422 1.662-.422 1.193.141 1.662.422.831.676 1.087 1.185.388 1.101.388 1.777-.129 1.267-.388 1.773-.618.899-1.087 1.18-1.023.422-1.662.422zm.009-1.236c.346 0 .636-.095.869-.285s.406-.452.52-.776.175-.685.175-1.082-.058-.763-.175-1.087-.287-.587-.52-.78-.523-.29-.869-.29c-.355 0-.651.097-.886.29s-.408.453-.524.78-.17.686-.17 1.087.057.758.17 1.082.291.582.524.776.531.285.886.285zm5.98-7.619V118h-1.543v-8.727h1.543zm3.47 8.859c-.415 0-.788-.074-1.121-.221s-.591-.373-.784-.665-.285-.654-.285-1.083c0-.369.068-.674.204-.916a1.58 1.58 0 0 1 .558-.579c.236-.145.501-.255.797-.329a6.57 6.57 0 0 1 .925-.166l.933-.106c.239-.034.412-.085.52-.154s.166-.18.166-.328v-.025c0-.321-.095-.57-.285-.746s-.465-.264-.822-.264c-.378 0-.678.082-.899.247s-.366.359-.443.584l-1.44-.205c.114-.398.301-.73.563-.997a2.44 2.44 0 0 1 .959-.605c.378-.136.795-.205 1.253-.205.315 0 .629.037.942.111a2.64 2.64 0 0 1 .857.367c.258.167.466.396.622.686s.239.652.239 1.086V118h-1.483v-.899h-.051c-.094.182-.226.352-.396.511a1.9 1.9 0 0 1-.635.379c-.253.094-.55.141-.891.141zm.401-1.133c.31 0 .578-.062.805-.184a1.35 1.35 0 0 0 .524-.494 1.26 1.26 0 0 0 .188-.669v-.771a.74.74 0 0 1-.247.11 3.39 3.39 0 0 1-.383.09l-.422.068-.362.051c-.23.032-.436.083-.618.154s-.325.17-.43.298-.158.287-.158.486c0 .284.104.498.311.643s.472.218.793.218zm7.875-5.544v1.193h-3.763v-1.193h3.763zm-2.834-1.569h1.543v6.145c0 .208.031.367.094.478a.51.51 0 0 0 .256.221c.105.04.222.06.349.06.097 0 .185-.007.264-.022l.188-.038.26 1.206c-.082.028-.2.06-.354.094s-.335.054-.554.059c-.386.012-.734-.046-1.044-.174a1.63 1.63 0 0 1-.737-.605c-.179-.273-.267-.614-.264-1.023v-6.401zm6.951 8.242c-.656 0-1.223-.137-1.7-.409s-.84-.665-1.095-1.168-.383-1.101-.383-1.785c0-.674.128-1.265.383-1.773a2.9 2.9 0 0 1 1.082-1.193c.463-.287 1.007-.431 1.632-.431a3.32 3.32 0 0 1 1.142.196c.361.128.679.327.955.597s.497.614.656 1.031.239.909.239 1.483v.473h-5.365v-1.04h3.886a1.66 1.66 0 0 0-.192-.788 1.4 1.4 0 0 0-.524-.55c-.222-.133-.48-.2-.776-.2-.315 0-.592.077-.831.23a1.59 1.59 0 0 0-.558.597c-.131.244-.198.513-.2.805v.908c0 .38.07.707.209.98a1.49 1.49 0 0 0 .584.622c.25.142.543.213.878.213.225 0 .428-.031.609-.094s.34-.16.473-.285.234-.28.303-.465l1.44.162c-.091.381-.264.713-.52.997s-.577.5-.972.657-.847.23-1.355.23zm6.645-.013c-.514 0-.974-.132-1.381-.396s-.727-.648-.963-1.151-.354-1.113-.354-1.832c0-.727.119-1.341.358-1.841s.567-.882.976-1.138.865-.388 1.368-.388c.384 0 .699.066.946.196s.443.283.588.465.257.348.337.507h.064v-3.264h1.547V118h-1.517v-1.031h-.094a2.64 2.64 0 0 1-.345.507 1.9 1.9 0 0 1-.597.452c-.247.125-.558.187-.933.187zm.43-1.266c.327 0 .605-.088.835-.264s.405-.427.524-.746.179-.688.179-1.112-.06-.791-.179-1.103-.29-.556-.52-.729-.507-.26-.839-.26c-.344 0-.631.089-.861.268s-.403.427-.52.742-.175.676-.175 1.082.058.774.175 1.095a1.71 1.71 0 0 0 .524.755c.233.182.518.272.857.272zM66.197 118v-8.727h1.581v7.402h3.844V118h-5.425zm9.626.128c-.656 0-1.223-.137-1.7-.409s-.84-.665-1.095-1.168-.383-1.101-.383-1.785c0-.674.128-1.265.383-1.773a2.9 2.9 0 0 1 1.082-1.193c.463-.287 1.007-.431 1.632-.431a3.32 3.32 0 0 1 1.142.196c.361.128.679.327.955.597s.497.614.656 1.031.239.909.239 1.483v.473h-5.365v-1.04h3.886a1.66 1.66 0 0 0-.192-.788 1.4 1.4 0 0 0-.524-.55c-.222-.133-.48-.2-.776-.2-.315 0-.592.077-.831.23a1.59 1.59 0 0 0-.558.597c-.131.244-.198.513-.2.805v.908c0 .38.07.707.209.98a1.49 1.49 0 0 0 .584.622c.25.142.543.213.878.213.224 0 .428-.031.609-.094s.34-.16.473-.285.234-.28.303-.465l1.44.162c-.091.381-.264.713-.52.997s-.577.5-.972.657-.847.23-1.355.23zm5.758-3.963V118h-1.543v-6.545h1.474v1.112h.077a1.87 1.87 0 0 1 .72-.874c.332-.216.743-.324 1.231-.324.452 0 .845.097 1.18.29s.599.473.784.84.28.811.277 1.333V118H84.24v-3.929c0-.437-.114-.78-.341-1.027s-.535-.371-.933-.371c-.27 0-.51.06-.72.179s-.371.286-.49.507-.175.49-.175.806zm8.199 3.95c-.514 0-.974-.132-1.381-.396s-.727-.648-.963-1.151-.354-1.113-.354-1.832c0-.727.119-1.341.358-1.841s.567-.882.976-1.138.865-.388 1.368-.388c.384 0 .699.066.946.196s.443.283.588.465.257.348.337.507h.064v-3.264h1.547V118h-1.517v-1.031h-.094a2.64 2.64 0 0 1-.345.507 1.9 1.9 0 0 1-.597.452c-.247.125-.558.187-.933.187zm.43-1.266c.327 0 .605-.088.835-.264s.405-.427.524-.746.179-.688.179-1.112-.06-.791-.179-1.103-.29-.556-.52-.729-.507-.26-.84-.26c-.344 0-.631.089-.861.268s-.403.427-.52.742-.175.676-.175 1.082.058.774.175 1.095a1.71 1.71 0 0 0 .524.755c.233.182.519.272.857.272zM94.91 118v-6.545h1.543V118H94.91zm.776-7.474a.9.9 0 0 1-.631-.243c-.176-.165-.264-.363-.264-.593s.088-.43.264-.592a.89.89 0 0 1 .631-.247.88.88 0 0 1 .631.247c.176.162.264.359.264.592s-.088.428-.264.593a.89.89 0 0 1-.631.243zm3.896 3.639V118h-1.543v-6.545h1.474v1.112h.077a1.87 1.87 0 0 1 .72-.874c.332-.216.743-.324 1.232-.324.451 0 .845.097 1.18.29a1.95 1.95 0 0 1 .784.84c.188.366.28.811.277 1.333V118h-1.543v-3.929c0-.437-.113-.78-.34-1.027s-.536-.371-.934-.371c-.27 0-.51.06-.72.179a1.25 1.25 0 0 0-.49.507c-.116.222-.175.49-.175.806zm8.617 6.426c-.554 0-1.03-.075-1.428-.226s-.717-.347-.959-.597-.409-.527-.502-.83l1.389-.337c.062.128.153.254.273.379s.279.233.481.315.462.128.771.128c.438 0 .8-.106 1.087-.319s.43-.557.43-1.04v-1.24h-.076a2.2 2.2 0 0 1-.35.49c-.15.168-.351.308-.601.422s-.558.17-.933.17c-.503 0-.959-.118-1.368-.353s-.73-.594-.971-1.066-.358-1.068-.358-1.781c0-.719.119-1.325.358-1.82s.566-.873.976-1.129a2.51 2.51 0 0 1 1.367-.388c.384 0 .699.066.946.196s.449.283.597.465.26.348.337.507h.085v-1.082h1.521v6.652c0 .559-.133 1.022-.4 1.389s-.632.64-1.095.822-.989.273-1.577.273zm.013-3.895c.326 0 .605-.08.835-.239s.405-.387.524-.686.179-.656.179-1.074c0-.411-.06-.772-.179-1.082s-.29-.55-.52-.72-.507-.26-.839-.26c-.344 0-.631.089-.861.268s-.404.425-.52.738-.175.662-.175 1.056c0 .401.058.752.175 1.053s.294.531.524.699.519.247.857.247z" fill="#bab8b9"/><path d="M21.046 129.818V140h-1.844v-8.387h-.06l-2.381 1.521v-1.69l2.531-1.626h1.755zm6.125 10.321c-.663 0-1.256-.124-1.78-.373a3.17 3.17 0 0 1-1.248-1.034c-.305-.437-.467-.938-.487-1.501h1.79a1.41 1.41 0 0 0 .542 1.024c.328.262.723.393 1.183.393.361 0 .683-.083.965-.249s.504-.396.666-.691.242-.631.239-1.009c.003-.385-.078-.726-.244-1.024s-.393-.532-.681-.701-.62-.259-.994-.259c-.305-.003-.605.053-.9.169s-.529.269-.701.458l-1.666-.274.532-5.25h5.906v1.541h-4.38l-.293 2.7h.06c.189-.222.456-.406.8-.552s.723-.224 1.134-.224c.616 0 1.167.146 1.651.438a3.09 3.09 0 0 1 1.143 1.193c.278.507.418 1.087.418 1.74 0 .673-.156 1.273-.467 1.8s-.738.936-1.288 1.238-1.18.447-1.899.447zm10.764-2.048v-.537c0-.394.083-.757.248-1.089a2.01 2.01 0 0 1 .736-.8c.322-.202.711-.303 1.168-.303.471 0 .865.101 1.183.303a1.92 1.92 0 0 1 .721.795c.166.332.249.696.249 1.094v.537c0 .394-.083.757-.249 1.089s-.409.598-.731.8-.709.303-1.173.303-.857-.101-1.178-.303-.565-.469-.731-.8-.244-.695-.244-1.089zm1.297-.537v.537a1.42 1.42 0 0 0 .189.721c.126.219.348.328.666.328s.542-.108.661-.323a1.46 1.46 0 0 0 .184-.726v-.537c0-.265-.058-.507-.174-.726s-.34-.333-.671-.333c-.312 0-.532.111-.661.333s-.194.461-.194.726zm-6.473-5.29v-.537a2.37 2.37 0 0 1 .254-1.093c.169-.332.414-.597.736-.796s.711-.303 1.168-.303c.467 0 .86.101 1.178.303s.563.464.726.796a2.45 2.45 0 0 1 .244 1.093v.537a2.41 2.41 0 0 1-.248 1.094 1.91 1.91 0 0 1-.726.79c-.322.199-.713.299-1.173.299-.467 0-.862-.1-1.183-.299s-.56-.464-.726-.795-.249-.694-.249-1.089zm1.308-.537v.537a1.46 1.46 0 0 0 .184.726c.126.215.348.323.666.323s.537-.108.656-.323a1.46 1.46 0 0 0 .184-.726v-.537c0-.265-.058-.507-.174-.726s-.338-.333-.666-.333c-.315 0-.535.111-.661.333s-.189.464-.189.726zM33.326 140l7-10.182h1.243l-7 10.182h-1.243z" fill="#fffbfd"/></svg>