<svg xmlns="http://www.w3.org/2000/svg" width="427" height="319" fill="none" xmlns:v="https://vecta.io/nano"><circle opacity=".1" cx="213.719" cy="176" r="119.5" fill="url(#A)" stroke="#3d3d3d"/><circle opacity=".2" cx="214" cy="176" r="65.5" fill="url(#B)" stroke="url(#C)"/><circle opacity=".2" cx="214" cy="176" r="167" stroke="url(#D)" stroke-linecap="round" stroke-dasharray="2 6"/><circle cx="128.516" cy="260" r="31.5" fill="#f48c16"/><circle cx="128.516" cy="260" r="31.5" fill="url(#E)"/><circle cx="128.516" cy="260" r="31.5" fill="url(#F)"/><path d="M145.831 260.6c0-1.997-5.433-3.663-12.654-4.047v-3.182h9.015v-6.621h-24.651v6.621h9.014v3.197c-7.088.411-12.391 2.059-12.391 4.032s5.303 3.621 12.391 4.031v11.424h6.622v-11.409c7.221-.383 12.654-2.05 12.654-4.046zm-15.834 1.967c-7.75 0-14.032-1.2-14.032-2.68 0-1.254 4.505-2.306 10.59-2.599v.755h.001v3.092a62.17 62.17 0 0 0 3.441.093c1.097 0 2.162-.028 3.181-.079v-3.873c6.217.275 10.852 1.339 10.852 2.611 0 1.48-6.283 2.68-14.033 2.68z" fill="#fffbfd"/><g clip-path="url(#K)"><use href="#M" fill="#9391f7"/><use href="#M" fill="url(#G)"/><path fill-rule="evenodd" d="M284.733 75.219c8.084-7.286 20.473-7.286 28.557 0l1.494-1.473c-8.919-8.108-22.661-8.108-31.581 0l1.53 1.473zm31.433-.129l-1.494 1.473c7.392 7.968 7.392 20.179 0 28.146l1.494 1.473a22.71 22.71 0 0 0 0-31.126v.034zm-32.829 1.506c-7.383 7.966-7.383 20.166 0 28.132l-1.495 1.522c-8.227-8.791-8.227-22.335 0-31.127l1.495 1.473zm29.939 29.49c-8.084 7.286-20.474 7.286-28.557 0l-1.495 1.473c8.92 8.108 22.661 8.108 31.581 0l-1.529-1.473zm-15.437-16.588c1.802.032 5.703.1 5.726-2.596.023-2.76-3.757-2.663-5.595-2.615l-.535.01-.043 5.196.447.006zm-.012 8.332c2.151.031 6.864.099 6.889-2.861.025-3.022-4.482-2.924-6.694-2.876l-.657.01-.048 5.722.51.005zm4.301-16.517c3.397.315 6.075 1.347 6.348 4.424.21 2.251-.762 3.603-2.296 4.37 2.508.595 4.068 2.07 3.727 5.373-.422 4.105-3.527 5.186-7.968 5.452l-.036 4.286h-2.633l.036-4.252h-2.1l-.036 4.272h-2.628l.037-4.336h-1.881-3.424l.548-3.102s1.946.029 1.911 0c.522.031.967-.353 1.003-.86l.098-11.685c-.099-.715-.755-1.22-1.483-1.141.03-.034-1.911 0-1.911 0l.023-2.777h3.653 1.672l.036-4.267h2.612l-.035 4.183c.702-.025 1.409-.025 2.101-.025l.035-4.159h2.627l-.036 4.242z" fill="#fffbfd"/></g><g clip-path="url(#L)"><path d="M298.219 292c17.673 0 32-14.327 32-32s-14.327-32-32-32-32 14.327-32 32 14.327 32 32 32z" fill="url(#H)"/><path d="M298.219 292c17.673 0 32-14.327 32-32s-14.327-32-32-32-32 14.327-32 32 14.327 32 32 32z" fill="url(#I)"/><g fill="#fff"><path d="M293.234 277.799c0 .667-.445.889-1.111.889-8.221-2.666-13.998-10.22-13.998-19.108s5.777-16.442 13.998-19.108c.666-.222 1.111.222 1.111.889v1.555c0 .444-.222.889-.667 1.111-6.443 2.444-10.887 8.443-10.887 15.553s4.666 13.331 10.887 15.553c.445.222.667.667.667 1.111v1.555zm6.672-5.561a.96.96 0 0 1-.889.889h-1.778a.96.96 0 0 1-.888-.889v-2.666c-3.555-.444-5.333-2.444-5.999-5.333 0-.444.222-.888.666-.888h2c.444 0 .666.222.889.666.444 1.556 1.333 2.889 4.221 2.889 2.222 0 3.777-1.111 3.777-2.889s-.888-2.444-3.999-2.888c-4.666-.667-6.888-2-6.888-5.777 0-2.889 2.222-5.11 5.333-5.555v-2.666a.96.96 0 0 1 .888-.889h1.778a.96.96 0 0 1 .889.889v2.666c2.666.445 4.443 2 4.888 4.444 0 .444-.222.889-.667.889h-1.777c-.445 0-.667-.222-.889-.667-.444-1.555-1.555-2.222-3.555-2.222-2.222 0-3.333 1.111-3.333 2.667s.667 2.444 4 2.888c4.665.667 6.887 2 6.887 5.777 0 2.888-2.222 5.332-5.554 5.999v2.666zm4.221 6.451c-.667.222-1.111-.222-1.111-.889v-1.555c0-.444.222-.889.666-1.111 6.444-2.444 10.887-8.443 10.887-15.553s-4.666-13.331-10.887-15.553c-.444-.223-.666-.667-.666-1.111v-1.556c0-.666.444-.888 1.111-.888 7.998 2.666 13.997 10.22 13.997 19.108s-5.776 16.442-13.997 19.108z"/></g></g><use href="#M" x="-169.703" fill="#2470ff"/><use href="#M" x="-169.703" fill="url(#G)"/><g fill="#fffbfd"><path d="M129 73.5v24.174l-11.375-6.349L129 73.5z"/><path d="M129 73.5l11.375 17.825L129 97.674V73.5zm0 26.209v8.791l-11.375-15.137L129 99.709z"/><path d="M129 108.5v-8.791l11.376-6.346L129 108.5z"/></g><circle cx="213.688" cy="174.689" r="35" transform="rotate(45 213.688 174.689)" fill="url(#J)"/><path fill-rule="evenodd" d="M225.481 169.982a5 5 0 0 1-7.071-7.071 5 5 0 0 1 7.071 7.071zm-9.333 4.615c3.905 2.785 9.364 2.425 12.868-1.079a10 10 0 0 0 0-14.142c-3.905-3.905-10.237-3.905-14.142 0-3.503 3.503-3.864 8.958-1.082 12.863l-14.24 14.239a1.67 1.67 0 0 0 0 2.357c.651.651 1.707.651 2.357 0l1.178-1.177 2.359 2.359c.651.651 1.706.651 2.357 0s.651-1.706 0-2.357l-2.357-2.357 1.173-1.177.002.002 3.536 3.535c.651.651 1.706.651 2.357 0s.651-1.706 0-2.357l-3.536-3.535-.002-.002 7.172-7.172z" fill="#fffbfd"/><defs><linearGradient id="A" x1="93.719" y1="176" x2="333.719" y2="176" href="#N"><stop stop-color="#ff49a4" stop-opacity=".5"/><stop offset=".93" stop-color="#b049ff" stop-opacity=".5"/></linearGradient><linearGradient id="B" x1="148" y1="176" x2="280" y2="176" href="#N"><stop stop-color="#ff49a4" stop-opacity=".5"/><stop offset=".93" stop-color="#b049ff" stop-opacity=".5"/></linearGradient><linearGradient id="C" x1="148" y1="176" x2="280" y2="176" href="#N"><stop stop-color="#ff49a4"/><stop offset=".93" stop-color="#b049ff"/></linearGradient><linearGradient id="D" x1="47" y1="176" x2="381" y2="176" href="#N"><stop stop-color="#ff49a4"/><stop offset=".93" stop-color="#b049ff"/></linearGradient><linearGradient id="E" x1="147.793" y1="245.214" x2="107.17" y2="276.372" href="#N"><stop stop-color="#fa43bd"/><stop offset="1" stop-color="#ffa930"/></linearGradient><linearGradient id="F" x1="97.016" y1="260" x2="160.016" y2="260" href="#N"><stop stop-color="#732860"/><stop offset=".93" stop-color="#651c8d"/></linearGradient><linearGradient id="G" x1="266.219" y1="91" x2="330.219" y2="91" href="#N"><stop stop-color="#732860"/><stop offset=".93" stop-color="#651c8d"/></linearGradient><linearGradient id="H" x1="266.219" y1="260" x2="330.219" y2="260" href="#N"><stop stop-color="#ff49a4"/><stop offset=".93" stop-color="#b049ff"/></linearGradient><linearGradient id="I" x1="266.219" y1="260" x2="330.219" y2="260" href="#N"><stop stop-color="#732860"/><stop offset=".93" stop-color="#651c8d"/></linearGradient><linearGradient id="J" x1="178.687" y1="174.689" x2="248.687" y2="174.689" href="#N"><stop stop-color="#ff49a4"/><stop offset=".93" stop-color="#b049ff"/></linearGradient><clipPath id="K"><path fill="#fff" transform="translate(266.219 59)" d="M0 0h64v64H0z"/></clipPath><clipPath id="L"><path fill="#fff" transform="translate(266.219 228)" d="M0 0h64v64H0z"/></clipPath><path id="M" d="M298.219 123c17.673 0 32-14.327 32-32s-14.327-32-32-32-32 14.327-32 32 14.327 32 32 32z"/><linearGradient id="N" gradientUnits="userSpaceOnUse"/></defs></svg>