<svg width="113" height="146" viewBox="0 0 113 146" fill="none" xmlns="http://www.w3.org/2000/svg">
  <circle cx="4" cy="21" r="4" fill="#FF49A4" />
  <path
    d="M16.8608 14V5.27273H18.4418V12.6747H22.2855V14H16.8608ZM23.5895 14V7.45455H25.1321V14H23.5895ZM24.3651 6.52557C24.1207 6.52557 23.9105 6.4446 23.7344 6.28267C23.5582 6.1179 23.4702 5.92045 23.4702 5.69034C23.4702 5.45739 23.5582 5.25994 23.7344 5.09801C23.9105 4.93324 24.1207 4.85085 24.3651 4.85085C24.6122 4.85085 24.8224 4.93324 24.9957 5.09801C25.1719 5.25994 25.2599 5.45739 25.2599 5.69034C25.2599 5.92045 25.1719 6.1179 24.9957 6.28267C24.8224 6.4446 24.6122 6.52557 24.3651 6.52557ZM31.0863 16.4545V12.9688H31.0224C30.9428 13.1278 30.8278 13.2969 30.6772 13.4759C30.5266 13.652 30.3278 13.8026 30.0806 13.9276C29.8335 14.0526 29.5224 14.1151 29.1474 14.1151C28.6332 14.1151 28.1729 13.983 27.7667 13.7188C27.3604 13.4545 27.0394 13.071 26.8036 12.5682C26.5678 12.0653 26.4499 11.4545 26.4499 10.7358C26.4499 10.0085 26.5692 9.39489 26.8079 8.89489C27.0494 8.39205 27.3746 8.01278 27.7837 7.7571C28.1928 7.49858 28.6488 7.36932 29.1516 7.36932C29.5352 7.36932 29.8505 7.43466 30.0977 7.56534C30.3448 7.69318 30.5408 7.84801 30.6857 8.02983C30.8306 8.20881 30.9428 8.37784 31.0224 8.53693H31.1161V7.45455H32.6332V16.4545H31.0863ZM29.5778 12.8494C29.9045 12.8494 30.1829 12.7614 30.413 12.5852C30.6431 12.4062 30.8178 12.1577 30.9371 11.8395C31.0565 11.5213 31.1161 11.1506 31.1161 10.7273C31.1161 10.304 31.0565 9.93608 30.9371 9.62358C30.8207 9.31108 30.6474 9.06818 30.4173 8.89489C30.19 8.72159 29.9102 8.63494 29.5778 8.63494C29.234 8.63494 28.9471 8.72443 28.717 8.90341C28.4869 9.08239 28.3136 9.32955 28.1971 9.64489C28.0806 9.96023 28.0224 10.321 28.0224 10.7273C28.0224 11.1364 28.0806 11.5014 28.1971 11.8224C28.3164 12.1406 28.4911 12.392 28.7212 12.5767C28.9542 12.7585 29.2397 12.8494 29.5778 12.8494ZM38.3903 11.2472V7.45455H39.9329V14H38.4371V12.8366H38.369C38.2212 13.2031 37.9783 13.5028 37.6403 13.7358C37.305 13.9687 36.8917 14.0852 36.4002 14.0852C35.9712 14.0852 35.592 13.9901 35.2624 13.7997C34.9357 13.6065 34.68 13.3267 34.4954 12.9602C34.3107 12.5909 34.2184 12.1449 34.2184 11.6222V7.45455H35.761V11.3835C35.761 11.7983 35.8746 12.1278 36.1019 12.3722C36.3292 12.6165 36.6275 12.7386 36.9968 12.7386C37.2241 12.7386 37.4442 12.6832 37.6573 12.5724C37.8704 12.4616 38.0451 12.2969 38.1815 12.0781C38.3207 11.8565 38.3903 11.5795 38.3903 11.2472ZM41.5192 14V7.45455H43.0618V14H41.5192ZM42.2947 6.52557C42.0504 6.52557 41.8402 6.4446 41.6641 6.28267C41.4879 6.1179 41.3999 5.92045 41.3999 5.69034C41.3999 5.45739 41.4879 5.25994 41.6641 5.09801C41.8402 4.93324 42.0504 4.85085 42.2947 4.85085C42.5419 4.85085 42.7521 4.93324 42.9254 5.09801C43.1016 5.25994 43.1896 5.45739 43.1896 5.69034C43.1896 5.92045 43.1016 6.1179 42.9254 6.28267C42.7521 6.4446 42.5419 6.52557 42.2947 6.52557ZM47.0771 14.1151C46.5629 14.1151 46.1026 13.983 45.6964 13.7188C45.2901 13.4545 44.9691 13.071 44.7333 12.5682C44.4975 12.0653 44.3796 11.4545 44.3796 10.7358C44.3796 10.0085 44.4989 9.39489 44.7376 8.89489C44.979 8.39205 45.3043 8.01278 45.7134 7.7571C46.1225 7.49858 46.5785 7.36932 47.0813 7.36932C47.4648 7.36932 47.7802 7.43466 48.0273 7.56534C48.2745 7.69318 48.4705 7.84801 48.6154 8.02983C48.7603 8.20881 48.8725 8.37784 48.9521 8.53693H49.016V5.27273H50.5629V14H49.0458V12.9688H48.9521C48.8725 13.1278 48.7575 13.2969 48.6069 13.4759C48.4563 13.652 48.2575 13.8026 48.0103 13.9276C47.7631 14.0526 47.4521 14.1151 47.0771 14.1151ZM47.5075 12.8494C47.8342 12.8494 48.1126 12.7614 48.3427 12.5852C48.5728 12.4062 48.7475 12.1577 48.8668 11.8395C48.9862 11.5213 49.0458 11.1506 49.0458 10.7273C49.0458 10.304 48.9862 9.93608 48.8668 9.62358C48.7504 9.31108 48.5771 9.06818 48.3469 8.89489C48.1197 8.72159 47.8398 8.63494 47.5075 8.63494C47.1637 8.63494 46.8768 8.72443 46.6467 8.90341C46.4165 9.08239 46.2433 9.32955 46.1268 9.64489C46.0103 9.96023 45.9521 10.321 45.9521 10.7273C45.9521 11.1364 46.0103 11.5014 46.1268 11.8224C46.2461 12.1406 46.4208 12.392 46.6509 12.5767C46.8839 12.7585 47.1694 12.8494 47.5075 12.8494ZM52.2067 14V7.45455H53.7493V14H52.2067ZM52.9822 6.52557C52.7379 6.52557 52.5277 6.4446 52.3516 6.28267C52.1754 6.1179 52.0874 5.92045 52.0874 5.69034C52.0874 5.45739 52.1754 5.25994 52.3516 5.09801C52.5277 4.93324 52.7379 4.85085 52.9822 4.85085C53.2294 4.85085 53.4396 4.93324 53.6129 5.09801C53.7891 5.25994 53.8771 5.45739 53.8771 5.69034C53.8771 5.92045 53.7891 6.1179 53.6129 6.28267C53.4396 6.4446 53.2294 6.52557 52.9822 6.52557ZM58.604 7.45455V8.64773H54.8413V7.45455H58.604ZM55.7702 5.88636H57.3129V12.0312C57.3129 12.2386 57.3441 12.3977 57.4066 12.5085C57.4719 12.6165 57.5572 12.6903 57.6623 12.7301C57.7674 12.7699 57.8839 12.7898 58.0117 12.7898C58.1083 12.7898 58.1964 12.7827 58.2759 12.7685C58.3583 12.7543 58.4208 12.7415 58.4634 12.7301L58.7234 13.9361C58.641 13.9645 58.5231 13.9957 58.3697 14.0298C58.2191 14.0639 58.0344 14.0838 57.8157 14.0895C57.4293 14.1009 57.0813 14.0426 56.7717 13.9148C56.462 13.7841 56.2163 13.5824 56.0344 13.3097C55.8555 13.0369 55.7674 12.696 55.7702 12.2869V5.88636ZM60.853 16.4545C60.6428 16.4545 60.4482 16.4375 60.2692 16.4034C60.093 16.3722 59.9524 16.3352 59.8473 16.2926L60.2053 15.0909C60.4297 15.1563 60.63 15.1875 60.8061 15.1847C60.9822 15.1818 61.1371 15.1264 61.2706 15.0185C61.407 14.9134 61.522 14.7372 61.6158 14.4901L61.7479 14.1364L59.3743 7.45455H61.0107L62.5192 12.3977H62.5874L64.1001 7.45455H65.7408L63.12 14.7926C62.9979 15.1392 62.8359 15.4361 62.6342 15.6832C62.4325 15.9332 62.1854 16.1236 61.8928 16.2543C61.603 16.3878 61.2564 16.4545 60.853 16.4545ZM69.853 14V5.27273H73.1257C73.7962 5.27273 74.3587 5.39773 74.8132 5.64773C75.2706 5.89773 75.6158 6.24148 75.8487 6.67898C76.0845 7.11364 76.2024 7.60795 76.2024 8.16193C76.2024 8.72159 76.0845 9.21875 75.8487 9.65341C75.6129 10.0881 75.2649 10.4304 74.8047 10.6804C74.3445 10.9276 73.7777 11.0511 73.1044 11.0511H70.9354V9.75142H72.8913C73.2834 9.75142 73.6044 9.68324 73.8544 9.54688C74.1044 9.41051 74.2891 9.22301 74.4084 8.98438C74.5305 8.74574 74.5916 8.47159 74.5916 8.16193C74.5916 7.85227 74.5305 7.57955 74.4084 7.34375C74.2891 7.10795 74.103 6.92472 73.8501 6.79403C73.6001 6.66051 73.2777 6.59375 72.8828 6.59375H71.4339V14H69.853ZM80.2688 14.1278C79.6296 14.1278 79.0756 13.9872 78.6069 13.706C78.1381 13.4247 77.7745 13.0312 77.516 12.5256C77.2603 12.0199 77.1325 11.429 77.1325 10.7528C77.1325 10.0767 77.2603 9.48437 77.516 8.97585C77.7745 8.46733 78.1381 8.07244 78.6069 7.79119C79.0756 7.50994 79.6296 7.36932 80.2688 7.36932C80.908 7.36932 81.462 7.50994 81.9308 7.79119C82.3995 8.07244 82.7617 8.46733 83.0174 8.97585C83.2759 9.48437 83.4052 10.0767 83.4052 10.7528C83.4052 11.429 83.2759 12.0199 83.0174 12.5256C82.7617 13.0312 82.3995 13.4247 81.9308 13.706C81.462 13.9872 80.908 14.1278 80.2688 14.1278ZM80.2773 12.892C80.6239 12.892 80.9137 12.7969 81.1467 12.6065C81.3796 12.4134 81.5529 12.1548 81.6665 11.831C81.783 11.5071 81.8413 11.1463 81.8413 10.7486C81.8413 10.348 81.783 9.9858 81.6665 9.66193C81.5529 9.33523 81.3796 9.07528 81.1467 8.8821C80.9137 8.68892 80.6239 8.59233 80.2773 8.59233C79.9222 8.59233 79.6268 8.68892 79.391 8.8821C79.158 9.07528 78.9833 9.33523 78.8668 9.66193C78.7532 9.9858 78.6964 10.348 78.6964 10.7486C78.6964 11.1463 78.7532 11.5071 78.8668 11.831C78.9833 12.1548 79.158 12.4134 79.391 12.6065C79.6268 12.7969 79.9222 12.892 80.2773 12.892ZM87.5696 14.1278C86.9304 14.1278 86.3764 13.9872 85.9077 13.706C85.4389 13.4247 85.0753 13.0312 84.8168 12.5256C84.5611 12.0199 84.4332 11.429 84.4332 10.7528C84.4332 10.0767 84.5611 9.48437 84.8168 8.97585C85.0753 8.46733 85.4389 8.07244 85.9077 7.79119C86.3764 7.50994 86.9304 7.36932 87.5696 7.36932C88.2088 7.36932 88.7628 7.50994 89.2315 7.79119C89.7003 8.07244 90.0625 8.46733 90.3182 8.97585C90.5767 9.48437 90.706 10.0767 90.706 10.7528C90.706 11.429 90.5767 12.0199 90.3182 12.5256C90.0625 13.0312 89.7003 13.4247 89.2315 13.706C88.7628 13.9872 88.2088 14.1278 87.5696 14.1278ZM87.5781 12.892C87.9247 12.892 88.2145 12.7969 88.4474 12.6065C88.6804 12.4134 88.8537 12.1548 88.9673 11.831C89.0838 11.5071 89.142 11.1463 89.142 10.7486C89.142 10.348 89.0838 9.9858 88.9673 9.66193C88.8537 9.33523 88.6804 9.07528 88.4474 8.8821C88.2145 8.68892 87.9247 8.59233 87.5781 8.59233C87.223 8.59233 86.9276 8.68892 86.6918 8.8821C86.4588 9.07528 86.2841 9.33523 86.1676 9.66193C86.054 9.9858 85.9972 10.348 85.9972 10.7486C85.9972 11.1463 86.054 11.5071 86.1676 11.831C86.2841 12.1548 86.4588 12.4134 86.6918 12.6065C86.9276 12.7969 87.223 12.892 87.5781 12.892ZM93.5579 5.27273V14H92.0153V5.27273H93.5579ZM100.317 9.18466L98.9112 9.33807C98.8714 9.19602 98.8018 9.0625 98.7024 8.9375C98.6058 8.8125 98.4751 8.71165 98.3104 8.63494C98.1456 8.55824 97.9439 8.51989 97.7053 8.51989C97.3842 8.51989 97.1143 8.58949 96.8956 8.72869C96.6797 8.8679 96.5732 9.0483 96.576 9.26989C96.5732 9.46023 96.6428 9.61506 96.7848 9.73438C96.9297 9.85369 97.1683 9.9517 97.5007 10.0284L98.6172 10.267C99.2365 10.4006 99.6967 10.6122 99.9979 10.902C100.302 11.1918 100.455 11.571 100.458 12.0398C100.455 12.4517 100.335 12.8153 100.096 13.1307C99.8601 13.4432 99.532 13.6875 99.1115 13.8636C98.6911 14.0398 98.2081 14.1278 97.6626 14.1278C96.8615 14.1278 96.2166 13.9602 95.728 13.625C95.2393 13.2869 94.9482 12.8168 94.8544 12.2145L96.3587 12.0696C96.4268 12.3651 96.5717 12.5881 96.7933 12.7386C97.0149 12.8892 97.3033 12.9645 97.6584 12.9645C98.0249 12.9645 98.3189 12.8892 98.5405 12.7386C98.7649 12.5881 98.8771 12.402 98.8771 12.1804C98.8771 11.9929 98.8047 11.8381 98.6598 11.7159C98.5178 11.5937 98.2962 11.5 97.995 11.4347L96.8786 11.2003C96.2507 11.0696 95.7862 10.8494 95.4851 10.5398C95.1839 10.2273 95.0348 9.83239 95.0376 9.35511C95.0348 8.9517 95.1442 8.60227 95.3658 8.30682C95.5902 8.00852 95.9013 7.77841 96.299 7.61648C96.6996 7.4517 97.1612 7.36932 97.6839 7.36932C98.451 7.36932 99.0547 7.53267 99.495 7.85938C99.9382 8.18608 100.212 8.62784 100.317 9.18466Z"
    fill="#BAB8B9" />
  <path
    d="M20.5589 36.1392C19.843 36.1392 19.2067 36.0166 18.6499 35.7713C18.0964 35.526 17.6589 35.1847 17.3374 34.7472C17.0159 34.3097 16.8452 33.8042 16.8253 33.2308H18.6946C18.7112 33.5059 18.8023 33.7462 18.968 33.9517C19.1338 34.1539 19.3542 34.3113 19.6293 34.424C19.9044 34.5367 20.2126 34.593 20.554 34.593C20.9186 34.593 21.2417 34.5301 21.5234 34.4041C21.8052 34.2749 22.0256 34.0959 22.1847 33.8672C22.3438 33.6385 22.4216 33.375 22.4183 33.0767C22.4216 32.7685 22.3421 32.4967 22.1797 32.2614C22.0173 32.026 21.782 31.8421 21.4737 31.7095C21.1688 31.5769 20.8009 31.5107 20.37 31.5107H19.4702V30.0888H20.37C20.7247 30.0888 21.0346 30.0275 21.2997 29.9048C21.5682 29.7822 21.7786 29.6098 21.9311 29.3878C22.0836 29.1624 22.1581 28.9022 22.1548 28.6072C22.1581 28.3189 22.0935 28.0687 21.9609 27.8565C21.8317 27.6411 21.6477 27.4737 21.4091 27.3544C21.1738 27.2351 20.897 27.1754 20.5788 27.1754C20.2673 27.1754 19.9789 27.2318 19.7138 27.3445C19.4486 27.4571 19.2348 27.6179 19.0724 27.8267C18.91 28.0322 18.8239 28.2775 18.8139 28.5625H17.0391C17.0523 27.9924 17.2164 27.492 17.5312 27.0611C17.8494 26.6269 18.2737 26.2888 18.804 26.0469C19.3343 25.8016 19.9292 25.679 20.5888 25.679C21.2682 25.679 21.8582 25.8066 22.3587 26.0618C22.8625 26.3137 23.2519 26.6534 23.527 27.081C23.8021 27.5085 23.9396 27.9808 23.9396 28.4979C23.9429 29.0713 23.7739 29.5518 23.4325 29.9396C23.0945 30.3274 22.6503 30.581 22.1001 30.7003V30.7798C22.8161 30.8793 23.3646 31.1444 23.7457 31.5753C24.1302 32.0028 24.3208 32.5348 24.3175 33.1712C24.3175 33.7412 24.1551 34.2517 23.8303 34.7024C23.5088 35.1499 23.0646 35.5012 22.4979 35.7564C21.9344 36.0116 21.2881 36.1392 20.5589 36.1392ZM29.5637 36.1392C28.9009 36.1392 28.3076 36.0149 27.7839 35.7663C27.2602 35.5144 26.8443 35.1697 26.536 34.7322C26.2311 34.2947 26.0687 33.7943 26.0488 33.2308H27.8386C27.8717 33.6484 28.0524 33.9898 28.3805 34.255C28.7086 34.5168 29.103 34.6477 29.5637 34.6477C29.925 34.6477 30.2465 34.5649 30.5282 34.3991C30.81 34.2334 31.032 34.0031 31.1944 33.7081C31.3568 33.4131 31.4364 33.0767 31.4331 32.6989C31.4364 32.3144 31.3552 31.973 31.1895 31.6747C31.0237 31.3764 30.7967 31.1428 30.5083 30.9737C30.22 30.8014 29.8886 30.7152 29.514 30.7152C29.2091 30.7119 28.9092 30.7682 28.6142 30.8842C28.3192 31.0002 28.0855 31.1527 27.9132 31.3416L26.2477 31.0682L26.7797 25.8182H32.6859V27.3594H28.3059L28.0126 30.0589H28.0723C28.2612 29.8369 28.528 29.6529 28.8727 29.5071C29.2174 29.358 29.5952 29.2834 30.0062 29.2834C30.6227 29.2834 31.1729 29.4292 31.6568 29.7209C32.1407 30.0092 32.5218 30.407 32.8002 30.9141C33.0787 31.4212 33.2179 32.0012 33.2179 32.6541C33.2179 33.3269 33.0621 33.9268 32.7505 34.4538C32.4423 34.9775 32.0131 35.3902 31.4629 35.6918C30.916 35.9901 30.283 36.1392 29.5637 36.1392ZM40.3272 34.0909V33.554C40.3272 33.1596 40.4101 32.7966 40.5758 32.4652C40.7449 32.1338 40.9901 31.867 41.3116 31.6648C41.6331 31.4626 42.0225 31.3615 42.4799 31.3615C42.9506 31.3615 43.345 31.4626 43.6632 31.6648C43.9814 31.8636 44.2217 32.1288 44.3841 32.4602C44.5498 32.7917 44.6326 33.1562 44.6326 33.554V34.0909C44.6326 34.4853 44.5498 34.8482 44.3841 35.1797C44.2183 35.5111 43.9747 35.7779 43.6532 35.9801C43.3351 36.1823 42.944 36.2834 42.4799 36.2834C42.0159 36.2834 41.6232 36.1823 41.3017 35.9801C40.9802 35.7779 40.7366 35.5111 40.5708 35.1797C40.4084 34.8482 40.3272 34.4853 40.3272 34.0909ZM41.6248 33.554V34.0909C41.6248 34.3527 41.6878 34.593 41.8137 34.8118C41.9397 35.0305 42.1618 35.1399 42.4799 35.1399C42.8014 35.1399 43.0218 35.0322 43.1412 34.8168C43.2638 34.598 43.3251 34.3561 43.3251 34.0909V33.554C43.3251 33.2888 43.2671 33.0469 43.1511 32.8281C43.0351 32.6061 42.8114 32.495 42.4799 32.495C42.1684 32.495 41.948 32.6061 41.8187 32.8281C41.6895 33.0469 41.6248 33.2888 41.6248 33.554ZM35.1518 28.2642V27.7273C35.1518 27.3295 35.2363 26.965 35.4054 26.6335C35.5744 26.3021 35.8197 26.0369 36.1412 25.8381C36.4627 25.6359 36.8521 25.5348 37.3095 25.5348C37.7768 25.5348 38.1696 25.6359 38.4877 25.8381C38.8092 26.0369 39.0512 26.3021 39.2136 26.6335C39.376 26.965 39.4572 27.3295 39.4572 27.7273V28.2642C39.4572 28.6619 39.3743 29.0265 39.2086 29.358C39.0462 29.6861 38.8043 29.9496 38.4828 30.1484C38.1613 30.3473 37.7702 30.4467 37.3095 30.4467C36.8422 30.4467 36.4477 30.3473 36.1262 30.1484C35.8081 29.9496 35.5661 29.6844 35.4004 29.353C35.2347 29.0215 35.1518 28.6586 35.1518 28.2642ZM36.4593 27.7273V28.2642C36.4593 28.5294 36.5207 28.7713 36.6433 28.9901C36.7692 29.2055 36.9913 29.3132 37.3095 29.3132C37.6277 29.3132 37.8464 29.2055 37.9657 28.9901C38.0884 28.7713 38.1497 28.5294 38.1497 28.2642V27.7273C38.1497 27.4621 38.0917 27.2202 37.9757 27.0014C37.8597 26.7794 37.6376 26.6683 37.3095 26.6683C36.9946 26.6683 36.7742 26.7794 36.6483 27.0014C36.5223 27.2235 36.4593 27.4654 36.4593 27.7273ZM35.7186 36L42.7186 25.8182H43.9615L36.9615 36H35.7186Z"
    fill="#FFFBFD" />
  <circle cx="4" cy="73" r="4" fill="#FF80BF" />
  <path
    d="M16.8608 66V57.2727H20.2017C20.8324 57.2727 21.3565 57.3722 21.7741 57.571C22.1946 57.767 22.5085 58.0355 22.7159 58.3764C22.9261 58.7173 23.0312 59.1037 23.0312 59.5355C23.0312 59.8906 22.9631 60.1946 22.8267 60.4474C22.6903 60.6974 22.5071 60.9006 22.277 61.0568C22.0469 61.2131 21.7898 61.3253 21.5057 61.3935V61.4787C21.8153 61.4957 22.1122 61.5909 22.3963 61.7642C22.6832 61.9347 22.9176 62.1761 23.0994 62.4886C23.2813 62.8011 23.3722 63.179 23.3722 63.6222C23.3722 64.0739 23.2628 64.4801 23.044 64.8409C22.8253 65.1989 22.4957 65.4815 22.0554 65.6889C21.6151 65.8963 21.0611 66 20.3935 66H16.8608ZM18.4418 64.679H20.142C20.7159 64.679 21.1293 64.5696 21.3821 64.3509C21.6378 64.1293 21.7656 63.8452 21.7656 63.4986C21.7656 63.2401 21.7017 63.0071 21.5739 62.7997C21.446 62.5895 21.2642 62.4247 21.0284 62.3054C20.7926 62.1832 20.5114 62.1222 20.1847 62.1222H18.4418V64.679ZM18.4418 60.9844H20.0057C20.2784 60.9844 20.5241 60.9347 20.7429 60.8352C20.9616 60.733 21.1335 60.5895 21.2585 60.4048C21.3864 60.2173 21.4503 59.9957 21.4503 59.7401C21.4503 59.402 21.331 59.1236 21.0923 58.9048C20.8565 58.6861 20.5057 58.5767 20.0398 58.5767H18.4418V60.9844ZM26.5629 66.1321C26.1481 66.1321 25.7745 66.0582 25.4421 65.9105C25.1126 65.7599 24.8512 65.5384 24.658 65.2457C24.4677 64.9531 24.3725 64.5923 24.3725 64.1634C24.3725 63.794 24.4407 63.4886 24.5771 63.2472C24.7134 63.0057 24.8995 62.8125 25.1353 62.6676C25.3711 62.5227 25.6367 62.4134 25.9322 62.3395C26.2305 62.2628 26.5387 62.2074 26.8569 62.1733C27.2404 62.1335 27.5515 62.098 27.7901 62.0668C28.0288 62.0327 28.2021 61.9815 28.31 61.9134C28.4208 61.8423 28.4762 61.733 28.4762 61.5852V61.5597C28.4762 61.2386 28.381 60.9901 28.1907 60.8139C28.0004 60.6378 27.7262 60.5497 27.3683 60.5497C26.9904 60.5497 26.6907 60.6321 26.4691 60.7969C26.2504 60.9616 26.1026 61.1562 26.0259 61.3807L24.5856 61.1761C24.6992 60.7784 24.8867 60.446 25.1481 60.179C25.4094 59.9091 25.729 59.7074 26.1069 59.5739C26.4847 59.4375 26.9023 59.3693 27.3597 59.3693C27.6751 59.3693 27.989 59.4062 28.3015 59.4801C28.614 59.554 28.8995 59.6761 29.158 59.8466C29.4165 60.0142 29.6239 60.2429 29.7802 60.5327C29.9393 60.8224 30.0188 61.1847 30.0188 61.6193V66H28.5359V65.1009H28.4847C28.391 65.2827 28.2589 65.4531 28.0884 65.6122C27.9208 65.7685 27.7092 65.8949 27.4535 65.9915C27.2006 66.0852 26.9038 66.1321 26.5629 66.1321ZM26.9634 64.9986C27.2731 64.9986 27.5415 64.9375 27.7688 64.8153C27.9961 64.6903 28.1708 64.5256 28.293 64.321C28.418 64.1165 28.4805 63.8935 28.4805 63.652V62.8807C28.4322 62.9205 28.3498 62.9574 28.2333 62.9915C28.1197 63.0256 27.9918 63.0554 27.8498 63.081C27.7077 63.1065 27.5671 63.1293 27.4279 63.1491C27.2887 63.169 27.168 63.1861 27.0657 63.2003C26.8356 63.2315 26.6296 63.2827 26.4478 63.3537C26.266 63.4247 26.1225 63.5241 26.0174 63.652C25.9123 63.777 25.8597 63.9389 25.8597 64.1378C25.8597 64.4219 25.9634 64.6364 26.1708 64.7812C26.3782 64.9261 26.6424 64.9986 26.9634 64.9986ZM36.7433 61.1847L35.337 61.3381C35.2972 61.196 35.2276 61.0625 35.1282 60.9375C35.0316 60.8125 34.9009 60.7116 34.7362 60.6349C34.5714 60.5582 34.3697 60.5199 34.131 60.5199C33.81 60.5199 33.5401 60.5895 33.3214 60.7287C33.1055 60.8679 32.9989 61.0483 33.0018 61.2699C32.9989 61.4602 33.0685 61.6151 33.2106 61.7344C33.3555 61.8537 33.5941 61.9517 33.9265 62.0284L35.043 62.267C35.6623 62.4006 36.1225 62.6122 36.4237 62.902C36.7276 63.1918 36.881 63.571 36.8839 64.0398C36.881 64.4517 36.7603 64.8153 36.5217 65.1307C36.2859 65.4432 35.9577 65.6875 35.5373 65.8636C35.1168 66.0398 34.6339 66.1278 34.0884 66.1278C33.2873 66.1278 32.6424 65.9602 32.1538 65.625C31.6651 65.2869 31.3739 64.8168 31.2802 64.2145L32.7844 64.0696C32.8526 64.3651 32.9975 64.5881 33.2191 64.7386C33.4407 64.8892 33.729 64.9645 34.0842 64.9645C34.4506 64.9645 34.7447 64.8892 34.9663 64.7386C35.1907 64.5881 35.3029 64.402 35.3029 64.1804C35.3029 63.9929 35.2305 63.8381 35.0856 63.7159C34.9435 63.5937 34.7219 63.5 34.4208 63.4347L33.3043 63.2003C32.6765 63.0696 32.212 62.8494 31.9109 62.5398C31.6097 62.2273 31.4606 61.8324 31.4634 61.3551C31.4606 60.9517 31.57 60.6023 31.7915 60.3068C32.016 60.0085 32.3271 59.7784 32.7248 59.6165C33.1254 59.4517 33.587 59.3693 34.1097 59.3693C34.8768 59.3693 35.4805 59.5327 35.9208 59.8594C36.364 60.1861 36.6381 60.6278 36.7433 61.1847ZM38.1559 66V59.4545H39.6985V66H38.1559ZM38.9315 58.5256C38.6871 58.5256 38.4769 58.4446 38.3008 58.2827C38.1246 58.1179 38.0366 57.9205 38.0366 57.6903C38.0366 57.4574 38.1246 57.2599 38.3008 57.098C38.4769 56.9332 38.6871 56.8509 38.9315 56.8509C39.1786 56.8509 39.3888 56.9332 39.5621 57.098C39.7383 57.2599 39.8263 57.4574 39.8263 57.6903C39.8263 57.9205 39.7383 58.1179 39.5621 58.2827C39.3888 58.4446 39.1786 58.5256 38.9315 58.5256ZM44.1399 66.1278C43.4865 66.1278 42.9254 65.9844 42.4567 65.6974C41.9908 65.4105 41.6314 65.0142 41.3786 64.5085C41.1286 64 41.0036 63.4148 41.0036 62.7528C41.0036 62.0881 41.1314 61.5014 41.3871 60.9929C41.6428 60.4815 42.0036 60.0838 42.4695 59.7997C42.9382 59.5128 43.4922 59.3693 44.1314 59.3693C44.6626 59.3693 45.1328 59.4673 45.5419 59.6634C45.9538 59.8565 46.282 60.1307 46.5263 60.4858C46.7706 60.8381 46.9098 61.25 46.9439 61.7216H45.4695C45.4098 61.4062 45.2678 61.1435 45.0433 60.9332C44.8217 60.7202 44.5249 60.6136 44.1527 60.6136C43.8374 60.6136 43.5604 60.6989 43.3217 60.8693C43.0831 61.0369 42.897 61.2784 42.7635 61.5938C42.6328 61.9091 42.5675 62.2869 42.5675 62.7273C42.5675 63.1733 42.6328 63.5568 42.7635 63.8778C42.8942 64.196 43.0774 64.4418 43.3132 64.6151C43.5518 64.7855 43.8317 64.8707 44.1527 64.8707C44.38 64.8707 44.5831 64.8281 44.7621 64.7429C44.9439 64.6548 45.0959 64.5284 45.218 64.3636C45.3402 64.1989 45.424 63.9986 45.4695 63.7628H46.9439C46.907 64.2259 46.7706 64.6364 46.5348 64.9943C46.299 65.3494 45.978 65.6278 45.5717 65.8295C45.1655 66.0284 44.6882 66.1278 44.1399 66.1278ZM50.8718 58.598V57.2727H57.8349V58.598H55.1374V66H53.5692V58.598H50.8718ZM58.4293 66V59.4545H59.9251V60.5455H59.9933C60.1126 60.1676 60.3171 59.8764 60.6069 59.6719C60.8995 59.4645 61.2333 59.3608 61.6083 59.3608C61.6935 59.3608 61.7887 59.3651 61.8938 59.3736C62.0018 59.3793 62.0913 59.3892 62.1623 59.4034V60.8224C62.0969 60.7997 61.9933 60.7798 61.8512 60.7628C61.712 60.7429 61.5771 60.733 61.4464 60.733C61.1651 60.733 60.9123 60.794 60.6879 60.9162C60.4663 61.0355 60.2915 61.2017 60.1637 61.4148C60.0359 61.6278 59.9719 61.8736 59.9719 62.152V66H58.4293ZM64.9535 66.1321C64.5387 66.1321 64.1651 66.0582 63.8327 65.9105C63.5032 65.7599 63.2418 65.5384 63.0487 65.2457C62.8583 64.9531 62.7631 64.5923 62.7631 64.1634C62.7631 63.794 62.8313 63.4886 62.9677 63.2472C63.104 63.0057 63.2901 62.8125 63.5259 62.6676C63.7617 62.5227 64.0273 62.4134 64.3228 62.3395C64.6211 62.2628 64.9293 62.2074 65.2475 62.1733C65.631 62.1335 65.9421 62.098 66.1808 62.0668C66.4194 62.0327 66.5927 61.9815 66.7006 61.9134C66.8114 61.8423 66.8668 61.733 66.8668 61.5852V61.5597C66.8668 61.2386 66.7717 60.9901 66.5813 60.8139C66.391 60.6378 66.1168 60.5497 65.7589 60.5497C65.381 60.5497 65.0813 60.6321 64.8597 60.7969C64.641 60.9616 64.4933 61.1562 64.4165 61.3807L62.9762 61.1761C63.0898 60.7784 63.2773 60.446 63.5387 60.179C63.8001 59.9091 64.1197 59.7074 64.4975 59.5739C64.8754 59.4375 65.293 59.3693 65.7504 59.3693C66.0657 59.3693 66.3796 59.4062 66.6921 59.4801C67.0046 59.554 67.2901 59.6761 67.5487 59.8466C67.8072 60.0142 68.0146 60.2429 68.1708 60.5327C68.3299 60.8224 68.4094 61.1847 68.4094 61.6193V66H66.9265V65.1009H66.8754C66.7816 65.2827 66.6495 65.4531 66.479 65.6122C66.3114 65.7685 66.0998 65.8949 65.8441 65.9915C65.5913 66.0852 65.2944 66.1321 64.9535 66.1321ZM65.354 64.9986C65.6637 64.9986 65.9322 64.9375 66.1594 64.8153C66.3867 64.6903 66.5614 64.5256 66.6836 64.321C66.8086 64.1165 66.8711 63.8935 66.8711 63.652V62.8807C66.8228 62.9205 66.7404 62.9574 66.6239 62.9915C66.5103 63.0256 66.3825 63.0554 66.2404 63.081C66.0984 63.1065 65.9577 63.1293 65.8185 63.1491C65.6793 63.169 65.5586 63.1861 65.4563 63.2003C65.2262 63.2315 65.0202 63.2827 64.8384 63.3537C64.6566 63.4247 64.5131 63.5241 64.408 63.652C64.3029 63.777 64.2504 63.9389 64.2504 64.1378C64.2504 64.4219 64.354 64.6364 64.5614 64.7812C64.7688 64.9261 65.033 64.9986 65.354 64.9986ZM72.3896 66.1151C71.8754 66.1151 71.4151 65.983 71.0089 65.7188C70.6026 65.4545 70.2816 65.071 70.0458 64.5682C69.81 64.0653 69.6921 63.4545 69.6921 62.7358C69.6921 62.0085 69.8114 61.3949 70.0501 60.8949C70.2915 60.392 70.6168 60.0128 71.0259 59.7571C71.435 59.4986 71.891 59.3693 72.3938 59.3693C72.7773 59.3693 73.0927 59.4347 73.3398 59.5653C73.587 59.6932 73.783 59.848 73.9279 60.0298C74.0728 60.2088 74.185 60.3778 74.2646 60.5369H74.3285V57.2727H75.8754V66H74.3583V64.9688H74.2646C74.185 65.1278 74.07 65.2969 73.9194 65.4759C73.7688 65.652 73.57 65.8026 73.3228 65.9276C73.0756 66.0526 72.7646 66.1151 72.3896 66.1151ZM72.82 64.8494C73.1467 64.8494 73.4251 64.7614 73.6552 64.5852C73.8853 64.4062 74.06 64.1577 74.1793 63.8395C74.2987 63.5213 74.3583 63.1506 74.3583 62.7273C74.3583 62.304 74.2987 61.9361 74.1793 61.6236C74.0629 61.3111 73.8896 61.0682 73.6594 60.8949C73.4322 60.7216 73.1523 60.6349 72.82 60.6349C72.4762 60.6349 72.1893 60.7244 71.9592 60.9034C71.729 61.0824 71.5558 61.3295 71.4393 61.6449C71.3228 61.9602 71.2646 62.321 71.2646 62.7273C71.2646 63.1364 71.3228 63.5014 71.4393 63.8224C71.5586 64.1406 71.7333 64.392 71.9634 64.5767C72.1964 64.7585 72.4819 64.8494 72.82 64.8494ZM77.5192 66V59.4545H79.0618V66H77.5192ZM78.2947 58.5256C78.0504 58.5256 77.8402 58.4446 77.6641 58.2827C77.4879 58.1179 77.3999 57.9205 77.3999 57.6903C77.3999 57.4574 77.4879 57.2599 77.6641 57.098C77.8402 56.9332 78.0504 56.8509 78.2947 56.8509C78.5419 56.8509 78.7521 56.9332 78.9254 57.098C79.1016 57.2599 79.1896 57.4574 79.1896 57.6903C79.1896 57.9205 79.1016 58.1179 78.9254 58.2827C78.7521 58.4446 78.5419 58.5256 78.2947 58.5256ZM82.1907 62.1648V66H80.6481V59.4545H82.1225V60.5668H82.1992C82.3498 60.2003 82.5898 59.9091 82.9194 59.6932C83.2518 59.4773 83.6623 59.3693 84.1509 59.3693C84.6026 59.3693 84.9961 59.4659 85.3313 59.6591C85.6694 59.8523 85.9308 60.1321 86.1154 60.4986C86.3029 60.8651 86.3952 61.3097 86.3924 61.8324V66H84.8498V62.071C84.8498 61.6335 84.7362 61.2912 84.5089 61.044C84.2844 60.7969 83.9734 60.6733 83.5756 60.6733C83.3058 60.6733 83.0657 60.733 82.8555 60.8523C82.6481 60.9687 82.4847 61.1378 82.3654 61.3594C82.2489 61.581 82.1907 61.8494 82.1907 62.1648ZM90.8072 68.5909C90.2532 68.5909 89.7773 68.5156 89.3796 68.3651C88.9819 68.2173 88.6623 68.0185 88.4208 67.7685C88.1793 67.5185 88.0117 67.2415 87.918 66.9375L89.3072 66.6009C89.3697 66.7287 89.4606 66.8551 89.5799 66.9801C89.6992 67.108 89.8597 67.2131 90.0614 67.2955C90.266 67.3807 90.5231 67.4233 90.8327 67.4233C91.2702 67.4233 91.6325 67.3168 91.9194 67.1037C92.2063 66.8935 92.3498 66.5469 92.3498 66.0639V64.8239H92.2731C92.1935 64.983 92.0771 65.1463 91.9237 65.3139C91.7731 65.4815 91.5728 65.6222 91.3228 65.7358C91.0756 65.8494 90.7646 65.9062 90.3896 65.9062C89.8867 65.9062 89.4308 65.7884 89.0217 65.5526C88.6154 65.3139 88.2915 64.9588 88.0501 64.4872C87.8114 64.0128 87.6921 63.419 87.6921 62.706C87.6921 61.9872 87.8114 61.3807 88.0501 60.8864C88.2915 60.3892 88.6168 60.0128 89.0259 59.7571C89.435 59.4986 89.891 59.3693 90.3938 59.3693C90.7773 59.3693 91.0927 59.4347 91.3398 59.5653C91.5898 59.6932 91.7887 59.848 91.9364 60.0298C92.0842 60.2088 92.1964 60.3778 92.2731 60.5369H92.3583V59.4545H93.8796V66.1065C93.8796 66.6662 93.7461 67.1293 93.479 67.4957C93.212 67.8622 92.8469 68.1364 92.3839 68.3182C91.9208 68.5 91.3952 68.5909 90.8072 68.5909ZM90.82 64.696C91.1467 64.696 91.4251 64.6165 91.6552 64.4574C91.8853 64.2983 92.06 64.0696 92.1793 63.7713C92.2987 63.473 92.3583 63.1151 92.3583 62.6974C92.3583 62.2855 92.2987 61.9247 92.1793 61.6151C92.0629 61.3054 91.8896 61.0653 91.6594 60.8949C91.4322 60.7216 91.1523 60.6349 90.82 60.6349C90.4762 60.6349 90.1893 60.7244 89.9592 60.9034C89.729 61.0824 89.5558 61.3281 89.4393 61.6406C89.3228 61.9503 89.2646 62.3026 89.2646 62.6974C89.2646 63.098 89.3228 63.4489 89.4393 63.75C89.5586 64.0483 89.7333 64.2812 89.9634 64.4489C90.1964 64.6136 90.4819 64.696 90.82 64.696Z"
    fill="#BAB8B9" />
  <path
    d="M20.5589 88.1392C19.843 88.1392 19.2067 88.0166 18.6499 87.7713C18.0964 87.526 17.6589 87.1847 17.3374 86.7472C17.0159 86.3097 16.8452 85.8042 16.8253 85.2308H18.6946C18.7112 85.5059 18.8023 85.7462 18.968 85.9517C19.1338 86.1539 19.3542 86.3113 19.6293 86.424C19.9044 86.5367 20.2126 86.593 20.554 86.593C20.9186 86.593 21.2417 86.5301 21.5234 86.4041C21.8052 86.2749 22.0256 86.0959 22.1847 85.8672C22.3438 85.6385 22.4216 85.375 22.4183 85.0767C22.4216 84.7685 22.3421 84.4967 22.1797 84.2614C22.0173 84.026 21.782 83.8421 21.4737 83.7095C21.1688 83.5769 20.8009 83.5107 20.37 83.5107H19.4702V82.0888H20.37C20.7247 82.0888 21.0346 82.0275 21.2997 81.9048C21.5682 81.7822 21.7786 81.6098 21.9311 81.3878C22.0836 81.1624 22.1581 80.9022 22.1548 80.6072C22.1581 80.3189 22.0935 80.0687 21.9609 79.8565C21.8317 79.6411 21.6477 79.4737 21.4091 79.3544C21.1738 79.2351 20.897 79.1754 20.5788 79.1754C20.2673 79.1754 19.9789 79.2318 19.7138 79.3445C19.4486 79.4571 19.2348 79.6179 19.0724 79.8267C18.91 80.0322 18.8239 80.2775 18.8139 80.5625H17.0391C17.0523 79.9924 17.2164 79.492 17.5312 79.0611C17.8494 78.6269 18.2737 78.2888 18.804 78.0469C19.3343 77.8016 19.9292 77.679 20.5888 77.679C21.2682 77.679 21.8582 77.8066 22.3587 78.0618C22.8625 78.3137 23.2519 78.6534 23.527 79.081C23.8021 79.5085 23.9396 79.9808 23.9396 80.4979C23.9429 81.0713 23.7739 81.5518 23.4325 81.9396C23.0945 82.3274 22.6503 82.581 22.1001 82.7003V82.7798C22.8161 82.8793 23.3646 83.1444 23.7457 83.5753C24.1302 84.0028 24.3208 84.5348 24.3175 85.1712C24.3175 85.7412 24.1551 86.2517 23.8303 86.7024C23.5088 87.1499 23.0646 87.5012 22.4979 87.7564C21.9344 88.0116 21.2881 88.1392 20.5589 88.1392ZM29.7875 88.1939C28.9688 88.1939 28.2662 87.9867 27.6795 87.5724C27.0962 87.1548 26.6471 86.5533 26.3322 85.7678C26.0207 84.9789 25.8649 84.0294 25.8649 82.919C25.8682 81.8087 26.0256 80.8641 26.3372 80.0852C26.652 79.303 27.1011 78.7064 27.6845 78.2955C28.2711 77.8845 28.9721 77.679 29.7875 77.679C30.6028 77.679 31.3038 77.8845 31.8904 78.2955C32.4771 78.7064 32.9262 79.303 33.2377 80.0852C33.5526 80.8674 33.71 81.812 33.71 82.919C33.71 84.0327 33.5526 84.9839 33.2377 85.7727C32.9262 86.5582 32.4771 87.1581 31.8904 87.5724C31.3071 87.9867 30.6061 88.1939 29.7875 88.1939ZM29.7875 86.6378C30.4238 86.6378 30.926 86.3246 31.2939 85.6982C31.6651 85.0684 31.8507 84.142 31.8507 82.919C31.8507 82.1103 31.7662 81.4309 31.5971 80.8807C31.4281 80.3305 31.1895 79.9162 30.8812 79.6378C30.573 79.3561 30.2084 79.2152 29.7875 79.2152C29.1544 79.2152 28.6539 79.5301 28.286 80.1598C27.9181 80.7862 27.7325 81.706 27.7292 82.919C27.7259 83.7311 27.8071 84.4138 27.9728 84.9673C28.1419 85.5208 28.3805 85.9384 28.6887 86.2202C28.997 86.4986 29.3632 86.6378 29.7875 86.6378ZM40.8058 86.0909V85.554C40.8058 85.1596 40.8886 84.7966 41.0543 84.4652C41.2234 84.1338 41.4686 83.867 41.7901 83.6648C42.1116 83.4626 42.5011 83.3615 42.9585 83.3615C43.4291 83.3615 43.8235 83.4626 44.1417 83.6648C44.4599 83.8636 44.7002 84.1288 44.8626 84.4602C45.0283 84.7917 45.1112 85.1562 45.1112 85.554V86.0909C45.1112 86.4853 45.0283 86.8482 44.8626 87.1797C44.6969 87.5111 44.4532 87.7779 44.1317 87.9801C43.8136 88.1823 43.4225 88.2834 42.9585 88.2834C42.4944 88.2834 42.1017 88.1823 41.7802 87.9801C41.4587 87.7779 41.2151 87.5111 41.0494 87.1797C40.887 86.8482 40.8058 86.4853 40.8058 86.0909ZM42.1033 85.554V86.0909C42.1033 86.3527 42.1663 86.593 42.2923 86.8118C42.4182 87.0305 42.6403 87.1399 42.9585 87.1399C43.2799 87.1399 43.5004 87.0322 43.6197 86.8168C43.7423 86.598 43.8036 86.3561 43.8036 86.0909V85.554C43.8036 85.2888 43.7456 85.0469 43.6296 84.8281C43.5136 84.6061 43.2899 84.495 42.9585 84.495C42.6469 84.495 42.4265 84.6061 42.2972 84.8281C42.168 85.0469 42.1033 85.2888 42.1033 85.554ZM35.6303 80.2642V79.7273C35.6303 79.3295 35.7148 78.965 35.8839 78.6335C36.0529 78.3021 36.2982 78.0369 36.6197 77.8381C36.9412 77.6359 37.3306 77.5348 37.788 77.5348C38.2553 77.5348 38.6481 77.6359 38.9663 77.8381C39.2878 78.0369 39.5297 78.3021 39.6921 78.6335C39.8545 78.965 39.9357 79.3295 39.9357 79.7273V80.2642C39.9357 80.6619 39.8529 81.0265 39.6871 81.358C39.5247 81.6861 39.2828 81.9496 38.9613 82.1484C38.6398 82.3473 38.2487 82.4467 37.788 82.4467C37.3207 82.4467 36.9263 82.3473 36.6048 82.1484C36.2866 81.9496 36.0446 81.6844 35.8789 81.353C35.7132 81.0215 35.6303 80.6586 35.6303 80.2642ZM36.9379 79.7273V80.2642C36.9379 80.5294 36.9992 80.7713 37.1218 80.9901C37.2478 81.2055 37.4698 81.3132 37.788 81.3132C38.1062 81.3132 38.3249 81.2055 38.4442 80.9901C38.5669 80.7713 38.6282 80.5294 38.6282 80.2642V79.7273C38.6282 79.4621 38.5702 79.2202 38.4542 79.0014C38.3382 78.7794 38.1161 78.6683 37.788 78.6683C37.4731 78.6683 37.2527 78.7794 37.1268 79.0014C37.0008 79.2235 36.9379 79.4654 36.9379 79.7273ZM36.1971 88L43.1971 77.8182H44.44L37.44 88H36.1971Z"
    fill="#FFFBFD" />
  <circle cx="4" cy="125" r="4" fill="#8D3360" />
  <path
    d="M18.4418 109.273V118H16.8608V109.273H18.4418ZM25.2589 113.185L23.8526 113.338C23.8129 113.196 23.7433 113.062 23.6438 112.938C23.5472 112.812 23.4165 112.712 23.2518 112.635C23.087 112.558 22.8853 112.52 22.6467 112.52C22.3256 112.52 22.0558 112.589 21.837 112.729C21.6211 112.868 21.5146 113.048 21.5174 113.27C21.5146 113.46 21.5842 113.615 21.7262 113.734C21.8711 113.854 22.1097 113.952 22.4421 114.028L23.5586 114.267C24.1779 114.401 24.6381 114.612 24.9393 114.902C25.2433 115.192 25.3967 115.571 25.3995 116.04C25.3967 116.452 25.2759 116.815 25.0373 117.131C24.8015 117.443 24.4734 117.687 24.0529 117.864C23.6325 118.04 23.1495 118.128 22.604 118.128C21.8029 118.128 21.158 117.96 20.6694 117.625C20.1808 117.287 19.8896 116.817 19.7958 116.214L21.3001 116.07C21.3683 116.365 21.5131 116.588 21.7347 116.739C21.9563 116.889 22.2447 116.964 22.5998 116.964C22.9663 116.964 23.2603 116.889 23.4819 116.739C23.7063 116.588 23.8185 116.402 23.8185 116.18C23.8185 115.993 23.7461 115.838 23.6012 115.716C23.4592 115.594 23.2376 115.5 22.9364 115.435L21.82 115.2C21.1921 115.07 20.7276 114.849 20.4265 114.54C20.1254 114.227 19.9762 113.832 19.979 113.355C19.9762 112.952 20.0856 112.602 20.3072 112.307C20.5316 112.009 20.8427 111.778 21.2404 111.616C21.641 111.452 22.1026 111.369 22.6254 111.369C23.3924 111.369 23.9961 111.533 24.4364 111.859C24.8796 112.186 25.1538 112.628 25.2589 113.185ZM29.5266 118.128C28.8874 118.128 28.3335 117.987 27.8647 117.706C27.396 117.425 27.0323 117.031 26.7738 116.526C26.5181 116.02 26.3903 115.429 26.3903 114.753C26.3903 114.077 26.5181 113.484 26.7738 112.976C27.0323 112.467 27.396 112.072 27.8647 111.791C28.3335 111.51 28.8874 111.369 29.5266 111.369C30.1658 111.369 30.7198 111.51 31.1886 111.791C31.6573 112.072 32.0195 112.467 32.2752 112.976C32.5337 113.484 32.663 114.077 32.663 114.753C32.663 115.429 32.5337 116.02 32.2752 116.526C32.0195 117.031 31.6573 117.425 31.1886 117.706C30.7198 117.987 30.1658 118.128 29.5266 118.128ZM29.5352 116.892C29.8817 116.892 30.1715 116.797 30.4045 116.607C30.6374 116.413 30.8107 116.155 30.9244 115.831C31.0408 115.507 31.0991 115.146 31.0991 114.749C31.0991 114.348 31.0408 113.986 30.9244 113.662C30.8107 113.335 30.6374 113.075 30.4045 112.882C30.1715 112.689 29.8817 112.592 29.5352 112.592C29.18 112.592 28.8846 112.689 28.6488 112.882C28.4158 113.075 28.2411 113.335 28.1246 113.662C28.011 113.986 27.9542 114.348 27.9542 114.749C27.9542 115.146 28.011 115.507 28.1246 115.831C28.2411 116.155 28.4158 116.413 28.6488 116.607C28.8846 116.797 29.18 116.892 29.5352 116.892ZM35.5149 109.273V118H33.9723V109.273H35.5149ZM38.9847 118.132C38.57 118.132 38.1964 118.058 37.864 117.911C37.5344 117.76 37.2731 117.538 37.0799 117.246C36.8896 116.953 36.7944 116.592 36.7944 116.163C36.7944 115.794 36.8626 115.489 36.9989 115.247C37.1353 115.006 37.3214 114.812 37.5572 114.668C37.793 114.523 38.0586 114.413 38.354 114.339C38.6523 114.263 38.9606 114.207 39.2788 114.173C39.6623 114.134 39.9734 114.098 40.212 114.067C40.4506 114.033 40.6239 113.982 40.7319 113.913C40.8427 113.842 40.8981 113.733 40.8981 113.585V113.56C40.8981 113.239 40.8029 112.99 40.6126 112.814C40.4222 112.638 40.1481 112.55 39.7901 112.55C39.4123 112.55 39.1126 112.632 38.891 112.797C38.6722 112.962 38.5245 113.156 38.4478 113.381L37.0075 113.176C37.1211 112.778 37.3086 112.446 37.57 112.179C37.8313 111.909 38.1509 111.707 38.5288 111.574C38.9066 111.438 39.3242 111.369 39.7816 111.369C40.0969 111.369 40.4109 111.406 40.7234 111.48C41.0359 111.554 41.3214 111.676 41.5799 111.847C41.8384 112.014 42.0458 112.243 42.2021 112.533C42.3612 112.822 42.4407 113.185 42.4407 113.619V118H40.9577V117.101H40.9066C40.8129 117.283 40.6808 117.453 40.5103 117.612C40.3427 117.768 40.131 117.895 39.8754 117.991C39.6225 118.085 39.3256 118.132 38.9847 118.132ZM39.3853 116.999C39.695 116.999 39.9634 116.937 40.1907 116.815C40.418 116.69 40.5927 116.526 40.7148 116.321C40.8398 116.116 40.9023 115.893 40.9023 115.652V114.881C40.854 114.92 40.7717 114.957 40.6552 114.991C40.5415 115.026 40.4137 115.055 40.2717 115.081C40.1296 115.107 39.989 115.129 39.8498 115.149C39.7106 115.169 39.5898 115.186 39.4876 115.2C39.2575 115.232 39.0515 115.283 38.8697 115.354C38.6879 115.425 38.5444 115.524 38.4393 115.652C38.3342 115.777 38.2816 115.939 38.2816 116.138C38.2816 116.422 38.3853 116.636 38.5927 116.781C38.8001 116.926 39.0643 116.999 39.3853 116.999ZM47.2603 111.455V112.648H43.4975V111.455H47.2603ZM44.4265 109.886H45.9691V116.031C45.9691 116.239 46.0004 116.398 46.0629 116.509C46.1282 116.616 46.2134 116.69 46.3185 116.73C46.4237 116.77 46.5401 116.79 46.668 116.79C46.7646 116.79 46.8526 116.783 46.9322 116.768C47.0146 116.754 47.0771 116.741 47.1197 116.73L47.3796 117.936C47.2972 117.964 47.1793 117.996 47.0259 118.03C46.8754 118.064 46.6907 118.084 46.4719 118.089C46.0856 118.101 45.7376 118.043 45.4279 117.915C45.1183 117.784 44.8725 117.582 44.6907 117.31C44.5117 117.037 44.4237 116.696 44.4265 116.287V109.886ZM51.3778 118.128C50.7216 118.128 50.1548 117.991 49.6776 117.719C49.2031 117.443 48.8381 117.054 48.5824 116.551C48.3267 116.045 48.1989 115.45 48.1989 114.766C48.1989 114.092 48.3267 113.501 48.5824 112.993C48.8409 112.482 49.2017 112.084 49.6648 111.8C50.1278 111.513 50.6719 111.369 51.2969 111.369C51.7003 111.369 52.081 111.435 52.4389 111.565C52.7997 111.693 53.1179 111.892 53.3935 112.162C53.6719 112.432 53.8906 112.776 54.0497 113.193C54.2088 113.608 54.2884 114.102 54.2884 114.676V115.149H48.9233V114.109H52.8097C52.8068 113.814 52.7429 113.551 52.6179 113.321C52.4929 113.088 52.3182 112.905 52.0938 112.771C51.8722 112.638 51.6136 112.571 51.3182 112.571C51.0028 112.571 50.7259 112.648 50.4872 112.801C50.2486 112.952 50.0625 113.151 49.929 113.398C49.7983 113.642 49.7315 113.911 49.7287 114.203V115.111C49.7287 115.491 49.7983 115.818 49.9375 116.091C50.0767 116.361 50.2713 116.568 50.5213 116.713C50.7713 116.855 51.0639 116.926 51.3991 116.926C51.6236 116.926 51.8267 116.895 52.0085 116.832C52.1903 116.767 52.348 116.672 52.4815 116.547C52.6151 116.422 52.7159 116.267 52.7841 116.082L54.2244 116.244C54.1335 116.625 53.9602 116.957 53.7045 117.241C53.4517 117.523 53.1278 117.741 52.733 117.898C52.3381 118.051 51.8864 118.128 51.3778 118.128ZM58.0224 118.115C57.5082 118.115 57.0479 117.983 56.6417 117.719C56.2354 117.455 55.9144 117.071 55.6786 116.568C55.4428 116.065 55.3249 115.455 55.3249 114.736C55.3249 114.009 55.4442 113.395 55.6829 112.895C55.9244 112.392 56.2496 112.013 56.6587 111.757C57.0678 111.499 57.5238 111.369 58.0266 111.369C58.4102 111.369 58.7255 111.435 58.9727 111.565C59.2198 111.693 59.4158 111.848 59.5607 112.03C59.7056 112.209 59.8178 112.378 59.8974 112.537H59.9613V109.273H61.5082V118H59.9911V116.969H59.8974C59.8178 117.128 59.7028 117.297 59.5522 117.476C59.4016 117.652 59.2028 117.803 58.9556 117.928C58.7085 118.053 58.3974 118.115 58.0224 118.115ZM58.4528 116.849C58.7795 116.849 59.0579 116.761 59.288 116.585C59.5181 116.406 59.6928 116.158 59.8121 115.839C59.9315 115.521 59.9911 115.151 59.9911 114.727C59.9911 114.304 59.9315 113.936 59.8121 113.624C59.6957 113.311 59.5224 113.068 59.2923 112.895C59.065 112.722 58.7852 112.635 58.4528 112.635C58.109 112.635 57.8221 112.724 57.592 112.903C57.3619 113.082 57.1886 113.33 57.0721 113.645C56.9556 113.96 56.8974 114.321 56.8974 114.727C56.8974 115.136 56.9556 115.501 57.0721 115.822C57.1914 116.141 57.3661 116.392 57.5962 116.577C57.8292 116.759 58.1147 116.849 58.4528 116.849ZM66.1967 118V109.273H67.7777V116.675H71.6214V118H66.1967ZM75.8232 118.128C75.1669 118.128 74.6001 117.991 74.1229 117.719C73.6484 117.443 73.2834 117.054 73.0277 116.551C72.772 116.045 72.6442 115.45 72.6442 114.766C72.6442 114.092 72.772 113.501 73.0277 112.993C73.2862 112.482 73.647 112.084 74.1101 111.8C74.5732 111.513 75.1172 111.369 75.7422 111.369C76.1456 111.369 76.5263 111.435 76.8842 111.565C77.245 111.693 77.5632 111.892 77.8388 112.162C78.1172 112.432 78.3359 112.776 78.495 113.193C78.6541 113.608 78.7337 114.102 78.7337 114.676V115.149H73.3686V114.109H77.255C77.2521 113.814 77.1882 113.551 77.0632 113.321C76.9382 113.088 76.7635 112.905 76.5391 112.771C76.3175 112.638 76.0589 112.571 75.7635 112.571C75.4482 112.571 75.1712 112.648 74.9325 112.801C74.6939 112.952 74.5078 113.151 74.3743 113.398C74.2436 113.642 74.1768 113.911 74.174 114.203V115.111C74.174 115.491 74.2436 115.818 74.3828 116.091C74.522 116.361 74.7166 116.568 74.9666 116.713C75.2166 116.855 75.5092 116.926 75.8445 116.926C76.0689 116.926 76.272 116.895 76.4538 116.832C76.6357 116.767 76.7933 116.672 76.9268 116.547C77.0604 116.422 77.1612 116.267 77.2294 116.082L78.6697 116.244C78.5788 116.625 78.4055 116.957 78.1499 117.241C77.897 117.523 77.5732 117.741 77.1783 117.898C76.7834 118.051 76.3317 118.128 75.8232 118.128ZM81.5813 114.165V118H80.0387V111.455H81.5131V112.567H81.5898C81.7404 112.2 81.9805 111.909 82.31 111.693C82.6424 111.477 83.0529 111.369 83.5415 111.369C83.9933 111.369 84.3867 111.466 84.7219 111.659C85.06 111.852 85.3214 112.132 85.506 112.499C85.6935 112.865 85.7859 113.31 85.783 113.832V118H84.2404V114.071C84.2404 113.634 84.1268 113.291 83.8995 113.044C83.6751 112.797 83.364 112.673 82.9663 112.673C82.6964 112.673 82.4563 112.733 82.2461 112.852C82.0387 112.969 81.8754 113.138 81.756 113.359C81.6396 113.581 81.5813 113.849 81.5813 114.165ZM89.7802 118.115C89.266 118.115 88.8058 117.983 88.3995 117.719C87.9933 117.455 87.6722 117.071 87.4364 116.568C87.2006 116.065 87.0827 115.455 87.0827 114.736C87.0827 114.009 87.2021 113.395 87.4407 112.895C87.6822 112.392 88.0075 112.013 88.4165 111.757C88.8256 111.499 89.2816 111.369 89.7844 111.369C90.168 111.369 90.4833 111.435 90.7305 111.565C90.9776 111.693 91.1737 111.848 91.3185 112.03C91.4634 112.209 91.5756 112.378 91.6552 112.537H91.7191V109.273H93.266V118H91.7489V116.969H91.6552C91.5756 117.128 91.4606 117.297 91.31 117.476C91.1594 117.652 90.9606 117.803 90.7134 117.928C90.4663 118.053 90.1552 118.115 89.7802 118.115ZM90.2106 116.849C90.5373 116.849 90.8157 116.761 91.0458 116.585C91.2759 116.406 91.4506 116.158 91.57 115.839C91.6893 115.521 91.7489 115.151 91.7489 114.727C91.7489 114.304 91.6893 113.936 91.57 113.624C91.4535 113.311 91.2802 113.068 91.0501 112.895C90.8228 112.722 90.543 112.635 90.2106 112.635C89.8668 112.635 89.5799 112.724 89.3498 112.903C89.1197 113.082 88.9464 113.33 88.8299 113.645C88.7134 113.96 88.6552 114.321 88.6552 114.727C88.6552 115.136 88.7134 115.501 88.8299 115.822C88.9492 116.141 89.1239 116.392 89.354 116.577C89.587 116.759 89.8725 116.849 90.2106 116.849ZM94.9098 118V111.455H96.4524V118H94.9098ZM95.6854 110.526C95.4411 110.526 95.2308 110.445 95.0547 110.283C94.8786 110.118 94.7905 109.92 94.7905 109.69C94.7905 109.457 94.8786 109.26 95.0547 109.098C95.2308 108.933 95.4411 108.851 95.6854 108.851C95.9325 108.851 96.1428 108.933 96.3161 109.098C96.4922 109.26 96.5803 109.457 96.5803 109.69C96.5803 109.92 96.4922 110.118 96.3161 110.283C96.1428 110.445 95.9325 110.526 95.6854 110.526ZM99.5813 114.165V118H98.0387V111.455H99.5131V112.567H99.5898C99.7404 112.2 99.9805 111.909 100.31 111.693C100.642 111.477 101.053 111.369 101.542 111.369C101.993 111.369 102.387 111.466 102.722 111.659C103.06 111.852 103.321 112.132 103.506 112.499C103.694 112.865 103.786 113.31 103.783 113.832V118H102.24V114.071C102.24 113.634 102.127 113.291 101.9 113.044C101.675 112.797 101.364 112.673 100.966 112.673C100.696 112.673 100.456 112.733 100.246 112.852C100.039 112.969 99.8754 113.138 99.756 113.359C99.6396 113.581 99.5813 113.849 99.5813 114.165ZM108.198 120.591C107.644 120.591 107.168 120.516 106.77 120.365C106.373 120.217 106.053 120.018 105.811 119.768C105.57 119.518 105.402 119.241 105.309 118.938L106.698 118.601C106.76 118.729 106.851 118.855 106.971 118.98C107.09 119.108 107.25 119.213 107.452 119.295C107.657 119.381 107.914 119.423 108.223 119.423C108.661 119.423 109.023 119.317 109.31 119.104C109.597 118.893 109.74 118.547 109.74 118.064V116.824H109.664C109.584 116.983 109.468 117.146 109.314 117.314C109.164 117.482 108.963 117.622 108.713 117.736C108.466 117.849 108.155 117.906 107.78 117.906C107.277 117.906 106.821 117.788 106.412 117.553C106.006 117.314 105.682 116.959 105.441 116.487C105.202 116.013 105.083 115.419 105.083 114.706C105.083 113.987 105.202 113.381 105.441 112.886C105.682 112.389 106.007 112.013 106.417 111.757C106.826 111.499 107.282 111.369 107.784 111.369C108.168 111.369 108.483 111.435 108.73 111.565C108.98 111.693 109.179 111.848 109.327 112.03C109.475 112.209 109.587 112.378 109.664 112.537H109.749V111.455H111.27V118.107C111.27 118.666 111.137 119.129 110.87 119.496C110.603 119.862 110.238 120.136 109.775 120.318C109.311 120.5 108.786 120.591 108.198 120.591ZM108.211 116.696C108.537 116.696 108.816 116.616 109.046 116.457C109.276 116.298 109.451 116.07 109.57 115.771C109.689 115.473 109.749 115.115 109.749 114.697C109.749 114.286 109.689 113.925 109.57 113.615C109.453 113.305 109.28 113.065 109.05 112.895C108.823 112.722 108.543 112.635 108.211 112.635C107.867 112.635 107.58 112.724 107.35 112.903C107.12 113.082 106.946 113.328 106.83 113.641C106.713 113.95 106.655 114.303 106.655 114.697C106.655 115.098 106.713 115.449 106.83 115.75C106.949 116.048 107.124 116.281 107.354 116.449C107.587 116.614 107.873 116.696 108.211 116.696Z"
    fill="#BAB8B9" />
  <path
    d="M21.0462 129.818V140H19.2017V131.613H19.142L16.7607 133.134V131.444L19.2912 129.818H21.0462ZM27.1712 140.139C26.5083 140.139 25.915 140.015 25.3913 139.766C24.8677 139.514 24.4517 139.17 24.1435 138.732C23.8385 138.295 23.6761 137.794 23.6562 137.231H25.446C25.4792 137.648 25.6598 137.99 25.9879 138.255C26.3161 138.517 26.7105 138.648 27.1712 138.648C27.5324 138.648 27.8539 138.565 28.1357 138.399C28.4174 138.233 28.6394 138.003 28.8018 137.708C28.9643 137.413 29.0438 137.077 29.0405 136.699C29.0438 136.314 28.9626 135.973 28.7969 135.675C28.6312 135.376 28.4041 135.143 28.1158 134.974C27.8274 134.801 27.496 134.715 27.1214 134.715C26.8165 134.712 26.5166 134.768 26.2216 134.884C25.9266 135 25.6929 135.153 25.5206 135.342L23.8551 135.068L24.3871 129.818H30.2933V131.359H25.9134L25.62 134.059H25.6797C25.8686 133.837 26.1354 133.653 26.4801 133.507C26.8248 133.358 27.2027 133.283 27.6136 133.283C28.2301 133.283 28.7803 133.429 29.2642 133.721C29.7481 134.009 30.1293 134.407 30.4077 134.914C30.6861 135.421 30.8253 136.001 30.8253 136.654C30.8253 137.327 30.6695 137.927 30.358 138.454C30.0497 138.978 29.6205 139.39 29.0703 139.692C28.5234 139.99 27.8904 140.139 27.1712 140.139ZM37.9347 138.091V137.554C37.9347 137.16 38.0175 136.797 38.1832 136.465C38.3523 136.134 38.5975 135.867 38.919 135.665C39.2405 135.463 39.63 135.362 40.0874 135.362C40.558 135.362 40.9524 135.463 41.2706 135.665C41.5888 135.864 41.8291 136.129 41.9915 136.46C42.1572 136.792 42.2401 137.156 42.2401 137.554V138.091C42.2401 138.485 42.1572 138.848 41.9915 139.18C41.8258 139.511 41.5822 139.778 41.2607 139.98C40.9425 140.182 40.5514 140.283 40.0874 140.283C39.6233 140.283 39.2306 140.182 38.9091 139.98C38.5876 139.778 38.344 139.511 38.1783 139.18C38.0159 138.848 37.9347 138.485 37.9347 138.091ZM39.2322 137.554V138.091C39.2322 138.353 39.2952 138.593 39.4212 138.812C39.5471 139.031 39.7692 139.14 40.0874 139.14C40.4089 139.14 40.6293 139.032 40.7486 138.817C40.8712 138.598 40.9325 138.356 40.9325 138.091V137.554C40.9325 137.289 40.8745 137.047 40.7585 136.828C40.6425 136.606 40.4188 136.495 40.0874 136.495C39.7758 136.495 39.5554 136.606 39.4261 136.828C39.2969 137.047 39.2322 137.289 39.2322 137.554ZM32.7592 132.264V131.727C32.7592 131.33 32.8438 130.965 33.0128 130.634C33.1818 130.302 33.4271 130.037 33.7486 129.838C34.0701 129.636 34.4595 129.535 34.9169 129.535C35.3842 129.535 35.777 129.636 36.0952 129.838C36.4167 130.037 36.6586 130.302 36.821 130.634C36.9834 130.965 37.0646 131.33 37.0646 131.727V132.264C37.0646 132.662 36.9818 133.027 36.8161 133.358C36.6536 133.686 36.4117 133.95 36.0902 134.148C35.7687 134.347 35.3776 134.447 34.9169 134.447C34.4496 134.447 34.0552 134.347 33.7337 134.148C33.4155 133.95 33.1735 133.684 33.0078 133.353C32.8421 133.022 32.7592 132.659 32.7592 132.264ZM34.0668 131.727V132.264C34.0668 132.529 34.1281 132.771 34.2507 132.99C34.3767 133.205 34.5987 133.313 34.9169 133.313C35.2351 133.313 35.4538 133.205 35.5732 132.99C35.6958 132.771 35.7571 132.529 35.7571 132.264V131.727C35.7571 131.462 35.6991 131.22 35.5831 131.001C35.4671 130.779 35.245 130.668 34.9169 130.668C34.602 130.668 34.3816 130.779 34.2557 131.001C34.1297 131.223 34.0668 131.465 34.0668 131.727ZM33.326 140L40.326 129.818H41.5689L34.5689 140H33.326Z"
    fill="#FFFBFD" />
</svg>