<svg xmlns="http://www.w3.org/2000/svg" width="170" height="57" fill="none" xmlns:v="https://vecta.io/nano"><path fill-rule="evenodd" d="M0 56.94V.06h63.08v16.987h-3.304L59.767 2.91H3.163v51.182h56.604V39.198h3.313V56.94H0zm22.391-26.775c.59.664.908 1.492.898 2.343a3.49 3.49 0 0 1-.651 2.098 4.23 4.23 0 0 1-1.881 1.424 7.55 7.55 0 0 1-2.908.521h-7.125V21.659h6.813c.99-.02 1.974.147 2.888.489a4.08 4.08 0 0 1 1.846 1.369c.42.591.638 1.28.627 1.981a3.16 3.16 0 0 1-.757 2.176c-.525.592-1.238 1.024-2.045 1.239.911.146 1.729.593 2.293 1.253zm-8.354-2.366h3.027a2.99 2.99 0 0 0 1.823-.479c.216-.17.386-.383.497-.621a1.54 1.54 0 0 0 .141-.755c.017-.259-.032-.518-.142-.758a1.73 1.73 0 0 0-.496-.626c-.523-.355-1.17-.529-1.823-.49h-3.027v3.73zm5.216 5.802c.228-.179.407-.403.524-.654a1.63 1.63 0 0 0 .151-.795 1.7 1.7 0 0 0-.163-.823c-.123-.26-.31-.491-.547-.676a3.07 3.07 0 0 0-1.917-.544h-3.264v4.009h3.336a3.06 3.06 0 0 0 1.88-.52v.004zm9.476 2.95V20.764h-3.313v15.787h3.313zm5.159-.572c-1.002-.498-1.827-1.242-2.38-2.145-.592-.979-.891-2.079-.868-3.194a5.8 5.8 0 0 1 .893-3.194c.568-.905 1.408-1.648 2.423-2.142 1.059-.498 2.236-.758 3.431-.758s2.372.26 3.431.758c1.015.494 1.855 1.237 2.423 2.142.607.976.914 2.08.89 3.199.025 1.119-.288 2.223-.907 3.194a6.06 6.06 0 0 1-2.459 2.145c-1.066.513-2.258.773-3.466.758-1.191.016-2.366-.247-3.411-.763zm5.098-2.238c.541-.275.981-.687 1.265-1.184a3.67 3.67 0 0 0 .474-1.918c.067-.95-.286-1.886-.982-2.603a3.26 3.26 0 0 0-1.094-.681 3.54 3.54 0 0 0-1.306-.226c-.445-.009-.887.068-1.297.224s-.779.389-1.082.682c-.617.75-.952 1.659-.956 2.593a4.1 4.1 0 0 0 .933 2.6 3.1 3.1 0 0 0 1.068.684c.406.156.845.232 1.286.222.592.003 1.175-.132 1.693-.391v-.002zm9.335-8.431c-.975.499-1.772 1.238-2.297 2.131l.002-.007a6.68 6.68 0 0 0 0 6.416c.525.893 1.322 1.634 2.296 2.134 1.026.516 2.185.777 3.359.758 1.444.048 2.863-.352 4.021-1.132 1.082-.765 1.842-1.841 2.155-3.048h-3.573a2.28 2.28 0 0 1-.99 1.234 2.71 2.71 0 0 1-1.635.385 2.99 2.99 0 0 1-1.248-.221c-.391-.161-.734-.403-1.002-.706-.605-.754-.897-1.675-.826-2.603-.067-.937.225-1.867.826-2.634a2.71 2.71 0 0 1 1.002-.706 2.99 2.99 0 0 1 1.248-.22c.592-.018 1.175.136 1.664.437.455.298.791.719.959 1.203h3.585c-.293-1.221-1.051-2.311-2.143-3.079-1.175-.761-2.597-1.148-4.043-1.098-1.174-.02-2.333.242-3.359.758zm19.21 11.242l-4.448-5.034v5.034H59.77V20.764h3.313v8.978l4.405-5.013h4.304l-5.776 5.932 5.822 5.893-4.306-.003zm7.974 0l5.976-14.577h1.852l5.975 14.577h-1.736l-1.447-3.506h-7.454l-1.43 3.506h-1.736zm6.9-12.718l-3.235 7.985 6.47.001-3.235-7.986zm15.331.966c-.905-.013-1.8.18-2.599.563-.755.363-1.368.926-1.756 1.614v-1.963h-1.632V36.55h1.64v-6.302c-.09-1.124.304-2.236 1.1-3.105.381-.355.842-.633 1.351-.815s1.056-.265 1.603-.242a4.11 4.11 0 0 1 1.542.223 3.79 3.79 0 0 1 1.305.771c.749.795 1.124 1.823 1.043 2.864v6.607h1.618v-6.765c.052-.674-.05-1.351-.299-1.989s-.639-1.223-1.148-1.72a5.27 5.27 0 0 0-1.74-.984c-.648-.22-1.337-.32-2.029-.294zm16.925.804c.838.461 1.503 1.137 1.91 1.942V25.02h1.64v11.531h-1.64v-2.569c-.423.806-1.095 1.485-1.935 1.956-.943.533-2.039.805-3.152.782a6.55 6.55 0 0 1-3.128-.739c-.932-.493-1.688-1.215-2.181-2.083a6.12 6.12 0 0 1-.785-3.124c-.027-1.084.242-2.157.785-3.124.489-.869 1.246-1.593 2.181-2.083.959-.494 2.048-.745 3.152-.729a6.23 6.23 0 0 1 3.153.763zm-.458 9.254c.738-.384 1.34-.949 1.735-1.63v.002c.417-.762.633-1.6.633-2.449s-.216-1.687-.633-2.449c-.395-.68-.997-1.246-1.735-1.63a5.1 5.1 0 0 0-2.4-.57c-.852-.013-1.693.176-2.438.55-.725.372-1.316.925-1.701 1.593-.432.769-.645 1.622-.621 2.484a4.84 4.84 0 0 0 .621 2.481c.38.68.971 1.247 1.701 1.63.743.379 1.584.572 2.438.56a5.1 5.1 0 0 0 2.4-.57zm6.417-13.944h1.64v15.631h-1.64V20.912zm6.553 4.099h-1.641v11.534h1.641V25.012zm-.82-4.339c-.156-.003-.312.023-.456.076s-.277.132-.387.231c-.117.1-.209.222-.27.357a.92.92 0 0 0-.082.425c-.006.215.06.427.189.607s.316.322.536.407a1.31 1.31 0 0 0 .696.066 1.24 1.24 0 0 0 .617-.298c.116-.101.208-.223.268-.358a.95.95 0 0 0 .085-.425c.007-.145-.021-.291-.082-.426a1.02 1.02 0 0 0-.271-.357 1.17 1.17 0 0 0-.386-.231c-.145-.053-.301-.078-.457-.076zm5.034 1.444h1.664v2.894h3.521v1.245h-3.515v7.16c-.061.519.098 1.04.444 1.458a2.37 2.37 0 0 0 1.571.401h1.494v1.278h-1.759c-.931.066-1.854-.195-2.576-.729a3.13 3.13 0 0 1-.694-1.121c-.145-.412-.196-.846-.15-1.276v-7.17h-1.782v-1.245h1.782v-2.894zm8.8-1.444a1.27 1.27 0 0 0-.456.076c-.145.053-.277.132-.387.231-.117.1-.21.222-.27.357s-.089.28-.082.426a.96.96 0 0 0 .084.425 1.05 1.05 0 0 0 .268.358c.169.151.384.254.617.294a1.32 1.32 0 0 0 .695-.067c.219-.084.405-.225.535-.405s.196-.391.192-.605c.006-.145-.022-.29-.083-.425s-.152-.256-.269-.357c-.11-.1-.242-.178-.387-.231a1.27 1.27 0 0 0-.457-.076zm.821 4.339h-1.641v11.534h1.641V25.012zm6.085 1.624c.706-.353 1.503-.533 2.311-.521.963-.034 1.912.212 2.709.7.725.471 1.231 1.168 1.418 1.955h1.759c-.253-1.139-.957-2.157-1.981-2.864-1.045-.622-2.258-.979-3.509-1.034a7.63 7.63 0 0 0-3.604.721c-.941.49-1.706 1.213-2.204 2.083-.523.979-.794 2.051-.794 3.137s.271 2.158.794 3.137c.5.865 1.265 1.584 2.204 2.07a6.87 6.87 0 0 0 3.211.729c1.395.047 2.766-.333 3.891-1.078 1.021-.705 1.728-1.716 1.992-2.851h-1.759c-.182.794-.688 1.498-1.418 1.973a4.85 4.85 0 0 1-2.706.708c-.808.011-1.605-.169-2.311-.522-.706-.371-1.273-.923-1.629-1.585a5.15 5.15 0 0 1-.598-2.577 5.08 5.08 0 0 1 .601-2.598c.355-.662.92-1.212 1.623-1.585zm21.267.908v-2.532l1.64.008v11.531h-1.64v-2.569c-.423.806-1.095 1.485-1.935 1.956-.943.533-2.039.805-3.152.782a6.55 6.55 0 0 1-3.128-.739c-.932-.493-1.688-1.215-2.181-2.083a6.12 6.12 0 0 1-.785-3.124c-.028-1.084.242-2.157.785-3.124.489-.869 1.246-1.593 2.181-2.083.959-.494 2.048-.745 3.152-.729a6.21 6.21 0 0 1 3.15.763c.839.46 1.505 1.137 1.913 1.942zm-2.368 7.311c.738-.384 1.34-.949 1.735-1.63v.002c.417-.762.633-1.6.633-2.449s-.216-1.687-.633-2.449c-.395-.681-.997-1.246-1.735-1.63a5.1 5.1 0 0 0-2.4-.57c-.852-.013-1.693.176-2.438.55-.725.372-1.316.925-1.701 1.593-.432.769-.645 1.622-.621 2.484a4.84 4.84 0 0 0 .621 2.481c.38.68.971 1.247 1.701 1.63.743.379 1.584.572 2.438.56a5.1 5.1 0 0 0 2.4-.57z" fill="#fffbfd"/></svg>