<svg width="90" height="90" viewBox="0 0 90 90" fill="none" xmlns="http://www.w3.org/2000/svg">
<rect width="90" height="90" rx="45" fill="url(#paint0_linear_9198_24436)" fill-opacity="0.1"/>
<rect x="18" y="18" width="54" height="54" rx="27" fill="url(#paint1_linear_9198_24436)" fill-opacity="0.2"/>
<path d="M48.2 47.4002C48.2 46.0747 49.2745 45.0002 50.6 45.0002C51.9254 45.0002 53 46.0747 53 47.4002C53 48.7257 51.9254 49.8002 50.6 49.8002C49.2745 49.8002 48.2 48.7257 48.2 47.4002Z" fill="url(#paint2_linear_9198_24436)"/>
<path fill-rule="evenodd" clip-rule="evenodd" d="M36.2 32.2002C33.9908 32.2002 32.2 33.9911 32.2 36.2002C32.2 36.3664 32.2101 36.5302 32.2298 36.6911C32.2102 36.7911 32.2 36.8945 32.2 37.0002V54.6002C32.2 56.3675 33.6326 57.8002 35.4 57.8002H54.5999C56.3673 57.8002 57.7999 56.3675 57.7999 54.6002V40.2002C57.7999 38.4329 56.3673 37.0002 54.5999 37.0002H53V33.8002C53 32.9165 52.2836 32.2002 51.4 32.2002H36.2ZM49.7999 35.4002H36.2C35.7581 35.4002 35.4 35.7584 35.4 36.2002C35.4 36.642 35.7581 37.0002 36.2 37.0002H49.7999V35.4002ZM35.4 40.2002V54.6002H54.5999V40.2002H35.4Z" fill="url(#paint3_linear_9198_24436)"/>
<defs>
<linearGradient id="paint0_linear_9198_24436" x1="0" y1="45" x2="90" y2="45" gradientUnits="userSpaceOnUse">
<stop stop-color="#FF49A4"/>
<stop offset="0.93" stop-color="#B049FF"/>
</linearGradient>
<linearGradient id="paint1_linear_9198_24436" x1="18" y1="45" x2="72" y2="45" gradientUnits="userSpaceOnUse">
<stop stop-color="#FF49A4"/>
<stop offset="0.93" stop-color="#B049FF"/>
</linearGradient>
<linearGradient id="paint2_linear_9198_24436" x1="32.2" y1="45.0002" x2="57.7999" y2="45.0002" gradientUnits="userSpaceOnUse">
<stop stop-color="#FF49A4"/>
<stop offset="0.93" stop-color="#B049FF"/>
</linearGradient>
<linearGradient id="paint3_linear_9198_24436" x1="32.2" y1="45.0002" x2="57.7999" y2="45.0002" gradientUnits="userSpaceOnUse">
<stop stop-color="#FF49A4"/>
<stop offset="0.93" stop-color="#B049FF"/>
</linearGradient>
</defs>
</svg>
