<svg width="60" height="61" viewBox="0 0 60 61" fill="none" xmlns="http://www.w3.org/2000/svg">
    <rect y="0.572266" width="60" height="60" rx="8" fill="white"/>
    <rect y="0.572266" width="60" height="60" rx="8" fill="url(#paint0_linear_5741_45310)"/>
    <g filter="url(#filter0_d_5741_45310)">
        <g filter="url(#filter1_d_5741_45310)">
            <circle cx="30" cy="30.5723" r="16" fill="#575CFE"/>
        </g>
        <path d="M35.9312 33.1943C37.2582 30.2025 36.1404 26.6299 33.2423 24.9567C31.896 24.1794 30.3867 23.9398 28.9632 24.1713L29.4461 25.9736C30.4073 25.8571 31.413 26.0398 32.316 26.5611C34.3268 27.7221 35.1377 30.163 34.3138 32.2605L33.0767 31.5462L33.424 35.7578L37.2451 33.9528L35.9312 33.1943Z" fill="white"/>
        <path d="M26.7581 36.1877C23.86 34.5145 22.7422 30.9419 24.0692 27.9502L22.7554 27.1916L26.5764 25.3866L26.9238 29.5982L25.6866 28.884C24.8627 30.9814 25.6737 33.4224 27.6844 34.5833C28.5875 35.1046 29.5931 35.2874 30.5543 35.1708L31.0372 36.9732C29.6138 37.2046 28.1045 36.965 26.7581 36.1877Z" fill="white"/>
    </g>
    <circle cx="42" cy="42.5723" r="9" fill="#0BCC29"/>
    <path d="M39 43.4294L41.25 45.5723L45 39.5723" stroke="white" stroke-width="2" stroke-linecap="round" stroke-linejoin="round"/>
    <defs>
        <filter id="filter0_d_5741_45310" x="10" y="11.5723" width="40" height="40" filterUnits="userSpaceOnUse" color-interpolation-filters="sRGB">
            <feFlood flood-opacity="0" result="BackgroundImageFix"/>
            <feColorMatrix in="SourceAlpha" type="matrix" values="0 0 0 0 0 0 0 0 0 0 0 0 0 0 0 0 0 0 127 0" result="hardAlpha"/>
            <feOffset dy="1"/>
            <feGaussianBlur stdDeviation="2"/>
            <feComposite in2="hardAlpha" operator="out"/>
            <feColorMatrix type="matrix" values="0 0 0 0 0 0 0 0 0 0 0 0 0 0 0 0 0 0 0.1 0"/>
            <feBlend mode="normal" in2="BackgroundImageFix" result="effect1_dropShadow_5741_45310"/>
            <feBlend mode="normal" in="SourceGraphic" in2="effect1_dropShadow_5741_45310" result="shape"/>
        </filter>
        <filter id="filter1_d_5741_45310" x="10" y="10.5723" width="40" height="40" filterUnits="userSpaceOnUse" color-interpolation-filters="sRGB">
            <feFlood flood-opacity="0" result="BackgroundImageFix"/>
            <feColorMatrix in="SourceAlpha" type="matrix" values="0 0 0 0 0 0 0 0 0 0 0 0 0 0 0 0 0 0 127 0" result="hardAlpha"/>
            <feOffset/>
            <feGaussianBlur stdDeviation="2"/>
            <feComposite in2="hardAlpha" operator="out"/>
            <feColorMatrix type="matrix" values="0 0 0 0 0 0 0 0 0 0 0 0 0 0 0 0 0 0 0.1 0"/>
            <feBlend mode="normal" in2="BackgroundImageFix" result="effect1_dropShadow_5741_45310"/>
            <feBlend mode="normal" in="SourceGraphic" in2="effect1_dropShadow_5741_45310" result="shape"/>
        </filter>
        <linearGradient id="paint0_linear_5741_45310" x1="0.793651" y1="0.572266" x2="26.104" y2="71.9322" gradientUnits="userSpaceOnUse">
            <stop stop-color="#F0F3FD"/>
            <stop offset="1" stop-color="#FCF0FD"/>
        </linearGradient>
    </defs>
</svg>
