<svg width="60" height="61" viewBox="0 0 60 61" fill="none" xmlns="http://www.w3.org/2000/svg">
    <rect y="0.572266" width="60" height="60" rx="8" fill="url(#paint0_linear_5741_45328)"/>
    <g filter="url(#filter0_d_5741_45328)">
        <rect x="11" y="12.5723" width="38" height="10" rx="2" fill="#FDE0A0"/>
        <path d="M11 14.5723C11 13.4677 11.8954 12.5723 13 12.5723H21V22.5723H13C11.8954 22.5723 11 21.6768 11 20.5723V14.5723Z" fill="#FAB11E"/>
        <path d="M14 17.5723L15.5 19.0723L18 15.5723" stroke="white" stroke-linecap="round" stroke-linejoin="round"/>
    </g>
    <g filter="url(#filter1_d_5741_45328)">
        <rect x="11" y="25.5723" width="38" height="10" rx="2" fill="#FDE0A0"/>
        <path d="M11 27.5723C11 26.4677 11.8954 25.5723 13 25.5723H21V35.5723H13C11.8954 35.5723 11 34.6768 11 33.5723V27.5723Z" fill="#FAB11E"/>
        <path d="M14 30.5723L15.5 32.0723L18 28.5723" stroke="white" stroke-linecap="round" stroke-linejoin="round"/>
    </g>
    <rect x="11" y="38.5723" width="38" height="10" rx="2" fill="#FDE0A0"/>
    <path d="M11 40.5723C11 39.4677 11.8954 38.5723 13 38.5723H21V48.5723H13C11.8954 48.5723 11 47.6768 11 46.5723V40.5723Z" fill="#FCD47E"/>
    <path d="M14 43.5723L15.5 45.0723L18 41.5723" stroke="#FAB425" stroke-linecap="round" stroke-linejoin="round"/>
    <defs>
        <filter id="filter0_d_5741_45328" x="7" y="8.57227" width="46" height="18" filterUnits="userSpaceOnUse" color-interpolation-filters="sRGB">
            <feFlood flood-opacity="0" result="BackgroundImageFix"/>
            <feColorMatrix in="SourceAlpha" type="matrix" values="0 0 0 0 0 0 0 0 0 0 0 0 0 0 0 0 0 0 127 0" result="hardAlpha"/>
            <feOffset/>
            <feGaussianBlur stdDeviation="2"/>
            <feComposite in2="hardAlpha" operator="out"/>
            <feColorMatrix type="matrix" values="0 0 0 0 0 0 0 0 0 0 0 0 0 0 0 0 0 0 0.1 0"/>
            <feBlend mode="normal" in2="BackgroundImageFix" result="effect1_dropShadow_5741_45328"/>
            <feBlend mode="normal" in="SourceGraphic" in2="effect1_dropShadow_5741_45328" result="shape"/>
        </filter>
        <filter id="filter1_d_5741_45328" x="7" y="21.5723" width="46" height="18" filterUnits="userSpaceOnUse" color-interpolation-filters="sRGB">
            <feFlood flood-opacity="0" result="BackgroundImageFix"/>
            <feColorMatrix in="SourceAlpha" type="matrix" values="0 0 0 0 0 0 0 0 0 0 0 0 0 0 0 0 0 0 127 0" result="hardAlpha"/>
            <feOffset/>
            <feGaussianBlur stdDeviation="2"/>
            <feComposite in2="hardAlpha" operator="out"/>
            <feColorMatrix type="matrix" values="0 0 0 0 0 0 0 0 0 0 0 0 0 0 0 0 0 0 0.1 0"/>
            <feBlend mode="normal" in2="BackgroundImageFix" result="effect1_dropShadow_5741_45328"/>
            <feBlend mode="normal" in="SourceGraphic" in2="effect1_dropShadow_5741_45328" result="shape"/>
        </filter>
        <linearGradient id="paint0_linear_5741_45328" x1="0" y1="0.572266" x2="39.0843" y2="62.3016" gradientUnits="userSpaceOnUse">
            <stop stop-color="#FEF1E1"/>
            <stop offset="1" stop-color="#FDF2CA"/>
        </linearGradient>
    </defs>
</svg>
