<svg xmlns="http://www.w3.org/2000/svg" width="197" height="21" fill="none" xmlns:v="https://vecta.io/nano"><path d="M14.931 8.441l.065.037.055-.037 1.408-.819.175-.101-.175-.11-4.04-2.512-.028-.018h-.037-.819-.037l-.018.018-3.819 2.199-.064.037v.074 1.426.074l.064.037 6.221 3.58-1.914 1.114-3.009-1.813-.064-.037-.064.037-1.463.939-.166.101.166.101 4.113 2.549.028.018h.037.828.037l.028-.018 3.8-2.199.064-.037v-.074-1.417-.074l-.064-.037-6.221-3.57 1.932-1.113 2.981 1.647zm.12 7.638l-.064-.037-.064.037-2.982 1.73-6.681-3.846V6.26l6.681-3.856 3 1.629.055.028.055-.028 1.739-.929.203-.101-.203-.11L12.401.499 12.382.49h-.028-.819-.037l-.018.018-7.628 4.399-.028.018-.018.028-.414.709-.009.028v.037 8.788.037l.018.028.414.709.018.028.028.018 7.619 4.38.028.018h.037.819.037l.028-.018 4.27-2.485.184-.101-.184-.101-1.647-.948z" fill="#fffbfd"/><g clip-path="url(#A)" fill="#fffbfd"><path d="M27.192 16.677a6.14 6.14 0 0 1-2.459-2.627c-.567-1.133-.863-2.434-.863-3.915 0-1.494.296-2.807.876-3.94a6.22 6.22 0 0 1 2.472-2.614c1.068-.618 2.318-.927 3.747-.927 1.12 0 2.112.219 3 .644a5.5 5.5 0 0 1 2.163 1.816c.554.785.901 1.713 1.03 2.756l-2.846.155c-.206-.966-.618-1.713-1.236-2.24s-1.378-.798-2.292-.798c-.837 0-1.558.219-2.163.657S27.552 6.687 27.23 7.46s-.476 1.674-.476 2.678.154 1.893.476 2.678c.322.773.785 1.378 1.391 1.816.605.425 1.326.644 2.163.644.914 0 1.674-.257 2.279-.785s1.017-1.275 1.223-2.253l2.846.142c-.142 1.069-.489 1.996-1.043 2.781s-1.275 1.403-2.163 1.815c-.889.425-1.88.631-2.987.631-1.416 0-2.678-.309-3.747-.927zm11.885-13.92h2.82v6.065h6.258V2.757h2.833v14.731h-2.833v-6.245h-6.258v6.245h-2.82V2.757zm23.822 11.254h-6.387l-1.133 3.477H52.43L57.826 2.77h3.915l5.382 14.718h-3.052l-1.172-3.477zm-5.627-2.253h4.88L59.86 4.946h-.322l-2.266 6.812zm16.314-6.581v9.889h2.653v2.408H68.1v-2.408h2.653V5.177H68.1V2.77h8.138v2.408h-2.653zm4.802-2.407h3.258l6.979 10.456h.309V2.77h2.794v14.718h-3.271L81.466 7.019h-.296v10.469h-2.781V2.77zm18.221 14.241c-.889-.399-1.584-.953-2.086-1.674s-.76-1.558-.773-2.511l2.768-.077c.052.824.361 1.468.927 1.918.567.464 1.326.695 2.266.695.863 0 1.558-.18 2.06-.528a1.71 1.71 0 0 0 .76-1.481c0-.489-.167-.889-.489-1.172-.322-.296-.734-.515-1.236-.657s-1.211-.309-2.112-.476c-1.095-.219-1.97-.476-2.627-.773s-1.146-.695-1.494-1.21c-.335-.515-.502-1.185-.502-2.022 0-.888.245-1.661.734-2.331s1.146-1.185 1.983-1.545 1.764-.541 2.781-.541c1.056 0 1.996.18 2.821.554s1.48.888 1.957 1.558.721 1.455.76 2.344l-2.756.155c-.065-.747-.348-1.326-.837-1.738s-1.133-.618-1.932-.618c-.811 0-1.455.167-1.919.502-.477.335-.708.811-.708 1.429 0 .476.142.85.425 1.133.283.27.657.476 1.107.605a21.33 21.33 0 0 0 1.906.438l.257.052c1.082.206 1.97.464 2.64.76s1.197.695 1.558 1.198.541 1.172.541 1.983c0 .927-.245 1.738-.747 2.434s-1.185 1.236-2.048 1.61-1.841.567-2.922.567c-1.159.013-2.176-.18-3.065-.58zM107.348 2.77h9.709v2.408h-6.889v3.747h5.627v2.253h-5.627v3.889h7.133v2.408h-9.953V2.77zm14.409 13.907a6.14 6.14 0 0 1-2.459-2.627c-.567-1.133-.863-2.434-.863-3.915 0-1.494.296-2.807.876-3.94s1.403-1.996 2.472-2.614 2.318-.927 3.747-.927c1.121 0 2.112.219 3 .644s1.61 1.03 2.163 1.816.902 1.713 1.031 2.756l-2.846.155c-.206-.966-.618-1.713-1.236-2.24s-1.378-.798-2.292-.798c-.837 0-1.558.219-2.164.657s-1.068 1.043-1.39 1.816-.476 1.674-.476 2.678.154 1.893.476 2.678c.322.773.786 1.378 1.39 1.816.606.425 1.327.644 2.164.644.914 0 1.674-.257 2.279-.785s1.018-1.275 1.224-2.253l2.845.142c-.142 1.069-.49 1.996-1.043 2.781a5.39 5.39 0 0 1-2.163 1.815c-.888.425-1.88.631-2.988.631-1.416 0-2.678-.309-3.747-.927zm13.276-.683c-1.004-1.082-1.507-2.653-1.507-4.739V2.77h2.846v8.64c0 1.288.244 2.24.746 2.859.491.618 1.275.94 2.357.94s1.868-.309 2.37-.94c.502-.618.747-1.571.747-2.859V2.77h2.845v8.486c0 2.086-.502 3.657-1.507 4.739s-2.485 1.622-4.442 1.622c-1.97-.013-3.451-.541-4.455-1.622zm19.43-3.683h-3.709v5.176h-2.819V2.77h6.219c1.043 0 1.957.193 2.756.592s1.416.953 1.853 1.661c.438.721.658 1.558.658 2.511a4.02 4.02 0 0 1-.452 1.893c-.297.567-.747 1.03-1.325 1.391s-1.275.592-2.1.695v.322h1.777l2.897 5.64h-3.115l-2.64-5.163zm-.554-2.331c.798 0 1.442-.219 1.906-.657.476-.438.708-1.03.708-1.79 0-.502-.103-.94-.322-1.301s-.514-.657-.914-.85a3.1 3.1 0 0 0-1.378-.296h-3.168V9.98h3.168zm12.812-4.803v9.889h2.653v2.408h-8.138v-2.408h2.653V5.177h-2.653V2.77h8.138v2.408h-2.653zm8.293 0h-4.378V2.77h11.601v2.408h-4.365v12.297h-2.846V5.177h-.012zm16.148 7.495v4.816h-2.832V12.71l-5.396-9.953h3.322l3.31 6.876h.308l3.528-6.876h3.156l-5.396 9.915z"/></g><defs><clipPath id="A"><path fill="#fff" transform="translate(23.414 2.427)" d="M0 0h173.586v15.34H0z"/></clipPath></defs></svg>