<svg xmlns="http://www.w3.org/2000/svg" width="177" height="18" fill="none" xmlns:v="https://vecta.io/nano"><path fill-rule="evenodd" d="M95.668 5.693a5.75 5.75 0 0 0-1.404.893V.194h-3.596v17.367h3.596V8.976c.325-.286.657-.51.998-.673a2.5 2.5 0 0 1 1.114-.255c.526 0 .924.166 1.195.499.271.325.406.781.406 1.369v7.645h3.596V9.916c0-.657-.089-1.264-.267-1.821-.177-.565-.44-1.048-.788-1.45-.348-.41-.778-.727-1.288-.951-.503-.232-1.083-.348-1.74-.348-.704 0-1.311.116-1.821.348zm41.398 8.596c.271.294.565.503.882.627a2.63 2.63 0 0 0 .963.186 2.34 2.34 0 0 0 .939-.186 1.82 1.82 0 0 0 .731-.626c.209-.294.371-.677.487-1.148.116-.48.174-1.067.174-1.763 0-.603-.046-1.114-.139-1.531-.085-.425-.216-.77-.394-1.032-.17-.271-.387-.464-.65-.58-.255-.124-.549-.186-.882-.186-.44 0-.823.097-1.148.29s-.646.476-.963.847v5.104zm0-7.483c.464-.441.971-.793 1.52-1.056.557-.271 1.175-.406 1.856-.406s1.299.139 1.856.418 1.033.677 1.427 1.195c.394.51.696 1.129.905 1.856.216.727.325 1.539.325 2.436 0 .975-.124 1.86-.372 2.657s-.599 1.481-1.055 2.053c-.449.565-.986 1.005-1.613 1.322a4.62 4.62 0 0 1-2.076.464c-.364 0-.689-.035-.975-.104a3.54 3.54 0 0 1-.789-.29c-.239-.131-.46-.286-.661-.464a8.04 8.04 0 0 1-.568-.58l-.128.603c-.062.247-.162.418-.302.51s-.324.139-.556.139h-2.39V.194h3.596v6.613zm17.372 1.357a.91.91 0 0 1-.302.313c-.1.062-.232.093-.394.093a1.34 1.34 0 0 1-.511-.104l-.557-.244a4.98 4.98 0 0 0-.661-.232c-.247-.077-.53-.116-.847-.116-.456 0-.808.089-1.055.267a.83.83 0 0 0-.36.719c0 .224.077.41.232.557.162.147.375.278.638.394.263.108.561.213.893.313l1.021.336c.348.124.689.271 1.021.441a3.59 3.59 0 0 1 .893.615c.263.24.472.534.627.882.162.348.243.766.243 1.253 0 .595-.108 1.145-.324 1.647a3.48 3.48 0 0 1-.975 1.299c-.425.364-.955.646-1.589.847-.627.201-1.35.302-2.17.302-.409 0-.819-.039-1.229-.116a8.72 8.72 0 0 1-1.195-.313c-.379-.131-.731-.286-1.056-.464a4.8 4.8 0 0 1-.835-.592l.835-1.323a1.04 1.04 0 0 1 .348-.36c.147-.093.333-.139.557-.139.209 0 .394.046.557.139l.545.302c.193.108.418.209.673.302.263.093.592.139.986.139.278 0 .514-.027.708-.081.193-.062.348-.143.464-.244s.201-.213.255-.336a.95.95 0 0 0 .081-.383c0-.24-.081-.437-.243-.592s-.376-.286-.639-.394a6.42 6.42 0 0 0-.904-.313l-1.021-.336c-.348-.124-.692-.271-1.033-.441a3.78 3.78 0 0 1-.893-.661c-.263-.271-.476-.599-.638-.986s-.244-.855-.244-1.404c0-.51.097-.994.29-1.45.201-.464.499-.87.894-1.218s.889-.623 1.484-.824c.596-.209 1.292-.313 2.089-.313a6.63 6.63 0 0 1 1.253.116c.409.077.792.186 1.148.325s.681.305.975.499c.293.186.553.391.777.615l-.812 1.265zm-28.546 4.687c.464-.093 1.056-.155 1.775-.186v1.671c-.355.363-.707.626-1.055.789s-.754.244-1.218.244c-.434 0-.762-.081-.987-.244-.224-.17-.336-.46-.336-.87 0-.209.05-.402.151-.58.108-.178.298-.336.568-.476s.638-.255 1.102-.348zm-2.285-7.077a7.24 7.24 0 0 0-2.413 1.427l.65 1.125a1.61 1.61 0 0 0 .417.441c.17.124.379.186.627.186.278 0 .518-.046.719-.139l.615-.313c.216-.116.46-.22.731-.313s.618-.139 1.044-.139c.533 0 .943.159 1.23.476.293.309.44.816.44 1.52v.51c-1.376.031-2.517.17-3.422.418s-1.624.557-2.158.928c-.533.363-.908.77-1.125 1.218-.217.441-.325.878-.325 1.311 0 .541.085 1.021.255 1.438.171.41.41.754.72 1.032a3.25 3.25 0 0 0 1.148.638c.449.139.948.209 1.497.209a5.44 5.44 0 0 0 1.113-.104 4.12 4.12 0 0 0 .952-.29c.301-.139.591-.305.87-.499a11.78 11.78 0 0 0 .87-.673l.255.661c.116.294.259.487.429.58.178.093.437.139.778.139h1.647v-7.517c0-.688-.108-1.323-.325-1.903s-.53-1.079-.94-1.497a4.06 4.06 0 0 0-1.485-.986c-.58-.24-1.233-.36-1.96-.36-1.013 0-1.965.159-2.854.476zm-3.733 8.654v3.132h-10.186V.658h3.921v13.77h6.265zM88.225 8.385c-.108.131-.213.236-.313.313s-.244.116-.429.116c-.178 0-.34-.043-.487-.128l-.476-.278a3.38 3.38 0 0 0-.626-.29c-.24-.085-.538-.128-.893-.128-.441 0-.824.081-1.148.244a2.13 2.13 0 0 0-.789.696c-.209.302-.364.673-.464 1.114-.101.433-.151.924-.151 1.473 0 1.152.22 2.038.661 2.657.449.619 1.063.928 1.845.928.418 0 .746-.05.986-.151a3.35 3.35 0 0 0 .626-.348l.464-.36c.147-.108.329-.162.545-.162.286 0 .503.104.65.313l1.044 1.288a5.83 5.83 0 0 1-1.172 1.044c-.41.263-.831.472-1.264.626-.425.147-.855.247-1.288.302a8.95 8.95 0 0 1-1.264.093 5.47 5.47 0 0 1-2.111-.418c-.665-.278-1.253-.681-1.763-1.207-.503-.534-.905-1.187-1.207-1.96-.294-.773-.441-1.655-.441-2.645a7.48 7.48 0 0 1 .383-2.425c.263-.758.646-1.411 1.148-1.961.51-.557 1.137-.994 1.879-1.311.75-.317 1.616-.476 2.599-.476.944 0 1.771.151 2.483.452s1.353.742 1.926 1.323l-.951 1.265zm-13.981.882c.077.271.116.549.116.835h-4.478c.124-.735.379-1.295.766-1.682.387-.394.92-.592 1.601-.592.387 0 .715.066.986.197a1.75 1.75 0 0 1 .65.522c.17.209.29.449.36.719zm-3.492 5.116c-.495-.456-.8-1.187-.916-2.193h6.937a1.12 1.12 0 0 0 .394-.058c.108-.039.193-.108.255-.209s.104-.236.128-.406.035-.39.035-.661c0-.866-.135-1.64-.406-2.32a4.81 4.81 0 0 0-1.114-1.74c-.472-.472-1.04-.831-1.705-1.079-.657-.247-1.384-.371-2.181-.371-.92 0-1.748.159-2.483.476-.727.317-1.35.746-1.868 1.288-.51.541-.905 1.172-1.183 1.891-.271.719-.406 1.481-.406 2.285 0 1.067.159 2.003.476 2.807.325.804.762 1.477 1.311 2.019a5.59 5.59 0 0 0 1.937 1.23c.742.271 1.535.406 2.378.406.41 0 .839-.031 1.288-.093a7 7 0 0 0 1.357-.302c.456-.155.897-.363 1.323-.626.433-.271.835-.619 1.206-1.044l-1.044-1.288c-.147-.209-.364-.313-.65-.313-.217 0-.425.05-.627.151l-.65.336c-.232.124-.499.236-.8.336s-.661.151-1.079.151c-.781 0-1.419-.224-1.914-.673zm-8.362 3.364c-.572 0-1.079-.081-1.52-.244-.433-.17-.8-.406-1.102-.708-.294-.309-.518-.681-.673-1.114a4.29 4.29 0 0 1-.232-1.45V8.013h-1.021c-.186 0-.344-.058-.476-.174-.131-.124-.197-.302-.197-.534V5.902l1.914-.371.708-2.935c.093-.371.356-.557.789-.557h1.879v3.515h2.981v2.459h-2.981v5.975c0 .278.066.51.197.696.139.178.336.267.592.267.132 0 .24-.012.325-.035a1.82 1.82 0 0 0 .232-.093l.186-.093a.46.46 0 0 1 .209-.046c.108 0 .193.027.255.081.07.046.139.124.209.232l1.09 1.705c-.464.348-.986.611-1.566.789-.58.17-1.18.255-1.798.255zM52.893 5.774c-.75-.286-1.582-.429-2.494-.429-.92 0-1.759.143-2.517.429a5.65 5.65 0 0 0-1.949 1.23c-.541.534-.963 1.183-1.264 1.949-.294.758-.441 1.613-.441 2.564 0 .959.147 1.825.441 2.599.302.766.723 1.419 1.264 1.961.549.534 1.199.947 1.949 1.241.758.286 1.597.429 2.517.429.913 0 1.744-.143 2.494-.429.75-.294 1.392-.708 1.926-1.241a5.54 5.54 0 0 0 1.253-1.961c.302-.773.453-1.64.453-2.599 0-.951-.151-1.806-.453-2.564-.294-.766-.711-1.415-1.253-1.949-.534-.534-1.176-.944-1.926-1.23zm-.673 8.434c-.387.58-.994.87-1.821.87-.851 0-1.473-.29-1.868-.87-.395-.588-.592-1.477-.592-2.668s.197-2.077.592-2.657 1.017-.87 1.868-.87c.828 0 1.435.29 1.821.87.394.58.592 1.466.592 2.657s-.197 2.08-.592 2.668zm-11.854 3.538c-.572 0-1.079-.081-1.52-.244-.433-.17-.8-.406-1.102-.708-.294-.309-.518-.681-.673-1.114a4.29 4.29 0 0 1-.232-1.45V8.013h-1.021c-.186 0-.344-.058-.476-.174-.131-.124-.197-.302-.197-.534V5.902l1.914-.371.708-2.935c.093-.371.356-.557.789-.557h1.879v3.515h2.981v2.459h-2.981v5.975c0 .278.066.51.197.696.139.178.336.267.592.267.132 0 .24-.012.325-.035a1.81 1.81 0 0 0 .232-.093l.186-.093a.46.46 0 0 1 .209-.046c.108 0 .193.027.255.081.07.046.139.124.209.232l1.09 1.705c-.464.348-.986.611-1.566.789-.58.17-1.18.255-1.798.255zM30.869 5.774c-.75-.286-1.582-.429-2.494-.429-.92 0-1.759.143-2.517.429a5.65 5.65 0 0 0-1.949 1.23c-.541.534-.963 1.183-1.265 1.949-.294.758-.441 1.613-.441 2.564 0 .959.147 1.825.441 2.599.302.766.723 1.419 1.265 1.961.549.534 1.199.947 1.949 1.241.758.286 1.597.429 2.517.429.913 0 1.744-.143 2.494-.429.75-.294 1.392-.708 1.926-1.241a5.54 5.54 0 0 0 1.253-1.961c.302-.773.452-1.64.452-2.599 0-.951-.151-1.806-.452-2.564-.294-.766-.712-1.415-1.253-1.949-.534-.534-1.176-.944-1.926-1.23zm-.673 8.434c-.387.58-.994.87-1.821.87-.851 0-1.473-.29-1.868-.87-.395-.588-.592-1.477-.592-2.668s.197-2.077.592-2.657 1.017-.87 1.868-.87c.828 0 1.435.29 1.821.87.394.58.592 1.466.592 2.657s-.197 2.08-.592 2.668zM17.539 7.387c.371-.65.797-1.16 1.276-1.531.487-.371 1.044-.557 1.671-.557.541 0 .982.128 1.323.383l-.232 2.645c-.039.17-.104.286-.197.348-.085.062-.205.093-.36.093-.062 0-.143-.004-.244-.012l-.313-.023-.336-.035c-.108-.015-.209-.023-.302-.023-.526 0-.947.139-1.264.418-.309.278-.572.665-.789 1.16v7.309h-3.596V5.531h2.135a1.75 1.75 0 0 1 .441.046c.124.031.224.081.302.151.085.062.147.147.186.255a2.01 2.01 0 0 1 .116.394l.186 1.009zm-9.371.835c-.449.487-1.183.731-2.204.731H3.921v-5.36h2.042c.495 0 .92.062 1.276.186.364.124.661.302.893.534.24.224.418.495.534.812s.174.669.174 1.056c0 .874-.224 1.555-.673 2.042zm.858-7.135C8.175.801 7.154.658 5.963.658H0v16.903h3.921v-5.65h2.042c1.168 0 2.177-.139 3.028-.418.858-.286 1.566-.681 2.123-1.183s.971-1.106 1.241-1.81.406-1.477.406-2.32a5.94 5.94 0 0 0-.394-2.181 4.52 4.52 0 0 0-1.23-1.752c-.549-.495-1.253-.882-2.111-1.16zM176.5 11.923l-2.186 5.639h-1.534l-2.186-5.639h1.403c.12 0 .22.029.299.087a.4.4 0 0 1 .169.207l.783 2.529.179.604.142.587c.08-.392.19-.789.332-1.191l.815-2.529c.029-.083.084-.152.163-.207a.47.47 0 0 1 .283-.087h1.338zm-7.563 1.75a1.43 1.43 0 0 1 .054.392h-2.099c.058-.344.178-.607.359-.789s.431-.277.75-.277c.182 0 .336.031.463.093s.228.143.304.245.136.21.169.337zm-1.637 2.398c-.232-.214-.375-.557-.43-1.028h3.252c.076 0 .138-.009.185-.027s.091-.051.12-.098.049-.111.06-.19.016-.183.016-.31c0-.406-.064-.768-.19-1.088s-.298-.594-.523-.816-.487-.39-.799-.506a2.88 2.88 0 0 0-1.022-.174c-.432 0-.82.074-1.164.223s-.633.35-.875.604-.425.549-.555.886-.19.694-.19 1.071c0 .5.074.939.222 1.316s.358.693.615.946.564.446.908.576a3.23 3.23 0 0 0 1.115.19c.192 0 .393-.014.604-.043s.425-.073.636-.141.42-.17.62-.294.391-.29.565-.489l-.489-.604c-.069-.098-.171-.147-.305-.147-.101 0-.199.024-.293.071l-.305.158c-.109.058-.234.111-.375.158s-.31.071-.506.071c-.366 0-.665-.105-.897-.315zm-4.641-2.637c-.127-.141-.265-.239-.413-.294a1.28 1.28 0 0 0-.468-.087c-.156 0-.299.031-.43.092a.89.89 0 0 0-.342.299 1.58 1.58 0 0 0-.223.527 3.31 3.31 0 0 0-.082.789c0 .297.022.547.066.75a1.62 1.62 0 0 0 .179.495.73.73 0 0 0 .283.266c.109.054.23.082.364.082.123 0 .234-.011.332-.033s.194-.06.277-.103a1.1 1.1 0 0 0 .234-.163c.076-.069.151-.147.223-.234v-2.387zm1.686-4.013v8.141h-1.044c-.211 0-.348-.094-.414-.283l-.13-.43a3.21 3.21 0 0 1-.354.326 2.28 2.28 0 0 1-.402.256c-.141.069-.295.122-.462.158a2.24 2.24 0 0 1-.533.06c-.294 0-.566-.065-.816-.196a1.88 1.88 0 0 1-.647-.566c-.181-.247-.324-.547-.43-.903s-.152-.767-.152-1.223c0-.421.058-.81.174-1.169s.279-.674.49-.935a2.3 2.3 0 0 1 .766-.62c.298-.149.626-.223.985-.223.293 0 .54.042.739.125s.381.196.544.337V9.42h1.686zm-7.866 6.923c-.048.112-.071.234-.071.364s.023.254.071.37a.96.96 0 0 0 .201.294c.087.083.188.149.304.196s.243.071.381.071.259-.024.375-.071a.96.96 0 0 0 .305-.196c.087-.083.154-.181.201-.294a.91.91 0 0 0 .076-.37.87.87 0 0 0-.076-.364c-.047-.112-.114-.21-.201-.294s-.189-.149-.305-.196-.241-.076-.375-.076a.94.94 0 0 0-.381.076.95.95 0 0 0-.304.196.96.96 0 0 0-.201.294z" fill="#fffbfd"/></svg>