<svg width="45" height="24" viewBox="0 0 45 24" fill="none" xmlns="http://www.w3.org/2000/svg">
<path d="M17.3359 23.4954C19.7948 23.0962 21.4647 20.779 21.0657 18.32C20.6664 15.8609 18.3493 14.1911 15.8903 14.5902C13.4312 14.9894 11.7614 17.3063 12.1605 19.7656C12.5597 22.2246 14.8767 23.8944 17.3359 23.4954Z" fill="#FFFBFD"/>
<path d="M29.1328 23.4954C31.5918 23.0962 33.2616 20.779 32.8624 18.32C32.4634 15.8609 30.1462 14.1911 27.6872 14.5902C25.2282 14.9894 23.5582 17.3063 23.9574 19.7656C24.3566 22.2246 26.6736 23.8944 29.1328 23.4954Z" fill="#FFFBFD"/>
<path d="M22.5027 0.421875C10.2549 0.421875 0.324919 10.541 0.328126 23.0196H5.99306C5.99306 13.6679 13.3262 6.08575 22.5027 6.08575C31.6793 6.08575 39.0125 13.6679 39.0125 23.0196H44.6775C44.6795 10.541 34.7496 0.421875 22.5027 0.421875Z" fill="#FFFBFD"/>
</svg>
