<svg width="159" height="156" viewBox="0 0 159 156" fill="none" xmlns="http://www.w3.org/2000/svg">
<rect width="158.786" height="156" rx="78" fill="url(#paint0_linear_8961_99019)" fill-opacity="0.15"/>
<rect x="22.3928" y="22" width="114" height="112" rx="56" fill="url(#paint1_linear_8961_99019)" fill-opacity="0.24"/>
<path opacity="0.8" d="M108.117 83.9627L92.0802 67.6294C91.2843 66.8189 90.1962 66.3623 89.0603 66.3623H86.3251C87.8213 63.3269 88.7326 59.9915 88.7326 58.156C88.7326 54.2234 84.551 50.082 79.3926 50.082C74.2343 50.082 70.0526 54.2236 70.0526 58.156C70.0526 59.9663 70.9395 63.2357 72.3993 66.2374V66.3623H69.725C68.589 66.3623 67.5008 66.8189 66.705 67.6294L50.6687 83.9627C50.2787 84.36 50.2577 84.9898 50.6203 85.4122L53.9725 89.3164C54.3463 89.7516 54.9965 89.8155 55.4477 89.4613L65.579 81.5106L62.5543 103.538C62.4719 104.138 62.6531 104.744 63.0508 105.2C63.4486 105.656 64.0242 105.918 64.6294 105.918H94.156C94.7612 105.918 95.3368 105.656 95.7347 105.2C96.1325 104.744 96.3135 104.138 96.2311 103.538L93.2064 81.5106L103.338 89.4613C103.789 89.8155 104.439 89.7516 104.813 89.3164L108.165 85.4122C108.528 84.9896 108.507 84.36 108.117 83.9627ZM79.3928 56.8844C81.9935 56.8844 84.1018 58.9725 84.1018 60.955C84.1018 62.9376 81.9935 68.3914 79.3928 68.3914C76.7921 68.3914 74.6838 62.9378 74.6838 60.955C74.6838 58.9723 76.7921 56.8844 79.3928 56.8844ZM91.982 100.506C91.793 101.099 91.2418 101.502 90.619 101.502H68.1664C67.5437 101.502 66.9927 101.1 66.8035 100.506C66.6143 99.913 66.8307 99.2655 67.3386 98.905C68.5612 98.0378 69.7126 96.6579 70.581 95.0198C71.6067 93.0851 72.1167 90.9703 71.9454 89.3627C71.9025 88.9593 72.0329 88.5565 72.3041 88.2548C72.5755 87.9531 72.9621 87.7808 73.3678 87.7808H85.4174C85.8231 87.7808 86.2097 87.9531 86.4811 88.2548C86.7523 88.5565 86.8826 88.9591 86.8398 89.3627C86.6686 90.9707 87.1786 93.0853 88.2041 95.0198C89.0725 96.6579 90.2241 98.0378 91.4466 98.905C91.9547 99.2655 92.1712 99.913 91.982 100.506Z" fill="url(#paint2_linear_8961_99019)"/>
<defs>
<linearGradient id="paint0_linear_8961_99019" x1="0" y1="78" x2="158.786" y2="78" gradientUnits="userSpaceOnUse">
<stop stop-color="#FFD24A"/>
<stop offset="0.93" stop-color="#31DFBA"/>
</linearGradient>
<linearGradient id="paint1_linear_8961_99019" x1="22.3928" y1="78" x2="136.393" y2="78" gradientUnits="userSpaceOnUse">
<stop stop-color="#FFD24A"/>
<stop offset="0.93" stop-color="#31DFBA"/>
</linearGradient>
<linearGradient id="paint2_linear_8961_99019" x1="50.3617" y1="78" x2="108.424" y2="78" gradientUnits="userSpaceOnUse">
<stop stop-color="#FFD24A"/>
<stop offset="0.93" stop-color="#31DFBA"/>
</linearGradient>
</defs>
</svg>
