<svg width="159" height="156" viewBox="0 0 159 156" fill="none" xmlns="http://www.w3.org/2000/svg">
<rect width="158.786" height="156" rx="78" fill="url(#paint0_linear_8961_99012)" fill-opacity="0.15"/>
<rect x="22.3929" y="22" width="114" height="112" rx="56" fill="url(#paint1_linear_8961_99012)" fill-opacity="0.24"/>
<path d="M91.8927 59.4278C91.9225 59.316 92.1549 59.316 92.1847 59.4278C92.3137 59.9116 92.5378 60.5336 92.8918 60.8877C93.2458 61.2417 93.8679 61.4658 94.3517 61.5948C94.4635 61.6246 94.4635 61.857 94.3517 61.8868C93.8679 62.0158 93.2458 62.2398 92.8918 62.5938C92.5377 62.9478 92.3137 63.5699 92.1847 64.0537C92.1549 64.1655 91.9225 64.1655 91.8927 64.0537C91.7637 63.5699 91.5397 62.9478 91.1857 62.5938C90.8316 62.2398 90.2095 62.0157 89.7257 61.8868C89.6139 61.857 89.6139 61.6246 89.7257 61.5948C90.2096 61.4658 90.8316 61.2418 91.1857 60.8877C91.5398 60.5337 91.7637 59.9116 91.8927 59.4278ZM97.9074 52.4297C97.9331 52.3174 98.1443 52.3174 98.1701 52.4297C98.3547 53.2535 98.7507 54.6098 99.4601 55.3194C100.17 56.0289 101.526 56.4248 102.35 56.6094C102.462 56.6349 102.462 56.8466 102.35 56.8721C101.526 57.0567 100.17 57.4526 99.4601 58.1621C98.7506 58.8717 98.3547 60.228 98.1701 61.0518C98.1446 61.1644 97.9329 61.1644 97.9074 61.0518C97.7228 60.228 97.3269 58.8717 96.6173 58.1621C95.9078 57.4527 94.5515 57.0567 93.7277 56.8721C93.6154 56.8464 93.6154 56.6351 93.7277 56.6094C94.5515 56.4248 95.9078 56.0289 96.6173 55.3194C97.3269 54.6098 97.7228 53.2536 97.9074 52.4297ZM90.3976 49.4287C90.4259 49.3167 90.6515 49.3167 90.6798 49.4287C90.8247 50.0058 91.0921 50.8048 91.5334 51.2461C91.9747 51.6874 92.7736 51.9548 93.3507 52.0996C93.463 52.1278 93.4629 52.3537 93.3507 52.3819C92.7736 52.5267 91.9747 52.7941 91.5334 53.2354C91.0921 53.6767 90.8247 54.4757 90.6798 55.0528C90.6517 55.165 90.4258 55.165 90.3976 55.0528C90.2528 54.4757 89.9854 53.6767 89.5441 53.2354C89.1028 52.7941 88.3038 52.5267 87.7267 52.3819C87.6147 52.3535 87.6147 52.1279 87.7267 52.0996C88.3038 51.9548 89.1028 51.6874 89.5441 51.2461C89.9854 50.8048 90.2528 50.0058 90.3976 49.4287Z" fill="url(#paint2_linear_8961_99012)"/>
<path opacity="0.7" d="M77.7845 52.1457C78.4032 51.7888 79.1658 51.7886 79.7845 52.1457L102.96 65.5276C103.579 65.8848 103.96 66.5446 103.96 67.259V93.8782C103.96 94.5927 103.579 95.2533 102.96 95.6106L79.7845 108.991C79.1658 109.349 78.4032 109.349 77.7845 108.991L54.6077 95.6106C53.9889 95.2533 53.6077 94.5927 53.6077 93.8782L53.6068 67.259C53.6068 66.5446 53.9881 65.8848 54.6068 65.5276L77.7845 52.1457ZM62.0745 74.4778V87.5686H64.4466V78.6516H64.555L70.723 87.5686H72.8323V74.4778H70.4739V83.4016H70.3587L64.1966 74.4778H62.0745ZM75.4163 74.4778V87.5686H77.7884V82.008H83.2278V80.0198H77.7884V76.466H83.803V74.4778H75.4163ZM85.388 74.4778V76.466H89.4339V87.5686H91.7864V76.466H95.8323V74.4778H85.388Z" fill="url(#paint3_linear_8961_99012)"/>
<defs>
<linearGradient id="paint0_linear_8961_99012" x1="0" y1="78" x2="158.786" y2="78" gradientUnits="userSpaceOnUse">
<stop stop-color="#FFD24A"/>
<stop offset="0.93" stop-color="#31DFBA"/>
</linearGradient>
<linearGradient id="paint1_linear_8961_99012" x1="22.3929" y1="78" x2="136.393" y2="78" gradientUnits="userSpaceOnUse">
<stop stop-color="#FFD24A"/>
<stop offset="0.93" stop-color="#31DFBA"/>
</linearGradient>
<linearGradient id="paint2_linear_8961_99012" x1="87.6427" y1="56.7412" x2="102.434" y2="56.7412" gradientUnits="userSpaceOnUse">
<stop stop-color="#FFD24A"/>
<stop offset="0.93" stop-color="#31DFBA"/>
</linearGradient>
<linearGradient id="paint3_linear_8961_99012" x1="53.6068" y1="80.5686" x2="103.96" y2="80.5686" gradientUnits="userSpaceOnUse">
<stop stop-color="#FFD24A"/>
<stop offset="0.93" stop-color="#31DFBA"/>
</linearGradient>
</defs>
</svg>
