<svg width="159" height="156" viewBox="0 0 159 156" fill="none" xmlns="http://www.w3.org/2000/svg">
<rect width="158.786" height="156" rx="78" fill="url(#paint0_linear_8961_99006)" fill-opacity="0.15"/>
<rect x="22.3928" y="22" width="114" height="112" rx="56" fill="url(#paint1_linear_8961_99006)" fill-opacity="0.24"/>
<g clip-path="url(#clip0_8961_99006)">
<path d="M79.3928 58.0015C81.9051 58.0015 84.0752 56.4272 84.8547 54.1113C83.3675 54.5137 81.4718 54.7565 79.3928 54.7565C77.314 54.7565 75.4183 54.5137 73.9313 54.1113C74.7104 56.427 76.8803 58.0015 79.3928 58.0015Z" fill="url(#paint2_linear_8961_99006)"/>
<path opacity="0.8" d="M108.321 60.8488C108.201 60.5197 107.953 60.2491 107.63 60.1018L96.5716 55.0851C94.2195 54.302 91.8231 53.6834 89.4034 53.2313C89.3183 53.2149 89.2335 53.207 89.1499 53.207C88.5509 53.207 88.0145 53.6134 87.881 54.2094C86.9975 58.0322 83.5541 60.8943 79.3926 60.8943C75.2313 60.8943 71.7877 58.0324 70.9043 54.2094C70.7693 53.6134 70.2339 53.207 69.6353 53.207C69.5517 53.207 69.4669 53.2149 69.3818 53.2313C66.9623 53.6834 64.5659 54.302 62.21 55.0851L51.156 60.1016C50.8306 60.249 50.5806 60.5196 50.467 60.8486C50.3494 61.1815 50.3706 61.5408 50.5363 61.8548L55.3368 71.1654C55.5615 71.6073 56.0186 71.8725 56.5022 71.8725C56.627 71.8725 56.7536 71.8547 56.8784 71.8179L62.2102 70.2648V101.505C62.2102 102.214 62.7992 102.793 63.523 102.793H95.2628C95.9846 102.793 96.5718 102.214 96.5718 101.505V70.2652L101.907 71.8183C102.032 71.8551 102.159 71.8728 102.283 71.8728C102.766 71.8728 103.221 71.6076 103.449 71.1658L108.251 61.8552C108.413 61.541 108.436 61.1817 108.321 60.8488Z" fill="url(#paint3_linear_8961_99006)"/>
</g>
<defs>
<linearGradient id="paint0_linear_8961_99006" x1="0" y1="78" x2="158.786" y2="78" gradientUnits="userSpaceOnUse">
<stop stop-color="#FFD24A"/>
<stop offset="0.93" stop-color="#31DFBA"/>
</linearGradient>
<linearGradient id="paint1_linear_8961_99006" x1="22.3928" y1="78" x2="136.393" y2="78" gradientUnits="userSpaceOnUse">
<stop stop-color="#FFD24A"/>
<stop offset="0.93" stop-color="#31DFBA"/>
</linearGradient>
<linearGradient id="paint2_linear_8961_99006" x1="73.9313" y1="56.0564" x2="84.8547" y2="56.0564" gradientUnits="userSpaceOnUse">
<stop stop-color="#FFD24A"/>
<stop offset="0.93" stop-color="#31DFBA"/>
</linearGradient>
<linearGradient id="paint3_linear_8961_99006" x1="50.3927" y1="78" x2="108.393" y2="78" gradientUnits="userSpaceOnUse">
<stop stop-color="#FFD24A"/>
<stop offset="0.93" stop-color="#31DFBA"/>
</linearGradient>
<clipPath id="clip0_8961_99006">
<rect width="58" height="57" fill="white" transform="translate(50.3928 49.5)"/>
</clipPath>
</defs>
</svg>
