<svg xmlns="http://www.w3.org/2000/svg" width="42" height="40" fill="none" xmlns:v="https://vecta.io/nano"><path d="M17.817 25.711c-.923-1.997-3.145-3.694-5.765-5.066L7.634 23.09c-1.448.824-2.371 2.296-2.371 3.868v11.156c0 .699.574.973.774 1.048a1.24 1.24 0 0 0 1.323-.249l8.436-8.111c.724-.699 1.423-1.423 1.922-2.271l.349-.624.2-.524c-.025-.574-.2-1.123-.449-1.672zm16.472-2.621l-4.418-2.471c-2.621 1.398-4.842 3.095-5.765 5.066-.25.574-.424 1.123-.474 1.697.05.175.125.324.2.499a7.04 7.04 0 0 0 .499.849c.449.674.998 1.273 1.597 1.847l8.635 8.286a1.24 1.24 0 0 0 1.323.25c.175-.075.774-.349.774-1.048V26.909c0-1.522-.898-2.97-2.371-3.818z" fill="#8d8d8d"/><path d="M41.501 2.176v11.68c0 1.473-.973 2.77-2.371 3.17-4.742 1.373-13.028 4.318-15.024 8.66-.25.574-.424 1.123-.474 1.722-1.323-2.421-1.947-5.216-1.647-8.036.399-3.993 2.496-7.637 5.815-9.958l11.78-8.261c.2-.15.449-.225.699-.225a1.16 1.16 0 0 1 .574.15 1.24 1.24 0 0 1 .649 1.098zm-41.08 0v11.68c0 1.473.973 2.77 2.371 3.17 4.742 1.373 13.028 4.318 15.024 8.66.25.574.424 1.123.474 1.722 1.323-2.421 1.947-5.216 1.647-8.036-.399-3.993-2.496-7.637-5.815-9.958L2.343 1.177c-.2-.15-.449-.225-.699-.225a1.16 1.16 0 0 0-.574.15c-.399.2-.649.599-.649 1.073z" fill="#fffbfd"/></svg>