<svg xmlns="http://www.w3.org/2000/svg" width="39" height="38" fill="#fffbfd" xmlns:v="https://vecta.io/nano"><path d="M4.273 7.925A18.82 18.82 0 0 1 6.192 5.68l.234.129L19.377 18.83l.123.158L4.273 7.925z"/><path opacity=".7" d="M6.195 5.679A18.82 18.82 0 0 1 16.56.398l.13.358 2.814 17.982v.25L6.195 5.679z"/><path opacity=".5" d="M28.047 2.219c.878.447 1.719.963 2.516 1.542l-.034.293-10.961 14.879-.068.055 8.547-16.769z"/><path opacity=".9" d="M38.321 18.988a18.82 18.82 0 0 1-.921 5.816l-.445.072-17.316-5.817-.138-.071h18.821z"/><path opacity=".7" d="M37.4 24.804a18.82 18.82 0 0 1-2.673 5.247l-.429-.073-14.709-10.897-.089-.092 17.9 5.816z"/><path opacity=".3" d="M25.323 36.888a18.82 18.82 0 0 1-8.76.69l-.117-.361 2.977-17.908.085-.32 5.816 17.9z"/><path opacity=".7" d="M16.557 37.578c-.974-.154-1.934-.385-2.872-.689l-.052-.435 5.761-17.268.107-.196-2.944 18.589z"/><path opacity=".9" d="M13.692 36.888c-1.878-.61-3.649-1.512-5.247-2.673v-.341L19.316 19.18l.192-.192-5.816 17.9z"/><path opacity=".9" d="M2.731 27.536A18.82 18.82 0 0 1 .68 18.991l.241-.089h17.971l.609.089-16.77 8.545z"/><path opacity=".5" d="M16.563.4a18.82 18.82 0 0 1 8.762.689l-5.816 17.9L16.563.4z"/><path opacity=".3" d="M30.563 3.762a18.82 18.82 0 0 1 6.837 9.41l-17.9 5.817L30.563 3.762z"/><path d="M8.437 34.215a18.82 18.82 0 0 1-4.164-4.164L19.5 18.988 8.437 34.215z"/><path opacity=".5" d="M.68 18.988a18.82 18.82 0 0 1 .921-5.816l17.9 5.816H.68z"/><path d="M34.727 30.05a18.82 18.82 0 0 1-4.164 4.164L19.5 18.988 34.727 30.05z"/></svg>