<svg width="37" height="38" viewBox="0 0 37 38" fill="none" xmlns="http://www.w3.org/2000/svg">
<path d="M23.2585 21.2543H36.3893C36.8944 21.2543 36.9961 20.5666 36.5369 20.3566L23.2593 14.3092V1.12713C23.2593 0.635098 22.6013 0.473645 22.3742 0.910147L16.9156 11.4202L10.867 8.6421C10.2883 8.40838 9.93289 8.87958 10.1293 9.28454L13.7363 16.7249H0.605449C0.100414 16.7249 -0.00136836 17.4125 0.45792 17.6226L13.7355 23.67V36.8521C13.7355 37.3441 14.3935 37.5055 14.6206 37.069L20.0792 26.559L26.1278 29.3371C26.7065 29.5708 27.0619 29.0996 26.8655 28.6946L23.2585 21.2543Z" fill="#FFFBFD"/>
</svg>
