<svg width="20" height="20" viewBox="0 0 20 20" fill="none" xmlns="http://www.w3.org/2000/svg">
<path fill-rule="evenodd" clip-rule="evenodd" d="M10.2929 4.29289C10.6834 3.90237 11.3166 3.90237 11.7071 4.29289L16.7071 9.29289C17.0976 9.68342 17.0976 10.3166 16.7071 10.7071L11.7071 15.7071C11.3166 16.0976 10.6834 16.0976 10.2929 15.7071C9.90237 15.3166 9.90237 14.6834 10.2929 14.2929L13.5858 11L4 11C3.44772 11 3 10.5523 3 10C3 9.44772 3.44772 9 4 9L13.5858 9L10.2929 5.70711C9.90237 5.31658 9.90237 4.68342 10.2929 4.29289Z" fill="url(#paint0_linear_11922_40926)"/>
<defs>
<linearGradient id="paint0_linear_11922_40926" x1="3" y1="10" x2="17" y2="10" gradientUnits="userSpaceOnUse">
<stop stop-color="#FF49A4"/>
<stop offset="0.93" stop-color="#B049FF"/>
</linearGradient>
</defs>
</svg>
