<svg width="24" height="25" viewBox="0 0 24 25" fill="none" xmlns="http://www.w3.org/2000/svg">
<g clip-path="url(#clip0_421_26571)">
<path d="M6.06174 20.9724L16.3684 3.12067C16.6148 2.69401 17.1661 2.55115 17.5998 2.80157C18.0336 3.05199 18.1855 3.60087 17.9392 4.02752L7.63245 21.8792C7.38602 22.3056 6.83469 22.4487 6.40108 22.1983C5.96747 21.948 5.81572 21.399 6.06174 20.9724Z" fill="#BAB8B9"/>
<path d="M16.7651 4.24754C21.397 6.9219 23.0869 12.7327 20.7034 17.4478C20.4214 17.2065 20.1139 16.9868 19.7809 16.7945C18.2651 15.9194 16.5304 15.7678 14.9757 16.2311C14.5996 14.6533 13.6017 13.227 12.086 12.3519C10.5702 11.4768 8.83561 11.3252 7.28092 11.7885C6.90475 10.2106 5.9069 8.78438 4.39123 7.90931C4.0579 7.71686 3.71367 7.56025 3.36342 7.43657C6.25512 3.01472 12.1331 1.57324 16.7651 4.24754Z" fill="#13B6DA"/>
<path d="M14.9278 16.2941C13.0892 11.5332 9.04418 11.3557 7.25147 11.8621C11.3467 6.44097 15.3781 4.44897 16.7563 4.34021C18.1249 7.74557 16.0161 13.8395 14.9278 16.2941Z" fill="#FFD24A"/>
</g>
<defs>
<clipPath id="clip0_421_26571">
<rect width="24" height="24" fill="white" transform="translate(0 0.5)"/>
</clipPath>
</defs>
</svg>
