<svg width="48" height="48" viewBox="0 0 48 48" fill="none" xmlns="http://www.w3.org/2000/svg">
<rect width="48" height="48" rx="24" fill="url(#paint0_linear_8961_98838)" fill-opacity="0.1"/>
<rect x="0.5" y="0.5" width="47" height="47" rx="23.5" stroke="url(#paint1_linear_8961_98838)" stroke-opacity="0.2"/>
<path fill-rule="evenodd" clip-rule="evenodd" d="M36.0885 23.9563C35.3286 23.1765 35.1592 21.989 35.6704 21.0246C36.0355 20.337 36.0605 19.5166 35.7395 18.8072C35.4182 18.0976 34.7867 17.5799 34.0323 17.4074C32.9742 17.1657 32.1952 16.259 32.1084 15.1689C32.0467 14.3915 31.6279 13.6872 30.9772 13.2656C30.3262 12.844 29.5177 12.7526 28.7907 13.0188C27.7708 13.3921 26.6295 13.0539 25.9721 12.1843C25.5029 11.5642 24.7733 11.2 23.9999 11.2C23.2263 11.2 22.4969 11.5642 22.0277 12.1845C21.3703 13.0539 20.2285 13.3921 19.2094 13.0188C18.4821 12.7526 17.6732 12.844 17.0227 13.2656C16.3717 13.6872 15.9531 14.3912 15.8911 15.1689C15.8044 16.259 15.0251 17.1655 13.9676 17.4074C13.2129 17.5799 12.5813 18.0976 12.2601 18.8074C11.9385 19.5168 11.9641 20.337 12.3292 21.0249C12.8407 21.9892 12.6709 23.1765 11.9109 23.9566C11.3687 24.5131 11.115 25.2926 11.2253 26.065C11.3354 26.8371 11.7964 27.5129 12.4723 27.8931C13.4195 28.4255 13.9138 29.5166 13.6926 30.5869C13.5349 31.3503 13.7397 32.1444 14.2463 32.7345C14.753 33.324 15.5036 33.6415 16.2759 33.5926C17.3585 33.524 18.3592 34.1727 18.7468 35.1941C19.0238 35.9227 19.6218 36.4787 20.3642 36.6986C21.1064 36.9185 21.9081 36.7762 22.5315 36.3141C23.4055 35.6667 24.5954 35.6667 25.4688 36.3141C26.0927 36.7762 26.8937 36.9185 27.6364 36.6986C28.3785 36.4787 28.9768 35.9227 29.2535 35.1941C29.6414 34.1727 30.6423 33.5242 31.7247 33.5926C32.4968 33.6415 33.2471 33.324 33.7537 32.7345C34.2606 32.1444 34.4652 31.3506 34.3077 30.5869C34.0865 29.5163 34.5804 28.4255 35.5278 27.8931C36.2039 27.5132 36.6652 26.8371 36.7748 26.065C36.8846 25.2924 36.6312 24.5129 36.0885 23.9563ZM22.0506 27.8626C22.4193 28.2074 22.9946 28.2004 23.3553 27.8471L29.7326 21.6003C30.1045 21.2361 30.121 20.6428 29.77 20.2585C29.4011 19.8547 28.771 19.8372 28.3803 20.22L22.7099 25.7763L19.621 22.9194C19.219 22.5476 18.5898 22.5794 18.2274 22.9898C17.8779 23.3855 17.9066 23.9875 18.2923 24.3481L22.0506 27.8626Z" fill="url(#paint2_linear_8961_98838)"/>
<defs>
<linearGradient id="paint0_linear_8961_98838" x1="0" y1="24" x2="48" y2="24" gradientUnits="userSpaceOnUse">
<stop stop-color="#FFD24A"/>
<stop offset="0.93" stop-color="#31DFBA"/>
</linearGradient>
<linearGradient id="paint1_linear_8961_98838" x1="0" y1="24" x2="48" y2="24" gradientUnits="userSpaceOnUse">
<stop stop-color="#FFD24A"/>
<stop offset="0.93" stop-color="#31DFBA"/>
</linearGradient>
<linearGradient id="paint2_linear_8961_98838" x1="11.2" y1="24" x2="36.7999" y2="24" gradientUnits="userSpaceOnUse">
<stop stop-color="#FFD24A"/>
<stop offset="0.93" stop-color="#31DFBA"/>
</linearGradient>
</defs>
</svg>
