<svg width="64" height="64" fill="none" xmlns="http://www.w3.org/2000/svg"><rect width="64" height="64" rx="32" fill="#2B2B2B"/><circle opacity=".2" cx="32" cy="32" r="21" fill="url(#a)" stroke="url(#b)" stroke-width="4"/><path d="M29.453 21.09c1.175-1.886 3.92-1.886 5.094 0l.05.08a3 3 0 0 0 3.225 1.336l.092-.021c2.163-.503 4.105 1.438 3.601 3.601l-.02.092a3 3 0 0 0 1.335 3.226l.08.05c1.886 1.174 1.886 3.919 0 5.093l-.08.05a3 3 0 0 0-1.336 3.225l.021.092c.504 2.163-1.438 4.105-3.601 3.601l-.092-.02a3 3 0 0 0-3.226 1.335l-.05.08c-1.173 1.886-3.918 1.886-5.093 0l-.05-.08a3 3 0 0 0-3.225-1.336l-.092.021c-2.163.504-4.104-1.438-3.601-3.601l.02-.092a3 3 0 0 0-1.335-3.226l-.08-.05c-1.886-1.173-1.886-3.918 0-5.093l.08-.05a3 3 0 0 0 1.336-3.225l-.021-.092c-.503-2.163 1.438-4.104 3.601-3.601l.092.02a3 3 0 0 0 3.226-1.335l.05-.08z" fill="url(#c)" stroke="url(#d)" stroke-width="2" stroke-linejoin="round"/><path d="m29 32.5 2 2.5 4-6" stroke="url(#e)" stroke-width="2" stroke-linecap="round" stroke-linejoin="round"/><defs><linearGradient id="a" x1="9" y1="32" x2="55" y2="32" gradientUnits="userSpaceOnUse"><stop stop-color="#FF49A4"/><stop offset=".93" stop-color="#B049FF"/></linearGradient><linearGradient id="b" x1="9" y1="32" x2="55" y2="32" gradientUnits="userSpaceOnUse"><stop stop-color="#FF49A4"/><stop offset=".93" stop-color="#B049FF"/></linearGradient><linearGradient id="c" x1="17" y1="32" x2="47" y2="32" gradientUnits="userSpaceOnUse"><stop stop-color="#FF49A4" stop-opacity=".5"/><stop offset=".93" stop-color="#B049FF" stop-opacity=".5"/></linearGradient><linearGradient id="d" x1="17" y1="32" x2="47" y2="32" gradientUnits="userSpaceOnUse"><stop stop-color="#FF49A4"/><stop offset=".93" stop-color="#B049FF"/></linearGradient><linearGradient id="e" x1="29" y1="32" x2="35" y2="32" gradientUnits="userSpaceOnUse"><stop stop-color="#FF49A4"/><stop offset=".93" stop-color="#B049FF"/></linearGradient></defs></svg>