<svg xmlns="http://www.w3.org/2000/svg" width="64" height="64" fill="none" xmlns:v="https://vecta.io/nano"><rect width="64" height="64" rx="32" fill="#2b2b2b"/><circle opacity=".2" cx="32" cy="32" r="20" fill="url(#A)" stroke="url(#A)" stroke-width="4"/><path d="M39.988 25.901a1 1 0 0 1 1.376.326c1.532 2.485 2.078 5.576 1.262 8.62a11 11 0 0 1-12.986 7.894l-.378 1.412a.5.5 0 0 1-.88.175l-2.439-3.188a.5.5 0 0 1 .205-.766l3.706-1.542a.5.5 0 0 1 .675.591l-.371 1.385a9 9 0 0 0 10.536-6.479c.667-2.491.222-5.017-1.033-7.054a1 1 0 0 1 .327-1.375zm-5.249-6.054a.5.5 0 0 1 .88-.175l2.439 3.188a.5.5 0 0 1-.205.766l-3.706 1.542a.5.5 0 0 1-.675-.591l.371-1.386c-4.644-.976-9.293 1.841-10.536 6.48-.668 2.491-.222 5.017 1.033 7.054a1 1 0 0 1-1.703 1.049c-1.532-2.485-2.078-5.576-1.262-8.62a11 11 0 0 1 12.986-7.895l.378-1.411z" fill="url(#B)"/><defs><linearGradient id="A" x1="10" y1="32" x2="54" y2="32" gradientUnits="userSpaceOnUse"><stop stop-color="#ff49a4"/><stop offset=".93" stop-color="#b049ff"/></linearGradient><linearGradient id="B" x1="21.375" y1="29.153" x2="42.625" y2="34.847" gradientUnits="userSpaceOnUse"><stop stop-color="#ff49a4"/><stop offset=".93" stop-color="#b049ff"/></linearGradient></defs></svg>