<svg xmlns="http://www.w3.org/2000/svg" width="64" height="64" fill="none" xmlns:v="https://vecta.io/nano"><rect width="64" height="64" rx="32" fill="#2b2b2b"/><circle opacity=".2" cx="32" cy="32" r="21" fill="url(#A)" stroke="url(#A)" stroke-width="4"/><path d="M42.887 30.342l-.001-2.035v-4.37c0-1.346-1.086-2.437-2.425-2.437-2.462 2.133-5.381 4.875-10.306 4.875h-6.062c-1.005 0-1.819.819-1.819 1.828v3.656c0 1.01.814 1.828 1.819 1.828h1.639c-.71 2.462.094 4.432.713 6.377.065.203.197.377.376.491.787.501 2.59.596 3.553.196a.92.92 0 0 0 .285-1.506c-.701-.687-1.142-1.406-.75-2.318a.47.47 0 0 0-.04-.445c-.618-.94-.136-2.365 1.08-2.771 4.449.276 7.185 2.835 9.511 4.85 1.339 0 2.425-1.091 2.425-2.437v-4.37l.001-.913v-.499zm-2.426 5.016c-2.069-1.713-4.737-3.54-8.487-3.998v-2.656c3.75-.459 6.418-2.285 8.487-3.998v10.653z" fill="url(#B)"/><defs><linearGradient id="A" x1="9" y1="32" x2="55" y2="32" gradientUnits="userSpaceOnUse"><stop stop-color="#ff49a4"/><stop offset=".93" stop-color="#b049ff"/></linearGradient><linearGradient id="B" x1="22.275" y1="31.25" x2="42.887" y2="31.25" gradientUnits="userSpaceOnUse"><stop stop-color="#ff49a4"/><stop offset=".93" stop-color="#b049ff"/></linearGradient></defs></svg>