<svg xmlns="http://www.w3.org/2000/svg" width="64" height="64" fill="none" xmlns:v="https://vecta.io/nano"><rect width="64" height="64" rx="32" fill="#2b2b2b"/><circle opacity=".2" cx="32" cy="32" r="21" fill="url(#A)" stroke="url(#A)" stroke-width="4"/><path d="M36.512 20.859a1 1 0 0 0-1.024-1.718L36 20l.512.859zM32.003 33l.952-.305-.01-.039-.051-.23c-.043-.219-.098-.571-.135-1.064-.075-.986-.078-2.538.233-4.721l-.99-.141-.99-.141c-.331 2.317-.334 4.015-.248 5.154a11.28 11.28 0 0 0 .166 1.296l.077.346.027.1.009.032c.006.02.006.02.958-.286zm-.001-6.5l.99.141a8.54 8.54 0 0 1 2.006-4.425 8.2 8.2 0 0 1 1.089-1.051l.331-.245.081-.054c.013-.008.013-.008-.499-.867l-.513-.858-.021.013-.041.026-.134.089-.447.331a10.2 10.2 0 0 0-1.358 1.309c-1.015 1.173-2.12 2.97-2.474 5.45l.99.141z" fill="url(#B)"/><path d="M26.491 23.359a1 1 0 1 1 1.024-1.718l-.512.859-.512.859zM30.997 33l.609-.793-.022-.016-.027-.019-.064-.039c-.046-.026-.108-.055-.184-.078a.91.91 0 0 0-.642.047c-.231.107-.342.274-.382.35s-.038.107-.029.055c.047-.256.077-1.105-.246-3.364l.99-.141.99-.141c.32 2.241.347 3.393.232 4.011-.031.167-.081.349-.173.521a1.18 1.18 0 0 1-.541.524 1.09 1.09 0 0 1-.771.056c-.093-.028-.168-.063-.223-.094l-.074-.046-.03-.021-.02-.015c-.005-.004-.006-.005.606-.795zm.004-4l-.99.141a8.54 8.54 0 0 0-2.006-4.425 8.2 8.2 0 0 0-1.089-1.051l-.331-.245-.081-.054c-.013-.008-.013-.008.499-.867l.513-.858.021.013.041.026.134.089.447.331c.365.29.851.723 1.358 1.309a10.54 10.54 0 0 1 2.474 5.45l-.99.141z" fill="url(#C)"/><path d="M40 33a2 2 0 1 1 0 4H24a2 2 0 1 1 0-4h16z" fill="url(#D)"/><path d="M24 37v1h0v-1zm0-4v-1h0v1zm16 0v1a1 1 0 0 1 1 1h1 1a3 3 0 0 0-3-3v1zm2 2h-1a1 1 0 0 1-1 1v1 1a3 3 0 0 0 3-3h-1zm-2 2v-1H24v1 1h16v-1zm-16 0v-1a1 1 0 0 1-1-1h-1-1a3 3 0 0 0 3 3v-1zm-2-2h1a1 1 0 0 1 1-1v-1-1a3 3 0 0 0-3 3h1zm2-2v1h16v-1-1H24v1z" fill="url(#E)"/><g stroke-width="2"><circle cx="38" cy="19" r="2" stroke="url(#F)"/><circle cx="25" cy="22" r="2" stroke="url(#G)"/><path d="M25 37H39V43C39 44.1046 38.1046 45 37 45H27C25.8954 45 25 44.1046 25 43V37Z" fill="url(#H)" stroke="url(#I)" stroke-linejoin="round"/></g><defs><linearGradient id="A" x1="9" y1="32" x2="55" y2="32" href="#J"><stop stop-color="#ff49a4"/><stop offset=".93" stop-color="#b049ff"/></linearGradient><linearGradient id="B" x1="31.717" y1="26.5" x2="36" y2="26.5" href="#J"><stop stop-color="#ff49a4"/><stop offset=".93" stop-color="#b049ff"/></linearGradient><linearGradient id="C" x1="31.285" y1="27.758" x2="27.003" y2="27.758" href="#J"><stop stop-color="#ff49a4"/><stop offset=".93" stop-color="#b049ff"/></linearGradient><linearGradient id="D" x1="22" y1="35" x2="42" y2="35" href="#J"><stop stop-color="#ff49a4" stop-opacity=".5"/><stop offset=".93" stop-color="#b049ff" stop-opacity=".5"/></linearGradient><linearGradient id="E" x1="22" y1="35" x2="42" y2="35" href="#J"><stop stop-color="#ff49a4"/><stop offset=".93" stop-color="#b049ff"/></linearGradient><linearGradient id="F" x1="35" y1="19" x2="41" y2="19" href="#J"><stop stop-color="#ff49a4"/><stop offset=".93" stop-color="#b049ff"/></linearGradient><linearGradient id="G" x1="22" y1="22" x2="28" y2="22" href="#J"><stop stop-color="#ff49a4"/><stop offset=".93" stop-color="#b049ff"/></linearGradient><linearGradient id="H" x1="25" y1="41" x2="39" y2="41" href="#J"><stop stop-color="#ff49a4" stop-opacity=".5"/><stop offset=".93" stop-color="#b049ff" stop-opacity=".5"/></linearGradient><linearGradient id="I" x1="25" y1="41" x2="39" y2="41" href="#J"><stop stop-color="#ff49a4"/><stop offset=".93" stop-color="#b049ff"/></linearGradient><linearGradient id="J" gradientUnits="userSpaceOnUse"/></defs></svg>