<svg width="18" height="21" viewBox="0 0 18 21" fill="none" xmlns="http://www.w3.org/2000/svg">
    <path d="M4 9.70728H14V15.7073C14 18.4687 11.7614 20.7073 9 20.7073C6.23858 20.7073 4 18.4687 4 15.7073V9.70728Z" fill="#777576"/>
    <path d="M4 9.70728H14V15.7073C14 18.4687 11.7614 20.7073 9 20.7073C6.23858 20.7073 4 18.4687 4 15.7073V9.70728Z" fill="#777576"/>
    <path d="M4 8.70728H14C14 5.94585 11.7614 3.70728 9 3.70728C6.23858 3.70728 4 5.94585 4 8.70728Z" fill="#777576"/>
    <path d="M11 5C11 5 11.2812 4 12.5 2.5C13.3125 1.5 14 1 14 1" stroke="#777576" stroke-linecap="round"/>
    <rect x="12.9385" y="11.1748" width="4" height="1" rx="0.5" transform="rotate(-15 12.9385 11.1748)" fill="#777576"/>
    <rect x="13" y="13.7073" width="5" height="1" rx="0.5" fill="#777576"/>
    <rect x="13.1797" y="16.1396" width="4" height="1" rx="0.5" transform="rotate(15 13.1797 16.1396)" fill="#777576"/>
    <rect width="4" height="1" rx="0.5" transform="matrix(-0.965926 -0.258819 -0.258819 0.965926 5.06152 11.1748)" fill="#777576"/>
    <rect width="5" height="1" rx="0.5" transform="matrix(-1 0 0 1 5 13.7073)" fill="#777576"/>
    <rect width="4" height="1" rx="0.5" transform="matrix(-0.965926 0.258819 0.258819 0.965926 4.82031 16.1396)" fill="#777576"/>
    <path d="M7 5C7 5 7 4.33333 6 3C5 1.66667 4 1 4 1" stroke="#777576" stroke-linecap="round"/>
</svg>
