<svg width="17" height="24" viewBox="0 0 17 24" fill="none" xmlns="http://www.w3.org/2000/svg">
    <path fill-rule="evenodd" clip-rule="evenodd" d="M14.3723 19.2618L14.452 19.3074L16.4922 20.4813L16.7201 20.6067L16.4922 20.7321L11.2037 23.8094L11.1696 23.8322H11.124H10.1096H10.064L10.0298 23.8094L0.592672 18.3842L0.558476 18.3614L0.535686 18.3272L0.022795 17.4496L0 17.4154V17.3698V6.48518V6.4396L0.0113971 6.4054L0.524288 5.52779L0.547078 5.4936L0.581273 5.47081L10.0298 0.022795L10.0526 0H10.0982H11.1126H11.1468L11.1696 0.0113978L16.6062 2.97475L16.8569 3.11152L16.6062 3.2369L14.452 4.38804L14.3837 4.42223L14.3153 4.38804L10.5997 2.37069L2.3251 7.14621V16.686L10.5997 21.4501L14.2925 19.3074L14.3723 19.2618ZM14.3842 9.89294L14.3044 9.84735L10.6116 7.80719L8.21812 9.1863L15.9228 13.6085L16.0026 13.6541V13.7453V15.5005V15.5917L15.9228 15.6373L11.2157 18.3613L11.1815 18.3841H11.1359H10.1101H10.0645L10.0303 18.3613L4.93563 15.2042L4.73047 15.0788L4.93563 14.9535L6.74781 13.7909L6.82764 13.7453L6.90739 13.7909L10.6344 16.0362L13.0051 14.6571L5.30035 10.2235L5.22056 10.1779V10.0867V8.32009V8.2289L5.30035 8.1833L10.0303 5.45932L10.0531 5.43652H10.0987H11.1131H11.1587L11.1929 5.45932L16.1964 8.57085L16.4129 8.70764L16.1964 8.83298L14.4525 9.84735L14.3842 9.89294Z" fill="#777576"/>
</svg>
