<svg width="32" height="33" viewBox="0 0 32 33" fill="none" xmlns="http://www.w3.org/2000/svg">
<rect x="0.5" y="1" width="31" height="31" rx="15.5" fill="#2B2B2B"/>
<rect x="0.5" y="1" width="31" height="31" rx="15.5" stroke="url(#paint0_linear_8196_95031)"/>
<path fill-rule="evenodd" clip-rule="evenodd" d="M21.318 11.8904C21.6547 12.1766 21.6956 12.6814 21.4094 13.0181L14.6095 21.0181C14.4588 21.1954 14.2383 21.2983 14.0056 21.2999C13.773 21.3016 13.5511 21.2019 13.3978 21.0268L10.5979 17.8268C10.3069 17.4943 10.3406 16.9888 10.6731 16.6979C11.0056 16.407 11.511 16.4406 11.802 16.7732L13.9911 19.275L20.1903 11.9818C20.4765 11.6452 20.9814 11.6043 21.318 11.8904Z" fill="url(#paint1_linear_8196_95031)"/>
<defs>
<linearGradient id="paint0_linear_8196_95031" x1="0" y1="16.5" x2="32" y2="16.5" gradientUnits="userSpaceOnUse">
<stop stop-color="#FF49A4" stop-opacity="0.5"/>
<stop offset="0.93" stop-color="#B049FF" stop-opacity="0.5"/>
</linearGradient>
<linearGradient id="paint1_linear_8196_95031" x1="10.3999" y1="16.5" x2="21.5999" y2="16.5" gradientUnits="userSpaceOnUse">
<stop stop-color="#FF49A4"/>
<stop offset="0.93" stop-color="#B049FF"/>
</linearGradient>
</defs>
</svg>
