<svg width="15" height="16" viewBox="0 0 15 16" fill="none" xmlns="http://www.w3.org/2000/svg">
  <path d="M6.75 5H8.25V7.25H10.5V8.75H7.5C7.08579 8.75 6.75 8.41421 6.75 8V5Z" fill="currentColor" />
  <path fill-rule="evenodd" clip-rule="evenodd"
    d="M7.5 2C4.18629 2 1.5 4.68629 1.5 8C1.5 11.3137 4.18629 14 7.5 14C10.8137 14 13.5 11.3137 13.5 8C13.5 4.68629 10.8137 2 7.5 2ZM3 8C3 5.51472 5.01472 3.5 7.5 3.5C9.98528 3.5 12 5.51472 12 8C12 10.4853 9.98528 12.5 7.5 12.5C5.01472 12.5 3 10.4853 3 8Z"
    fill="currentColor" />
</svg>
  