<svg width="15" height="15" viewBox="0 0 15 15" fill="none" xmlns="http://www.w3.org/2000/svg">
  <path
    d="M1.06533 13.7716C0.557651 13.2639 0.557651 12.4408 1.06533 11.9331L12.0962 0.902245C12.6039 0.394564 13.427 0.394564 13.9347 0.902245C14.4424 1.40993 14.4424 2.23304 13.9347 2.74072L2.90381 13.7716C2.39613 14.2793 1.57301 14.2793 1.06533 13.7716Z"
    fill="currentColor" />
  <path
    d="M13.9347 13.7716C13.427 14.2793 12.6039 14.2793 12.0962 13.7716L1.06533 2.74072C0.55765 2.23304 0.55765 1.40993 1.06533 0.902247C1.57301 0.394566 2.39613 0.394566 2.90381 0.902247L13.9347 11.9331C14.4424 12.4408 14.4424 13.2639 13.9347 13.7716Z"
    fill="currentColor" />
</svg>