<svg width="20" height="20" viewBox="0 0 20 20" fill="none" xmlns="http://www.w3.org/2000/svg">
    <path d="M9.99992 12C11.1045 12 11.9999 11.1046 11.9999 10C11.9999 8.89543 11.1045 8 9.99992 8C8.89535 8 7.99992 8.89543 7.99992 10C7.99992 11.1046 8.89535 12 9.99992 12Z" fill="#FFFBFD"/>
    <path fill-rule="evenodd" clip-rule="evenodd" d="M9.00003 2C7.89546 2 7.00003 2.89543 7.00003 4V4.80289L6.3038 4.40181C5.34722 3.84952 4.12403 4.17727 3.57175 5.13386L2.57175 6.86591C2.01947 7.82249 2.34722 9.04567 3.3038 9.59796L4.00003 9.99993L3.30396 10.402C2.34737 10.9543 2.01962 12.1775 2.57191 13.1341L3.57191 14.8661C4.12419 15.8227 5.34737 16.1505 6.30396 15.5982L6.99934 15.1967L7.00003 16C7.00003 17.1046 7.89546 18 9.00003 18H11C12.1046 18 13 17.1046 13 16V15.1971L13.0009 15.1966L13.6961 15.598C14.6527 16.1502 15.8759 15.8225 16.4282 14.8659L17.4282 13.1339C17.9804 12.1773 17.6527 10.9541 16.6961 10.4018L16.0002 10L16.6963 9.59819C17.6528 9.04591 17.9806 7.82273 17.4283 6.86614L16.4283 5.13409C15.876 4.17751 14.6528 3.84976 13.6963 4.40204L13.001 4.80345L13 4.80289V4C13 2.89543 12.1046 2 11 2H9.00003ZM9.00003 4H11V5.41604C11 5.81352 11.2354 6.17326 11.5997 6.3324C11.8753 6.45283 12.1351 6.60363 12.3747 6.78074C12.6947 7.01727 13.1245 7.04157 13.4691 6.8426L14.6963 6.13409L15.6963 7.86614L14.4691 8.57465C14.1251 8.77323 13.9313 9.15656 13.9752 9.5513C13.9916 9.69826 14 9.84796 14 10C14 10.1521 13.9916 10.3018 13.9752 10.4488C13.9313 10.8435 14.1251 11.2268 14.4691 11.4254L15.6961 12.1339L14.6961 13.8659L13.469 13.1574C13.1244 12.9585 12.6946 12.9828 12.3746 13.2193C12.135 13.3964 11.8753 13.5472 11.5997 13.6676C11.2354 13.8267 11 14.1865 11 14.584V16H9.00003V14.584C9.00003 14.1865 8.76463 13.8267 8.4004 13.6676C8.12483 13.5472 7.86513 13.3965 7.62559 13.2194C7.30559 12.9829 6.87582 12.9586 6.53122 13.1576L5.30396 13.8661L4.30396 12.1341L5.531 11.4257C5.87498 11.2271 6.06882 10.8437 6.02485 10.4489C6.00848 10.3019 6.00003 10.1521 6.00003 10C6.00003 9.8479 6.00848 9.69814 6.02485 9.55112C6.06881 9.15637 5.87497 8.77302 5.53099 8.57443L4.3038 7.86591L5.3038 6.13386L6.53115 6.84247C6.87576 7.04143 7.30553 7.01714 7.62553 6.78063C7.8651 6.60357 8.12481 6.45281 8.4004 6.3324C8.76463 6.17326 9.00003 5.81352 9.00003 5.41604V4Z" fill="#FFFBFD"/>
</svg>
