<svg width="21" height="24" viewBox="0 0 21 24" fill="none" xmlns="http://www.w3.org/2000/svg">
    <path fill-rule="evenodd" clip-rule="evenodd" d="M18.1571 0.5H2.84286C1.55143 0.5 0.5 1.53871 0.5 2.82581V18.0903C0.5 19.3774 1.55143 20.4161 2.84286 20.4161H15.8029L15.1971 18.3274L16.66 19.671L18.0429 20.9355L20.5 23.0806V2.82581C20.5 1.53871 19.4486 0.5 18.1571 0.5ZM13.746 15.2452C13.746 15.2452 13.3345 14.7597 12.9917 14.3307C14.4888 13.9129 15.0602 12.9871 15.0602 12.9871C14.5917 13.292 14.146 13.5065 13.746 13.6533C13.1745 13.8904 12.626 14.0484 12.0888 14.1387C10.9917 14.342 9.98596 14.2855 9.12882 14.1275C8.47739 14.0033 7.91739 13.8226 7.44882 13.642C7.18596 13.5404 6.90025 13.4162 6.61453 13.2581C6.59739 13.2468 6.58025 13.2383 6.5631 13.2299C6.54596 13.2214 6.52882 13.2129 6.51167 13.2016C6.48882 13.1904 6.47739 13.1791 6.46596 13.1678C6.26025 13.0549 6.14596 12.9758 6.14596 12.9758C6.14596 12.9758 6.69453 13.8791 8.14596 14.3081C7.8031 14.7371 7.38025 15.2452 7.38025 15.2452C4.85453 15.1662 3.89453 13.5291 3.89453 13.5291C3.89453 9.89358 5.54025 6.94681 5.54025 6.94681C7.18596 5.72745 8.75167 5.76132 8.75167 5.76132L8.86596 5.89681C6.80882 6.4839 5.86025 7.37584 5.86025 7.37584C5.86025 7.37584 6.11167 7.24036 6.53453 7.04842C7.75739 6.51778 8.72882 6.371 9.12882 6.33713L9.15445 6.33285L9.15446 6.33285C9.2121 6.32315 9.26325 6.31455 9.3231 6.31455C10.0202 6.22423 10.8088 6.20165 11.6317 6.29197C12.7174 6.41616 13.8831 6.73229 15.0717 7.37584C15.0717 7.37584 14.1688 6.52907 12.226 5.94197L12.386 5.76132C12.386 5.76132 13.9517 5.72745 15.5974 6.94681C15.5974 6.94681 17.2431 9.89358 17.2431 13.5291C17.2431 13.5291 16.2717 15.1662 13.746 15.2452ZM8.75418 10.1772C8.10789 10.1772 7.59766 10.7585 7.59766 11.4676C7.59766 12.1767 8.11923 12.7579 8.75418 12.7579C9.40048 12.7579 9.91071 12.1767 9.91071 11.4676C9.92205 10.7585 9.40048 10.1772 8.75418 10.1772ZM12.8927 10.1779C12.2464 10.1779 11.7362 10.7591 11.7362 11.4682C11.7362 12.1773 12.2578 12.7585 12.8927 12.7585C13.539 12.7585 14.0493 12.1773 14.0493 11.4682C14.0493 10.7591 13.539 10.1779 12.8927 10.1779Z" fill="#FFFBFD"/>
</svg>
