<svg width="36" height="21" viewBox="0 0 36 21" fill="none" xmlns="http://www.w3.org/2000/svg">
    <path d="M34.7769 9.00655L27.3258 1.55547L27.3123 1.54196L27.2828 1.51614C27.2346 1.47256 27.1841 1.43153 27.1316 1.39323C27.0947 1.36373 27.0579 1.33546 27.0185 1.30965C27.0013 1.29735 26.9841 1.28752 26.9657 1.27646C26.5409 0.998247 26.027 0.889942 25.5261 0.973053C25.0251 1.05616 24.5738 1.32461 24.2616 1.7251L12.6732 13.3147V2.98989C12.6732 2.44711 12.4576 1.92657 12.0738 1.54277C11.69 1.15898 11.1695 0.943359 10.6267 0.943359C10.0839 0.943359 9.56337 1.15898 9.17957 1.54277C8.79577 1.92657 8.58016 2.44711 8.58016 2.98989V13.3147L4.34945 9.08398C3.96273 8.71523 3.44713 8.51235 2.91282 8.51871C2.37851 8.52506 1.86788 8.74013 1.49004 9.11797C1.1122 9.49581 0.897122 10.0064 0.89077 10.5408C0.884417 11.0751 1.08729 11.5907 1.45604 11.9774L9.17998 19.7013C9.22852 19.7505 9.27982 19.7969 9.33363 19.8402C9.38525 19.882 9.43933 19.9226 9.49341 19.9631C9.77249 20.144 10.0914 20.2541 10.4226 20.2839H10.4312C10.4976 20.2901 10.564 20.2938 10.6304 20.2938H10.6611C10.7168 20.2938 10.7721 20.2913 10.827 20.2864H10.8676C10.9204 20.2802 10.9733 20.2741 11.0249 20.263H11.0483C11.106 20.2507 11.1638 20.2372 11.2204 20.22H11.2302C11.2919 20.2014 11.3526 20.1797 11.4121 20.1549C11.4969 20.1198 11.579 20.0787 11.6579 20.032L11.7046 20.0049C11.7819 19.9577 11.8559 19.9051 11.9259 19.8476L11.9468 19.8292C11.9898 19.7923 12.0328 19.7554 12.0697 19.7136L23.8203 7.95562V18.2485C23.8203 18.7912 24.0359 19.3118 24.4197 19.6956C24.8035 20.0794 25.3241 20.295 25.8668 20.295C26.4096 20.295 26.9301 20.0794 27.3139 19.6956C27.6977 19.3118 27.9134 18.7912 27.9134 18.2485V7.92367L31.8835 11.9012C32.2689 12.2774 32.787 12.4865 33.3256 12.4832C33.8642 12.4799 34.3797 12.2644 34.7605 11.8835C35.1412 11.5026 35.3564 10.987 35.3595 10.4484C35.3626 9.90984 35.1533 9.39178 34.7769 9.00655Z" fill="currentColor"/>
</svg>
