<svg width="32" height="32" viewBox="0 0 32 32" fill="none" xmlns="http://www.w3.org/2000/svg">
  <circle cx="16" cy="16" r="16" fill="url(#paint0_linear_12826_154126)" fill-opacity="0.3" />
  <circle cx="16" cy="16" r="15.5" stroke="url(#paint1_linear_12826_154126)" stroke-opacity="0.3" />
  <path
    d="M13 9C10.7909 9 9 10.7909 9 13V24.2757C9 24.543 9.32314 24.6769 9.51213 24.4879L12.4142 21.5858C12.7893 21.2107 13.298 21 13.8284 21H21C23.2091 21 25 19.2091 25 17V13C25 10.7909 23.2091 9 21 9H13Z"
    fill="url(#paint2_linear_12826_154126)" />
  <path fill-rule="evenodd" clip-rule="evenodd"
    d="M13 15C13 14.4477 13.4477 14 14 14C14.5523 14 15 14.4477 15 15C15 15.5523 14.5523 16 14 16C13.4477 16 13 15.5523 13 15ZM19 15C19 14.4477 19.4477 14 20 14C20.5523 14 21 14.4477 21 15C21 15.5523 20.5523 16 20 16C19.4477 16 19 15.5523 19 15ZM17 14C16.4477 14 16 14.4477 16 15C16 15.5523 16.4477 16 17 16C17.5523 16 18 15.5523 18 15C18 14.4477 17.5523 14 17 14Z"
    fill="url(#paint3_linear_12826_154126)" />
  <defs>
    <linearGradient id="paint0_linear_12826_154126" x1="0" y1="16" x2="32" y2="16"
      gradientUnits="userSpaceOnUse">
      <stop stop-color="#FF49A4" stop-opacity="0.5" />
      <stop offset="0.93" stop-color="#B049FF" stop-opacity="0.5" />
    </linearGradient>
    <linearGradient id="paint1_linear_12826_154126" x1="0" y1="16" x2="32" y2="16"
      gradientUnits="userSpaceOnUse">
      <stop stop-color="#FF49A4" />
      <stop offset="0.93" stop-color="#B049FF" />
    </linearGradient>
    <linearGradient id="paint2_linear_12826_154126" x1="9" y1="16.7882" x2="25" y2="16.7882"
      gradientUnits="userSpaceOnUse">
      <stop stop-color="#FF49A4" stop-opacity="0.5" />
      <stop offset="0.93" stop-color="#B049FF" stop-opacity="0.5" />
    </linearGradient>
    <linearGradient id="paint3_linear_12826_154126" x1="13" y1="15" x2="26.5" y2="15"
      gradientUnits="userSpaceOnUse">
      <stop stop-color="#FF49A4" />
      <stop offset="0.93" stop-color="#B049FF" />
    </linearGradient>
  </defs>
</svg>