<svg width="32" height="33" viewBox="0 0 32 33" fill="none" xmlns="http://www.w3.org/2000/svg">
  <path
    d="M16 32.793C24.8366 32.793 32 25.6295 32 16.793C32 7.95641 24.8366 0.792969 16 0.792969C7.16344 0.792969 0 7.95641 0 16.793C0 25.6295 7.16344 32.793 16 32.793Z"
    fill="black" />
  <path
    d="M23.2004 10.3926H9.60039L6.40039 12.7926H22.4004L21.6004 15.9926H15.2004L14.4004 17.5926H20.8004L20.0004 20.7926H10.4004L12.5004 15.1926L10.4004 13.5926L7.20039 23.1926H20.0004L23.2004 21.5926L24.0004 18.3926L21.6004 16.7926L24.8004 15.1926L25.6004 11.9926L23.2004 10.3926Z"
    fill="#FDFD02" />
</svg>
  