<svg width="32" height="32" viewBox="0 0 32 32" fill="none" xmlns="http://www.w3.org/2000/svg">
  <circle cx="16" cy="16" r="16" fill="url(#paint0_linear_12826_154113)" fill-opacity="0.3" />
  <circle cx="16" cy="16" r="15.5" stroke="url(#paint1_linear_12826_154113)" stroke-opacity="0.3" />
  <path fill-rule="evenodd" clip-rule="evenodd"
    d="M21.3446 21.9766C21.7081 21.605 22 21.1125 22 20.5C22 19.7171 21.5231 19.1304 21.0296 18.7415C20.6733 18.4607 20.2354 18.2213 19.7494 18.0185C19.9948 18.0063 20.2454 18 20.5 18C23.5376 18 26 18.8954 26 20C26 21.0001 23.9812 21.8288 21.3446 21.9766ZM23 14.5C23 15.8807 21.8807 17 20.5 17C19.1193 17 18 15.8807 18 14.5C18 13.1193 19.1193 12 20.5 12C21.8807 12 23 13.1193 23 14.5Z"
    fill="url(#paint2_linear_12826_154113)" />
  <path fill-rule="evenodd" clip-rule="evenodd"
    d="M13.5 17C15.433 17 17 15.433 17 13.5C17 11.567 15.433 10 13.5 10C11.567 10 10 11.567 10 13.5C10 15.433 11.567 17 13.5 17ZM13.5 23C17.6421 23 21 21.8807 21 20.5C21 19.1193 17.6421 18 13.5 18C9.35786 18 6 19.1193 6 20.5C6 21.8807 9.35786 23 13.5 23Z"
    fill="url(#paint3_linear_12826_154113)" />
  <defs>
    <linearGradient id="paint0_linear_12826_154113" x1="0" y1="16" x2="32" y2="16"
      gradientUnits="userSpaceOnUse">
      <stop stop-color="#FF49A4" stop-opacity="0.5" />
      <stop offset="0.93" stop-color="#B049FF" stop-opacity="0.5" />
    </linearGradient>
    <linearGradient id="paint1_linear_12826_154113" x1="0" y1="16" x2="32" y2="16"
      gradientUnits="userSpaceOnUse">
      <stop stop-color="#FF49A4" />
      <stop offset="0.93" stop-color="#B049FF" />
    </linearGradient>
    <linearGradient id="paint2_linear_12826_154113" x1="18" y1="16.9883" x2="26" y2="16.9883"
      gradientUnits="userSpaceOnUse">
      <stop stop-color="#FF49A4" stop-opacity="0.5" />
      <stop offset="0.93" stop-color="#B049FF" stop-opacity="0.5" />
    </linearGradient>
    <linearGradient id="paint3_linear_12826_154113" x1="6" y1="16.5" x2="21" y2="16.5"
      gradientUnits="userSpaceOnUse">
      <stop stop-color="#FF49A4" />
      <stop offset="0.93" stop-color="#B049FF" />
    </linearGradient>
  </defs>
</svg>