<svg width="32" height="33" viewBox="0 0 32 33" fill="none" xmlns="http://www.w3.org/2000/svg">
  <circle cx="16" cy="16.793" r="16" fill="#FF0420" />
  <path fill-rule="evenodd" clip-rule="evenodd"
    d="M8.26136 20.4447C8.87598 20.8932 9.66447 21.1174 10.6268 21.1174C11.7914 21.1174 12.7214 20.8491 13.4169 20.3126C14.1124 19.768 14.6016 18.9472 14.8847 17.8501C15.0545 17.1775 15.2001 16.4848 15.3214 15.7721C15.3619 15.5158 15.382 15.3036 15.382 15.1354C15.382 14.5749 15.2405 14.0944 14.9575 13.694C14.6744 13.2856 14.2863 12.9813 13.7929 12.7811C13.2996 12.5729 12.7416 12.4688 12.1189 12.4688C9.83026 12.4688 8.41097 13.5699 7.86105 15.7721C7.66696 16.5809 7.51735 17.2735 7.41222 17.8501C7.37178 18.1064 7.35156 18.3226 7.35156 18.4988C7.35156 19.3396 7.65483 19.9883 8.26136 20.4447ZM11.9491 18.9913C11.6337 19.2555 11.2495 19.3877 10.7967 19.3877C10.0203 19.3877 9.63212 19.0193 9.63212 18.2825C9.63212 18.1064 9.6483 17.9382 9.68065 17.7781C9.82622 17.0013 9.97178 16.3446 10.1174 15.8081C10.2548 15.2635 10.4813 14.8591 10.7967 14.5949C11.1202 14.3306 11.5083 14.1985 11.9612 14.1985C12.7295 14.1985 13.1136 14.5628 13.1136 15.2916C13.1136 15.4677 13.0975 15.6399 13.0651 15.8081C12.968 16.3687 12.8265 17.0253 12.6405 17.7781C12.503 18.3226 12.2726 18.727 11.9491 18.9913ZM16.4068 20.9132C16.4553 20.9692 16.524 20.9973 16.613 20.9973H18.2627C18.3436 20.9973 18.4204 20.9692 18.4932 20.9132C18.566 20.8571 18.6105 20.7851 18.6267 20.697L19.1847 18.0663H20.8223C21.8817 18.0663 22.7147 17.8461 23.3212 17.4057C23.9358 16.9652 24.3442 16.2846 24.5464 15.3636C24.595 15.1474 24.6192 14.9392 24.6192 14.739C24.6192 14.0423 24.3442 13.5098 23.7943 13.1414C23.2525 12.7731 22.5327 12.5889 21.635 12.5889H18.4083C18.3275 12.5889 18.2506 12.6169 18.1778 12.673C18.1051 12.729 18.0606 12.8011 18.0444 12.8892L16.3704 20.697C16.3542 20.7771 16.3663 20.8491 16.4068 20.9132ZM21.7928 16.1324C21.5421 16.3166 21.2469 16.4087 20.9072 16.4087H19.5122L19.9732 14.2585H21.4289C21.7604 14.2585 21.995 14.3226 22.1324 14.4507C22.2699 14.5708 22.3387 14.747 22.3387 14.9793C22.3387 15.0834 22.3265 15.2035 22.3022 15.3396C22.2214 15.684 22.0516 15.9482 21.7928 16.1324Z"
    fill="white" />
</svg>
  