<svg width="32" height="32" viewBox="0 0 32 32" fill="none" xmlns="http://www.w3.org/2000/svg">
<circle cx="16" cy="16" r="16" fill="url(#paint0_linear_16252_14474)" fill-opacity="0.3"/>
<circle cx="16" cy="16" r="15.5" stroke="url(#paint1_linear_16252_14474)" stroke-opacity="0.3"/>
<path d="M12.0332 15.693C12.0332 15.8035 11.9437 15.893 11.8332 15.893H11.6609C11.5505 15.893 11.4609 15.9826 11.4609 16.093V20.6803C11.4609 20.7908 11.5505 20.8803 11.6609 20.8803H14.3225C14.4329 20.8803 14.5225 20.7908 14.5225 20.6803V16.093C14.5225 15.9826 14.4329 15.893 14.3225 15.893H14.1492C14.0388 15.893 13.9492 15.8035 13.9492 15.693V14.3557C13.9492 14.2452 14.0388 14.1557 14.1492 14.1557H17.8498C17.9603 14.1557 18.0498 14.2452 18.0498 14.3557V15.693C18.0498 15.8035 17.9603 15.893 17.8498 15.893H17.6766C17.5661 15.893 17.4766 15.9826 17.4766 16.093V20.6803C17.4766 20.7908 17.5661 20.8803 17.6766 20.8803H20.343C20.4534 20.8803 20.543 20.7908 20.543 20.6803V16.093C20.543 15.9826 20.4534 15.893 20.343 15.893H20.1707C20.0602 15.893 19.9707 15.8035 19.9707 15.693V14.3557C19.9707 14.2452 20.0602 14.1557 20.1707 14.1557H23.8703C23.9808 14.1557 24.0703 14.2452 24.0703 14.3557V15.693C24.0703 15.8035 23.9808 15.893 23.8703 15.893H23.698C23.5876 15.893 23.498 15.9826 23.498 16.093V20.6803C23.498 20.7908 23.5876 20.8803 23.698 20.8803H24.9973C25.1077 20.8803 25.1973 20.9699 25.1973 21.0803V22.8102C25.1973 22.9207 25.1077 23.0102 24.9973 23.0102H7.00274C6.89228 23.0102 6.80273 22.9207 6.80273 22.8102V21.0803C6.80273 20.9699 6.89228 20.8803 7.00273 20.8803H8.30684C8.41729 20.8803 8.50684 20.7908 8.50684 20.6803V16.093C8.50684 15.9826 8.41729 15.893 8.30684 15.893H8.13359C8.02314 15.893 7.93359 15.8035 7.93359 15.693V14.3557C7.93359 14.2452 8.02314 14.1557 8.13359 14.1557H11.8332C11.9437 14.1557 12.0332 14.2452 12.0332 14.3557V15.693ZM23.704 10.6876C23.731 10.7007 23.7607 10.7075 23.7908 10.7075H24.9973C25.1077 10.7075 25.1973 10.797 25.1973 10.9075V12.6373C25.1973 12.7478 25.1077 12.8373 24.9973 12.8373H7.00274C6.89228 12.8373 6.80273 12.7478 6.80273 12.6373V10.9075C6.80273 10.797 6.89228 10.7075 7.00273 10.7075H8.17989C8.20997 10.7075 8.23966 10.7007 8.26675 10.6876L15.8985 7.00813C15.9534 6.98167 16.0173 6.98167 16.0722 7.00813L23.704 10.6876ZM16.0029 8.63227C15.4174 8.63227 14.9426 9.10738 14.9424 9.69281C14.9424 10.2785 15.4173 10.7534 16.0029 10.7534C16.5884 10.7531 17.0625 10.2783 17.0625 9.69281C17.0622 9.10752 16.5882 8.6325 16.0029 8.63227Z" fill="url(#paint2_linear_16252_14474)"/>
<defs>
<linearGradient id="paint0_linear_16252_14474" x1="0" y1="16" x2="32" y2="16" gradientUnits="userSpaceOnUse">
<stop stop-color="#FF49A4" stop-opacity="0.5"/>
<stop offset="0.93" stop-color="#B049FF" stop-opacity="0.5"/>
</linearGradient>
<linearGradient id="paint1_linear_16252_14474" x1="0" y1="16" x2="32" y2="16" gradientUnits="userSpaceOnUse">
<stop stop-color="#FF49A4"/>
<stop offset="0.93" stop-color="#B049FF"/>
</linearGradient>
<linearGradient id="paint2_linear_16252_14474" x1="6.80273" y1="14.9992" x2="25.1973" y2="14.9992" gradientUnits="userSpaceOnUse">
<stop stop-color="#FF49A4"/>
<stop offset="0.93" stop-color="#B049FF"/>
</linearGradient>
</defs>
</svg>
