<svg width="32" height="32" viewBox="0 0 32 32" fill="none" xmlns="http://www.w3.org/2000/svg">
  <circle cx="16" cy="16" r="16" fill="url(#paint0_linear_7104_12433)" fill-opacity="0.3" />
  <circle cx="16" cy="16" r="15.5" stroke="url(#paint1_linear_7104_12433)" stroke-opacity="0.3" />
  <path fill-rule="evenodd" clip-rule="evenodd"
    d="M9.93675 10.4105C9.88524 10.1077 9.91639 9.97468 9.93237 9.93108C9.97597 9.9151 10.109 9.88395 10.4118 9.93546C10.8521 10.0103 11.4607 10.2347 12.2087 10.6375C12.91 11.0151 13.6905 11.5258 14.5102 12.1511C14.106 12.5159 13.7016 12.8999 13.3006 13.3009C12.9002 13.7013 12.5167 14.1051 12.1523 14.5089C11.5271 13.6891 11.0163 12.9087 10.6387 12.2075C10.236 11.4594 10.0116 10.8508 9.93675 10.4105ZM10.8928 15.9987C10.0977 14.9901 9.4416 14.0093 8.95854 13.1122C8.50665 12.273 8.17908 11.4574 8.05546 10.7305C7.93692 10.0336 7.9725 9.18434 8.57907 8.57778C9.18563 7.97122 10.0349 7.93564 10.7318 8.05417C11.4587 8.1778 12.2742 8.50536 13.1135 8.95725C14.0106 9.44034 14.9915 10.0965 16.0002 10.8917C17.0087 10.0967 17.9895 9.44057 18.8865 8.95753C19.7258 8.50564 20.5413 8.17807 21.2682 8.05445C21.9651 7.93592 22.8144 7.97149 23.4209 8.57806C24.0275 9.18462 24.0631 10.0339 23.9445 10.7308C23.8209 11.4577 23.4934 12.2732 23.0415 13.1125C22.5584 14.0095 21.9024 14.9902 21.1074 15.9987C21.903 17.0077 22.5595 17.989 23.0427 18.8865C23.4946 19.7258 23.8222 20.5413 23.9458 21.2682C24.0644 21.9651 24.0288 22.8144 23.4222 23.4209C22.8157 24.0275 21.9664 24.0631 21.2695 23.9445C20.5426 23.8209 19.727 23.4934 18.8878 23.0415C17.9904 22.5582 17.0092 21.9018 16.0002 21.1063C14.9911 21.9019 14.0097 22.5584 13.1122 23.0417C12.273 23.4936 11.4574 23.8212 10.7305 23.9448C10.0336 24.0634 9.18434 24.0278 8.57778 23.4212C7.97122 22.8146 7.93564 21.9654 8.05417 21.2685C8.1778 20.5416 8.50536 19.726 8.95725 18.8868C9.44057 17.9892 10.0972 17.0078 10.8928 15.9987ZM14.5104 19.8468C13.6901 20.4726 12.9091 20.9837 12.2075 21.3615C11.4594 21.7643 10.8508 21.9886 10.4105 22.0635C10.1077 22.115 9.97468 22.0839 9.93108 22.0679C9.9151 22.0243 9.88395 21.8913 9.93546 21.5884C10.0103 21.1482 10.2347 20.5395 10.6375 19.7915C11.0153 19.0899 11.5264 18.3089 12.1522 17.4886C12.517 17.8928 12.9009 18.2972 13.3019 18.6981C13.7025 19.0987 14.1065 19.4823 14.5104 19.8468ZM16.0002 18.619C15.5529 18.2232 15.1014 17.7988 14.6513 17.3487C14.2008 16.8983 13.7762 16.4464 13.38 15.9988C13.7758 15.5517 14.2 15.1002 14.65 14.6503C15.1005 14.1997 15.5525 13.775 16.0002 13.3788C16.4477 13.7749 16.8996 14.1996 17.35 14.65C17.8001 15.1 18.2244 15.5516 18.6202 15.9988C18.224 16.4465 17.7993 16.8985 17.3487 17.349C16.8987 17.799 16.4473 18.2232 16.0002 18.619ZM17.49 19.8468C18.3102 20.4724 19.091 20.9835 19.7925 21.3613C20.5406 21.764 21.1492 21.9884 21.5895 22.0633C21.8923 22.1148 22.0253 22.0836 22.0689 22.0676C22.0849 22.024 22.116 21.891 22.0645 21.5882C21.9897 21.1479 21.7653 20.5393 21.3625 19.7913C20.9848 19.0897 20.4737 18.3088 19.848 17.4886C19.4832 17.8929 19.0991 18.2974 18.6981 18.6984C18.2976 19.0989 17.8938 19.4824 17.49 19.8468ZM19.8479 14.5088C20.4731 13.6892 20.9837 12.9089 21.3613 12.2077C21.764 11.4597 21.9884 10.8511 22.0633 10.4108C22.1148 10.108 22.0836 9.97496 22.0676 9.93136C22.024 9.91538 21.891 9.88423 21.5882 9.93574C21.1479 10.0106 20.5393 10.235 19.7913 10.6377C19.0901 11.0153 18.3098 11.526 17.4901 12.1511C17.8943 12.5159 18.2985 12.8997 18.6994 13.3006C19.0999 13.7011 19.4835 14.105 19.8479 14.5088Z"
    fill="url(#paint2_linear_7104_12433)" />
  <path
    d="M15.8022 24.5934C15.8845 24.4436 16.1155 24.4436 16.1978 24.5934C16.3452 24.8616 16.5581 25.2086 16.7778 25.4282C16.9975 25.6479 17.3444 25.8609 17.6126 26.0082C17.7624 26.0906 17.7624 26.3215 17.6126 26.4039C17.3444 26.5512 16.9975 26.7642 16.7778 26.9839C16.5581 27.2035 16.3452 27.5505 16.1978 27.8187C16.1155 27.9685 15.8845 27.9685 15.8022 27.8187C15.6548 27.5505 15.4419 27.2035 15.2222 26.9839C15.0025 26.7642 14.6556 26.5512 14.3874 26.4039C14.2376 26.3215 14.2376 26.0906 14.3874 26.0082C14.6556 25.8609 15.0025 25.6479 15.2222 25.4282C15.4419 25.2086 15.6548 24.8616 15.8022 24.5934Z"
    fill="url(#paint3_linear_7104_12433)" />
  <path
    d="M15.8022 3.59342C15.8845 3.44361 16.1155 3.44361 16.1978 3.59342C16.3452 3.86162 16.5581 4.20856 16.7778 4.42824C16.9975 4.64791 17.3444 4.86086 17.6126 5.00824C17.7624 5.09056 17.7624 5.32155 17.6126 5.40387C17.3444 5.55124 16.9975 5.7642 16.7778 5.98387C16.5581 6.20354 16.3452 6.55049 16.1978 6.81869C16.1155 6.9685 15.8845 6.9685 15.8022 6.81869C15.6548 6.55049 15.4419 6.20354 15.2222 5.98387C15.0025 5.7642 14.6556 5.55124 14.3874 5.40387C14.2376 5.32155 14.2376 5.09056 14.3874 5.00824C14.6556 4.86086 15.0025 4.64791 15.2222 4.42824C15.4419 4.20856 15.6548 3.86162 15.8022 3.59342Z"
    fill="url(#paint4_linear_7104_12433)" />
  <path
    d="M5.80219 14.5934C5.88451 14.4436 6.11549 14.4436 6.19781 14.5934C6.34519 14.8616 6.55815 15.2086 6.77782 15.4282C6.99749 15.6479 7.34443 15.8609 7.61264 16.0082C7.76245 16.0906 7.76245 16.3215 7.61264 16.4039C7.34443 16.5512 6.99749 16.7642 6.77782 16.9839C6.55815 17.2035 6.34519 17.5505 6.19781 17.8187C6.11549 17.9685 5.88451 17.9685 5.80219 17.8187C5.65481 17.5505 5.44185 17.2035 5.22218 16.9839C5.00251 16.7642 4.65557 16.5512 4.38736 16.4039C4.23755 16.3215 4.23755 16.0906 4.38736 16.0082C4.65557 15.8609 5.00251 15.6479 5.22218 15.4282C5.44185 15.2086 5.65481 14.8616 5.80219 14.5934Z"
    fill="url(#paint5_linear_7104_12433)" />
  <path
    d="M25.8022 14.5934C25.8845 14.4436 26.1155 14.4436 26.1978 14.5934C26.3452 14.8616 26.5581 15.2086 26.7778 15.4282C26.9975 15.6479 27.3444 15.8609 27.6126 16.0082C27.7624 16.0906 27.7624 16.3215 27.6126 16.4039C27.3444 16.5512 26.9975 16.7642 26.7778 16.9839C26.5581 17.2035 26.3452 17.5505 26.1978 17.8187C26.1155 17.9685 25.8845 17.9685 25.8022 17.8187C25.6548 17.5505 25.4419 17.2035 25.2222 16.9839C25.0025 16.7642 24.6556 16.5512 24.3874 16.4039C24.2376 16.3215 24.2376 16.0906 24.3874 16.0082C24.6556 15.8609 25.0025 15.6479 25.2222 15.4282C25.4419 15.2086 25.6548 14.8616 25.8022 14.5934Z"
    fill="url(#paint6_linear_7104_12433)" />
  <defs>
    <linearGradient id="paint0_linear_7104_12433" x1="0" y1="16" x2="32" y2="16"
      gradientUnits="userSpaceOnUse">
      <stop stop-color="#FF49A4" stop-opacity="0.5" />
      <stop offset="0.93" stop-color="#B049FF" stop-opacity="0.5" />
    </linearGradient>
    <linearGradient id="paint1_linear_7104_12433" x1="0" y1="16" x2="32" y2="16"
      gradientUnits="userSpaceOnUse">
      <stop stop-color="#FF49A4" />
      <stop offset="0.93" stop-color="#B049FF" />
    </linearGradient>
    <linearGradient id="paint2_linear_7104_12433" x1="8" y1="15.9995" x2="24" y2="15.9995"
      gradientUnits="userSpaceOnUse">
      <stop stop-color="#FF49A4" />
      <stop offset="0.93" stop-color="#B049FF" />
    </linearGradient>
    <linearGradient id="paint3_linear_7104_12433" x1="14" y1="26.2061" x2="18" y2="26.2061"
      gradientUnits="userSpaceOnUse">
      <stop stop-color="#FF49A4" stop-opacity="0.5" />
      <stop offset="0.93" stop-color="#B049FF" stop-opacity="0.5" />
    </linearGradient>
    <linearGradient id="paint4_linear_7104_12433" x1="14" y1="5.20605" x2="18" y2="5.20605"
      gradientUnits="userSpaceOnUse">
      <stop stop-color="#FF49A4" stop-opacity="0.5" />
      <stop offset="0.93" stop-color="#B049FF" stop-opacity="0.5" />
    </linearGradient>
    <linearGradient id="paint5_linear_7104_12433" x1="4" y1="16.2061" x2="8" y2="16.2061"
      gradientUnits="userSpaceOnUse">
      <stop stop-color="#FF49A4" />
      <stop offset="0.93" stop-color="#B049FF" />
    </linearGradient>
    <linearGradient id="paint6_linear_7104_12433" x1="24" y1="16.2061" x2="28" y2="16.2061"
      gradientUnits="userSpaceOnUse">
      <stop stop-color="#FF49A4" />
      <stop offset="0.93" stop-color="#B049FF" />
    </linearGradient>
  </defs>
</svg>