<svg width="32" height="33" viewBox="0 0 32 33" fill="none" xmlns="http://www.w3.org/2000/svg">
  <circle cx="16" cy="16" r="16" transform="matrix(-1 0 0 1 32 0.792969)" fill="#000000" />
  <path
    d="M7.68164 13.175V21.1404C7.68164 21.6473 7.95172 22.1169 8.39217 22.3703L15.2897 26.3509C15.7301 26.6044 16.2703 26.6044 16.7107 26.3509L23.6082 22.3703C24.0487 22.1169 24.3188 21.6473 24.3188 21.1404V13.175C24.3188 12.6681 24.0487 12.1986 23.6082 11.9451L16.7107 7.96451C16.2703 7.71105 15.7301 7.71105 15.2897 7.96451L8.39217 11.9451C7.95588 12.1986 7.68164 12.6681 7.68164 13.175Z"
    fill="#213147" />
  <path
    d="M17.5085 18.702L16.5238 21.3987C16.4947 21.4735 16.4947 21.5566 16.5238 21.6314L18.2149 26.2727L20.172 25.1425L17.8243 18.702C17.7703 18.5524 17.5625 18.5524 17.5085 18.702Z"
    fill="#12AAFF" />
  <path
    d="M19.4786 14.163C19.4246 14.0134 19.2168 14.0134 19.1628 14.163L18.1781 16.8596C18.149 16.9344 18.149 17.0175 18.1781 17.0923L20.9495 24.6921L22.9066 23.5619L19.4786 14.163Z"
    fill="#12AAFF" />
  <path
    d="M16 8.259C16.0499 8.259 16.0956 8.27147 16.1413 8.2964L23.6039 12.6053C23.6911 12.6551 23.7452 12.7465 23.7452 12.8463V21.464C23.7452 21.5637 23.6911 21.6551 23.6039 21.705L16.1413 26.018C16.0997 26.0429 16.0499 26.0554 16 26.0554C15.9501 26.0554 15.9044 26.0429 15.8587 26.018L8.40028 21.7091C8.31302 21.6593 8.259 21.5679 8.259 21.4681V12.8463C8.259 12.7465 8.31302 12.6551 8.40028 12.6053L15.8629 8.2964C15.9044 8.27147 15.9543 8.259 16 8.259ZM16 7C15.7341 7 15.4681 7.07064 15.2313 7.20776L7.7687 11.5166C7.29501 11.7909 7 12.2978 7 12.8463V21.464C7 22.0125 7.29501 22.5235 7.7687 22.7978L15.2313 27.1066C15.4681 27.2438 15.7341 27.3144 16 27.3144C16.2659 27.3144 16.5319 27.2438 16.7687 27.1066L24.2313 22.7978C24.7091 22.5235 25 22.0166 25 21.464V12.8463C25 12.2978 24.705 11.7867 24.2313 11.5125L16.7729 7.20776C16.5319 7.07064 16.2659 7 16 7Z"
    fill="#9DCCED" />
  <path d="M11.0684 24.7004L11.754 22.8223L13.1335 23.9691L11.8454 25.1491L11.0684 24.7004Z"
    fill="#213147" />
  <path
    d="M15.3731 12.2314H13.4825C13.3412 12.2314 13.2124 12.3187 13.1667 12.4517L9.11133 23.5708L11.0684 24.701L15.5352 12.4558C15.5725 12.3478 15.4936 12.2314 15.3731 12.2314Z"
    fill="white" />
  <path
    d="M18.685 12.2314H16.7945C16.6532 12.2314 16.5244 12.3187 16.4787 12.4517L11.8457 25.1497L13.8028 26.2799L18.8429 12.46C18.8845 12.3478 18.8014 12.2314 18.685 12.2314Z"
    fill="white" />
</svg>
  