<svg width="32" height="32" viewBox="0 0 32 32" fill="none" xmlns="http://www.w3.org/2000/svg">
<circle cx="16" cy="16" r="13" fill="#F5F5F5"/>
<mask id="mask0_15634_1105" style="mask-type:alpha" maskUnits="userSpaceOnUse" x="3" y="3" width="26" height="26">
<circle cx="16" cy="16" r="13" fill="#131315"/>
</mask>
<g mask="url(#mask0_15634_1105)">
<path fill-rule="evenodd" clip-rule="evenodd" d="M10.3624 27.3397C9.98744 27.7593 9.63794 28.1504 9.31421 28.5032L10.6404 29.7202C10.987 29.3426 11.3531 28.9331 11.7399 28.5007C13.4715 26.5644 15.6162 24.1663 18.2644 22.0898C21.4876 19.5625 25.3685 17.5887 29.9823 17.5887V15.7887C24.8246 15.7887 20.5612 18.0015 17.1537 20.6733C14.3667 22.8587 12.0932 25.4029 10.3624 27.3397Z" fill="#131315"/>
<path fill-rule="evenodd" clip-rule="evenodd" d="M10.3624 4.65981C9.98744 4.2402 9.63794 3.84909 9.31421 3.49632L10.6404 2.2793C10.987 2.65695 11.3531 3.06638 11.7399 3.49884C13.4715 5.4351 15.6162 7.8332 18.2644 9.90969C21.4876 12.437 25.3685 14.4108 29.9823 14.4108V16.2108C24.8246 16.2108 20.5612 13.998 17.1537 11.3262C14.3667 9.1408 12.0932 6.59664 10.3624 4.65981Z" fill="#131315"/>
<path fill-rule="evenodd" clip-rule="evenodd" d="M10.0763 20.5528C8.21536 21.5389 6.32982 22.8903 5.30469 23.9378L6.59119 25.1968C7.42415 24.3456 9.11878 23.0973 10.9191 22.1433C12.7051 21.1969 14.833 20.276 17.0805 19.4689C21.5961 17.8472 26.4893 16.7217 29.9814 16.7217V14.9217C26.1922 14.9217 21.0753 16.1216 16.4721 17.7748C14.1603 18.6051 11.9516 19.559 10.0763 20.5528Z" fill="#131315"/>
<path fill-rule="evenodd" clip-rule="evenodd" d="M10.0762 11.4454C8.21527 10.4593 6.24702 9.02474 5.22189 7.97716L6.50839 6.71823C7.34135 7.56942 9.11869 8.90094 10.919 9.85494C12.705 10.8013 14.8329 11.7222 17.0804 12.5293C21.596 14.151 26.4892 15.2765 29.9813 15.2765V17.0765C26.1921 17.0765 21.0753 15.8766 16.472 14.2234C14.1602 13.3931 11.9515 12.4392 10.0762 11.4454Z" fill="#131315"/>
<path fill-rule="evenodd" clip-rule="evenodd" d="M29.3286 16.8996H2.01782V15.0996H29.3286V16.8996Z" fill="#131315"/>
</g>
</svg>
