<svg width="20" height="20" viewBox="0 0 20 20" fill="none" xmlns="http://www.w3.org/2000/svg">
<g clip-path="url(#clip0_15576_1023)">
<path fill-rule="evenodd" clip-rule="evenodd" d="M5.40634 9.34142C5.37242 9.423 5.35495 9.51047 5.35494 9.59882L5.35507 13.7921C5.35495 13.9295 5.30431 14.062 5.21279 14.1644C5.12128 14.2668 4.99528 14.3319 4.85881 14.3474C4.54532 14.3843 4.28164 14.4107 4.06987 14.4293C3.88029 14.4462 3.68982 14.4087 3.52083 14.3211C3.35185 14.2336 3.21135 14.0996 3.11585 13.935C2.56764 12.9805 2.22471 11.9222 2.109 10.8277C1.9933 9.73313 2.10736 8.62649 2.44389 7.57857C2.78043 6.53063 3.33202 5.56449 4.06338 4.74199C4.79473 3.91947 5.68975 3.25869 6.69114 2.80193C7.69252 2.34518 8.77823 2.10249 9.87879 2.08942C10.9794 2.07635 12.0705 2.29318 13.0825 2.72603C14.0944 3.15888 15.0049 3.79822 15.7556 4.60313C16.5063 5.40804 17.0806 6.36081 17.442 7.40045C17.5025 7.57643 17.5185 7.76466 17.4885 7.94832C17.4586 8.13199 17.3837 8.3054 17.2704 8.45306C16.4898 9.47043 15.5061 10.3165 14.5354 11.02V6.2448C14.5354 6.06665 14.4647 5.89578 14.3387 5.76981C14.2127 5.64383 14.0418 5.57306 13.8637 5.57306H12.7441C12.5659 5.5731 12.3951 5.64388 12.2692 5.76985C12.1432 5.89582 12.0725 6.06667 12.0725 6.2448V12.0436C12.0724 12.1537 12.0399 12.2614 11.979 12.3531C11.9181 12.4449 11.8315 12.5167 11.7301 12.5596C11.4571 12.6749 11.1767 12.7883 11.1767 12.7883V7.92415C11.1767 7.74598 11.106 7.57511 10.98 7.44911C10.854 7.32311 10.6832 7.25232 10.505 7.25228H9.38538C9.20721 7.25232 9.03635 7.32311 8.91038 7.44911C8.78441 7.57511 8.71364 7.74598 8.71364 7.92415V13.1651C8.71367 13.2913 8.67105 13.4137 8.59273 13.5126C8.5144 13.6115 8.40496 13.6809 8.28216 13.7098C8.10538 13.7514 7.94382 13.7912 7.81803 13.8285V9.6035C7.81803 9.42534 7.74725 9.25448 7.62127 9.12851C7.4953 9.00254 7.32444 8.93176 7.14629 8.93176L6.02889 8.92812C5.94054 8.92771 5.85298 8.94475 5.77124 8.97827C5.6895 9.01179 5.6152 9.06113 5.55256 9.12345C5.48994 9.18577 5.44025 9.25984 5.40634 9.34142ZM9.35999 17.8642C7.90513 17.7491 6.51046 17.2337 5.33032 16.3752L5.33057 16.3745C9.64655 15.761 14.9831 13.7457 17.8734 9.43506C17.8855 9.61418 17.894 9.79434 17.894 9.97646C17.8943 11.4359 17.491 12.867 16.7286 14.1114C15.966 15.3557 14.8742 16.3649 13.5737 17.0273C12.2732 17.6897 10.8149 17.9792 9.35999 17.8642Z" fill="currentColor"/>
</g>
<defs>
<clipPath id="clip0_15576_1023">
<rect width="16" height="16" fill="white" transform="translate(2 2)"/>
</clipPath>
</defs>
</svg>
