<svg width="32" height="32" viewBox="0 0 32 32" fill="none" xmlns="http://www.w3.org/2000/svg">
<circle cx="16" cy="16" r="13" fill="#0A131E"/>
<path d="M21.6936 15.9196L13.3302 20.7476C12.7526 21.081 12.5546 21.8193 12.888 22.3966C13.2213 22.9739 13.9598 23.1716 14.5373 22.8382L22.9008 18.0102C23.4784 17.6767 23.6763 16.9385 23.343 16.3612C23.0096 15.7838 22.2712 15.5862 21.6936 15.9196Z" fill="#FF7829"/>
<path d="M15.9089 14.3732L9.63633 17.9942C9.05876 18.3276 8.86076 19.0659 9.19411 19.6432C9.52745 20.2205 10.2659 20.4182 10.8435 20.0848L17.1161 16.4638C17.6937 16.1304 17.8916 15.3921 17.5583 14.8148C17.225 14.2375 16.4865 14.0398 15.9089 14.3732Z" fill="#FCBF22"/>
<path d="M17.4624 8.58486L9.09897 13.4129C8.52139 13.7463 8.32341 14.4846 8.65675 15.0619C8.9901 15.6392 9.72855 15.8369 10.3061 15.5035L18.6696 10.6755C19.2471 10.342 19.4451 9.60375 19.1118 9.02645C18.7784 8.44915 18.04 8.25145 17.4624 8.58486Z" fill="#2AE5B9"/>
</svg>
