<svg width="32" height="32" viewBox="0 0 32 32" fill="none" xmlns="http://www.w3.org/2000/svg">
    <path d="M29.3331 15.4243C28.9459 8.75686 23.8839 3.35202 17.402 2.67148C16.8598 2.58944 16.0078 3.22402 16.0078 4.04408V7.67964C16.0078 8.45 16.8655 9.07005 17.8931 9.22082C19.9198 9.71166 21.7383 11.6694 22.3677 14.2084C22.5438 14.1199 22.7719 14.0626 23.0667 14.0613C24.1738 14.0675 24.7949 14.7818 25.3125 15.3476C25.8837 15.9305 26.3192 16.3762 27.1419 16.3887C27.8875 16.3899 28.2226 15.9798 29.3331 15.4243Z" fill="#3F75FF"/>
    <path d="M10.0918 4.0072C11.0488 3.56559 12.0117 4.26839 12.0117 5.2483V14.0757C10.6033 14.0851 10.0092 14.7927 9.47195 15.3666L9.45668 15.3789C8.92433 15.9012 8.50025 16.2904 7.62523 16.2891C6.75257 16.2767 6.33707 15.8298 5.79588 15.2148C5.27826 14.6495 4.6572 13.9354 3.45004 13.9287C3.13456 13.9299 2.86607 13.9689 2.63594 14.0368C3.28321 9.6876 6.2536 5.90381 10.0918 4.0072Z" fill="#3F75FF"/>
    <path d="M17.402 29.3169C16.8598 29.3988 16.0078 28.7643 16.0078 27.9442V24.3087C16.0078 23.5381 16.8655 22.9175 17.8931 22.7668C20.5293 22.1976 22.7949 19.3769 22.7949 16.0002C22.7949 15.9699 22.7947 15.9398 22.7941 15.9096C22.9696 15.8383 23.1849 15.7907 23.4691 15.7912C24.3918 15.8029 24.8273 16.2498 25.3985 16.8154C25.9161 17.3814 26.5372 18.0966 27.6444 18.1029C28.3225 18.0999 28.8905 17.8754 29.3305 17.6148C28.5585 23.7246 23.6497 28.6222 17.402 29.3169Z" fill="#003F99"/>
    <path d="M2.66406 16.0229C2.67616 21.3029 5.84168 25.8551 10.0939 28.0191C11.0509 28.4624 12.0139 27.7596 12.0139 26.7808V15.7996C11.2005 15.8025 10.8184 16.2308 10.2994 16.8203L10.2843 16.8327C9.66201 17.4404 9.00761 18.1342 7.72983 18.1404C6.52266 18.1329 5.87161 17.3814 5.35399 16.8154C4.81279 16.2498 4.37729 15.8029 3.45461 15.7912C3.01548 15.7905 2.71205 15.8843 2.66406 16.0229Z" fill="#003F99"/>
</svg>