<svg width="32" height="32" viewBox="0 0 32 32" fill="none" xmlns="http://www.w3.org/2000/svg">
    <path fill-rule="evenodd" clip-rule="evenodd" d="M16.0143 26.8181C12.3953 26.8181 9.27668 24.5305 8.09697 21.4233C9.42423 24.4566 12.6449 26.5536 16.0143 26.5536C19.3834 26.5536 22.6383 24.4894 23.9327 21.4233C22.7534 24.5305 19.6349 26.8181 16.0143 26.8181ZM23.9428 15.4526C23.5285 14.4634 23.9296 13.3495 24.8269 12.8575C24.0129 11.6977 22.9135 10.6831 21.7248 9.91614C21.3704 10.5714 20.6599 10.9786 19.9451 10.9846C21.5454 12.4634 23.7689 14.7988 23.7689 18.3732C23.7689 22.6734 20.2439 26.1812 16.0143 26.1812C11.7842 26.1812 8.25926 22.6734 8.25926 18.3732C8.25926 14.7988 10.4831 12.4634 12.0838 10.9846C11.3688 10.9786 10.6581 10.5708 10.3035 9.91614C9.11703 10.7158 8.03672 11.7642 7.26799 12.9339C8.16493 13.4259 8.58525 14.5401 8.17089 15.4526C7.75653 16.3655 6.72035 16.8548 5.71304 16.5617C5.42843 18.0094 5.41538 19.5146 5.74196 20.9542C6.74669 20.6603 7.78642 21.1502 8.17089 22.0631C8.55624 22.9762 8.15472 24.0901 7.26723 24.5825C8.11711 25.7402 9.22057 26.5894 10.4089 27.4262C10.9088 26.4886 12.0567 26.0342 12.9211 26.4808C13.7853 26.9276 14.2711 27.9425 14.0159 29.0619C15.2881 29.3746 16.6858 29.3878 17.9643 29.0295C17.6584 27.9099 18.3447 26.8949 19.2091 26.4479C20.0738 26.0009 21.2215 26.4559 21.7214 27.3943C23.0084 26.6698 24.0939 25.8205 24.8498 24.5825C23.9629 24.0899 23.5613 22.9756 23.9428 22.0631C24.3574 21.1505 25.3954 20.6609 26.4025 20.9542C26.6871 19.5065 26.7002 18.0013 26.3736 16.5617C25.3689 16.8556 24.3293 16.3659 23.9428 15.4526Z" fill="white"/>
    <path fill-rule="evenodd" clip-rule="evenodd" d="M12.9582 8.12158C11.9282 10.0461 12.5834 11.4428 12.9758 12.6889C14.4749 17.9286 8.65537 19.2131 10.7842 13.7493C9.89243 15.2911 9.05781 16.4572 9.05781 18.9416C9.05781 21.4561 10.4473 23.7372 12.4541 25.0519C11.9485 22.1614 14.6133 21.6721 15.8222 19.5075C18.0812 15.5508 11.8578 12.1067 12.9582 8.12158Z" fill="#F17300"/>
    <path fill-rule="evenodd" clip-rule="evenodd" d="M17.2792 10.2097C15.4371 8.2289 13.8597 6.2833 15.8052 2.66797C14.5017 3.87995 12.0361 8.39539 14.0643 11.4564C15.9742 14.2184 17.5677 16.4716 16.5645 19.1915C15.6784 21.6678 12.5289 22.8459 13.3545 25.3274C17.6701 26.7922 22.2486 23.4294 22.2486 18.6899C22.2486 14.3839 18.2197 11.2188 17.2792 10.2097Z" fill="#E03597"/>
    <path fill-rule="evenodd" clip-rule="evenodd" d="M18.3294 4.48438C15.7273 7.42696 16.9202 8.1538 19.1656 10.5541C19.3789 8.30763 16.6782 7.05178 18.3294 4.48438Z" fill="#F17300"/>
</svg>