<svg width="20" height="21" viewBox="0 0 20 21" fill="none" xmlns="http://www.w3.org/2000/svg">
<path d="M9.12958 9.20175V14.6563H10.8661V9.20175H9.12958Z" fill="currentColor"/>
<path d="M9.37106 8.32462C9.54625 8.4856 9.75577 8.5661 9.99961 8.5661C10.2458 8.5661 10.4553 8.4856 10.6282 8.32462C10.8034 8.16127 10.8909 7.96477 10.8909 7.73513C10.8909 7.50786 10.8034 7.31373 10.6282 7.15274C10.4553 6.98939 10.2458 6.90771 9.99961 6.90771C9.75577 6.90771 9.54625 6.98939 9.37106 7.15274C9.19587 7.31373 9.10828 7.50786 9.10828 7.73513C9.10828 7.96477 9.19587 8.16127 9.37106 8.32462Z" fill="currentColor"/>
<path fill-rule="evenodd" clip-rule="evenodd" d="M17 10.6562C17 14.5222 13.866 17.6562 10 17.6562C6.13401 17.6562 3 14.5222 3 10.6562C3 6.79026 6.13401 3.65625 10 3.65625C13.866 3.65625 17 6.79026 17 10.6562ZM15.5 10.6562C15.5 13.6938 13.0376 16.1562 10 16.1562C6.96243 16.1562 4.5 13.6938 4.5 10.6562C4.5 7.61868 6.96243 5.15625 10 5.15625C13.0376 5.15625 15.5 7.61868 15.5 10.6562Z" fill="currentColor"/>
</svg>
