<svg width="31" height="30" viewBox="0 0 31 30" fill="none" xmlns="http://www.w3.org/2000/svg">
<path d="M14.1944 12.8182V21.0001H16.7991V12.8182H14.1944Z" fill="url(#paint0_linear_15184_184449)"/>
<path d="M14.5566 11.5026C14.8194 11.744 15.1336 11.8648 15.4994 11.8648C15.8687 11.8648 16.183 11.744 16.4422 11.5026C16.705 11.2575 16.8364 10.9628 16.8364 10.6183C16.8364 10.2774 16.705 9.98622 16.4422 9.74474C16.183 9.49971 15.8687 9.3772 15.4994 9.3772C15.1336 9.3772 14.8194 9.49971 14.5566 9.74474C14.2938 9.98622 14.1624 10.2774 14.1624 10.6183C14.1624 10.9628 14.2938 11.2575 14.5566 11.5026Z" fill="url(#paint1_linear_15184_184449)"/>
<path fill-rule="evenodd" clip-rule="evenodd" d="M26 15C26 20.799 21.299 25.5 15.5 25.5C9.70101 25.5 5 20.799 5 15C5 9.20101 9.70101 4.5 15.5 4.5C21.299 4.5 26 9.20101 26 15ZM23.75 15C23.75 19.5563 20.0563 23.25 15.5 23.25C10.9437 23.25 7.25 19.5563 7.25 15C7.25 10.4437 10.9437 6.75 15.5 6.75C20.0563 6.75 23.75 10.4437 23.75 15Z" fill="url(#paint2_linear_15184_184449)"/>
<defs>
<linearGradient id="paint0_linear_15184_184449" x1="5" y1="15" x2="26" y2="15" gradientUnits="userSpaceOnUse">
<stop stop-color="#FF49A4"/>
<stop offset="0.93" stop-color="#B049FF"/>
</linearGradient>
<linearGradient id="paint1_linear_15184_184449" x1="5" y1="15" x2="26" y2="15" gradientUnits="userSpaceOnUse">
<stop stop-color="#FF49A4"/>
<stop offset="0.93" stop-color="#B049FF"/>
</linearGradient>
<linearGradient id="paint2_linear_15184_184449" x1="5" y1="15" x2="26" y2="15" gradientUnits="userSpaceOnUse">
<stop stop-color="#FF49A4"/>
<stop offset="0.93" stop-color="#B049FF"/>
</linearGradient>
</defs>
</svg>
