<svg xmlns="http://www.w3.org/2000/svg" width="20" height="20" fill="none" xmlns:v="https://vecta.io/nano"><path d="M12 17a1 1 0 0 1-1 1H9a1 1 0 0 1-1-1h4zM10 2a6 6 0 0 1 6 6c0 1.616-.641 3.085-1.68 4.163-.812.843-1.32 1.617-1.32 2.384V15a1 1 0 0 1-1 1H8a1 1 0 0 1-1-1v-.453c0-.767-.508-1.541-1.32-2.384C4.641 11.085 4 9.616 4 8a6 6 0 0 1 6-6zm0 2a4 4 0 0 0-4 4c0 1.078.425 2.055 1.119 2.775.745.773 1.643 1.864 1.841 3.225h2.08c.198-1.361 1.096-2.451 1.841-3.225C13.575 10.055 14 9.078 14 8a4 4 0 0 0-4-4zm1.646 1.496a.5.5 0 0 1 .707-.002c.71.706 1.147 1.722 1.148 2.839a.5.5 0 1 1-1 0c0-.857-.335-1.615-.852-2.13a.5.5 0 0 1-.002-.707z" fill="#fffbfd"/></svg>