<svg width="20" height="21" viewBox="0 0 20 21" fill="none" xmlns="http://www.w3.org/2000/svg">
    <path fill-rule="evenodd" clip-rule="evenodd" d="M4 2.57812C2.89543 2.57812 2 3.47356 2 4.57812V16.5781C2 17.6827 2.89543 18.5781 4 18.5781H16C17.1046 18.5781 18 17.6827 18 16.5781V4.57812C18 3.47356 17.1046 2.57812 16 2.57812H4ZM7.14286 6.64918C7.13049 6.0412 6.72922 5.57812 6.07761 5.57812C5.426 5.57812 5 6.0412 5 6.64918C5 7.24457 5.41341 7.72098 6.05288 7.72098H6.06506C6.72922 7.72098 7.14286 7.24457 7.14286 6.64918ZM7.14286 9.1495H5V15.5781H7.14286V9.1495ZM14.9999 11.9766C14.9999 10.0474 13.9611 9.1495 12.5754 9.1495C11.4574 9.1495 10.9569 9.75912 10.6774 10.1868V9.29715H8.57137C8.59912 9.88652 8.57137 15.5781 8.57137 15.5781H10.6774V12.0703C10.6774 11.8826 10.691 11.6953 10.7467 11.5609C10.8989 11.1859 11.2454 10.7976 11.8272 10.7976C12.5895 10.7976 12.8942 11.3736 12.8942 12.2176V15.5779H14.9999L14.9999 11.9766Z" fill="currentColor"/>
</svg>
