<svg width="20" height="20" viewBox="0 0 20 20" fill="none" xmlns="http://www.w3.org/2000/svg">
<path fill-rule="evenodd" clip-rule="evenodd" d="M8 6C8 4.89543 8.89543 4 10 4C10.5922 4 11.1233 4.25615 11.491 4.66691C11.7398 4.94495 11.9114 5.2914 11.9739 5.67537L13.8836 5.03881C13.7245 4.39457 13.4093 3.81141 12.9812 3.33309C12.2502 2.51635 11.1848 2 10 2C7.79086 2 6 3.79086 6 6V8C4.34315 8 3 9.34315 3 11V15C3 16.6569 4.34315 18 6 18H14C15.6569 18 17 16.6569 17 15V11C17 9.34315 15.6569 8 14 8H8V6ZM6 10C5.44772 10 5 10.4477 5 11V15C5 15.5523 5.44772 16 6 16H14C14.5523 16 15 15.5523 15 15V11C15 10.4477 14.5523 10 14 10H6Z" fill="currentColor"/>
</svg>
