<svg width="24" height="24" viewBox="0 0 24 24" fill="none" xmlns="http://www.w3.org/2000/svg">
<path fill-rule="evenodd" clip-rule="evenodd" d="M9.59998 7.1999C9.59998 5.87442 10.6745 4.7999 12 4.7999C12.7107 4.7999 13.348 5.10728 13.7891 5.6002C14.0878 5.93385 14.2937 6.34959 14.3687 6.81034L16.6602 6.04648C16.4694 5.27338 16.0912 4.57359 15.5775 3.99961C14.7003 3.01952 13.4217 2.3999 12 2.3999C9.34901 2.3999 7.19998 4.54894 7.19998 7.1999V9.5999C5.21175 9.5999 3.59998 11.2117 3.59998 13.1999V17.9999C3.59998 19.9881 5.21175 21.5999 7.19998 21.5999H16.8C18.7882 21.5999 20.4 19.9881 20.4 17.9999V13.1999C20.4 11.2117 18.7882 9.5999 16.8 9.5999H9.59998V7.1999ZM7.19998 11.9999C6.53723 11.9999 5.99998 12.5372 5.99998 13.1999V17.9999C5.99998 18.6626 6.53723 19.1999 7.19998 19.1999H16.8C17.4627 19.1999 18 18.6626 18 17.9999V13.1999C18 12.5372 17.4627 11.9999 16.8 11.9999H7.19998Z" fill="url(#paint0_linear_8961_97876)"/>
<defs>
<linearGradient id="paint0_linear_8961_97876" x1="3.59998" y1="11.9999" x2="20.4" y2="11.9999" gradientUnits="userSpaceOnUse">
<stop stop-color="#FFD24A"/>
<stop offset="0.93" stop-color="#31DFBA"/>
</linearGradient>
</defs>
</svg>
