<svg width="24" height="24" viewBox="0 0 24 24" fill="none" xmlns="http://www.w3.org/2000/svg">
<path fill-rule="evenodd" clip-rule="evenodd" d="M7.19998 7.1999C7.19998 4.54894 9.34901 2.3999 12 2.3999C14.6509 2.3999 16.8 4.54894 16.8 7.1999V9.5999C18.7882 9.5999 20.4 11.2117 20.4 13.1999V17.9999C20.4 19.9881 18.7882 21.5999 16.8 21.5999H7.19998C5.21175 21.5999 3.59998 19.9881 3.59998 17.9999V13.1999C3.59998 11.2117 5.21175 9.5999 7.19998 9.5999V7.1999ZM9.59998 7.1999C9.59998 5.87442 10.6745 4.7999 12 4.7999C13.3255 4.7999 14.4 5.87442 14.4 7.1999V9.5999H9.59998V7.1999ZM5.99998 13.1999C5.99998 12.5372 6.53723 11.9999 7.19998 11.9999H16.8C17.4627 11.9999 18 12.5372 18 13.1999V17.9999C18 18.6626 17.4627 19.1999 16.8 19.1999H7.19998C6.53723 19.1999 5.99998 18.6626 5.99998 17.9999V13.1999Z" fill="url(#paint0_linear_8961_97898)"/>
<defs>
<linearGradient id="paint0_linear_8961_97898" x1="3.59998" y1="11.9999" x2="20.4" y2="11.9999" gradientUnits="userSpaceOnUse">
<stop stop-color="#FFD24A"/>
<stop offset="0.93" stop-color="#31DFBA"/>
</linearGradient>
</defs>
</svg>
