
<svg xmlns="http://www.w3.org/2000/svg" viewBox="0 0 32 32" width="32px" height="32px" ><g id="object-4" transform="matrix(1, 0, 0, 1, -32.2, -32)" style="transform-origin: 35.074px 35.031px;"><circle cx="48.074" cy="48.031" r="13" fill="#FC784A" id="object-0"/><path d="M 41.706 46.557 C 44.486 46.476 51.118 46.171 52.598 44.011 C 53.724 42.37 51.24 40.661 50.06 40.044 C 48.88 39.424 47.237 39.148 47.237 39.148 C 50.542 39.522 55.766 41.337 54.14 44.637 C 52.684 47.591 45.092 47.992 41.704 47.992 L 41.704 46.556 L 41.706 46.556 L 41.706 46.557 Z" fill="white" id="object-1"/><path d="M 41.706 53.911 L 41.706 52.508 C 45.91 52.368 51.531 52.231 54.445 49.454 C 54.524 51.9 51.163 53.004 48.59 53.464 C 46.364 53.862 43.99 53.975 41.707 53.911 L 41.706 53.911 Z" fill="white" id="object-2"/><path d="M 54.315 46.456 C 52.007 48.819 47.549 49.518 41.704 49.518 L 41.704 50.934 C 47.851 50.934 54.297 49.997 54.315 46.456 Z" fill="white" id="object-3"/></g></svg>