<svg width="22" height="26" viewBox="0 0 22 26" fill="none" xmlns="http://www.w3.org/2000/svg">
    <path fill-rule="evenodd" clip-rule="evenodd" d="M16.8525 4.9687L13.1469 6.51037C12.7638 6.66975 12.3645 6.3201 12.4718 5.91932L12.8431 4.53364C8.19944 3.55796 3.54998 6.37469 2.30693 11.0138C1.63943 13.505 2.08442 16.0306 3.33958 18.067C3.62936 18.5372 3.48314 19.1532 3.01298 19.443C2.54283 19.7328 1.92678 19.5865 1.637 19.1164C0.105092 16.631 -0.440711 13.5408 0.37508 10.4962C1.90407 4.78991 7.6498 1.33957 13.3614 2.59938L13.7391 1.18973C13.8465 0.788952 14.3672 0.68581 14.6192 1.01538L17.0576 4.2033C17.2569 4.46392 17.1554 4.84267 16.8525 4.9687ZM18.9875 7.2434C19.4577 6.95362 20.0737 7.09984 20.3635 7.56999C21.8954 10.0554 22.4412 13.1456 21.6254 16.1902C20.0965 21.8965 14.3507 25.3468 8.63911 24.087L8.26139 25.4967C8.154 25.8974 7.63336 26.0006 7.38128 25.671L4.94297 22.4831C4.74363 22.2225 4.84511 21.8437 5.14806 21.7177L8.85366 20.176C9.23675 20.0166 9.63607 20.3663 9.52868 20.7671L9.15739 22.1527C13.8011 23.1284 18.4505 20.3117 19.6936 15.6726C20.3611 13.1814 19.9161 10.6558 18.661 8.61938C18.3712 8.14923 18.5174 7.53318 18.9875 7.2434Z" fill="url(#paint0_linear_10824_110444)"/>
    <defs>
        <linearGradient id="paint0_linear_10824_110444" x1="0.375081" y1="10.4962" x2="21.6254" y2="16.1902" gradientUnits="userSpaceOnUse">
            <stop stop-color="#FF49A4"/>
            <stop offset="0.93" stop-color="#B049FF"/>
        </linearGradient>
    </defs>
</svg>
