<svg width="32" height="32" viewBox="0 0 32 32" fill="none" xmlns="http://www.w3.org/2000/svg">
<path d="M16 29C23.1797 29 29 23.1797 29 16C29 8.8203 23.1797 3 16 3C8.8203 3 3 8.8203 3 16C3 23.1797 8.8203 29 16 29Z" fill="#2674D9"/>
<path d="M12.3459 10.2554C13.003 10.2554 13.6339 10.3667 14.2219 10.5698C11.9711 11.3475 10.3539 13.4843 10.3538 15.9995C10.3538 18.5148 11.9711 20.6514 14.2219 21.4292C13.6339 21.6324 13.003 21.7446 12.3459 21.7446C9.17341 21.7446 6.60083 19.172 6.60083 15.9995C6.60096 12.8271 9.17349 10.2554 12.3459 10.2554Z" fill="white"/>
<path d="M19.6543 21.7446C18.9973 21.7446 18.3663 21.6333 17.7783 21.4302C20.0292 20.6525 21.6464 18.5157 21.6465 16.0005C21.6465 13.4852 20.0292 11.3486 17.7783 10.5708C18.3663 10.3676 18.9972 10.2554 19.6543 10.2554C22.8268 10.2554 25.3994 12.828 25.3994 16.0005C25.3993 19.1729 22.8268 21.7446 19.6543 21.7446Z" fill="white"/>
</svg>
