<svg width="32" height="32" viewBox="0 0 32 32" fill="none" xmlns="http://www.w3.org/2000/svg">
    <circle cx="16" cy="16" r="16" transform="matrix(-1 0 0 1 32 0)" fill="#2D374B"/>
    <path d="M13.5934 14.9771L12.0246 12.3152L7.79606 18.9013L7.79407 20.1652L7.80786 11.4677C7.81787 11.2551 7.93077 11.0606 8.11089 10.9459L15.7238 6.56681C15.9019 6.4793 16.1277 6.48023 16.3055 6.56953C16.3295 6.58159 16.3521 6.59465 16.3736 6.60891L16.4001 6.62561L23.7897 10.9078L23.8184 10.9208C23.8553 10.9378 23.8925 10.9593 23.9275 10.9844C24.0676 11.0849 24.1607 11.2335 24.1908 11.4001C24.1953 11.4254 24.1986 11.4511 24.2002 11.477L24.1886 18.5646L20.2499 12.4599C19.754 11.6504 18.6736 11.3896 17.6706 11.4038L16.4935 11.4349L23.4293 22.5581L22.6117 23.0288L15.5927 11.4462L12.4904 11.4349L19.4913 23.3098L16.5738 24.9879L16.2252 25.1883C16.0778 25.2483 15.904 25.2512 15.7553 25.1976L8.03538 20.7238L9.51133 21.5791L13.5934 14.9771ZM12.9948 23.5978L15.9415 18.9731L14.1428 15.9208L10.2729 22.0204L12.9948 23.5978Z" fill="#2D374B"/>
    <path d="M15.9414 18.9731L12.9947 23.5978L10.2727 22.0204L14.1426 15.9208L15.9414 18.9731Z" fill="#28A0F0"/>
    <path d="M7.79393 20.1653L7.79592 18.9014L12.0244 12.3153L13.5933 14.9773L9.51119 21.5792L8.03523 20.724C7.89045 20.6064 7.80288 20.4339 7.79366 20.2477L7.79393 20.1653Z" fill="#28A0F0"/>
    <path d="M25.5136 21.3573L23.4293 22.5583L16.4935 11.4351L17.6706 11.404C18.6736 11.3898 19.754 11.6506 20.2499 12.4601L24.1886 18.5648L25.5137 20.6008V21.3573H25.5136Z" fill="white"/>
    <path d="M12.4905 11.435L15.5928 11.4462L22.6118 23.0289L20.1585 24.4414L19.4913 23.3099L12.4905 11.435Z" fill="white"/>
    <path d="M6.48671 11.4189C6.51263 10.7701 6.86392 10.1761 7.41422 9.8303L15.1269 5.39495C15.6712 5.12083 16.3513 5.1205 16.8965 5.39475C16.9609 5.42723 24.397 9.73988 24.397 9.73988C24.4998 9.7892 24.599 9.848 24.6922 9.91469C25.1835 10.2668 25.4829 10.8138 25.5137 11.4149V20.6006L24.1886 18.5646L24.2002 11.477C24.1986 11.4511 24.1954 11.4256 24.1908 11.4005C24.1609 11.2337 24.0677 11.0849 23.9275 10.9844C23.8925 10.9593 16.3295 6.5816 16.3055 6.56953C16.1277 6.48024 15.9018 6.47931 15.7238 6.56682L8.1109 10.9459C7.93078 11.0606 7.81788 11.2551 7.80787 11.4677V20.2475C7.81708 20.4337 7.89067 20.6062 8.03545 20.7238L9.51141 21.5791L10.2729 22.0204L12.9949 23.5978L15.7554 25.1976C15.9041 25.2513 16.0779 25.2483 16.2253 25.1883L19.4913 23.3098L20.1585 24.4413L17.2234 26.1312C17.1264 26.1864 17.0399 26.2353 16.9689 26.2752C16.859 26.3369 16.7842 26.378 16.7577 26.3908C16.5491 26.4921 16.249 26.5511 15.9785 26.5511C15.7305 26.5511 15.4887 26.5056 15.2599 26.4159L7.24206 21.7726C6.78185 21.416 6.51111 20.8783 6.48671 20.2958V11.4189Z" fill="#96BEDC"/>
</svg>
