<svg width="32" height="32" viewBox="0 0 32 32" fill="none" xmlns="http://www.w3.org/2000/svg">
    <circle cx="16" cy="16" r="16" fill="url(#paint0_linear_4019_24003)"/>
    <path d="M16 32C24.8366 32 32 24.8366 32 16C32 7.16344 24.8366 0 16 0C7.16344 0 0 7.16344 0 16C0 24.8366 7.16344 32 16 32Z" fill="#9159FF"/>
    <path d="M15.9995 6.39999V19.6611L9.59969 16.1781L15.9995 6.39999Z" fill="white"/>
    <path d="M15.9995 6.39999L22.3995 16.1781L15.9995 19.6611V6.39999Z" fill="white"/>
    <path d="M15.9995 20.7773V25.5999L9.59961 17.296L15.9995 20.7773Z" fill="white"/>
    <path d="M15.9995 25.5999V20.7773L22.3996 17.296L15.9995 25.5999Z" fill="white"/>
    <defs>
        <linearGradient id="paint0_linear_4019_24003" x1="1.13559" y1="16.0005" x2="31.8043" y2="40.0005" gradientUnits="userSpaceOnUse">
            <stop stop-color="#6580EB"/>
            <stop offset="1" stop-color="#8EA2F2"/>
        </linearGradient>
    </defs>
</svg>
