<svg width="32" height="32" viewBox="0 0 32 32" fill="none" xmlns="http://www.w3.org/2000/svg">
    <circle cx="16" cy="16" r="16" fill="#FF0420"/>
    <path fill-rule="evenodd" clip-rule="evenodd" d="M8.26136 19.6517C8.87598 20.1002 9.66447 20.3244 10.6268 20.3244C11.7914 20.3244 12.7214 20.0561 13.4169 19.5196C14.1124 18.9751 14.6016 18.1543 14.8847 17.0571C15.0545 16.3845 15.2001 15.6918 15.3214 14.9791C15.3619 14.7228 15.382 14.5106 15.382 14.3424C15.382 13.7819 15.2405 13.3014 14.9575 12.901C14.6744 12.4926 14.2863 12.1883 13.7929 11.9881C13.2996 11.7799 12.7416 11.6758 12.1189 11.6758C9.83026 11.6758 8.41097 12.7769 7.86105 14.9791C7.66696 15.7879 7.51735 16.4806 7.41222 17.0571C7.37178 17.3134 7.35156 17.5296 7.35156 17.7058C7.35156 18.5467 7.65483 19.1953 8.26136 19.6517ZM11.9491 18.1983C11.6337 18.4625 11.2495 18.5947 10.7967 18.5947C10.0203 18.5947 9.63212 18.2263 9.63212 17.4896C9.63212 17.3134 9.6483 17.1452 9.68065 16.9851C9.82622 16.2083 9.97178 15.5517 10.1174 15.0151C10.2548 14.4706 10.4813 14.0662 10.7967 13.8019C11.1202 13.5376 11.5083 13.4055 11.9612 13.4055C12.7295 13.4055 13.1136 13.7699 13.1136 14.4986C13.1136 14.6748 13.0975 14.847 13.0651 15.0151C12.968 15.5757 12.8265 16.2323 12.6405 16.9851C12.503 17.5296 12.2726 17.934 11.9491 18.1983ZM16.4068 20.1202C16.4553 20.1763 16.524 20.2043 16.613 20.2043H18.2627C18.3436 20.2043 18.4204 20.1763 18.4932 20.1202C18.566 20.0641 18.6105 19.9921 18.6267 19.904L19.1847 17.2734H20.8223C21.8817 17.2734 22.7147 17.0532 23.3212 16.6127C23.9358 16.1723 24.3442 15.4916 24.5464 14.5707C24.595 14.3545 24.6192 14.1462 24.6192 13.946C24.6192 13.2494 24.3442 12.7168 23.7943 12.3485C23.2525 11.9801 22.5327 11.7959 21.635 11.7959H18.4083C18.3275 11.7959 18.2506 11.8239 18.1778 11.88C18.1051 11.936 18.0606 12.0081 18.0444 12.0962L16.3704 19.904C16.3542 19.9841 16.3663 20.0561 16.4068 20.1202ZM21.7928 15.3394C21.5421 15.5236 21.2469 15.6157 20.9072 15.6157H19.5122L19.9732 13.4656H21.4289C21.7604 13.4656 21.995 13.5296 22.1324 13.6578C22.2699 13.7779 22.3387 13.9541 22.3387 14.1863C22.3387 14.2904 22.3265 14.4105 22.3022 14.5466C22.2214 14.891 22.0516 15.1553 21.7928 15.3394Z" fill="white"/>
</svg>
