<svg width="33" height="32" viewBox="0 0 33 32" fill="none" xmlns="http://www.w3.org/2000/svg">
<path fill-rule="evenodd" clip-rule="evenodd" d="M18.3887 14.4556H19.6514C22.0104 14.4558 23.9234 16.3681 23.9238 18.7271C23.9238 21.0863 22.0116 22.9993 19.6523 22.9995H15.3799V17.5444H14.1172C11.7581 17.5442 9.84491 15.6321 9.84473 13.2729C9.84473 10.9137 11.757 9.0007 14.1162 9.00049H18.3887V14.4556ZM15.3799 14.4956V17.5044H18.3887V14.4956H15.3799Z" fill="white"/>
<circle cx="16.8843" cy="16" r="13" fill="#0074F0"/>
<path d="M16.884 8.00293C19.4385 8.00293 21.6612 9.42008 22.8108 11.5107L20.4202 13.9004C20.4196 13.8982 20.4197 13.8958 20.4192 13.8936L14.425 19.8887C15.0728 20.4827 15.9359 20.8456 16.884 20.8457C18.8786 20.8457 20.4984 19.2414 20.5237 17.2529L20.5247 17.2061V14.8086L23.137 12.1953C23.4624 12.9871 23.6438 13.8536 23.6438 14.7627V17.2061C23.6436 20.9393 20.6173 23.9658 16.884 23.9658C14.2928 23.9657 12.044 22.5066 10.9094 20.3662L13.3215 17.9541C13.3218 17.9554 13.3222 17.9567 13.3225 17.958L19.2668 12.0127C18.6281 11.459 17.7956 11.123 16.884 11.123C14.8739 11.1232 13.2445 12.7526 13.2444 14.7627V17.0215L10.5911 19.6738C10.2909 18.9091 10.1243 18.0772 10.1243 17.2061V14.7627C10.1244 11.0294 13.1508 8.00306 16.884 8.00293Z" fill="white"/>
</svg>
