<svg width="21" height="17" viewBox="0 0 21 17" fill="none" xmlns="http://www.w3.org/2000/svg">
    <path fill-rule="evenodd" clip-rule="evenodd" d="M10.5003 8.25C12.5714 8.25 14.2503 6.57107 14.2503 4.5C14.2503 2.42893 12.5714 0.75 10.5003 0.75C8.42927 0.75 6.75034 2.42893 6.75034 4.5C6.75034 6.57107 8.42927 8.25 10.5003 8.25ZM20.4311 14.6804C19.8701 10.5685 15.9498 9.5 10.5003 9.5C2.99893 9.5 0.895054 11.5324 0.553809 14.681C0.481758 15.3458 0.852525 15.9493 1.49423 16.1374C2.74658 16.5045 5.38461 17 10.5003 17C15.6161 17 18.2541 16.5045 19.5064 16.1374C20.1482 15.9493 20.5215 15.343 20.4311 14.6804Z" fill="#FFFBFD"/>
</svg>
