<svg width="22" height="31" viewBox="0 0 22 31" fill="none" xmlns="http://www.w3.org/2000/svg">
    <path d="M15.5139 5.20274C15.9883 4.91997 16.1437 4.30616 15.8609 3.83175C15.5781 3.35735 14.9643 3.20199 14.4899 3.48476L15.5139 5.20274ZM11.0048 17.3438C11.9568 17.0376 11.9569 17.0381 11.957 17.0385C11.9571 17.0386 11.9572 17.039 11.9573 17.0393C11.9575 17.0398 11.9576 17.0403 11.9578 17.0408C11.9581 17.0417 11.9583 17.0425 11.9585 17.0432C11.959 17.0446 11.9592 17.0455 11.9594 17.0459C11.9596 17.0467 11.9593 17.0455 11.9584 17.0424C11.9565 17.0362 11.9526 17.022 11.9469 16.9999C11.9355 16.9556 11.9172 16.8792 11.8959 16.7696C11.8532 16.5506 11.798 16.1987 11.7607 15.7057C11.686 14.7202 11.6824 13.168 11.994 10.9851L10.0141 10.7024C9.68334 13.0195 9.68008 14.7173 9.76638 15.8568C9.80952 16.4263 9.87498 16.8556 9.9328 17.1523C9.9617 17.3005 9.98866 17.4155 10.0099 17.4982C10.0206 17.5395 10.0298 17.5727 10.0371 17.598C10.0407 17.6106 10.0439 17.6212 10.0465 17.6299C10.0478 17.6342 10.049 17.638 10.0501 17.6413C10.0506 17.643 10.0511 17.6445 10.0515 17.646C10.0518 17.6467 10.052 17.6474 10.0522 17.648C10.0523 17.6483 10.0524 17.6488 10.0525 17.649C10.0526 17.6494 10.0528 17.6499 11.0048 17.3438ZM11.994 10.9851C12.2824 8.96534 13.1768 7.51229 14.0002 6.5605C14.4126 6.08377 14.8052 5.73548 15.0895 5.50963C15.2314 5.39694 15.3454 5.31548 15.4202 5.26444C15.4576 5.23894 15.485 5.22111 15.5011 5.21085C15.5092 5.20572 15.5144 5.20248 15.5166 5.20113C15.5177 5.20046 15.518 5.20026 15.5176 5.20052C15.5174 5.20066 15.517 5.20091 15.5163 5.20128C15.516 5.20146 15.5157 5.20168 15.5153 5.20192C15.5151 5.20204 15.5147 5.20225 15.5146 5.20231C15.5143 5.20252 15.5139 5.20274 15.0019 4.34375C14.4899 3.48476 14.4895 3.485 14.4891 3.48524C14.489 3.48533 14.4885 3.48558 14.4882 3.48576C14.4876 3.48613 14.487 3.48653 14.4862 3.48696C14.4848 3.48781 14.4832 3.4888 14.4814 3.48991C14.4777 3.49213 14.4732 3.49487 14.4679 3.49812C14.4574 3.50461 14.4437 3.51316 14.427 3.52377C14.3937 3.545 14.3484 3.57454 14.2927 3.61252C14.1815 3.68843 14.0284 3.79837 13.8457 3.94349C13.4808 4.23327 12.9944 4.66623 12.4876 5.252C11.4727 6.42521 10.3682 8.22216 10.0141 10.7024L11.994 10.9851Z" fill="url(#paint0_linear_10824_130567)"/>
    <path d="M5.48682 7.70274C5.01242 7.41997 4.85707 6.80616 5.13983 6.33175C5.4226 5.85735 6.03641 5.70199 6.51082 5.98476L5.48682 7.70274ZM9.99313 17.3438C10.6053 16.553 10.6038 16.5518 10.6023 16.5507C10.6018 16.5503 10.6002 16.5491 10.5992 16.5483C10.5972 16.5468 10.5951 16.5452 10.5931 16.5437C10.5889 16.5406 10.5847 16.5374 10.5803 16.5343C10.5717 16.528 10.5626 16.5217 10.553 16.5152C10.5341 16.5025 10.5128 16.4892 10.4891 16.4759C10.4431 16.4501 10.3813 16.4207 10.3049 16.398C10.1435 16.35 9.9069 16.3314 9.66316 16.4444C9.43217 16.5516 9.3214 16.7188 9.28121 16.7942C9.24255 16.8667 9.24291 16.9009 9.25257 16.8488C9.30014 16.5925 9.32917 15.7441 9.00668 13.4851L10.9866 13.2024C11.3065 15.4434 11.3338 16.595 11.219 17.2137C11.1881 17.3804 11.1378 17.563 11.046 17.7351C10.9527 17.9101 10.7864 18.1281 10.5049 18.2587C10.2106 18.3952 9.92861 18.3727 9.73439 18.3149C9.64158 18.2873 9.56656 18.2516 9.51133 18.2206C9.48311 18.2048 9.45827 18.1892 9.43691 18.1748C9.42618 18.1676 9.41616 18.1606 9.40688 18.1539C9.40224 18.1505 9.39776 18.1472 9.39345 18.144C9.3913 18.1424 9.38918 18.1408 9.38711 18.1392C9.38608 18.1384 9.38454 18.1372 9.38403 18.1368C9.38252 18.1357 9.38101 18.1345 9.99313 17.3438ZM9.00668 13.4851C8.71836 11.4653 7.82394 10.0123 7.00056 9.0605C6.58815 8.58377 6.19557 8.23548 5.91121 8.00963C5.76932 7.89694 5.65531 7.81548 5.58053 7.76444C5.54317 7.73894 5.51571 7.72111 5.49959 7.71085C5.49153 7.70572 5.48632 7.70248 5.48412 7.70113C5.48303 7.70046 5.48269 7.70026 5.48313 7.70052C5.48335 7.70066 5.48377 7.70091 5.48438 7.70128C5.48469 7.70146 5.48505 7.70168 5.48545 7.70192C5.48566 7.70204 5.486 7.70225 5.4861 7.70231C5.48645 7.70252 5.48682 7.70274 5.99882 6.84375C6.51082 5.98476 6.51121 5.985 6.51162 5.98524C6.51177 5.98533 6.51219 5.98558 6.51249 5.98576C6.5131 5.98613 6.51377 5.98653 6.51448 5.98695C6.51591 5.98781 6.51754 5.9888 6.51938 5.98991C6.52305 5.99213 6.52753 5.99487 6.53281 5.99812C6.54335 6.00461 6.55706 6.01316 6.57373 6.02377C6.60707 6.045 6.65233 6.07453 6.70798 6.11252C6.81921 6.18843 6.97236 6.29837 7.15508 6.44349C7.51994 6.73327 8.00637 7.16623 8.51311 7.752C9.52804 8.92521 10.6325 10.7222 10.9866 13.2024L9.00668 13.4851Z" fill="url(#paint1_linear_10824_130567)"/>
    <path d="M1 19.3438C1 18.2392 1.89543 17.3438 3 17.3438H19C20.1046 17.3438 21 18.2392 21 19.3438C21 20.4483 20.1046 21.3438 19 21.3438H3C1.89543 21.3438 1 20.4483 1 19.3438Z" fill="url(#paint2_linear_10824_130567)"/>
    <path d="M3 18.3438H19V16.3438H3V18.3438ZM19 20.3438H3V22.3438H19V20.3438ZM3 20.3438C2.44772 20.3438 2 19.896 2 19.3438H0C0 21.0006 1.34315 22.3438 3 22.3438V20.3438ZM20 19.3438C20 19.896 19.5523 20.3438 19 20.3438V22.3438C20.6569 22.3438 22 21.0006 22 19.3438H20ZM19 18.3438C19.5523 18.3438 20 18.7915 20 19.3438H22C22 17.6869 20.6569 16.3438 19 16.3438V18.3438ZM3 16.3438C1.34315 16.3438 0 17.6869 0 19.3438H2C2 18.7915 2.44772 18.3438 3 18.3438V16.3438Z" fill="url(#paint3_linear_10824_130567)"/>
    <circle cx="17" cy="3.34375" r="2" stroke="url(#paint4_linear_10824_130567)" stroke-width="2"/>
    <circle cx="4" cy="6.34375" r="2" stroke="url(#paint5_linear_10824_130567)" stroke-width="2"/>
    <path d="M4 21.3438H18V27.3438C18 28.4483 17.1046 29.3438 16 29.3438H6C4.89543 29.3438 4 28.4483 4 27.3438V21.3438Z" fill="url(#paint6_linear_10824_130567)" stroke="url(#paint7_linear_10824_130567)" stroke-width="2" stroke-linejoin="round"/>
    <defs>
        <linearGradient id="paint0_linear_10824_130567" x1="10.7188" y1="10.8438" x2="15.0019" y2="10.8438" gradientUnits="userSpaceOnUse">
            <stop stop-color="#FF49A4"/>
            <stop offset="0.93" stop-color="#B049FF"/>
        </linearGradient>
        <linearGradient id="paint1_linear_10824_130567" x1="10.2812" y1="12.102" x2="5.99882" y2="12.102" gradientUnits="userSpaceOnUse">
            <stop stop-color="#FF49A4"/>
            <stop offset="0.93" stop-color="#B049FF"/>
        </linearGradient>
        <linearGradient id="paint2_linear_10824_130567" x1="1" y1="19.3438" x2="21" y2="19.3438" gradientUnits="userSpaceOnUse">
            <stop stop-color="#FF49A4" stop-opacity="0.5"/>
            <stop offset="0.93" stop-color="#B049FF" stop-opacity="0.5"/>
        </linearGradient>
        <linearGradient id="paint3_linear_10824_130567" x1="1" y1="19.3438" x2="21" y2="19.3438" gradientUnits="userSpaceOnUse">
            <stop stop-color="#FF49A4"/>
            <stop offset="0.93" stop-color="#B049FF"/>
        </linearGradient>
        <linearGradient id="paint4_linear_10824_130567" x1="14" y1="3.34375" x2="20" y2="3.34375" gradientUnits="userSpaceOnUse">
            <stop stop-color="#FF49A4"/>
            <stop offset="0.93" stop-color="#B049FF"/>
        </linearGradient>
        <linearGradient id="paint5_linear_10824_130567" x1="1" y1="6.34375" x2="7" y2="6.34375" gradientUnits="userSpaceOnUse">
            <stop stop-color="#FF49A4"/>
            <stop offset="0.93" stop-color="#B049FF"/>
        </linearGradient>
        <linearGradient id="paint6_linear_10824_130567" x1="4" y1="25.3438" x2="18" y2="25.3438" gradientUnits="userSpaceOnUse">
            <stop stop-color="#FF49A4" stop-opacity="0.5"/>
            <stop offset="0.93" stop-color="#B049FF" stop-opacity="0.5"/>
        </linearGradient>
        <linearGradient id="paint7_linear_10824_130567" x1="4" y1="25.3438" x2="18" y2="25.3438" gradientUnits="userSpaceOnUse">
            <stop stop-color="#FF49A4"/>
            <stop offset="0.93" stop-color="#B049FF"/>
        </linearGradient>
    </defs>
</svg>
