<svg width="21" height="21" viewBox="0 0 21 21" fill="none" xmlns="http://www.w3.org/2000/svg">
    <path d="M18.6315 10.4994C18.6315 8.93357 18.1791 7.39311 17.3144 6.08145L20.5 2.89326L18.1126 0.5L14.927 3.68819C12.2433 1.93451 8.77116 1.93451 6.08746 3.68819L2.89463 0.5L0.5 2.89326L3.68558 6.08145C1.93194 8.76979 1.93194 12.2374 3.68558 14.9258L0.5 18.1067L2.89463 20.5L6.0802 17.3118C8.76385 19.0655 12.2361 19.0655 14.9197 17.3118L18.1054 20.5L20.5 18.1067L17.3144 14.9186C18.1791 13.6069 18.6399 12.0749 18.6315 10.5006V10.4994ZM5.75971 10.4994C5.75971 8.56507 6.928 6.81858 8.72274 6.09831C10.5175 5.37684 12.5747 5.81165 13.916 7.20521C15.2572 8.59879 15.62 10.6729 14.8218 12.4349L11.6943 9.30336L9.30692 11.6966L12.4344 14.8282C10.9699 15.4834 9.26581 15.3606 7.91609 14.4837C6.57485 13.6069 5.75971 12.1061 5.75971 10.5006V10.4994Z" fill="#777576"/>
</svg>
