<svg width="26" height="20" viewBox="0 0 26 20" fill="none" xmlns="http://www.w3.org/2000/svg">
  <path fill-rule="evenodd" clip-rule="evenodd"
    d="M3.01228 9.5H1.44191C1.02272 9.5 0.789623 9.98486 1.0514 10.3123L3.60951 13.5115C3.80964 13.762 4.19038 13.762 4.39051 13.5115L6.94862 10.3123C7.2104 9.98486 6.97731 9.5 6.55812 9.5H5.01539C5.27351 5.3147 8.74964 2 13 2C15.2714 2 17.3204 2.94531 18.7779 4.4668L20.2221 3.08325C18.4031 1.18433 15.839 0 13 0C7.64485 0 3.27278 4.20947 3.01228 9.5ZM13 18C17.2504 18 20.7265 14.6853 20.9846 10.5H19.4419C19.0227 10.5 18.7896 10.0151 19.0514 9.68774L21.6095 6.48853C21.8096 6.23804 22.1904 6.23804 22.3905 6.48853L24.9486 9.68774C25.2104 10.0151 24.9773 10.5 24.5581 10.5H22.9877C22.7272 15.7905 18.3552 20 13 20C10.161 20 7.59693 18.8157 5.7779 16.9167L7.22212 15.5332C8.67958 17.0547 10.7286 18 13 18Z"
    fill="#D9D9D9" />
</svg>
