<svg width="34" height="21" viewBox="0 0 34 21" fill="none" xmlns="http://www.w3.org/2000/svg">
    <path fill-rule="evenodd" clip-rule="evenodd" d="M10.723 7.99107C12.8778 7.99107 14.6247 6.30058 14.6247 4.21526C14.6247 2.12994 12.8778 0.439453 10.723 0.439453C8.56818 0.439453 6.82134 2.12994 6.82134 4.21526C6.82134 6.30058 8.56818 7.99107 10.723 7.99107ZM18.7398 10.8028C16.8936 9.62866 14.0886 9.24957 10.7229 9.24957C2.58976 9.24957 0.554874 11.4718 0.338691 14.8722C0.311084 15.3065 0.490677 15.7117 0.893856 15.8754C1.81258 16.2482 4.1196 16.8012 9.72286 16.8012C10.5095 16.8012 10.571 16.3303 10.6487 15.7355C10.782 14.7156 10.9629 13.3313 14.9283 13.3313C15.3676 13.2931 15.7843 13.2887 16.178 13.3114C18.05 13.4191 20.322 11.8091 18.7398 10.8028Z" fill="url(#paint0_linear_10411_123452)"/>
    <mask id="path-2-inside-1_10411_123452" fill="white">
        <path fill-rule="evenodd" clip-rule="evenodd" d="M21.0951 9.58128C23.7037 9.58128 25.8184 7.53481 25.8184 5.01036C25.8184 2.48592 23.7037 0.439453 21.0951 0.439453C18.4865 0.439453 16.3719 2.48592 16.3719 5.01036C16.3719 7.53481 18.4865 9.58128 21.0951 9.58128ZM33.6308 17.6353C33.0367 12.4445 28.0564 11.1049 21.0951 11.1049C11.4727 11.1049 8.9015 13.6744 8.54549 17.6336C8.48465 18.3102 8.8593 18.9237 9.50862 19.1235C10.9755 19.575 14.2999 20.2467 21.0951 20.2467C27.8902 20.2467 31.2146 19.575 32.6815 19.1235C33.3308 18.9237 33.7081 18.3103 33.6308 17.6353Z"/>
    </mask>
    <path fill-rule="evenodd" clip-rule="evenodd" d="M21.0951 9.58128C23.7037 9.58128 25.8184 7.53481 25.8184 5.01036C25.8184 2.48592 23.7037 0.439453 21.0951 0.439453C18.4865 0.439453 16.3719 2.48592 16.3719 5.01036C16.3719 7.53481 18.4865 9.58128 21.0951 9.58128ZM33.6308 17.6353C33.0367 12.4445 28.0564 11.1049 21.0951 11.1049C11.4727 11.1049 8.9015 13.6744 8.54549 17.6336C8.48465 18.3102 8.8593 18.9237 9.50862 19.1235C10.9755 19.575 14.2999 20.2467 21.0951 20.2467C27.8902 20.2467 31.2146 19.575 32.6815 19.1235C33.3308 18.9237 33.7081 18.3103 33.6308 17.6353Z" fill="url(#paint1_linear_10411_123452)"/>
    <path d="M33.6308 17.6353L31.6438 17.8628V17.8628L33.6308 17.6353ZM8.54549 17.6336L10.5375 17.8127L8.54549 17.6336ZM9.50862 19.1235L8.92036 21.0351H8.92036L9.50862 19.1235ZM32.6815 19.1235L33.2698 21.0351H33.2698L32.6815 19.1235ZM23.8184 5.01036C23.8184 6.36893 22.6615 7.58128 21.0951 7.58128V11.5813C24.746 11.5813 27.8184 8.70069 27.8184 5.01036H23.8184ZM21.0951 2.43945C22.6615 2.43945 23.8184 3.6518 23.8184 5.01036H27.8184C27.8184 1.32004 24.746 -1.56055 21.0951 -1.56055V2.43945ZM18.3719 5.01036C18.3719 3.6518 19.5288 2.43945 21.0951 2.43945V-1.56055C17.4443 -1.56055 14.3719 1.32004 14.3719 5.01036H18.3719ZM21.0951 7.58128C19.5288 7.58128 18.3719 6.36893 18.3719 5.01036H14.3719C14.3719 8.70069 17.4443 11.5813 21.0951 11.5813V7.58128ZM21.0951 13.1049C24.5152 13.1049 27.1448 13.4454 28.931 14.2479C29.792 14.6347 30.3986 15.1039 30.8161 15.6458C31.2275 16.1797 31.5316 16.8824 31.6438 17.8628L35.6179 17.4079C35.433 15.7928 34.8917 14.3815 33.9846 13.2044C33.0837 12.0351 31.8988 11.1961 30.5703 10.5992C27.9775 9.43424 24.6363 9.10488 21.0951 9.10488V13.1049ZM10.5375 17.8127C10.6735 16.2996 11.1639 15.3278 12.3765 14.5982C13.7868 13.7497 16.3806 13.1049 21.0951 13.1049V9.10488C16.1872 9.10488 12.6842 9.74483 10.3143 11.1708C7.74667 12.7157 6.77348 15.0084 6.55353 17.4545L10.5375 17.8127ZM10.0969 17.212C10.2336 17.2541 10.3643 17.3519 10.4484 17.4841C10.5284 17.6099 10.5448 17.7311 10.5375 17.8127L6.55353 17.4545C6.41583 18.9859 7.28793 20.5327 8.92036 21.0351L10.0969 17.212ZM21.0951 18.2467C14.4121 18.2467 11.3047 17.5837 10.0969 17.212L8.92036 21.0351C10.6463 21.5662 14.1878 22.2467 21.0951 22.2467V18.2467ZM32.0933 17.212C30.8854 17.5837 27.778 18.2467 21.0951 18.2467V22.2467C28.0023 22.2467 31.5438 21.5662 33.2698 21.0351L32.0933 17.212ZM31.6438 17.8628C31.6323 17.7627 31.6519 17.6254 31.7374 17.4901C31.8255 17.3505 31.9592 17.2533 32.0933 17.212L33.2698 21.0351C34.8923 20.5357 35.7982 18.9836 35.6179 17.4079L31.6438 17.8628Z" fill="url(#paint2_linear_10411_123452)" mask="url(#path-2-inside-1_10411_123452)"/>
    <defs>
        <linearGradient id="paint0_linear_10411_123452" x1="0.335938" y1="8.62032" x2="19.2719" y2="8.62032" gradientUnits="userSpaceOnUse">
            <stop stop-color="#FF49A4" stop-opacity="0.5"/>
            <stop offset="0.93" stop-color="#B049FF" stop-opacity="0.5"/>
        </linearGradient>
        <linearGradient id="paint1_linear_10411_123452" x1="8.53906" y1="10.3431" x2="33.6408" y2="10.3431" gradientUnits="userSpaceOnUse">
            <stop stop-color="#FF49A4" stop-opacity="0.5"/>
            <stop offset="0.93" stop-color="#B049FF" stop-opacity="0.5"/>
        </linearGradient>
        <linearGradient id="paint2_linear_10411_123452" x1="8.53906" y1="10.3431" x2="33.6408" y2="10.3431" gradientUnits="userSpaceOnUse">
            <stop stop-color="#FF49A4"/>
            <stop offset="0.93" stop-color="#B049FF"/>
        </linearGradient>
    </defs>
</svg>
