<svg width="44" height="44" viewBox="0 0 44 44" fill="none" xmlns="http://www.w3.org/2000/svg">
  <path fill-rule="evenodd" clip-rule="evenodd"
    d="M21.9203 36.9394C16.9932 36.9394 12.7952 33.8359 11.1948 29.487C12.9758 33.6312 17.3615 36.6048 21.9203 36.6048C26.4787 36.6048 30.8976 33.6645 32.6451 29.487C31.0452 33.8359 26.8472 36.9394 21.9203 36.9394ZM32.9257 21.2976C32.3931 20.0184 32.9407 18.5627 34.1505 17.9331C33.0177 16.1932 31.546 14.7546 29.8615 13.6685C29.3964 14.5527 28.4826 15.0807 27.5207 15.0885C29.7499 17.0872 32.7825 20.3628 32.7825 25.2779C32.7825 31.2445 27.9192 36.0813 21.9203 36.0813C15.9208 36.0813 11.0576 31.2445 11.0576 25.2779C11.0576 20.3628 14.0907 17.0872 16.3195 15.0885C15.3574 15.0807 14.4435 14.5519 13.9782 13.668C12.2287 14.7947 10.7823 16.2582 9.69065 17.9334C10.9001 18.563 11.447 20.0191 10.9145 21.2976C10.3821 22.5766 8.96046 23.2204 7.65738 22.8159C7.23791 24.768 7.22026 26.8201 7.65595 28.847C8.95926 28.4416 10.3819 29.0863 10.9145 30.3654C11.4473 31.6447 10.8996 33.1001 9.68965 33.7299C10.8228 35.47 12.2941 36.9085 13.9785 37.9943C14.6118 36.7914 16.0756 36.2473 17.3615 36.7769C18.6472 37.3067 19.2947 38.7206 18.8879 40.0165C20.8508 40.4337 22.9144 40.4512 24.9524 40.0178C24.5445 38.7219 25.1929 37.3069 26.4789 36.777C27.7653 36.2472 29.2288 36.792 29.862 37.9953C31.6115 36.8684 33.0581 35.4049 34.1496 33.7299C32.9404 33.0999 32.3931 31.644 32.9257 30.3654C33.4581 29.0866 34.88 28.4425 36.1828 28.847C36.6023 26.8952 36.62 24.8428 36.1842 22.8159C34.8807 23.2213 33.4583 22.5768 32.9257 21.2976Z"
    fill="white" />
  <path fill-rule="evenodd" clip-rule="evenodd"
    d="M17.7432 11.168C16.3043 13.691 17.1712 15.5587 17.701 17.4672C19.6999 24.6668 11.5405 26.4895 14.7123 18.8677C13.4566 20.9154 12.3438 22.4787 12.3438 26.0573C12.3438 29.682 14.2631 32.8416 17.1055 34.5026C16.4647 30.5292 20.0179 29.8855 21.6843 26.8764C24.7083 21.4149 16.2771 16.6644 17.7432 11.168Z"
    fill="#F17300" />
  <path fill-rule="evenodd" clip-rule="evenodd"
    d="M23.7678 14.0958C21.2495 11.3123 19.1495 8.6136 21.8072 3.66797C20.0023 5.3193 16.5486 11.5974 19.4191 15.7752C21.9649 19.4803 24.1569 22.6484 22.8194 26.3893C21.6379 29.6933 17.2385 31.2632 18.3393 34.8652C24.3627 36.8581 30.6648 32.2872 30.6648 25.7159C30.6648 19.7743 25.0271 15.4878 23.7678 14.0958Z"
    fill="#E03597" />
  <path fill-rule="evenodd" clip-rule="evenodd"
    d="M25.2392 6.17188C21.6098 10.0985 23.2278 11.0739 26.4875 14.5057C26.7986 11.4236 22.9243 9.70244 25.2392 6.17188Z"
    fill="#F17300" />
</svg>