<svg width="44" height="44" viewBox="0 0 44 44" fill="none" xmlns="http://www.w3.org/2000/svg">
  <path
    d="M35.906 21.9817L15.4757 33.7756C14.0649 34.5901 13.5811 36.3936 14.3955 37.8039C15.2098 39.2141 17.0136 39.697 18.4245 38.8826L38.8549 27.0886C40.2658 26.2741 40.7494 24.4707 39.9352 23.0604C39.1208 21.6501 37.3169 21.1673 35.906 21.9817Z"
    fill="#FF7829" />
  <path
    d="M21.775 18.2044L6.45227 27.0498C5.04137 27.8643 4.55769 29.6678 5.37201 31.078C6.18631 32.4883 7.99023 32.9713 9.40113 32.1567L24.7239 23.3114C26.1348 22.4968 26.6184 20.6934 25.8041 19.2831C24.9898 17.8728 23.1859 17.3899 21.775 18.2044Z"
    fill="#FCBF22" />
  <path
    d="M25.57 4.06373L5.13976 15.8576C3.72884 16.6722 3.24521 18.4756 4.05951 19.8859C4.87381 21.2962 6.6777 21.779 8.08862 20.9646L28.5189 9.17066C29.9298 8.35617 30.4134 6.55268 29.5992 5.14245C28.7849 3.7322 26.9809 3.24926 25.57 4.06373Z"
    fill="#2AE5B9" />
</svg>