<svg width="44" height="44" viewBox="0 0 44 44" fill="none" xmlns="http://www.w3.org/2000/svg">
  <path
    d="M26.7585 24.266H39.8893C40.3944 24.266 40.4961 23.5783 40.0369 23.3683L26.7593 17.321V4.13885C26.7593 3.64682 26.1013 3.48536 25.8742 3.92187L20.4156 14.4319L14.367 11.6538C13.7883 11.4201 13.4329 11.8913 13.6293 12.2963L17.2363 19.7366H4.10545C3.60041 19.7366 3.49863 20.4243 3.95792 20.6343L17.2355 26.6817V39.8638C17.2355 40.3558 17.8935 40.5172 18.1206 40.0808L23.5792 29.5707L29.6278 32.3488C30.2065 32.5825 30.5619 32.1114 30.3655 31.7063L26.7585 24.266Z"
    fill="#FFFBFD" />
  <path
    d="M26.7585 24.266H39.8893C40.3944 24.266 40.4961 23.5783 40.0369 23.3683L26.7593 17.321V4.13885C26.7593 3.64682 26.1013 3.48536 25.8742 3.92187L20.4156 14.4319L14.367 11.6538C13.7883 11.4201 13.4329 11.8913 13.6293 12.2963L17.2363 19.7366H4.10545C3.60041 19.7366 3.49863 20.4243 3.95792 20.6343L17.2355 26.6817V39.8638C17.2355 40.3558 17.8935 40.5172 18.1206 40.0808L23.5792 29.5707L29.6278 32.3488C30.2065 32.5825 30.5619 32.1114 30.3655 31.7063L26.7585 24.266Z"
    fill="url(#paint0_linear_12779_78726)" />
  <defs>
    <linearGradient id="paint0_linear_12779_78726" x1="33.2169" y1="13.3958" x2="9.57424" y2="31.53"
      gradientUnits="userSpaceOnUse">
      <stop stop-color="#FA43BD" />
      <stop offset="1" stop-color="#FFA930" />
    </linearGradient>
  </defs>
</svg>