<svg width="300" height="300" fill="none" xmlns="http://www.w3.org/2000/svg"><g clip-path="url(#a)"><path d="M150 300c82.843 0 150-67.157 150-150S232.843 0 150 0 0 67.157 0 150s67.157 150 150 150z" fill="#2470FF"/><path opacity=".8" d="M87.432 177.299v44.675c0 2.751 2.328 3.892 3.052 4.151a4.975 4.975 0 0 0 5.327-1.037l33.797-32.479c2.878-2.766 5.656-5.673 7.744-9.074.982-1.599 1.389-2.5 1.389-2.5 2.07-4.203 2.07-8.25.052-12.298-2.999-6.019-10.655-12.142-22.189-17.953l-19.707 11c-5.844 3.321-9.465 9.185-9.465 15.515z" fill="#fff"/><path d="M68 77.933v46.855c0 5.863 3.931 11.052 9.517 12.712 19.034 5.5 52.188 17.331 60.206 34.713 1.033 2.283 1.654 4.515 1.862 6.849 5.328-9.703 7.758-20.859 6.621-32.17a55.243 55.243 0 0 0-23.276-39.902L75.707 73.937a4.639 4.639 0 0 0-2.793-.934c-.828 0-1.552.156-2.328.571-1.552.882-2.586 2.49-2.586 4.359z" fill="#fff"/><path opacity=".8" d="M213.136 177.299v44.675c0 2.751-2.327 3.892-3.052 4.151a4.974 4.974 0 0 1-5.327-1.037l-34.584-33.234c-2.354-2.263-4.602-4.656-6.375-7.398-1.405-2.171-1.971-3.421-1.971-3.421-2.069-4.203-2.069-8.25-.053-12.298 3.001-6.019 10.656-12.142 22.189-17.953l19.707 11c5.897 3.321 9.466 9.185 9.466 15.515z" fill="#fff"/><path d="M232.6 77.93v46.854c0 5.864-3.932 11.052-9.518 12.713-19.034 5.5-52.187 17.331-60.205 34.713-1.035 2.283-1.656 4.514-1.862 6.849-5.328-9.703-7.758-20.859-6.621-32.17a55.23 55.23 0 0 1 23.276-39.902l47.223-33.053a4.639 4.639 0 0 1 2.793-.934c.827 0 1.552.156 2.326.57 1.553.883 2.588 2.491 2.588 4.36z" fill="#fff"/></g><defs><clipPath id="a"><path fill="#fff" d="M0 0h300v300H0z"/></clipPath></defs></svg>