<svg width="44" height="44" viewBox="0 0 44 44" fill="none" xmlns="http://www.w3.org/2000/svg">
  <path
    d="M22.0035 3.95312H22.0042C31.9256 3.95312 39.9686 11.9961 39.9686 21.9176V21.9182C39.9686 31.8397 31.9256 39.8827 22.0042 39.8827H22.0035C12.082 39.8827 4.03906 31.8397 4.03906 21.9182V21.9176C4.03906 11.9961 12.082 3.95312 22.0035 3.95312Z"
    fill="#111111" stroke="#111111" stroke-width="0.360975" />
  <path
    d="M21.9991 3.62109H21.9985C11.8942 3.62109 3.70312 11.8122 3.70312 21.9164V21.9171C3.70312 32.0213 11.8942 40.2124 21.9985 40.2124H21.9991C32.1034 40.2124 40.2944 32.0213 40.2944 21.9171V21.9164C40.2944 11.8122 32.1034 3.62109 21.9991 3.62109Z"
    fill="url(#paint0_radial_12779_27462)" fill-opacity="0.7" />
  <path
    d="M21.9971 3.58203H21.9978C32.1228 3.58203 40.3307 11.79 40.3307 21.9151V21.9157C40.3307 32.0407 32.1228 40.2487 21.9978 40.2487H21.9971C11.872 40.2487 3.66406 32.0407 3.66406 21.9157V21.9151C3.66406 11.79 11.872 3.58203 21.9971 3.58203Z"
    stroke="url(#paint1_linear_12779_27462)" stroke-width="0.373131" />
  <path fill-rule="evenodd" clip-rule="evenodd"
    d="M17.9932 13.4102H17.6034L17.3505 13.707L10.8252 21.3715L10.3594 21.9187L10.8252 22.4658L17.3505 30.1303L17.6034 30.4272H17.9932H29.7411H30.5851V29.5832V24.7107H28.8972V28.7393H19.8389L25.2604 22.4708L25.7379 21.9187L25.2604 21.3665L19.8389 15.0981H28.8972V19.1267H30.5851V14.2541V13.4102H29.7411H17.9932ZM17.9982 15.5502L12.5762 21.9187L17.9982 28.2872L23.5061 21.9187L17.9982 15.5502Z"
    fill="white" />
  <defs>
    <radialGradient id="paint0_radial_12779_27462" cx="0" cy="0" r="1"
      gradientUnits="userSpaceOnUse"
      gradientTransform="translate(22.038 8.96389) rotate(90) scale(38.5752 27.153)">
      <stop offset="0.03125" stop-color="#3A3A3A" />
      <stop offset="1" stop-color="#1C1C1C" />
    </radialGradient>
    <linearGradient id="paint1_linear_12779_27462" x1="21.9974" y1="2.88763" x2="21.9974"
      y2="40.9432" gradientUnits="userSpaceOnUse">
      <stop stop-color="white" />
      <stop offset="1" stop-color="#111111" />
    </linearGradient>
  </defs>
</svg>