<svg width="44" height="44" viewBox="0 0 44 44" fill="none" xmlns="http://www.w3.org/2000/svg">
  <path
    d="M17.7416 30.9503C19.7746 30.6203 21.1552 28.7045 20.8253 26.6715C20.4952 24.6384 18.5795 23.2578 16.5465 23.5878C14.5134 23.9178 13.1328 25.8334 13.4628 27.8666C13.7928 29.8996 15.7085 31.2802 17.7416 30.9503Z"
    fill="#9896FF" />
  <path
    d="M27.4761 30.9503C29.5091 30.6203 30.8896 28.7045 30.5596 26.6715C30.2297 24.6384 28.3139 23.2578 26.2809 23.5878C24.2479 23.9178 22.8671 25.8334 23.1972 27.8666C23.5273 29.8996 25.4428 31.2802 27.4761 30.9503Z"
    fill="#9896FF" />
  <path
    d="M22.0052 11.8711C11.879 11.8711 3.66922 20.2373 3.67188 30.5542H8.35547C8.35547 22.8225 14.4183 16.5538 22.0052 16.5538C29.5921 16.5538 35.6549 22.8225 35.6549 30.5542H40.3385C40.3402 20.2373 32.1305 11.8711 22.0052 11.8711Z"
    fill="#9896FF" />
</svg>