<svg width="44" height="44" viewBox="0 0 44 44" fill="none" xmlns="http://www.w3.org/2000/svg">
  <path
    d="M40.3329 21.208C39.9457 12.0379 32.8839 4.60276 23.902 3.67711C22.8598 3.56912 22.0078 4.43303 22.0078 5.48561V10.5675C22.0078 11.62 22.8655 12.4535 23.8931 12.6612C27.4198 13.3757 30.2383 16.0541 31.1677 19.5116C31.5438 19.3825 31.9719 19.3037 32.4667 19.3018C34.1738 19.3099 35.0949 20.2573 35.8125 21.0234C36.4837 21.7303 37.0192 22.2854 38.1419 22.3019C39.1875 22.3035 39.7226 21.8296 40.3329 21.208Z"
    fill="#3F75FF" />
  <path
    d="M13.8918 5.47174C15.0488 4.89813 16.3117 5.8116 16.3117 7.10747V19.349C14.6033 19.361 13.692 20.29 12.9719 21.0454L12.9567 21.0609C12.2843 21.7518 11.7502 22.3006 10.6252 22.2989C9.50257 22.2824 8.96707 21.7272 8.29588 21.0204C7.57826 20.2542 6.6572 19.3068 4.95004 19.2987C4.53456 19.3004 4.16607 19.3561 3.83594 19.4505C4.68321 13.3 8.5536 8.11973 13.8918 5.47174Z"
    fill="#3F75FF" />
  <path
    d="M23.902 40.324C22.8598 40.4314 22.0078 39.5681 22.0078 38.5156V33.4337C22.0078 32.3817 22.8655 31.5477 23.8931 31.34C28.2293 30.4614 31.4949 26.6138 31.4949 21.9995C31.4949 21.9575 31.4947 21.9157 31.4941 21.8739C31.7696 21.7623 32.0849 21.6986 32.4691 21.6992C33.5918 21.7157 34.1273 22.2709 34.7985 22.9777C35.5161 23.7439 36.4372 24.6913 38.1444 24.6993C39.0225 24.6959 39.6905 24.4506 40.2305 24.1106C39.2585 32.667 32.4497 39.4432 23.902 40.324Z"
    fill="#003F99" />
  <path
    d="M3.66406 22.0312C3.67616 29.267 7.84168 35.5242 13.8939 38.5263C15.0509 39.1 16.3139 38.1865 16.3139 36.8906V21.7495C15.2005 21.7532 14.6684 22.3 13.9994 22.9874L13.9843 23.0029C13.262 23.7605 12.3476 24.6926 10.6298 24.6993C8.92266 24.6913 8.00161 23.7439 7.28399 22.9777C6.61279 22.2709 6.07729 21.7157 4.95461 21.6992C4.41548 21.6984 4.01205 21.824 3.66406 22.0312Z"
    fill="#003F99" />
</svg>