<svg width="44" height="44" viewBox="0 0 44 44" fill="none" xmlns="http://www.w3.org/2000/svg">
  <path fill-rule="evenodd" clip-rule="evenodd"
    d="M8.80748 32.2446C7.89439 31.6861 7.33594 30.6916 7.33594 29.6235V23.6599C7.33594 23.4316 7.39708 23.2116 7.51122 23.0159C7.86586 22.4044 8.65258 22.1966 9.26402 22.5552L22.724 30.402C23.5107 30.8627 23.9958 31.7025 23.9958 32.6155V38.7952C23.9958 39.0764 23.9182 39.3577 23.7716 39.5982C23.3272 40.3238 22.3815 40.5521 21.6559 40.1077L8.80748 32.2446ZM28.871 20.9206C29.6577 21.3812 30.1427 22.221 30.1427 23.134V35.6727C30.1427 36.0437 29.943 36.386 29.621 36.5654L26.6738 38.2245C26.6371 38.2449 26.5964 38.2612 26.5557 38.2734V31.3111C26.5557 30.4102 26.0828 29.5746 25.3083 29.1099L13.4871 22.0376V14.1785C13.4871 13.9502 13.5482 13.7301 13.6623 13.5344C14.017 12.923 14.8037 12.7151 15.4151 13.0738L28.871 20.9206ZM34.7612 11.6593C35.552 12.1159 36.0371 12.9637 36.0371 13.8768V32.1917C36.0371 32.5666 35.8292 32.913 35.4991 33.0924L32.7067 34.6007V21.85C32.7067 20.9492 32.234 20.1176 31.4636 19.6529L19.3814 12.4053V4.94975C19.3814 4.72147 19.4425 4.50135 19.5526 4.30569C19.9072 3.69425 20.6939 3.48636 21.3054 3.841L34.7612 11.6593Z"
    fill="#00D395" />
</svg>