<svg width="21" height="21" viewBox="0 0 21 21" fill="none" xmlns="http://www.w3.org/2000/svg">
  <path fill-rule="evenodd" clip-rule="evenodd"
    d="M11.6702 12.1546C13.15 10.6747 13.15 8.27542 11.6702 6.79558C10.1903 5.31574 7.79105 5.31574 6.31121 6.79558C4.83137 8.27542 4.83137 10.6747 6.31121 12.1546C7.79105 13.6344 10.1903 13.6344 11.6702 12.1546ZM13.0099 13.4943C15.2297 11.2745 15.2297 7.6756 13.0099 5.45584C10.7902 3.23607 7.19123 3.23608 4.97146 5.45584C2.7517 7.6756 2.7517 11.2745 4.97146 13.4943C7.19123 15.7141 10.7902 15.7141 13.0099 13.4943Z"
    fill="currentColor" />
  <path
    d="M11.0003 12.8244L12.3401 11.4847L17.0292 16.1738C17.3991 16.5438 17.3991 17.1436 17.0292 17.5135C16.6592 17.8835 16.0594 17.8835 15.6894 17.5135L11.0003 12.8244Z"
    fill="currentColor" />
</svg>