<svg width="20" height="21" viewBox="0 0 20 21" fill="none" xmlns="http://www.w3.org/2000/svg">
<path fill-rule="evenodd" clip-rule="evenodd" d="M4 3.14258C2.89543 3.14258 2 4.03801 2 5.14258V15.1426C2 16.2471 2.89543 17.1426 4 17.1426H8C8.55228 17.1426 9 16.6949 9 16.1426C9 15.5903 8.55228 15.1426 8 15.1426H4V5.14258H8C8.55228 5.14258 9 4.69486 9 4.14258C9 3.59029 8.55228 3.14258 8 3.14258H4ZM18 10.1426L14 7.14258V9.14258L7 9.14258C6.44772 9.14258 6 9.59029 6 10.1426C6 10.6949 6.44772 11.1426 7 11.1426L14 11.1426V13.1426L18 10.1426Z" fill="#D2D2D2"/>
</svg>
