<svg width="36" height="36" viewBox="0 0 36 36" fill="none" xmlns="http://www.w3.org/2000/svg">
    <path d="M0.5 18C0.5 8.33502 8.33502 0.5 18 0.5C27.665 0.5 35.5 8.33502 35.5 18C35.5 27.665 27.665 35.5 18 35.5C8.33502 35.5 0.5 27.665 0.5 18Z" stroke="url(#paint0_linear_8889_115995)"/>
    <path d="M18.707 11.6364C20.2691 10.0743 22.8018 10.0743 24.3638 11.6364C25.9259 13.1985 25.9259 15.7312 24.3638 17.2933L22.6665 18.9906C22.5307 19.1264 22.2874 19.0095 22.2916 18.8174C22.305 18.2034 22.206 17.5873 21.9945 17.0028C21.9674 16.9281 21.9847 16.844 22.0409 16.7878L22.9496 15.8791C23.7307 15.098 23.7307 13.8317 22.9496 13.0506C22.1686 12.2696 20.9023 12.2696 20.1212 13.0506L17.2928 15.8791C16.5117 16.6601 16.5117 17.9264 17.2928 18.7075C17.6833 19.098 17.6833 19.7312 17.2928 20.1217C16.9023 20.5122 16.2691 20.5122 15.8786 20.1217C14.3165 18.5596 14.3165 16.0269 15.8786 14.4648L18.707 11.6364Z" fill="url(#paint1_linear_8889_115995)"/>
    <path d="M17.2928 24.3643C15.7307 25.9264 13.198 25.9264 11.6359 24.3643C10.0738 22.8022 10.0738 20.2696 11.6359 18.7075L13.3332 17.0102C13.4691 16.8743 13.7124 16.9913 13.7082 17.1833C13.6948 17.7974 13.7938 18.4134 14.0053 18.9979C14.0323 19.0727 14.0151 19.1567 13.9589 19.2129L13.0501 20.1217C12.2691 20.9027 12.2691 22.1691 13.0501 22.9501C13.8312 23.7312 15.0975 23.7312 15.8786 22.9501L18.707 20.1217C19.488 19.3406 19.488 18.0743 18.707 17.2933C18.3165 16.9027 18.3165 16.2696 18.707 15.8791C19.0975 15.4885 19.7307 15.4885 20.1212 15.8791C21.6833 17.4412 21.6833 19.9738 20.1212 21.5359L17.2928 24.3643Z" fill="url(#paint2_linear_8889_115995)"/>
    <defs>
        <linearGradient id="paint0_linear_8889_115995" x1="0" y1="18" x2="36" y2="18" gradientUnits="userSpaceOnUse">
            <stop stop-color="#FF49A4" stop-opacity="0.5"/>
            <stop offset="0.93" stop-color="#B049FF" stop-opacity="0.5"/>
        </linearGradient>
        <linearGradient id="paint1_linear_8889_115995" x1="10.4644" y1="18.0004" x2="25.5354" y2="18.0004" gradientUnits="userSpaceOnUse">
            <stop stop-color="#FF49A4"/>
            <stop offset="0.93" stop-color="#B049FF"/>
        </linearGradient>
        <linearGradient id="paint2_linear_8889_115995" x1="10.4644" y1="18.0004" x2="25.5354" y2="18.0004" gradientUnits="userSpaceOnUse">
            <stop stop-color="#FF49A4"/>
            <stop offset="0.93" stop-color="#B049FF"/>
        </linearGradient>
    </defs>
</svg>
