<svg width="46" height="46" viewBox="0 0 46 46" fill="none" xmlns="http://www.w3.org/2000/svg">
<path d="M23.2412 0.621094C35.3915 0.621094 45.2412 10.4708 45.2412 22.6211C45.2412 34.7714 35.3915 44.6211 23.2412 44.6211C11.0909 44.6211 1.24121 34.7714 1.24121 22.6211C1.24121 10.4708 11.0909 0.621094 23.2412 0.621094Z" stroke="url(#paint0_linear_8961_97070)" stroke-opacity="0.3"/>
<path d="M27.8678 21.3079C28.157 20.7939 28.2412 20.2476 28.2412 19.6211C28.2412 18.3841 27.8598 17.3963 26.9762 16.7055C26.0927 15.9987 24.7834 15.6211 23.2412 15.6211C21.7954 15.6211 20.7112 16.0147 19.7955 16.7537C19.1097 17.3072 18.6311 18.0229 18.3599 18.9008L21.0216 19.5662C21.1375 19.1173 21.3714 18.742 21.7232 18.4404C22.173 18.0549 22.7273 17.8621 23.3859 17.8621C24.0766 17.8621 24.6068 18.0308 24.9762 18.3682C25.3457 18.6894 25.5305 19.1392 25.5305 19.7176C25.5305 20.1674 25.3859 20.577 25.0967 20.9465C24.8076 21.3159 24.3176 21.7416 23.6268 22.2236C22.9843 22.6734 22.4943 23.1633 22.157 23.6935C21.8196 24.2075 21.5626 24.9625 21.5305 25.6211H24.2412C24.2573 25.2356 24.3337 24.7135 24.5425 24.3923C24.7674 24.071 25.1048 23.7497 25.5546 23.4284L26.3015 22.8742C27.0726 22.328 27.5947 21.8059 27.8678 21.3079Z" fill="url(#paint1_linear_8961_97070)"/>
<path d="M21.5305 28.6212C21.5305 29.1735 21.9782 29.6212 22.5305 29.6212H23.3497C23.902 29.6212 24.3497 29.1735 24.3497 28.6212V27.9947C24.3497 27.4424 23.902 26.9947 23.3497 26.9947H22.5305C21.9782 26.9947 21.5305 27.4424 21.5305 27.9947V28.6212Z" fill="url(#paint2_linear_8961_97070)"/>
<defs>
<linearGradient id="paint0_linear_8961_97070" x1="0.741211" y1="22.6211" x2="45.7412" y2="22.6211" gradientUnits="userSpaceOnUse">
<stop stop-color="#FFD24A"/>
<stop offset="0.93" stop-color="#31DFBA"/>
</linearGradient>
<linearGradient id="paint1_linear_8961_97070" x1="18.3599" y1="22.6211" x2="28.2412" y2="22.6211" gradientUnits="userSpaceOnUse">
<stop stop-color="#FFD24A"/>
<stop offset="0.93" stop-color="#31DFBA"/>
</linearGradient>
<linearGradient id="paint2_linear_8961_97070" x1="18.3599" y1="22.6211" x2="28.2412" y2="22.6211" gradientUnits="userSpaceOnUse">
<stop stop-color="#FFD24A"/>
<stop offset="0.93" stop-color="#31DFBA"/>
</linearGradient>
</defs>
</svg>
