<svg width="46" height="45" viewBox="0 0 46 45" fill="none" xmlns="http://www.w3.org/2000/svg">
<path d="M22.8857 0.5C35.036 0.5 44.8857 10.3497 44.8857 22.5C44.8857 34.6503 35.036 44.5 22.8857 44.5C10.7355 44.5 0.885742 34.6503 0.885742 22.5C0.885742 10.3497 10.7355 0.5 22.8857 0.5Z" stroke="url(#paint0_linear_8961_98148)" stroke-opacity="0.3"/>
<path d="M23.5927 16.1364C25.1548 14.5743 27.6874 14.5743 29.2495 16.1364C30.8116 17.6985 30.8116 20.2312 29.2495 21.7933L27.5522 23.4906C27.4164 23.6264 27.1731 23.5095 27.1773 23.3174C27.1907 22.7034 27.0917 22.0873 26.8802 21.5028C26.8531 21.4281 26.8704 21.344 26.9266 21.2878L27.8353 20.3791C28.6164 19.598 28.6164 18.3317 27.8353 17.5506C27.0543 16.7696 25.7879 16.7696 25.0069 17.5506L22.1785 20.3791C21.3974 21.1601 21.3974 22.4264 22.1785 23.2075C22.569 23.598 22.569 24.2312 22.1785 24.6217C21.7879 25.0122 21.1548 25.0122 20.7642 24.6217C19.2022 23.0596 19.2022 20.5269 20.7642 18.9648L23.5927 16.1364Z" fill="url(#paint1_linear_8961_98148)"/>
<path d="M22.1785 28.8643C20.6164 30.4264 18.0837 30.4264 16.5216 28.8643C14.9595 27.3022 14.9595 24.7696 16.5216 23.2075L18.2189 21.5102C18.3548 21.3743 18.5981 21.4913 18.5939 21.6833C18.5805 22.2974 18.6795 22.9134 18.891 23.4979C18.918 23.5727 18.9008 23.6567 18.8446 23.7129L17.9358 24.6217C17.1548 25.4027 17.1548 26.6691 17.9358 27.4501C18.7169 28.2312 19.9832 28.2312 20.7642 27.4501L23.5927 24.6217C24.3737 23.8406 24.3737 22.5743 23.5927 21.7933C23.2022 21.4027 23.2022 20.7696 23.5927 20.3791C23.9832 19.9885 24.6164 19.9885 25.0069 20.3791C26.569 21.9412 26.569 24.4738 25.0069 26.0359L22.1785 28.8643Z" fill="url(#paint2_linear_8961_98148)"/>
<defs>
<linearGradient id="paint0_linear_8961_98148" x1="0.385742" y1="22.5" x2="45.3857" y2="22.5" gradientUnits="userSpaceOnUse">
<stop stop-color="#FFD24A"/>
<stop offset="0.93" stop-color="#31DFBA"/>
</linearGradient>
<linearGradient id="paint1_linear_8961_98148" x1="15.35" y1="22.5004" x2="30.4211" y2="22.5004" gradientUnits="userSpaceOnUse">
<stop stop-color="#FFD24A"/>
<stop offset="0.93" stop-color="#31DFBA"/>
</linearGradient>
<linearGradient id="paint2_linear_8961_98148" x1="15.35" y1="22.5004" x2="30.4211" y2="22.5004" gradientUnits="userSpaceOnUse">
<stop stop-color="#FFD24A"/>
<stop offset="0.93" stop-color="#31DFBA"/>
</linearGradient>
</defs>
</svg>
