<svg width="47" height="47" viewBox="0 0 47 47" fill="none" xmlns="http://www.w3.org/2000/svg">
<circle opacity="0.3" cx="23.7412" cy="23.1211" r="22.5" stroke="url(#paint0_linear_8961_97052)"/>
<path d="M23.7428 18.1482L24.3863 18.24L23.7428 18.1482ZM27.5465 13.0632C27.8549 12.8794 27.9559 12.4804 27.7721 12.1721C27.5883 11.8637 27.1893 11.7627 26.8809 11.9465L27.5465 13.0632ZM23.7434 23.7915C24.3622 23.5925 24.3623 23.5928 24.3624 23.593C24.3624 23.5931 24.3625 23.5934 24.3626 23.5935C24.3627 23.5939 24.3628 23.5942 24.3629 23.5945C24.363 23.595 24.3632 23.5955 24.3633 23.5958C24.3635 23.5965 24.3636 23.5967 24.3635 23.5966C24.3634 23.5962 24.3628 23.5942 24.3617 23.5904C24.3596 23.583 24.3555 23.5686 24.35 23.5473C24.3391 23.5046 24.3223 23.4341 24.3029 23.3347C24.2642 23.1361 24.2152 22.8221 24.1821 22.3858C24.1161 21.5134 24.1137 20.1499 24.3863 18.24L23.7428 18.1482L23.0994 18.0563C22.8143 20.0533 22.8122 21.5115 22.8858 22.484C22.9227 22.9701 22.9784 23.3344 23.0269 23.5835C23.0512 23.708 23.0737 23.8036 23.091 23.8712C23.0997 23.9049 23.1071 23.9317 23.1129 23.9516C23.1158 23.9615 23.1182 23.9697 23.1202 23.9761C23.1212 23.9794 23.122 23.9822 23.1228 23.9846C23.1232 23.9858 23.1235 23.9868 23.1238 23.9878C23.124 23.9883 23.1241 23.9888 23.1243 23.9892C23.1243 23.9894 23.1244 23.9897 23.1245 23.9898C23.1245 23.9901 23.1246 23.9904 23.7434 23.7915ZM23.7428 18.1482L24.3863 18.24C24.6438 16.4363 25.4433 15.1372 26.179 14.2867C26.5474 13.8609 26.8984 13.5493 27.1541 13.3462C27.2817 13.2449 27.385 13.171 27.4539 13.124C27.4883 13.1005 27.5141 13.0837 27.53 13.0736C27.5379 13.0686 27.5434 13.0652 27.5462 13.0635C27.5476 13.0626 27.5483 13.0621 27.5484 13.0621C27.5484 13.0621 27.5483 13.0622 27.548 13.0624C27.5478 13.0624 27.5476 13.0626 27.5474 13.0627C27.5473 13.0628 27.5471 13.0629 27.547 13.0629C27.5468 13.0631 27.5465 13.0632 27.2137 12.5049C26.8809 11.9465 26.8807 11.9467 26.8804 11.9469C26.8803 11.9469 26.88 11.9471 26.8798 11.9472C26.8794 11.9475 26.8789 11.9477 26.8784 11.948C26.8774 11.9487 26.8762 11.9494 26.8749 11.9502C26.8721 11.9519 26.8687 11.954 26.8646 11.9565C26.8563 11.9616 26.8453 11.9684 26.8318 11.977C26.8047 11.9943 26.7674 12.0186 26.7211 12.0502C26.6285 12.1134 26.4998 12.2058 26.3456 12.3282C26.0376 12.5729 25.6255 12.9395 25.1959 13.4362C24.3356 14.4306 23.3996 15.9532 23.0994 18.0563L23.7428 18.1482Z" fill="url(#paint1_linear_8961_97052)"/>
<path d="M22.8735 20.3186L23.517 20.2267L22.8735 20.3186ZM19.0698 15.2336C18.7614 15.0498 18.6605 14.6509 18.8443 14.3425C19.0281 14.0341 19.427 13.9332 19.7354 14.117L19.0698 15.2336ZM22.8705 23.7914C23.2683 23.2774 23.2674 23.2766 23.2664 23.2759C23.2661 23.2756 23.2651 23.2749 23.2644 23.2744C23.2631 23.2734 23.2618 23.2724 23.2604 23.2713C23.2578 23.2693 23.255 23.2673 23.2522 23.2653C23.2467 23.2613 23.2409 23.2572 23.2348 23.2531C23.2227 23.245 23.2093 23.2366 23.1944 23.2283C23.1655 23.212 23.1267 23.1936 23.0789 23.1794C22.9775 23.1492 22.8287 23.1376 22.6758 23.2085C22.5312 23.2756 22.4652 23.3788 22.4449 23.4169C22.4256 23.4532 22.4313 23.4592 22.442 23.4015C22.4907 23.1394 22.5097 22.3698 22.23 20.4104L22.8735 20.3186L23.517 20.2267C23.795 22.1743 23.8126 23.1411 23.7202 23.6386C23.6957 23.7708 23.6575 23.9058 23.5921 24.0285C23.5256 24.1531 23.4114 24.3003 23.2229 24.3878C23.0262 24.4791 22.8379 24.464 22.7081 24.4254C22.6459 24.4069 22.5957 24.383 22.5588 24.3623C22.54 24.3518 22.5235 24.3414 22.5093 24.3319C22.5022 24.3271 22.4956 24.3225 22.4895 24.318C22.4865 24.3158 22.4835 24.3137 22.4807 24.3115C22.4793 24.3105 22.4779 24.3094 22.4766 24.3084C22.4759 24.3079 22.4749 24.3071 22.4745 24.3069C22.4736 24.3061 22.4726 24.3054 22.8705 23.7914ZM22.8735 20.3186L22.23 20.4104C21.9725 18.6067 21.1731 17.3076 20.4373 16.4571C20.069 16.0313 19.7179 15.7197 19.4623 15.5166C19.3346 15.4153 19.2314 15.3414 19.1625 15.2944C19.128 15.2709 19.1022 15.2542 19.0864 15.244C19.0784 15.239 19.073 15.2356 19.0702 15.2339C19.0688 15.233 19.068 15.2326 19.0679 15.2325C19.0679 15.2325 19.068 15.2326 19.0684 15.2328C19.0685 15.2329 19.0687 15.233 19.069 15.2331C19.0691 15.2332 19.0693 15.2333 19.0694 15.2334C19.0696 15.2335 19.0698 15.2336 19.4026 14.6753C19.7354 14.117 19.7357 14.1171 19.7359 14.1173C19.736 14.1173 19.7363 14.1175 19.7365 14.1176C19.7369 14.1179 19.7374 14.1182 19.7379 14.1185C19.7389 14.1191 19.7401 14.1198 19.7415 14.1206C19.7442 14.1223 19.7477 14.1244 19.7518 14.1269C19.76 14.132 19.771 14.1388 19.7846 14.1474C19.8116 14.1647 19.849 14.189 19.8953 14.2207C19.9879 14.2839 20.1166 14.3762 20.2708 14.4987C20.5788 14.7433 20.9908 15.1099 21.4205 15.6066C22.2808 16.601 23.2168 18.1236 23.517 20.2267L22.8735 20.3186Z" fill="url(#paint2_linear_8961_97052)"/>
<path d="M30.687 23.7915C31.6458 23.7917 32.4233 24.569 32.4233 25.5278C32.4232 26.4865 31.6457 27.264 30.687 27.2642H16.7954C15.8366 27.2641 15.0593 26.4866 15.0591 25.5278C15.0591 24.5689 15.8365 23.7915 16.7954 23.7915H30.687Z" fill="url(#paint3_linear_8961_97052)" fill-opacity="0.2"/>
<path d="M30.687 23.7915L30.6871 23.1415H30.687V23.7915ZM32.4233 25.5278L33.0733 25.528V25.5278H32.4233ZM30.687 27.2642V27.9142H30.6871L30.687 27.2642ZM16.7954 27.2642L16.7954 27.9142H16.7954V27.2642ZM15.0591 25.5278H14.4091V25.528L15.0591 25.5278ZM16.7954 23.7915V23.1415H16.7954L16.7954 23.7915ZM30.687 23.7915L30.6869 24.4415C31.2869 24.4416 31.7733 24.9281 31.7733 25.5278H32.4233H33.0733C33.0733 24.2099 32.0047 23.1418 30.6871 23.1415L30.687 23.7915ZM32.4233 25.5278L31.7733 25.5277C31.7732 26.1275 31.2867 26.614 30.6869 26.6142L30.687 27.2642L30.6871 27.9142C32.0047 27.9139 33.0731 26.8456 33.0733 25.528L32.4233 25.5278ZM30.687 27.2642V26.6142H16.7954V27.2642V27.9142H30.687V27.2642ZM16.7954 27.2642L16.7954 26.6142C16.1957 26.6141 15.7092 26.1277 15.7091 25.5277L15.0591 25.5278L14.4091 25.528C14.4093 26.8456 15.4775 27.9141 16.7954 27.9142L16.7954 27.2642ZM15.0591 25.5278H15.7091C15.7091 24.9279 16.1954 24.4415 16.7954 24.4415L16.7954 23.7915L16.7954 23.1415C15.4775 23.1416 14.4091 24.2099 14.4091 25.5278H15.0591ZM16.7954 23.7915V24.4415H30.687V23.7915V23.1415H16.7954V23.7915Z" fill="url(#paint4_linear_8961_97052)"/>
<circle cx="28.9503" cy="11.6368" r="1.95459" fill="url(#paint5_linear_8961_97052)" fill-opacity="0.2" stroke="url(#paint6_linear_8961_97052)" stroke-width="1.3"/>
<circle cx="17.6637" cy="14.2413" r="1.95459" fill="url(#paint7_linear_8961_97052)" fill-opacity="0.2" stroke="url(#paint8_linear_8961_97052)" stroke-width="1.3"/>
<path d="M17.6636 27.2642H29.8183V32.2097C29.8183 33.3143 28.9229 34.2097 27.8183 34.2097H19.6636C18.559 34.2097 17.6636 33.3143 17.6636 32.2097V27.2642Z" fill="url(#paint9_linear_8961_97052)" fill-opacity="0.2" stroke="url(#paint10_linear_8961_97052)" stroke-width="1.3" stroke-linejoin="round"/>
<defs>
<linearGradient id="paint0_linear_8961_97052" x1="0.741211" y1="23.1211" x2="46.7412" y2="23.1211" gradientUnits="userSpaceOnUse">
<stop stop-color="#FFD24A"/>
<stop offset="0.93" stop-color="#31DFBA"/>
</linearGradient>
<linearGradient id="paint1_linear_8961_97052" x1="23.4951" y1="18.1482" x2="27.2137" y2="18.1482" gradientUnits="userSpaceOnUse">
<stop stop-color="#FFD24A"/>
<stop offset="0.93" stop-color="#31DFBA"/>
</linearGradient>
<linearGradient id="paint2_linear_8961_97052" x1="23.1206" y1="19.2405" x2="19.4026" y2="19.2405" gradientUnits="userSpaceOnUse">
<stop stop-color="#FFD24A"/>
<stop offset="0.93" stop-color="#31DFBA"/>
</linearGradient>
<linearGradient id="paint3_linear_8961_97052" x1="15.0591" y1="25.5278" x2="32.4233" y2="25.5278" gradientUnits="userSpaceOnUse">
<stop stop-color="#FFD24A"/>
<stop offset="0.93" stop-color="#31DFBA"/>
</linearGradient>
<linearGradient id="paint4_linear_8961_97052" x1="15.0591" y1="25.5278" x2="32.4233" y2="25.5278" gradientUnits="userSpaceOnUse">
<stop stop-color="#FFD24A"/>
<stop offset="0.93" stop-color="#31DFBA"/>
</linearGradient>
<linearGradient id="paint5_linear_8961_97052" x1="26.3457" y1="11.6368" x2="31.5549" y2="11.6368" gradientUnits="userSpaceOnUse">
<stop stop-color="#FFD24A"/>
<stop offset="0.93" stop-color="#31DFBA"/>
</linearGradient>
<linearGradient id="paint6_linear_8961_97052" x1="26.3457" y1="11.6368" x2="31.5549" y2="11.6368" gradientUnits="userSpaceOnUse">
<stop stop-color="#FFD24A"/>
<stop offset="0.93" stop-color="#31DFBA"/>
</linearGradient>
<linearGradient id="paint7_linear_8961_97052" x1="15.0591" y1="14.2413" x2="20.2683" y2="14.2413" gradientUnits="userSpaceOnUse">
<stop stop-color="#FFD24A"/>
<stop offset="0.93" stop-color="#31DFBA"/>
</linearGradient>
<linearGradient id="paint8_linear_8961_97052" x1="15.0591" y1="14.2413" x2="20.2683" y2="14.2413" gradientUnits="userSpaceOnUse">
<stop stop-color="#FFD24A"/>
<stop offset="0.93" stop-color="#31DFBA"/>
</linearGradient>
<linearGradient id="paint9_linear_8961_97052" x1="17.6636" y1="30.737" x2="29.8183" y2="30.737" gradientUnits="userSpaceOnUse">
<stop stop-color="#FFD24A"/>
<stop offset="0.93" stop-color="#31DFBA"/>
</linearGradient>
<linearGradient id="paint10_linear_8961_97052" x1="17.6636" y1="30.737" x2="29.8183" y2="30.737" gradientUnits="userSpaceOnUse">
<stop stop-color="#FFD24A"/>
<stop offset="0.93" stop-color="#31DFBA"/>
</linearGradient>
</defs>
</svg>
