<svg width="24" height="24" viewBox="0 0 24 24" fill="none" xmlns="http://www.w3.org/2000/svg">
<path fill-rule="evenodd" clip-rule="evenodd" d="M6.33487 2.9176C6.35331 2.83281 6.51066 2.83281 6.52911 2.9176C6.67797 3.60184 7.01197 4.79194 7.62587 5.40583C8.23977 6.01973 9.42986 6.35374 10.1141 6.50259C10.1989 6.52104 10.1989 6.67839 10.1141 6.69684C9.42986 6.84569 8.23977 7.1797 7.62587 7.79359C7.01197 8.40749 6.67797 9.59759 6.52911 10.2818C6.51066 10.3666 6.35331 10.3666 6.33487 10.2818C6.18601 9.59759 5.85201 8.40749 5.23811 7.79359C4.62421 7.1797 3.43411 6.84569 2.74987 6.69684C2.66508 6.67839 2.66508 6.52104 2.74987 6.50259C3.43411 6.35374 4.62421 6.01973 5.23811 5.40583C5.85201 4.79194 6.18601 3.60184 6.33487 2.9176ZM8.13261 14.917C8.1518 14.8323 8.31247 14.8323 8.33166 14.917C8.46654 15.5119 8.75056 16.4716 9.25546 16.9765C9.76037 17.4814 10.72 17.7654 11.315 17.9003C11.3996 17.9195 11.3996 18.0801 11.315 18.0993C10.72 18.2342 9.76036 18.5182 9.25546 19.0231C8.75056 19.528 8.46654 20.4877 8.33166 21.0826C8.31247 21.1673 8.1518 21.1673 8.13261 21.0826C7.99773 20.4877 7.71371 19.528 7.20881 19.0231C6.70391 18.5182 5.74428 18.2342 5.14931 18.0993C5.06468 18.0801 5.06468 17.9195 5.14931 17.9003C5.74428 17.7654 6.70391 17.4814 7.20881 16.9765C7.71372 16.4716 7.99773 15.5119 8.13261 14.917ZM15.5244 6.5177C15.5073 6.43262 15.3568 6.43262 15.3398 6.5177C15.1552 7.43703 14.6744 9.34644 13.7265 10.2943C12.7787 11.2422 10.8693 11.7229 9.94992 11.9075C9.86484 11.9246 9.86484 12.0751 9.94992 12.0921C10.8693 12.2767 12.7787 12.7575 13.7265 13.7054C14.6744 14.6532 15.1552 16.5626 15.3398 17.482C15.3568 17.5671 15.5073 17.5671 15.5244 17.482C15.709 16.5626 16.1897 14.6532 17.1376 13.7054C18.0855 12.7575 19.9949 12.2767 20.9142 12.0921C20.9993 12.0751 20.9993 11.9246 20.9142 11.9075C19.9949 11.7229 18.0855 11.2422 17.1376 10.2943C16.1897 9.34644 15.709 7.43704 15.5244 6.5177Z" fill="currentColor"/>
</svg>
