<svg width="24" height="24" viewBox="0 0 24 24" fill="none" xmlns="http://www.w3.org/2000/svg">
  <g id="stars">
    <path id="Union" fill-rule="evenodd" clip-rule="evenodd"
      d="M6.33414 2.91516C6.35258 2.83036 6.50993 2.83036 6.52838 2.91516C6.67723 3.5994 7.01124 4.7895 7.62514 5.40339C8.23903 6.01729 9.42913 6.35129 10.1134 6.50015C10.1982 6.5186 10.1982 6.67595 10.1134 6.69439C9.42913 6.84325 8.23903 7.17725 7.62514 7.79115C7.01124 8.40505 6.67723 9.59515 6.52838 10.2794C6.50993 10.3642 6.35258 10.3642 6.33414 10.2794C6.18528 9.59515 5.85127 8.40505 5.23738 7.79115C4.62348 7.17725 3.43338 6.84325 2.74914 6.69439C2.66435 6.67595 2.66435 6.5186 2.74914 6.50015C3.43338 6.35129 4.62348 6.01729 5.23738 5.40339C5.85127 4.7895 6.18528 3.5994 6.33414 2.91516ZM8.13188 14.9144C8.15107 14.8298 8.31174 14.8298 8.33093 14.9144C8.46581 15.5094 8.74983 16.469 9.25473 16.9739C9.75963 17.4789 10.7193 17.7629 11.3142 17.8978C11.3989 17.9169 11.3989 18.0776 11.3142 18.0968C10.7193 18.2317 9.75963 18.5157 9.25473 19.0206C8.74982 19.5255 8.46581 20.4851 8.33093 21.0801C8.31174 21.1647 8.15107 21.1647 8.13188 21.0801C7.997 20.4851 7.71298 19.5255 7.20808 19.0206C6.70317 18.5157 5.74355 18.2317 5.14857 18.0968C5.06394 18.0776 5.06395 17.9169 5.14857 17.8978C5.74355 17.7629 6.70318 17.4789 7.20808 16.9739C7.71298 16.469 7.997 15.5094 8.13188 14.9144ZM15.524 6.51571C15.5069 6.43063 15.3565 6.43063 15.3394 6.51571C15.1548 7.43505 14.674 9.34446 13.7262 10.2923C12.7783 11.2402 10.8689 11.721 9.94955 11.9056C9.86447 11.9226 9.86447 12.0731 9.94955 12.0902C10.8689 12.2748 12.7783 12.7555 13.7262 13.7034C14.674 14.6513 15.1548 16.5607 15.3394 17.48C15.3565 17.5651 15.5069 17.5651 15.524 17.48C15.7086 16.5607 16.1894 14.6513 17.1372 13.7034C18.0851 12.7555 19.9945 12.2748 20.9138 12.0902C20.9989 12.0731 20.9989 11.9226 20.9138 11.9056C19.9945 11.721 18.0851 11.2402 17.1372 10.2923C16.1894 9.34446 15.7086 7.43505 15.524 6.51571Z"
      fill="url(#paint0_linear_11713_104644)" />
  </g>
  <defs>
    <linearGradient id="paint0_linear_11713_104644" x1="2.68555" y1="11.9976" x2="20.9777"
      y2="11.9976" gradientUnits="userSpaceOnUse">
      <stop stop-color="#FF49A4" />
      <stop offset="0.93" stop-color="#B049FF" />
    </linearGradient>
  </defs>
</svg>