<svg width="100" height="100" viewBox="0 0 100 100" fill="none" xmlns="http://www.w3.org/2000/svg">
    <circle cx="50" cy="50" r="50" fill="#2B2B2B"/>
    <circle opacity="0.2" cx="50" cy="50" r="35" fill="url(#paint0_linear_8088_29848)" stroke="url(#paint1_linear_8088_29848)" stroke-width="4"/>
    <path d="M30.1522 46.6074C30.4975 41.7266 31.3454 37.2132 31.8147 34.9804C35.1688 34.6992 43.4389 33.4476 50 27.7434C56.5609 33.4474 64.8312 34.6991 68.1853 34.9803C68.6546 37.2131 69.5025 41.7266 69.8478 46.6074C70.0421 49.3535 70.0737 52.1693 69.8043 54.7346C69.5325 57.3232 68.9677 59.5168 68.0665 61.1139C66.2633 64.3098 62.3592 67.1108 58.3286 69.2624C54.7407 71.1776 51.3489 72.4256 50 72.8913C48.6511 72.4256 45.2593 71.1776 41.6714 69.2624C37.6408 67.1108 33.7367 64.3098 31.9335 61.1139C31.0323 59.5168 30.4675 57.3232 30.1957 54.7346C29.9263 52.1693 29.9579 49.3535 30.1522 46.6074Z" stroke="url(#paint2_linear_8088_29848)" stroke-width="4" stroke-linejoin="round"/>
    <path d="M44.5 52L48.5 57L57.5 45" stroke="url(#paint3_linear_8088_29848)" stroke-width="4" stroke-linecap="round" stroke-linejoin="round"/>
    <defs>
        <linearGradient id="paint0_linear_8088_29848" x1="13" y1="50" x2="87" y2="50" gradientUnits="userSpaceOnUse">
            <stop stop-color="#FF49A4"/>
            <stop offset="0.93" stop-color="#B049FF"/>
        </linearGradient>
        <linearGradient id="paint1_linear_8088_29848" x1="13" y1="50" x2="87" y2="50" gradientUnits="userSpaceOnUse">
            <stop stop-color="#FF49A4"/>
            <stop offset="0.93" stop-color="#B049FF"/>
        </linearGradient>
        <linearGradient id="paint2_linear_8088_29848" x1="28" y1="50" x2="72" y2="50" gradientUnits="userSpaceOnUse">
            <stop stop-color="#FF49A4"/>
            <stop offset="0.93" stop-color="#B049FF"/>
        </linearGradient>
        <linearGradient id="paint3_linear_8088_29848" x1="44.5" y1="51" x2="57.5" y2="51" gradientUnits="userSpaceOnUse">
            <stop stop-color="#FF49A4"/>
            <stop offset="0.93" stop-color="#B049FF"/>
        </linearGradient>
    </defs>
</svg>
