<svg width="100" height="100" viewBox="0 0 100 100" fill="none" xmlns="http://www.w3.org/2000/svg">
    <circle cx="50" cy="50" r="50" fill="#2B2B2B"/>
    <circle opacity="0.2" cx="50" cy="50" r="35" fill="url(#paint0_linear_8088_29845)" stroke="url(#paint1_linear_8088_29845)" stroke-width="4"/>
    <path d="M49.6201 76C64.1893 76 76 64.1893 76 49.6201C76 35.0509 64.1893 23.2402 49.6201 23.2402C35.0509 23.2402 23.2402 35.0509 23.2402 49.6201C23.2402 64.1893 35.0509 76 49.6201 76Z" fill="url(#paint2_linear_8088_29845)"/>
    <path d="M66.2769 48.007L58.8258 40.556L58.8123 40.5424L58.7828 40.5166C58.7346 40.4731 58.6841 40.432 58.6316 40.3937C58.5947 40.3642 58.5579 40.3359 58.5185 40.3101C58.5013 40.2978 58.4841 40.288 58.4657 40.2769C58.0409 39.9987 57.527 39.8904 57.0261 39.9735C56.5251 40.0567 56.0738 40.3251 55.7616 40.7256L44.1732 52.3152V41.9904C44.1732 41.4476 43.9576 40.9271 43.5738 40.5433C43.19 40.1595 42.6695 39.9438 42.1267 39.9438C41.5839 39.9438 41.0634 40.1595 40.6796 40.5433C40.2958 40.9271 40.0802 41.4476 40.0802 41.9904V52.3152L35.8494 48.0845C35.4627 47.7157 34.9471 47.5128 34.4128 47.5192C33.8785 47.5255 33.3679 47.7406 32.99 48.1185C32.6122 48.4963 32.3971 49.0069 32.3908 49.5412C32.3844 50.0756 32.5873 50.5912 32.956 50.9779L40.68 58.7018C40.7285 58.751 40.7798 58.7974 40.8336 58.8407C40.8853 58.8825 40.9393 58.9231 40.9934 58.9636C41.2725 59.1445 41.5914 59.2546 41.9226 59.2844H41.9312C41.9976 59.2906 42.064 59.2943 42.1304 59.2943H42.1611C42.2168 59.2943 42.2721 59.2918 42.327 59.2869H42.3676C42.4204 59.2807 42.4733 59.2746 42.5249 59.2635H42.5483C42.606 59.2512 42.6638 59.2377 42.7204 59.2205H42.7302C42.7919 59.2019 42.8526 59.1802 42.9121 59.1554C42.9969 59.1203 43.079 59.0792 43.1579 59.0324L43.2046 59.0054C43.2819 58.9582 43.3559 58.9056 43.4259 58.8481L43.4468 58.8296C43.4898 58.7928 43.5328 58.7559 43.5697 58.7141L55.3203 46.9561V57.249C55.3203 57.7917 55.5359 58.3123 55.9197 58.6961C56.3035 59.0799 56.8241 59.2955 57.3668 59.2955C57.9096 59.2955 58.4301 59.0799 58.8139 58.6961C59.1977 58.3123 59.4134 57.7917 59.4134 57.249V46.9242L63.3835 50.9017C63.7689 51.2779 64.287 51.487 64.8256 51.4837C65.3642 51.4804 65.8797 51.2649 66.2605 50.884C66.6412 50.5031 66.8564 49.9875 66.8595 49.4489C66.8626 48.9103 66.6533 48.3923 66.2769 48.007Z" fill="white"/>
    <defs>
        <linearGradient id="paint0_linear_8088_29845" x1="13" y1="50" x2="87" y2="50" gradientUnits="userSpaceOnUse">
            <stop stop-color="#FF49A4"/>
            <stop offset="0.93" stop-color="#B049FF"/>
        </linearGradient>
        <linearGradient id="paint1_linear_8088_29845" x1="13" y1="50" x2="87" y2="50" gradientUnits="userSpaceOnUse">
            <stop stop-color="#FF49A4"/>
            <stop offset="0.93" stop-color="#B049FF"/>
        </linearGradient>
        <linearGradient id="paint2_linear_8088_29845" x1="23.2402" y1="49.6201" x2="76" y2="49.6201" gradientUnits="userSpaceOnUse">
            <stop stop-color="#FF49A4"/>
            <stop offset="0.93" stop-color="#B049FF"/>
        </linearGradient>
    </defs>
</svg>
