<svg width="100" height="100" viewBox="0 0 100 100" fill="none" xmlns="http://www.w3.org/2000/svg">
    <circle cx="50" cy="50" r="50" fill="#2B2B2B"/>
    <circle opacity="0.2" cx="50" cy="50" r="37" fill="#8D3A2B"/>
    <path fill-rule="evenodd" clip-rule="evenodd" d="M61.1673 37.8328C59.9957 36.6612 58.0962 36.6612 56.9246 37.8328L49.5 45.2574L42.0754 37.8328C40.9038 36.6612 39.0043 36.6612 37.8327 37.8328C36.6612 39.0044 36.6612 40.9039 37.8327 42.0754L45.2574 49.5L37.8327 56.9247C36.6612 58.0962 36.6612 59.9957 37.8327 61.1673C39.0043 62.3389 40.9038 62.3389 42.0754 61.1673L49.5 53.7427L56.9246 61.1673C58.0962 62.3389 59.9957 62.3389 61.1673 61.1673C62.3388 59.9957 62.3388 58.0962 61.1673 56.9247L53.7426 49.5001L61.1673 42.0754C62.3388 40.9039 62.3388 39.0044 61.1673 37.8328Z" fill="url(#paint0_linear_8181_32225)"/>
    <defs>
        <linearGradient id="paint0_linear_8181_32225" x1="37.8327" y1="37.8328" x2="61.1673" y2="61.1673" gradientUnits="userSpaceOnUse">
            <stop stop-color="#FF49A4"/>
            <stop offset="0.93" stop-color="#B049FF"/>
        </linearGradient>
    </defs>
</svg>
