<svg width="100" height="100" viewBox="0 0 100 100" fill="none" xmlns="http://www.w3.org/2000/svg">
    <circle cx="50" cy="50" r="50" fill="#2B2B2B"/>
    <circle opacity="0.2" cx="50" cy="50" r="35" fill="url(#paint0_linear_8088_29847)" stroke="url(#paint1_linear_8088_29847)" stroke-width="4"/>
    <rect x="59" y="46" width="13" height="4" rx="2" fill="url(#paint2_linear_8088_29847)"/>
    <rect x="59" y="55" width="17" height="4" rx="2" fill="url(#paint3_linear_8088_29847)"/>
    <path d="M27.4719 40.7576C27.6 38.6465 29.3495 37 31.4645 37H55.7498C58.0542 37 59.8821 38.9422 59.7424 41.2424L58.5281 61.2424C58.4 63.3535 56.6505 65 54.5355 65H30.2502C27.9458 65 26.1179 63.0578 26.2576 60.7576L27.4719 40.7576Z" stroke="url(#paint4_linear_8088_29847)" stroke-width="4"/>
    <path d="M59 43L44.473 52.8271C43.0061 53.8194 41.0613 53.729 39.6928 52.6048L28 43" stroke="url(#paint5_linear_8088_29847)" stroke-width="4" stroke-linecap="round"/>
    <defs>
        <linearGradient id="paint0_linear_8088_29847" x1="13" y1="50" x2="87" y2="50" gradientUnits="userSpaceOnUse">
            <stop stop-color="#FF49A4"/>
            <stop offset="0.93" stop-color="#B049FF"/>
        </linearGradient>
        <linearGradient id="paint1_linear_8088_29847" x1="13" y1="50" x2="87" y2="50" gradientUnits="userSpaceOnUse">
            <stop stop-color="#FF49A4"/>
            <stop offset="0.93" stop-color="#B049FF"/>
        </linearGradient>
        <linearGradient id="paint2_linear_8088_29847" x1="59" y1="48" x2="72" y2="48" gradientUnits="userSpaceOnUse">
            <stop stop-color="#FF49A4"/>
            <stop offset="0.93" stop-color="#B049FF"/>
        </linearGradient>
        <linearGradient id="paint3_linear_8088_29847" x1="59" y1="57" x2="76" y2="57" gradientUnits="userSpaceOnUse">
            <stop stop-color="#FF49A4"/>
            <stop offset="0.93" stop-color="#B049FF"/>
        </linearGradient>
        <linearGradient id="paint4_linear_8088_29847" x1="26" y1="51" x2="60" y2="51" gradientUnits="userSpaceOnUse">
            <stop stop-color="#FF49A4"/>
            <stop offset="0.93" stop-color="#B049FF"/>
        </linearGradient>
        <linearGradient id="paint5_linear_8088_29847" x1="28" y1="48.75" x2="59" y2="48.75" gradientUnits="userSpaceOnUse">
            <stop stop-color="#FF49A4"/>
            <stop offset="0.93" stop-color="#B049FF"/>
        </linearGradient>
    </defs>
</svg>
