<svg width="26" height="26" viewBox="0 0 26 26" fill="none" xmlns="http://www.w3.org/2000/svg"
  xmlns:xlink="http://www.w3.org/1999/xlink">
  <circle cx="13" cy="13" r="13" fill="#FF49A4" />
  <path
    d="M13.168 11.6987C15.4961 12.2267 16.9601 13.4267 16.9601 15.3707C16.9601 17.7947 14.7521 19.1627 11.992 19.1627C9.44802 19.1627 7.408 17.8427 7 15.6107L10.096 15.0587C10.24 16.0907 11.032 16.6187 11.992 16.6187C13 16.6187 13.6 16.1627 13.6 15.5387C13.6 14.8667 12.952 14.5547 12.28 14.4107L10.84 14.1227C8.63201 13.5947 7.192 12.3707 7.192 10.4026C7.192 8.02663 9.44802 6.68262 11.992 6.68262C14.5121 6.68262 16.2641 8.02663 16.6241 10.2826L13.528 10.8106C13.408 9.85064 12.784 9.27464 11.824 9.27464C11.008 9.27464 10.36 9.65864 10.36 10.3306C10.36 10.9786 10.888 11.2666 11.584 11.4107L13.168 11.6987Z"
    fill="url(#paint0_linear_15457_2873)" />
  <path
    d="M13.168 11.6987C15.4961 12.2267 16.9601 13.4267 16.9601 15.3707C16.9601 17.7947 14.7521 19.1627 11.992 19.1627C9.44802 19.1627 7.408 17.8427 7 15.6107L10.096 15.0587C10.24 16.0907 11.032 16.6187 11.992 16.6187C13 16.6187 13.6 16.1627 13.6 15.5387C13.6 14.8667 12.952 14.5547 12.28 14.4107L10.84 14.1227C8.63201 13.5947 7.192 12.3707 7.192 10.4026C7.192 8.02663 9.44802 6.68262 11.992 6.68262C14.5121 6.68262 16.2641 8.02663 16.6241 10.2826L13.528 10.8106C13.408 9.85064 12.784 9.27464 11.824 9.27464C11.008 9.27464 10.36 9.65864 10.36 10.3306C10.36 10.9786 10.888 11.2666 11.584 11.4107L13.168 11.6987Z"
    fill="url(#pattern0_15457_2873)" style="mix-blend-mode:overlay" />
  <path
    d="M13.168 11.6987C15.4961 12.2267 16.9601 13.4267 16.9601 15.3707C16.9601 17.7947 14.7521 19.1627 11.992 19.1627C9.44802 19.1627 7.408 17.8427 7 15.6107L10.096 15.0587C10.24 16.0907 11.032 16.6187 11.992 16.6187C13 16.6187 13.6 16.1627 13.6 15.5387C13.6 14.8667 12.952 14.5547 12.28 14.4107L10.84 14.1227C8.63201 13.5947 7.192 12.3707 7.192 10.4026C7.192 8.02663 9.44802 6.68262 11.992 6.68262C14.5121 6.68262 16.2641 8.02663 16.6241 10.2826L13.528 10.8106C13.408 9.85064 12.784 9.27464 11.824 9.27464C11.008 9.27464 10.36 9.65864 10.36 10.3306C10.36 10.9786 10.888 11.2666 11.584 11.4107L13.168 11.6987Z"
    fill="white" />
  <path
    d="M19 17.1826C17.8954 17.1826 17 18.0781 17 19.1826H21C21 18.0781 20.1046 17.1826 19 17.1826Z"
    fill="url(#paint1_linear_15457_2873)" />
  <path
    d="M19 17.1826C17.8954 17.1826 17 18.0781 17 19.1826H21C21 18.0781 20.1046 17.1826 19 17.1826Z"
    fill="url(#pattern1_15457_2873)" style="mix-blend-mode:overlay" />
  <path
    d="M19 17.1826C17.8954 17.1826 17 18.0781 17 19.1826H21C21 18.0781 20.1046 17.1826 19 17.1826Z"
    fill="white" />
  <defs>
    <linearGradient id="paint0_linear_15457_2873" x1="7" y1="12.9227" x2="16.9601" y2="12.9227"
      gradientUnits="userSpaceOnUse">
      <stop stop-color="#FF49A4" />
      <stop offset="0.93" stop-color="#B049FF" />
    </linearGradient>
    <linearGradient id="paint1_linear_15457_2873" x1="17" y1="18.1826" x2="21" y2="18.1826"
      gradientUnits="userSpaceOnUse">
      <stop stop-color="#FF49A4" />
      <stop offset="0.93" stop-color="#B049FF" />
    </linearGradient>
  </defs>
</svg>