<svg width="32" height="32" viewBox="0 0 32 32" fill="none" xmlns="http://www.w3.org/2000/svg">
<path d="M26.7998 3.2002C27.9044 3.2002 28.7998 4.09563 28.7998 5.2002V26.7998C28.7998 27.9044 27.9044 28.7998 26.7998 28.7998H5.2002C4.09563 28.7998 3.2002 27.9044 3.2002 26.7998V5.2002C3.2002 4.09563 4.09563 3.2002 5.2002 3.2002H26.7998ZM8 13.7139V24H11.4287V13.7139H8ZM20.1211 13.7139C18.3323 13.7139 17.5312 14.6898 17.084 15.374V13.9502H13.7139C13.7583 14.8932 13.7139 24 13.7139 24H17.084V18.3877C17.084 18.0873 17.1053 17.7873 17.1943 17.5723C17.4378 16.9722 17.993 16.3516 18.9238 16.3516C20.1432 16.3517 20.6308 17.2728 20.6309 18.623V24H24V18.2373C23.9999 15.1509 22.3379 13.714 20.1211 13.7139ZM9.72461 8C8.68203 8 8 8.7411 8 9.71387C8.00008 10.6664 8.6615 11.4287 9.68457 11.4287H9.7041C10.7667 11.4287 11.4286 10.6664 11.4287 9.71387C11.4089 8.74123 10.7669 8.00021 9.72461 8Z" fill="#777576"/>
</svg>
