<svg width="33" height="32" viewBox="0 0 33 32" fill="none" xmlns="http://www.w3.org/2000/svg">
<g clip-path="url(#clip0_15679_1179)">
<path d="M29.667 16C29.667 8.54416 23.6228 2.5 16.167 2.5C8.71115 2.5 2.66699 8.54416 2.66699 16C2.66699 23.4558 8.71115 29.5 16.167 29.5C23.6228 29.5 29.667 23.4558 29.667 16Z" fill="#0A5ED9"/>
<path d="M11.0877 9.7826C10.5986 9.95586 10.2465 10.3222 10.0901 10.8173C10.0167 11.0351 10.0118 11.5747 10.0216 16.0352L10.0363 21.0106L10.1585 21.2581C10.3101 21.5751 10.6035 21.8721 10.9165 22.0254L11.161 22.1493H16.2469H21.3328L21.5774 22.0254C21.8903 21.8721 22.1838 21.5751 22.3353 21.2581L22.4576 21.0106V15.9362V10.8618L22.3353 10.6143C22.1838 10.2975 21.8903 10.0004 21.5774 9.84695L21.3328 9.72318L16.3203 9.71329C11.8554 9.70338 11.2833 9.70834 11.0877 9.7826ZM17.5918 12.1242V12.8668H14.7065H11.8212V12.1242V11.3816H14.7065H17.5918V12.1242ZM20.6726 12.1242V12.8668H19.4011H18.1297V12.1242V11.3816H19.4011H20.6726V12.1242ZM17.5918 14.649V15.3917H16.2469H14.9021V14.649V13.9065H16.2469H17.5918V14.649ZM17.5918 17.1739V17.9165H16.2469H14.9021V17.1739V16.4313H16.2469H17.5918V17.1739ZM17.5918 19.6986V20.4413H16.2469H14.9021V19.6986V18.9561H16.2469H17.5918V19.6986Z" fill="white"/>
</g>
<defs>
<clipPath id="clip0_15679_1179">
<rect width="27" height="27" fill="white" transform="translate(2.66699 2.5)"/>
</clipPath>
</defs>
</svg>
