<svg width="30" height="18" viewBox="0 0 30 18" fill="none" xmlns="http://www.w3.org/2000/svg">
    <path fill-rule="evenodd" clip-rule="evenodd" d="M13.7937 1.13541C13.7937 1.13541 14.806 1.44808 15.2052 1.56219L16.644 1.99125L16.6692 0L14.1392 0.506658L13.7937 1.13541ZM22.3792 0.785025L23.873 1.76068L23.1868 3.96077L21.5431 3.46323L22.3792 0.785025ZM19.2212 16.7116L21.1759 16.1319L21.9102 13.7983L20.1053 13.9227L19.2212 16.7116ZM8.43396 16.2369L10.8622 17.5697C10.8439 17.5708 10.8485 17.5708 10.8576 17.5708L7.84721 17.9999L8.43396 16.2369ZM10.8624 17.5698L10.8579 17.5709C10.8692 17.5709 10.8885 17.5698 10.8624 17.5698ZM5.52562 8.57774L3.74933 8.57317C3.82765 8.32759 3.96044 7.9262 4.09866 7.50843L4.09869 7.50835L4.09872 7.50826L4.09873 7.50823L4.0988 7.50803L4.09887 7.5078C4.2695 6.99206 4.44836 6.45148 4.54312 6.14832L6.15811 6.57964L5.52562 8.57774ZM0.443308 6.71652L1.77237 8.11097L2.53755 5.63703L0.906533 5.20111L0.443308 6.71652ZM27.9627 13.3409C28.3733 13.7711 28.5666 14.0004 28.594 14.7011C28.6169 15.2659 28.3115 15.9598 28.0405 16.4436C27.4388 17.5151 26.4826 17.7387 25.3274 17.7387C24.2191 17.7387 23.0514 17.3975 23.0514 16.0681C23.0514 15.6802 23.1691 15.2682 23.311 14.9031H25.1158H25.1273C24.9855 15.1381 24.8905 15.4907 24.8791 15.7623C24.8791 16.1263 25.0793 16.4436 25.4807 16.4436C26.2001 16.4436 26.9436 15.6471 26.8601 14.9578C26.7846 14.3302 26.4186 13.8624 25.8216 13.4847L27.9627 13.3409ZM6.0004 0.180228L0.433656 0.184793L-0.000976562 1.56212L2.03951 1.55984L1.0307 4.76183L2.66286 5.19772L3.79635 1.5587L5.56575 1.55642L6.0004 0.180228ZM7.20923 5.09726C7.00906 5.09726 6.80777 5.09726 6.6076 5.10983L6.27361 6.16192L4.65977 5.73172C4.83242 5.17897 5.00385 4.62602 5.17524 4.07319L5.17524 4.07318L5.17524 4.07317L5.17525 4.07316L5.17525 4.07315L5.17525 4.07314L5.17526 4.07313L5.17526 4.07312L5.17526 4.07311L5.17528 4.07304L5.17529 4.07303C5.57954 2.76906 5.98358 1.46581 6.40287 0.167629L8.50169 0.165347C9.71637 0.164206 10.9082 0.563597 10.9093 1.98543C10.9105 3.26804 10.1807 4.29163 8.87113 4.46964L8.69499 4.49361C9.29659 4.59972 9.81588 4.87017 9.81588 5.55256C9.81643 6.04038 9.66901 6.5009 9.52149 6.96171C9.36292 7.45703 9.20424 7.95269 9.22912 8.48296L7.40139 8.48524C7.43096 7.95516 7.58305 7.43379 7.7349 6.91322C7.76513 6.8096 7.79534 6.70602 7.82458 6.60241C7.91835 6.29657 8.03618 5.89604 8.03503 5.57882C8.03503 5.12008 7.53977 5.09613 7.20923 5.09726ZM8.3267 1.47079L7.7365 1.47193L7.01937 3.80209L7.987 3.80094C8.74188 3.80094 9.20168 2.72944 9.20053 2.09384C9.19938 1.57577 8.76361 1.47079 8.3267 1.47079ZM11.5535 8.50587L12.4948 6.72799L14.748 6.72571L14.6794 8.51385L16.4488 8.51272L16.5895 2.42484L15.0694 1.96497C14.931 3.10723 14.8532 4.26205 14.8532 5.40772H14.8418L13.1433 5.40888C13.7541 4.25633 14.3397 3.09467 14.867 1.90335L13.6488 1.53476L9.71312 8.507L11.5535 8.50587ZM24.5272 7.13996L24.0799 8.49446L19.9281 8.4979L21.3909 3.87752L23.0345 4.37503L22.1561 7.14339L24.5272 7.13996ZM13.0974 9.02736H10.7745L8.59329 15.8353L11.3692 17.3438C13.0311 17.2811 14.1955 16.0544 14.1955 14.3701C14.1955 13.7231 13.794 13.2176 13.1695 13.0407C14.3968 12.7588 15.186 11.9703 15.186 10.6763C15.1848 9.41536 14.2058 9.02736 13.0974 9.02736ZM12.1424 15.558C11.8118 16.0521 11.4584 16.0875 10.9037 16.0875H10.1843L10.9746 13.6409C11.0565 13.6442 11.1473 13.6441 11.2429 13.6441H11.243H11.243H11.243H11.2431H11.2431C11.8225 13.6438 12.5782 13.6434 12.5782 14.3701C12.5782 14.7455 12.3552 15.2522 12.1424 15.558ZM12.0006 12.4507H11.3395L12.0349 10.2974C12.1186 10.3013 12.2143 10.3003 12.3159 10.2992C12.8444 10.2935 13.5332 10.2861 13.5332 10.957C13.5458 11.8984 12.9442 12.4507 12.0006 12.4507ZM16.9612 8.95897L18.7237 3.07991C19.0139 3.15552 19.5235 3.31246 19.9239 3.43576L19.924 3.43577L19.924 3.43578L19.924 3.43578C20.1581 3.50787 20.3548 3.56845 20.4485 3.59455L18.6254 9.34124H18.6231L17.2734 13.5839L15.4045 13.7277L16.9612 8.95897ZM19.5977 9.03992L19.1607 10.415H21.2024L20.2473 13.4766L22.0293 13.3545L22.9592 10.415H24.7275L25.1644 9.03992H19.5977ZM24.7755 11.992C24.7755 10.2266 25.8609 8.95658 27.6886 8.95658C28.75 8.95658 30.0002 9.30919 29.999 10.5929C29.999 10.852 29.8343 11.4168 29.7279 11.6645H28.0295C28.054 11.58 28.0839 11.4967 28.1137 11.4135C28.1838 11.2179 28.2536 11.0232 28.2536 10.8166C28.2536 10.3579 27.994 10.2403 27.5697 10.2403C26.944 10.2403 26.6409 10.949 26.6409 11.491C26.6409 11.8858 27.302 12.6287 27.676 12.9436L25.4777 13.092C25.0076 12.8809 24.7777 12.2487 24.7755 11.992ZM7.53419 9.07641C6.76681 9.07641 6.6063 9.59825 6.42429 10.19C6.40907 10.2395 6.3937 10.2894 6.37782 10.3396C6.359 10.4038 6.33553 10.4718 6.31138 10.5418C6.24748 10.727 6.17879 10.9261 6.17879 11.1042C6.17879 11.5766 6.59857 11.6668 6.9886 11.6668C7.46554 11.6702 7.71945 11.5104 7.88873 11.0631C8.00426 10.7573 8.30506 9.91627 8.30506 9.62071C8.30506 9.20193 7.88187 9.07641 7.53419 9.07641ZM7.76637 9.67777C7.76637 9.77328 7.66798 10.0651 7.62004 10.2073L7.60737 10.2449L7.42322 10.8177C7.35116 11.0346 7.26425 11.2833 6.98975 11.2833C6.8342 11.2833 6.73354 11.1932 6.73354 11.0311C6.73354 10.8734 6.82519 10.6146 6.89988 10.4037L6.89988 10.4037L6.89989 10.4036C6.92463 10.3338 6.9475 10.2692 6.96457 10.2153C6.9742 10.185 6.98425 10.1505 6.99509 10.1134L6.9951 10.1133C7.06149 9.88565 7.15712 9.55769 7.36261 9.48607C7.41636 9.46781 7.4747 9.46096 7.53304 9.46096C7.64168 9.46096 7.77208 9.55797 7.77208 9.67436L7.76637 9.67777ZM9.77536 10.1216L9.64955 10.537H8.93009L8.58698 11.6336H8.03338L8.82487 9.08661H10.1414L10.0075 9.50196H9.24806L9.05249 10.1216H9.77536Z" fill="#777576"/>
</svg>
