<svg width="20" height="21" viewBox="0 0 20 21" fill="none" xmlns="http://www.w3.org/2000/svg">
<path d="M7 3.5C7 2.94772 7.44772 2.5 8 2.5H12C12.5523 2.5 13 2.94772 13 3.5V4.5H7V3.5Z" fill="currentColor"/>
<path d="M8 10C8 9.72386 8.22386 9.5 8.5 9.5C8.77614 9.5 9 9.72386 9 10V14C9 14.2761 8.77614 14.5 8.5 14.5C8.22386 14.5 8 14.2761 8 14V10Z" fill="currentColor"/>
<path d="M11.5 9.5C11.2239 9.5 11 9.72386 11 10V14C11 14.2761 11.2239 14.5 11.5 14.5C11.7761 14.5 12 14.2761 12 14V10C12 9.72386 11.7761 9.5 11.5 9.5Z" fill="currentColor"/>
<path fill-rule="evenodd" clip-rule="evenodd" d="M2 6.5C2 5.94772 2.44772 5.5 3 5.5H17C17.5523 5.5 18 5.94772 18 6.5C18 7.05228 17.5523 7.5 17 7.5H16V14.5C16 16.7091 14.2091 18.5 12 18.5H8C5.79086 18.5 4 16.7091 4 14.5V7.5H3C2.44772 7.5 2 7.05228 2 6.5ZM6 7.5V14.5C6 15.6046 6.89543 16.5 8 16.5H12C13.1046 16.5 14 15.6046 14 14.5V7.5H6Z" fill="currentColor"/>
</svg>
