<svg width="32" height="32" viewBox="0 0 32 32" fill="none" xmlns="http://www.w3.org/2000/svg" xmlns:xlink="http://www.w3.org/1999/xlink">
<g clip-path="url(#clip0_15688_3076)">
<mask id="mask0_15688_3076" style="mask-type:luminance" maskUnits="userSpaceOnUse" x="3" y="3" width="26" height="26">
<path d="M29 3H3V29H29V3Z" fill="white"/>
</mask>
<g mask="url(#mask0_15688_3076)">
<mask id="mask1_15688_3076" style="mask-type:alpha" maskUnits="userSpaceOnUse" x="3" y="3" width="26" height="26">
<path d="M16 29C23.1797 29 29 23.1797 29 16C29 8.8203 23.1797 3 16 3C8.8203 3 3 8.8203 3 16C3 23.1797 8.8203 29 16 29Z" fill="url(#paint0_linear_15688_3076)"/>
</mask>
<g mask="url(#mask1_15688_3076)">
<path d="M16 29C23.1797 29 29 23.1797 29 16C29 8.8203 23.1797 3 16 3C8.8203 3 3 8.8203 3 16C3 23.1797 8.8203 29 16 29Z" fill="url(#paint1_linear_15688_3076)"/>
<path d="M16 29C23.1797 29 29 23.1797 29 16C29 8.8203 23.1797 3 16 3C8.8203 3 3 8.8203 3 16C3 23.1797 8.8203 29 16 29Z" fill="url(#pattern0_15688_3076)" fill-opacity="0.17"/>
<path fill-rule="evenodd" clip-rule="evenodd" d="M17.5917 27.4046C19.5014 27.2264 21.0866 25.872 21.7886 24.0938V24.0932C21.8569 23.9199 21.9234 23.746 21.9875 23.5704C21.9879 23.5702 21.9882 23.57 21.9886 23.5699C21.9887 23.5695 21.9888 23.5691 21.989 23.5687C24.7046 22.0728 26.5379 19.233 26.5379 15.9752C26.5379 12.717 24.7041 9.87637 21.9879 8.38116C21.9237 8.20514 21.857 8.03033 21.7886 7.85665C21.0866 6.07843 19.5014 4.72403 17.5917 4.54587C17.3989 4.53456 17.2048 4.52802 17.0094 4.52637C16.8165 4.52742 16.6264 4.53046 16.4391 4.53549C10.3349 4.78281 5.46216 9.80995 5.46216 15.9752C5.46216 22.1571 10.3612 27.1946 16.4884 27.4169C16.6592 27.4208 16.832 27.4232 17.007 27.4241C17.2032 27.4225 17.3981 27.4159 17.5917 27.4046ZM21.989 23.5687C22.8565 21.1955 23.3291 18.6395 23.3291 15.9758C23.3291 13.3117 22.8563 10.7552 21.9886 8.38173C20.6922 7.66779 19.1942 7.26081 17.5991 7.26081C12.6619 7.26081 8.65977 11.1628 8.65977 15.9758C8.65977 20.7888 12.6619 24.6908 17.5991 24.6908C19.1938 24.6908 20.6909 24.2841 21.9875 23.5704C21.9877 23.57 21.9878 23.5697 21.9879 23.5693C21.9883 23.5691 21.9886 23.5689 21.989 23.5687Z" fill="url(#paint2_radial_15688_3076)"/>
<path fill-rule="evenodd" clip-rule="evenodd" d="M5.47078 15.6847C5.46897 15.7595 5.47278 15.8446 5.48427 15.9412C5.54147 16.4225 5.77991 17.0573 6.23614 17.7995C7.14438 19.2771 8.81659 21.02 11.0998 22.561C13.395 24.1102 15.7252 25.1329 17.6165 25.5857C18.5649 25.8127 19.3514 25.8841 19.9419 25.837C20.5305 25.7901 20.8246 25.6372 20.9698 25.4947C21.0012 25.4639 21.0316 25.4277 21.0592 25.385C21.3572 25.0265 21.6733 24.3651 21.7368 24.2237C21.7871 24.1115 21.8249 23.9956 21.8627 23.8795C21.8963 23.7769 21.9298 23.674 21.9721 23.5733L21.9733 23.5727L21.9739 23.5712C22.3272 23.3811 22.6162 23.1969 22.8674 23.014C23.0938 23.4841 23.2475 23.9474 23.3092 24.3934C23.4156 25.1624 23.2538 25.9572 22.6024 26.5966C21.9559 27.2313 21.0245 27.5186 20.0717 27.5945C19.1207 27.6703 18.0498 27.5472 16.9428 27.2822C14.7233 26.7508 12.1507 25.599 9.69409 23.9408C7.22535 22.2745 5.3592 20.3552 4.30484 18.6399C3.77978 17.7857 3.43088 16.9413 3.33998 16.1765C3.25184 15.4349 3.39567 14.6257 4.07935 14.0224C4.54807 13.5735 5.15644 13.3105 5.8088 13.1792C5.63977 13.9882 5.50909 15.0198 5.46218 15.6817L5.47078 15.6847ZM9.0893 13.336C9.28678 13.3806 9.48576 13.4303 9.6858 13.4846C11.8626 14.0761 14.3913 15.2834 16.834 16.9321C19.278 18.5817 21.1848 20.3767 22.2819 22.0053C22.3323 22.0801 22.3813 22.155 22.4287 22.2298C22.2925 22.639 22.1436 23.0758 21.9739 23.5712L21.9727 23.5719L21.9721 23.5733C21.6466 23.738 21.3276 23.8976 21 24.0372C20.8699 23.7003 20.6684 23.3199 20.3869 22.9021C19.4486 21.5092 17.7363 19.8696 15.4284 18.3119C13.1192 16.7533 10.8097 15.6708 8.94057 15.1629C8.88252 15.1471 8.82512 15.1319 8.7684 15.1174C8.83089 14.4941 8.94772 13.8736 9.0893 13.336Z" fill="url(#paint3_linear_15688_3076)"/>
<path fill-rule="evenodd" clip-rule="evenodd" d="M26.4173 17.226C26.4167 17.4039 26.3971 17.5568 26.3638 17.6882C26.2672 18.255 26.0136 18.9315 25.6268 19.7671C25.5483 19.9366 25.4655 20.1109 25.3758 20.2884C26.1971 20.2208 26.9771 19.9758 27.5805 19.468C28.2995 18.8627 28.5715 18.0484 28.5745 17.2207C28.5774 16.3935 28.316 15.479 27.8646 14.5464C26.9604 12.6779 25.22 10.5842 22.835 8.69357C20.4569 6.80826 17.8628 5.41809 15.5686 4.70106C14.4239 4.34329 13.3037 4.1374 12.2944 4.14942C11.2825 4.16147 10.2884 4.39721 9.56298 5.00784C8.83535 5.62031 8.58246 6.43781 8.60793 7.26178C8.61524 7.49891 8.64539 7.74274 8.69629 7.99169C9.45382 7.2834 10.6788 6.38905 11.2805 6.11593C11.4963 6.00233 11.8229 5.91749 12.3129 5.91166C12.9613 5.90394 13.8008 6.03928 14.7874 6.34764C16.7558 6.96285 19.1112 8.20449 21.3281 9.96196C23.5383 11.7141 25.0855 13.6068 25.858 15.203C26.245 16.0027 26.4193 16.69 26.4173 17.226ZM11.595 9.54621C12.4716 11.0421 14.0057 12.7674 16.0623 14.3978C18.2912 16.1647 20.5931 17.4362 22.5042 18.0781C22.738 18.1567 22.9629 18.2247 23.1781 18.2827C23.1049 18.8707 23.0092 19.4657 22.8912 20.0574C22.4907 19.9639 22.0835 19.8464 21.6737 19.7088C19.4457 18.9604 16.9216 17.542 14.5554 15.6662C12.7082 14.2018 11.2088 12.6315 10.1783 11.1432C10.6367 10.5343 11.118 9.998 11.595 9.54621Z" fill="url(#paint4_linear_15688_3076)"/>
<path d="M21.9916 23.5657L21.9906 23.5662C20.6939 24.2799 19.1968 24.6866 17.6022 24.6866C12.665 24.6866 8.66284 20.7846 8.66284 15.9716C8.66284 11.3925 12.2329 7.6286 17.0833 7.25928C17.0833 7.25928 18.6891 8.07182 20.1418 9.10589C21.5944 10.14 22.8446 11.3218 22.8446 11.3218C23.1336 12.7474 23.3321 14.4633 23.3321 15.9716C23.3321 18.6353 22.8596 21.1914 21.992 23.5645L21.9916 23.5657Z" fill="url(#paint5_linear_15688_3076)"/>
<path d="M21.9916 23.5657L21.9906 23.5662C20.6939 24.2799 19.1968 24.6866 17.6022 24.6866C12.665 24.6866 8.66284 20.7846 8.66284 15.9716C8.66284 11.3925 12.2329 7.6286 17.0833 7.25928C17.0833 7.25928 18.6891 8.07182 20.1418 9.10589C21.5944 10.14 22.8446 11.3218 22.8446 11.3218C23.1336 12.7474 23.3321 14.4633 23.3321 15.9716C23.3321 18.6353 22.8596 21.1914 21.992 23.5645L21.9916 23.5657Z" fill="url(#pattern1_15688_3076)" fill-opacity="0.17"/>
<path d="M15.6562 19.9748C15.1716 19.9289 14.7421 19.8323 14.3677 19.685C13.9952 19.5377 13.6816 19.3454 13.427 19.1082C13.1723 18.869 12.9794 18.5868 12.8483 18.2616C12.7172 17.9345 12.6516 17.5701 12.6516 17.1683H14.3791C14.3791 17.3807 14.4228 17.571 14.5102 17.7394C14.5995 17.9077 14.7269 18.0502 14.8922 18.1669C15.0595 18.2836 15.2618 18.3736 15.4994 18.4367C15.737 18.4979 16.004 18.5285 16.3004 18.5285C16.5551 18.5285 16.7926 18.5056 17.0131 18.4596C17.2355 18.4137 17.4283 18.3439 17.5918 18.2501C17.7552 18.1564 17.8845 18.0397 17.9795 17.9001C18.0745 17.7604 18.122 17.5969 18.122 17.4094C18.122 17.2295 18.0821 17.0851 18.0023 16.9761C17.9225 16.867 17.8066 16.779 17.6545 16.712C17.5025 16.6451 17.3162 16.5925 17.0958 16.5542C16.8753 16.514 16.6254 16.4739 16.346 16.4337L15.9156 16.3705C15.6913 16.338 15.4576 16.3027 15.2144 16.2644C14.973 16.2242 14.7364 16.1706 14.5045 16.1037C14.2727 16.0367 14.0522 15.9516 13.8432 15.8483C13.636 15.745 13.4536 15.613 13.2958 15.4523C13.1381 15.2916 13.0127 15.0984 12.9196 14.8726C12.8283 14.6469 12.7827 14.3781 12.7827 14.0663C12.7827 13.6817 12.854 13.3393 12.9965 13.039C13.141 12.7367 13.3405 12.4775 13.5952 12.2613C13.8517 12.0432 14.1558 11.8691 14.5074 11.739C14.859 11.607 15.2428 11.5209 15.659 11.4808L15.545 10.1895H17.016L16.9048 11.4894C17.3305 11.541 17.7115 11.6405 18.0479 11.7878C18.3843 11.9332 18.6703 12.1226 18.906 12.356C19.1416 12.5875 19.3212 12.8591 19.4447 13.171C19.5702 13.4828 19.6329 13.83 19.6329 14.2126H17.9082C17.9082 14.0156 17.8674 13.8377 17.7856 13.6789C17.7058 13.5201 17.5918 13.3852 17.4436 13.2743C17.2953 13.1633 17.1167 13.0782 16.9076 13.0189C16.6986 12.9595 16.4667 12.9299 16.2121 12.9299C16.0011 12.9299 15.7968 12.9519 15.5992 12.9959C15.4015 13.038 15.2257 13.1021 15.0718 13.1882C14.9198 13.2743 14.7972 13.3823 14.7041 13.5125C14.6129 13.6406 14.5672 13.7908 14.5672 13.963C14.5672 14.1256 14.6062 14.2585 14.6841 14.3618C14.7639 14.4632 14.8808 14.5464 15.0348 14.6115C15.1906 14.6765 15.3825 14.7301 15.6106 14.7722C15.8406 14.8143 16.1047 14.8573 16.4031 14.9013L16.7366 14.9501C16.9076 14.975 17.0834 15.0027 17.264 15.0333C17.4445 15.062 17.625 15.0974 17.8056 15.1395C17.9861 15.1816 18.1629 15.2323 18.3358 15.2916C18.5107 15.3509 18.676 15.4226 18.8319 15.5068C18.9876 15.591 19.1311 15.6905 19.2623 15.8053C19.3934 15.9181 19.5065 16.0501 19.6015 16.2013C19.6984 16.3524 19.7735 16.5246 19.8267 16.7178C19.8799 16.911 19.9065 17.1291 19.9065 17.3721C19.9065 17.7623 19.8362 18.1105 19.6956 18.4166C19.5568 18.7227 19.3573 18.9857 19.0969 19.2057C18.8366 19.4238 18.5211 19.5979 18.1505 19.728C17.7819 19.8581 17.3675 19.9423 16.9076 19.9805L17.016 21.269H15.545L15.6562 19.9748Z" fill="url(#paint6_radial_15688_3076)"/>
<g filter="url(#filter0_f_15688_3076)">
<path d="M21.7367 24.1251C21.3181 26.3164 16.0159 25.2699 11.6184 22.306C6.05962 19.065 4.69877 16.6156 5.56056 14.4243" stroke="#046029" stroke-opacity="0.15" stroke-width="5.45455"/>
</g>
<g filter="url(#filter1_f_15688_3076)">
<path d="M10.2024 6.47076C11.5164 5.36472 16.1629 6.65734 20.5838 10.162C26.2055 14.0839 27.2909 18.0503 25.9769 19.1564" stroke="#046029" stroke-opacity="0.15" stroke-width="5.45455"/>
</g>
</g>
</g>
</g>
<defs>
<pattern id="pattern0_15688_3076" patternContentUnits="objectBoundingBox" width="1" height="1">
<use xlink:href="#image0_15688_3076" transform="scale(0.00187266 0.00333333)"/>
</pattern>
<pattern id="pattern1_15688_3076" patternContentUnits="objectBoundingBox" width="1" height="1">
<use xlink:href="#image1_15688_3076" transform="scale(0.00187266 0.00333333)"/>
</pattern>
<filter id="filter0_f_15688_3076" x="0.170242" y="11.002" width="26.6695" height="19.4442" filterUnits="userSpaceOnUse" color-interpolation-filters="sRGB">
<feFlood flood-opacity="0" result="BackgroundImageFix"/>
<feBlend mode="normal" in="SourceGraphic" in2="BackgroundImageFix" result="shape"/>
<feGaussianBlur stdDeviation="1.21212" result="effect1_foregroundBlur_15688_3076"/>
</filter>
<filter id="filter1_f_15688_3076" x="6.0218" y="0.934647" width="25.609" height="22.7323" filterUnits="userSpaceOnUse" color-interpolation-filters="sRGB">
<feFlood flood-opacity="0" result="BackgroundImageFix"/>
<feBlend mode="normal" in="SourceGraphic" in2="BackgroundImageFix" result="shape"/>
<feGaussianBlur stdDeviation="1.21212" result="effect1_foregroundBlur_15688_3076"/>
</filter>
<linearGradient id="paint0_linear_15688_3076" x1="21.9337" y1="4.37879" x2="9.40153" y2="27.4981" gradientUnits="userSpaceOnUse">
<stop stop-color="#32F273"/>
<stop offset="1" stop-color="#05963F"/>
</linearGradient>
<linearGradient id="paint1_linear_15688_3076" x1="21.9337" y1="4.37879" x2="9.40153" y2="27.4981" gradientUnits="userSpaceOnUse">
<stop stop-color="#5EFF6E"/>
<stop offset="1" stop-color="#2A7729"/>
</linearGradient>
<radialGradient id="paint2_radial_15688_3076" cx="0" cy="0" r="1" gradientUnits="userSpaceOnUse" gradientTransform="translate(22.0886 4.52637) rotate(118.79) scale(23.9921 21.9383)">
<stop stop-color="white"/>
<stop offset="1" stop-color="#D0F6DF"/>
</radialGradient>
<linearGradient id="paint3_linear_15688_3076" x1="10.6828" y1="25.322" x2="15.9442" y2="16.1525" gradientUnits="userSpaceOnUse">
<stop stop-color="#022A09"/>
<stop offset="0.609122" stop-color="#2D903D"/>
<stop offset="0.865744" stop-color="#38BC4E"/>
</linearGradient>
<linearGradient id="paint4_linear_15688_3076" x1="20.1234" y1="6.32266" x2="14.7229" y2="13.8081" gradientUnits="userSpaceOnUse">
<stop stop-color="#013309"/>
<stop offset="0.609122" stop-color="#2D903D"/>
<stop offset="1" stop-color="#2AA43D"/>
</linearGradient>
<linearGradient id="paint5_linear_15688_3076" x1="21.6875" y1="7.2839" x2="6.82617" y2="25.8835" gradientUnits="userSpaceOnUse">
<stop stop-color="#5EFF6E"/>
<stop offset="1" stop-color="#2A7729"/>
</linearGradient>
<radialGradient id="paint6_radial_15688_3076" cx="0" cy="0" r="1" gradientUnits="userSpaceOnUse" gradientTransform="translate(18.3749 10.1895) rotate(114.928) scale(13.5792 10.3648)">
<stop stop-color="white"/>
<stop offset="1" stop-color="#D3F7E1"/>
</radialGradient>
<clipPath id="clip0_15688_3076">
<rect width="26" height="26" fill="white" transform="translate(3 3)"/>
</clipPath>
</defs>
</svg>
