<svg width="32" height="32" viewBox="0 0 32 32" fill="none" xmlns="http://www.w3.org/2000/svg" xmlns:xlink="http://www.w3.org/1999/xlink">
<g clip-path="url(#clip0_15688_3077)">
<mask id="mask0_15688_3077" style="mask-type:luminance" maskUnits="userSpaceOnUse" x="3" y="3" width="26" height="26">
<path d="M29 3H3V29H29V3Z" fill="white"/>
</mask>
<g mask="url(#mask0_15688_3077)">
<path d="M16 29C23.1797 29 29 23.1797 29 16C29 8.82029 23.1797 3 16 3C8.82029 3 3 8.82029 3 16C3 23.1797 8.82029 29 16 29Z" fill="url(#paint0_linear_15688_3077)"/>
<path d="M16 29C23.1797 29 29 23.1797 29 16C29 8.82029 23.1797 3 16 3C8.82029 3 3 8.82029 3 16C3 23.1797 8.82029 29 16 29Z" fill="url(#pattern0_15688_3077)" fill-opacity="0.17"/>
<path fill-rule="evenodd" clip-rule="evenodd" d="M17.5918 27.4046C19.5015 27.2264 21.0866 25.872 21.7885 24.0938V24.0932C21.8569 23.9199 21.9234 23.746 21.9875 23.5704C21.9879 23.5702 21.9882 23.5701 21.9885 23.5699C21.9887 23.5695 21.9888 23.5691 21.989 23.5687C24.7045 22.0728 26.5379 19.233 26.5379 15.9752C26.5379 12.717 24.7041 9.87634 21.988 8.38114C21.9237 8.20513 21.857 8.03031 21.7885 7.85665C21.0866 6.07843 19.5015 4.72403 17.5918 4.54587C17.3989 4.53456 17.2047 4.52802 17.0094 4.52637C16.8165 4.52742 16.6264 4.53046 16.4391 4.53549C10.3349 4.78282 5.46216 9.80992 5.46216 15.9752C5.46216 22.1571 10.3612 27.1947 16.4884 27.4168C16.6591 27.4208 16.832 27.4232 17.007 27.4241C17.2031 27.4225 17.3981 27.4159 17.5918 27.4046ZM21.989 23.5687C22.8565 21.1956 23.329 18.6395 23.329 15.9758C23.329 13.3117 22.8564 10.7552 21.9885 8.38175C20.6923 7.66778 19.1942 7.2608 17.5991 7.2608C12.6619 7.2608 8.65976 11.1628 8.65976 15.9758C8.65976 20.7888 12.6619 24.6908 17.5991 24.6908C19.1938 24.6908 20.6909 24.2841 21.9875 23.5704C21.9877 23.5701 21.9878 23.5697 21.988 23.5693C21.9883 23.5691 21.9886 23.5689 21.989 23.5687Z" fill="url(#paint1_radial_15688_3077)"/>
<path d="M21.9916 23.5661L21.9906 23.5666C20.6939 24.2803 19.1969 24.687 17.6022 24.687C12.665 24.687 8.66284 20.785 8.66284 15.972C8.66284 11.3928 12.2855 7.63831 16.8895 7.28426C16.8895 7.28426 19.767 7.06266 21.9583 8.36759C22.2045 8.76155 22.8916 11.5642 22.8916 11.5642C23.1806 12.9899 23.3321 14.4637 23.3321 15.972C23.3321 18.6357 22.8596 21.1917 21.992 23.5649L21.9916 23.5661Z" fill="url(#paint2_linear_15688_3077)"/>
<path d="M21.9916 23.5661L21.9906 23.5666C20.6939 24.2802 19.1968 24.687 17.6022 24.687C12.665 24.687 8.66284 20.785 8.66284 15.972C8.66284 11.3928 12.2855 7.63831 16.8895 7.28426C16.8895 7.28426 19.767 7.06267 21.9583 8.36758C22.2045 8.76154 22.8916 11.5642 22.8916 11.5642C23.1806 12.9898 23.3321 14.4637 23.3321 15.972C23.3321 18.6357 22.8596 21.1917 21.992 23.5649L21.9916 23.5661Z" fill="url(#pattern1_15688_3077)" fill-opacity="0.17"/>
<path d="M15.6562 19.9748C15.1716 19.9289 14.7421 19.8323 14.3677 19.685C13.9952 19.5377 13.6816 19.3454 13.427 19.1082C13.1723 18.869 12.9794 18.5868 12.8483 18.2616C12.7172 17.9345 12.6516 17.5701 12.6516 17.1683H14.3791C14.3791 17.3807 14.4228 17.571 14.5102 17.7394C14.5995 17.9077 14.7269 18.0502 14.8922 18.1669C15.0595 18.2836 15.2619 18.3736 15.4994 18.4367C15.737 18.4979 16.004 18.5285 16.3004 18.5285C16.5551 18.5285 16.7927 18.5055 17.0131 18.4596C17.2354 18.4137 17.4283 18.3439 17.5918 18.2502C17.7552 18.1564 17.8845 18.0397 17.9795 17.9001C18.0745 17.7604 18.122 17.5969 18.122 17.4094C18.122 17.2296 18.0821 17.0851 18.0023 16.9761C17.9225 16.867 17.8065 16.779 17.6545 16.7121C17.5024 16.6451 17.3162 16.5925 17.0958 16.5542C16.8753 16.5141 16.6254 16.4739 16.346 16.4337L15.9156 16.3705C15.6913 16.338 15.4576 16.3027 15.2143 16.2644C14.973 16.2242 14.7364 16.1707 14.5045 16.1037C14.2727 16.0368 14.0522 15.9516 13.8431 15.8483C13.636 15.745 13.4536 15.613 13.2958 15.4523C13.1381 15.2916 13.0127 15.0984 12.9195 14.8727C12.8283 14.6469 12.7827 14.3781 12.7827 14.0663C12.7827 13.6817 12.854 13.3393 12.9965 13.0389C13.1409 12.7367 13.3405 12.4775 13.5952 12.2613C13.8517 12.0432 14.1558 11.8691 14.5074 11.739C14.859 11.607 15.2428 11.5209 15.659 11.4808L15.545 10.1895H17.016L16.9048 11.4894C17.3305 11.541 17.7115 11.6405 18.0479 11.7878C18.3843 11.9332 18.6703 12.1226 18.9059 12.356C19.1416 12.5875 19.3212 12.8591 19.4447 13.171C19.5702 13.4828 19.6329 13.83 19.6329 14.2126H17.9082C17.9082 14.0156 17.8674 13.8377 17.7856 13.6789C17.7058 13.5201 17.5918 13.3852 17.4435 13.2743C17.2953 13.1633 17.1167 13.0782 16.9076 13.0189C16.6986 12.9596 16.4667 12.9299 16.2121 12.9299C16.0011 12.9299 15.7968 12.9519 15.5992 12.9959C15.4015 13.038 15.2257 13.1021 15.0718 13.1882C14.9198 13.2743 14.7972 13.3824 14.7041 13.5124C14.6128 13.6406 14.5672 13.7908 14.5672 13.963C14.5672 14.1256 14.6062 14.2586 14.6841 14.3618C14.7639 14.4633 14.8808 14.5464 15.0347 14.6115C15.1906 14.6765 15.3825 14.7301 15.6106 14.7722C15.8405 14.8143 16.1047 14.8573 16.4031 14.9013L16.7366 14.9501C16.9076 14.975 17.0834 15.0027 17.264 15.0333C17.4445 15.062 17.625 15.0974 17.8056 15.1395C17.9861 15.1816 18.1628 15.2323 18.3358 15.2916C18.5107 15.3509 18.676 15.4227 18.8318 15.5068C18.9876 15.591 19.1311 15.6905 19.2623 15.8052C19.3934 15.9181 19.5065 16.0501 19.6015 16.2012C19.6984 16.3524 19.7735 16.5246 19.8267 16.7178C19.8799 16.911 19.9065 17.1291 19.9065 17.3721C19.9065 17.7623 19.8362 18.1105 19.6956 18.4166C19.5568 18.7227 19.3573 18.9857 19.0969 19.2058C18.8366 19.4238 18.5211 19.5979 18.1505 19.728C17.7818 19.8581 17.3675 19.9423 16.9076 19.9805L17.016 21.269H15.545L15.6562 19.9748Z" fill="url(#paint3_radial_15688_3077)"/>
</g>
</g>
<defs>
<pattern id="pattern0_15688_3077" patternContentUnits="objectBoundingBox" width="1" height="1">
<use xlink:href="#image0_15688_3077" transform="scale(0.00187266 0.00333333)"/>
</pattern>
<pattern id="pattern1_15688_3077" patternContentUnits="objectBoundingBox" width="1" height="1">
<use xlink:href="#image1_15688_3077" transform="scale(0.00187266 0.00333333)"/>
</pattern>
<linearGradient id="paint0_linear_15688_3077" x1="21.9337" y1="4.37879" x2="9.40154" y2="27.4981" gradientUnits="userSpaceOnUse">
<stop stop-color="#5EFF6E"/>
<stop offset="1" stop-color="#2A7729"/>
</linearGradient>
<radialGradient id="paint1_radial_15688_3077" cx="0" cy="0" r="1" gradientUnits="userSpaceOnUse" gradientTransform="translate(22.0886 4.52637) rotate(118.79) scale(23.9921 21.9383)">
<stop stop-color="white"/>
<stop offset="1" stop-color="#D0F6DF"/>
</radialGradient>
<linearGradient id="paint2_linear_15688_3077" x1="21.6875" y1="7.29463" x2="6.83702" y2="25.8918" gradientUnits="userSpaceOnUse">
<stop stop-color="#5EFF6E"/>
<stop offset="1" stop-color="#2A7729"/>
</linearGradient>
<radialGradient id="paint3_radial_15688_3077" cx="0" cy="0" r="1" gradientUnits="userSpaceOnUse" gradientTransform="translate(18.3749 10.1895) rotate(114.928) scale(13.5792 10.3648)">
<stop stop-color="white"/>
<stop offset="1" stop-color="#D3F7E1"/>
</radialGradient>
<clipPath id="clip0_15688_3077">
<rect width="26" height="26" fill="white" transform="translate(3 3)"/>
</clipPath>
</defs>
</svg>
