<svg width="20" height="20" viewBox="0 0 20 20" fill="none" xmlns="http://www.w3.org/2000/svg">
<path d="M10 20C15.5228 20 20 15.5228 20 10C20 4.47715 15.5228 0 10 0C4.47715 0 0 4.47715 0 10C0 15.5228 4.47715 20 10 20Z" fill="currentColor"/>
<path d="M10.466 10.7344C11.9184 11.0531 12.3534 11.4758 12.3534 12.1894C12.3534 12.9307 11.7942 13.4919 10.466 13.582V10.7344ZM9.58835 9.13395C8.34563 8.85681 7.87961 8.39261 7.87961 7.76212C7.87961 7.13164 8.4699 6.55658 9.58835 6.43187V9.13395ZM10.466 9.32102V6.43187C11.4602 6.54273 12.1592 7.0485 12.2602 7.92148H13.8757C13.8136 6.34873 12.4078 5.30947 10.466 5.1709V4H9.58835V5.1709C7.63107 5.30254 6.23301 6.32794 6.23301 7.87991C6.23301 9.28637 7.29709 10.0762 9.2699 10.485L9.58835 10.5543V13.5751C8.33786 13.4573 7.74757 12.8614 7.60777 12.0508H6C6.05437 13.7136 7.61553 14.7044 9.58835 14.836V16H10.466V14.836C12.4466 14.7113 14 13.7483 14 12.0508C14 10.5751 12.8816 9.82679 10.8388 9.40416L10.466 9.32102Z" fill="white"/>
</svg>
