<svg width="37" height="36" viewBox="0 0 37 36" fill="none" xmlns="http://www.w3.org/2000/svg">
<path d="M0.5 4C0.5 1.79086 2.29086 0 4.5 0H32.5C34.7091 0 36.5 1.79086 36.5 4V32C36.5 34.2091 34.7091 36 32.5 36H4.5C2.29086 36 0.5 34.2091 0.5 32V4Z" fill="#322A19"/>
<path fill-rule="evenodd" clip-rule="evenodd" d="M16.762 11.0233C17.5298 9.67972 19.4672 9.67972 20.235 11.0233L26.5118 22.0078C27.2737 23.3411 26.311 25.0001 24.7753 25.0001H12.2217C10.6861 25.0001 9.72333 23.3411 10.4852 22.0078L16.762 11.0233ZM24.7753 23.0001L18.4985 12.0156L12.2217 23.0001L24.7753 23.0001Z" fill="#F9A601"/>
<path d="M17.4985 16.0001C17.4985 15.4478 17.9462 15.0001 18.4985 15.0001C19.0508 15.0001 19.4985 15.4478 19.4985 16.0001V18.2001C19.4985 18.6419 19.1404 19.0001 18.6985 19.0001H18.2985C17.8567 19.0001 17.4985 18.6419 17.4985 18.2001V16.0001Z" fill="#F9A601"/>
<path d="M17.4985 21.0001C17.4985 20.4478 17.9462 20.0001 18.4985 20.0001C19.0508 20.0001 19.4985 20.4478 19.4985 21.0001C19.4985 21.5523 19.0508 22.0001 18.4985 22.0001C17.9462 22.0001 17.4985 21.5523 17.4985 21.0001Z" fill="#F9A601"/>
</svg>
