<svg width="18" height="15" viewBox="0 0 18 15" fill="none" xmlns="http://www.w3.org/2000/svg">
<path fill-rule="evenodd" clip-rule="evenodd" d="M7.26204 1.02335C8.02983 -0.320282 9.96722 -0.320283 10.735 1.02335L17.0118 12.0078C17.7737 13.3411 16.811 15.0001 15.2753 15.0001H2.72171C1.18606 15.0001 0.223325 13.3411 0.985219 12.0078L7.26204 1.02335ZM15.2753 13.0001L8.99853 2.01563L2.72171 13.0001L15.2753 13.0001Z" fill="currentColor"/>
<path d="M7.99853 6.00006C7.99853 5.44778 8.44624 5.00006 8.99853 5.00006C9.55081 5.00006 9.99853 5.44778 9.99853 6.00006V8.20006C9.99853 8.64189 9.64035 9.00006 9.19853 9.00006H8.79853C8.3567 9.00006 7.99853 8.64189 7.99853 8.20006V6.00006Z" fill="currentColor"/>
<path d="M7.99853 11.0001C7.99853 10.4478 8.44624 10.0001 8.99853 10.0001C9.55081 10.0001 9.99853 10.4478 9.99853 11.0001C9.99853 11.5523 9.55081 12.0001 8.99853 12.0001C8.44624 12.0001 7.99853 11.5523 7.99853 11.0001Z" fill="currentColor"/>
</svg>
