<svg width="21" height="20" viewBox="0 0 21 20" fill="none" xmlns="http://www.w3.org/2000/svg">
    <path fill-rule="evenodd" clip-rule="evenodd" d="M9.49927 13.0005C9.49927 13.5528 9.94698 14.0005 10.4993 14.0005C11.0516 14.0005 11.4993 13.5528 11.4993 13.0005V7.00049H14.0352L10.5352 2.00049L7.03516 7.00049H9.49927V13.0005ZM3.89787 13.3337C3.74682 12.9064 3.63618 12.4604 3.57031 12.0005H5.59911C5.64545 12.229 5.70733 12.4516 5.78355 12.6672C6.47042 14.6106 8.32383 16.0005 10.4993 16.0005C12.6748 16.0005 14.5282 14.6106 15.215 12.6672C15.2913 12.4516 15.3531 12.229 15.3995 12.0005H17.4283C17.3624 12.4604 17.2518 12.9064 17.1007 13.3337C16.1402 16.0512 13.5487 18.0005 10.4993 18.0005C7.44989 18.0005 4.85834 16.0512 3.89787 13.3337Z" fill="#FFFBFD"/>
</svg>
