<svg width="20" height="19" viewBox="0 0 20 19" fill="none" xmlns="http://www.w3.org/2000/svg">
    <mask id="path-1-outside-1_10411_123408" maskUnits="userSpaceOnUse" x="0.78125" y="0.123047" width="19" height="19" fill="black">
        <rect fill="white" x="0.78125" y="0.123047" width="19" height="19"/>
        <path d="M3.18461 16.1595C2.6468 15.6216 2.6468 14.7497 3.18461 14.2119L14.8701 2.5264C15.4079 1.98859 16.2799 1.98859 16.8177 2.5264C17.3555 3.06421 17.3555 3.93617 16.8177 4.47398L5.13219 16.1595C4.59438 16.6973 3.72242 16.6973 3.18461 16.1595Z"/>
        <path d="M16.8177 16.1595C16.2799 16.6973 15.4079 16.6973 14.8701 16.1595L3.18461 4.47398C2.6468 3.93618 2.6468 3.06421 3.18461 2.52641C3.72242 1.9886 4.59438 1.9886 5.13219 2.52641L16.8177 14.2119C17.3555 14.7497 17.3555 15.6216 16.8177 16.1595Z"/>
    </mask>
    <path d="M3.18461 16.1595C2.6468 15.6216 2.6468 14.7497 3.18461 14.2119L14.8701 2.5264C15.4079 1.98859 16.2799 1.98859 16.8177 2.5264C17.3555 3.06421 17.3555 3.93617 16.8177 4.47398L5.13219 16.1595C4.59438 16.6973 3.72242 16.6973 3.18461 16.1595Z" fill="url(#paint0_linear_10411_123408)"/>
    <path d="M16.8177 16.1595C16.2799 16.6973 15.4079 16.6973 14.8701 16.1595L3.18461 4.47398C2.6468 3.93618 2.6468 3.06421 3.18461 2.52641C3.72242 1.9886 4.59438 1.9886 5.13219 2.52641L16.8177 14.2119C17.3555 14.7497 17.3555 15.6216 16.8177 16.1595Z" fill="url(#paint1_linear_10411_123408)"/>
    <path d="M3.18461 14.2119L1.77039 12.7977L3.18461 14.2119ZM14.8701 2.5264L16.2843 3.94062L14.8701 2.5264ZM16.8177 4.47398L15.4034 3.05977L16.8177 4.47398ZM5.13219 16.1595L6.5464 17.5737L5.13219 16.1595ZM16.8177 16.1595L15.4034 14.7452L16.8177 16.1595ZM14.8701 16.1595L16.2843 14.7452L14.8701 16.1595ZM3.18461 4.47398L4.59882 3.05977L4.59882 3.05977L3.18461 4.47398ZM3.18461 2.52641L1.77039 1.11219H1.77039L3.18461 2.52641ZM5.13219 2.52641L6.5464 1.11219L5.13219 2.52641ZM16.8177 14.2119L15.4034 15.6261L16.8177 14.2119ZM4.59882 14.7452C4.84206 14.9885 4.84206 15.3828 4.59882 15.6261L1.77039 12.7977C0.451537 14.1165 0.451537 16.2548 1.77039 17.5737L4.59882 14.7452ZM4.59882 15.6261L16.2843 3.94062L13.4559 1.11219L1.77039 12.7977L4.59882 15.6261ZM16.2843 3.94062C16.0411 4.18386 15.6467 4.18386 15.4034 3.94062L18.2319 1.11219C16.913 -0.206668 14.7747 -0.206667 13.4559 1.11219L16.2843 3.94062ZM15.4034 3.94062C15.1602 3.69738 15.1602 3.30301 15.4034 3.05977L18.2319 5.8882C19.5507 4.56934 19.5507 2.43105 18.2319 1.11219L15.4034 3.94062ZM15.4034 3.05977L3.71797 14.7452L6.5464 17.5737L18.2319 5.8882L15.4034 3.05977ZM3.71797 14.7452C3.96121 14.502 4.35558 14.502 4.59882 14.7452L1.77039 17.5737C3.08925 18.8925 5.22754 18.8925 6.5464 17.5737L3.71797 14.7452ZM15.4034 14.7452C15.6467 14.502 16.0411 14.502 16.2843 14.7452L13.4559 17.5737C14.7747 18.8925 16.913 18.8925 18.2319 17.5737L15.4034 14.7452ZM16.2843 14.7452L4.59882 3.05977L1.77039 5.8882L13.4559 17.5737L16.2843 14.7452ZM4.59882 3.05977C4.84206 3.30301 4.84206 3.69738 4.59882 3.94062L1.77039 1.11219C0.451535 2.43105 0.451536 4.56934 1.77039 5.8882L4.59882 3.05977ZM4.59882 3.94062C4.35558 4.18386 3.96121 4.18386 3.71797 3.94062L6.5464 1.11219C5.22754 -0.206665 3.08925 -0.206666 1.77039 1.11219L4.59882 3.94062ZM3.71797 3.94062L15.4034 15.6261L18.2319 12.7977L6.5464 1.11219L3.71797 3.94062ZM15.4034 15.6261C15.1602 15.3828 15.1602 14.9885 15.4034 14.7452L18.2319 17.5737C19.5507 16.2548 19.5507 14.1165 18.2319 12.7977L15.4034 15.6261Z" fill="url(#paint2_linear_10411_123408)" mask="url(#path-1-outside-1_10411_123408)"/>
    <defs>
        <linearGradient id="paint0_linear_10411_123408" x1="2.78125" y1="9.34293" x2="17.221" y2="9.34293" gradientUnits="userSpaceOnUse">
            <stop stop-color="#FF49A4" stop-opacity="0.5"/>
            <stop offset="0.93" stop-color="#B049FF" stop-opacity="0.5"/>
        </linearGradient>
        <linearGradient id="paint1_linear_10411_123408" x1="2.78125" y1="9.34293" x2="17.221" y2="9.34293" gradientUnits="userSpaceOnUse">
            <stop stop-color="#FF49A4" stop-opacity="0.5"/>
            <stop offset="0.93" stop-color="#B049FF" stop-opacity="0.5"/>
        </linearGradient>
        <linearGradient id="paint2_linear_10411_123408" x1="2.78125" y1="9.34293" x2="17.221" y2="9.34293" gradientUnits="userSpaceOnUse">
            <stop stop-color="#FF49A4"/>
            <stop offset="0.93" stop-color="#B049FF"/>
        </linearGradient>
    </defs>
</svg>
