<svg width="516" height="260" viewBox="0 0 516 260" fill="none" xmlns="http://www.w3.org/2000/svg">
    <mask id="path-1-inside-1_10411_124002" fill="white">
        <path d="M0.5 24.3438C0.5 11.0889 11.2452 0.34375 24.5 0.34375H491.5C504.755 0.34375 515.5 11.0889 515.5 24.3438V160.344C515.5 173.599 504.755 184.344 491.5 184.344H24.5C11.2452 184.344 0.5 173.599 0.5 160.344V24.3438Z"/>
    </mask>
    <path d="M0.5 24.3438C0.5 11.0889 11.2452 0.34375 24.5 0.34375H491.5C504.755 0.34375 515.5 11.0889 515.5 24.3438V160.344C515.5 173.599 504.755 184.344 491.5 184.344H24.5C11.2452 184.344 0.5 173.599 0.5 160.344V24.3438Z" fill="#1C1C1C" fill-opacity="0.5"/>
    <path d="M24.5 1.34375H491.5V-0.65625H24.5V1.34375ZM514.5 24.3438V160.344H516.5V24.3438H514.5ZM491.5 183.344H24.5V185.344H491.5V183.344ZM1.5 160.344V24.3438H-0.5V160.344H1.5ZM24.5 183.344C11.7975 183.344 1.5 173.046 1.5 160.344H-0.5C-0.5 174.151 10.6929 185.344 24.5 185.344V183.344ZM514.5 160.344C514.5 173.046 504.203 183.344 491.5 183.344V185.344C505.307 185.344 516.5 174.151 516.5 160.344H514.5ZM491.5 1.34375C504.203 1.34375 514.5 11.6412 514.5 24.3438H516.5C516.5 10.5366 505.307 -0.65625 491.5 -0.65625V1.34375ZM24.5 -0.65625C10.6929 -0.65625 -0.5 10.5366 -0.5 24.3438H1.5C1.5 11.6412 11.7975 1.34375 24.5 1.34375V-0.65625Z" fill="#3D3D3D" mask="url(#path-1-inside-1_10411_124002)"/>
    <path d="M46.4974 73.6764C56.6226 73.6764 64.8307 65.4683 64.8307 55.3431C64.8307 45.2179 56.6226 37.0098 46.4974 37.0098C36.3722 37.0098 28.1641 45.2179 28.1641 55.3431C28.1641 65.4683 36.3722 73.6764 46.4974 73.6764Z" fill="url(#paint0_linear_10411_124002)"/>
    <path d="M43.1389 68.0228C43.1389 68.4811 42.8333 68.6339 42.375 68.6339C36.7222 66.8006 32.75 61.6061 32.75 55.495C32.75 49.3839 36.7222 44.1895 42.375 42.3561C42.8333 42.2034 43.1389 42.5089 43.1389 42.9673V44.0367C43.1389 44.3423 42.9861 44.6478 42.6806 44.8006C38.25 46.4811 35.1944 50.6061 35.1944 55.495C35.1944 60.3839 38.4028 64.6617 42.6806 66.1895C42.9861 66.3423 43.1389 66.6478 43.1389 66.9534V68.0228Z" fill="white"/>
    <path d="M47.7179 64.2031C47.7179 64.5087 47.4123 64.8142 47.1068 64.8142H45.8845C45.579 64.8142 45.2734 64.5087 45.2734 64.2031V62.3698C42.829 62.0642 41.6068 60.6892 41.1484 58.7031C41.1484 58.3976 41.3012 58.092 41.6068 58.092H42.9818C43.2873 58.092 43.4401 58.2448 43.5929 58.5503C43.8984 59.6198 44.5095 60.5365 46.4957 60.5365C48.0234 60.5365 49.0929 59.7726 49.0929 58.5503C49.0929 57.3281 48.4818 56.8698 46.3429 56.5642C43.1345 56.1059 41.6068 55.1892 41.6068 52.592C41.6068 50.6059 43.1345 49.0781 45.2734 48.7726V46.9392C45.2734 46.6337 45.579 46.3281 45.8845 46.3281H47.1068C47.4123 46.3281 47.7179 46.6337 47.7179 46.9392V48.7726C49.5512 49.0781 50.7734 50.1476 51.079 51.8281C51.079 52.1337 50.9262 52.4392 50.6207 52.4392H49.3984C49.0929 52.4392 48.9401 52.2865 48.7873 51.9809C48.4818 50.9115 47.7179 50.4531 46.3429 50.4531C44.8151 50.4531 44.0512 51.217 44.0512 52.2865C44.0512 53.3559 44.5095 53.967 46.8012 54.2726C50.0095 54.7309 51.5373 55.6476 51.5373 58.2448C51.5373 60.2309 50.0096 61.9115 47.7179 62.3698V64.2031Z" fill="white"/>
    <path d="M50.6233 68.6352C50.1649 68.788 49.8594 68.4824 49.8594 68.0241V66.9546C49.8594 66.6491 50.0122 66.3435 50.3177 66.1908C54.7483 64.5102 57.8038 60.3852 57.8038 55.4963C57.8038 50.6074 54.5955 46.3296 50.3177 44.8019C50.0122 44.6491 49.8594 44.3435 49.8594 44.038V42.9685C49.8594 42.5102 50.1649 42.3574 50.6233 42.3574C56.1233 44.1908 60.2483 49.3852 60.2483 55.4963C60.2483 61.6074 56.276 66.8019 50.6233 68.6352Z" fill="white"/>
    <g filter="url(#filter0_d_10411_124002)">
        <circle cx="32.5" cy="41.3438" r="8" fill="url(#paint1_linear_10411_124002)"/>
        <path d="M32.5 49.3438C36.9183 49.3438 40.5 45.762 40.5 41.3438C40.5 36.9255 36.9183 33.3438 32.5 33.3438C28.0817 33.3438 24.5 36.9255 24.5 41.3438C24.5 45.762 28.0817 49.3438 32.5 49.3438Z" fill="#9159FF"/>
        <path d="M32.4968 36.543V43.1735L29.2969 41.432L32.4968 36.543Z" fill="white"/>
        <path d="M32.4968 36.543L35.6968 41.432L32.4968 43.1735V36.543Z" fill="white"/>
        <path d="M32.4968 43.7316V46.1429L29.2969 41.9909L32.4968 43.7316Z" fill="white"/>
        <path d="M32.4968 46.1429V43.7316L35.6969 41.9909L32.4968 46.1429Z" fill="white"/>
    </g>
    <path d="M95.3452 33.9801H99.0341V47.2841C99.0341 48.7424 98.6894 50.0251 98 51.1321C97.3172 52.2391 96.3561 53.1042 95.1165 53.7273C93.8769 54.3438 92.4285 54.652 90.7713 54.652C89.1075 54.652 87.6558 54.3438 86.4162 53.7273C85.1766 53.1042 84.2154 52.2391 83.5327 51.1321C82.8499 50.0251 82.5085 48.7424 82.5085 47.2841V33.9801H86.1974V46.9759C86.1974 47.8243 86.383 48.58 86.7543 49.2429C87.1321 49.9058 87.6624 50.4261 88.3452 50.804C89.0279 51.1752 89.8366 51.3608 90.7713 51.3608C91.706 51.3608 92.5147 51.1752 93.1974 50.804C93.8868 50.4261 94.4171 49.9058 94.7884 49.2429C95.1596 48.58 95.3452 47.8243 95.3452 46.9759V33.9801ZM113.55 39.5781C113.458 38.7098 113.067 38.0336 112.377 37.5497C111.694 37.0658 110.806 36.8239 109.712 36.8239C108.943 36.8239 108.284 36.9399 107.734 37.1719C107.183 37.4039 106.763 37.7187 106.471 38.1165C106.179 38.5142 106.03 38.9683 106.023 39.4787C106.023 39.9029 106.12 40.2708 106.312 40.5824C106.511 40.8939 106.779 41.1591 107.117 41.3778C107.455 41.59 107.83 41.7689 108.241 41.9148C108.652 42.0606 109.066 42.1832 109.484 42.2827L111.393 42.7599C112.162 42.9389 112.901 43.1809 113.61 43.4858C114.326 43.7907 114.966 44.1752 115.529 44.6392C116.099 45.1032 116.55 45.6634 116.881 46.3196C117.213 46.9759 117.379 47.7448 117.379 48.6264C117.379 49.8196 117.074 50.8703 116.464 51.7784C115.854 52.6799 114.972 53.3859 113.819 53.8963C112.672 54.4001 111.283 54.652 109.653 54.652C108.068 54.652 106.693 54.4067 105.526 53.9162C104.366 53.4257 103.458 52.7098 102.802 51.7685C102.152 50.8272 101.801 49.6804 101.748 48.3281H105.377C105.43 49.0374 105.649 49.6274 106.033 50.098C106.418 50.5687 106.918 50.92 107.535 51.152C108.158 51.384 108.854 51.5 109.623 51.5C110.425 51.5 111.128 51.3807 111.731 51.142C112.341 50.8968 112.818 50.5587 113.163 50.1278C113.507 49.6903 113.683 49.1799 113.69 48.5966C113.683 48.0663 113.527 47.6288 113.222 47.2841C112.917 46.9328 112.49 46.6411 111.94 46.4091C111.396 46.1705 110.76 45.9583 110.031 45.7727L107.714 45.1761C106.037 44.7453 104.711 44.0923 103.737 43.2173C102.769 42.3357 102.285 41.1657 102.285 39.7074C102.285 38.5076 102.61 37.4569 103.259 36.5554C103.915 35.6539 104.807 34.9545 105.934 34.4574C107.061 33.9536 108.337 33.7017 109.762 33.7017C111.207 33.7017 112.473 33.9536 113.56 34.4574C114.654 34.9545 115.513 35.6473 116.136 36.5355C116.759 37.4171 117.08 38.4313 117.1 39.5781H113.55ZM127.008 54.3438H120.107V33.9801H127.147C129.169 33.9801 130.906 34.3878 132.357 35.2031C133.816 36.0118 134.936 37.1752 135.718 38.6932C136.5 40.2112 136.891 42.0275 136.891 44.142C136.891 46.2633 136.497 48.0862 135.708 49.6108C134.926 51.1354 133.796 52.3054 132.318 53.1207C130.846 53.9361 129.076 54.3438 127.008 54.3438ZM123.796 51.152H126.829C128.247 51.152 129.431 50.8935 130.379 50.3764C131.326 49.8527 132.039 49.0739 132.516 48.0398C132.994 46.9991 133.232 45.6998 133.232 44.142C133.232 42.5843 132.994 41.2917 132.516 40.2642C132.039 39.2301 131.333 38.4579 130.398 37.9474C129.47 37.4304 128.317 37.1719 126.938 37.1719H123.796V51.152ZM157.267 40.8509H153.548C153.442 40.241 153.246 39.7008 152.961 39.2301C152.676 38.7528 152.322 38.3485 151.897 38.017C151.473 37.6856 150.989 37.437 150.446 37.2713C149.909 37.099 149.329 37.0128 148.706 37.0128C147.599 37.0128 146.618 37.2912 145.762 37.848C144.907 38.3982 144.238 39.2069 143.754 40.2741C143.27 41.3348 143.028 42.6307 143.028 44.1619C143.028 45.7197 143.27 47.0322 143.754 48.0994C144.244 49.16 144.914 49.9621 145.762 50.5057C146.618 51.0426 147.595 51.3111 148.696 51.3111C149.306 51.3111 149.876 51.2315 150.406 51.0724C150.943 50.9067 151.423 50.6648 151.848 50.3466C152.279 50.0284 152.64 49.6373 152.932 49.1733C153.23 48.7093 153.435 48.179 153.548 47.5824L157.267 47.6023C157.128 48.5701 156.826 49.4782 156.362 50.3267C155.905 51.1752 155.305 51.9242 154.562 52.5739C153.82 53.2169 152.951 53.7206 151.957 54.0852C150.963 54.4432 149.859 54.6222 148.646 54.6222C146.856 54.6222 145.259 54.2079 143.853 53.3793C142.448 52.5507 141.341 51.3542 140.532 49.7898C139.724 48.2254 139.319 46.3494 139.319 44.1619C139.319 41.9678 139.727 40.0919 140.542 38.5341C141.358 36.9697 142.468 35.7732 143.873 34.9446C145.279 34.116 146.869 33.7017 148.646 33.7017C149.78 33.7017 150.833 33.8608 151.808 34.179C152.782 34.4972 153.651 34.9645 154.413 35.581C155.175 36.1908 155.802 36.9399 156.292 37.8281C156.789 38.7098 157.114 39.7173 157.267 40.8509Z" fill="#FFFBFD"/>
    <path d="M81.5043 80.3438V70.1619H83.3487V74.4723H88.0668V70.1619H89.9162V80.3438H88.0668V76.0185H83.3487V80.3438H81.5043ZM91.8427 80.3438V72.7074H93.6424V80.3438H91.8427ZM92.7475 71.6236C92.4625 71.6236 92.2172 71.5291 92.0117 71.3402C91.8062 71.148 91.7035 70.9176 91.7035 70.6491C91.7035 70.3774 91.8062 70.147 92.0117 69.9581C92.2172 69.7659 92.4625 69.6697 92.7475 69.6697C93.0359 69.6697 93.2811 69.7659 93.4833 69.9581C93.6888 70.147 93.7915 70.3774 93.7915 70.6491C93.7915 70.9176 93.6888 71.148 93.4833 71.3402C93.2811 71.5291 93.0359 71.6236 92.7475 71.6236ZM98.8141 83.3665C98.1678 83.3665 97.6126 83.2786 97.1486 83.103C96.6846 82.9306 96.3117 82.6986 96.03 82.407C95.7483 82.1153 95.5527 81.7921 95.4434 81.4375L97.0641 81.0447C97.137 81.1939 97.2431 81.3414 97.3823 81.4872C97.5215 81.6364 97.7087 81.759 97.9441 81.8551C98.1827 81.9545 98.4827 82.0043 98.8439 82.0043C99.3543 82.0043 99.7769 81.88 100.112 81.6314C100.446 81.3861 100.614 80.9818 100.614 80.4183V78.9716H100.524C100.432 79.1572 100.296 79.3478 100.117 79.5433C99.941 79.7389 99.7073 79.9029 99.4157 80.0355C99.1273 80.1681 98.7644 80.2344 98.3269 80.2344C97.7402 80.2344 97.2083 80.0968 96.731 79.8217C96.257 79.5433 95.8792 79.129 95.5975 78.5788C95.3191 78.0253 95.1799 77.3326 95.1799 76.5007C95.1799 75.6622 95.3191 74.9545 95.5975 74.3778C95.8792 73.7978 96.2587 73.3587 96.736 73.0604C97.2132 72.7588 97.7452 72.608 98.3319 72.608C98.7793 72.608 99.1472 72.6842 99.4355 72.8366C99.7272 72.9858 99.9592 73.1664 100.132 73.3786C100.304 73.5874 100.435 73.7846 100.524 73.9702H100.624V72.7074H102.399V80.468C102.399 81.121 102.243 81.6612 101.931 82.0888C101.62 82.5163 101.194 82.8362 100.654 83.0483C100.113 83.2604 99.5002 83.3665 98.8141 83.3665ZM98.829 78.8224C99.2102 78.8224 99.535 78.7296 99.8034 78.544C100.072 78.3584 100.276 78.0916 100.415 77.7436C100.554 77.3956 100.624 76.978 100.624 76.4908C100.624 76.0102 100.554 75.5893 100.415 75.228C100.279 74.8667 100.077 74.5866 99.8084 74.3878C99.5433 74.1856 99.2168 74.0845 98.829 74.0845C98.428 74.0845 98.0932 74.1889 97.8248 74.3977C97.5563 74.6065 97.3541 74.8932 97.2182 75.2578C97.0823 75.6191 97.0144 76.0301 97.0144 76.4908C97.0144 76.9581 97.0823 77.3674 97.2182 77.7188C97.3574 78.0668 97.5613 78.3385 97.8297 78.5341C98.1015 78.7263 98.4346 78.8224 98.829 78.8224ZM106.043 75.8693V80.3438H104.243V70.1619H106.003V74.005H106.093C106.271 73.5741 106.548 73.2344 106.923 72.9858C107.301 72.7339 107.781 72.608 108.365 72.608C108.895 72.608 109.357 72.719 109.752 72.9411C110.146 73.1631 110.451 73.4879 110.666 73.9155C110.885 74.343 110.994 74.8651 110.994 75.4815V80.3438H109.195V75.7599C109.195 75.2462 109.062 74.8468 108.797 74.5618C108.535 74.2734 108.167 74.1293 107.693 74.1293C107.375 74.1293 107.09 74.1989 106.838 74.3381C106.59 74.474 106.394 74.6712 106.252 74.9297C106.112 75.1882 106.043 75.5014 106.043 75.8693ZM116.21 80.4929C115.444 80.4929 114.783 80.3338 114.226 80.0156C113.673 79.6941 113.247 79.2401 112.948 78.6534C112.65 78.0634 112.501 77.3691 112.501 76.5703C112.501 75.7848 112.65 75.0954 112.948 74.5021C113.25 73.9055 113.671 73.4415 114.211 73.1101C114.751 72.7753 115.386 72.608 116.115 72.608C116.586 72.608 117.03 72.6842 117.448 72.8366C117.869 72.9858 118.24 73.2178 118.561 73.5327C118.886 73.8475 119.141 74.2486 119.327 74.7358C119.512 75.2197 119.605 75.7964 119.605 76.4659V77.0178H113.346V75.8047H117.88C117.877 75.46 117.802 75.1534 117.656 74.8849C117.511 74.6132 117.307 74.3994 117.045 74.2436C116.786 74.0878 116.485 74.0099 116.14 74.0099C115.772 74.0099 115.449 74.0994 115.171 74.2784C114.892 74.4541 114.675 74.6861 114.519 74.9744C114.367 75.2595 114.289 75.5727 114.286 75.9141V76.973C114.286 77.4171 114.367 77.7983 114.529 78.1165C114.692 78.4313 114.919 78.6733 115.21 78.8423C115.502 79.008 115.843 79.0909 116.235 79.0909C116.496 79.0909 116.733 79.0545 116.945 78.9815C117.158 78.9053 117.342 78.7943 117.497 78.6484C117.653 78.5026 117.771 78.322 117.85 78.1065L119.531 78.2955C119.425 78.7396 119.222 79.1274 118.924 79.4588C118.629 79.7869 118.251 80.0421 117.791 80.2244C117.33 80.4034 116.803 80.4929 116.21 80.4929ZM121.128 80.3438V72.7074H122.873V73.9801H122.952C123.092 73.5393 123.33 73.1996 123.668 72.9609C124.01 72.719 124.399 72.598 124.837 72.598C124.936 72.598 125.047 72.603 125.17 72.6129C125.296 72.6196 125.4 72.6312 125.483 72.6477V74.3033C125.407 74.2768 125.286 74.2536 125.12 74.2337C124.958 74.2105 124.8 74.1989 124.648 74.1989C124.32 74.1989 124.025 74.2701 123.763 74.4126C123.504 74.5518 123.3 74.7457 123.151 74.9943C123.002 75.2429 122.928 75.5296 122.928 75.8544V80.3438H121.128ZM130.231 80.3438V70.1619H134.049C134.831 70.1619 135.487 70.2978 136.018 70.5696C136.551 70.8414 136.954 71.2225 137.226 71.7131C137.501 72.2003 137.638 72.7687 137.638 73.4183C137.638 74.0713 137.499 74.638 137.221 75.1186C136.946 75.5959 136.54 75.9654 136.003 76.2273C135.466 76.4858 134.806 76.6151 134.024 76.6151H131.305V75.0838H133.776C134.233 75.0838 134.607 75.0208 134.899 74.8949C135.191 74.7656 135.406 74.5784 135.545 74.3331C135.688 74.0845 135.759 73.7796 135.759 73.4183C135.759 73.0571 135.688 72.7488 135.545 72.4936C135.403 72.2351 135.186 72.0395 134.894 71.907C134.603 71.7711 134.226 71.7031 133.766 71.7031H132.075V80.3438H130.231ZM135.491 75.7301L138.011 80.3438H135.953L133.477 75.7301H135.491ZM139.257 80.3438V72.7074H141.056V80.3438H139.257ZM140.162 71.6236C139.877 71.6236 139.631 71.5291 139.426 71.3402C139.22 71.148 139.118 70.9176 139.118 70.6491C139.118 70.3774 139.22 70.147 139.426 69.9581C139.631 69.7659 139.877 69.6697 140.162 69.6697C140.45 69.6697 140.695 69.7659 140.897 69.9581C141.103 70.147 141.206 70.3774 141.206 70.6491C141.206 70.9176 141.103 71.148 140.897 71.3402C140.695 71.5291 140.45 71.6236 140.162 71.6236ZM148.943 74.7259L147.302 74.9048C147.256 74.7391 147.174 74.5833 147.058 74.4375C146.946 74.2917 146.793 74.174 146.601 74.0845C146.409 73.995 146.173 73.9503 145.895 73.9503C145.521 73.9503 145.206 74.0315 144.95 74.1939C144.699 74.3563 144.574 74.5668 144.578 74.8253C144.574 75.0473 144.655 75.228 144.821 75.3672C144.99 75.5064 145.269 75.6207 145.656 75.7102L146.959 75.9886C147.682 76.1444 148.218 76.3913 148.57 76.7294C148.924 77.0675 149.103 77.5099 149.107 78.0568C149.103 78.5374 148.963 78.9616 148.684 79.3295C148.409 79.6941 148.026 79.9792 147.536 80.1847C147.045 80.3902 146.482 80.4929 145.845 80.4929C144.911 80.4929 144.158 80.2973 143.588 79.9062C143.018 79.5118 142.678 78.9633 142.569 78.2607L144.324 78.0916C144.404 78.4363 144.573 78.6965 144.831 78.8722C145.09 79.0478 145.426 79.1357 145.84 79.1357C146.268 79.1357 146.611 79.0478 146.869 78.8722C147.131 78.6965 147.262 78.4794 147.262 78.2209C147.262 78.0021 147.178 77.8215 147.009 77.679C146.843 77.5365 146.584 77.4271 146.233 77.3509L144.931 77.0774C144.198 76.925 143.656 76.6681 143.305 76.3068C142.954 75.9422 142.78 75.4815 142.783 74.9247C142.78 74.4541 142.907 74.0464 143.166 73.7017C143.427 73.3537 143.79 73.0852 144.254 72.8963C144.722 72.7041 145.26 72.608 145.87 72.608C146.765 72.608 147.469 72.7985 147.983 73.1797C148.5 73.5608 148.82 74.0762 148.943 74.7259ZM152.231 77.9474L152.226 75.7749H152.515L155.259 72.7074H157.362L153.986 76.4659H153.613L152.231 77.9474ZM150.591 80.3438V70.1619H152.39V80.3438H150.591ZM155.383 80.3438L152.898 76.8686L154.111 75.6009L157.536 80.3438H155.383Z" fill="#FF5739"/>
    <path d="M175.382 73.6294C175.382 73.9874 175.334 74.2996 175.169 74.5933C175.013 74.8779 174.715 75.1762 174.274 75.4883L173.847 75.805C173.59 75.9886 173.397 76.1722 173.269 76.3558C173.238 76.4038 173.212 76.4596 173.19 76.5198C173.087 76.8082 172.855 77.058 172.549 77.058H172.148C171.821 77.058 171.56 76.7809 171.663 76.471C171.726 76.2813 171.81 76.102 171.906 75.9565C172.099 75.6535 172.379 75.3736 172.746 75.1165C173.14 74.8412 173.42 74.5979 173.586 74.3868C173.751 74.1756 173.834 73.9416 173.834 73.6846C173.834 73.3541 173.728 73.0971 173.517 72.9135C173.306 72.7207 173.003 72.6243 172.608 72.6243C172.232 72.6243 171.915 72.7345 171.658 72.9548C171.457 73.1271 171.323 73.3415 171.257 73.5981L169.736 73.2178C169.891 72.7162 170.165 72.3072 170.556 71.9909C171.08 71.5687 171.699 71.3438 172.525 71.3438C173.407 71.3438 174.155 71.5595 174.66 71.9634C175.165 72.3581 175.382 72.9226 175.382 73.6294Z" fill="#FF5739"/>
    <path d="M172.119 79.3437C171.804 79.3437 171.548 79.0878 171.548 78.7723V78.4143C171.548 78.0987 171.804 77.8428 172.119 77.8428H172.587C172.903 77.8428 173.159 78.0987 173.159 78.4143V78.7723C173.159 79.0878 172.903 79.3437 172.587 79.3437H172.119Z" fill="#FF5739"/>
    <path fill-rule="evenodd" clip-rule="evenodd" d="M172.5 67.3438C168.082 67.3438 164.5 70.9255 164.5 75.3438C164.5 79.762 168.082 83.3438 172.5 83.3438C176.918 83.3438 180.5 79.762 180.5 75.3438C180.5 70.9255 176.918 67.3438 172.5 67.3438ZM166.5 75.3438C166.5 72.03 169.186 69.3438 172.5 69.3438C175.814 69.3438 178.5 72.03 178.5 75.3438C178.5 78.6575 175.814 81.3438 172.5 81.3438C169.186 81.3438 166.5 78.6575 166.5 75.3438Z" fill="#FF5739"/>
    <path d="M358.5 55.3438C358.5 44.2981 367.454 35.3438 378.5 35.3438H471.5C482.546 35.3438 491.5 44.2981 491.5 55.3438C491.5 66.3894 482.546 75.3438 471.5 75.3438H378.5C367.454 75.3438 358.5 66.3894 358.5 55.3438Z" fill="url(#paint2_linear_10411_124002)"/>
    <path fill-rule="evenodd" clip-rule="evenodd" d="M376.836 46.2609C376.855 46.1761 377.012 46.1761 377.03 46.2609C377.179 46.9451 377.513 48.1352 378.127 48.7491C378.741 49.363 379.931 49.697 380.615 49.8459C380.7 49.8643 380.7 50.0217 380.615 50.0401C379.931 50.189 378.741 50.523 378.127 51.1369C377.513 51.7508 377.179 52.9409 377.03 53.6251C377.012 53.7099 376.855 53.7099 376.836 53.6251C376.687 52.9409 376.353 51.7508 375.739 51.1369C375.125 50.523 373.935 50.189 373.251 50.0401C373.166 50.0217 373.166 49.8643 373.251 49.8459C373.935 49.697 375.125 49.363 375.739 48.7491C376.353 48.1352 376.687 46.9451 376.836 46.2609ZM378.634 58.2602C378.653 58.1756 378.814 58.1756 378.833 58.2602C378.968 58.8552 379.252 59.8148 379.757 60.3197C380.262 60.8246 381.221 61.1087 381.816 61.2435C381.901 61.2627 381.901 61.4234 381.816 61.4426C381.221 61.5775 380.262 61.8615 379.757 62.3664C379.252 62.8713 378.968 63.8309 378.833 64.4259C378.814 64.5105 378.653 64.5105 378.634 64.4259C378.499 63.8309 378.215 62.8713 377.71 62.3664C377.205 61.8615 376.245 61.5775 375.651 61.4426C375.566 61.4234 375.566 61.2627 375.651 61.2435C376.246 61.1087 377.205 60.8246 377.71 60.3197C378.215 59.8148 378.499 58.8552 378.634 58.2602ZM386.026 49.861C386.009 49.7759 385.858 49.7759 385.841 49.861C385.656 50.7803 385.176 52.6897 384.228 53.6376C383.28 54.5854 381.37 55.0662 380.451 55.2508C380.366 55.2679 380.366 55.4183 380.451 55.4354C381.37 55.62 383.28 56.1008 384.228 57.0486C385.176 57.9965 385.656 59.9059 385.841 60.8252C385.858 60.9103 386.009 60.9103 386.026 60.8253C386.21 59.9059 386.691 57.9965 387.639 57.0486C388.587 56.1008 390.496 55.62 391.415 55.4354C391.501 55.4183 391.501 55.2679 391.415 55.2508C390.496 55.0662 388.587 54.5854 387.639 53.6376C386.691 52.6897 386.21 50.7803 386.026 49.861Z" fill="#FFFBFD"/>
    <path d="M403.546 50.1619V60.3438H401.702V51.9567H401.642L399.261 53.478V51.7876L401.791 50.1619H403.546ZM406.699 60.4531C406.398 60.4531 406.139 60.3471 405.924 60.1349C405.708 59.9228 405.602 59.6643 405.606 59.3594C405.602 59.0611 405.708 58.8059 405.924 58.5938C406.139 58.3816 406.398 58.2756 406.699 58.2756C406.991 58.2756 407.245 58.3816 407.46 58.5938C407.679 58.8059 407.79 59.0611 407.793 59.3594C407.79 59.5616 407.737 59.7455 407.634 59.9112C407.535 60.0769 407.402 60.2095 407.236 60.3089C407.074 60.4051 406.895 60.4531 406.699 60.4531ZM412.515 50.1619V60.3438H410.67V51.9567H410.611L408.229 53.478V51.7876L410.76 50.1619H412.515ZM420.544 58.4347V57.8977C420.544 57.5033 420.627 57.1404 420.793 56.8089C420.962 56.4775 421.207 56.2107 421.528 56.0085C421.85 55.8063 422.239 55.7053 422.697 55.7053C423.167 55.7053 423.562 55.8063 423.88 56.0085C424.198 56.2074 424.438 56.4725 424.601 56.804C424.767 57.1354 424.849 57.5 424.849 57.8977V58.4347C424.849 58.8291 424.767 59.192 424.601 59.5234C424.435 59.8549 424.192 60.1217 423.87 60.3239C423.552 60.526 423.161 60.6271 422.697 60.6271C422.233 60.6271 421.84 60.526 421.518 60.3239C421.197 60.1217 420.953 59.8549 420.788 59.5234C420.625 59.192 420.544 58.8291 420.544 58.4347ZM421.842 57.8977V58.4347C421.842 58.6965 421.905 58.9368 422.031 59.1555C422.156 59.3743 422.379 59.4837 422.697 59.4837C423.018 59.4837 423.239 59.3759 423.358 59.1605C423.481 58.9418 423.542 58.6998 423.542 58.4347V57.8977C423.542 57.6326 423.484 57.3906 423.368 57.1719C423.252 56.9498 423.028 56.8388 422.697 56.8388C422.385 56.8388 422.165 56.9498 422.036 57.1719C421.906 57.3906 421.842 57.6326 421.842 57.8977ZM415.369 52.608V52.071C415.369 51.6733 415.453 51.3087 415.622 50.9773C415.791 50.6458 416.036 50.3807 416.358 50.1818C416.679 49.9796 417.069 49.8786 417.526 49.8786C417.994 49.8786 418.386 49.9796 418.705 50.1818C419.026 50.3807 419.268 50.6458 419.43 50.9773C419.593 51.3087 419.674 51.6733 419.674 52.071V52.608C419.674 53.0057 419.591 53.3703 419.425 53.7017C419.263 54.0298 419.021 54.2933 418.7 54.4922C418.378 54.6911 417.987 54.7905 417.526 54.7905C417.059 54.7905 416.665 54.6911 416.343 54.4922C416.025 54.2933 415.783 54.0282 415.617 53.6967C415.451 53.3653 415.369 53.0024 415.369 52.608ZM416.676 52.071V52.608C416.676 52.8731 416.737 53.1151 416.86 53.3338C416.986 53.5492 417.208 53.657 417.526 53.657C417.844 53.657 418.063 53.5492 418.183 53.3338C418.305 53.1151 418.366 52.8731 418.366 52.608V52.071C418.366 51.8059 418.308 51.5639 418.192 51.3452C418.076 51.1231 417.854 51.0121 417.526 51.0121C417.211 51.0121 416.991 51.1231 416.865 51.3452C416.739 51.5672 416.676 51.8092 416.676 52.071ZM415.935 60.3438L422.935 50.1619H424.178L417.178 60.3438H415.935ZM436.018 52.9609C435.972 52.5268 435.776 52.1887 435.431 51.9467C435.09 51.7048 434.646 51.5838 434.099 51.5838C433.715 51.5838 433.385 51.6418 433.11 51.7578C432.835 51.8738 432.624 52.0312 432.478 52.2301C432.333 52.429 432.258 52.656 432.255 52.9112C432.255 53.1233 432.303 53.3073 432.399 53.4631C432.498 53.6188 432.632 53.7514 432.801 53.8608C432.971 53.9669 433.158 54.0563 433.363 54.1293C433.569 54.2022 433.776 54.2635 433.985 54.3132L434.939 54.5518C435.324 54.6413 435.693 54.7623 436.048 54.9148C436.406 55.0672 436.726 55.2595 437.007 55.4915C437.292 55.7235 437.518 56.0036 437.684 56.3317C437.849 56.6598 437.932 57.0443 437.932 57.4851C437.932 58.0817 437.78 58.607 437.475 59.0611C437.17 59.5118 436.729 59.8648 436.152 60.12C435.579 60.3719 434.885 60.4979 434.069 60.4979C433.277 60.4979 432.589 60.3752 432.006 60.13C431.426 59.8847 430.972 59.5268 430.644 59.0561C430.319 58.5855 430.143 58.0121 430.117 57.3359H431.931C431.958 57.6906 432.067 57.9856 432.26 58.2209C432.452 58.4562 432.702 58.6319 433.01 58.7479C433.322 58.8639 433.67 58.9219 434.054 58.9219C434.455 58.9219 434.807 58.8622 435.108 58.7429C435.413 58.6203 435.652 58.4512 435.824 58.2358C435.997 58.017 436.084 57.7618 436.088 57.4702C436.084 57.205 436.007 56.9863 435.854 56.8139C435.702 56.6383 435.488 56.4924 435.213 56.3764C434.941 56.2571 434.623 56.151 434.258 56.0582L433.1 55.7599C432.261 55.5445 431.598 55.218 431.111 54.7805C430.627 54.3397 430.385 53.7547 430.385 53.0256C430.385 52.4257 430.548 51.9003 430.873 51.4496C431.201 50.9988 431.646 50.6491 432.21 50.4006C432.773 50.1487 433.411 50.0227 434.124 50.0227C434.846 50.0227 435.48 50.1487 436.023 50.4006C436.57 50.6491 436.999 50.9955 437.311 51.4396C437.622 51.8804 437.783 52.3875 437.793 52.9609H436.018ZM445.995 50.1619H447.839V56.8139C447.839 57.5431 447.667 58.1844 447.322 58.7379C446.981 59.2914 446.5 59.724 445.881 60.0355C445.261 60.3438 444.537 60.4979 443.708 60.4979C442.876 60.4979 442.15 60.3438 441.53 60.0355C440.911 59.724 440.43 59.2914 440.089 58.7379C439.747 58.1844 439.577 57.5431 439.577 56.8139V50.1619H441.421V56.6598C441.421 57.084 441.514 57.4619 441.699 57.7933C441.888 58.1248 442.153 58.3849 442.495 58.5739C442.836 58.7595 443.241 58.8523 443.708 58.8523C444.175 58.8523 444.58 58.7595 444.921 58.5739C445.266 58.3849 445.531 58.1248 445.716 57.7933C445.902 57.4619 445.995 57.084 445.995 56.6598V50.1619ZM449.844 50.1619H452.101L455.124 57.5398H455.243L458.266 50.1619H460.523V60.3438H458.753V53.3487H458.659L455.845 60.3139H454.522L451.708 53.3338H451.614V60.3438H449.844V50.1619ZM462.532 60.3438V50.1619H466.35C467.132 50.1619 467.788 50.2978 468.319 50.5696C468.852 50.8414 469.255 51.2225 469.527 51.7131C469.802 52.2003 469.939 52.7687 469.939 53.4183C469.939 54.0713 469.8 54.638 469.522 55.1186C469.247 55.5959 468.841 55.9654 468.304 56.2273C467.767 56.4858 467.107 56.6151 466.325 56.6151H463.605V55.0838H466.076C466.534 55.0838 466.908 55.0208 467.2 54.8949C467.492 54.7656 467.707 54.5784 467.846 54.3331C467.989 54.0845 468.06 53.7796 468.06 53.4183C468.06 53.0571 467.989 52.7488 467.846 52.4936C467.704 52.2351 467.487 52.0395 467.195 51.907C466.903 51.7711 466.527 51.7031 466.066 51.7031H464.376V60.3438H462.532ZM467.792 55.7301L470.312 60.3438H468.254L465.778 55.7301H467.792Z" fill="#FFFBFD"/>
    <path d="M25.3576 117.708V116.162H33.4812V117.708H30.3342V126.344H28.5046V117.708H25.3576ZM37.1912 126.493C36.4455 126.493 35.7992 126.329 35.2523 126.001C34.7054 125.673 34.2812 125.214 33.9796 124.624C33.6813 124.034 33.5321 123.344 33.5321 122.555C33.5321 121.767 33.6813 121.076 33.9796 120.482C34.2812 119.889 34.7054 119.428 35.2523 119.1C35.7992 118.772 36.4455 118.608 37.1912 118.608C37.937 118.608 38.5833 118.772 39.1301 119.1C39.677 119.428 40.0996 119.889 40.3979 120.482C40.6995 121.076 40.8503 121.767 40.8503 122.555C40.8503 123.344 40.6995 124.034 40.3979 124.624C40.0996 125.214 39.677 125.673 39.1301 126.001C38.5833 126.329 37.937 126.493 37.1912 126.493ZM37.2012 125.051C37.6055 125.051 37.9436 124.94 38.2154 124.718C38.4872 124.493 38.6893 124.191 38.8219 123.813C38.9578 123.435 39.0257 123.014 39.0257 122.55C39.0257 122.083 38.9578 121.661 38.8219 121.283C38.6893 120.902 38.4872 120.598 38.2154 120.373C37.9436 120.147 37.6055 120.035 37.2012 120.035C36.7869 120.035 36.4422 120.147 36.1671 120.373C35.8953 120.598 35.6915 120.902 35.5556 121.283C35.423 121.661 35.3567 122.083 35.3567 122.55C35.3567 123.014 35.423 123.435 35.5556 123.813C35.6915 124.191 35.8953 124.493 36.1671 124.718C36.4422 124.94 36.7869 125.051 37.2012 125.051ZM46.1911 118.707V120.099H41.8011V118.707H46.1911ZM42.8849 116.878H44.6847V124.047C44.6847 124.289 44.7211 124.474 44.794 124.604C44.8703 124.73 44.9697 124.816 45.0923 124.862C45.215 124.909 45.3509 124.932 45.5 124.932C45.6127 124.932 45.7154 124.924 45.8082 124.907C45.9044 124.89 45.9773 124.875 46.027 124.862L46.3303 126.269C46.2341 126.302 46.0966 126.339 45.9176 126.379C45.742 126.418 45.5265 126.442 45.2713 126.448C44.8205 126.461 44.4145 126.393 44.0533 126.244C43.692 126.092 43.4053 125.857 43.1932 125.538C42.9844 125.22 42.8816 124.822 42.8849 124.345V116.878ZM49.8936 126.498C49.4097 126.498 48.9739 126.412 48.5861 126.239C48.2016 126.064 47.8967 125.805 47.6713 125.464C47.4493 125.122 47.3382 124.701 47.3382 124.201C47.3382 123.77 47.4178 123.414 47.5769 123.132C47.736 122.85 47.9531 122.625 48.2282 122.456C48.5033 122.287 48.8132 122.159 49.1578 122.073C49.5059 121.984 49.8655 121.919 50.2367 121.879C50.6841 121.833 51.0471 121.791 51.3255 121.755C51.6039 121.715 51.806 121.656 51.932 121.576C52.0613 121.493 52.1259 121.366 52.1259 121.193V121.163C52.1259 120.789 52.0149 120.499 51.7928 120.293C51.5707 120.088 51.2509 119.985 50.8333 119.985C50.3925 119.985 50.0428 120.081 49.7843 120.273C49.5291 120.466 49.3567 120.693 49.2672 120.955L47.5868 120.716C47.7194 120.252 47.9382 119.864 48.2431 119.553C48.548 119.238 48.9209 119.002 49.3617 118.847C49.8025 118.688 50.2897 118.608 50.8233 118.608C51.1912 118.608 51.5575 118.651 51.9221 118.737C52.2866 118.823 52.6197 118.966 52.9213 119.165C53.223 119.36 53.4649 119.627 53.6472 119.965C53.8328 120.303 53.9256 120.726 53.9256 121.233V126.344H52.1955V125.295H52.1358C52.0265 125.507 51.8723 125.706 51.6735 125.891C51.4779 126.074 51.231 126.221 50.9327 126.334C50.6377 126.443 50.2914 126.498 49.8936 126.498ZM50.361 125.175C50.7222 125.175 51.0355 125.104 51.3006 124.962C51.5658 124.816 51.7696 124.624 51.9121 124.385C52.0579 124.146 52.1309 123.886 52.1309 123.604V122.705C52.0745 122.751 51.9784 122.794 51.8425 122.834C51.7099 122.874 51.5608 122.908 51.3951 122.938C51.2293 122.968 51.0653 122.995 50.9029 123.018C50.7405 123.041 50.5996 123.061 50.4803 123.077C50.2118 123.114 49.9715 123.174 49.7594 123.256C49.5473 123.339 49.3799 123.455 49.2573 123.604C49.1346 123.75 49.0733 123.939 49.0733 124.171C49.0733 124.503 49.1943 124.753 49.4363 124.922C49.6782 125.091 49.9864 125.175 50.361 125.175ZM57.535 116.162V126.344H55.7353V116.162H57.535ZM64.2454 126.344H62.2766L65.8612 116.162H68.1381L71.7276 126.344H69.7589L67.0394 118.25H66.9599L64.2454 126.344ZM64.31 122.352H69.6793V123.833H64.31V122.352ZM78.9016 120.726L77.261 120.905C77.2146 120.739 77.1334 120.583 77.0174 120.438C76.9047 120.292 76.7522 120.174 76.56 120.085C76.3678 119.995 76.1325 119.95 75.854 119.95C75.4795 119.95 75.1647 120.031 74.9094 120.194C74.6576 120.356 74.5333 120.567 74.5366 120.825C74.5333 121.047 74.6145 121.228 74.7802 121.367C74.9492 121.506 75.2276 121.621 75.6154 121.71L76.918 121.989C77.6405 122.144 78.1774 122.391 78.5288 122.729C78.8834 123.067 79.0624 123.51 79.0657 124.057C79.0624 124.537 78.9215 124.962 78.6431 125.33C78.368 125.694 77.9852 125.979 77.4947 126.185C77.0041 126.39 76.4407 126.493 75.8043 126.493C74.8697 126.493 74.1173 126.297 73.5472 125.906C72.9772 125.512 72.6374 124.963 72.5281 124.261L74.283 124.092C74.3626 124.436 74.5316 124.696 74.7901 124.872C75.0487 125.048 75.3851 125.136 75.7994 125.136C76.2269 125.136 76.57 125.048 76.8285 124.872C77.0903 124.696 77.2212 124.479 77.2212 124.221C77.2212 124.002 77.1367 123.821 76.9677 123.679C76.802 123.536 76.5434 123.427 76.1921 123.351L74.8896 123.077C74.1571 122.925 73.6152 122.668 73.2638 122.307C72.9125 121.942 72.7385 121.482 72.7418 120.925C72.7385 120.454 72.8661 120.046 73.1246 119.702C73.3865 119.354 73.7494 119.085 74.2134 118.896C74.6808 118.704 75.2193 118.608 75.8292 118.608C76.7241 118.608 77.4284 118.799 77.9421 119.18C78.4592 119.561 78.779 120.076 78.9016 120.726ZM86.5852 120.726L84.9446 120.905C84.8982 120.739 84.817 120.583 84.701 120.438C84.5883 120.292 84.4358 120.174 84.2436 120.085C84.0514 119.995 83.8161 119.95 83.5376 119.95C83.1631 119.95 82.8482 120.031 82.593 120.194C82.3411 120.356 82.2169 120.567 82.2202 120.825C82.2169 121.047 82.2981 121.228 82.4638 121.367C82.6328 121.506 82.9112 121.621 83.299 121.71L84.6016 121.989C85.3241 122.144 85.861 122.391 86.2124 122.729C86.567 123.067 86.746 123.51 86.7493 124.057C86.746 124.537 86.6051 124.962 86.3267 125.33C86.0516 125.694 85.6688 125.979 85.1783 126.185C84.6877 126.39 84.1243 126.493 83.4879 126.493C82.5533 126.493 81.8009 126.297 81.2308 125.906C80.6607 125.512 80.321 124.963 80.2116 124.261L81.9666 124.092C82.0462 124.436 82.2152 124.696 82.4737 124.872C82.7322 125.048 83.0687 125.136 83.483 125.136C83.9105 125.136 84.2536 125.048 84.5121 124.872C84.7739 124.696 84.9048 124.479 84.9048 124.221C84.9048 124.002 84.8203 123.821 84.6513 123.679C84.4856 123.536 84.227 123.427 83.8757 123.351L82.5732 123.077C81.8407 122.925 81.2988 122.668 80.9474 122.307C80.5961 121.942 80.4221 121.482 80.4254 120.925C80.4221 120.454 80.5497 120.046 80.8082 119.702C81.0701 119.354 81.433 119.085 81.897 118.896C82.3643 118.704 82.9029 118.608 83.5128 118.608C84.4077 118.608 85.112 118.799 85.6257 119.18C86.1428 119.561 86.4626 120.076 86.5852 120.726ZM91.614 126.493C90.8484 126.493 90.1871 126.334 89.6303 126.016C89.0768 125.694 88.6509 125.24 88.3526 124.653C88.0543 124.063 87.9052 123.369 87.9052 122.57C87.9052 121.785 88.0543 121.095 88.3526 120.502C88.6542 119.906 89.0752 119.442 89.6154 119.11C90.1557 118.775 90.7904 118.608 91.5195 118.608C91.9902 118.608 92.4343 118.684 92.8519 118.837C93.2728 118.986 93.6441 119.218 93.9656 119.533C94.2904 119.848 94.5456 120.249 94.7312 120.736C94.9168 121.22 95.0096 121.796 95.0096 122.466V123.018H88.7504V121.805H93.2844C93.2811 121.46 93.2066 121.153 93.0607 120.885C92.9149 120.613 92.7111 120.399 92.4492 120.244C92.1907 120.088 91.8891 120.01 91.5444 120.01C91.1765 120.01 90.8533 120.099 90.5749 120.278C90.2965 120.454 90.0794 120.686 89.9237 120.974C89.7712 121.259 89.6933 121.573 89.69 121.914V122.973C89.69 123.417 89.7712 123.798 89.9336 124.116C90.096 124.431 90.323 124.673 90.6147 124.842C90.9064 125.008 91.2478 125.091 91.6388 125.091C91.9007 125.091 92.1377 125.054 92.3498 124.982C92.5619 124.905 92.7459 124.794 92.9016 124.648C93.0574 124.503 93.1751 124.322 93.2546 124.107L94.935 124.295C94.829 124.74 94.6268 125.127 94.3285 125.459C94.0335 125.787 93.6557 126.042 93.195 126.224C92.7343 126.403 92.2073 126.493 91.614 126.493ZM100.345 118.707V120.099H95.9554V118.707H100.345ZM97.0392 116.878H98.839V124.047C98.839 124.289 98.8754 124.474 98.9483 124.604C99.0246 124.73 99.124 124.816 99.2466 124.862C99.3693 124.909 99.5051 124.932 99.6543 124.932C99.767 124.932 99.8697 124.924 99.9625 124.907C100.059 124.89 100.132 124.875 100.181 124.862L100.485 126.269C100.388 126.302 100.251 126.339 100.072 126.379C99.8962 126.418 99.6808 126.442 99.4256 126.448C98.9748 126.461 98.5688 126.393 98.2076 126.244C97.8463 126.092 97.5596 125.857 97.3475 125.538C97.1387 125.22 97.0359 124.822 97.0392 124.345V116.878ZM107.777 120.726L106.136 120.905C106.09 120.739 106.008 120.583 105.892 120.438C105.78 120.292 105.627 120.174 105.435 120.085C105.243 119.995 105.007 119.95 104.729 119.95C104.355 119.95 104.04 120.031 103.784 120.194C103.533 120.356 103.408 120.567 103.412 120.825C103.408 121.047 103.489 121.228 103.655 121.367C103.824 121.506 104.103 121.621 104.49 121.71L105.793 121.989C106.516 122.144 107.052 122.391 107.404 122.729C107.758 123.067 107.937 123.51 107.941 124.057C107.937 124.537 107.797 124.962 107.518 125.33C107.243 125.694 106.86 125.979 106.37 126.185C105.879 126.39 105.316 126.493 104.679 126.493C103.745 126.493 102.992 126.297 102.422 125.906C101.852 125.512 101.512 124.963 101.403 124.261L103.158 124.092C103.238 124.436 103.407 124.696 103.665 124.872C103.924 125.048 104.26 125.136 104.674 125.136C105.102 125.136 105.445 125.048 105.703 124.872C105.965 124.696 106.096 124.479 106.096 124.221C106.096 124.002 106.012 123.821 105.843 123.679C105.677 123.536 105.418 123.427 105.067 123.351L103.765 123.077C103.032 122.925 102.49 122.668 102.139 122.307C101.788 121.942 101.614 121.482 101.617 120.925C101.614 120.454 101.741 120.046 102 119.702C102.261 119.354 102.624 119.085 103.088 118.896C103.556 118.704 104.094 118.608 104.704 118.608C105.599 118.608 106.303 118.799 106.817 119.18C107.334 119.561 107.654 120.076 107.777 120.726Z" fill="#777576"/>
    <path d="M29.8821 154.98V138.616H30.9304V154.98H29.8821ZM32.9055 143.852C32.8459 143.293 32.5945 142.859 32.1513 142.548C31.7124 142.237 31.1413 142.081 30.4382 142.081C29.9439 142.081 29.5199 142.156 29.1662 142.305C28.8125 142.454 28.5419 142.656 28.3544 142.912C28.1669 143.168 28.071 143.46 28.0668 143.788C28.0668 144.06 28.1286 144.297 28.2521 144.497C28.38 144.697 28.5526 144.868 28.7699 145.009C28.9872 145.145 29.228 145.26 29.4922 145.354C29.7564 145.447 30.0227 145.526 30.2912 145.59L31.5185 145.897C32.0128 146.012 32.4879 146.168 32.9439 146.364C33.4041 146.56 33.8153 146.807 34.1776 147.105C34.544 147.403 34.8338 147.763 35.0469 148.185C35.2599 148.607 35.3665 149.102 35.3665 149.668C35.3665 150.435 35.1705 151.111 34.7784 151.695C34.3864 152.274 33.8196 152.728 33.0781 153.056C32.3409 153.38 31.4482 153.542 30.3999 153.542C29.3814 153.542 28.4972 153.384 27.7472 153.069C27.0014 152.754 26.4176 152.293 25.9957 151.688C25.5781 151.083 25.3523 150.346 25.3182 149.477H27.6513C27.6854 149.933 27.826 150.312 28.0732 150.614C28.3203 150.917 28.642 151.143 29.0384 151.292C29.4389 151.441 29.8864 151.516 30.3807 151.516C30.8963 151.516 31.348 151.439 31.7358 151.286C32.1278 151.128 32.4347 150.911 32.6562 150.634C32.8778 150.352 32.9908 150.024 32.995 149.649C32.9908 149.308 32.8906 149.027 32.6946 148.805C32.4986 148.58 32.2237 148.392 31.87 148.243C31.5206 148.089 31.1115 147.953 30.6428 147.834L29.1534 147.45C28.0753 147.173 27.223 146.754 26.5966 146.191C25.9744 145.624 25.6634 144.872 25.6634 143.935C25.6634 143.163 25.8722 142.488 26.2898 141.908C26.7116 141.329 27.2848 140.879 28.0092 140.56C28.7337 140.236 29.554 140.074 30.4702 140.074C31.3991 140.074 32.2131 140.236 32.9119 140.56C33.6151 140.879 34.1669 141.325 34.5675 141.896C34.968 142.462 35.1747 143.114 35.1875 143.852H32.9055ZM42.0062 153.523C41.0559 153.523 40.2122 153.363 39.475 153.043C38.742 152.724 38.1667 152.287 37.7491 151.733C37.3358 151.175 37.1312 150.542 37.1355 149.835C37.1312 149.285 37.2505 148.78 37.4934 148.32C37.7363 147.859 38.0645 147.476 38.4778 147.169C38.8954 146.858 39.3599 146.66 39.8713 146.575V146.485C39.198 146.336 38.6525 145.993 38.2349 145.456C37.8216 144.915 37.617 144.29 37.6213 143.583C37.617 142.91 37.8045 142.309 38.1838 141.781C38.563 141.252 39.0829 140.837 39.7434 140.534C40.4039 140.227 41.1582 140.074 42.0062 140.074C42.8457 140.074 43.5936 140.227 44.2498 140.534C44.9103 140.837 45.4302 141.252 45.8095 141.781C46.193 142.309 46.3848 142.91 46.3848 143.583C46.3848 144.29 46.1738 144.915 45.752 145.456C45.3343 145.993 44.7953 146.336 44.1348 146.485V146.575C44.6461 146.66 45.1064 146.858 45.5154 147.169C45.9288 147.476 46.2569 147.859 46.4998 148.32C46.747 148.78 46.8706 149.285 46.8706 149.835C46.8706 150.542 46.6618 151.175 46.2441 151.733C45.8265 152.287 45.2512 152.724 44.5183 153.043C43.7896 153.363 42.9522 153.523 42.0062 153.523ZM42.0062 151.695C42.4963 151.695 42.9224 151.612 43.2846 151.445C43.6468 151.275 43.9281 151.036 44.1284 150.729C44.3287 150.423 44.4309 150.069 44.4352 149.668C44.4309 149.251 44.3223 148.882 44.1092 148.562C43.9004 148.239 43.6127 147.985 43.2463 147.802C42.8841 147.619 42.4707 147.527 42.0062 147.527C41.5375 147.527 41.1199 147.619 40.7534 147.802C40.3869 147.985 40.0971 148.239 39.8841 148.562C39.6752 148.882 39.573 149.251 39.5772 149.668C39.573 150.069 39.671 150.423 39.8713 150.729C40.0716 151.032 40.3528 151.268 40.715 151.439C41.0815 151.609 41.5119 151.695 42.0062 151.695ZM42.0062 145.731C42.4068 145.731 42.7605 145.65 43.0673 145.488C43.3784 145.326 43.6234 145.1 43.8024 144.81C43.9814 144.521 44.073 144.186 44.0772 143.807C44.073 143.432 43.9835 143.104 43.8088 142.822C43.6341 142.537 43.3912 142.317 43.0801 142.164C42.769 142.006 42.411 141.928 42.0062 141.928C41.5929 141.928 41.2285 142.006 40.9132 142.164C40.6021 142.317 40.3592 142.537 40.1845 142.822C40.014 143.104 39.9309 143.432 39.9352 143.807C39.9309 144.186 40.0162 144.521 40.1909 144.81C40.3699 145.096 40.6149 145.322 40.926 145.488C41.2413 145.65 41.6014 145.731 42.0062 145.731ZM53.8107 153.593C52.7582 153.593 51.8548 153.327 51.1005 152.794C50.3505 152.257 49.7731 151.484 49.3683 150.474C48.9677 149.46 48.7674 148.239 48.7674 146.811C48.7717 145.384 48.9741 144.169 49.3746 143.168C49.7795 142.162 50.3569 141.395 51.1069 140.866C51.8612 140.338 52.7624 140.074 53.8107 140.074C54.859 140.074 55.7603 140.338 56.5146 140.866C57.2688 141.395 57.8462 142.162 58.2468 143.168C58.6516 144.173 58.854 145.388 58.854 146.811C58.854 148.243 58.6516 149.466 58.2468 150.48C57.8462 151.49 57.2688 152.261 56.5146 152.794C55.7646 153.327 54.8633 153.593 53.8107 153.593ZM53.8107 151.592C54.6289 151.592 55.2745 151.19 55.7475 150.384C56.2248 149.575 56.4634 148.384 56.4634 146.811C56.4634 145.771 56.3548 144.898 56.1374 144.19C55.9201 143.483 55.6133 142.95 55.217 142.592C54.8207 142.23 54.3519 142.049 53.8107 142.049C52.9968 142.049 52.3533 142.454 51.8803 143.263C51.4073 144.069 51.1687 145.251 51.1644 146.811C51.1602 147.855 51.2646 148.733 51.4776 149.445C51.695 150.156 52.0018 150.693 52.3981 151.055C52.7944 151.413 53.2653 151.592 53.8107 151.592ZM65.8166 153.593C64.764 153.593 63.8606 153.327 63.1064 152.794C62.3564 152.257 61.7789 151.484 61.3741 150.474C60.9735 149.46 60.7733 148.239 60.7733 146.811C60.7775 145.384 60.9799 144.169 61.3805 143.168C61.7853 142.162 62.3627 141.395 63.1127 140.866C63.867 140.338 64.7683 140.074 65.8166 140.074C66.8649 140.074 67.7662 140.338 68.5204 140.866C69.2747 141.395 69.8521 142.162 70.2527 143.168C70.6575 144.173 70.8599 145.388 70.8599 146.811C70.8599 148.243 70.6575 149.466 70.2527 150.48C69.8521 151.49 69.2747 152.261 68.5204 152.794C67.7704 153.327 66.8691 153.593 65.8166 153.593ZM65.8166 151.592C66.6348 151.592 67.2804 151.19 67.7534 150.384C68.2306 149.575 68.4693 148.384 68.4693 146.811C68.4693 145.771 68.3606 144.898 68.1433 144.19C67.926 143.483 67.6191 142.95 67.2228 142.592C66.8265 142.23 66.3578 142.049 65.8166 142.049C65.0027 142.049 64.3592 142.454 63.8862 143.263C63.4132 144.069 63.1745 145.251 63.1703 146.811C63.166 147.855 63.2704 148.733 63.4835 149.445C63.7008 150.156 64.0076 150.693 64.4039 151.055C64.8002 151.413 65.2711 151.592 65.8166 151.592ZM75.2161 151.554L75.133 152.257C75.0733 152.794 74.9668 153.339 74.8134 153.893C74.6642 154.452 74.5066 154.965 74.3404 155.434C74.1742 155.903 74.04 156.271 73.9377 156.54H72.378C72.4377 156.28 72.5186 155.926 72.6209 155.479C72.7275 155.031 72.8297 154.528 72.9277 153.97C73.0257 153.412 73.0918 152.845 73.1259 152.27L73.1706 151.554H75.2161ZM81.4899 140.253V153.344H79.1184V142.56H79.0417L75.9799 144.516V142.343L79.2335 140.253H81.4899ZM89.5119 153.523C88.5914 153.523 87.7733 153.365 87.0574 153.05C86.3457 152.734 85.7832 152.295 85.3699 151.733C84.9565 151.17 84.737 150.521 84.7115 149.783H87.1149C87.1362 150.137 87.2534 150.446 87.4664 150.71C87.6795 150.97 87.9629 151.173 88.3166 151.317C88.6703 151.462 89.0666 151.535 89.5055 151.535C89.9743 151.535 90.3897 151.454 90.752 151.292C91.1142 151.126 91.3976 150.896 91.6021 150.602C91.8066 150.308 91.9068 149.969 91.9025 149.585C91.9068 149.189 91.8045 148.839 91.5957 148.537C91.3869 148.234 91.0843 147.998 90.688 147.827C90.296 147.657 89.823 147.572 89.269 147.572H88.112V145.744H89.269C89.725 145.744 90.1234 145.665 90.4643 145.507C90.8095 145.349 91.0801 145.128 91.2761 144.842C91.4721 144.553 91.568 144.218 91.5637 143.839C91.568 143.468 91.4849 143.146 91.3145 142.874C91.1483 142.597 90.9118 142.381 90.6049 142.228C90.3024 142.075 89.9466 141.998 89.5375 141.998C89.1369 141.998 88.7662 142.07 88.4252 142.215C88.0843 142.36 87.8095 142.567 87.6007 142.835C87.3919 143.099 87.2811 143.415 87.2683 143.781H84.9863C85.0034 143.048 85.2143 142.405 85.6191 141.851C86.0282 141.293 86.5737 140.858 87.2555 140.547C87.9373 140.232 88.7022 140.074 89.5502 140.074C90.4238 140.074 91.1824 140.238 91.8258 140.566C92.4735 140.89 92.9743 141.327 93.3279 141.876C93.6816 142.426 93.8585 143.033 93.8585 143.698C93.8627 144.435 93.6454 145.053 93.2065 145.552C92.7718 146.05 92.2008 146.376 91.4934 146.53V146.632C92.4139 146.76 93.1191 147.101 93.6092 147.655C94.1035 148.205 94.3485 148.888 94.3443 149.707C94.3443 150.44 94.1355 151.096 93.7179 151.675C93.3045 152.251 92.7335 152.702 92.0048 153.031C91.2804 153.359 90.4494 153.523 89.5119 153.523ZM101.377 153.593C100.325 153.593 99.4212 153.327 98.6669 152.794C97.9169 152.257 97.3395 151.484 96.9347 150.474C96.5341 149.46 96.3338 148.239 96.3338 146.811C96.3381 145.384 96.5405 144.169 96.9411 143.168C97.3459 142.162 97.9233 141.395 98.6733 140.866C99.4276 140.338 100.329 140.074 101.377 140.074C102.425 140.074 103.327 140.338 104.081 140.866C104.835 141.395 105.413 142.162 105.813 143.168C106.218 144.173 106.42 145.388 106.42 146.811C106.42 148.243 106.218 149.466 105.813 150.48C105.413 151.49 104.835 152.261 104.081 152.794C103.331 153.327 102.43 153.593 101.377 153.593ZM101.377 151.592C102.195 151.592 102.841 151.19 103.314 150.384C103.791 149.575 104.03 148.384 104.03 146.811C104.03 145.771 103.921 144.898 103.704 144.19C103.487 143.483 103.18 142.95 102.783 142.592C102.387 142.23 101.918 142.049 101.377 142.049C100.563 142.049 99.9197 142.454 99.4467 143.263C98.9737 144.069 98.7351 145.251 98.7308 146.811C98.7266 147.855 98.831 148.733 99.044 149.445C99.2614 150.156 99.5682 150.693 99.9645 151.055C100.361 151.413 100.832 151.592 101.377 151.592ZM110.777 151.554L110.694 152.257C110.634 152.794 110.527 153.339 110.374 153.893C110.225 154.452 110.067 154.965 109.901 155.434C109.735 155.903 109.6 156.271 109.498 156.54H107.939C107.998 156.28 108.079 155.926 108.181 155.479C108.288 155.031 108.39 154.528 108.488 153.97C108.586 153.412 108.652 152.845 108.686 152.27L108.731 151.554H110.777ZM117.602 153.523C116.681 153.523 115.863 153.365 115.147 153.05C114.436 152.734 113.873 152.295 113.46 151.733C113.046 151.17 112.827 150.521 112.801 149.783H115.205C115.226 150.137 115.343 150.446 115.556 150.71C115.769 150.97 116.053 151.173 116.406 151.317C116.76 151.462 117.156 151.535 117.595 151.535C118.064 151.535 118.48 151.454 118.842 151.292C119.204 151.126 119.487 150.896 119.692 150.602C119.896 150.308 119.997 149.969 119.992 149.585C119.997 149.189 119.894 148.839 119.686 148.537C119.477 148.234 119.174 147.998 118.778 147.827C118.386 147.657 117.913 147.572 117.359 147.572H116.202V145.744H117.359C117.815 145.744 118.213 145.665 118.554 145.507C118.899 145.349 119.17 145.128 119.366 144.842C119.562 144.553 119.658 144.218 119.654 143.839C119.658 143.468 119.575 143.146 119.404 142.874C119.238 142.597 119.002 142.381 118.695 142.228C118.392 142.075 118.036 141.998 117.627 141.998C117.227 141.998 116.856 142.07 116.515 142.215C116.174 142.36 115.899 142.567 115.691 142.835C115.482 143.099 115.371 143.415 115.358 143.781H113.076C113.093 143.048 113.304 142.405 113.709 141.851C114.118 141.293 114.664 140.858 115.345 140.547C116.027 140.232 116.792 140.074 117.64 140.074C118.514 140.074 119.272 140.238 119.916 140.566C120.563 140.89 121.064 141.327 121.418 141.876C121.771 142.426 121.948 143.033 121.948 143.698C121.953 144.435 121.735 145.053 121.296 145.552C120.862 146.05 120.291 146.376 119.583 146.53V146.632C120.504 146.76 121.209 147.101 121.699 147.655C122.193 148.205 122.438 148.888 122.434 149.707C122.434 150.44 122.225 151.096 121.808 151.675C121.394 152.251 120.823 152.702 120.095 153.031C119.37 153.359 118.539 153.523 117.602 153.523ZM124.628 153.344V151.631L129.173 147.175C129.608 146.737 129.97 146.347 130.26 146.006C130.549 145.665 130.767 145.335 130.912 145.015C131.056 144.695 131.129 144.354 131.129 143.992C131.129 143.579 131.035 143.225 130.848 142.931C130.66 142.633 130.402 142.403 130.074 142.241C129.746 142.079 129.373 141.998 128.956 141.998C128.525 141.998 128.148 142.087 127.824 142.266C127.5 142.441 127.249 142.69 127.07 143.014C126.895 143.338 126.808 143.724 126.808 144.171H124.551C124.551 143.34 124.741 142.618 125.12 142.004C125.5 141.391 126.022 140.915 126.686 140.579C127.355 140.242 128.123 140.074 128.988 140.074C129.865 140.074 130.637 140.238 131.301 140.566C131.966 140.894 132.482 141.344 132.848 141.915C133.219 142.486 133.404 143.138 133.404 143.871C133.404 144.361 133.311 144.842 133.123 145.315C132.936 145.788 132.605 146.312 132.132 146.888C131.664 147.463 131.005 148.16 130.157 148.978L127.901 151.273V151.362H133.603V153.344H124.628ZM141.132 140.253V153.344H138.761V142.56H138.684L135.623 144.516V142.343L138.876 140.253H141.132Z" fill="#FFFBFD"/>
    <path d="M274.471 126.344V116.162H278.369C279.105 116.162 279.716 116.278 280.203 116.51C280.694 116.739 281.06 117.052 281.302 117.45C281.547 117.847 281.67 118.298 281.67 118.802C281.67 119.216 281.59 119.571 281.431 119.866C281.272 120.157 281.058 120.394 280.79 120.577C280.521 120.759 280.222 120.89 279.89 120.969V121.069C280.251 121.089 280.598 121.2 280.929 121.402C281.264 121.601 281.537 121.883 281.749 122.247C281.962 122.612 282.068 123.053 282.068 123.57C282.068 124.097 281.94 124.571 281.685 124.991C281.43 125.409 281.045 125.739 280.531 125.981C280.018 126.223 279.371 126.344 278.593 126.344H274.471ZM276.316 124.803H278.299C278.969 124.803 279.451 124.675 279.746 124.42C280.044 124.161 280.193 123.83 280.193 123.425C280.193 123.124 280.119 122.852 279.97 122.61C279.82 122.365 279.608 122.173 279.333 122.033C279.058 121.891 278.73 121.82 278.349 121.82H276.316V124.803ZM276.316 120.492H278.14C278.458 120.492 278.745 120.434 279 120.318C279.255 120.199 279.456 120.031 279.602 119.816C279.751 119.597 279.825 119.339 279.825 119.04C279.825 118.646 279.686 118.321 279.408 118.066C279.133 117.811 278.723 117.683 278.18 117.683H276.316V120.492ZM286.973 126.493C286.208 126.493 285.547 126.334 284.99 126.016C284.436 125.694 284.01 125.24 283.712 124.653C283.414 124.063 283.265 123.369 283.265 122.57C283.265 121.785 283.414 121.095 283.712 120.502C284.014 119.906 284.435 119.442 284.975 119.11C285.515 118.775 286.15 118.608 286.879 118.608C287.35 118.608 287.794 118.684 288.211 118.837C288.632 118.986 289.003 119.218 289.325 119.533C289.65 119.848 289.905 120.249 290.091 120.736C290.276 121.22 290.369 121.796 290.369 122.466V123.018H284.11V121.805H288.644C288.641 121.46 288.566 121.153 288.42 120.885C288.274 120.613 288.07 120.399 287.809 120.244C287.55 120.088 287.248 120.01 286.904 120.01C286.536 120.01 286.213 120.099 285.934 120.278C285.656 120.454 285.439 120.686 285.283 120.974C285.131 121.259 285.053 121.573 285.049 121.914V122.973C285.049 123.417 285.131 123.798 285.293 124.116C285.455 124.431 285.682 124.673 285.974 124.842C286.266 125.008 286.607 125.091 286.998 125.091C287.26 125.091 287.497 125.054 287.709 124.982C287.921 124.905 288.105 124.794 288.261 124.648C288.417 124.503 288.534 124.322 288.614 124.107L290.294 124.295C290.188 124.74 289.986 125.127 289.688 125.459C289.393 125.787 289.015 126.042 288.554 126.224C288.094 126.403 287.567 126.493 286.973 126.493ZM297.927 120.726L296.286 120.905C296.24 120.739 296.159 120.583 296.043 120.438C295.93 120.292 295.778 120.174 295.585 120.085C295.393 119.995 295.158 119.95 294.879 119.95C294.505 119.95 294.19 120.031 293.935 120.194C293.683 120.356 293.559 120.567 293.562 120.825C293.559 121.047 293.64 121.228 293.806 121.367C293.975 121.506 294.253 121.621 294.641 121.71L295.943 121.989C296.666 122.144 297.203 122.391 297.554 122.729C297.909 123.067 298.088 123.51 298.091 124.057C298.088 124.537 297.947 124.962 297.669 125.33C297.393 125.694 297.011 125.979 296.52 126.185C296.03 126.39 295.466 126.493 294.83 126.493C293.895 126.493 293.143 126.297 292.573 125.906C292.003 125.512 291.663 124.963 291.553 124.261L293.308 124.092C293.388 124.436 293.557 124.696 293.816 124.872C294.074 125.048 294.41 125.136 294.825 125.136C295.252 125.136 295.595 125.048 295.854 124.872C296.116 124.696 296.247 124.479 296.247 124.221C296.247 124.002 296.162 123.821 295.993 123.679C295.827 123.536 295.569 123.427 295.218 123.351L293.915 123.077C293.182 122.925 292.641 122.668 292.289 122.307C291.938 121.942 291.764 121.482 291.767 120.925C291.764 120.454 291.892 120.046 292.15 119.702C292.412 119.354 292.775 119.085 293.239 118.896C293.706 118.704 294.245 118.608 294.855 118.608C295.749 118.608 296.454 118.799 296.968 119.18C297.485 119.561 297.804 120.076 297.927 120.726ZM303.388 118.707V120.099H298.998V118.707H303.388ZM300.082 116.878H301.882V124.047C301.882 124.289 301.918 124.474 301.991 124.604C302.068 124.73 302.167 124.816 302.29 124.862C302.412 124.909 302.548 124.932 302.697 124.932C302.81 124.932 302.913 124.924 303.006 124.907C303.102 124.89 303.175 124.875 303.224 124.862L303.528 126.269C303.431 126.302 303.294 126.339 303.115 126.379C302.939 126.418 302.724 126.442 302.469 126.448C302.018 126.461 301.612 126.393 301.251 126.244C300.889 126.092 300.603 125.857 300.39 125.538C300.182 125.22 300.079 124.822 300.082 124.345V116.878ZM312.234 118.707V120.099H307.72V118.707H312.234ZM308.848 126.344V117.987C308.848 117.473 308.954 117.045 309.167 116.704C309.382 116.362 309.67 116.107 310.032 115.938C310.393 115.769 310.794 115.685 311.235 115.685C311.546 115.685 311.823 115.71 312.065 115.759C312.307 115.809 312.486 115.854 312.602 115.893L312.244 117.286C312.168 117.262 312.072 117.239 311.956 117.216C311.84 117.189 311.71 117.176 311.568 117.176C311.233 117.176 310.996 117.257 310.857 117.42C310.721 117.579 310.653 117.808 310.653 118.106V126.344H308.848ZM316.687 126.493C315.942 126.493 315.295 126.329 314.748 126.001C314.202 125.673 313.777 125.214 313.476 124.624C313.177 124.034 313.028 123.344 313.028 122.555C313.028 121.767 313.177 121.076 313.476 120.482C313.777 119.889 314.202 119.428 314.748 119.1C315.295 118.772 315.942 118.608 316.687 118.608C317.433 118.608 318.079 118.772 318.626 119.1C319.173 119.428 319.596 119.889 319.894 120.482C320.196 121.076 320.346 121.767 320.346 122.555C320.346 123.344 320.196 124.034 319.894 124.624C319.596 125.214 319.173 125.673 318.626 126.001C318.079 126.329 317.433 126.493 316.687 126.493ZM316.697 125.051C317.102 125.051 317.44 124.94 317.711 124.718C317.983 124.493 318.185 124.191 318.318 123.813C318.454 123.435 318.522 123.014 318.522 122.55C318.522 122.083 318.454 121.661 318.318 121.283C318.185 120.902 317.983 120.598 317.711 120.373C317.44 120.147 317.102 120.035 316.697 120.035C316.283 120.035 315.938 120.147 315.663 120.373C315.391 120.598 315.188 120.902 315.052 121.283C314.919 121.661 314.853 122.083 314.853 122.55C314.853 123.014 314.919 123.435 315.052 123.813C315.188 124.191 315.391 124.493 315.663 124.718C315.938 124.94 316.283 125.051 316.697 125.051ZM321.874 126.344V118.707H323.619V119.98H323.699C323.838 119.539 324.076 119.2 324.414 118.961C324.756 118.719 325.145 118.598 325.583 118.598C325.682 118.598 325.793 118.603 325.916 118.613C326.042 118.62 326.146 118.631 326.229 118.648V120.303C326.153 120.277 326.032 120.254 325.866 120.234C325.704 120.21 325.546 120.199 325.394 120.199C325.066 120.199 324.771 120.27 324.509 120.413C324.25 120.552 324.047 120.746 323.897 120.994C323.748 121.243 323.674 121.53 323.674 121.854V126.344H321.874Z" fill="#777576"/>
    <path d="M273.791 153.344V140.253H276.163V145.795H282.229V140.253H284.607V153.344H282.229V147.783H276.163V153.344H273.791ZM287.083 153.344V143.526H289.397V153.344H287.083ZM288.247 142.132C287.88 142.132 287.565 142.011 287.301 141.768C287.037 141.521 286.904 141.224 286.904 140.879C286.904 140.53 287.037 140.234 287.301 139.991C287.565 139.744 287.88 139.62 288.247 139.62C288.618 139.62 288.933 139.744 289.193 139.991C289.457 140.234 289.589 140.53 289.589 140.879C289.589 141.224 289.457 141.521 289.193 141.768C288.933 142.011 288.618 142.132 288.247 142.132ZM296.047 157.23C295.216 157.23 294.502 157.117 293.905 156.891C293.309 156.67 292.829 156.371 292.467 155.996C292.105 155.621 291.854 155.206 291.713 154.75L293.797 154.245C293.89 154.437 294.027 154.626 294.206 154.814C294.385 155.006 294.626 155.163 294.928 155.287C295.235 155.415 295.621 155.479 296.085 155.479C296.741 155.479 297.285 155.319 297.715 154.999C298.145 154.684 298.361 154.164 298.361 153.44V151.58H298.246C298.126 151.818 297.952 152.063 297.721 152.315C297.496 152.566 297.195 152.777 296.82 152.947C296.449 153.118 295.983 153.203 295.42 153.203C294.666 153.203 293.982 153.026 293.368 152.673C292.759 152.315 292.273 151.782 291.911 151.075C291.553 150.363 291.374 149.472 291.374 148.403C291.374 147.325 291.553 146.415 291.911 145.673C292.273 144.928 292.761 144.363 293.375 143.979C293.988 143.592 294.672 143.398 295.427 143.398C296.002 143.398 296.475 143.496 296.846 143.692C297.221 143.884 297.519 144.116 297.741 144.388C297.962 144.657 298.131 144.911 298.246 145.149H298.373V143.526H300.655V153.504C300.655 154.343 300.455 155.038 300.055 155.587C299.654 156.137 299.106 156.548 298.412 156.821C297.717 157.094 296.929 157.23 296.047 157.23ZM296.066 151.388C296.556 151.388 296.974 151.268 297.319 151.03C297.664 150.791 297.926 150.448 298.105 150.001C298.284 149.553 298.373 149.016 298.373 148.39C298.373 147.772 298.284 147.231 298.105 146.766C297.93 146.302 297.67 145.942 297.325 145.686C296.984 145.426 296.564 145.296 296.066 145.296C295.55 145.296 295.12 145.43 294.775 145.699C294.43 145.967 294.17 146.336 293.995 146.805C293.82 147.269 293.733 147.798 293.733 148.39C293.733 148.991 293.82 149.517 293.995 149.969C294.174 150.416 294.436 150.766 294.781 151.017C295.131 151.264 295.559 151.388 296.066 151.388ZM305.341 147.591V153.344H303.027V140.253H305.29V145.194H305.405C305.635 144.64 305.991 144.203 306.472 143.884C306.958 143.56 307.576 143.398 308.326 143.398C309.008 143.398 309.602 143.54 310.109 143.826C310.616 144.112 311.008 144.529 311.285 145.079C311.567 145.629 311.707 146.3 311.707 147.092V153.344H309.393V147.45C309.393 146.79 309.223 146.276 308.882 145.91C308.545 145.539 308.072 145.354 307.463 145.354C307.054 145.354 306.687 145.443 306.363 145.622C306.044 145.797 305.792 146.05 305.609 146.383C305.43 146.715 305.341 147.118 305.341 147.591ZM318.412 153.536C317.428 153.536 316.578 153.331 315.862 152.922C315.15 152.509 314.603 151.925 314.219 151.17C313.836 150.412 313.644 149.519 313.644 148.492C313.644 147.482 313.836 146.596 314.219 145.833C314.607 145.066 315.148 144.469 315.843 144.043C316.537 143.613 317.354 143.398 318.291 143.398C318.896 143.398 319.467 143.496 320.004 143.692C320.545 143.884 321.023 144.182 321.436 144.587C321.854 144.991 322.182 145.507 322.42 146.134C322.659 146.756 322.778 147.497 322.778 148.358V149.067H314.731V147.508H320.56C320.556 147.065 320.46 146.67 320.273 146.325C320.085 145.976 319.823 145.701 319.486 145.501C319.154 145.3 318.766 145.2 318.323 145.2C317.85 145.2 317.434 145.315 317.077 145.545C316.719 145.771 316.439 146.07 316.239 146.44C316.043 146.807 315.943 147.21 315.939 147.648V149.01C315.939 149.581 316.043 150.071 316.252 150.48C316.461 150.885 316.753 151.196 317.128 151.413C317.503 151.626 317.942 151.733 318.444 151.733C318.781 151.733 319.086 151.686 319.358 151.592C319.631 151.494 319.868 151.352 320.068 151.164C320.268 150.977 320.42 150.744 320.522 150.467L322.682 150.71C322.546 151.281 322.286 151.78 321.903 152.206C321.523 152.628 321.037 152.956 320.445 153.19C319.853 153.42 319.175 153.536 318.412 153.536ZM324.736 153.344V143.526H326.979V145.162H327.082C327.261 144.595 327.567 144.158 328.002 143.852C328.441 143.54 328.942 143.385 329.504 143.385C329.632 143.385 329.775 143.391 329.933 143.404C330.094 143.413 330.229 143.428 330.335 143.449V145.577C330.237 145.543 330.082 145.513 329.869 145.488C329.66 145.458 329.457 145.443 329.261 145.443C328.839 145.443 328.46 145.535 328.124 145.718C327.791 145.897 327.529 146.146 327.337 146.466C327.146 146.786 327.05 147.154 327.05 147.572V153.344H324.736ZM337.776 157.026C337.46 157.026 337.168 157 336.9 156.949C336.636 156.902 336.425 156.847 336.267 156.783L336.804 154.98C337.141 155.078 337.441 155.125 337.705 155.121C337.969 155.116 338.202 155.033 338.402 154.871C338.607 154.714 338.779 154.45 338.92 154.079L339.118 153.548L335.558 143.526H338.012L340.275 150.94H340.377L342.646 143.526H345.107L341.176 154.533C340.993 155.053 340.75 155.498 340.447 155.869C340.145 156.244 339.774 156.529 339.335 156.725C338.901 156.925 338.381 157.026 337.776 157.026ZM346.708 153.344V143.526H349.022V153.344H346.708ZM347.872 142.132C347.505 142.132 347.19 142.011 346.926 141.768C346.662 141.521 346.529 141.224 346.529 140.879C346.529 140.53 346.662 140.234 346.926 139.991C347.19 139.744 347.505 139.62 347.872 139.62C348.243 139.62 348.558 139.744 348.818 139.991C349.082 140.234 349.214 140.53 349.214 140.879C349.214 141.224 349.082 141.521 348.818 141.768C348.558 142.011 348.243 142.132 347.872 142.132ZM355.748 153.536C354.764 153.536 353.914 153.331 353.198 152.922C352.486 152.509 351.939 151.925 351.555 151.17C351.172 150.412 350.98 149.519 350.98 148.492C350.98 147.482 351.172 146.596 351.555 145.833C351.943 145.066 352.484 144.469 353.179 144.043C353.873 143.613 354.689 143.398 355.627 143.398C356.232 143.398 356.803 143.496 357.34 143.692C357.881 143.884 358.358 144.182 358.772 144.587C359.189 144.991 359.518 145.507 359.756 146.134C359.995 146.756 360.114 147.497 360.114 148.358V149.067H352.067V147.508H357.896C357.892 147.065 357.796 146.67 357.608 146.325C357.421 145.976 357.159 145.701 356.822 145.501C356.49 145.3 356.102 145.2 355.659 145.2C355.186 145.2 354.77 145.315 354.412 145.545C354.055 145.771 353.775 146.07 353.575 146.44C353.379 146.807 353.279 147.21 353.275 147.648V149.01C353.275 149.581 353.379 150.071 353.588 150.48C353.797 150.885 354.089 151.196 354.464 151.413C354.839 151.626 355.278 151.733 355.78 151.733C356.117 151.733 356.422 151.686 356.694 151.592C356.967 151.494 357.204 151.352 357.404 151.164C357.604 150.977 357.756 150.744 357.858 150.467L360.018 150.71C359.882 151.281 359.622 151.78 359.238 152.206C358.859 152.628 358.373 152.956 357.781 153.19C357.189 153.42 356.511 153.536 355.748 153.536ZM364.386 140.253V153.344H362.072V140.253H364.386ZM370.409 153.516C369.637 153.516 368.947 153.318 368.338 152.922C367.728 152.526 367.247 151.95 366.893 151.196C366.539 150.442 366.362 149.526 366.362 148.447C366.362 147.357 366.541 146.436 366.899 145.686C367.262 144.932 367.749 144.363 368.363 143.979C368.977 143.592 369.661 143.398 370.415 143.398C370.99 143.398 371.463 143.496 371.834 143.692C372.205 143.884 372.499 144.116 372.716 144.388C372.933 144.657 373.102 144.911 373.221 145.149H373.317V140.253H375.637V153.344H373.362V151.797H373.221C373.102 152.036 372.929 152.289 372.703 152.558C372.477 152.822 372.179 153.048 371.808 153.235C371.438 153.423 370.971 153.516 370.409 153.516ZM371.054 151.618C371.544 151.618 371.962 151.486 372.307 151.222C372.652 150.953 372.914 150.58 373.093 150.103C373.272 149.626 373.362 149.07 373.362 148.435C373.362 147.8 373.272 147.248 373.093 146.779C372.919 146.31 372.659 145.946 372.313 145.686C371.972 145.426 371.553 145.296 371.054 145.296C370.539 145.296 370.108 145.43 369.763 145.699C369.418 145.967 369.158 146.338 368.983 146.811C368.808 147.284 368.721 147.825 368.721 148.435C368.721 149.048 368.808 149.596 368.983 150.077C369.162 150.555 369.424 150.932 369.769 151.209C370.119 151.482 370.547 151.618 371.054 151.618ZM385.863 146.121L383.754 146.351C383.694 146.138 383.589 145.938 383.44 145.75C383.295 145.562 383.099 145.411 382.852 145.296C382.605 145.181 382.303 145.124 381.945 145.124C381.463 145.124 381.058 145.228 380.73 145.437C380.406 145.646 380.246 145.916 380.251 146.249C380.246 146.534 380.351 146.766 380.564 146.945C380.781 147.124 381.139 147.271 381.638 147.386L383.312 147.744C384.241 147.945 384.932 148.262 385.384 148.697C385.839 149.131 386.07 149.7 386.074 150.403C386.07 151.021 385.888 151.567 385.531 152.04C385.177 152.509 384.685 152.875 384.054 153.139C383.423 153.403 382.699 153.536 381.881 153.536C380.679 153.536 379.712 153.284 378.979 152.781C378.246 152.274 377.809 151.569 377.668 150.665L379.925 150.448C380.027 150.891 380.244 151.226 380.577 151.452C380.909 151.678 381.342 151.79 381.874 151.79C382.424 151.79 382.865 151.678 383.197 151.452C383.534 151.226 383.702 150.947 383.702 150.614C383.702 150.333 383.594 150.101 383.376 149.918C383.163 149.734 382.831 149.594 382.379 149.496L380.705 149.144C379.763 148.948 379.066 148.618 378.614 148.153C378.163 147.685 377.939 147.092 377.943 146.376C377.939 145.771 378.103 145.247 378.435 144.804C378.772 144.357 379.239 144.011 379.835 143.768C380.436 143.521 381.129 143.398 381.913 143.398C383.063 143.398 383.969 143.643 384.629 144.133C385.294 144.623 385.705 145.286 385.863 146.121Z" fill="#FFFBFD"/>
    <g opacity="0.5">
        <path d="M1 216.344C1 203.365 11.5213 192.844 24.5 192.844H491.5C504.479 192.844 515 203.365 515 216.344V568.344C515 581.322 504.479 591.844 491.5 591.844H24.5C11.5213 591.844 1 581.322 1 568.344V216.344Z" fill="#1C1C1C" fill-opacity="0.5"/>
        <path d="M1 216.344C1 203.365 11.5213 192.844 24.5 192.844H491.5C504.479 192.844 515 203.365 515 216.344V568.344C515 581.322 504.479 591.844 491.5 591.844H24.5C11.5213 591.844 1 581.322 1 568.344V216.344Z" stroke="#3D3D3D"/>
        <mask id="path-21-inside-2_10411_124002" fill="white">
            <path d="M0.5 216.344H515.5V268.344H0.5V216.344Z"/>
        </mask>
        <path d="M515.5 267.344H0.5V269.344H515.5V267.344Z" fill="#1C1C1C" mask="url(#path-21-inside-2_10411_124002)"/>
        <path d="M30.8636 239.344H25.9347V224.798H30.9631C32.4072 224.798 33.6477 225.089 34.6847 225.672C35.7263 226.25 36.5265 227.08 37.0852 228.165C37.6439 229.249 37.9233 230.546 37.9233 232.057C37.9233 233.572 37.6416 234.874 37.0781 235.963C36.5194 237.052 35.7121 237.888 34.6562 238.47C33.6051 239.053 32.3409 239.344 30.8636 239.344ZM28.5696 237.064H30.7358C31.7491 237.064 32.5942 236.879 33.2713 236.51C33.9484 236.136 34.4574 235.58 34.7983 234.841C35.1392 234.098 35.3097 233.17 35.3097 232.057C35.3097 230.944 35.1392 230.021 34.7983 229.287C34.4574 228.548 33.9531 227.997 33.2855 227.632C32.6226 227.263 31.7988 227.078 30.8139 227.078H28.5696V237.064ZM45.1428 239.557C44.049 239.557 43.1044 239.33 42.3089 238.875C41.5182 238.416 40.9098 237.767 40.4837 236.929C40.0575 236.086 39.8445 235.094 39.8445 233.953C39.8445 232.831 40.0575 231.846 40.4837 230.999C40.9145 230.146 41.5159 229.483 42.2876 229.01C43.0594 228.532 43.9661 228.293 45.0078 228.293C45.6802 228.293 46.3146 228.402 46.9112 228.619C47.5125 228.832 48.0429 229.164 48.5021 229.614C48.9661 230.063 49.3307 230.636 49.5959 231.332C49.861 232.024 49.9936 232.848 49.9936 233.804V234.592H41.0518V232.859H47.5291C47.5244 232.367 47.4179 231.929 47.2095 231.545C47.0012 231.157 46.71 230.852 46.3359 230.629C45.9666 230.407 45.5357 230.295 45.0433 230.295C44.5178 230.295 44.0561 230.423 43.6584 230.679C43.2607 230.93 42.9505 231.261 42.728 231.673C42.5102 232.08 42.3989 232.528 42.3942 233.016V234.528C42.3942 235.163 42.5102 235.707 42.7422 236.162C42.9742 236.612 43.2985 236.957 43.7152 237.199C44.1319 237.436 44.6196 237.554 45.1783 237.554C45.5523 237.554 45.8909 237.502 46.1939 237.398C46.4969 237.289 46.7597 237.13 46.9822 236.922C47.2048 236.714 47.3729 236.455 47.4865 236.148L49.8871 236.418C49.7356 237.052 49.4467 237.606 49.0206 238.08C48.5992 238.548 48.0594 238.913 47.4013 239.173C46.7431 239.429 45.9903 239.557 45.1428 239.557ZM52.1687 243.435V228.435H54.6971V230.239H54.8462C54.9788 229.973 55.1658 229.692 55.4073 229.393C55.6488 229.09 55.9755 228.832 56.3874 228.619C56.7994 228.402 57.3249 228.293 57.9641 228.293C58.8069 228.293 59.5669 228.508 60.244 228.939C60.9258 229.365 61.4656 229.997 61.8633 230.835C62.2657 231.669 62.467 232.691 62.467 233.903C62.467 235.101 62.2705 236.119 61.8775 236.957C61.4845 237.795 60.9495 238.435 60.2724 238.875C59.5953 239.315 58.8282 239.536 57.9712 239.536C57.3462 239.536 56.8278 239.431 56.4158 239.223C56.0039 239.015 55.6725 238.764 55.4215 238.47C55.1753 238.172 54.9835 237.89 54.8462 237.625H54.7397V243.435H52.1687ZM54.69 233.889C54.69 234.595 54.7894 235.213 54.9883 235.743C55.1919 236.273 55.4831 236.687 55.8619 236.986C56.2454 237.279 56.7094 237.426 57.2539 237.426C57.8221 237.426 58.2979 237.275 58.6815 236.972C59.065 236.664 59.3538 236.245 59.5479 235.714C59.7468 235.179 59.8462 234.571 59.8462 233.889C59.8462 233.212 59.7492 232.611 59.555 232.085C59.3609 231.56 59.0721 231.148 58.6886 230.849C58.305 230.551 57.8268 230.402 57.2539 230.402C56.7047 230.402 56.2383 230.546 55.8548 230.835C55.4712 231.124 55.18 231.529 54.9812 232.05C54.7871 232.571 54.69 233.184 54.69 233.889ZM69.4272 239.557C68.3619 239.557 67.4386 239.322 66.6573 238.854C65.8761 238.385 65.27 237.729 64.8391 236.886C64.413 236.044 64.1999 235.059 64.1999 233.932C64.1999 232.805 64.413 231.818 64.8391 230.97C65.27 230.123 65.8761 229.464 66.6573 228.996C67.4386 228.527 68.3619 228.293 69.4272 228.293C70.4925 228.293 71.4158 228.527 72.1971 228.996C72.9783 229.464 73.582 230.123 74.0082 230.97C74.439 231.818 74.6545 232.805 74.6545 233.932C74.6545 235.059 74.439 236.044 74.0082 236.886C73.582 237.729 72.9783 238.385 72.1971 238.854C71.4158 239.322 70.4925 239.557 69.4272 239.557ZM69.4414 237.497C70.0191 237.497 70.502 237.339 70.8903 237.021C71.2785 236.699 71.5674 236.268 71.7567 235.729C71.9509 235.189 72.0479 234.588 72.0479 233.925C72.0479 233.257 71.9509 232.653 71.7567 232.114C71.5674 231.569 71.2785 231.136 70.8903 230.814C70.502 230.492 70.0191 230.331 69.4414 230.331C68.8496 230.331 68.3571 230.492 67.9641 230.814C67.5759 231.136 67.2847 231.569 67.0906 232.114C66.9012 232.653 66.8065 233.257 66.8065 233.925C66.8065 234.588 66.9012 235.189 67.0906 235.729C67.2847 236.268 67.5759 236.699 67.9641 237.021C68.3571 237.339 68.8496 237.497 69.4414 237.497ZM85.4588 231.318L83.1151 231.574C83.0488 231.337 82.9328 231.115 82.767 230.906C82.6061 230.698 82.3883 230.53 82.1136 230.402C81.839 230.274 81.5028 230.21 81.1051 230.21C80.5701 230.21 80.1203 230.326 79.7557 230.558C79.3958 230.79 79.2183 231.091 79.223 231.46C79.2183 231.777 79.3343 232.036 79.571 232.234C79.8125 232.433 80.2102 232.597 80.7642 232.724L82.625 233.122C83.6572 233.345 84.4242 233.697 84.9261 234.18C85.4328 234.663 85.6884 235.295 85.6932 236.077C85.6884 236.763 85.4872 237.369 85.0895 237.895C84.6965 238.416 84.1496 238.823 83.4489 239.116C82.7481 239.41 81.9432 239.557 81.0341 239.557C79.6989 239.557 78.6241 239.277 77.8097 238.719C76.9953 238.155 76.5099 237.372 76.3537 236.368L78.8608 236.126C78.9744 236.619 79.2159 236.991 79.5852 237.241C79.9545 237.492 80.4351 237.618 81.027 237.618C81.6378 237.618 82.1278 237.492 82.4972 237.241C82.8712 236.991 83.0582 236.68 83.0582 236.311C83.0582 235.999 82.9375 235.741 82.696 235.537C82.4593 235.333 82.09 235.177 81.5881 235.068L79.7273 234.678C78.6809 234.46 77.9067 234.093 77.4048 233.577C76.9029 233.056 76.6544 232.398 76.6591 231.602C76.6544 230.93 76.8366 230.348 77.206 229.855C77.58 229.358 78.0985 228.974 78.7614 228.705C79.429 228.43 80.1984 228.293 81.0696 228.293C82.348 228.293 83.3542 228.565 84.0881 229.109C84.8267 229.654 85.2836 230.39 85.4588 231.318ZM87.8132 239.344V228.435H90.3842V239.344H87.8132ZM89.1058 226.886C88.6986 226.886 88.3482 226.751 88.0547 226.482C87.7611 226.207 87.6143 225.878 87.6143 225.494C87.6143 225.106 87.7611 224.777 88.0547 224.507C88.3482 224.232 88.6986 224.095 89.1058 224.095C89.5178 224.095 89.8681 224.232 90.157 224.507C90.4505 224.777 90.5973 225.106 90.5973 225.494C90.5973 225.878 90.4505 226.207 90.157 226.482C89.8681 226.751 89.5178 226.886 89.1058 226.886ZM98.4755 228.435V230.423H92.2042V228.435H98.4755ZM93.7525 225.821H96.3235V236.062C96.3235 236.408 96.3756 236.673 96.4798 236.858C96.5887 237.038 96.7307 237.161 96.9059 237.227C97.0811 237.294 97.2752 237.327 97.4883 237.327C97.6493 237.327 97.796 237.315 97.9286 237.291C98.0659 237.268 98.1701 237.246 98.2411 237.227L98.6744 239.237C98.5371 239.285 98.3406 239.337 98.0849 239.393C97.8339 239.45 97.5262 239.483 97.1616 239.493C96.5176 239.512 95.9376 239.415 95.4215 239.202C94.9054 238.984 94.4959 238.648 94.1928 238.193C93.8945 237.739 93.7478 237.17 93.7525 236.489V225.821Z" fill="#FFFBFD"/>
    </g>
    <defs>
        <filter id="filter0_d_10411_124002" x="16.5" y="25.3438" width="32" height="32" filterUnits="userSpaceOnUse" color-interpolation-filters="sRGB">
            <feFlood flood-opacity="0" result="BackgroundImageFix"/>
            <feColorMatrix in="SourceAlpha" type="matrix" values="0 0 0 0 0 0 0 0 0 0 0 0 0 0 0 0 0 0 127 0" result="hardAlpha"/>
            <feOffset/>
            <feGaussianBlur stdDeviation="4"/>
            <feComposite in2="hardAlpha" operator="out"/>
            <feColorMatrix type="matrix" values="0 0 0 0 0 0 0 0 0 0 0 0 0 0 0 0 0 0 0.15 0"/>
            <feBlend mode="normal" in2="BackgroundImageFix" result="effect1_dropShadow_10411_124002"/>
            <feBlend mode="normal" in="SourceGraphic" in2="effect1_dropShadow_10411_124002" result="shape"/>
        </filter>
        <linearGradient id="paint0_linear_10411_124002" x1="38.1682" y1="36.5511" x2="57.1982" y2="73.03" gradientUnits="userSpaceOnUse">
            <stop stop-color="#0666CE"/>
            <stop offset="1" stop-color="#61A9F8"/>
        </linearGradient>
        <linearGradient id="paint1_linear_10411_124002" x1="25.0678" y1="41.344" x2="40.4022" y2="53.344" gradientUnits="userSpaceOnUse">
            <stop stop-color="#6580EB"/>
            <stop offset="1" stop-color="#8EA2F2"/>
        </linearGradient>
        <linearGradient id="paint2_linear_10411_124002" x1="358.5" y1="55.3438" x2="491.5" y2="55.3438" gradientUnits="userSpaceOnUse">
            <stop stop-color="#FF49A4" stop-opacity="0.5"/>
            <stop offset="0.93" stop-color="#B049FF" stop-opacity="0.5"/>
        </linearGradient>
    </defs>
</svg>
