<svg xmlns="http://www.w3.org/2000/svg" width="586" height="386" fill="none" xmlns:v="https://vecta.io/nano"><g clip-path="url(#P)"><use href="#Q" fill="#1c1c1c"/><use href="#Q" fill="url(#A)" fill-opacity=".2"/><circle opacity=".2" cx="291.5" cy="193" r="145.5" fill="url(#B)" stroke="url(#C)"/><circle opacity=".2" cx="61.5" cy="240.5" r="19" fill="url(#D)" stroke="url(#E)"/><circle opacity=".2" cx="554.5" cy="359.5" r="109" fill="url(#F)" stroke="url(#G)"/><circle opacity=".2" cx="35.5" cy="19.5" r="109" fill="url(#H)" stroke="url(#I)"/><circle opacity=".2" cx="484.5" cy="66.5" r="46" fill="url(#J)" stroke="url(#K)"/><circle opacity=".2" cx="81" cy="367" r="63.5" fill="url(#L)" stroke="url(#M)"/><g fill="#ff49a4"><circle opacity=".1" cx="291.5" cy="193" r="98"/><circle cx="291.5" cy="193" r="64"/></g><use href="#R" fill="url(#N)"/><use href="#R" fill="#fff"/><use href="#S" fill="url(#O)"/><use href="#S" fill="#fff"/><circle opacity=".5" cx="566" cy="167" r="26" fill="#ff49a4"/></g><defs><linearGradient id="A" x1="555.449" y1="397.792" x2="134.703" y2="-102.712" href="#T"><stop stop-color="#1c1c1c"/><stop offset=".5" stop-color="#af145c" stop-opacity=".5"/><stop offset="1" stop-color="#be0059"/></linearGradient><linearGradient id="B" x1="145.5" y1="193" x2="437.5" y2="193" href="#T"><stop stop-color="#ff49a4" stop-opacity=".5"/><stop offset=".93" stop-color="#b049ff" stop-opacity=".5"/></linearGradient><linearGradient id="C" x1="145.5" y1="193" x2="437.5" y2="193" href="#T"><stop stop-color="#ff49a4"/><stop offset=".93" stop-color="#b049ff"/></linearGradient><linearGradient id="D" x1="42" y1="240.5" x2="81" y2="240.5" href="#T"><stop stop-color="#ff49a4" stop-opacity=".5"/><stop offset=".93" stop-color="#b049ff" stop-opacity=".5"/></linearGradient><linearGradient id="E" x1="42" y1="240.5" x2="81" y2="240.5" href="#T"><stop stop-color="#ff49a4"/><stop offset=".93" stop-color="#b049ff"/></linearGradient><linearGradient id="F" x1="445" y1="359.5" x2="664" y2="359.5" href="#T"><stop stop-color="#ff49a4" stop-opacity=".5"/><stop offset=".93" stop-color="#b049ff" stop-opacity=".5"/></linearGradient><linearGradient id="G" x1="445" y1="359.5" x2="664" y2="359.5" href="#T"><stop stop-color="#ff49a4"/><stop offset=".93" stop-color="#b049ff"/></linearGradient><linearGradient id="H" x1="-74" y1="19.5" x2="145" y2="19.5" href="#T"><stop stop-color="#ff49a4" stop-opacity=".5"/><stop offset=".93" stop-color="#b049ff" stop-opacity=".5"/></linearGradient><linearGradient id="I" x1="-74" y1="19.5" x2="145" y2="19.5" href="#T"><stop stop-color="#ff49a4"/><stop offset=".93" stop-color="#b049ff"/></linearGradient><linearGradient id="J" x1="438" y1="66.5" x2="531" y2="66.5" href="#T"><stop stop-color="#ff49a4" stop-opacity=".5"/><stop offset=".93" stop-color="#b049ff" stop-opacity=".5"/></linearGradient><linearGradient id="K" x1="438" y1="66.5" x2="531" y2="66.5" href="#T"><stop stop-color="#ff49a4"/><stop offset=".93" stop-color="#b049ff"/></linearGradient><linearGradient id="L" x1="17" y1="367" x2="145" y2="367" href="#T"><stop stop-color="#ff49a4" stop-opacity=".5"/><stop offset=".93" stop-color="#b049ff" stop-opacity=".5"/></linearGradient><linearGradient id="M" x1="17" y1="367" x2="145" y2="367" href="#T"><stop stop-color="#ff49a4"/><stop offset=".93" stop-color="#b049ff"/></linearGradient><linearGradient id="N" x1="264.828" y1="192.621" x2="310.52" y2="192.621" href="#T"><stop stop-color="#ff49a4"/><stop offset=".93" stop-color="#b049ff"/></linearGradient><linearGradient id="O" x1="310.703" y1="216.752" x2="329.053" y2="216.752" href="#T"><stop stop-color="#ff49a4"/><stop offset=".93" stop-color="#b049ff"/></linearGradient><clipPath id="P"><path d="M.5 24c0-13.255 10.745-24 24-24h537c13.255 0 24 10.745 24 24v338c0 13.255-10.745 24-24 24h-537c-13.255 0-24-10.745-24-24V24z" fill="#fff"/></clipPath><path id="Q" d="M.5 24c0-13.255 10.745-24 24-24h537c13.255 0 24 10.745 24 24v338c0 13.255-10.745 24-24 24h-537c-13.255 0-24-10.745-24-24V24z"/><path id="R" d="M293.124 187.006c10.679 2.422 17.396 7.927 17.396 16.845 0 11.121-10.13 17.396-22.791 17.396-11.671 0-21.03-6.055-22.901-16.295l14.203-2.532c.66 4.734 4.294 7.157 8.698 7.157 4.624 0 7.376-2.092 7.376-4.955 0-3.083-2.972-4.514-6.055-5.175l-6.606-1.321c-10.13-2.422-16.736-8.037-16.736-17.065 0-10.9 10.35-17.066 22.021-17.066 11.56 0 19.598 6.166 21.249 16.515l-14.203 2.422c-.55-4.404-3.413-7.046-7.817-7.046-3.744 0-6.716 1.761-6.716 4.844 0 2.973 2.422 4.294 5.615 4.955l7.267 1.321z"/><path id="S" d="M319.878 212.164a9.18 9.18 0 0 0-9.175 9.175h18.35a9.18 9.18 0 0 0-9.175-9.175z"/><linearGradient id="T" gradientUnits="userSpaceOnUse"/></defs></svg>