<svg xmlns="http://www.w3.org/2000/svg" width="395" height="386" fill="none" xmlns:v="https://vecta.io/nano"><circle cx="197.102" cy="188.562" r="197.102" fill="url(#A)" fill-opacity=".05"/><circle cx="197.1" cy="188.561" r="152.999" fill="url(#B)" fill-opacity=".07"/><circle cx="197.1" cy="188.561" r="107.421" fill="url(#C)" fill-opacity=".1"/><circle cx="197.102" cy="188.559" r="53.59" fill="#ff49a4"/><use href="#F" fill="url(#D)"/><use href="#F" fill="url(#A)" style="mix-blend-mode:overlay"/><use href="#F" fill="#fff"/><use href="#G" fill="url(#E)"/><use href="#G" fill="url(#B)" style="mix-blend-mode:overlay"/><use href="#G" fill="#fff"/><defs><linearGradient id="A" x1="0" y1="188.562" x2="394.203" y2="188.562" href="#H"><stop stop-color="#ff49a4"/><stop offset=".93" stop-color="#b049ff"/></linearGradient><linearGradient id="B" x1="44.102" y1="188.561" x2="350.099" y2="188.561" href="#H"><stop stop-color="#ff49a4"/><stop offset=".93" stop-color="#b049ff"/></linearGradient><linearGradient id="C" x1="89.68" y1="188.561" x2="304.521" y2="188.561" href="#H"><stop stop-color="#ff49a4"/><stop offset=".93" stop-color="#b049ff"/></linearGradient><linearGradient id="D" x1="174.945" y1="188.542" x2="210.913" y2="188.542" href="#H"><stop stop-color="#ff49a4"/><stop offset=".93" stop-color="#b049ff"/></linearGradient><linearGradient id="E" x1="210.91" y1="207.502" x2="225.355" y2="207.502" href="#H"><stop stop-color="#ff49a4"/><stop offset=".93" stop-color="#b049ff"/></linearGradient><path id="F" d="M197.219 184.122c8.407 1.906 13.694 6.24 13.694 13.26 0 8.754-7.974 13.694-17.941 13.694-9.186 0-16.553-4.767-18.027-12.827l11.181-1.994c.52 3.727 3.38 5.634 6.846 5.634 3.641 0 5.807-1.647 5.807-3.9 0-2.427-2.34-3.554-4.766-4.074l-5.201-1.04c-7.973-1.906-13.173-6.327-13.173-13.433 0-8.581 8.147-13.434 17.333-13.434 9.101 0 15.428 4.853 16.728 13l-11.181 1.907c-.433-3.467-2.686-5.547-6.153-5.547-2.947 0-5.287 1.387-5.287 3.814 0 2.34 1.907 3.38 4.42 3.9l5.72 1.04z"/><path id="G" d="M218.133 203.891c-3.989 0-7.223 3.233-7.223 7.222h14.445c0-3.989-3.234-7.222-7.222-7.222z"/><linearGradient id="H" gradientUnits="userSpaceOnUse"/></defs></svg>