<svg width="428" height="361" fill="none" xmlns="http://www.w3.org/2000/svg"><path d="M0 24.32c0-13.255 10.745-24 24-24h380c13.255 0 24 10.745 24 24v312c0 13.255-10.745 24-24 24H24c-13.255 0-24-10.745-24-24v-312z" fill="#202020"/><path d="M0 24.32c0-13.255 10.745-24 24-24h380c13.255 0 24 10.745 24 24v312c0 13.255-10.745 24-24 24H24c-13.255 0-24-10.745-24-24v-312z" fill="url(#a)" fill-opacity=".2"/><rect opacity=".2" x="150.738" y="104.929" width="124.964" height="150.782" rx="17.5" stroke="url(#b)"/><rect x="154.886" y="110.405" width="115.575" height="139.829" rx="13.5" fill="url(#c)" fill-opacity=".2" stroke="url(#d)"/><path d="M254.912 234.987c1.702.386 2.772 1.263 2.772 2.685 0 1.772-1.614 2.772-3.632 2.772-1.86 0-3.352-.965-3.65-2.597l2.263-.403c.106.754.685 1.14 1.387 1.14.737 0 1.175-.333 1.175-.789 0-.492-.473-.72-.965-.825l-1.053-.211c-1.614-.386-2.667-1.281-2.667-2.72 0-1.737 1.65-2.72 3.51-2.72 1.842 0 3.123.983 3.386 2.633l-2.263.386c-.088-.702-.544-1.123-1.246-1.123-.597 0-1.071.28-1.071.772 0 .473.387.684.895.789l1.159.211z" fill="url(#e)"/><path d="M259.177 238.995c-.808 0-1.463.655-1.463 1.462h2.925c0-.807-.655-1.462-1.462-1.462z" fill="url(#f)"/><rect opacity=".2" x="166.152" y="121.671" width="93.355" height="65.894" rx="8.5" fill="url(#g)" stroke="url(#h)"/><rect x="227.613" y="203.558" width="26.758" height="4.225" rx="2.112" fill="#452854"/><circle cx="171.288" cy="238.061" r="2.112" fill="url(#i)"/><circle opacity=".5" cx="180.444" cy="238.061" r="2.112" fill="url(#j)"/><circle opacity=".3" cx="189.592" cy="238.061" r="2.112" fill="url(#k)"/><rect x="172.691" y="128.214" width="7.041" height="7.041" rx="1.8" fill="url(#l)"/><rect x="172.691" y="137.366" width="7.041" height="7.041" rx="1.8" fill="url(#m)"/><rect opacity=".1" x="172.691" y="146.522" width="7.041" height="7.041" rx="1.8" fill="url(#n)"/><rect x="172.691" y="155.675" width="7.041" height="7.041" rx="1.8" fill="url(#o)"/><rect x="172.691" y="164.831" width="7.041" height="7.041" rx="1.8" fill="url(#p)"/><rect opacity=".4" x="172.691" y="173.983" width="7.041" height="7.041" rx="1.8" fill="url(#q)"/><rect x="181.847" y="128.214" width="7.041" height="7.041" rx="1.8" fill="url(#r)"/><rect opacity=".45" x="181.847" y="137.366" width="7.041" height="7.041" rx="1.8" fill="url(#s)"/><rect x="181.847" y="146.522" width="7.041" height="7.041" rx="1.8" fill="url(#t)"/><rect x="181.847" y="155.675" width="7.041" height="7.041" rx="1.8" fill="url(#u)"/><rect opacity=".3" x="181.847" y="164.831" width="7.041" height="7.041" rx="1.8" fill="url(#v)"/><rect x="181.847" y="173.983" width="7.041" height="7.041" rx="1.8" fill="url(#w)"/><rect x="181.847" y="128.214" width="7.041" height="7.041" rx="1.8" fill="#FF49A4"/><rect x="181.847" y="146.522" width="7.041" height="7.041" rx="1.8" fill="url(#x)"/><rect x="181.847" y="155.675" width="7.041" height="7.041" rx="1.8" fill="#FF49A4"/><rect x="181.847" y="173.983" width="7.041" height="7.041" rx="1.8" fill="url(#y)"/><rect x="190.995" y="128.214" width="7.041" height="7.041" rx="1.8" fill="url(#z)"/><rect x="190.995" y="137.366" width="7.041" height="7.041" rx="1.8" fill="url(#A)"/><rect x="190.995" y="146.522" width="7.041" height="7.041" rx="1.8" fill="url(#B)"/><rect opacity=".4" x="190.995" y="155.675" width="7.041" height="7.041" rx="1.8" fill="url(#C)"/><rect x="190.995" y="164.831" width="7.041" height="7.041" rx="1.8" fill="#FF49A4"/><rect x="190.995" y="173.983" width="7.041" height="7.041" rx="1.8" fill="url(#D)"/><rect opacity=".4" x="200.152" y="128.214" width="7.041" height="7.041" rx="1.8" fill="url(#E)"/><rect x="200.152" y="137.366" width="7.041" height="7.041" rx="1.8" fill="url(#F)"/><rect x="200.152" y="146.522" width="7.041" height="7.041" rx="1.8" fill="url(#G)"/><rect x="200.152" y="155.675" width="7.041" height="7.041" rx="1.8" fill="url(#H)"/><rect opacity=".3" x="200.152" y="164.831" width="7.041" height="7.041" rx="1.8" fill="url(#I)"/><rect x="200.152" y="173.983" width="7.041" height="7.041" rx="1.8" fill="url(#J)"/><rect x="209.308" y="128.214" width="7.041" height="7.041" rx="1.8" fill="url(#K)"/><rect x="209.308" y="137.366" width="7.041" height="7.041" rx="1.8" fill="url(#L)"/><rect x="209.308" y="146.522" width="7.041" height="7.041" rx="1.8" fill="#FF49A4"/><rect opacity=".4" x="209.308" y="155.675" width="7.041" height="7.041" rx="1.8" fill="url(#M)"/><rect x="209.308" y="164.831" width="7.041" height="7.041" rx="1.8" fill="url(#N)"/><rect opacity=".4" x="209.308" y="173.983" width="7.041" height="7.041" rx="1.8" fill="url(#O)"/><rect x="218.456" y="128.214" width="7.041" height="7.041" rx="1.8" fill="#FF49A4"/><rect x="218.456" y="137.366" width="7.041" height="7.041" rx="1.8" fill="url(#P)"/><rect opacity=".4" x="218.456" y="146.522" width="7.041" height="7.041" rx="1.8" fill="url(#Q)"/><rect x="218.456" y="155.675" width="7.041" height="7.041" rx="1.8" fill="url(#R)"/><rect x="218.456" y="164.831" width="7.041" height="7.041" rx="1.8" fill="url(#S)"/><rect x="218.456" y="173.983" width="7.041" height="7.041" rx="1.8" fill="url(#T)"/><rect opacity=".3" x="227.613" y="128.214" width="7.041" height="7.041" rx="1.8" fill="url(#U)"/><rect x="227.613" y="137.366" width="7.041" height="7.041" rx="1.8" fill="url(#V)"/><rect x="227.613" y="146.522" width="7.041" height="7.041" rx="1.8" fill="url(#W)"/><rect x="227.613" y="155.675" width="7.041" height="7.041" rx="1.8" fill="url(#X)"/><rect x="227.613" y="164.831" width="7.041" height="7.041" rx="1.8" fill="#FF49A4"/><rect opacity=".3" x="227.613" y="173.983" width="7.041" height="7.041" rx="1.8" fill="url(#Y)"/><rect x="236.769" y="128.214" width="7.041" height="7.041" rx="1.8" fill="url(#Z)"/><rect opacity=".4" x="236.769" y="137.366" width="7.041" height="7.041" rx="1.8" fill="url(#aa)"/><rect opacity=".3" x="236.769" y="146.522" width="7.041" height="7.041" rx="1.8" fill="url(#ab)"/><rect x="236.769" y="155.675" width="7.041" height="7.041" rx="1.8" fill="url(#ac)"/><rect opacity=".4" x="236.769" y="164.831" width="7.041" height="7.041" rx="1.8" fill="url(#ad)"/><rect x="236.769" y="173.983" width="7.041" height="7.041" rx="1.8" fill="url(#ae)"/><rect x="245.925" y="128.214" width="7.041" height="7.041" rx="1.8" fill="url(#af)"/><rect x="245.925" y="137.366" width="7.041" height="7.041" rx="1.8" fill="#FF49A4"/><rect x="245.925" y="146.522" width="7.041" height="7.041" rx="1.8" fill="url(#ag)"/><rect opacity=".4" x="245.925" y="155.675" width="7.041" height="7.041" rx="1.8" fill="url(#ah)"/><rect x="245.925" y="164.831" width="7.041" height="7.041" rx="1.8" fill="url(#ai)"/><rect x="245.925" y="173.983" width="7.041" height="7.041" rx="1.8" fill="url(#aj)"/><rect opacity=".2" x="319.738" y="58.769" width="47.508" height="47.508" rx="11.5" fill="url(#ak)" stroke="url(#al)"/><rect opacity=".2" x="316.605" y="55.64" width="53.767" height="53.767" rx="15.5" stroke="url(#am)"/><path d="m345.518 84.744 6.41 6.41m0 0v-6.181m0 6.18h-6.181m-3.501-9.681-2.307-2.308m-3.272-3.272-1.613-1.612" stroke="url(#an)" stroke-width="2" stroke-linecap="round" stroke-linejoin="round"/><rect opacity=".5" x="57.136" y="256.212" width="48.508" height="48.508" rx="12" fill="url(#ao)"/><rect opacity=".2" x="54.503" y="253.583" width="53.767" height="53.767" rx="15.5" stroke="url(#ap)"/><path d="m83.987 278.647 6.41-6.41m0 0v6.181m0-6.181h-6.18m-3.502 9.682-2.308 2.308m-3.272 3.271-1.612 1.613" stroke="#FFFBFD" stroke-width="2" stroke-linecap="round" stroke-linejoin="round"/><rect x="93.128" y="32.448" width="48.508" height="48.508" rx="12" fill="url(#aq)"/><rect x="93.628" y="32.948" width="47.508" height="47.508" rx="11.5" stroke="url(#ar)" stroke-opacity=".5"/><rect opacity=".2" x="90.496" y="29.819" width="53.767" height="53.767" rx="15.5" stroke="url(#as)"/><path d="M117.384 54.355v-7.823m0 0 3.912 3.912m-3.912-3.912-3.912 3.912m3.912 8.215v3.13" stroke="#FFFBFD" stroke-width="2" stroke-linecap="round" stroke-linejoin="round"/><rect x="109.558" y="65.308" width="15.648" height="1.565" rx=".782" fill="#FFFBFD"/><rect opacity=".2" x="278.902" y="277.054" width="53.767" height="53.767" rx="15.5" stroke="url(#at)"/><rect opacity=".2" x="282.035" y="280.183" width="47.508" height="47.508" rx="11.5" fill="url(#au)" stroke="url(#av)"/><path d="M305.79 301.197v7.824m0 0 3.912-3.912m-3.912 3.912-3.912-3.912m3.912-8.215v-3.129" stroke="url(#aw)" stroke-width="2" stroke-linecap="round" stroke-linejoin="round"/><rect x="297.964" y="312.933" width="15.648" height="1.565" rx=".782" fill="url(#ax)"/><rect opacity=".2" x="31.035" y="113.534" width="47.508" height="47.508" rx="11.5" fill="url(#ay)" stroke="url(#az)"/><rect opacity=".2" x="27.902" y="110.405" width="53.767" height="53.767" rx="15.5" stroke="url(#aA)"/><path d="M68.089 137.288c0-.801-.071-1.585-.207-2.347m-.645 7.041c-.257.68-.568 1.334-.928 1.956m0-13.3a13.346 13.346 0 0 0-5.653-5.29 13.253 13.253 0 0 0-5.868-1.361c-7.345 0-13.3 5.955-13.3 13.301 0 7.345 5.955 13.3 13.3 13.3a13.24 13.24 0 0 0 8.571-3.129" stroke="url(#aB)" stroke-width="2" stroke-linecap="round" stroke-linejoin="round"/><circle cx="49.7" cy="136.114" r="1.174" fill="#BC4AF2"/><circle cx="59.091" cy="136.114" r="1.174" fill="#BC4AF2"/><path d="M54.787 140.419c.864 0 1.565-.7 1.565-1.565h-3.13c0 .865.7 1.565 1.565 1.565z" fill="#BC4AF2"/><rect opacity=".5" x="348.964" y="195.968" width="48.508" height="48.508" rx="12" fill="url(#aC)"/><rect opacity=".2" x="346.331" y="193.339" width="53.767" height="53.767" rx="15.5" stroke="url(#aD)"/><path d="M374.779 216.703h8.998l-3.521-3.52m-9.78 3.52h-2.738M370.476 223.353h-8.215l3.521 3.521m8.997-3.521h3.521" stroke="#FFFBFD" stroke-width="2" stroke-linecap="round" stroke-linejoin="round"/><path d="M285.589 138.07h48.679c5.523 0 10-4.477 10-10v-11.907" stroke="#372342" stroke-width="5" stroke-linecap="round" stroke-linejoin="round"/><path d="M344.264 116.163v11.907c0 5.523-4.477 10-10 10h-29.901" stroke="url(#aE)" stroke-width="2" stroke-linecap="round" stroke-linejoin="round" stroke-dasharray="3 24"/><path d="M285.785 188.143h16.014c5.523 0 10 4.478 10 10v12.469c0 5.523 4.477 10 10 10h17.774" stroke="#452854" stroke-width="5" stroke-linecap="round" stroke-linejoin="round"/><path d="M285.785 188.143h16.014c5.523 0 10 4.478 10 10v12.469c0 5.523 4.477 10 10 10h17.774" stroke="url(#aF)" stroke-width="2" stroke-linecap="round" stroke-linejoin="round" stroke-dasharray="3 24"/><path d="M88.425 137.288h16.014c5.523 0 10 4.477 10 10v12.469c0 5.523 4.478 10 10 10h16.21" stroke="#452854" stroke-width="5" stroke-linecap="round" stroke-linejoin="round"/><path d="M98.597 137.288h5.843c5.523 0 10 4.477 10 10v12.469c0 5.523 4.477 10 10 10h16.21" stroke="url(#aG)" stroke-width="2" stroke-linecap="round" stroke-linejoin="round" stroke-dasharray="3 24"/><path d="M154.402 56.32h48c5.523 0 10 4.477 10 10v28" stroke="#372342" stroke-width="5" stroke-linecap="round" stroke-linejoin="round"/><path d="M165.402 56.32h37c5.523 0 10 4.477 10 10v10" stroke="url(#aH)" stroke-width="2" stroke-linecap="round" stroke-linejoin="round" stroke-dasharray="3 24"/><path d="M266.402 304.319h-40c-5.523 0-10-4.477-10-10v-28" stroke="#372342" stroke-width="5" stroke-linecap="round" stroke-linejoin="round"/><path d="M241.777 303.935H226.74c-5.522 0-10-4.477-10-10v-18.948" stroke="url(#aI)" stroke-width="2" stroke-linecap="round" stroke-linejoin="round" stroke-dasharray="3 24"/><path d="M140.847 224.917H91.386c-5.523 0-10 4.477-10 10v11.906" stroke="#372342" stroke-width="5" stroke-linecap="round" stroke-linejoin="round"/><path d="M122.074 224.917H91.39c-5.523 0-10 4.477-10 10v11.906" stroke="url(#aJ)" stroke-width="2" stroke-linecap="round" stroke-linejoin="round" stroke-dasharray="3 24"/><defs><linearGradient id="S" x1="218.456" y1="168.352" x2="225.498" y2="168.352" gradientUnits="userSpaceOnUse"><stop stop-color="#FF49A4" stop-opacity=".5"/><stop offset=".93" stop-color="#B049FF" stop-opacity=".5"/></linearGradient><linearGradient id="a" x1="61.562" y1="383.049" x2="428.167" y2=".481" gradientUnits="userSpaceOnUse"><stop stop-color="#1C1C1C"/><stop offset=".796" stop-color="#AF145C" stop-opacity=".5"/><stop offset="1" stop-color="#BE0059"/></linearGradient><linearGradient id="c" x1="154.386" y1="180.32" x2="270.961" y2="180.32" gradientUnits="userSpaceOnUse"><stop stop-color="#FF49A4" stop-opacity=".5"/><stop offset=".93" stop-color="#B049FF" stop-opacity=".5"/></linearGradient><linearGradient id="d" x1="154.386" y1="180.32" x2="270.961" y2="180.32" gradientUnits="userSpaceOnUse"><stop stop-color="#FF49A4"/><stop offset=".93" stop-color="#B049FF"/></linearGradient><linearGradient id="e" x1="250.402" y1="235.882" x2="257.684" y2="235.882" gradientUnits="userSpaceOnUse"><stop stop-color="#FF49A4"/><stop offset=".93" stop-color="#B049FF"/></linearGradient><linearGradient id="f" x1="257.714" y1="239.726" x2="260.639" y2="239.726" gradientUnits="userSpaceOnUse"><stop stop-color="#FF49A4"/><stop offset=".93" stop-color="#B049FF"/></linearGradient><linearGradient id="g" x1="165.652" y1="154.618" x2="260.007" y2="154.618" gradientUnits="userSpaceOnUse"><stop stop-color="#FF49A4" stop-opacity=".5"/><stop offset=".93" stop-color="#B049FF" stop-opacity=".5"/></linearGradient><linearGradient id="h" x1="165.652" y1="154.618" x2="260.007" y2="154.618" gradientUnits="userSpaceOnUse"><stop stop-color="#FF49A4"/><stop offset=".93" stop-color="#B049FF"/></linearGradient><linearGradient id="i" x1="169.175" y1="238.061" x2="173.4" y2="238.061" gradientUnits="userSpaceOnUse"><stop stop-color="#FF49A4"/><stop offset=".93" stop-color="#B049FF"/></linearGradient><linearGradient id="j" x1="178.331" y1="238.061" x2="182.556" y2="238.061" gradientUnits="userSpaceOnUse"><stop stop-color="#FF49A4"/><stop offset=".93" stop-color="#B049FF"/></linearGradient><linearGradient id="k" x1="187.48" y1="238.061" x2="191.705" y2="238.061" gradientUnits="userSpaceOnUse"><stop stop-color="#FF49A4"/><stop offset=".93" stop-color="#B049FF"/></linearGradient><linearGradient id="l" x1="172.691" y1="131.735" x2="179.732" y2="131.735" gradientUnits="userSpaceOnUse"><stop stop-color="#FF49A4" stop-opacity=".5"/><stop offset=".93" stop-color="#B049FF" stop-opacity=".5"/></linearGradient><linearGradient id="m" x1="172.691" y1="140.887" x2="179.732" y2="140.887" gradientUnits="userSpaceOnUse"><stop stop-color="#FF49A4" stop-opacity=".5"/><stop offset=".93" stop-color="#B049FF" stop-opacity=".5"/></linearGradient><linearGradient id="n" x1="172.691" y1="150.043" x2="179.732" y2="150.043" gradientUnits="userSpaceOnUse"><stop stop-color="#FF49A4" stop-opacity=".5"/><stop offset=".93" stop-color="#B049FF" stop-opacity=".5"/></linearGradient><linearGradient id="o" x1="172.691" y1="159.196" x2="179.732" y2="159.196" gradientUnits="userSpaceOnUse"><stop stop-color="#FF49A4" stop-opacity=".5"/><stop offset=".93" stop-color="#B049FF" stop-opacity=".5"/></linearGradient><linearGradient id="p" x1="172.691" y1="168.352" x2="179.732" y2="168.352" gradientUnits="userSpaceOnUse"><stop stop-color="#FF49A4" stop-opacity=".5"/><stop offset=".93" stop-color="#B049FF" stop-opacity=".5"/></linearGradient><linearGradient id="q" x1="172.691" y1="177.504" x2="179.732" y2="177.504" gradientUnits="userSpaceOnUse"><stop stop-color="#FF49A4" stop-opacity=".5"/><stop offset=".93" stop-color="#B049FF" stop-opacity=".5"/></linearGradient><linearGradient id="r" x1="181.847" y1="131.735" x2="188.888" y2="131.735" gradientUnits="userSpaceOnUse"><stop stop-color="#FF49A4" stop-opacity=".5"/><stop offset=".93" stop-color="#B049FF" stop-opacity=".5"/></linearGradient><linearGradient id="s" x1="181.847" y1="140.887" x2="188.888" y2="140.887" gradientUnits="userSpaceOnUse"><stop stop-color="#FF49A4" stop-opacity=".5"/><stop offset=".93" stop-color="#B049FF" stop-opacity=".5"/></linearGradient><linearGradient id="t" x1="181.847" y1="150.043" x2="188.888" y2="150.043" gradientUnits="userSpaceOnUse"><stop stop-color="#FF49A4" stop-opacity=".5"/><stop offset=".93" stop-color="#B049FF" stop-opacity=".5"/></linearGradient><linearGradient id="u" x1="181.847" y1="159.196" x2="188.888" y2="159.196" gradientUnits="userSpaceOnUse"><stop stop-color="#FF49A4" stop-opacity=".5"/><stop offset=".93" stop-color="#B049FF" stop-opacity=".5"/></linearGradient><linearGradient id="v" x1="181.847" y1="168.352" x2="188.888" y2="168.352" gradientUnits="userSpaceOnUse"><stop stop-color="#FF49A4" stop-opacity=".5"/><stop offset=".93" stop-color="#B049FF" stop-opacity=".5"/></linearGradient><linearGradient id="w" x1="181.847" y1="177.504" x2="188.888" y2="177.504" gradientUnits="userSpaceOnUse"><stop stop-color="#FF49A4" stop-opacity=".5"/><stop offset=".93" stop-color="#B049FF" stop-opacity=".5"/></linearGradient><linearGradient id="x" x1="181.847" y1="150.043" x2="188.888" y2="150.043" gradientUnits="userSpaceOnUse"><stop stop-color="#FF49A4" stop-opacity=".5"/><stop offset=".93" stop-color="#B049FF" stop-opacity=".5"/></linearGradient><linearGradient id="y" x1="181.847" y1="177.504" x2="188.888" y2="177.504" gradientUnits="userSpaceOnUse"><stop stop-color="#FF49A4" stop-opacity=".5"/><stop offset=".93" stop-color="#B049FF" stop-opacity=".5"/></linearGradient><linearGradient id="z" x1="190.995" y1="131.735" x2="198.037" y2="131.735" gradientUnits="userSpaceOnUse"><stop stop-color="#FF49A4" stop-opacity=".5"/><stop offset=".93" stop-color="#B049FF" stop-opacity=".5"/></linearGradient><linearGradient id="A" x1="190.995" y1="140.887" x2="198.037" y2="140.887" gradientUnits="userSpaceOnUse"><stop stop-color="#FF49A4"/><stop offset=".93" stop-color="#B049FF"/></linearGradient><linearGradient id="B" x1="190.995" y1="150.043" x2="198.037" y2="150.043" gradientUnits="userSpaceOnUse"><stop stop-color="#FF49A4" stop-opacity=".5"/><stop offset=".93" stop-color="#B049FF" stop-opacity=".5"/></linearGradient><linearGradient id="C" x1="190.995" y1="159.196" x2="198.037" y2="159.196" gradientUnits="userSpaceOnUse"><stop stop-color="#FF49A4" stop-opacity=".5"/><stop offset=".93" stop-color="#B049FF" stop-opacity=".5"/></linearGradient><linearGradient id="D" x1="190.995" y1="177.504" x2="198.037" y2="177.504" gradientUnits="userSpaceOnUse"><stop stop-color="#FF49A4" stop-opacity=".5"/><stop offset=".93" stop-color="#B049FF" stop-opacity=".5"/></linearGradient><linearGradient id="E" x1="200.152" y1="131.735" x2="207.193" y2="131.735" gradientUnits="userSpaceOnUse"><stop stop-color="#FF49A4" stop-opacity=".5"/><stop offset=".93" stop-color="#B049FF" stop-opacity=".5"/></linearGradient><linearGradient id="F" x1="200.152" y1="140.887" x2="207.193" y2="140.887" gradientUnits="userSpaceOnUse"><stop stop-color="#FF49A4" stop-opacity=".5"/><stop offset=".93" stop-color="#B049FF" stop-opacity=".5"/></linearGradient><linearGradient id="G" x1="200.152" y1="150.043" x2="207.193" y2="150.043" gradientUnits="userSpaceOnUse"><stop stop-color="#FF49A4" stop-opacity=".5"/><stop offset=".93" stop-color="#B049FF" stop-opacity=".5"/></linearGradient><linearGradient id="H" x1="200.152" y1="159.196" x2="207.193" y2="159.196" gradientUnits="userSpaceOnUse"><stop stop-color="#FF49A4" stop-opacity=".5"/><stop offset=".93" stop-color="#B049FF" stop-opacity=".5"/></linearGradient><linearGradient id="I" x1="200.152" y1="168.352" x2="207.193" y2="168.352" gradientUnits="userSpaceOnUse"><stop stop-color="#FF49A4" stop-opacity=".5"/><stop offset=".93" stop-color="#B049FF" stop-opacity=".5"/></linearGradient><linearGradient id="J" x1="200.152" y1="177.504" x2="207.193" y2="177.504" gradientUnits="userSpaceOnUse"><stop stop-color="#FF49A4"/><stop offset=".93" stop-color="#B049FF"/></linearGradient><linearGradient id="K" x1="209.308" y1="131.735" x2="216.349" y2="131.735" gradientUnits="userSpaceOnUse"><stop stop-color="#FF49A4" stop-opacity=".5"/><stop offset=".93" stop-color="#B049FF" stop-opacity=".5"/></linearGradient><linearGradient id="L" x1="209.308" y1="140.887" x2="216.349" y2="140.887" gradientUnits="userSpaceOnUse"><stop stop-color="#FF49A4" stop-opacity=".5"/><stop offset=".93" stop-color="#B049FF" stop-opacity=".5"/></linearGradient><linearGradient id="M" x1="209.308" y1="159.196" x2="216.349" y2="159.196" gradientUnits="userSpaceOnUse"><stop stop-color="#FF49A4" stop-opacity=".5"/><stop offset=".93" stop-color="#B049FF" stop-opacity=".5"/></linearGradient><linearGradient id="N" x1="209.308" y1="168.352" x2="216.349" y2="168.352" gradientUnits="userSpaceOnUse"><stop stop-color="#FF49A4" stop-opacity=".5"/><stop offset=".93" stop-color="#B049FF" stop-opacity=".5"/></linearGradient><linearGradient id="O" x1="209.308" y1="177.504" x2="216.349" y2="177.504" gradientUnits="userSpaceOnUse"><stop stop-color="#FF49A4" stop-opacity=".5"/><stop offset=".93" stop-color="#B049FF" stop-opacity=".5"/></linearGradient><linearGradient id="P" x1="218.456" y1="140.887" x2="225.498" y2="140.887" gradientUnits="userSpaceOnUse"><stop stop-color="#FF49A4" stop-opacity=".5"/><stop offset=".93" stop-color="#B049FF" stop-opacity=".5"/></linearGradient><linearGradient id="Q" x1="218.456" y1="150.043" x2="225.498" y2="150.043" gradientUnits="userSpaceOnUse"><stop stop-color="#FF49A4" stop-opacity=".5"/><stop offset=".93" stop-color="#B049FF" stop-opacity=".5"/></linearGradient><linearGradient id="R" x1="218.456" y1="159.196" x2="225.498" y2="159.196" gradientUnits="userSpaceOnUse"><stop stop-color="#FF49A4" stop-opacity=".5"/><stop offset=".93" stop-color="#B049FF" stop-opacity=".5"/></linearGradient><linearGradient id="b" x1="150.238" y1="180.32" x2="276.201" y2="180.32" gradientUnits="userSpaceOnUse"><stop stop-color="#FF49A4"/><stop offset=".93" stop-color="#B049FF"/></linearGradient><linearGradient id="T" x1="218.456" y1="177.504" x2="225.498" y2="177.504" gradientUnits="userSpaceOnUse"><stop stop-color="#FF49A4" stop-opacity=".5"/><stop offset=".93" stop-color="#B049FF" stop-opacity=".5"/></linearGradient><linearGradient id="U" x1="227.613" y1="131.735" x2="234.654" y2="131.735" gradientUnits="userSpaceOnUse"><stop stop-color="#FF49A4" stop-opacity=".5"/><stop offset=".93" stop-color="#B049FF" stop-opacity=".5"/></linearGradient><linearGradient id="V" x1="227.613" y1="140.887" x2="234.654" y2="140.887" gradientUnits="userSpaceOnUse"><stop stop-color="#FF49A4"/><stop offset=".93" stop-color="#B049FF"/></linearGradient><linearGradient id="W" x1="227.613" y1="150.043" x2="234.654" y2="150.043" gradientUnits="userSpaceOnUse"><stop stop-color="#FF49A4" stop-opacity=".5"/><stop offset=".93" stop-color="#B049FF" stop-opacity=".5"/></linearGradient><linearGradient id="X" x1="227.613" y1="159.196" x2="234.654" y2="159.196" gradientUnits="userSpaceOnUse"><stop stop-color="#FF49A4" stop-opacity=".5"/><stop offset=".93" stop-color="#B049FF" stop-opacity=".5"/></linearGradient><linearGradient id="Y" x1="227.613" y1="177.504" x2="234.654" y2="177.504" gradientUnits="userSpaceOnUse"><stop stop-color="#FF49A4" stop-opacity=".5"/><stop offset=".93" stop-color="#B049FF" stop-opacity=".5"/></linearGradient><linearGradient id="Z" x1="236.769" y1="131.735" x2="243.81" y2="131.735" gradientUnits="userSpaceOnUse"><stop stop-color="#FF49A4" stop-opacity=".5"/><stop offset=".93" stop-color="#B049FF" stop-opacity=".5"/></linearGradient><linearGradient id="aa" x1="236.769" y1="140.887" x2="243.81" y2="140.887" gradientUnits="userSpaceOnUse"><stop stop-color="#FF49A4" stop-opacity=".5"/><stop offset=".93" stop-color="#B049FF" stop-opacity=".5"/></linearGradient><linearGradient id="ab" x1="236.769" y1="150.043" x2="243.81" y2="150.043" gradientUnits="userSpaceOnUse"><stop stop-color="#FF49A4" stop-opacity=".5"/><stop offset=".93" stop-color="#B049FF" stop-opacity=".5"/></linearGradient><linearGradient id="ac" x1="236.769" y1="159.196" x2="243.81" y2="159.196" gradientUnits="userSpaceOnUse"><stop stop-color="#FF49A4" stop-opacity=".5"/><stop offset=".93" stop-color="#B049FF" stop-opacity=".5"/></linearGradient><linearGradient id="ad" x1="236.769" y1="168.352" x2="243.81" y2="168.352" gradientUnits="userSpaceOnUse"><stop stop-color="#FF49A4" stop-opacity=".5"/><stop offset=".93" stop-color="#B049FF" stop-opacity=".5"/></linearGradient><linearGradient id="ae" x1="236.769" y1="177.504" x2="243.81" y2="177.504" gradientUnits="userSpaceOnUse"><stop stop-color="#FF49A4" stop-opacity=".5"/><stop offset=".93" stop-color="#B049FF" stop-opacity=".5"/></linearGradient><linearGradient id="af" x1="245.925" y1="131.735" x2="252.967" y2="131.735" gradientUnits="userSpaceOnUse"><stop stop-color="#FF49A4" stop-opacity=".5"/><stop offset=".93" stop-color="#B049FF" stop-opacity=".5"/></linearGradient><linearGradient id="ag" x1="245.925" y1="150.043" x2="252.967" y2="150.043" gradientUnits="userSpaceOnUse"><stop stop-color="#FF49A4" stop-opacity=".5"/><stop offset=".93" stop-color="#B049FF" stop-opacity=".5"/></linearGradient><linearGradient id="ah" x1="245.925" y1="159.196" x2="252.967" y2="159.196" gradientUnits="userSpaceOnUse"><stop stop-color="#FF49A4" stop-opacity=".5"/><stop offset=".93" stop-color="#B049FF" stop-opacity=".5"/></linearGradient><linearGradient id="ai" x1="245.925" y1="168.352" x2="252.967" y2="168.352" gradientUnits="userSpaceOnUse"><stop stop-color="#FF49A4"/><stop offset=".93" stop-color="#B049FF"/></linearGradient><linearGradient id="aj" x1="245.925" y1="177.504" x2="252.967" y2="177.504" gradientUnits="userSpaceOnUse"><stop stop-color="#FF49A4" stop-opacity=".5"/><stop offset=".93" stop-color="#B049FF" stop-opacity=".5"/></linearGradient><linearGradient id="ak" x1="319.238" y1="82.522" x2="367.745" y2="82.522" gradientUnits="userSpaceOnUse"><stop stop-color="#FF49A4"/><stop offset=".93" stop-color="#B049FF"/></linearGradient><linearGradient id="al" x1="319.238" y1="82.522" x2="367.745" y2="82.522" gradientUnits="userSpaceOnUse"><stop stop-color="#FF49A4"/><stop offset=".93" stop-color="#B049FF"/></linearGradient><linearGradient id="am" x1="316.105" y1="82.523" x2="370.872" y2="82.523" gradientUnits="userSpaceOnUse"><stop stop-color="#FF49A4"/><stop offset=".93" stop-color="#B049FF"/></linearGradient><linearGradient id="an" x1="340.401" y1="85.807" x2="346.581" y2="79.626" gradientUnits="userSpaceOnUse"><stop stop-color="#FF49A4"/><stop offset=".93" stop-color="#B049FF"/></linearGradient><linearGradient id="ao" x1="57.136" y1="280.466" x2="105.644" y2="280.466" gradientUnits="userSpaceOnUse"><stop stop-color="#FF49A4"/><stop offset=".93" stop-color="#B049FF"/></linearGradient><linearGradient id="ap" x1="54.003" y1="280.466" x2="108.77" y2="280.466" gradientUnits="userSpaceOnUse"><stop stop-color="#FF49A4"/><stop offset=".93" stop-color="#B049FF"/></linearGradient><linearGradient id="aq" x1="93.128" y1="56.702" x2="141.636" y2="56.702" gradientUnits="userSpaceOnUse"><stop stop-color="#FF49A4"/><stop offset=".93" stop-color="#B049FF"/></linearGradient><linearGradient id="ar" x1="93.128" y1="56.702" x2="141.636" y2="56.702" gradientUnits="userSpaceOnUse"><stop stop-color="#FF49A4"/><stop offset=".93" stop-color="#B049FF"/></linearGradient><linearGradient id="as" x1="89.996" y1="56.703" x2="144.762" y2="56.703" gradientUnits="userSpaceOnUse"><stop stop-color="#FF49A4"/><stop offset=".93" stop-color="#B049FF"/></linearGradient><linearGradient id="at" x1="278.402" y1="303.937" x2="333.169" y2="303.937" gradientUnits="userSpaceOnUse"><stop stop-color="#FF49A4"/><stop offset=".93" stop-color="#B049FF"/></linearGradient><linearGradient id="au" x1="281.535" y1="303.937" x2="330.042" y2="303.937" gradientUnits="userSpaceOnUse"><stop stop-color="#FF49A4" stop-opacity=".5"/><stop offset=".93" stop-color="#B049FF" stop-opacity=".5"/></linearGradient><linearGradient id="av" x1="281.535" y1="303.937" x2="330.042" y2="303.937" gradientUnits="userSpaceOnUse"><stop stop-color="#FF49A4"/><stop offset=".93" stop-color="#B049FF"/></linearGradient><linearGradient id="aw" x1="301.878" y1="301.393" x2="309.702" y2="301.393" gradientUnits="userSpaceOnUse"><stop stop-color="#FF49A4"/><stop offset=".93" stop-color="#B049FF"/></linearGradient><linearGradient id="ax" x1="297.964" y1="313.715" x2="313.612" y2="313.715" gradientUnits="userSpaceOnUse"><stop stop-color="#FF49A4"/><stop offset=".93" stop-color="#B049FF"/></linearGradient><linearGradient id="ay" x1="30.535" y1="137.288" x2="79.042" y2="137.288" gradientUnits="userSpaceOnUse"><stop stop-color="#FF49A4" stop-opacity=".5"/><stop offset=".93" stop-color="#B049FF" stop-opacity=".5"/></linearGradient><linearGradient id="az" x1="30.535" y1="137.288" x2="79.042" y2="137.288" gradientUnits="userSpaceOnUse"><stop stop-color="#FF49A4"/><stop offset=".93" stop-color="#B049FF"/></linearGradient><linearGradient id="aA" x1="27.402" y1="137.289" x2="82.169" y2="137.289" gradientUnits="userSpaceOnUse"><stop stop-color="#FF49A4"/><stop offset=".93" stop-color="#B049FF"/></linearGradient><linearGradient id="aB" x1="41.488" y1="137.288" x2="68.089" y2="137.288" gradientUnits="userSpaceOnUse"><stop stop-color="#FF49A4"/><stop offset=".93" stop-color="#B049FF"/></linearGradient><linearGradient id="aC" x1="348.964" y1="220.222" x2="397.472" y2="220.222" gradientUnits="userSpaceOnUse"><stop stop-color="#FF49A4"/><stop offset=".93" stop-color="#B049FF"/></linearGradient><linearGradient id="aD" x1="345.831" y1="220.222" x2="400.598" y2="220.222" gradientUnits="userSpaceOnUse"><stop stop-color="#FF49A4"/><stop offset=".93" stop-color="#B049FF"/></linearGradient><linearGradient id="aE" x1="304.363" y1="127.116" x2="344.264" y2="127.116" gradientUnits="userSpaceOnUse"><stop stop-color="#FF49A4"/><stop offset=".93" stop-color="#B049FF"/></linearGradient><linearGradient id="aF" x1="285.785" y1="204.378" x2="339.573" y2="204.378" gradientUnits="userSpaceOnUse"><stop stop-color="#FF49A4"/><stop offset=".93" stop-color="#B049FF"/></linearGradient><linearGradient id="aG" x1="98.597" y1="153.522" x2="140.65" y2="153.522" gradientUnits="userSpaceOnUse"><stop stop-color="#FF49A4"/><stop offset=".93" stop-color="#B049FF"/></linearGradient><linearGradient id="aH" x1="165.402" y1="66.319" x2="212.402" y2="66.319" gradientUnits="userSpaceOnUse"><stop stop-color="#FF49A4"/><stop offset=".93" stop-color="#B049FF"/></linearGradient><linearGradient id="aI" x1="241.777" y1="289.461" x2="216.74" y2="289.461" gradientUnits="userSpaceOnUse"><stop stop-color="#FF49A4"/><stop offset=".93" stop-color="#B049FF"/></linearGradient><linearGradient id="aJ" x1="122.074" y1="235.87" x2="81.39" y2="235.87" gradientUnits="userSpaceOnUse"><stop stop-color="#FF49A4"/><stop offset=".93" stop-color="#B049FF"/></linearGradient></defs></svg>