<svg xmlns="http://www.w3.org/2000/svg" width="295" height="264" fill="none" xmlns:v="https://vecta.io/nano"><g fill="url(#A)"><path d="M129.88 105.623c49.022 11.118 79.849 36.386 79.849 77.322 0 51.042-46.494 79.848-104.612 79.848-53.569 0-96.526-27.795-105.117-74.795l65.193-11.623c3.032 21.731 19.71 32.849 39.924 32.849 21.226 0 33.86-9.602 33.86-22.742 0-14.15-13.645-20.72-27.795-23.752l-30.323-6.065C34.365 145.547 4.043 119.773 4.043 78.333 4.043 28.301 51.548 0 105.117 0c53.064 0 89.956 28.301 97.537 75.806l-65.193 11.118c-2.527-20.215-15.666-32.344-35.881-32.344-17.183 0-30.828 8.086-30.828 22.236 0 13.645 11.118 19.709 25.774 22.742l33.354 6.065z"/><path d="M252.686 221.1c-23.26 0-42.115 18.855-42.115 42.114H294.8c0-23.259-18.855-42.114-42.114-42.114z"/></g><defs><linearGradient id="A" x1="0" y1="9.5" x2="110" y2="9.5" gradientUnits="userSpaceOnUse"><stop stop-color="#ff49a4"/><stop offset=".93" stop-color="#b049ff"/></linearGradient></defs></svg>