<svg width="111" height="19" viewBox="0 0 111 19" fill="none" xmlns="http://www.w3.org/2000/svg">
<path d="M6.08301 5.50781C9.87879 5.50781 11.1516 7.80921 11.3154 9.17871L8.15234 9.8252C8.04469 9.07374 7.62727 8.11725 6.10938 8.11719C5.16195 8.11719 4.40137 8.6603 4.40137 9.38379C4.40143 10.1072 4.85856 10.4038 5.78223 10.6191C6.4324 10.7698 7.02644 10.8804 7.64648 11.0117V11.0137C10.2411 11.5671 11.4795 12.5684 11.4795 14.7432C11.4794 16.8124 9.7997 18.877 6.30078 18.877C2.28725 18.8769 0.904875 16.3946 0.741211 14.9648L4.02734 14.3184C4.10916 15.3088 4.7009 16.2391 6.27246 16.2393C7.46522 16.2393 8.03601 15.6389 8.03613 14.9736C8.03613 14.3083 7.3556 14.1183 6.41895 13.8857C5.75813 13.7222 5.2715 13.6298 4.56543 13.4512C2.85146 13.0184 1.09473 11.9437 1.09473 9.66992C1.09478 7.39625 3.20867 5.50798 6.08301 5.50781ZM16.5508 13.2344C16.5508 14.8685 17.6163 15.6824 18.9727 15.6826C20.3292 15.6826 21.3955 14.8665 21.3955 13.2344V5.81445H24.873V12.9502C24.873 16.4234 22.5815 18.876 18.9727 18.876C15.3641 18.8758 13.0732 16.4211 13.0732 12.9502V5.81445H16.5508V13.2344ZM76.291 5.50586C80.352 5.50586 82.7832 7.99735 82.7832 12.082C82.7832 12.5724 82.7296 12.9789 82.7295 13.0312H73.3262C73.4058 14.7128 74.8743 15.9276 76.6377 15.9277C78.2182 15.9277 79.0601 15.0746 79.5059 14.0195L82.5361 15.0146C81.8127 17.1356 79.7581 18.875 76.6123 18.875C73.0035 18.875 69.8252 16.3666 69.8252 12.0752C69.8253 8.01659 72.9257 5.50603 76.291 5.50586ZM40.6279 5.50586C44.2363 5.50617 46.4219 7.96085 46.4219 11.4316V18.5674H42.9443V11.1475C42.9443 9.51316 41.9813 8.69922 40.627 8.69922C39.2727 8.69934 38.3105 9.51543 38.3105 11.1475V18.5674H34.833V11.1475C34.833 9.51316 33.87 8.69922 32.5156 8.69922C31.1615 8.69938 30.1992 9.51547 30.1992 11.1475V18.5674H26.7217V11.4316C26.7217 7.95861 28.907 5.50604 32.5156 5.50586C34.2747 5.50586 35.6378 6.0918 36.5723 7.09082C37.5065 6.08985 38.8695 5.50619 40.6279 5.50586ZM62.373 5.50586C65.9829 5.5067 68.168 7.96122 68.168 11.4316V18.5674H64.6904V11.1475C64.6904 9.51316 63.7274 8.69922 62.373 8.69922C61.0188 8.69934 60.0566 9.51543 60.0566 11.1475V18.5674H56.5791V11.1475C56.5791 9.51316 55.6161 8.69922 54.2617 8.69922C52.9075 8.69938 51.9453 9.51547 51.9453 11.1475V18.5674H48.4678V11.4316C48.4678 7.95861 50.6531 5.50604 54.2617 5.50586C56.0208 5.50586 57.3839 6.0918 58.3184 7.09082C59.2524 6.09003 60.615 5.5064 62.373 5.50586ZM93.2598 16.2012C94.5427 16.2015 95.5975 17.2564 95.5977 18.5674H90.9229C90.923 17.2567 91.9772 16.202 93.2598 16.2012ZM103.093 0.123047C103.818 0.123047 104.517 0.252642 104.801 0.381836V3.14648H103.715C102.963 3.1466 101.931 3.48446 101.931 4.90527V5.81445H110.246V18.5674H106.769V8.75293H101.941V18.5674H98.4639V8.75293H96.6611V5.81641H98.4639V4.85547C98.464 1.98548 100.274 0.123118 103.093 0.123047ZM91.2793 5.65918C91.7077 5.65918 92.087 5.71113 92.4121 5.81445V8.75098H91.334C89.4822 8.75098 88.0586 10.0219 88.0586 12.2031V18.5654H84.5811V5.81445H87.7744V7.84082C88.2955 6.54681 89.8175 5.65929 91.2773 5.65918H91.2793ZM76.3428 8.29883C74.5 8.29895 73.4842 9.64406 73.4043 10.8066H79.2822C79.2282 9.53855 78.373 8.29883 76.3428 8.29883ZM108.404 0.782227C109.687 0.782586 110.742 1.83743 110.742 3.14844H106.067C106.067 1.83772 107.122 0.783048 108.404 0.782227Z" fill="url(#paint0_linear_8961_97079)"/>
<defs>
<linearGradient id="paint0_linear_8961_97079" x1="0.741211" y1="9.5" x2="110.742" y2="9.5" gradientUnits="userSpaceOnUse">
<stop stop-color="#FFD24A"/>
<stop offset="0.93" stop-color="#31DFBA"/>
</linearGradient>
</defs>
</svg>
