<svg xmlns="http://www.w3.org/2000/svg" width="110" height="19" fill="none" xmlns:v="https://vecta.io/nano"><path fill-rule="evenodd" d="M101.189 5.814v-.909c0-1.421 1.034-1.759 1.785-1.759h1.085V.381c-.284-.129-.982-.258-1.707-.258-2.819 0-4.63 1.863-4.63 4.733v.96H95.92v2.937h1.802v9.814h3.478V8.753h4.827v9.814h3.478V5.814h-8.316zM35.832 7.09c.934-1.001 2.297-1.585 4.056-1.585 3.608 0 5.793 2.455 5.793 5.926v7.136h-3.477v-7.42c0-1.634-.962-2.448-2.317-2.448s-2.317.816-2.317 2.448v7.42h-3.477v-7.42c0-1.634-.962-2.448-2.317-2.448s-2.317.816-2.317 2.448v7.42h-3.478v-7.136c0-3.473 2.186-5.926 5.794-5.926 1.759 0 3.122.586 4.057 1.585zM6.251 10.877h0l-1.21-.257c-.924-.215-1.38-.512-1.38-1.236s.76-1.266 1.708-1.266c1.518 0 1.936.956 2.043 1.708l3.163-.646c-.164-1.369-1.436-3.671-5.232-3.671C2.468 5.508.353 7.396.353 9.67s1.757 3.348 3.471 3.781l1.007.237.847.198c.937.233 1.617.422 1.617 1.087s-.571 1.266-1.763 1.266c-1.572 0-2.164-.93-2.246-1.921L0 14.965c.164 1.43 1.546 3.912 5.56 3.912 3.499 0 5.179-2.065 5.179-4.134 0-2.175-1.238-3.176-3.833-3.729v-.002l-.655-.135zm14.403 2.357c0 1.632-1.066 2.448-2.422 2.448s-2.422-.814-2.422-2.448v-7.42h-3.477v7.136c0 3.471 2.291 5.926 5.9 5.926s5.9-2.453 5.9-5.926V5.814h-3.477v7.42zm40.978-7.728c-1.758 0-3.12.584-4.055 1.585-.934-.999-2.297-1.585-4.057-1.585-3.609 0-5.794 2.453-5.794 5.926v7.136h3.477v-7.42c0-1.632.963-2.448 2.317-2.448s2.317.814 2.317 2.448v7.42h3.477v-7.42c0-1.632.962-2.448 2.317-2.448s2.317.814 2.317 2.448v7.42h3.477v-7.136c0-3.47-2.185-5.925-5.794-5.926zM87.034 7.84c.521-1.294 2.043-2.181 3.503-2.181h.002c.428 0 .807.052 1.133.155v2.937h-1.079c-1.852 0-3.275 1.27-3.275 3.452v6.363H83.84V5.814h3.193V7.84zm18.291-4.692c0-1.311 1.055-2.366 2.338-2.366S110 1.837 110 3.148h-4.675zm2.338-2.366h-.001.002-.001zM92.519 16.201c-1.283.001-2.337 1.055-2.337 2.366h4.675c0-1.311-1.055-2.366-2.337-2.366zm-16.622-.273c1.581 0 2.422-.853 2.868-1.908l3.03.995c-.724 2.121-2.778 3.861-5.923 3.861-3.609 0-6.787-2.509-6.787-6.8 0-4.059 3.101-6.569 6.466-6.569 4.061 0 6.492 2.491 6.492 6.576 0 .371-.031.694-.046.852l-.008.098h-9.403c.08 1.682 1.548 2.896 3.312 2.896zm2.644-5.12c-.054-1.268-.909-2.509-2.939-2.509-1.843 0-2.859 1.346-2.939 2.509h5.878z" fill="#fffbfd"/></svg>