<svg width="60" height="61" viewBox="0 0 60 61" fill="none" xmlns="http://www.w3.org/2000/svg">
<rect y="0.572266" width="60" height="60" rx="8" fill="url(#paint0_linear_5741_45337)"/>
<path fill-rule="evenodd" clip-rule="evenodd" d="M39.3068 23.1124C38.7316 22.455 37.7325 22.3884 37.0751 22.9636C36.4178 23.5388 36.3512 24.5379 36.9264 25.1952L40.1666 28.8984H30.9997C30.1263 28.8984 29.4182 29.6064 29.4182 30.4799C29.4182 31.3533 30.1263 32.0614 30.9997 32.0614H40.1666L36.9264 35.7645C36.3512 36.4218 36.4178 37.421 37.0751 37.9962C37.7325 38.5713 38.7316 38.5047 39.3068 37.8474L44.8421 31.5213C45.3638 30.925 45.3638 30.0347 44.8421 29.4384L39.3068 23.1124ZM19.7446 30.4799C19.7446 31.79 18.6824 32.8521 17.3723 32.8521C16.0621 32.8521 15 31.79 15 30.4799C15 29.1697 16.0621 28.1076 17.3723 28.1076C18.6824 28.1076 19.7446 29.1697 19.7446 30.4799ZM22.3014 30.4799C22.3014 29.6064 23.0095 28.8983 23.8829 28.8983H25.4644C26.3379 28.8983 27.0459 29.6064 27.0459 30.4799C27.0459 31.3533 26.3379 32.0614 25.4644 32.0614H23.8829C23.0095 32.0614 22.3014 31.3533 22.3014 30.4799Z" fill="url(#paint1_linear_5741_45337)"/>
<defs>
    <linearGradient id="paint0_linear_5741_45337" x1="3.01587" y1="-0.809314" x2="29.0294" y2="71.6855" gradientUnits="userSpaceOnUse">
        <stop offset="0.0559211" stop-color="#FFEAEA"/>
        <stop offset="1" stop-color="#FFF5EA"/>
    </linearGradient>
    <linearGradient id="paint1_linear_5741_45337" x1="44.2604" y1="31.7978" x2="16.1234" y2="38.1525" gradientUnits="userSpaceOnUse">
        <stop stop-color="#E97047"/>
        <stop offset="0.578125" stop-color="#E7A77F"/>
        <stop offset="1" stop-color="#007DA3"/>
    </linearGradient>
</defs>
</svg>
