<svg width="260" height="180" viewBox="0 0 260 180" fill="none" xmlns="http://www.w3.org/2000/svg">
<rect opacity="0.2" x="120.964" y="82.0117" width="97" height="97" rx="48.5" fill="url(#paint0_linear_6195_4159)"/>
<rect x="202.964" y="90.0117" width="25" height="25" rx="12.5" fill="url(#paint1_linear_6195_4159)"/>
<rect opacity="0.2" x="0.963867" y="93.0117" width="25" height="25" rx="12.5" fill="url(#paint2_linear_6195_4159)"/>
<rect x="23.9639" y="43.0117" width="16" height="16" rx="8" fill="url(#paint3_linear_6195_4159)"/>
<rect x="23.9639" y="43.0117" width="16" height="16" rx="8" fill="url(#paint4_linear_6195_4159)"/>
<rect x="50.9639" y="144.012" width="16" height="16" rx="8" fill="url(#paint5_linear_6195_4159)"/>
<rect x="241.964" y="122.012" width="18" height="18" rx="9" fill="url(#paint6_linear_6195_4159)"/>
<rect opacity="0.34" x="153.964" y="0.0117188" width="34" height="34" rx="17" fill="url(#paint7_linear_6195_4159)"/>
<rect x="53.3535" y="31.2168" width="117.1" height="117.1" rx="58.5498" fill="url(#paint8_linear_6195_4159)" stroke="white"/>
<path opacity="0.3" d="M80.9716 72.441C80.6594 70.5816 81.65 68.7406 83.3858 68.0045L110.342 56.5743C111.34 56.1511 112.467 56.1511 113.465 56.5743L140.421 68.0046C142.157 68.7406 143.147 70.5815 142.835 72.441C141.921 77.8878 140.21 89.3438 140.21 98.8315C140.21 110.767 120.095 120.197 113.778 122.864C112.582 123.369 111.239 123.335 110.067 122.778C103.792 119.797 83.5969 109.383 83.597 98.8315C83.597 89.3438 81.8863 77.8878 80.9716 72.441Z" fill="url(#paint9_linear_6195_4159)"/>
<path d="M85.1503 73.9191C85.017 73.2128 85.3896 72.5118 86.0476 72.2306L111.903 61.1805L137.759 72.2306C138.417 72.5118 138.789 73.2128 138.656 73.9191C137.9 77.9264 136.027 88.7441 136.027 97.5874C136.027 99.9474 135.025 102.228 133.38 104.381C131.735 106.534 129.47 108.528 127.005 110.302C122.076 113.851 116.425 116.466 113.569 117.682C112.508 118.133 111.335 118.104 110.293 117.607C107.452 116.253 101.786 113.367 96.8366 109.724C94.3615 107.903 92.0844 105.906 90.4306 103.831C88.7728 101.752 87.7792 99.6427 87.7792 97.5874C87.7793 88.7441 85.9061 77.9264 85.1503 73.9191Z" fill="url(#paint10_linear_6195_4159)" stroke="white"/>
<path d="M104.03 90.7263L109.227 96.8536L121.352 82.6816" stroke="white" stroke-width="4" stroke-linecap="round" stroke-linejoin="round"/>
<path d="M104.03 90.7263L109.227 96.8536L121.352 82.6816" stroke="url(#paint11_linear_6195_4159)" stroke-width="4" stroke-linecap="round" stroke-linejoin="round"/>
<defs>
<linearGradient id="paint0_linear_6195_4159" x1="169.464" y1="82.0117" x2="169.464" y2="179.012" gradientUnits="userSpaceOnUse">
<stop stop-color="#FB855C"/>
<stop offset="1" stop-color="#FBA85C"/>
</linearGradient>
<linearGradient id="paint1_linear_6195_4159" x1="215.464" y1="90.0117" x2="215.464" y2="115.012" gradientUnits="userSpaceOnUse">
<stop stop-color="#FB855C"/>
<stop offset="1" stop-color="#FBA85C"/>
</linearGradient>
<linearGradient id="paint2_linear_6195_4159" x1="13.4639" y1="93.0117" x2="13.4639" y2="118.012" gradientUnits="userSpaceOnUse">
<stop stop-color="#FB855C"/>
<stop offset="1" stop-color="#FBA85C"/>
</linearGradient>
<linearGradient id="paint3_linear_6195_4159" x1="23.9639" y1="43.0117" x2="39.9639" y2="59.0117" gradientUnits="userSpaceOnUse">
<stop stop-color="#6DD5FA"/>
<stop offset="0.375" stop-color="#F2FCFF"/>
<stop offset="0.651042" stop-color="#FFE7D8"/>
<stop offset="1" stop-color="#FBB677"/>
</linearGradient>
<linearGradient id="paint4_linear_6195_4159" x1="31.9639" y1="43.0117" x2="31.9639" y2="59.0117" gradientUnits="userSpaceOnUse">
<stop stop-color="#FB855C"/>
<stop offset="1" stop-color="#FBA85C"/>
</linearGradient>
<linearGradient id="paint5_linear_6195_4159" x1="58.9639" y1="144.012" x2="58.9639" y2="160.012" gradientUnits="userSpaceOnUse">
<stop stop-color="#FB855C"/>
<stop offset="1" stop-color="#FBA85C"/>
</linearGradient>
<linearGradient id="paint6_linear_6195_4159" x1="250.964" y1="122.012" x2="250.964" y2="140.012" gradientUnits="userSpaceOnUse">
<stop stop-color="#FB855C"/>
<stop offset="1" stop-color="#FBA85C"/>
</linearGradient>
<linearGradient id="paint7_linear_6195_4159" x1="170.964" y1="0.0117187" x2="170.964" y2="34.0117" gradientUnits="userSpaceOnUse">
<stop stop-color="#FB855C"/>
<stop offset="1" stop-color="#FBA85C"/>
</linearGradient>
<linearGradient id="paint8_linear_6195_4159" x1="52.8535" y1="30.7168" x2="170.953" y2="148.816" gradientUnits="userSpaceOnUse">
<stop stop-color="#6DD5FA"/>
<stop offset="0.375" stop-color="#F2FCFF"/>
<stop offset="0.651042" stop-color="#FFE7D8"/>
<stop offset="1" stop-color="#FBB677"/>
</linearGradient>
<linearGradient id="paint9_linear_6195_4159" x1="90.2518" y1="146.193" x2="166.152" y2="83.4325" gradientUnits="userSpaceOnUse">
<stop stop-color="#FC845B"/>
<stop offset="0.453125" stop-color="#E7A77F"/>
<stop offset="1" stop-color="#00A7D9"/>
</linearGradient>
<linearGradient id="paint10_linear_6195_4159" x1="84.3467" y1="60.6367" x2="142.519" y2="115.665" gradientUnits="userSpaceOnUse">
<stop stop-color="#6DD5FA"/>
<stop offset="0.375" stop-color="#F2FCFF"/>
<stop offset="0.651042" stop-color="#FFE7D8"/>
<stop offset="1" stop-color="#FBB677"/>
</linearGradient>
<linearGradient id="paint11_linear_6195_4159" x1="120.356" y1="95.0165" x2="117.701" y2="78.8702" gradientUnits="userSpaceOnUse">
<stop stop-color="#FC845B"/>
<stop offset="0.453125" stop-color="#E7A77F"/>
<stop offset="1" stop-color="#00A7D9"/>
</linearGradient>
</defs>
</svg>
