<svg width="157" height="28" viewBox="0 0 157 28" fill="none" xmlns="http://www.w3.org/2000/svg">
<path d="M7.61133 8.31104C13.0203 8.31104 14.8342 11.5912 15.0674 13.5425L10.5605 14.4624C10.4071 13.3917 9.8114 12.0298 7.64844 12.0298C6.29858 12.0298 5.21582 12.8027 5.21582 13.8335C5.21582 14.8643 5.86644 15.2874 7.18262 15.5942C8.10895 15.8089 8.95547 15.9657 9.83887 16.1528V16.1558C13.5358 16.9442 15.2998 18.3715 15.2998 21.4702C15.2996 24.4184 12.907 27.3608 7.92188 27.3608C2.20307 27.3608 0.23317 23.8228 0 21.7856L4.68164 20.8657C4.79832 22.2769 5.64233 23.6021 7.88184 23.6021C9.58133 23.602 10.3944 22.7462 10.3945 21.7983C10.3945 20.8504 9.42523 20.5798 8.09082 20.2485C7.14908 20.0154 6.45528 19.884 5.44922 19.6294C3.00711 19.0127 0.503015 17.4814 0.50293 14.2417C0.50293 11.002 3.51574 8.31123 7.61133 8.31104ZM22.5264 19.3208C22.5264 21.6494 24.0447 22.809 25.9775 22.8091C27.9104 22.8091 29.4297 21.6464 29.4297 19.3208V8.74854H34.3838V18.9155C34.3838 23.8643 31.1196 27.3589 25.9775 27.3589C20.8356 27.3588 17.5713 23.8611 17.5713 18.9155V8.74854H22.5264V19.3208ZM107.647 8.30908C113.434 8.30908 116.898 11.8591 116.898 17.6792C116.898 18.3782 116.821 18.9577 116.821 19.0317H103.423C103.536 21.4278 105.629 23.1586 108.142 23.1587C110.394 23.1587 111.593 21.9433 112.229 20.4399L116.545 21.8579C115.514 24.8796 112.587 27.3587 108.105 27.3589C102.963 27.3589 98.4346 23.784 98.4346 17.6694C98.4347 11.8865 102.852 8.30928 107.647 8.30908ZM56.833 8.30908C61.9744 8.30959 65.0879 11.8071 65.0879 16.7524V26.9194H60.1328V16.3472C60.1328 14.0187 58.7617 12.8589 56.832 12.8589C54.9023 12.8589 53.5303 14.0217 53.5303 16.3472V26.9194H48.5762V16.3472C48.5761 14.0186 47.2042 12.8589 45.2744 12.8589C43.3448 12.859 41.9737 14.0218 41.9736 16.3472V26.9194H37.0186V16.7524C37.0186 11.8038 40.1325 8.30918 45.2744 8.30908C47.7809 8.30908 49.7232 9.14344 51.0547 10.5669C52.3859 9.14068 54.3274 8.30951 56.833 8.30908ZM87.8164 8.30908C92.9597 8.31045 96.0723 11.8077 96.0723 16.7524V26.9194H91.1172V16.3472C91.1172 14.0185 89.7462 12.8589 87.8164 12.8589C85.8866 12.8589 84.5156 14.0216 84.5156 16.3472V26.9194H79.5605V16.3472C79.5605 14.0185 78.1886 12.8589 76.2588 12.8589C74.3292 12.859 72.958 14.0218 72.958 16.3472V26.9194H68.0029V16.7524C68.0029 11.8038 71.117 8.30926 76.2588 8.30908C78.7653 8.30908 80.7075 9.14342 82.0391 10.5669C83.37 9.14085 85.3113 8.30977 87.8164 8.30908ZM131.825 23.5474C133.653 23.5481 135.156 25.0514 135.156 26.9194H128.495C128.495 25.0516 129.997 23.5483 131.825 23.5474ZM145.836 0.63916C146.87 0.63916 147.863 0.823301 148.269 1.00732V4.94678H146.723C145.652 4.9468 144.18 5.42877 144.18 7.45361V8.74756H156.028V26.9194H151.073V12.936H144.194V26.9194H139.24V12.936H136.672V8.75146H139.24V7.38232C139.24 3.29289 141.82 0.639221 145.836 0.63916ZM129.004 8.52783C129.614 8.52785 130.154 8.60135 130.617 8.74854V12.9331H129.08C126.442 12.9332 124.414 14.7442 124.414 17.8521V26.9175H119.459V8.74854H124.009V11.6362C124.751 9.79235 126.921 8.52783 129.001 8.52783H129.004ZM107.722 12.2886C105.095 12.2886 103.647 14.2061 103.533 15.8628H111.909C111.832 14.0558 110.615 12.2887 107.722 12.2886ZM153.404 1.57861C155.232 1.57931 156.735 3.08268 156.735 4.95068H150.074C150.074 3.08287 151.577 1.5796 153.404 1.57861Z" fill="url(#paint0_linear_418_7708)"/>
<defs>
<linearGradient id="paint0_linear_418_7708" x1="0" y1="14" x2="156.735" y2="14" gradientUnits="userSpaceOnUse">
<stop stop-color="#FFD24A"/>
<stop offset="0.93" stop-color="#31DFBA"/>
</linearGradient>
</defs>
</svg>
