<svg xmlns="http://www.w3.org/2000/svg" fill="none" viewBox="0 0 193 49">
  <g fill="#474747" clip-path="url(#a)">
    <path
      d="m25.915 28.223-2.37 6.505c-.07.18-.07.38 0 .561l4.07 11.195 4.71-2.726-5.65-15.535a.402.402 0 0 0-.76 0Zm4.74-10.944a.402.402 0 0 0-.76 0l-2.37 6.504a.778.778 0 0 0 0 .562l6.67 18.33 4.71-2.725-8.25-22.671Z" />
    <path
      d="M22.285 3.037c.12 0 .23.03.34.09l17.96 10.393c.21.12.34.341.34.582v20.786a.67.67 0 0 1-.34.582l-17.96 10.403a.691.691 0 0 1-.68 0L3.995 35.48a.67.67 0 0 1-.34-.582V14.102c0-.24.13-.461.34-.582l17.96-10.393c.1-.06.22-.09.33-.09Zm0-3.037c-.64 0-1.28.17-1.85.501L2.475 10.895a3.714 3.714 0 0 0-1.85 3.207v20.786a3.73 3.73 0 0 0 1.85 3.218l17.96 10.393c.57.33 1.21.501 1.85.501.64 0 1.28-.17 1.85-.501l17.96-10.394a3.697 3.697 0 0 0 1.85-3.217V14.102a3.73 3.73 0 0 0-1.85-3.218L24.145.501A3.755 3.755 0 0 0 22.285 0Z" />
    <path
      d="M20.775 12.618h-4.55a.8.8 0 0 0-.76.531l-9.76 26.82 4.71 2.727 10.75-29.536a.408.408 0 0 0-.39-.542Zm7.97 0h-4.55a.8.8 0 0 0-.76.531l-11.15 30.63 4.71 2.725 12.13-33.334a.408.408 0 0 0-.38-.552Zm34.59 5.583c.45 0 .84.09 1.15.28.31.19.62.552.92 1.093l5.94 10.804c.06.12.07.22.04.3-.03.081-.12.121-.26.121h-2.28c-.2 0-.34-.08-.41-.23l-1.27-2.316h-8.43l-1.24 2.316c-.08.16-.22.23-.41.23h-2.33c-.16 0-.25-.04-.28-.12-.03-.08-.02-.18.04-.3l5.89-10.805c.3-.541.59-.902.88-1.093.29-.19.62-.28 1-.28h1.05Zm-3.49 7.948h6.18l-2.85-5.272c-.05-.08-.11-.13-.2-.13h-.11c-.08 0-.15.04-.2.13l-2.82 5.272Zm24.55-7.948c1.38 0 2.36.31 2.96.932.6.621.9 1.543.9 2.766v1.022c0 1.033-.21 1.845-.63 2.446-.42.601-1.1.982-2.05 1.152l3.07 3.809c.06.06.08.15.05.27-.02.12-.12.181-.29.181h-2.31c-.16 0-.26-.02-.32-.05a.764.764 0 0 1-.18-.18l-2.84-3.739h-5.8v3.578c0 .26-.13.391-.39.391h-1.94c-.28 0-.41-.13-.41-.39V18.741c0-.36.18-.541.54-.541h9.64Zm-7.43 6.424h6.87c.61 0 1.04-.13 1.29-.39.25-.261.38-.662.38-1.203v-.752c0-.541-.13-.942-.38-1.203-.25-.26-.68-.39-1.29-.39h-6.64c-.16 0-.23.07-.23.22v3.718Zm26.3-6.424c1.23 0 2.11.25 2.63.741.52.492.78 1.233.78 2.226v.861c0 1.003-.38 1.764-1.15 2.285.82.482 1.24 1.253 1.24 2.316v1.042c0 .481-.05.912-.16 1.293-.11.38-.28.712-.53.982s-.57.481-.98.622c-.41.14-.91.22-1.51.22h-10.66c-.36 0-.54-.18-.54-.541V18.742c0-.36.18-.541.54-.541h10.34Zm-8.13 5.232h7.36c.6 0 1-.09 1.22-.271.22-.18.32-.441.32-.792v-.611c0-.371-.1-.642-.31-.822-.21-.17-.55-.26-1.01-.26h-7.34c-.16 0-.23.08-.23.23v2.526h-.01Zm0 1.964v2.676c0 .16.08.23.23.23h7.36c.48 0 .82-.09 1.02-.26.2-.17.31-.451.31-.832v-.681c0-.371-.11-.652-.33-.842-.22-.19-.63-.291-1.23-.291h-7.36Zm18.32-7.196c.26 0 .39.13.39.39v11.797c0 .26-.13.391-.39.391h-1.94c-.28 0-.41-.13-.41-.39V18.601c0-.26.14-.391.41-.391l1.94-.01Zm18.8 0c.28 0 .41.13.41.39v1.765c0 .28-.14.41-.41.41h-5.63v9.622c0 .26-.13.391-.39.391h-1.96c-.26 0-.39-.13-.39-.39v-9.622h-5.63c-.28 0-.41-.14-.41-.411v-1.764c0-.26.14-.391.41-.391h14Zm14.19 0c1.38 0 2.36.31 2.96.932.6.621.9 1.543.9 2.766v1.022c0 1.033-.21 1.845-.63 2.446-.42.601-1.1.982-2.05 1.152l3.07 3.809c.06.06.08.15.05.27-.02.12-.12.181-.29.181h-2.31c-.16 0-.26-.02-.32-.05a.764.764 0 0 1-.18-.18l-2.84-3.739h-5.8v3.578c0 .26-.13.391-.39.391h-1.94c-.28 0-.41-.13-.41-.39V18.741c0-.36.18-.541.54-.541h9.64Zm-7.42 6.424h6.87c.61 0 1.04-.13 1.29-.39.25-.261.38-.662.38-1.203v-.752c0-.541-.13-.942-.38-1.203-.25-.26-.68-.39-1.29-.39h-6.64c-.16 0-.23.07-.23.22v3.718Zm17.51-6.424c.26 0 .39.13.39.39v7.177c0 .48.04.882.12 1.192.08.321.21.572.39.752.18.19.42.32.73.391.31.08.69.12 1.16.12h4.97c.47 0 .85-.04 1.16-.12.31-.08.55-.21.73-.39.18-.191.31-.442.38-.753.07-.32.11-.711.11-1.192v-7.176c0-.26.13-.391.39-.391h1.96c.26 0 .39.13.39.39v7.447c0 .862-.09 1.594-.27 2.205-.18.602-.47 1.093-.87 1.474-.4.38-.92.651-1.56.822-.64.17-1.41.25-2.32.25h-5.17c-.91 0-1.68-.08-2.31-.25-.63-.17-1.15-.442-1.55-.822-.4-.381-.69-.872-.88-1.474-.19-.601-.28-1.343-.28-2.205v-7.446c0-.26.14-.391.41-.391h1.92Zm20.59 0c.26 0 .49.02.68.05.19.04.36.1.5.21.14.1.27.24.39.411.11.17.23.401.35.692l3.73 8.63c.05.11.13.16.25.16h.22c.12 0 .2-.05.25-.16l3.73-8.63c.12-.29.24-.521.35-.692.11-.17.24-.31.39-.41.14-.1.31-.171.49-.211.19-.04.41-.05.67-.05h1.92c.62 0 1.04.14 1.26.42.22.281.32.763.32 1.444v10.323c0 .26-.14.391-.41.391h-1.83c-.26 0-.39-.13-.39-.39v-9.392c0-.12-.05-.18-.14-.18h-.16c-.12 0-.2.05-.23.14l-3.62 8.058c-.14.32-.29.601-.44.822-.15.22-.31.4-.48.551-.17.14-.37.25-.59.31-.22.061-.48.091-.78.091h-.86c-.3 0-.56-.03-.78-.09-.22-.06-.42-.16-.59-.31a2.405 2.405 0 0 1-.48-.552 4.72 4.72 0 0 1-.44-.822l-3.62-8.058c-.04-.1-.11-.14-.23-.14h-.16c-.1 0-.14.06-.14.18v9.391c0 .26-.13.391-.39.391h-1.83c-.28 0-.41-.13-.41-.39V20.064c0-.681.11-1.163.32-1.443.22-.28.64-.421 1.27-.421h1.91Z" />
  </g>
  <defs>
    <clipPath id="a">
      <path d="M.625 0h192v49h-192z" fill="#fff" />
    </clipPath>
  </defs>
</svg>