<svg xmlns="http://www.w3.org/2000/svg" fill="none" viewBox="0 0 189 49">
  <path
    d="M53.68 28.05c0 .33-.28.61-.63.61H41.5c.3 2.85 2.44 5.47 5.46 5.47a5.4 5.4 0 0 0 4.76-2.44c.12-.18.3-.3.5-.3.33 0 .58.25.58.58 0 .12-.03.2-.08.3-1.17 2-3.48 3-5.75 3-3.88 0-6.66-3.48-6.66-7.18 0-3.77 2.77-7.23 6.66-7.23s6.69 3.44 6.7 7.15Zm-1.24-.54c-.24-2.85-2.44-5.46-5.47-5.46-3.02 0-5.17 2.6-5.46 5.46h10.93Zm15.25-6.34c.33 0 .57.3.57.58 0 .33-.24.57-.57.57h-3.13V34.5c0 .3-.25.58-.58.58a.6.6 0 0 1-.58-.58V22.32h-2.97a.56.56 0 0 1-.58-.57c0-.3.24-.58.58-.58h2.97v-4.43c0-.3.23-.58.52-.6.37-.05.65.21.65.56v4.47h3.08Zm18.9 5.89v7.36a.6.6 0 0 1-.57.58.56.56 0 0 1-.58-.58v-7.36c0-2.5-1.4-4.96-4.17-4.96-3.55 0-5.09 3.1-4.88 6.28l.04.5v5.52c0 .3-.23.58-.52.61a.57.57 0 0 1-.65-.57v-24.2c0-.3.25-.59.58-.59.33 0 .57.3.57.58V23.9a5.57 5.57 0 0 1 4.84-2.98c3.41 0 5.34 2.98 5.34 6.13Zm20.74 1c0 .32-.28.6-.63.6H95.16c.3 2.85 2.44 5.47 5.46 5.47a5.4 5.4 0 0 0 4.76-2.44c.12-.18.3-.3.5-.3.33 0 .58.25.58.58 0 .12-.04.2-.1.3-1.16 2-3.47 3-5.74 3-3.88 0-6.66-3.48-6.66-7.18 0-3.77 2.77-7.23 6.66-7.23 3.87 0 6.67 3.44 6.7 7.15Zm-1.26-.55c-.24-2.8-2.43-5.42-5.46-5.42-3.01 0-5.17 2.6-5.47 5.46h10.93Zm15.43-5.76c0 .37-.21.58-.54.63-3.4.5-4.93 3.27-4.93 6.5v5.51c0 .3-.23.58-.52.61a.57.57 0 0 1-.65-.57V21.8c0-.3.23-.57.53-.6.36-.04.64.22.64.57v2.56c.96-1.62 2.86-3.16 4.84-3.16.3 0 .63.2.63.54Zm18.99 6.34c0 .33-.28.61-.63.61h-11.54c.3 2.85 2.44 5.47 5.47 5.47 2.07 0 3.6-.79 4.75-2.44.12-.17.3-.3.5-.3.33 0 .58.26.58.59 0 .12-.04.2-.1.3-1.16 2.01-3.47 3.01-5.74 3.01-3.88.01-6.66-3.47-6.66-7.17 0-3.74 2.77-7.2 6.66-7.2s6.7 3.44 6.7 7.15Zm-1.24-.54c-.24-2.85-2.44-5.46-5.47-5.46-3.02 0-5.16 2.6-5.46 5.46h10.93Zm19.9-5.66V34.5a.6.6 0 0 1-.58.58.56.56 0 0 1-.57-.58v-2.4c-.96 1.9-2.65 3.27-4.8 3.27-3.44 0-5.33-2.97-5.33-6.13v-7.4c0-.29.24-.57.57-.57.33 0 .58.3.58.58v7.4c0 2.48 1.4 4.96 4.17 4.96 3.89 0 4.8-3.64 4.8-7.66v-4.72c0-.35.38-.7.8-.54.17.1.32.33.32.57Zm29.22 5.16v7.4a.6.6 0 0 1-.57.57.56.56 0 0 1-.57-.58v-7.4c0-2.48-1.4-4.92-4.18-4.92-3.48 0-4.8 3.73-4.8 6.61v5.7a.6.6 0 0 1-.58.6.56.56 0 0 1-.57-.59V27c0-2.48-1.41-4.92-4.18-4.92-3.52 0-4.96 2.77-4.84 6.46 0 .09.03.24 0 .3v5.55a.6.6 0 0 1-.52.6.57.57 0 0 1-.65-.57V21.8c0-.3.23-.57.52-.6.37-.04.65.22.65.57v2.1a5.53 5.53 0 0 1 4.84-2.94c2.35 0 4.18 1.5 4.92 3.67.96-2.15 2.82-3.67 5.2-3.67 3.4 0 5.34 2.94 5.34 6.08Z"
    fill="#474747" />
  <path d="m14.82 33.48 14.47-8.55-14.47-6.56L.37 24.93l14.45 8.55Z" fill="#474747" opacity=".6" />
  <path d="M14.82 18.37V.95l-14.45 24 14.45 8.53v-15.1Z" fill="#474747" opacity=".45" />
  <path d="m14.82 33.48 14.47-8.54-14.47-24v32.54Z" fill="#474747" opacity=".8" />
  <path d="M14.82 36.22.37 27.69l14.45 20.36V36.22Z" fill="#474747" opacity=".45" />
  <path d="m29.29 27.69-14.47 8.53v11.83L29.3 27.7Z" fill="#474747" opacity=".8" />
</svg>