<svg xmlns="http://www.w3.org/2000/svg" fill="none" viewBox="0 0 171 23">
  <g clip-path="url(#a)">
    <path
      d="M2.8 20.7c1.6 1.1 3.6 1.7 6.2 1.7 3 0 5.5-.7 7.3-2a11 11 0 0 0 3.8-6.2 65.4 65.4 0 0 0 1.4-6.9 6 6 0 0 0-1.2-3.6c-.7-1-1.7-1.8-3-2.3a15 15 0 0 0-4.4-.8C6.9.6 3.2 3.4 1.7 9a95.6 95.6 0 0 0-1.3 6.9c0 2.1.8 3.7 2.4 4.9Zm9.6-3.7c-.8.7-1.8 1-3 1-2 0-3-1-3-2.8V14l1.2-5c.4-1.3 1-2.4 1.8-3 .9-.7 1.9-1 3-1 2 0 3 .9 3 2.7V9l-1.1 5c-.4 1.3-1 2.4-1.9 3Zm11.7 5 .6.2H29c.2 0 .4 0 .6-.2l.4-.6 1.4-6.6h4.3c2.8 0 5-.6 6.6-1.7a8.1 8.1 0 0 0 3.2-5l.2-1.7c0-1.7-.7-3-2.2-4C42.1 1.3 40.2 1 38 1h-8.5a1 1 0 0 0-.6.2l-.4.6L24 21.3l.1.6Zm14.2-12a4 4 0 0 1-2.3.6h-3.7l1.2-5.4h3.8a3 3 0 0 1 1.9.5c.3.3.5.8.5 1.3v1a4 4 0 0 1-1.4 2Zm14.6 12c-.3 0-.4 0-.6-.2v-.6l3.4-15.6h-5.6l-.6-.2a.7.7 0 0 1 0-.6l.7-3.2.3-.6.6-.2h17.1c.3 0 .5 0 .6.2l.1.4v.2l-.7 3.2c0 .2-.2.4-.4.6a1 1 0 0 1-.6.2h-5.6L58 21.3l-.3.6a1 1 0 0 1-.6.2h-4.2Zm16.3-.2.5.2H74c.2 0 .4 0 .6-.2l.4-.6 4.4-19.6v-.2l-.1-.4a.7.7 0 0 0-.6-.2h-4.3a1 1 0 0 0-.6.2l-.3.6L69 21.3v.6Zm12.7.2c-.3 0-.5 0-.6-.2-.1-.2-.2-.4-.1-.6l4.4-19.6.3-.6.7-.2H90c.5 0 .8.2 1 .7l3.5 9.5 7.7-9.5.4-.5.8-.2h3.5c.2 0 .4 0 .5.2l.1.4v.2l-4.4 19.6-.3.6a1 1 0 0 1-.6.2h-3.9c-.2 0-.4 0-.5-.2a.7.7 0 0 1-.1-.6l2.5-11.1-5 6.1-.5.5-.7.2h-1.6c-.5 0-.8-.2-1-.7L89.2 10l-2.6 11.4-.3.6a1 1 0 0 1-.6.2h-3.8Zm27.5-.2.6.2h4.3c.2 0 .4 0 .6-.2l.3-.6 4.4-19.6V1h-4.9a1 1 0 0 0-.6.2l-.4.6-4.4 19.6.1.6Zm20.5.5c-1.8 0-3.4-.3-4.8-.8a7 7 0 0 1-3-1.9 4.1 4.1 0 0 1-.9-3.4c0-.2.1-.3.3-.5l.5-.1h4.6l.5.5c.1.5.5 1 1 1.3.6.4 1.3.5 2.3.5a8 8 0 0 0 2.9-.5c.7-.4 1.2-.9 1.3-1.5v-.4c0-.5-.3-.9-1-1.1-.6-.3-1.8-.7-3.6-1-2-.5-3.6-1.2-4.6-2-1.1-.9-1.6-2-1.6-3.4 0-.5 0-1 .2-1.5a6.9 6.9 0 0 1 3.1-4.4c1.7-1 3.9-1.6 6.6-1.6 1.6 0 3 .3 4.3.8 1.2.6 2.2 1.3 2.9 2.1a3.8 3.8 0 0 1 1 3c0 .2-.2.3-.3.5l-.5.2H137c-.5 0-.8-.2-1-.6 0-.4-.3-.8-.8-1.1-.5-.4-1-.5-1.9-.5a5 5 0 0 0-2.3.5 2 2 0 0 0-1.1 1.4v.4c0 .5.3.9.8 1.2l3.3 1c2.3.4 4 1 5.2 1.8a4 4 0 0 1 1.6 3.3c0 .5 0 1-.2 1.5a7 7 0 0 1-3.4 4.7 14 14 0 0 1-7.2 1.6Zm14.5-.5.5.2h3.9c.2 0 .4 0 .6-.2l.3-.6 2.6-11.4 2.2 6.4c.2.5.5.7 1 .7h1.6c.2 0 .5 0 .7-.2l.6-.5 4.8-6.1-2.4 11.1v.6l.6.2h3.8c.3 0 .5 0 .6-.2.2-.2.4-.4.4-.6l4.4-19.6v-.2l-.1-.4-.5-.2h-3.5c-.3 0-.6 0-.8.2l-.4.5-7.8 9.5-3.4-9.5c-.2-.5-.5-.7-1-.7h-3.5a1 1 0 0 0-.6.2l-.3.6-4.4 19.6v.6Z"
      fill="#474747" fill-rule="evenodd" clip-rule="evenodd" />
  </g>
  <defs>
    <clipPath id="a">
      <path d="M.4.6h170.3v21.8H.4z" fill="#fff" />
    </clipPath>
  </defs>
</svg>