<svg xmlns="http://www.w3.org/2000/svg" width="401" height="56" fill="none" viewBox="0 0 401 56"><path fill="#fff" d="m96.2 44.1-2.5-5.6H78.8L76.3 44h-10l13.5-28.8h13L106 44zM81.7 32h9.1l-4.5-10.3zm56.3-9.7h-21.5v4.3h21.4v6.2h-21.4V37h21.4v7h-30.5V15.3H138zm35.6 3.7q-.2 7-5.6 9.7l5.1 8.4h-10.7l-4.3-7.2H149V44h-9V15.3h22.7c6.5 0 11 4.3 11 10.8m-24.7-3v6.2h11.6c1.7 0 4 0 4-3.1 0-3.2-2.3-3.2-4-3.2zm44.2 21.4c-12.7 0-18.2-5-18.2-14.9 0-9.7 5.5-14.8 18.2-14.8s18 5.1 18 14.8-5.4 15-18 15m0-7.6c7 0 9-2.8 9-7.3s-2-7-9-7-9.1 2.6-9.1 7 2 7.3 9 7.3m41.4-21.7c7.1 0 13.7 4.6 13.7 14.4S241.6 44 234.5 44h-21.3V15.3zm-3.1 21.1c4 0 7.7-.5 7.7-6.7s-3.8-6.8-7.7-6.8h-9.1v13.5zM283.9 26c0 4.5-2.2 8-5.7 9.7l5.2 8.4h-10.7l-4.3-7.2h-9.2V44h-9V15.3h22.6c6.6 0 11 4.3 11 10.8m-24.7-3v6.2h11.6c1.6 0 4 0 4-3.1 0-3.2-2.4-3.2-4-3.2zm44.3 21.4c-12.7 0-18.1-5-18.1-14.9 0-9.7 5.4-14.8 18.1-14.8s18.2 5.1 18.2 14.8-5.5 15-18.2 15m0-7.6c7 0 9-2.8 9-7.3s-1.9-7-9-7-9 2.6-9 7 2 7.3 9 7.3m64.3-21.7V44h-9V27.3l-10 16.8h-6.2l-10-16.9v17h-9v-29H335l10.5 18.5L356 15.3zm33 7h-21.5v4.3h21.5v6.2h-21.5V37h21.5v7H370V15.3h30.6z"/><g clip-path="url(#clip0_827_2149)"><path fill="#0c0d1d" d="M5.3 22.2v-.5h.1v-.2h.1v-.2l.1-.1V21h.1v-.2h.1v-.1l.1-.2H6v-.1l.1-.1.1-.1v-.1h.1V20h.1v-.2h.1v-.1h.1v-.1h.1v-.1h.1v-.1H7v-.2h.1v-.1l.1-.1h.2v-.1l.1-.1.1-.1.1-.1h.1v-.1H8v-.2h.1v-.1h.1V18h.2l.1-.1.1-.1.1-.1.1-.1H9l.1-.1.1-.1.1-.1h.1v-.1h.1V17h.3v-.1h.1l.1-.1.1-.1h.1v-.1h.1l.1-.1h.1v-.1h.2v-.1l.2-.1V16h.3v-.1h.2v-.1h.1l.1-.1.1-.1h.1v-.1h.2v-.1h.1l.2-.1.1-.1.2-.1.1-.1.2-.1.1-.1h.2v-.1h.1l.1-.1.2-.1.1-.1.2-.1.1-.1h.2V14h.3l.1-.1h.1v-.1h.2v-.1h.1l.1-.1h.2v-.1h.2v-.1h.2v-.1h.1l.1-.1h.1V13h.4l.1-.1h.1l.1-.1h.2l.1-.1.2-.1.2-.1h.2v-.1h.1l.1-.1h.2l.1-.1h.1l.1-.1h.1l.1-.1h.2l.1-.1h.1v-.1h.2l.2-.1.2-.1h.2v-.1h.2v-.1h.2v-.1h.3l.1-.1h.1l.1-.1h.2l.1-.1h.1l.1-.1h.1l.1-.1h.2l.1-.1h.1l.3-.1.2-.1.2-.1h.2l.1-.1h.1l.1-.1h.1l.1-.1h.2l.2-.1.2-.1h.2l.1-.1h.1l.2-.1.2-.1h.2l.1-.1h.1l.1-.1h.2l.2-.1h.1l.1-.1h.2L26 9l.2-.1h.1l.1-.1h.3v-.1h.2l.1-.1h.2l.2-.1h.2l.1-.1h.1l.2-.1h.2l.1-.1h.3v-.1h.2L29 8h.2l.2-.1h.2l.1-.1h.2v-.1h.3l.2-.1h.2l.1-.1h.1l.2-.1h.2l.2-.1h.2l.1-.1h.3l.1-.1h.2V7h.7l.2-.1.2-.1h.2l.2-.1h.2l.2-.1h.2l.2-.1h.2v-.1h.4l.2-.1h.2l.2-.1h.2l.2-.1h.3l.1-.1h.3l.2-.1h.2l.2-.1h.2l.2-.1h.3v-.1h.4l.1-.1h.4l.2-.1h.2l.2-.1h.3l.1-.1h.3l.1-.1h.3L41 5h.3l.1-.1h.3l.1-.1h.5l.1-.1h.4l.2-.1h.3l.1-.1h.5a2.3 2.3 0 1 0-1-4.6h-.2l-.2.1h-.4l-.2.1h-.3l-.1.1H41l-.2.1h-.3l-.1.1h-.3l-.2.1h-.3v.1h-.4l-.1.1h-.3l-.1.1h-.5l-.1.1h-.3l-.1.1h-.3l-.2.1H37l-.2.1h-.3l-.1.1h-.3l-.1.1h-.2l-.2.1h-.3l-.1.1H35l-.2.1h-.4l-.1.1H34V2h-.1l-.2.1h-.2l-.2.1H33l-.2.1h-.1l-.1.1h-.3l-.1.1h-.3l-.1.1h-.2l-.2.1h-.1l-.2.1H31l-.2.1h-.2l-.1.1h-.2l-.1.1h-.3v.1h-.3l-.2.1h-.2l-.2.1-.2.1h-.3v.1H28l-.1.1h-.2l-.1.1-.4.1H27V4h-.3l-.1.1h-.3l-.1.1h-.1l-.2.1h-.2l-.1.1h-.1l-.2.1h-.2l-.1.1-.2.1-.2.1h-.2l-.1.1H24V5h-.3l-.1.1h-.1l-.2.1-.2.1H23l-.1.1h-.1l-.2.1h-.2l-.1.1h-.1l-.1.1h-.2l-.2.1-.2.1-.2.1h-.4l-.2.1h-.2v.1h-.2l-.1.1h-.1l-.1.1h-.2l-.1.1h-.1l-.1.1h-.3v.1H19v.1h-.2l-.2.1-.2.1-.2.1H18l-.1.1h-.1l-.1.1h-.2l-.1.1h-.1l-.1.1H17l-.1.1h-.2l-.1.1h-.1l-.1.1h-.2L16 8l-.2.1-.2.1h-.2v.1h-.1l-.1.1H15l-.1.1h-.1l-.1.1h-.1v.1h-.2v.1h-.2L14 9h-.1l-.1.1h-.1v.1h-.2v.1h-.2l-.1.1H13l-.1.1-.2.1-.2.1-.1.1h-.1v.1h-.2l-.1.1-.4.3h-.2v.1h-.1l-.1.1H11v.1h-.2v.1h-.1l-.1.1h-.2v.1h-.1v.1h-.2v.1H10l-.1.1-.2.1-.1.1h-.2v.1h-.1v.1h-.2v.1H9v.1h-.2v.1h-.1v.1h-.2v.1h-.1l-.1.1-.2.1v.1H8v.1h-.1l-.1.1h-.1v.1h-.1v.1h-.2v.1l-.2.1v.1H7v.1h-.1l-.1.1-.1.1-.1.1h-.1v.1h-.1v.1h-.2v.1H6v.2h-.1l-.1.1-.4.3-.1.1-.1.1-.1.1-.1.1-.1.1h-.1v.1h-.1v.1h-.1v.1h-.1v.1h-.1v.1h-.1l-.1.1-.1.1-.1.1-.1.2h-.1v.1h-.1l-.1.1v.1h-.1v.1h-.1v.1l-.1.1-.1.1-.1.1-.3.4-.1.1v.1h-.1v.1h-.1v.1l-.1.1v.1h-.1v.1l-.1.1v.1H2v.1l-.1.1v.1h-.1v.2h-.1v.1l-.3.5v.1l-.1.1v.1l-.1.1v.2h-.1v.3H1v.2l-.2.5v.2l-.1.1v.4l-.1.1v2.1h.1v.2l.2.4v.3l.1.1v.1h.1v.2l.1.1.2.4.1.1v.1h.1v.2h.1v.1H2v.1l.1.1v.1h.1v.1l.3.3v.1h.1v.1h.1v.1h.1v.1h.1v.1l.1.1v.1h.1v.1h.1v.1l.1.1h.1v.1h.1v.1h.1l.4.3v.1h.1v.1h.1l.1.1h.1v.1h.1l.1.1h.1v.1h.1l.1.1H5v.1h.1l.1.1h.1v.1h.1l.1.1h.1v.1h.2v.1H6v.1h.1l.1.1h.1v.1h.2v.1h.1l.3.2h.2v.1h.1v.1h.2v.1h.1l.2.1h.1l.1.1H8l.1.1h.1l.1.1h.1v.1h.2v.1h.2v.1H9l.1.1h.2v.1h.2v.1h.2l.2.1h.1l.2.1h.1v.1h.3v.1h.3v.1h.2l.2.1.2.1h.1l.2.1h.1l.2.1h.2l.4.2h.1l.2.1h.2l.1.1h.2v.1l.4.1h.1l.3.1h.1l.2.1.3.1h.1l.1.1h.4v.1h.3l.1.1h.3l.1.1h.4v.1h.3l.1.1h.3l.1.1h.3l.2.1h.2l.2.1h.2l.2.1h.3l.1.1h.3l.1.1h.3l.2.1h.4v.1h.4v.1h.4l.2.1h.4l.1.1h.4l.1.1h.6v.1h.5l.1.1h.5l.2.1h.4l.1.1h.6v.1h.5l.1.1h.5l.1.1h.6l.1.1h.6l.1.1h.8l.1.1h.8v.1h.8l.1.1h.7l.2.1h.7l.2.1h.7l.1.1h.8l.2.1h.9l.1.1h1.3v.1h1.2l.2.1h1.3l.1.1h1.3l.1.1h1.4l.1.1h.3a.7.7 0 1 0 0-1.4h-1.2l-.2-.1h-.7l-.2-.1h-.9v-.1h-.9v-.1h-.9v-.1h-.8l-.2-.1h-.8l-.2-.1H35v-.1h-.7l-.1-.1h-.5l-.2-.1h-.4l-.1-.1h-.6l-.2-.1h-.4l-.2-.1H31v-.1h-.6v-.1h-.6l-.2-.1h-.3l-.1-.1H29l-.2-.1h-.4l-.2-.1h-.3l-.1-.1h-.3l-.2-.1h-.4l-.1-.1h-.3l-.2-.1H26l-.2-.1h-.4l-.1-.1H25V33h-.4l-.1-.1h-.4l-.1-.1h-.3l-.2-.1h-.2v-.1h-.4v-.1h-.4v-.1h-.3l-.1-.1h-.3l-.1-.1h-.1l-.2-.1H21V32h-.3l-.1-.1h-.1l-.2-.1H20l-.2-.1h-.2l-.2-.1h-.2v-.1H19l-.1-.1h-.2l-.1-.1h-.3l-.1-.1H18l-.2-.1h-.2l-.1-.1h-.2l-.1-.1h-.1l-.2-.1h-.2l-.1-.1h-.2v-.1h-.2l-.1-.1H16l-.1-.1h-.2v-.1h-.2l-.1-.1h-.2v-.1H15l-.1-.1h-.4v-.1h-.3l-.1-.1h-.2v-.1h-.1l-.2-.1h-.1l-.1-.1h-.2v-.1H13l-.2-.1h-.1v-.1h-.2V29h-.2l-.1-.1H12l-.1-.1h-.1l-.1-.1h-.2v-.1h-.2v-.1h-.1l-.1-.1H11v-.1h-.2v-.1h-.2v-.1h-.1l-.1-.1h-.2l-.1-.1H10l-.1-.1h-.1l-.1-.1h-.1v-.1h-.1l-.1-.1h-.1v-.1h-.1l-.1-.1H9v-.1l-.1-.1h-.1V27h-.2v-.1h-.1v-.1h-.1l-.1-.1h-.1v-.1H8v-.1l-.1-.1h-.1v-.1h-.1l-.1-.1V26h-.1l-.1-.1h-.1v-.1h-.1v-.1H7v-.2h-.1v-.1h-.1v-.1h-.1v-.1h-.1v-.1h-.1V25h-.2v-.1h-.1v-.1H6v-.3h-.1v-.1l-.1-.1v-.1h-.1V24l-.1-.1v-.1h-.1v-.2l-.1-.1v-.3h-.1v-1.1"/><path fill="#0433ff" d="M5.3 26.8v-.5h.1V26h.1v-.2l.1-.1v-.1h.1v-.2h.1v-.1l.1-.1v-.1H6V25l.1-.1.1-.1v-.1h.1v-.1h.1v-.2h.1v-.1h.1v-.1h.1v-.1h.1V24H7v-.1h.1v-.1l.1-.1h.1v-.1h.1v-.1l.1-.1.1-.1.1-.1.1-.1H8v-.2h.1v-.1h.1v-.1h.1v-.1h.1l.1-.1.1-.1.1-.1.1-.1H9V22l.1-.1.1-.1h.1v-.1h.1v-.1h.1l.1-.1h.1v-.1h.1l.1-.1.1-.1h.1v-.1h.1l.1-.1h.3v-.1l.2-.1v-.1h.2v-.1h.1v-.1h.2v-.1h.1l.1-.1.1-.1h.1V20h.3v-.1h.2l.1-.1.2-.1.1-.1.2-.1.1-.1h.2v-.1h.1l.1-.1.2-.1.1-.1.2-.1.1-.1h.1l.1-.1h.2v-.1h.1l.1-.1h.1v-.1h.2v-.1h.1l.1-.1h.2V18h.4v-.1h.1l.1-.1h.1v-.1h.2v-.1h.2l.1-.1h.1l.1-.1h.2l.1-.1.2-.1.2-.1h.2V17h.1l.1-.1h.2l.1-.1h.1l.1-.1h.1l.1-.1h.2l.1-.1h.1v-.1h.2l.2-.1.2-.1h.2V16h.4v-.1h.3l.1-.1h.1l.1-.1h.2l.1-.1h.1l.1-.1h.1l.1-.1h.2l.1-.1h.1l.3-.1.2-.1.2-.1h.2l.1-.1h.1l.2-.2h.3l.2-.1.2-.1h.2l.1-.1h.1l.2-.1.2-.1h.2l.1-.1h.1l.1-.1h.2l.2-.1h.1l.1-.1h.2l.2-.1.2-.1h.1l.1-.1h.3v-.1h.2l.1-.1h.2l.2-.1h.2l.1-.1h.1l.2-.1h.2l.1-.1h.3v-.1h.2l.2-.1h.2l.2-.1h.2l.1-.1h.2v-.1h.3l.2-.1h.2l.1-.1h.1l.2-.1h.2l.2-.1h.2l.1-.1h.3l.1-.1h.2v-.1h.4v-.1h.3l.2-.1.2-.1h.2l.2-.1h.2l.2-.1h.2l.2-.1h.2V11h.4l.2-.1h.2l.2-.1h.2l.2-.1h.3l.1-.1h.3l.2-.1h.2l.2-.1h.2l.2-.1h.3v-.1h.4l.1-.1h.3l.1-.1h.4l.2-.1h.3l.1-.1h.3l.1-.1h.3l.2-.1h.3l.1-.1h.3l.1-.1h.5l.1-.1h.3l.1-.1h.5l.1-.1h.5a2.3 2.3 0 1 0-1-4.6h-.2l-.2.1h-.4l-.2.1h-.3l-.1.1H41l-.2.1h-.3l-.1.1h-.3l-.2.1h-.3v.1h-.4l-.1.1h-.4l-.2.1h-.3l-.1.1h-.3l-.1.1h-.3l-.2.1H37l-.2.1h-.3l-.1.1h-.3L36 6h-.2l-.2.1h-.3l-.1.1h-.5v.1h-.4l-.1.1H34l-.1.1h-.1l-.2.1h-.2l-.2.1H33l-.2.1h-.1l-.1.1h-.3l-.1.1h-.3l-.1.1h-.2l-.2.1h-.1l-.2.1H31l-.2.1h-.2l-.1.1h-.2l-.1.1h-.3v.1h-.3l-.2.1h-.2l-.2.1-.2.1h-.3v.1H28l-.1.1h-.3l-.4.2H27v.1h-.3l-.1.1h-.3l-.1.1h-.1l-.2.1h-.2l-.1.1h-.1l-.2.1h-.2l-.1.1-.2.1-.2.1h-.2l-.1.1H24v.1h-.3l-.1.1h-.1l-.2.1h-.2l-.1.1-.1.1h-.1l-.2.1h-.2l-.1.1h-.1l-.1.1h-.2l-.2.1-.2.1-.2.1h-.2l-.1.1h-.1l-.2.1h-.2v.1h-.2l-.2.2h-.3l-.2.2h-.4v.1H19v.1h-.2l-.2.1-.3.2H18l-.1.1h-.1l-.1.1h-.2l-.1.1h-.1l-.1.1H17l-.1.1h-.1l-.1.1h-.1l-.1.1h-.2v.1H16v.1h-.2v.1h-.2v.1h-.2l-.2.1-.1.1H15l-.1.1h-.1l-.1.1h-.1v.1h-.2l-.2.1-.2.1-.1.1h-.1l-.1.1h-.1v.1h-.2v.1h-.2l-.1.1H13l-.1.1-.2.1-.2.1-.1.1h-.1v.1h-.2l-.1.1-.4.3h-.2v.1h-.1l-.1.1H11v.1h-.2v.1h-.1l-.1.1h-.2v.1h-.1v.1h-.2v.1H10l-.1.1-.2.1-.1.1h-.2v.1h-.1v.1h-.2v.1H9v.1h-.2v.1h-.1l-.1.1h-.1v.1h-.1l-.1.1-.2.1v.1H8v.1h-.1l-.1.1h-.1v.1h-.1v.1h-.2v.1l-.2.1v.1H7v.1h-.1l-.1.1-.1.1-.1.1h-.1v.1h-.1l-.1.1h-.1v.1H6v.2h-.1l-.1.1-.4.3-.1.1-.1.1-.1.1-.1.1h-.1v.1h-.1v.1h-.1v.1h-.1v.1h-.1v.1h-.1v.1h-.1l-.1.1-.1.1-.1.1-.1.2h-.1v.1h-.1l-.1.1v.1h-.1v.1h-.1v.1l-.1.1-.1.1-.1.1-.3.4-.1.1v.1h-.1v.1h-.1v.1l-.1.1v.1h-.1v.1l-.1.1-.1.1v.1l-.1.1v.1h-.1v.2h-.1v.1l-.3.5v.1l-.1.1v.1l-.1.1v.2h-.1v.2l-.1.1v.2l-.2.5v.2l-.1.1v.4l-.1.1v2.1h.1v.2l.2.4v.3l.1.1v.1h.1v.2l.1.1.2.4.1.1v.1h.1v.2h.1v.1H2v.1l.1.1v.1h.1v.1l.3.3v.1h.1v.1h.1v.1h.1v.1h.1v.1H3v.2h.1v.1h.1v.1l.1.1h.1v.1h.1v.1h.1l.4.3v.1h.1v.1h.2v.1h.1v.1h.1l.1.1h.1v.1h.1l.1.1H5v.1h.1l.1.1h.1v.1h.1l.1.1h.1l.1.1h.1v.1H6v.1h.1l.1.1h.1v.1h.2v.1h.1l.3.2h.2v.1h.1v.1h.2v.1h.3v.1h.1l.1.1H8l.1.1h.1l.1.1h.1v.1h.2v.1h.2v.1H9l.1.1h.2v.1h.2l.2.1.2.1h.1l.2.1h.1v.1h.3v.1h.3l.2.1.1.1h.2l.1.1h.3v.1h.1l.2.1h.2l.3.2h.2l.3.2h.4v.1h.1l.3.1h.1l.3.1h.1l.1.1h.1l.3.1h.1l.1.1h.4v.1h.3l.1.1h.3l.1.1h.4v.1h.3l.1.1h.3l.1.1h.3l.2.1h.2l.2.1h.4v.1h.3l.1.1h.3l.1.1h.5v.1h.4v.1h.4v.1h.4l.2.1h.4l.1.1h.5l.1.1h.5v.1h.5l.1.1h.5l.2.1h.4l.1.1h.6v.1h.5l.1.1h.6l.1.1h.5l.1.1h.6l.1.1h.8l.1.1h.8v.1h.8l.1.1h.7l.2.1h.7l.2.1h.8l.1.1h.7l.2.1h.9l.1.1h1.3v.1H38l.1.1h1.3l.1.1h1.2l.1.1h1.4l.1.1h.3a.7.7 0 1 0 0-1.4h-1.2l-.2-.1h-.7l-.2-.1h-.9V40h-.9v-.1h-.9v-.1h-.8l-.2-.1h-.8l-.2-.1H35v-.1h-.5l-.2-.1h-.6l-.2-.1h-.4l-.1-.1h-.6l-.2-.1h-.4l-.2-.1H31v-.1h-.6v-.1H30l-.1-.1h-.5l-.1-.1H29l-.2-.1h-.4l-.2-.1h-.3l-.1-.1h-.3l-.2-.1h-.4l-.1-.1h-.3l-.2-.1H26l-.2-.1h-.4l-.1-.1H25v-.1h-.4l-.1-.1h-.4l-.1-.1h-.3l-.2-.1h-.2v-.1h-.4v-.1h-.2l-.2-.1h-.3l-.1-.1h-.3l-.1-.1h-.2l-.1-.1H21l-.1-.1h-.3l-.1-.1h-.1l-.2-.1H20l-.2-.1h-.2v-.1h-.4v-.1H19l-.1-.1h-.2l-.1-.1h-.3l-.1-.1H18l-.2-.1h-.2l-.1-.1h-.2l-.1-.1h-.1l-.2-.1h-.1l-.1-.1h-.3v-.1h-.2l-.1-.1H16l-.1-.1h-.2V35h-.2l-.1-.1h-.2v-.1H15l-.1-.1h-.2v-.1h-.2v-.1h-.3l-.1-.1h-.2v-.1h-.1l-.2-.1h-.1l-.1-.1h-.2V34H13l-.2-.1h-.1v-.1h-.2v-.1h-.2l-.1-.1H12v-.1h-.2l-.1-.1h-.2v-.1h-.2v-.1h-.1V33h-.4v-.1h-.2v-.1h-.1l-.1-.1h-.2v-.1l-.1-.1H10l-.1-.1h-.1l-.1-.1-.1-.1h-.1l-.1-.1h-.1V32h-.1l-.1-.1H9v-.1l-.1-.1h-.1v-.1h-.1l-.1-.1h-.1v-.1h-.1l-.1-.1h-.1v-.1H8V31l-.1-.1h-.1v-.1h-.1l-.1-.1v-.1h-.1l-.1-.1h-.1v-.1h-.1v-.1H7v-.2h-.1V30h-.2v-.1h-.1v-.1h-.1v-.1h-.1v-.1h-.1v-.1h-.1v-.1H6V29h-.1l-.1-.1v-.1h-.1v-.1l-.1-.1v-.1h-.1v-.2l-.1-.1v-.3h-.1z"/><path fill="#9cadff" d="M5.3 31.4v-.5h.1v-.2h.1v-.2l.1-.1v-.1h.1V30h.1l.1-.1v-.1H6v-.1l.1-.1v-.1h.1v-.1h.1v-.1h.1V29h.2v-.1h.1v-.1h.1v-.1H7v-.2h.1v-.1l.1-.1h.1v-.1h.1V28l.1-.1.1-.1.1-.1.1-.1H8v-.2h.1v-.1h.1v-.1h.1v-.1h.1V27h.1l.1-.1.1-.1.1-.1H9l.1-.1.1-.1.1-.1h.1v-.1h.1v-.1h.1l.1-.1h.1V26h.1l.1-.1.1-.1h.1v-.1h.1l.1-.1h.1v-.1h.2v-.1l.2-.1v-.1h.2v-.1h.1V25h.3l.1-.1.1-.1h.1v-.1h.2v-.1h.1v-.1h.2l.1-.1.2-.1.1-.1.2-.1.1-.1.2-.1h.1l.1-.1.2-.1.1-.1.2-.1.1-.1h.1l.1-.1h.2v-.1h.1l.1-.1h.1V23h.2v-.1h.1l.1-.1h.1l.1-.1h.2v-.1h.2v-.1h.1l.1-.1h.1v-.1h.2v-.1h.2l.1-.1h.1l.1-.1h.1l.1-.1h.1l.2-.1.2-.1h.2v-.1h.1l.1-.1h.2l.1-.1h.1l.1-.1h.1l.1-.1h.2l.1-.1h.1V21h.2l.2-.1.2-.1.2-.1h.2v-.1h.2v-.1h.3l.1-.1h.1l.1-.1h.2l.1-.1h.1l.1-.1h.1l.1-.1h.2l.1-.1h.1l.3-.1.2-.1.2-.1.2-.1h.2l.2-.2h.3l.2-.1.2-.1h.2l.1-.1h.1l.2-.1.2-.1h.2l.1-.1h.1l.1-.1h.2l.2-.1h.1l.1-.1h.1l.1-.1h.2l.2-.1h.1l.1-.1h.3V18h.2l.1-.1h.2l.2-.1h.2l.1-.1h.1l.2-.1h.2l.1-.1h.3v-.1h.2l.2-.1h.2l.2-.1.2-.1h.3V17h.3l.2-.1h.2l.1-.1h.1l.2-.1h.2l.2-.1h.2l.1-.1h.2l.1-.1h.3v-.1h.4v-.1h.3l.2-.1.2-.1h.2l.2-.1h.2l.2-.1h.2l.2-.1h.2v-.1h.4v-.1h.4l.2-.1h.2l.2-.1h.3l.1-.1h.3l.2-.1h.2l.2-.1h.2l.2-.1h.3v-.1h.4l.1-.1h.3l.1-.1h.4l.2-.1h.3l.1-.1h.3l.1-.1h.3l.2-.1h.3l.1-.1h.3l.1-.1h.5l.1-.1h.3l.1-.1h.5l.1-.1h.5a2.3 2.3 0 1 0-1-4.6h-.2l-.2.1h-.4l-.2.1h-.4l-.2.1h-.2l-.2.1h-.3l-.1.1h-.3l-.2.1h-.3v.1h-.5l-.2.1h-.2l-.2.1h-.3l-.1.1H38l-.1.1h-.3l-.2.1h-.2l-.2.1h-.3l-.1.1h-.3l-.1.1H36l-.2.1h-.3l-.1.1h-.5v.1h-.4l-.1.1H34l-.1.1h-.1l-.2.1h-.2l-.2.1H33l-.2.1h-.2l-.2.1h-.1l-.1.1h-.3l-.1.1h-.2l-.2.1h-.1l-.2.1H31l-.2.1h-.2l-.1.1H30l-.1.1h-.2v.1h-.3l-.2.1H29l-.2.1-.2.1h-.3v.1H28l-.1.1h-.3l-.4.2H27v.1h-.3l-.1.1h-.3l-.1.1h-.1l-.2.1h-.2l-.1.1h-.1l-.2.1h-.2l-.1.1-.2.1h-.2l-.1.1h-.1l-.1.1H24v.1h-.3l-.1.1h-.1l-.2.1h-.2l-.1.1-.1.1h-.1l-.2.1h-.2l-.1.1h-.1l-.1.1h-.2l-.2.1-.2.1h-.2l-.1.1H21l-.1.1h-.1l-.2.1h-.2v.1h-.2l-.2.1-.2.1-.2.1h-.1l-.1.1h-.3v.1H19v.1h-.2l-.2.1-.2.1h-.2l-.1.1H18l-.1.1h-.1l-.1.1h-.2l-.1.1h-.1l-.1.1H17l-.1.1h-.1l-.1.1h-.1l-.1.1h-.2v.1H16v.1h-.2v.1h-.2l-.2.1-.2.1-.1.1H15l-.1.1h-.1l-.1.1h-.1v.1h-.2l-.2.1-.2.1-.1.1h-.1l-.1.1h-.1v.1h-.2v.1h-.2l-.1.1H13l-.1.1-.2.1-.2.1-.1.1h-.1l-.2.1-.1.1-.4.3h-.2v.1h-.1l-.1.1H11v.1h-.2v.1h-.1l-.1.1h-.2v.1h-.1v.1h-.2v.1H10l-.1.1-.2.1h-.1v.1h-.2v.1h-.1v.1h-.2v.1H9v.1h-.2v.1h-.1l-.1.1h-.1v.1h-.1l-.1.1-.2.1v.1H8v.1h-.1l-.1.1h-.1v.1h-.1v.1h-.2v.1l-.2.1-.1.1H7v.1h-.1l-.1.1-.1.1-.1.1h-.1v.1h-.1l-.1.1h-.1v.1H6v.2h-.1l-.1.1-.4.3-.1.1-.1.1-.1.1-.1.1h-.1v.1h-.1v.1h-.1v.1h-.1v.1h-.1v.1h-.1v.1h-.1l-.1.1-.1.1-.1.1v.1h-.1v.1h-.1v.1h-.1l-.1.1v.1h-.1v.1h-.1v.1l-.1.1h-.1v.1L3 26l-.3.4-.1.1v.1h-.1v.1h-.1v.1l-.1.1v.1h-.1v.1l-.1.1-.1.1v.1l-.1.1v.1h-.1v.2h-.1v.1l-.3.5v.1l-.1.1v.1l-.1.1v.2h-.1v.2l-.1.1v.2l-.2.5v.2l-.1.1v.4l-.1.1v2.1h.1v.2l.2.5v.2H1v.2h.1v.2l.1.1.2.4.1.1v.1h.1v.2h.1v.1H2v.1l.1.1v.1h.1v.1l.3.3v.1h.1v.1h.1v.1h.1v.1h.1v.1H3v.2h.1v.1h.1v.1l.1.1h.1v.1h.1v.1h.1l.4.3v.1h.1l.1.1h.1v.1h.1v.1h.1l.1.1h.1v.1h.1l.1.1H5v.1h.1l.1.1h.1v.1h.1l.1.1h.1l.1.1h.1v.1H6v.1h.1l.1.1h.1v.1h.2v.1h.1l.3.2h.2v.1h.1v.1h.2l.1.1h.2v.1h.1l.1.1H8l.1.1h.1l.1.1h.1v.1h.2v.1h.2v.1H9l.1.1h.2v.1h.3v.1h.1l.2.1h.1l.2.1h.1v.1h.3v.1h.3l.2.1.1.1h.2l.1.1h.3v.1h.1l.2.1h.2l.4.2h.1l.3.1h.1l.1.1h.2v.1l.5.1.3.1h.1l.2.1.3.1h.1l.1.1h.4v.1h.3l.1.1h.4v.1h.4v.1h.3l.1.1h.4l.1.1h.2l.2.1h.2l.2.1h.4v.1h.3l.1.1h.3l.1.1h.5v.1h.4v.1h.4v.1h.4l.2.1h.4l.1.1h.5l.1.1h.5v.1h.6l.1.1h.4l.2.1h.4l.1.1h.6v.1h.5l.1.1h.6l.1.1h.5l.1.1h.7l.1.1h.7l.1.1h.8v.1h.8l.1.1h.9v.1h.9l.1.1h.7l.1.1h.7l.2.1h.9l.1.1h1.3v.1H38l.1.1h1.3l.1.1h1.3l.2.1h1.3l.1.1h.2a.7.7 0 1 0 0-1.4h-1.2l-.2-.1h-.7l-.2-.1h-.7l-.2-.1h-.9v-.1h-.9v-.1h-.8l-.2-.1H36l-.1-.1H35V44h-.5l-.2-.1h-.6l-.2-.1h-.4l-.1-.1h-.6l-.2-.1h-.4l-.2-.1h-.4l-.2-.1h-.6v-.1H30l-.1-.1h-.5l-.1-.1H29l-.2-.1h-.3l-.1-.1h-.5l-.1-.1h-.3l-.2-.1H27l-.2-.1h-.4l-.2-.1H26l-.2-.1h-.4l-.1-.1H25v-.1h-.4l-.1-.1h-.4L24 42h-.3l-.2-.1h-.2v-.1h-.4v-.1h-.2l-.2-.1h-.3l-.1-.1h-.3l-.1-.1h-.2l-.1-.1H21l-.1-.1h-.3l-.1-.1h-.1l-.2-.1H20l-.2-.1h-.2v-.1h-.4v-.1H19l-.1-.1h-.2l-.1-.1h-.3l-.1-.1H18l-.2-.1h-.2l-.1-.1h-.2l-.1-.1h-.1L17 40h-.1l-.1-.1h-.2l-.1-.1h-.2l-.1-.1H16l-.1-.1h-.2v-.1h-.2l-.1-.1h-.2v-.1H15l-.1-.1h-.2v-.1h-.2V39h-.2l-.1-.1h-.3v-.1h-.1l-.2-.1h-.1l-.1-.1h-.2v-.1H13l-.2-.1h-.1v-.1h-.2v-.1h-.2l-.1-.1H12V38h-.2l-.1-.1h-.2v-.1h-.2v-.1h-.1v-.1H11v-.1h-.2v-.1h-.2v-.1h-.1l-.1-.1h-.2v-.1l-.1-.1h-.2l-.1-.1-.1-.1h-.1l-.1-.1h-.1v-.1h-.1l-.1-.1H9v-.1l-.1-.1h-.1v-.1h-.1l-.1-.1h-.1V36h-.1l-.1-.1h-.1v-.1H8v-.1l-.1-.1h-.1v-.1h-.1v-.1h-.1v-.1h-.1l-.1-.1h-.1V35H7v-.2h-.1v-.1h-.1v-.1h-.1v-.1h-.1v-.1h-.1v-.1h-.1v-.1h-.1V34h-.1l-.1-.1v-.1H6v-.1h-.1v-.1l-.1-.1v-.1h-.1v-.1l-.1-.1V33l-.1-.1v-.1l-.1-.1v-.3h-.1v-1.1"/><path fill="#f5f3e6" d="M5.3 36v-.5h.1v-.2h.1V35l.1-.1v-.1h.1v-.2h.1v-.1l.1-.1v-.1H6v-.1l.1-.1V34h.2v-.1h.1v-.2h.1v-.1h.1v-.1h.1v-.1h.1v-.1H7V33h.1l.1-.1h.1v-.1h.1v-.1l.1-.1.1-.1.1-.1.1-.1H8V32h.2v-.1h.1v-.1h.1v-.1h.1l.1-.1.1-.1.1-.1H9l.1-.1.1-.1.1-.1h.1V31h.1v-.1h.1l.1-.1h.1v-.1h.1l.1-.1.1-.1h.1v-.1h.1l.1-.1.1-.1h.2V30l.2-.1v-.1h.2v-.1h.1v-.1h.2v-.1h.1l.1-.1.1-.1h.1v-.1h.2v-.1h.1V29h.2l.1-.1.2-.1.1-.1.2-.1.1-.1.2-.1h.1l.1-.1.2-.1.1-.1.2-.1.1-.1h.1l.1-.1h.2v-.1h.1l.1-.1h.1v-.1h.2v-.1h.1l.1-.1h.1l.1-.1h.2v-.1h.2V27h.1l.1-.1h.1v-.1h.2v-.1h.2l.1-.1h.1l.1-.1h.1l.1-.1h.1l.2-.1.2-.1h.2v-.1h.1l.1-.1h.1l.1-.1h.2l.1-.1h.1l.1-.1h.2l.1-.1h.1v-.1h.2l.2-.1.2-.1.2-.1h.2v-.1h.2V25h.3l.1-.1h.1l.1-.1h.2l.1-.1h.1l.1-.1h.1l.1-.1h.2l.1-.1h.1l.3-.2h.2l.2-.1.3-.1h.1l.2-.2h.3l.2-.1.2-.1h.1l.1-.1h.2l.2-.1.2-.1h.2l.1-.1h.1l.1-.1h.2l.2-.1h.1l.1-.1h.1l.1-.1h.2l.2-.1h.1l.1-.1h.3v-.1h.2l.1-.1h.2l.2-.1h.2l.1-.1h.1l.2-.1h.2l.1-.1h.5l.2-.1h.2l.2-.1.2-.1h.3v-.1h.3l.2-.1h.2l.1-.1h.1l.2-.1h.2l.2-.1h.2l.1-.1h.2l.1-.1h.3v-.1h.4v-.1h.3l.2-.1.2-.1h.2l.2-.1h.2l.2-.1h.2v-.1h.4v-.1h.4V20h.8l.2-.1h.3l.1-.1h.3l.2-.1h.2l.2-.1h.2l.2-.1h.3v-.1h.4l.1-.1h.3l.1-.1h.3l.1-.1h.5l.1-.1h.3l.1-.1h.3l.2-.1h.3l.1-.1h.3l.1-.1h.5l.1-.1h.3l.1-.1h.5l.1-.1h.5a2.3 2.3 0 1 0-1-4.6h-.2l-.3.1H42l-.2.1h-.4l-.2.1H41l-.2.1h-.3l-.1.1h-.3l-.2.1h-.3v.1h-.5l-.2.1h-.2l-.2.1h-.3l-.1.1h-.3l-.1.1h-.3l-.2.1H37l-.2.1h-.3l-.1.1h-.3l-.1.1h-.2l-.2.1h-.4l-.2.1h-.3v.1h-.4l-.1.1H34l-.1.1h-.1l-.2.1h-.2l-.2.1H33l-.2.1h-.2l-.2.1h-.1l-.1.1h-.3l-.1.1h-.2l-.2.1h-.1l-.2.1H31l-.2.1h-.2l-.1.1H30l-.1.1h-.2v.1h-.3l-.2.1H29l-.2.1-.2.1h-.3v.1H28l-.1.1h-.3l-.4.2H27v.1h-.3l-.1.1h-.3l-.1.1h-.1l-.2.1h-.2l-.1.1h-.1l-.2.1h-.2l-.1.1-.2.1h-.2l-.1.1h-.1l-.1.1H24v.1h-.3l-.1.1h-.1l-.2.1h-.2l-.1.1-.1.1h-.1l-.2.1h-.2l-.1.1h-.1l-.1.1h-.2l-.2.1-.2.1h-.2l-.1.1H21l-.1.1h-.1l-.2.1h-.2v.1h-.2l-.2.1-.2.1-.2.1h-.1l-.1.1h-.3v.1H19v.1h-.2l-.2.1-.2.1h-.2l-.1.1H18l-.1.1h-.1l-.1.1h-.2l-.1.1h-.1l-.1.1H17l-.2.1h-.1l-.1.1h-.1l-.1.1h-.2v.1H16v.1h-.2v.1h-.2l-.2.1-.2.1-.1.1H15l-.1.1h-.1l-.1.1h-.1v.1h-.2l-.2.1-.2.1-.1.1h-.1l-.1.1h-.1v.1h-.2l-.2.1-.1.1H13l-.1.1-.2.1-.2.1-.1.1h-.1l-.2.1-.1.1-.4.3h-.2v.1h-.1l-.1.1H11v.1h-.2v.1h-.2v.1h-.2v.1h-.1v.1h-.2v.1H10l-.1.1-.2.1h-.1v.1h-.2v.1h-.1v.1h-.2v.1H9v.1h-.2v.1h-.1l-.1.1h-.1v.1h-.1l-.1.1-.2.1v.1H8l-.1.1-.1.1h-.1v.1h-.1v.1h-.2v.1l-.2.1-.1.1H7v.1h-.1l-.1.1-.1.1-.1.1h-.1v.1h-.1l-.1.1h-.1v.1H6v.2h-.1l-.1.1-.4.3-.1.1-.1.1-.1.1-.1.1h-.1v.1h-.1v.1h-.1v.1h-.1v.1h-.1v.1h-.1v.1h-.1l-.1.1-.1.1-.1.1-.1.2h-.1l-.1.1-.1.1v.1h-.1v.1h-.1v.1l-.1.1h-.1v.1l-.1.1-.3.4-.1.1v.1h-.1v.1h-.1v.1l-.1.1v.1h-.1v.1l-.1.1-.1.1v.1L2 32v.1h-.1v.1l-.1.1v.1l-.3.5v.1l-.1.1v.1l-.1.1v.2h-.1v.2l-.1.1v.2l-.2.5v.2l-.1.1v.4l-.1.1v2.1h.1v.2l.2.5v.2h.1v.2h.1v.2l.1.1.2.4.1.1v.1h.1v.2h.1v.1H2v.1l.1.1v.1h.1v.1l.3.3v.1h.1v.1h.1v.1h.1v.1h.1v.1H3v.2h.1v.1h.1v.1h.1v.1h.1v.1h.1v.1h.1l.4.3v.1h.1l.1.1h.1v.1h.1v.1h.1l.1.1h.1v.1h.1l.1.1H5v.1h.1l.1.1h.1v.1h.2v.1h.1l.1.1h.1v.1H6v.1h.1l.1.1h.1v.1h.2v.1h.1l.3.2h.2v.1h.1v.1h.2l.1.1h.2v.1h.1l.1.1H8l.1.1h.1l.1.1h.1v.1h.2v.1h.2v.1H9l.1.1h.2v.1h.2l.2.1.2.1h.1l.2.1h.1l.2.1h.1v.1h.3v.1h.2l.2.1.2.1h.3v.1h.1l.2.1h.2l.4.2h.1l.3.1h.1l.1.1h.2v.1l.4.1h.1l.3.1h.1l.2.1.3.1h.2l.1.1h.3v.1h.3l.1.1h.4v.1h.4v.1h.3l.1.1h.4l.1.1h.2l.2.1h.2l.2.1h.4v.1h.3l.1.1h.3l.1.1h.5v.1h.4v.1h.4v.1h.4l.2.1h.4l.1.1h.5l.1.1h.5v.1h.6l.1.1h.4l.2.1h.5l.1.1h.5v.1h.5l.1.1h.6l.1.1h.5l.1.1h.7l.1.1h.7l.1.1h.8v.1h.8l.1.1h.9v.1h.9l.1.1h.7l.1.1h.7l.2.1h.9l.1.1h1.3v.1H38l.1.1h1.3l.1.1h1.3l.2.1h1.3l.1.1h.2a.7.7 0 1 0 0-1.4h-1.1l-.1-.1h-.9l-.2-.1h-.7l-.2-.1h-.7l-.2-.1h-.9V49h-.8l-.2-.1H36l-.1-.1H35v-.1h-.5l-.2-.1h-.6l-.2-.1h-.4l-.1-.1h-.5l-.1-.1h-.6l-.2-.1h-.4L31 48h-1l-.1-.1h-.5l-.1-.1H29l-.2-.1h-.3l-.1-.1h-.5l-.1-.1h-.3l-.2-.1H27l-.2-.1h-.4l-.2-.1H26l-.2-.1h-.3l-.1-.1H25v-.1h-.4l-.1-.1h-.3l-.1-.1h-.3l-.1-.1h-.4v-.1h-.4v-.1h-.2l-.2-.1h-.3l-.1-.1h-.3l-.1-.1h-.1l-.2-.1H21l-.1-.1h-.2l-.1-.1h-.2l-.2-.1H20l-.2-.1h-.2v-.1h-.4v-.1H19l-.1-.1h-.2l-.1-.1h-.2l-.1-.1H18l-.2-.1h-.2l-.1-.1h-.2l-.1-.1h-.1l-.2-.1h-.1l-.1-.1h-.2l-.1-.1h-.2l-.1-.1H16l-.1-.1h-.2v-.1h-.2l-.1-.1h-.2V44H15l-.1-.1h-.2v-.1h-.2v-.1h-.2l-.1-.1H14l-.2-.1h-.1l-.2-.1h-.1l-.1-.1h-.2v-.1H13l-.2-.1h-.1V43h-.2v-.1h-.2l-.1-.1H12v-.1l-.1-.1h-.3v-.1h-.2v-.1h-.1v-.1H11v-.1h-.2V42h-.3l-.1-.1-.2-.1-.1-.1H10l-.1-.1h-.1l-.1-.1-.1-.1h-.1l-.1-.1h-.1v-.1h-.1V41H9l-.1-.1h-.1v-.1h-.1l-.1-.1h-.1v-.1h-.1l-.1-.1h-.1v-.1H8v-.1l-.1-.1h-.1V40h-.2v-.1h-.1l-.1-.1h-.1v-.1h-.1v-.1H7v-.2h-.1v-.1h-.1v-.1h-.1V39h-.2v-.1h-.1v-.1h-.1v-.1h-.1v-.1l-.1-.1v-.1H6v-.1h-.1v-.1l-.1-.1V38h-.1v-.2h-.1v-.1l-.1-.1v-.1l-.1-.1V37h-.1z"/><path fill="#f10" d="M5.3 40.6V40h.1v-.2l.1-.1v-.1l.1-.1v-.1l.1-.1v-.1h.1v-.1L6 39v-.1l.1-.1v-.1h.1v-.1h.1v-.1h.1v-.2h.1v-.1h.1V38h.2v-.1H7v-.2h.1v-.1l.1-.1.1-.1h.1v-.1l.1-.1.1-.1.1-.1.1-.1H8v-.2h.1v-.1h.1v-.1h.1v-.1h.1v-.1h.1l.1-.1.1-.1.1-.1.1-.1H9l.1-.1.1-.1h.1v-.1h.1v-.1h.1l.1-.1h.1v-.1h.1l.1-.1.1-.1h.1V35h.1l.1-.1.1-.1h.2v-.1l.2-.1v-.1h.2v-.1h.1v-.1h.1l.1-.1h.1l.1-.1.1-.1h.1v-.1h.2v-.1h.1v-.1h.2l.1-.1.2-.1.1-.1.2-.1.1-.1.2-.1h.1l.1-.1.2-.1.1-.1.2-.1.1-.1h.1l.1-.1h.2v-.1h.1l.1-.1h.1v-.1h.2V32h.1l.1-.1h.1l.1-.1h.2v-.1h.2v-.1h.1l.1-.1h.1v-.1h.2v-.1h.2l.1-.1h.1l.1-.1h.1l.1-.1h.1l.2-.1.2-.1h.2v-.1h.1l.1-.1h.1l.1-.1h.2l.1-.1h.1l.1-.1h.2l.1-.1h.1v-.1h.2l.2-.1.2-.1.2-.1h.2v-.1h.2v-.1h.3l.1-.1h.1l.1-.1h.1l.1-.1h.2l.1-.1h.1l.1-.1h.2l.1-.1h.1l.3-.2h.2l.2-.1.2-.1h.2l.2-.2h.3l.2-.1.2-.1h.1l.1-.1h.2l.2-.1.2-.1h.2l.1-.1h.1l.1-.1h.2l.2-.1h.1l.1-.1h.1l.1-.1h.2l.2-.1h.1l.1-.1h.3v-.1h.2l.1-.1h.2l.2-.1h.2l.1-.1h.1l.2-.1h.2l.1-.1h.3v-.1h.2l.2-.1h.2l.2-.1.2-.1h.3v-.1h.3l.2-.1.2-.1h.2l.2-.1h.2l.2-.1h.2l.1-.1h.2l.1-.1h.3v-.1h.4v-.1h.3l.2-.1.2-.1h.2l.2-.1h.2l.2-.1h.2v-.1h.4v-.1h.4v-.1h.4v-.1h.4l.2-.1h.3l.1-.1h.3l.2-.1h.2l.2-.1h.2l.2-.1h.7l.1-.1h.3l.1-.1h.3l.1-.1h.3l.2-.1h.4l.1-.1h.3l.2-.1h.3l.1-.1h.3l.1-.1h.5l.1-.1h.3l.1-.1h.5l.1-.1h.3l.2-.1a2.3 2.3 0 1 0-1-4.5h-.2l-.3.1H42l-.2.1h-.4l-.2.1H41l-.2.1h-.3l-.1.1h-.3l-.2.1h-.3l-.2.1h-.3l-.2.1h-.2l-.2.1h-.3l-.1.1h-.3l-.1.1h-.3l-.2.1H37l-.2.1h-.3l-.1.1h-.3l-.1.1h-.4l-.2.1h-.2l-.2.1h-.3v.1h-.4l-.1.1H34l-.1.1h-.1l-.2.1h-.2l-.2.1H33l-.2.1h-.2l-.2.1h-.1l-.1.1h-.3l-.1.1h-.2l-.2.1H31l-.1.1h-.1l-.2.1h-.2l-.1.1H30l-.1.1h-.2v.1h-.3l-.2.1H29l-.2.1h-.2l-.1.1h-.2v.1H28l-.1.1h-.3l-.4.2H27l-.2.1h-.1l-.1.1h-.3l-.1.1H26v.1h-.2l-.1.1h-.1l-.2.1h-.2l-.1.1H25l-.2.1h-.2l-.1.1h-.1l-.1.1H24v.1h-.3l-.1.1h-.1l-.2.1h-.2l-.1.1-.1.1h-.3v.1h-.2l-.1.1h-.1l-.1.1h-.2l-.2.1-.2.1h-.2l-.1.1H21l-.1.1h-.1l-.2.1h-.2v.1h-.2l-.2.1-.1.1-.2.1h-.2l-.1.1h-.2v.1H19v.1h-.2l-.2.1-.2.1h-.2l-.1.1H18l-.1.1h-.1l-.1.1h-.2l-.1.1h-.1l-.1.1H17l-.1.1h-.1l-.1.1h-.2v.1h-.2v.1H16v.1h-.2v.1h-.2l-.2.1-.2.1-.1.1H15l-.1.1h-.1l-.1.1h-.1l-.2.1-.2.1-.2.1-.1.1h-.1l-.1.1h-.1v.1h-.2l-.2.1-.1.1H13l-.1.1-.2.1-.2.1-.1.1h-.1l-.2.1-.1.1-.4.3h-.2v.1h-.1l-.1.1H11v.1h-.2v.1h-.2v.1h-.2v.1h-.1v.1h-.2v.1H10l-.1.1-.2.1h-.1v.1h-.2v.1h-.1v.1h-.2v.1H9v.1h-.2l-.1.1-.1.1h-.1v.1h-.1l-.1.1-.2.1v.1H8l-.1.1-.1.1h-.1v.1h-.1v.1h-.2v.1l-.2.1-.1.1H7v.1h-.1l-.1.1-.1.1-.1.1h-.1v.1h-.1l-.1.1h-.1v.1H6v.2h-.1l-.1.1-.4.3-.1.1-.1.1-.1.1-.1.1h-.1v.1h-.1v.1h-.1v.1h-.1v.1h-.1v.1h-.1l-.1.1-.1.1-.1.1-.1.1-.1.2h-.1l-.1.1-.1.1v.1h-.1v.1h-.1v.1l-.1.1h-.1v.1l-.1.1-.3.4-.1.1v.1h-.1v.1h-.1v.1l-.1.1v.1h-.1v.1h-.1v.1l-.1.1v.1l-.1.1v.1h-.1v.1l-.1.1v.1l-.3.5v.1l-.1.1v.1l-.1.1v.2h-.1v.2l-.1.1v.2l-.2.5v.2l-.1.1v.4l-.1.1V42h.1v.2l.2.5v.2h.1v.2h.1v.2h.1l.2.5.1.1v.1h.1v.2h.1v.1H2v.1l.1.1v.1h.1v.1l.3.3v.1h.1v.1h.1v.1h.1v.1h.1v.1H3v.2h.1v.1h.1v.1h.1v.1h.1v.1h.1v.1h.1l.4.3v.1h.1l.1.1h.1v.1h.1v.1h.1l.1.1h.1v.1h.1l.1.1H5v.1h.1l.1.1h.1l.1.1h.1v.1h.1l.1.1h.1v.1H6v.1h.1l.1.1h.1v.1h.2v.1h.1l.3.2h.2v.1h.1l.2.1.1.1h.2v.1h.1l.1.1H8l.1.1h.1l.1.1h.1v.1h.2v.1h.2v.1h.3v.1h.2v.1h.2l.2.1.2.1h.1l.2.1h.1l.2.1h.1v.1h.3l.2.1h.1v.1h.2l.1.1h.3v.1h.1l.2.1h.2l.3.2h.2l.3.1h.1l.1.1h.2l.5.2.3.1h.1l.2.1.3.1h.2l.1.1h.3v.1h.3l.1.1h.4v.1h.4v.1h.3l.1.1h.4l.1.1h.2l.2.1h.2l.2.1h.4v.1h.3l.1.1h.4l.1.1h.4v.1h.4v.1h.4l.2.1h.2l.2.1h.4l.1.1h.5l.1.1h.5v.1h.6l.1.1h.4l.2.1h.5l.1.1h.5v.1h.5l.1.1h.6l.1.1h.5l.1.1h.7l.1.1h.7l.1.1h.8v.1h.9l.1.1h.8v.1h.9l.1.1h.7l.1.1h.7l.2.1h1l.1.1h1.3l.1.1H38l.1.1h1.3l.1.1h1.3l.2.1h1.3l.1.1h.2a.7.7 0 1 0 0-1.4h-1.1l-.1-.1h-.8l-.1-.1h-.9l-.2-.1h-.7l-.2-.1h-.9v-.1h-.8l-.2-.1H36l-.1-.1H35v-.1h-.5l-.2-.1h-.5l-.1-.1h-.6L33 53h-.5l-.1-.1h-.6l-.2-.1h-.4l-.2-.1h-.6v-.1H30l-.1-.1h-.5l-.1-.1H29l-.2-.1h-.3l-.1-.1h-.5l-.1-.1h-.3l-.2-.1H27l-.2-.1h-.4l-.2-.1H26l-.2-.1h-.3l-.1-.1H25v-.1h-.4l-.1-.1h-.3l-.1-.1h-.3l-.1-.1h-.4V51h-.6l-.2-.1h-.3l-.1-.1h-.2l-.1-.1h-.3l-.1-.1H21l-.1-.1h-.2l-.1-.1h-.2l-.2-.1H20l-.2-.1h-.2V50H19l-.1-.1h-.3l-.1-.1h-.2l-.1-.1H18l-.2-.1h-.2l-.1-.1h-.2l-.1-.1h-.1l-.2-.1h-.1l-.1-.1h-.2l-.1-.1h-.2V49H16l-.1-.1h-.2v-.1h-.2l-.1-.1h-.2v-.1H15l-.1-.1h-.2v-.1h-.2v-.1h-.2l-.1-.1H14l-.2-.1h-.1l-.2-.1h-.1l-.1-.1h-.2v-.1H13l-.2-.1h-.1v-.1h-.2v-.1h-.2l-.1-.1H12v-.1l-.1-.1h-.1l-.2-.1h-.2V47h-.1v-.1H11v-.1h-.2v-.1h-.1l-.1-.1h-.1l-.1-.1-.2-.1-.1-.1H10l-.1-.1h-.1l-.1-.1-.1-.1h-.1l-.1-.1h-.1v-.1h-.1v-.1H9v-.1l-.1-.1h-.1v-.1h-.1l-.1-.1h-.1v-.1h-.1l-.1-.1-.1-.1H8v-.1l-.1-.1h-.1v-.1h-.1v-.1h-.1v-.1h-.1l-.1-.1h-.1v-.1l-.1-.1H7V44h-.1v-.1h-.1v-.1h-.1v-.1h-.1v-.1h-.1v-.1h-.1v-.1h-.1v-.1h-.1v-.1L6 43v-.1h-.1v-.1l-.1-.1v-.1h-.1v-.2h-.1v-.1l-.1-.1V42l-.1-.1v-.3h-.1z"/></g><defs><clipPath id="clip0_827_2149"><path fill="#fff" d="M.7 0h45.2v55.4H.7z"/></clipPath></defs></svg>