<svg width="712" height="66" viewBox="0 0 712 66" fill="none" xmlns="http://www.w3.org/2000/svg">
<path d="M18.8955 19.3398C32.0518 19.34 36.4621 27.3173 37.0293 32.0635L26.0664 34.3027C25.6933 31.6983 24.2455 28.3848 18.9844 28.3848C15.701 28.3849 13.0664 30.2651 13.0664 32.7725C13.0664 35.2799 14.6491 36.3094 17.8506 37.0557C20.1041 37.578 22.1635 37.9589 24.3125 38.4141V38.4219C33.3048 40.3397 37.5965 43.8097 37.5967 51.3467C37.5967 58.5183 31.7752 65.6758 19.6484 65.6758C5.73836 65.6756 0.947039 57.0704 0.379883 52.1152L11.7686 49.877C12.0522 53.3097 14.1041 56.5332 19.5518 56.5332C23.6861 56.5332 25.6641 54.4515 25.6641 52.1455C25.664 49.8396 23.3057 49.1829 20.0596 48.377C17.7685 47.8098 16.0815 47.4885 13.6338 46.8691C7.69359 45.3691 1.60449 41.6451 1.60449 33.7646C1.60474 25.8843 8.93304 19.3398 18.8955 19.3398ZM55.1729 46.1162C55.1729 51.7804 58.8669 54.6016 63.5684 54.6016C68.2698 54.6015 71.9639 51.7728 71.9639 46.1162V20.4004H84.0156V45.1309C84.0156 57.1681 76.0757 65.6689 63.5684 65.6689C51.061 65.6689 43.1201 57.1606 43.1201 45.1309V20.4004H55.1729V46.1162ZM262.221 19.332C276.295 19.332 284.721 27.9664 284.721 42.123C284.721 43.8243 284.534 45.2346 284.534 45.4141H251.945C252.221 51.2424 257.311 55.4512 263.423 55.4512C268.9 55.451 271.818 52.4963 273.362 48.8398L283.862 52.2871C281.355 59.6378 274.236 65.6679 263.333 65.668C250.826 65.668 239.811 56.9736 239.811 42.1006C239.811 28.0337 250.557 19.3322 262.221 19.332ZM321.031 56.4014C325.478 56.4031 329.133 60.0589 329.133 64.6025H312.931C312.931 60.0593 316.585 56.4037 321.031 56.4014ZM138.62 19.332C151.125 19.3335 158.699 27.8405 158.699 39.8691V64.6006H146.646V38.8848C146.646 33.2207 143.311 30.3995 138.617 30.3994C133.923 30.3994 130.587 33.2281 130.587 38.8848V64.6006H118.535V38.8848C118.535 33.2206 115.199 30.3994 110.505 30.3994C105.811 30.3995 102.476 33.2282 102.476 38.8848V64.6006H90.4229V39.8691C90.423 27.8321 97.9977 19.3321 110.505 19.332C116.602 19.332 121.326 21.3618 124.564 24.8242C127.802 21.355 132.525 19.333 138.62 19.332ZM213.983 19.332C226.494 19.3349 234.066 27.8415 234.066 39.8691V64.6006H222.015V38.8848C222.015 33.2206 218.678 30.3994 213.984 30.3994C209.29 30.3995 205.955 33.2281 205.955 38.8848V64.6006H193.902V38.8848C193.902 33.2208 190.567 30.3996 185.873 30.3994C181.179 30.3994 177.843 33.2281 177.843 38.8848V64.6006H165.791V39.8691C165.791 27.832 173.366 19.332 185.873 19.332C191.97 19.3321 196.694 21.3617 199.933 24.8242C203.17 21.356 207.891 19.3339 213.983 19.332ZM355.11 0.675781C357.625 0.675837 360.042 1.12361 361.027 1.57129V11.1533H357.267C354.662 11.1533 351.08 12.3249 351.08 17.25V20.3994H379.9V64.6006H367.849V30.5859H351.117V64.6006H339.065V30.5859H332.819V20.4072H339.065V17.0791C339.065 7.13139 345.342 0.675781 355.11 0.675781ZM314.168 19.8613C315.653 19.8613 316.966 20.0403 318.093 20.3984V30.5781H314.354C307.937 30.5781 303.004 34.9805 303.004 42.54V64.5928H290.951V20.3984H302.019V27.4209C303.824 22.9359 309.101 19.8614 314.16 19.8613H314.168ZM262.4 29.0117C256.012 29.0117 252.49 33.6753 252.214 37.7051H272.587C272.4 33.3097 269.437 29.0119 262.4 29.0117ZM373.52 2.96289C377.965 2.96501 381.62 6.62068 381.62 11.1641H365.419C365.419 6.62059 369.073 2.96486 373.52 2.96289Z" fill="url(#paint0_linear_8836_6165)"/>
<path d="M414.427 54.1758L424.411 40.6558L415.363 28.2278H422.227L428.103 36.8078L433.979 28.2278H440.895L431.795 40.6558L441.831 54.1758H434.863L428.103 44.8678L421.343 54.1758H414.427Z" fill="#777576"/>
<g clip-path="url(#clip0_8836_6165)">
<path d="M540.919 0.675781H476.127C475.727 0.675781 475.344 0.820934 475.061 1.07931C474.779 1.33768 474.62 1.68812 474.62 2.05352V61.2959C474.62 61.6613 474.779 62.0121 475.061 62.2706C475.344 62.5285 475.727 62.6736 476.127 62.6736H540.919C541.319 62.6736 541.702 62.5285 541.985 62.2706C542.268 62.0121 542.427 61.6613 542.427 61.2959V2.05352C542.427 1.68812 542.268 1.33768 541.985 1.07931C541.702 0.820934 541.319 0.675781 540.919 0.675781ZM519.824 40.6301C519.824 40.9955 519.666 41.3459 519.383 41.6043C519.1 41.8627 518.717 42.0078 518.318 42.0078H498.729C498.329 42.0078 497.946 41.8627 497.664 41.6043C497.381 41.3459 497.222 40.9955 497.222 40.6301V22.7195C497.222 22.3541 497.381 22.0037 497.664 21.7453C497.946 21.4869 498.329 21.3418 498.729 21.3418H518.318C518.717 21.3418 519.1 21.4869 519.383 21.7453C519.666 22.0037 519.824 22.3541 519.824 22.7195V40.6301Z" fill="white"/>
<path d="M676.56 21.3418H656.971C656.139 21.3418 655.464 21.9586 655.464 22.7195V40.6301C655.464 41.391 656.139 42.0078 656.971 42.0078H676.56C677.392 42.0078 678.067 41.391 678.067 40.6301V22.7195C678.067 21.9586 677.392 21.3418 676.56 21.3418Z" fill="white"/>
<path d="M653.964 0.677734H634.375C633.543 0.677734 632.869 1.29457 632.869 2.05547V19.966C632.869 20.7269 633.543 21.3438 634.375 21.3438H653.964C654.796 21.3438 655.471 20.7269 655.471 19.966V2.05547C655.471 1.29457 654.796 0.677734 653.964 0.677734Z" fill="white"/>
<path d="M699.175 0.677734H679.586C678.755 0.677734 678.08 1.29457 678.08 2.05547V19.966C678.08 20.7269 678.755 21.3438 679.586 21.3438H699.175C700.007 21.3438 700.682 20.7269 700.682 19.966V2.05547C700.682 1.29457 700.007 0.677734 699.175 0.677734Z" fill="white"/>
<path d="M653.964 42.0098H634.375C633.543 42.0098 632.869 42.6266 632.869 43.3875V61.2982C632.869 62.0589 633.543 62.676 634.375 62.676H653.964C654.796 62.676 655.471 62.0589 655.471 61.2982V43.3875C655.471 42.6266 654.796 42.0098 653.964 42.0098Z" fill="white"/>
<path d="M699.175 42.0098H679.586C678.755 42.0098 678.08 42.6266 678.08 43.3875V61.2982C678.08 62.0589 678.755 62.676 679.586 62.676H699.175C700.007 62.676 700.682 62.0589 700.682 61.2982V43.3875C700.682 42.6266 700.007 42.0098 699.175 42.0098Z" fill="white"/>
<path d="M620.034 0.677734H600.445C599.613 0.677734 598.938 1.29457 598.938 2.05547V19.966C598.938 20.7269 599.613 21.3438 600.445 21.3438H620.034C620.866 21.3438 621.54 20.7269 621.54 19.966V2.05547C621.54 1.29457 620.866 0.677734 620.034 0.677734Z" fill="white"/>
<path d="M620.034 42.0098H600.445C599.613 42.0098 598.938 42.6266 598.938 43.3875V61.2982C598.938 62.0589 599.613 62.676 600.445 62.676H620.034C620.866 62.676 621.54 62.0589 621.54 61.2982V43.3875C621.54 42.6266 620.866 42.0098 620.034 42.0098Z" fill="white"/>
<path d="M598.931 22.7041C598.931 22.3387 598.772 21.9882 598.49 21.7299C598.207 21.4715 597.824 21.3263 597.424 21.3263H576.329V2.05352C576.329 1.68812 576.17 1.33768 575.887 1.07931C575.605 0.820934 575.222 0.675781 574.822 0.675781H555.234C554.834 0.675781 554.451 0.820934 554.168 1.07931C553.886 1.33768 553.727 1.68812 553.727 2.05352V61.2651C553.727 61.6306 553.886 61.9809 554.168 62.2393C554.451 62.4978 554.834 62.6429 555.234 62.6429H574.822C575.222 62.6429 575.605 62.4978 575.887 62.2393C576.17 61.9809 576.329 61.6306 576.329 61.2651V41.9923H597.424C597.824 41.9923 598.207 41.8472 598.49 41.5888C598.772 41.3304 598.931 40.98 598.931 40.6146V22.7041Z" fill="white"/>
</g>
<defs>
<linearGradient id="paint0_linear_8836_6165" x1="0.379883" y1="33.1758" x2="381.62" y2="33.1758" gradientUnits="userSpaceOnUse">
<stop stop-color="#FF49A4"/>
<stop offset="0.93" stop-color="#B049FF"/>
</linearGradient>
<clipPath id="clip0_8836_6165">
<rect width="237" height="65" fill="white" transform="translate(474.62 0.675781)"/>
</clipPath>
</defs>
</svg>
