<svg width="427" height="270" viewBox="0 0 427 270" fill="none" xmlns="http://www.w3.org/2000/svg">
<circle cx="139" cy="145.35" r="109.5" stroke="#3D3D3D"/>
<path d="M186.246 46.0126C205.045 54.9539 220.922 69.0465 232.031 86.6527C243.139 104.259 249.023 124.656 249 145.474L183 145.399C183.009 137.072 180.656 128.913 176.212 121.871C171.769 114.828 165.418 109.191 157.898 105.615L186.246 46.0126Z" fill="#8D3360"/>
<path d="M249 145.35C249 169.192 241.254 192.388 226.927 211.446C212.601 230.504 192.471 244.392 169.568 251.017C146.665 257.643 122.229 256.647 99.9405 248.181C77.6521 239.715 58.7177 224.237 45.9887 204.077C33.2598 183.917 27.4254 160.167 29.3643 136.404C31.3032 112.641 40.9104 90.1511 56.739 72.3213C72.5676 54.4915 93.7607 42.2872 117.127 37.5463C140.493 32.8053 164.767 35.7844 186.293 46.0349L157.917 105.624C149.307 101.524 139.597 100.332 130.251 102.228C120.904 104.125 112.427 109.006 106.096 116.138C99.7642 123.27 95.9213 132.266 95.1457 141.771C94.3702 151.277 96.7039 160.777 101.795 168.841C106.887 176.905 114.461 183.096 123.376 186.482C132.292 189.869 142.066 190.267 151.227 187.617C160.388 184.966 168.44 179.411 174.171 171.788C179.901 164.165 183 154.886 183 145.35H249Z" fill="#FF49A4"/>
<path d="M249 145.35C249 167.106 242.549 188.373 230.462 206.462C218.375 224.552 201.195 238.651 181.095 246.976C160.995 255.302 138.878 257.48 117.54 253.236C96.2022 248.992 76.602 238.515 61.2183 223.131L107.887 176.462C114.041 182.616 121.881 186.806 130.416 188.504C138.951 190.202 147.798 189.331 155.838 186C163.878 182.67 170.75 177.03 175.585 169.795C180.419 162.559 183 154.052 183 145.35H249Z" fill="#FF80BF"/>
<circle cx="283" cy="93.3496" r="4" fill="#FF49A4"/>
<path d="M295.861 86.3496V77.6223H297.442V85.0243H301.286V86.3496H295.861ZM302.589 86.3496V79.8042H304.132V86.3496H302.589ZM303.365 78.8752C303.121 78.8752 302.911 78.7942 302.734 78.6323C302.558 78.4675 302.47 78.2701 302.47 78.0399C302.47 77.807 302.558 77.6096 302.734 77.4476C302.911 77.2828 303.121 77.2005 303.365 77.2005C303.612 77.2005 303.822 77.2828 303.996 77.4476C304.172 77.6096 304.26 77.807 304.26 78.0399C304.26 78.2701 304.172 78.4675 303.996 78.6323C303.822 78.7942 303.612 78.8752 303.365 78.8752ZM310.086 88.8042V85.3184H310.022C309.943 85.4775 309.828 85.6465 309.677 85.8255C309.527 86.0016 309.328 86.1522 309.081 86.2772C308.833 86.4022 308.522 86.4647 308.147 86.4647C307.633 86.4647 307.173 86.3326 306.767 86.0684C306.36 85.8042 306.039 85.4206 305.804 84.9178C305.568 84.415 305.45 83.8042 305.45 83.0854C305.45 82.3581 305.569 81.7445 305.808 81.2445C306.049 80.7417 306.375 80.3624 306.784 80.1067C307.193 79.8482 307.649 79.7189 308.152 79.7189C308.535 79.7189 308.85 79.7843 309.098 79.9149C309.345 80.0428 309.541 80.1976 309.686 80.3794C309.831 80.5584 309.943 80.7275 310.022 80.8865H310.116V79.8042H311.633V88.8042H310.086ZM308.578 85.199C308.904 85.199 309.183 85.111 309.413 84.9348C309.643 84.7559 309.818 84.5073 309.937 84.1891C310.056 83.8709 310.116 83.5002 310.116 83.0769C310.116 82.6536 310.056 82.2857 309.937 81.9732C309.821 81.6607 309.647 81.4178 309.417 81.2445C309.19 81.0712 308.91 80.9846 308.578 80.9846C308.234 80.9846 307.947 81.074 307.717 81.253C307.487 81.432 307.314 81.6792 307.197 81.9945C307.081 82.3098 307.022 82.6706 307.022 83.0769C307.022 83.486 307.081 83.851 307.197 84.1721C307.316 84.4902 307.491 84.7417 307.721 84.9263C307.954 85.1081 308.24 85.199 308.578 85.199ZM317.39 83.5968V79.8042H318.933V86.3496H317.437V85.1863H317.369C317.221 85.5527 316.978 85.8525 316.64 86.0854C316.305 86.3184 315.892 86.4348 315.4 86.4348C314.971 86.4348 314.592 86.3397 314.262 86.1493C313.936 85.9561 313.68 85.6763 313.495 85.3098C313.311 84.9405 313.218 84.4945 313.218 83.9718V79.8042H314.761V83.7331C314.761 84.1479 314.875 84.4775 315.102 84.7218C315.329 84.9661 315.627 85.0882 315.997 85.0882C316.224 85.0882 316.444 85.0328 316.657 84.9221C316.87 84.8113 317.045 84.6465 317.181 84.4277C317.321 84.2061 317.39 83.9292 317.39 83.5968ZM320.519 86.3496V79.8042H322.062V86.3496H320.519ZM321.295 78.8752C321.05 78.8752 320.84 78.7942 320.664 78.6323C320.488 78.4675 320.4 78.2701 320.4 78.0399C320.4 77.807 320.488 77.6096 320.664 77.4476C320.84 77.2828 321.05 77.2005 321.295 77.2005C321.542 77.2005 321.752 77.2828 321.925 77.4476C322.102 77.6096 322.19 77.807 322.19 78.0399C322.19 78.2701 322.102 78.4675 321.925 78.6323C321.752 78.7942 321.542 78.8752 321.295 78.8752ZM326.077 86.4647C325.563 86.4647 325.103 86.3326 324.696 86.0684C324.29 85.8042 323.969 85.4206 323.733 84.9178C323.498 84.415 323.38 83.8042 323.38 83.0854C323.38 82.3581 323.499 81.7445 323.738 81.2445C323.979 80.7417 324.304 80.3624 324.713 80.1067C325.123 79.8482 325.578 79.7189 326.081 79.7189C326.465 79.7189 326.78 79.7843 327.027 79.9149C327.275 80.0428 327.471 80.1976 327.615 80.3794C327.76 80.5584 327.873 80.7275 327.952 80.8865H328.016V77.6223H329.563V86.3496H328.046V85.3184H327.952C327.873 85.4775 327.757 85.6465 327.607 85.8255C327.456 86.0016 327.257 86.1522 327.01 86.2772C326.763 86.4022 326.452 86.4647 326.077 86.4647ZM326.507 85.199C326.834 85.199 327.113 85.111 327.343 84.9348C327.573 84.7559 327.748 84.5073 327.867 84.1891C327.986 83.8709 328.046 83.5002 328.046 83.0769C328.046 82.6536 327.986 82.2857 327.867 81.9732C327.75 81.6607 327.577 81.4178 327.347 81.2445C327.12 81.0712 326.84 80.9846 326.507 80.9846C326.164 80.9846 325.877 81.074 325.647 81.253C325.417 81.432 325.243 81.6792 325.127 81.9945C325.01 82.3098 324.952 82.6706 324.952 83.0769C324.952 83.486 325.01 83.851 325.127 84.1721C325.246 84.4902 325.421 84.7417 325.651 84.9263C325.884 85.1081 326.169 85.199 326.507 85.199ZM331.207 86.3496V79.8042H332.749V86.3496H331.207ZM331.982 78.8752C331.738 78.8752 331.528 78.7942 331.352 78.6323C331.175 78.4675 331.087 78.2701 331.087 78.0399C331.087 77.807 331.175 77.6096 331.352 77.4476C331.528 77.2828 331.738 77.2005 331.982 77.2005C332.229 77.2005 332.44 77.2828 332.613 77.4476C332.789 77.6096 332.877 77.807 332.877 78.0399C332.877 78.2701 332.789 78.4675 332.613 78.6323C332.44 78.7942 332.229 78.8752 331.982 78.8752ZM337.604 79.8042V80.9973H333.841V79.8042H337.604ZM334.77 78.236H336.313V84.3809C336.313 84.5882 336.344 84.7473 336.407 84.8581C336.472 84.9661 336.557 85.04 336.662 85.0797C336.767 85.1195 336.884 85.1394 337.012 85.1394C337.108 85.1394 337.196 85.1323 337.276 85.1181C337.358 85.1039 337.421 85.0911 337.463 85.0797L337.723 86.2857C337.641 86.3141 337.523 86.3453 337.37 86.3794C337.219 86.4135 337.034 86.4334 336.816 86.4391C336.429 86.4505 336.081 86.3922 335.772 86.2644C335.462 86.1337 335.216 85.932 335.034 85.6593C334.855 85.3865 334.767 85.0456 334.77 84.6365V78.236ZM339.853 88.8042C339.643 88.8042 339.448 88.7871 339.269 88.753C339.093 88.7218 338.952 88.6848 338.847 88.6422L339.205 87.4405C339.43 87.5059 339.63 87.5371 339.806 87.5343C339.982 87.5314 340.137 87.476 340.271 87.3681C340.407 87.263 340.522 87.0868 340.616 86.8397L340.748 86.486L338.374 79.8042H340.011L341.519 84.7473H341.587L343.1 79.8042H344.741L342.12 87.1422C341.998 87.4888 341.836 87.7857 341.634 88.0328C341.433 88.2828 341.185 88.4732 340.893 88.6039C340.603 88.7374 340.256 88.8042 339.853 88.8042ZM348.853 86.3496V77.6223H352.126C352.796 77.6223 353.359 77.7473 353.813 77.9973C354.271 78.2473 354.616 78.5911 354.849 79.0286C355.085 79.4632 355.202 79.9576 355.202 80.5115C355.202 81.0712 355.085 81.5684 354.849 82.003C354.613 82.4377 354.265 82.78 353.805 83.03C353.344 83.2772 352.778 83.4007 352.104 83.4007H349.935V82.101H351.891C352.283 82.101 352.604 82.0328 352.854 81.8965C353.104 81.7601 353.289 81.5726 353.408 81.334C353.531 81.0953 353.592 80.8212 353.592 80.5115C353.592 80.2019 353.531 79.9292 353.408 79.6934C353.289 79.4576 353.103 79.2743 352.85 79.1436C352.6 79.0101 352.278 78.9434 351.883 78.9434H350.434V86.3496H348.853ZM359.269 86.4775C358.63 86.4775 358.076 86.3368 357.607 86.0556C357.138 85.7743 356.775 85.3809 356.516 84.8752C356.26 84.3695 356.132 83.7786 356.132 83.1025C356.132 82.4263 356.26 81.834 356.516 81.3255C356.775 80.8169 357.138 80.4221 357.607 80.1408C358.076 79.8596 358.63 79.7189 359.269 79.7189C359.908 79.7189 360.462 79.8596 360.931 80.1408C361.4 80.4221 361.762 80.8169 362.017 81.3255C362.276 81.834 362.405 82.4263 362.405 83.1025C362.405 83.7786 362.276 84.3695 362.017 84.8752C361.762 85.3809 361.4 85.7743 360.931 86.0556C360.462 86.3368 359.908 86.4775 359.269 86.4775ZM359.277 85.2417C359.624 85.2417 359.914 85.1465 360.147 84.9561C360.38 84.763 360.553 84.5044 360.667 84.1806C360.783 83.8567 360.841 83.4959 360.841 83.0982C360.841 82.6976 360.783 82.3354 360.667 82.0115C360.553 81.6848 360.38 81.4249 360.147 81.2317C359.914 81.0385 359.624 80.9419 359.277 80.9419C358.922 80.9419 358.627 81.0385 358.391 81.2317C358.158 81.4249 357.983 81.6848 357.867 82.0115C357.753 82.3354 357.696 82.6976 357.696 83.0982C357.696 83.4959 357.753 83.8567 357.867 84.1806C357.983 84.5044 358.158 84.763 358.391 84.9561C358.627 85.1465 358.922 85.2417 359.277 85.2417ZM366.57 86.4775C365.93 86.4775 365.376 86.3368 364.908 86.0556C364.439 85.7743 364.075 85.3809 363.817 84.8752C363.561 84.3695 363.433 83.7786 363.433 83.1025C363.433 82.4263 363.561 81.834 363.817 81.3255C364.075 80.8169 364.439 80.4221 364.908 80.1408C365.376 79.8596 365.93 79.7189 366.57 79.7189C367.209 79.7189 367.763 79.8596 368.232 80.1408C368.7 80.4221 369.063 80.8169 369.318 81.3255C369.577 81.834 369.706 82.4263 369.706 83.1025C369.706 83.7786 369.577 84.3695 369.318 84.8752C369.063 85.3809 368.7 85.7743 368.232 86.0556C367.763 86.3368 367.209 86.4775 366.57 86.4775ZM366.578 85.2417C366.925 85.2417 367.214 85.1465 367.447 84.9561C367.68 84.763 367.854 84.5044 367.967 84.1806C368.084 83.8567 368.142 83.4959 368.142 83.0982C368.142 82.6976 368.084 82.3354 367.967 82.0115C367.854 81.6848 367.68 81.4249 367.447 81.2317C367.214 81.0385 366.925 80.9419 366.578 80.9419C366.223 80.9419 365.928 81.0385 365.692 81.2317C365.459 81.4249 365.284 81.6848 365.168 82.0115C365.054 82.3354 364.997 82.6976 364.997 83.0982C364.997 83.4959 365.054 83.8567 365.168 84.1806C365.284 84.5044 365.459 84.763 365.692 84.9561C365.928 85.1465 366.223 85.2417 366.578 85.2417ZM372.558 77.6223V86.3496H371.015V77.6223H372.558ZM379.317 81.5343L377.911 81.6877C377.871 81.5456 377.802 81.4121 377.702 81.2871C377.606 81.1621 377.475 81.0613 377.31 80.9846C377.146 80.9078 376.944 80.8695 376.705 80.8695C376.384 80.8695 376.114 80.9391 375.896 81.0783C375.68 81.2175 375.573 81.3979 375.576 81.6195C375.573 81.8098 375.643 81.9647 375.785 82.084C375.93 82.2033 376.168 82.3013 376.501 82.378L377.617 82.6167C378.237 82.7502 378.697 82.9618 378.998 83.2516C379.302 83.5414 379.455 83.9206 379.458 84.3894C379.455 84.8013 379.335 85.165 379.096 85.4803C378.86 85.7928 378.532 86.0371 378.112 86.2132C377.691 86.3894 377.208 86.4775 376.663 86.4775C375.862 86.4775 375.217 86.3098 374.728 85.9746C374.239 85.6365 373.948 85.1664 373.854 84.5641L375.359 84.4192C375.427 84.7147 375.572 84.9377 375.793 85.0882C376.015 85.2388 376.303 85.3141 376.658 85.3141C377.025 85.3141 377.319 85.2388 377.54 85.0882C377.765 84.9377 377.877 84.7516 377.877 84.53C377.877 84.3425 377.805 84.1877 377.66 84.0655C377.518 83.9434 377.296 83.8496 376.995 83.7843L375.879 83.5499C375.251 83.4192 374.786 83.199 374.485 82.8894C374.184 82.5769 374.035 82.182 374.038 81.7047C374.035 81.3013 374.144 80.9519 374.366 80.6564C374.59 80.3581 374.901 80.128 375.299 79.9661C375.7 79.8013 376.161 79.7189 376.684 79.7189C377.451 79.7189 378.055 79.8823 378.495 80.209C378.938 80.5357 379.212 80.9775 379.317 81.5343Z" fill="#BAB8B9"/>
<path d="M299.559 108.489C298.843 108.489 298.207 108.366 297.65 108.121C297.096 107.876 296.659 107.534 296.337 107.097C296.016 106.659 295.845 106.154 295.825 105.58H297.695C297.711 105.856 297.802 106.096 297.968 106.301C298.134 106.503 298.354 106.661 298.629 106.774C298.904 106.886 299.213 106.943 299.554 106.943C299.919 106.943 300.242 106.88 300.523 106.754C300.805 106.624 301.026 106.445 301.185 106.217C301.344 105.988 301.422 105.725 301.418 105.426C301.422 105.118 301.342 104.846 301.18 104.611C301.017 104.376 300.782 104.192 300.474 104.059C300.169 103.927 299.801 103.86 299.37 103.86H298.47V102.438H299.37C299.725 102.438 300.035 102.377 300.3 102.254C300.568 102.132 300.779 101.959 300.931 101.737C301.084 101.512 301.158 101.252 301.155 100.957C301.158 100.669 301.094 100.418 300.961 100.206C300.832 99.9907 300.648 99.8233 300.409 99.704C300.174 99.5847 299.897 99.525 299.579 99.525C299.267 99.525 298.979 99.5814 298.714 99.6941C298.449 99.8068 298.235 99.9675 298.072 100.176C297.91 100.382 297.824 100.627 297.814 100.912H296.039C296.052 100.342 296.216 99.8416 296.531 99.4107C296.849 98.9765 297.274 98.6384 297.804 98.3965C298.334 98.1512 298.929 98.0286 299.589 98.0286C300.268 98.0286 300.858 98.1562 301.359 98.4114C301.862 98.6633 302.252 99.003 302.527 99.4306C302.802 99.8581 302.94 100.33 302.94 100.847C302.943 101.421 302.774 101.901 302.433 102.289C302.094 102.677 301.65 102.931 301.1 103.05V103.129C301.816 103.229 302.365 103.494 302.746 103.925C303.13 104.352 303.321 104.884 303.317 105.521C303.317 106.091 303.155 106.601 302.83 107.052C302.509 107.499 302.065 107.851 301.498 108.106C300.934 108.361 300.288 108.489 299.559 108.489ZM308.564 108.489C307.901 108.489 307.308 108.365 306.784 108.116C306.26 107.864 305.844 107.519 305.536 107.082C305.231 106.644 305.069 106.144 305.049 105.58H306.839C306.872 105.998 307.052 106.339 307.381 106.605C307.709 106.866 308.103 106.997 308.564 106.997C308.925 106.997 309.247 106.914 309.528 106.749C309.81 106.583 310.032 106.353 310.194 106.058C310.357 105.763 310.436 105.426 310.433 105.048C310.436 104.664 310.355 104.323 310.189 104.024C310.024 103.726 309.797 103.492 309.508 103.323C309.22 103.151 308.889 103.065 308.514 103.065C308.209 103.061 307.909 103.118 307.614 103.234C307.319 103.35 307.086 103.502 306.913 103.691L305.248 103.418L305.78 98.1678H311.686V99.709H307.306L307.013 102.409H307.072C307.261 102.186 307.528 102.003 307.873 101.857C308.217 101.708 308.595 101.633 309.006 101.633C309.623 101.633 310.173 101.779 310.657 102.07C311.141 102.359 311.522 102.757 311.8 103.264C312.079 103.771 312.218 104.351 312.218 105.004C312.218 105.677 312.062 106.276 311.751 106.803C311.442 107.327 311.013 107.74 310.463 108.041C309.916 108.34 309.283 108.489 308.564 108.489ZM319.327 106.441V105.904C319.327 105.509 319.41 105.146 319.576 104.815C319.745 104.483 319.99 104.217 320.312 104.014C320.633 103.812 321.023 103.711 321.48 103.711C321.951 103.711 322.345 103.812 322.663 104.014C322.981 104.213 323.222 104.478 323.384 104.81C323.55 105.141 323.633 105.506 323.633 105.904V106.441C323.633 106.835 323.55 107.198 323.384 107.529C323.218 107.861 322.975 108.128 322.653 108.33C322.335 108.532 321.944 108.633 321.48 108.633C321.016 108.633 320.623 108.532 320.302 108.33C319.98 108.128 319.737 107.861 319.571 107.529C319.408 107.198 319.327 106.835 319.327 106.441ZM320.625 105.904V106.441C320.625 106.702 320.688 106.943 320.814 107.161C320.94 107.38 321.162 107.49 321.48 107.49C321.801 107.49 322.022 107.382 322.141 107.166C322.264 106.948 322.325 106.706 322.325 106.441V105.904C322.325 105.638 322.267 105.396 322.151 105.178C322.035 104.956 321.811 104.845 321.48 104.845C321.168 104.845 320.948 104.956 320.819 105.178C320.689 105.396 320.625 105.638 320.625 105.904ZM314.152 100.614V100.077C314.152 99.6792 314.236 99.3146 314.405 98.9831C314.574 98.6517 314.82 98.3865 315.141 98.1877C315.463 97.9855 315.852 97.8844 316.309 97.8844C316.777 97.8844 317.17 97.9855 317.488 98.1877C317.809 98.3865 318.051 98.6517 318.214 98.9831C318.376 99.3146 318.457 99.6792 318.457 100.077V100.614C318.457 101.012 318.374 101.376 318.209 101.708C318.046 102.036 317.804 102.299 317.483 102.498C317.161 102.697 316.77 102.796 316.309 102.796C315.842 102.796 315.448 102.697 315.126 102.498C314.808 102.299 314.566 102.034 314.4 101.703C314.235 101.371 314.152 101.008 314.152 100.614ZM315.459 100.077V100.614C315.459 100.879 315.521 101.121 315.643 101.34C315.769 101.555 315.991 101.663 316.309 101.663C316.628 101.663 316.846 101.555 316.966 101.34C317.088 101.121 317.15 100.879 317.15 100.614V100.077C317.15 99.8117 317.092 99.5698 316.976 99.351C316.86 99.129 316.638 99.0179 316.309 99.0179C315.995 99.0179 315.774 99.129 315.648 99.351C315.522 99.5731 315.459 99.815 315.459 100.077ZM314.719 108.35L321.719 98.1678H322.961L315.961 108.35H314.719Z" fill="#FFFBFD"/>
<circle cx="283" cy="145.35" r="4" fill="#FF80BF"/>
<path d="M295.861 138.35V129.622H299.202C299.832 129.622 300.357 129.722 300.774 129.921C301.195 130.117 301.509 130.385 301.716 130.726C301.926 131.067 302.031 131.453 302.031 131.885C302.031 132.24 301.963 132.544 301.827 132.797C301.69 133.047 301.507 133.25 301.277 133.406C301.047 133.563 300.79 133.675 300.506 133.743V133.828C300.815 133.845 301.112 133.941 301.396 134.114C301.683 134.284 301.918 134.526 302.099 134.838C302.281 135.151 302.372 135.529 302.372 135.972C302.372 136.423 302.263 136.83 302.044 137.191C301.825 137.548 301.496 137.831 301.055 138.039C300.615 138.246 300.061 138.35 299.393 138.35H295.861ZM297.442 137.029H299.142C299.716 137.029 300.129 136.919 300.382 136.7C300.638 136.479 300.766 136.195 300.766 135.848C300.766 135.59 300.702 135.357 300.574 135.149C300.446 134.939 300.264 134.774 300.028 134.655C299.793 134.533 299.511 134.472 299.185 134.472H297.442V137.029ZM297.442 133.334H299.006C299.278 133.334 299.524 133.284 299.743 133.185C299.962 133.083 300.134 132.939 300.259 132.754C300.386 132.567 300.45 132.345 300.45 132.09C300.45 131.752 300.331 131.473 300.092 131.254C299.857 131.036 299.506 130.926 299.04 130.926H297.442V133.334ZM305.563 138.482C305.148 138.482 304.775 138.408 304.442 138.26C304.113 138.11 303.851 137.888 303.658 137.595C303.468 137.303 303.373 136.942 303.373 136.513C303.373 136.144 303.441 135.838 303.577 135.597C303.713 135.355 303.9 135.162 304.135 135.017C304.371 134.872 304.637 134.763 304.932 134.689C305.23 134.612 305.539 134.557 305.857 134.523C306.24 134.483 306.551 134.448 306.79 134.416C307.029 134.382 307.202 134.331 307.31 134.263C307.421 134.192 307.476 134.083 307.476 133.935V133.909C307.476 133.588 307.381 133.34 307.191 133.164C307 132.987 306.726 132.899 306.368 132.899C305.99 132.899 305.691 132.982 305.469 133.146C305.25 133.311 305.103 133.506 305.026 133.73L303.586 133.526C303.699 133.128 303.887 132.796 304.148 132.529C304.409 132.259 304.729 132.057 305.107 131.923C305.485 131.787 305.902 131.719 306.36 131.719C306.675 131.719 306.989 131.756 307.301 131.83C307.614 131.904 307.9 132.026 308.158 132.196C308.417 132.364 308.624 132.593 308.78 132.882C308.939 133.172 309.019 133.534 309.019 133.969V138.35H307.536V137.45H307.485C307.391 137.632 307.259 137.803 307.088 137.962C306.921 138.118 306.709 138.244 306.453 138.341C306.201 138.435 305.904 138.482 305.563 138.482ZM305.963 137.348C306.273 137.348 306.542 137.287 306.769 137.165C306.996 137.04 307.171 136.875 307.293 136.671C307.418 136.466 307.48 136.243 307.48 136.002V135.23C307.432 135.27 307.35 135.307 307.233 135.341C307.12 135.375 306.992 135.405 306.85 135.431C306.708 135.456 306.567 135.479 306.428 135.499C306.289 135.519 306.168 135.536 306.066 135.55C305.836 135.581 305.63 135.632 305.448 135.703C305.266 135.774 305.123 135.874 305.017 136.002C304.912 136.127 304.86 136.289 304.86 136.487C304.86 136.771 304.963 136.986 305.171 137.131C305.378 137.276 305.642 137.348 305.963 137.348ZM315.743 133.534L314.337 133.688C314.297 133.546 314.228 133.412 314.128 133.287C314.032 133.162 313.901 133.061 313.736 132.985C313.571 132.908 313.37 132.869 313.131 132.869C312.81 132.869 312.54 132.939 312.321 133.078C312.105 133.218 311.999 133.398 312.002 133.619C311.999 133.81 312.069 133.965 312.211 134.084C312.355 134.203 312.594 134.301 312.926 134.378L314.043 134.617C314.662 134.75 315.123 134.962 315.424 135.252C315.728 135.541 315.881 135.921 315.884 136.389C315.881 136.801 315.76 137.165 315.522 137.48C315.286 137.793 314.958 138.037 314.537 138.213C314.117 138.389 313.634 138.477 313.088 138.477C312.287 138.477 311.642 138.31 311.154 137.975C310.665 137.637 310.374 137.166 310.28 136.564L311.784 136.419C311.853 136.715 311.998 136.938 312.219 137.088C312.441 137.239 312.729 137.314 313.084 137.314C313.451 137.314 313.745 137.239 313.966 137.088C314.191 136.938 314.303 136.752 314.303 136.53C314.303 136.343 314.23 136.188 314.086 136.066C313.944 135.943 313.722 135.85 313.421 135.784L312.304 135.55C311.676 135.419 311.212 135.199 310.911 134.889C310.61 134.577 310.461 134.182 310.463 133.705C310.461 133.301 310.57 132.952 310.792 132.656C311.016 132.358 311.327 132.128 311.725 131.966C312.125 131.801 312.587 131.719 313.11 131.719C313.877 131.719 314.48 131.882 314.921 132.209C315.364 132.536 315.638 132.977 315.743 133.534ZM317.156 138.35V131.804H318.699V138.35H317.156ZM317.931 130.875C317.687 130.875 317.477 130.794 317.301 130.632C317.125 130.468 317.037 130.27 317.037 130.04C317.037 129.807 317.125 129.61 317.301 129.448C317.477 129.283 317.687 129.2 317.931 129.2C318.179 129.2 318.389 129.283 318.562 129.448C318.738 129.61 318.826 129.807 318.826 130.04C318.826 130.27 318.738 130.468 318.562 130.632C318.389 130.794 318.179 130.875 317.931 130.875ZM323.14 138.477C322.487 138.477 321.925 138.334 321.457 138.047C320.991 137.76 320.631 137.364 320.379 136.858C320.129 136.35 320.004 135.764 320.004 135.102C320.004 134.438 320.131 133.851 320.387 133.343C320.643 132.831 321.004 132.433 321.469 132.149C321.938 131.862 322.492 131.719 323.131 131.719C323.663 131.719 324.133 131.817 324.542 132.013C324.954 132.206 325.282 132.48 325.526 132.835C325.771 133.188 325.91 133.6 325.944 134.071H324.469C324.41 133.756 324.268 133.493 324.043 133.283C323.822 133.07 323.525 132.963 323.153 132.963C322.837 132.963 322.56 133.048 322.322 133.219C322.083 133.387 321.897 133.628 321.763 133.943C321.633 134.259 321.567 134.637 321.567 135.077C321.567 135.523 321.633 135.906 321.763 136.227C321.894 136.546 322.077 136.791 322.313 136.965C322.552 137.135 322.832 137.22 323.153 137.22C323.38 137.22 323.583 137.178 323.762 137.093C323.944 137.004 324.096 136.878 324.218 136.713C324.34 136.548 324.424 136.348 324.469 136.112H325.944C325.907 136.575 325.771 136.986 325.535 137.344C325.299 137.699 324.978 137.977 324.572 138.179C324.165 138.378 323.688 138.477 323.14 138.477ZM329.872 130.948V129.622H336.835V130.948H334.137V138.35H332.569V130.948H329.872ZM337.429 138.35V131.804H338.925V132.895H338.993C339.113 132.517 339.317 132.226 339.607 132.021C339.9 131.814 340.233 131.71 340.608 131.71C340.694 131.71 340.789 131.715 340.894 131.723C341.002 131.729 341.091 131.739 341.162 131.753V133.172C341.097 133.149 340.993 133.129 340.851 133.112C340.712 133.093 340.577 133.083 340.446 133.083C340.165 133.083 339.912 133.144 339.688 133.266C339.466 133.385 339.292 133.551 339.164 133.764C339.036 133.977 338.972 134.223 338.972 134.502V138.35H337.429ZM343.953 138.482C343.539 138.482 343.165 138.408 342.833 138.26C342.503 138.11 342.242 137.888 342.049 137.595C341.858 137.303 341.763 136.942 341.763 136.513C341.763 136.144 341.831 135.838 341.968 135.597C342.104 135.355 342.29 135.162 342.526 135.017C342.762 134.872 343.027 134.763 343.323 134.689C343.621 134.612 343.929 134.557 344.248 134.523C344.631 134.483 344.942 134.448 345.181 134.416C345.419 134.382 345.593 134.331 345.701 134.263C345.811 134.192 345.867 134.083 345.867 133.935V133.909C345.867 133.588 345.772 133.34 345.581 133.164C345.391 132.987 345.117 132.899 344.759 132.899C344.381 132.899 344.081 132.982 343.86 133.146C343.641 133.311 343.493 133.506 343.417 133.73L341.976 133.526C342.09 133.128 342.277 132.796 342.539 132.529C342.8 132.259 343.12 132.057 343.498 131.923C343.875 131.787 344.293 131.719 344.75 131.719C345.066 131.719 345.38 131.756 345.692 131.83C346.005 131.904 346.29 132.026 346.549 132.196C346.807 132.364 347.015 132.593 347.171 132.882C347.33 133.172 347.409 133.534 347.409 133.969V138.35H345.926V137.45H345.875C345.782 137.632 345.65 137.803 345.479 137.962C345.311 138.118 345.1 138.244 344.844 138.341C344.591 138.435 344.294 138.482 343.953 138.482ZM344.354 137.348C344.664 137.348 344.932 137.287 345.159 137.165C345.387 137.04 345.561 136.875 345.684 136.671C345.809 136.466 345.871 136.243 345.871 136.002V135.23C345.823 135.27 345.74 135.307 345.624 135.341C345.51 135.375 345.382 135.405 345.24 135.431C345.098 135.456 344.958 135.479 344.819 135.499C344.679 135.519 344.559 135.536 344.456 135.55C344.226 135.581 344.02 135.632 343.838 135.703C343.657 135.774 343.513 135.874 343.408 136.002C343.303 136.127 343.25 136.289 343.25 136.487C343.25 136.771 343.354 136.986 343.561 137.131C343.769 137.276 344.033 137.348 344.354 137.348ZM351.39 138.465C350.875 138.465 350.415 138.333 350.009 138.068C349.603 137.804 349.282 137.421 349.046 136.918C348.81 136.415 348.692 135.804 348.692 135.085C348.692 134.358 348.811 133.744 349.05 133.244C349.292 132.742 349.617 132.362 350.026 132.107C350.435 131.848 350.891 131.719 351.394 131.719C351.777 131.719 352.093 131.784 352.34 131.915C352.587 132.043 352.783 132.198 352.928 132.379C353.073 132.558 353.185 132.727 353.265 132.887H353.328V129.622H354.875V138.35H353.358V137.318H353.265C353.185 137.477 353.07 137.646 352.919 137.825C352.769 138.002 352.57 138.152 352.323 138.277C352.076 138.402 351.765 138.465 351.39 138.465ZM351.82 137.199C352.147 137.199 352.425 137.111 352.655 136.935C352.885 136.756 353.06 136.507 353.179 136.189C353.299 135.871 353.358 135.5 353.358 135.077C353.358 134.654 353.299 134.286 353.179 133.973C353.063 133.661 352.89 133.418 352.659 133.244C352.432 133.071 352.152 132.985 351.82 132.985C351.476 132.985 351.189 133.074 350.959 133.253C350.729 133.432 350.556 133.679 350.439 133.994C350.323 134.31 350.265 134.671 350.265 135.077C350.265 135.486 350.323 135.851 350.439 136.172C350.559 136.49 350.733 136.742 350.963 136.926C351.196 137.108 351.482 137.199 351.82 137.199ZM356.519 138.35V131.804H358.062V138.35H356.519ZM357.295 130.875C357.05 130.875 356.84 130.794 356.664 130.632C356.488 130.468 356.4 130.27 356.4 130.04C356.4 129.807 356.488 129.61 356.664 129.448C356.84 129.283 357.05 129.2 357.295 129.2C357.542 129.2 357.752 129.283 357.925 129.448C358.102 129.61 358.19 129.807 358.19 130.04C358.19 130.27 358.102 130.468 357.925 130.632C357.752 130.794 357.542 130.875 357.295 130.875ZM361.191 134.514V138.35H359.648V131.804H361.123V132.916H361.199C361.35 132.55 361.59 132.259 361.919 132.043C362.252 131.827 362.662 131.719 363.151 131.719C363.603 131.719 363.996 131.816 364.331 132.009C364.669 132.202 364.931 132.482 365.115 132.848C365.303 133.215 365.395 133.659 365.392 134.182V138.35H363.85V134.421C363.85 133.983 363.736 133.641 363.509 133.394C363.284 133.146 362.973 133.023 362.576 133.023C362.306 133.023 362.066 133.083 361.855 133.202C361.648 133.318 361.485 133.487 361.365 133.709C361.249 133.931 361.191 134.199 361.191 134.514ZM369.807 140.941C369.253 140.941 368.777 140.865 368.38 140.715C367.982 140.567 367.662 140.368 367.421 140.118C367.179 139.868 367.012 139.591 366.918 139.287L368.307 138.95C368.37 139.078 368.461 139.205 368.58 139.33C368.699 139.458 368.86 139.563 369.061 139.645C369.266 139.73 369.523 139.773 369.833 139.773C370.27 139.773 370.632 139.666 370.919 139.453C371.206 139.243 371.35 138.896 371.35 138.414V137.173H371.273C371.194 137.333 371.077 137.496 370.924 137.664C370.773 137.831 370.573 137.972 370.323 138.085C370.076 138.199 369.765 138.256 369.39 138.256C368.887 138.256 368.431 138.138 368.022 137.902C367.615 137.664 367.292 137.308 367.05 136.837C366.811 136.362 366.692 135.769 366.692 135.056C366.692 134.337 366.811 133.73 367.05 133.236C367.292 132.739 367.617 132.362 368.026 132.107C368.435 131.848 368.891 131.719 369.394 131.719C369.777 131.719 370.093 131.784 370.34 131.915C370.59 132.043 370.789 132.198 370.936 132.379C371.084 132.558 371.196 132.727 371.273 132.887H371.358V131.804H372.88V138.456C372.88 139.016 372.746 139.479 372.479 139.845C372.212 140.212 371.847 140.486 371.384 140.668C370.921 140.85 370.395 140.941 369.807 140.941ZM369.82 137.046C370.147 137.046 370.425 136.966 370.655 136.807C370.885 136.648 371.06 136.419 371.179 136.121C371.299 135.823 371.358 135.465 371.358 135.047C371.358 134.635 371.299 134.274 371.179 133.965C371.063 133.655 370.89 133.415 370.659 133.244C370.432 133.071 370.152 132.985 369.82 132.985C369.476 132.985 369.189 133.074 368.959 133.253C368.729 133.432 368.556 133.678 368.439 133.99C368.323 134.3 368.265 134.652 368.265 135.047C368.265 135.448 368.323 135.798 368.439 136.1C368.559 136.398 368.733 136.631 368.963 136.798C369.196 136.963 369.482 137.046 369.82 137.046Z" fill="#BAB8B9"/>
<path d="M299.559 160.489C298.843 160.489 298.207 160.366 297.65 160.121C297.096 159.876 296.659 159.534 296.337 159.097C296.016 158.659 295.845 158.154 295.825 157.58H297.695C297.711 157.856 297.802 158.096 297.968 158.301C298.134 158.503 298.354 158.661 298.629 158.774C298.904 158.886 299.213 158.943 299.554 158.943C299.919 158.943 300.242 158.88 300.523 158.754C300.805 158.624 301.026 158.445 301.185 158.217C301.344 157.988 301.422 157.725 301.418 157.426C301.422 157.118 301.342 156.846 301.18 156.611C301.017 156.376 300.782 156.192 300.474 156.059C300.169 155.927 299.801 155.86 299.37 155.86H298.47V154.438H299.37C299.725 154.438 300.035 154.377 300.3 154.254C300.568 154.132 300.779 153.959 300.931 153.737C301.084 153.512 301.158 153.252 301.155 152.957C301.158 152.669 301.094 152.418 300.961 152.206C300.832 151.991 300.648 151.823 300.409 151.704C300.174 151.585 299.897 151.525 299.579 151.525C299.267 151.525 298.979 151.581 298.714 151.694C298.449 151.807 298.235 151.968 298.072 152.176C297.91 152.382 297.824 152.627 297.814 152.912H296.039C296.052 152.342 296.216 151.842 296.531 151.411C296.849 150.977 297.274 150.638 297.804 150.396C298.334 150.151 298.929 150.029 299.589 150.029C300.268 150.029 300.858 150.156 301.359 150.411C301.862 150.663 302.252 151.003 302.527 151.431C302.802 151.858 302.94 152.33 302.94 152.847C302.943 153.421 302.774 153.901 302.433 154.289C302.094 154.677 301.65 154.931 301.1 155.05V155.129C301.816 155.229 302.365 155.494 302.746 155.925C303.13 156.352 303.321 156.884 303.317 157.521C303.317 158.091 303.155 158.601 302.83 159.052C302.509 159.499 302.065 159.851 301.498 160.106C300.934 160.361 300.288 160.489 299.559 160.489ZM308.787 160.544C307.969 160.544 307.266 160.336 306.68 159.922C306.096 159.504 305.647 158.903 305.332 158.117C305.021 157.329 304.865 156.379 304.865 155.269C304.868 154.158 305.026 153.214 305.337 152.435C305.652 151.653 306.101 151.056 306.684 150.645C307.271 150.234 307.972 150.029 308.787 150.029C309.603 150.029 310.304 150.234 310.89 150.645C311.477 151.056 311.926 151.653 312.238 152.435C312.553 153.217 312.71 154.162 312.71 155.269C312.71 156.382 312.553 157.334 312.238 158.122C311.926 158.908 311.477 159.508 310.89 159.922C310.307 160.336 309.606 160.544 308.787 160.544ZM308.787 158.987C309.424 158.987 309.926 158.674 310.294 158.048C310.665 157.418 310.851 156.492 310.851 155.269C310.851 154.46 310.766 153.78 310.597 153.23C310.428 152.68 310.189 152.266 309.881 151.987C309.573 151.706 309.208 151.565 308.787 151.565C308.154 151.565 307.654 151.88 307.286 152.509C306.918 153.136 306.733 154.056 306.729 155.269C306.726 156.081 306.807 156.763 306.973 157.317C307.142 157.87 307.381 158.288 307.689 158.57C307.997 158.848 308.363 158.987 308.787 158.987ZM319.806 158.441V157.904C319.806 157.509 319.889 157.146 320.054 156.815C320.223 156.483 320.469 156.217 320.79 156.014C321.112 155.812 321.501 155.711 321.958 155.711C322.429 155.711 322.824 155.812 323.142 156.014C323.46 156.213 323.7 156.478 323.863 156.81C324.028 157.141 324.111 157.506 324.111 157.904V158.441C324.111 158.835 324.028 159.198 323.863 159.529C323.697 159.861 323.453 160.128 323.132 160.33C322.814 160.532 322.422 160.633 321.958 160.633C321.494 160.633 321.102 160.532 320.78 160.33C320.459 160.128 320.215 159.861 320.049 159.529C319.887 159.198 319.806 158.835 319.806 158.441ZM321.103 157.904V158.441C321.103 158.702 321.166 158.943 321.292 159.161C321.418 159.38 321.64 159.49 321.958 159.49C322.28 159.49 322.5 159.382 322.62 159.166C322.742 158.948 322.804 158.706 322.804 158.441V157.904C322.804 157.638 322.746 157.396 322.63 157.178C322.514 156.956 322.29 156.845 321.958 156.845C321.647 156.845 321.426 156.956 321.297 157.178C321.168 157.396 321.103 157.638 321.103 157.904ZM314.63 152.614V152.077C314.63 151.679 314.715 151.315 314.884 150.983C315.053 150.652 315.298 150.387 315.62 150.188C315.941 149.985 316.331 149.884 316.788 149.884C317.255 149.884 317.648 149.985 317.966 150.188C318.288 150.387 318.53 150.652 318.692 150.983C318.855 151.315 318.936 151.679 318.936 152.077V152.614C318.936 153.012 318.853 153.376 318.687 153.708C318.525 154.036 318.283 154.299 317.961 154.498C317.64 154.697 317.249 154.796 316.788 154.796C316.321 154.796 315.926 154.697 315.605 154.498C315.287 154.299 315.045 154.034 314.879 153.703C314.713 153.371 314.63 153.008 314.63 152.614ZM315.938 152.077V152.614C315.938 152.879 315.999 153.121 316.122 153.34C316.248 153.555 316.47 153.663 316.788 153.663C317.106 153.663 317.325 153.555 317.444 153.34C317.567 153.121 317.628 152.879 317.628 152.614V152.077C317.628 151.812 317.57 151.57 317.454 151.351C317.338 151.129 317.116 151.018 316.788 151.018C316.473 151.018 316.253 151.129 316.127 151.351C316.001 151.573 315.938 151.815 315.938 152.077ZM315.197 160.35L322.197 150.168H323.44L316.44 160.35H315.197Z" fill="#FFFBFD"/>
<circle cx="283" cy="197.35" r="4" fill="#8D3360"/>
<path d="M297.442 181.622V190.35H295.861V181.622H297.442ZM304.259 185.534L302.853 185.688C302.813 185.546 302.743 185.412 302.644 185.287C302.547 185.162 302.417 185.061 302.252 184.985C302.087 184.908 301.885 184.869 301.647 184.869C301.326 184.869 301.056 184.939 300.837 185.078C300.621 185.218 300.515 185.398 300.517 185.619C300.515 185.81 300.584 185.965 300.726 186.084C300.871 186.203 301.11 186.301 301.442 186.378L302.559 186.617C303.178 186.75 303.638 186.962 303.939 187.252C304.243 187.541 304.397 187.921 304.4 188.389C304.397 188.801 304.276 189.165 304.037 189.48C303.801 189.793 303.473 190.037 303.053 190.213C302.632 190.389 302.15 190.477 301.604 190.477C300.803 190.477 300.158 190.31 299.669 189.975C299.181 189.637 298.89 189.166 298.796 188.564L300.3 188.419C300.368 188.715 300.513 188.938 300.735 189.088C300.956 189.239 301.245 189.314 301.6 189.314C301.966 189.314 302.26 189.239 302.482 189.088C302.706 188.938 302.819 188.752 302.819 188.53C302.819 188.343 302.746 188.188 302.601 188.066C302.459 187.943 302.238 187.85 301.936 187.784L300.82 187.55C300.192 187.419 299.728 187.199 299.426 186.889C299.125 186.577 298.976 186.182 298.979 185.705C298.976 185.301 299.086 184.952 299.307 184.656C299.532 184.358 299.843 184.128 300.24 183.966C300.641 183.801 301.103 183.719 301.625 183.719C302.392 183.719 302.996 183.882 303.436 184.209C303.88 184.536 304.154 184.977 304.259 185.534ZM308.527 190.477C307.887 190.477 307.333 190.337 306.865 190.056C306.396 189.774 306.032 189.381 305.774 188.875C305.518 188.369 305.39 187.779 305.39 187.102C305.39 186.426 305.518 185.834 305.774 185.325C306.032 184.817 306.396 184.422 306.865 184.141C307.333 183.86 307.887 183.719 308.527 183.719C309.166 183.719 309.72 183.86 310.189 184.141C310.657 184.422 311.02 184.817 311.275 185.325C311.534 185.834 311.663 186.426 311.663 187.102C311.663 187.779 311.534 188.369 311.275 188.875C311.02 189.381 310.657 189.774 310.189 190.056C309.72 190.337 309.166 190.477 308.527 190.477ZM308.535 189.242C308.882 189.242 309.172 189.146 309.404 188.956C309.637 188.763 309.811 188.504 309.924 188.181C310.041 187.857 310.099 187.496 310.099 187.098C310.099 186.698 310.041 186.335 309.924 186.012C309.811 185.685 309.637 185.425 309.404 185.232C309.172 185.039 308.882 184.942 308.535 184.942C308.18 184.942 307.885 185.039 307.649 185.232C307.416 185.425 307.241 185.685 307.125 186.012C307.011 186.335 306.954 186.698 306.954 187.098C306.954 187.496 307.011 187.857 307.125 188.181C307.241 188.504 307.416 188.763 307.649 188.956C307.885 189.146 308.18 189.242 308.535 189.242ZM314.515 181.622V190.35H312.972V181.622H314.515ZM317.985 190.482C317.57 190.482 317.196 190.408 316.864 190.26C316.534 190.11 316.273 189.888 316.08 189.595C315.89 189.303 315.794 188.942 315.794 188.513C315.794 188.144 315.863 187.838 315.999 187.597C316.135 187.355 316.321 187.162 316.557 187.017C316.793 186.872 317.059 186.763 317.354 186.689C317.652 186.612 317.961 186.557 318.279 186.523C318.662 186.483 318.973 186.448 319.212 186.416C319.451 186.382 319.624 186.331 319.732 186.263C319.843 186.192 319.898 186.083 319.898 185.935V185.909C319.898 185.588 319.803 185.34 319.613 185.164C319.422 184.987 319.148 184.899 318.79 184.899C318.412 184.899 318.113 184.982 317.891 185.146C317.672 185.311 317.525 185.506 317.448 185.73L316.007 185.526C316.121 185.128 316.309 184.796 316.57 184.529C316.831 184.259 317.151 184.057 317.529 183.923C317.907 183.787 318.324 183.719 318.782 183.719C319.097 183.719 319.411 183.756 319.723 183.83C320.036 183.904 320.321 184.026 320.58 184.196C320.838 184.364 321.046 184.593 321.202 184.882C321.361 185.172 321.441 185.534 321.441 185.969V190.35H319.958V189.45H319.907C319.813 189.632 319.681 189.803 319.51 189.962C319.343 190.118 319.131 190.244 318.875 190.341C318.623 190.435 318.326 190.482 317.985 190.482ZM318.385 189.348C318.695 189.348 318.963 189.287 319.191 189.165C319.418 189.04 319.593 188.875 319.715 188.671C319.84 188.466 319.902 188.243 319.902 188.002V187.23C319.854 187.27 319.772 187.307 319.655 187.341C319.542 187.375 319.414 187.405 319.272 187.431C319.13 187.456 318.989 187.479 318.85 187.499C318.711 187.519 318.59 187.536 318.488 187.55C318.257 187.581 318.051 187.632 317.87 187.703C317.688 187.774 317.544 187.874 317.439 188.002C317.334 188.127 317.282 188.289 317.282 188.487C317.282 188.771 317.385 188.986 317.593 189.131C317.8 189.276 318.064 189.348 318.385 189.348ZM326.26 183.804V184.997H322.498V183.804H326.26ZM323.426 182.236H324.969V188.381C324.969 188.588 325 188.747 325.063 188.858C325.128 188.966 325.213 189.04 325.319 189.08C325.424 189.119 325.54 189.139 325.668 189.139C325.765 189.139 325.853 189.132 325.932 189.118C326.015 189.104 326.077 189.091 326.12 189.08L326.38 190.286C326.297 190.314 326.179 190.345 326.026 190.379C325.875 190.414 325.691 190.433 325.472 190.439C325.086 190.45 324.738 190.392 324.428 190.264C324.118 190.134 323.873 189.932 323.691 189.659C323.512 189.387 323.424 189.046 323.426 188.637V182.236ZM330.378 190.477C329.722 190.477 329.155 190.341 328.678 190.068C328.203 189.793 327.838 189.404 327.582 188.901C327.327 188.395 327.199 187.8 327.199 187.115C327.199 186.442 327.327 185.851 327.582 185.343C327.841 184.831 328.202 184.433 328.665 184.149C329.128 183.862 329.672 183.719 330.297 183.719C330.7 183.719 331.081 183.784 331.439 183.915C331.8 184.043 332.118 184.242 332.393 184.512C332.672 184.781 332.891 185.125 333.05 185.543C333.209 185.958 333.288 186.452 333.288 187.026V187.499H327.923V186.459H331.81C331.807 186.164 331.743 185.901 331.618 185.671C331.493 185.438 331.318 185.254 331.094 185.121C330.872 184.987 330.614 184.921 330.318 184.921C330.003 184.921 329.726 184.997 329.487 185.151C329.249 185.301 329.063 185.5 328.929 185.747C328.798 185.992 328.732 186.26 328.729 186.553V187.46C328.729 187.841 328.798 188.168 328.938 188.441C329.077 188.71 329.271 188.918 329.521 189.063C329.771 189.205 330.064 189.276 330.399 189.276C330.624 189.276 330.827 189.244 331.009 189.182C331.19 189.117 331.348 189.021 331.482 188.896C331.615 188.771 331.716 188.617 331.784 188.432L333.224 188.594C333.134 188.975 332.96 189.307 332.705 189.591C332.452 189.872 332.128 190.091 331.733 190.247C331.338 190.401 330.886 190.477 330.378 190.477ZM337.022 190.465C336.508 190.465 336.048 190.333 335.642 190.068C335.235 189.804 334.914 189.421 334.679 188.918C334.443 188.415 334.325 187.804 334.325 187.085C334.325 186.358 334.444 185.744 334.683 185.244C334.924 184.742 335.25 184.362 335.659 184.107C336.068 183.848 336.524 183.719 337.027 183.719C337.41 183.719 337.725 183.784 337.973 183.915C338.22 184.043 338.416 184.198 338.561 184.379C338.706 184.558 338.818 184.727 338.897 184.887H338.961V181.622H340.508V190.35H338.991V189.318H338.897C338.818 189.477 338.703 189.646 338.552 189.825C338.402 190.002 338.203 190.152 337.956 190.277C337.708 190.402 337.397 190.465 337.022 190.465ZM337.453 189.199C337.779 189.199 338.058 189.111 338.288 188.935C338.518 188.756 338.693 188.507 338.812 188.189C338.931 187.871 338.991 187.5 338.991 187.077C338.991 186.654 338.931 186.286 338.812 185.973C338.696 185.661 338.522 185.418 338.292 185.244C338.065 185.071 337.785 184.985 337.453 184.985C337.109 184.985 336.822 185.074 336.592 185.253C336.362 185.432 336.189 185.679 336.072 185.994C335.956 186.31 335.897 186.671 335.897 187.077C335.897 187.486 335.956 187.851 336.072 188.172C336.191 188.49 336.366 188.742 336.596 188.926C336.829 189.108 337.115 189.199 337.453 189.199ZM345.197 190.35V181.622H346.778V189.024H350.621V190.35H345.197ZM354.823 190.477C354.167 190.477 353.6 190.341 353.123 190.068C352.648 189.793 352.283 189.404 352.028 188.901C351.772 188.395 351.644 187.8 351.644 187.115C351.644 186.442 351.772 185.851 352.028 185.343C352.286 184.831 352.647 184.433 353.11 184.149C353.573 183.862 354.117 183.719 354.742 183.719C355.146 183.719 355.526 183.784 355.884 183.915C356.245 184.043 356.563 184.242 356.839 184.512C357.117 184.781 357.336 185.125 357.495 185.543C357.654 185.958 357.734 186.452 357.734 187.026V187.499H352.369V186.459H356.255C356.252 186.164 356.188 185.901 356.063 185.671C355.938 185.438 355.763 185.254 355.539 185.121C355.317 184.987 355.059 184.921 354.763 184.921C354.448 184.921 354.171 184.997 353.933 185.151C353.694 185.301 353.508 185.5 353.374 185.747C353.244 185.992 353.177 186.26 353.174 186.553V187.46C353.174 187.841 353.244 188.168 353.383 188.441C353.522 188.71 353.717 188.918 353.967 189.063C354.217 189.205 354.509 189.276 354.844 189.276C355.069 189.276 355.272 189.244 355.454 189.182C355.636 189.117 355.793 189.021 355.927 188.896C356.06 188.771 356.161 188.617 356.229 188.432L357.67 188.594C357.579 188.975 357.406 189.307 357.15 189.591C356.897 189.872 356.573 190.091 356.178 190.247C355.783 190.401 355.332 190.477 354.823 190.477ZM360.581 186.514V190.35H359.039V183.804H360.513V184.916H360.59C360.74 184.55 360.98 184.259 361.31 184.043C361.642 183.827 362.053 183.719 362.542 183.719C362.993 183.719 363.387 183.816 363.722 184.009C364.06 184.202 364.321 184.482 364.506 184.848C364.694 185.215 364.786 185.659 364.783 186.182V190.35H363.24V186.421C363.24 185.983 363.127 185.641 362.9 185.394C362.675 185.146 362.364 185.023 361.966 185.023C361.696 185.023 361.456 185.083 361.246 185.202C361.039 185.318 360.875 185.487 360.756 185.709C360.64 185.931 360.581 186.199 360.581 186.514ZM368.78 190.465C368.266 190.465 367.806 190.333 367.4 190.068C366.993 189.804 366.672 189.421 366.436 188.918C366.201 188.415 366.083 187.804 366.083 187.085C366.083 186.358 366.202 185.744 366.441 185.244C366.682 184.742 367.007 184.362 367.417 184.107C367.826 183.848 368.282 183.719 368.784 183.719C369.168 183.719 369.483 183.784 369.73 183.915C369.978 184.043 370.174 184.198 370.319 184.379C370.463 184.558 370.576 184.727 370.655 184.887H370.719V181.622H372.266V190.35H370.749V189.318H370.655C370.576 189.477 370.461 189.646 370.31 189.825C370.159 190.002 369.961 190.152 369.713 190.277C369.466 190.402 369.155 190.465 368.78 190.465ZM369.211 189.199C369.537 189.199 369.816 189.111 370.046 188.935C370.276 188.756 370.451 188.507 370.57 188.189C370.689 187.871 370.749 187.5 370.749 187.077C370.749 186.654 370.689 186.286 370.57 185.973C370.453 185.661 370.28 185.418 370.05 185.244C369.823 185.071 369.543 184.985 369.211 184.985C368.867 184.985 368.58 185.074 368.35 185.253C368.12 185.432 367.946 185.679 367.83 185.994C367.713 186.31 367.655 186.671 367.655 187.077C367.655 187.486 367.713 187.851 367.83 188.172C367.949 188.49 368.124 188.742 368.354 188.926C368.587 189.108 368.873 189.199 369.211 189.199ZM373.91 190.35V183.804H375.452V190.35H373.91ZM374.685 182.875C374.441 182.875 374.231 182.794 374.055 182.632C373.879 182.468 373.79 182.27 373.79 182.04C373.79 181.807 373.879 181.61 374.055 181.448C374.231 181.283 374.441 181.2 374.685 181.2C374.933 181.2 375.143 181.283 375.316 181.448C375.492 181.61 375.58 181.807 375.58 182.04C375.58 182.27 375.492 182.468 375.316 182.632C375.143 182.794 374.933 182.875 374.685 182.875ZM378.581 186.514V190.35H377.039V183.804H378.513V184.916H378.59C378.74 184.55 378.98 184.259 379.31 184.043C379.642 183.827 380.053 183.719 380.542 183.719C380.993 183.719 381.387 183.816 381.722 184.009C382.06 184.202 382.321 184.482 382.506 184.848C382.694 185.215 382.786 185.659 382.783 186.182V190.35H381.24V186.421C381.24 185.983 381.127 185.641 380.9 185.394C380.675 185.146 380.364 185.023 379.966 185.023C379.696 185.023 379.456 185.083 379.246 185.202C379.039 185.318 378.875 185.487 378.756 185.709C378.64 185.931 378.581 186.199 378.581 186.514ZM387.198 192.941C386.644 192.941 386.168 192.865 385.77 192.715C385.373 192.567 385.053 192.368 384.811 192.118C384.57 191.868 384.402 191.591 384.309 191.287L385.698 190.95C385.76 191.078 385.851 191.205 385.971 191.33C386.09 191.458 386.25 191.563 386.452 191.645C386.657 191.73 386.914 191.773 387.223 191.773C387.661 191.773 388.023 191.666 388.31 191.453C388.597 191.243 388.74 190.896 388.74 190.414V189.173H388.664C388.584 189.333 388.468 189.496 388.314 189.664C388.164 189.831 387.963 189.972 387.713 190.085C387.466 190.199 387.155 190.256 386.78 190.256C386.277 190.256 385.821 190.138 385.412 189.902C385.006 189.664 384.682 189.308 384.441 188.837C384.202 188.362 384.083 187.769 384.083 187.056C384.083 186.337 384.202 185.73 384.441 185.236C384.682 184.739 385.007 184.362 385.417 184.107C385.826 183.848 386.282 183.719 386.784 183.719C387.168 183.719 387.483 183.784 387.73 183.915C387.98 184.043 388.179 184.198 388.327 184.379C388.475 184.558 388.587 184.727 388.664 184.887H388.749V183.804H390.27V190.456C390.27 191.016 390.137 191.479 389.87 191.845C389.603 192.212 389.238 192.486 388.775 192.668C388.311 192.85 387.786 192.941 387.198 192.941ZM387.211 189.046C387.537 189.046 387.816 188.966 388.046 188.807C388.276 188.648 388.451 188.419 388.57 188.121C388.689 187.823 388.749 187.465 388.749 187.047C388.749 186.635 388.689 186.274 388.57 185.965C388.453 185.655 388.28 185.415 388.05 185.244C387.823 185.071 387.543 184.985 387.211 184.985C386.867 184.985 386.58 185.074 386.35 185.253C386.12 185.432 385.946 185.678 385.83 185.99C385.713 186.3 385.655 186.652 385.655 187.047C385.655 187.448 385.713 187.798 385.83 188.1C385.949 188.398 386.124 188.631 386.354 188.798C386.587 188.963 386.873 189.046 387.211 189.046Z" fill="#BAB8B9"/>
<path d="M300.046 202.168V212.35H298.202V203.963H298.142L295.761 205.484V203.794L298.291 202.168H300.046ZM306.171 212.489C305.508 212.489 304.915 212.365 304.391 212.116C303.868 211.864 303.452 211.519 303.143 211.082C302.839 210.644 302.676 210.144 302.656 209.58H304.446C304.479 209.998 304.66 210.339 304.988 210.605C305.316 210.866 305.71 210.997 306.171 210.997C306.532 210.997 306.854 210.914 307.136 210.749C307.417 210.583 307.639 210.353 307.802 210.058C307.964 209.763 308.044 209.426 308.04 209.048C308.044 208.664 307.963 208.323 307.797 208.024C307.631 207.726 307.404 207.492 307.116 207.323C306.827 207.151 306.496 207.065 306.121 207.065C305.817 207.061 305.517 207.118 305.222 207.234C304.927 207.35 304.693 207.502 304.521 207.691L302.855 207.418L303.387 202.168H309.293V203.709H304.913L304.62 206.409H304.68C304.869 206.186 305.135 206.003 305.48 205.857C305.825 205.708 306.203 205.633 306.614 205.633C307.23 205.633 307.78 205.779 308.264 206.07C308.748 206.359 309.129 206.757 309.408 207.264C309.686 207.771 309.825 208.351 309.825 209.004C309.825 209.677 309.67 210.276 309.358 210.803C309.05 211.327 308.621 211.74 308.07 212.041C307.523 212.34 306.89 212.489 306.171 212.489ZM316.935 210.441V209.904C316.935 209.509 317.018 209.146 317.183 208.815C317.352 208.483 317.598 208.217 317.919 208.014C318.241 207.812 318.63 207.711 319.087 207.711C319.558 207.711 319.952 207.812 320.271 208.014C320.589 208.213 320.829 208.478 320.991 208.81C321.157 209.141 321.24 209.506 321.24 209.904V210.441C321.24 210.835 321.157 211.198 320.991 211.529C320.826 211.861 320.582 212.128 320.261 212.33C319.942 212.532 319.551 212.633 319.087 212.633C318.623 212.633 318.231 212.532 317.909 212.33C317.588 212.128 317.344 211.861 317.178 211.529C317.016 211.198 316.935 210.835 316.935 210.441ZM318.232 209.904V210.441C318.232 210.702 318.295 210.943 318.421 211.161C318.547 211.38 318.769 211.49 319.087 211.49C319.409 211.49 319.629 211.382 319.749 211.166C319.871 210.948 319.933 210.706 319.933 210.441V209.904C319.933 209.638 319.875 209.396 319.759 209.178C319.643 208.956 319.419 208.845 319.087 208.845C318.776 208.845 318.555 208.956 318.426 209.178C318.297 209.396 318.232 209.638 318.232 209.904ZM311.759 204.614V204.077C311.759 203.679 311.844 203.315 312.013 202.983C312.182 202.652 312.427 202.387 312.749 202.188C313.07 201.985 313.46 201.884 313.917 201.884C314.384 201.884 314.777 201.985 315.095 202.188C315.417 202.387 315.659 202.652 315.821 202.983C315.983 203.315 316.065 203.679 316.065 204.077V204.614C316.065 205.012 315.982 205.376 315.816 205.708C315.654 206.036 315.412 206.299 315.09 206.498C314.769 206.697 314.378 206.796 313.917 206.796C313.45 206.796 313.055 206.697 312.734 206.498C312.415 206.299 312.174 206.034 312.008 205.703C311.842 205.371 311.759 205.008 311.759 204.614ZM313.067 204.077V204.614C313.067 204.879 313.128 205.121 313.251 205.34C313.377 205.555 313.599 205.663 313.917 205.663C314.235 205.663 314.454 205.555 314.573 205.34C314.696 205.121 314.757 204.879 314.757 204.614V204.077C314.757 203.812 314.699 203.57 314.583 203.351C314.467 203.129 314.245 203.018 313.917 203.018C313.602 203.018 313.382 203.129 313.256 203.351C313.13 203.573 313.067 203.815 313.067 204.077ZM312.326 212.35L319.326 202.168H320.569L313.569 212.35H312.326Z" fill="#FFFBFD"/>
</svg>
