<svg xmlns="http://www.w3.org/2000/svg" width="140" height="21" viewBox="0 0 140 21" fill="none"><path fill-rule="evenodd" clip-rule="evenodd" d="M4.89534 20.0388H23.1715C24.2577 20.0388 25.0843 18.7476 24.4588 17.8097L15.3323 1.93077C14.6656 0.781788 13.4012 0.000488281 11.953 0.000488281C10.4357 0.000488281 9.10229 0.873707 8.4586 2.16057L1.51599 14.2019C0.10221 16.7255 2.02974 20.0388 4.89534 20.0388Z" fill="#0043FF"/><path fill-rule="evenodd" clip-rule="evenodd" d="M19.2863 5.86101C18.2058 3.99966 18.8495 1.60977 20.7116 0.529726C22.5737 -0.550318 24.9645 0.0931148 26.045 1.95447L33.1026 14.1797C34.1831 16.041 33.5393 18.4309 31.6772 19.5109C29.8151 20.591 27.4243 19.9475 26.3438 18.0862L19.2863 5.86101Z" fill="#0043FF"/><path d="M127.666 5.08902C128.732 4.09498 130.602 3.62163 133.325 3.62163H139.694V0.000488281H132.165C130.365 0.000488281 128.85 0.189835 127.666 0.568516C126.506 0.947198 125.488 1.53888 124.612 2.36725C123.689 3.26662 122.955 4.37899 122.434 5.70437C121.913 7.05343 121.652 8.52082 121.652 10.0592C121.652 11.5266 121.913 12.9467 122.434 14.2484C122.955 15.5501 123.689 16.6861 124.612 17.5855C125.464 18.4139 126.482 19.0056 127.619 19.3843C128.779 19.7629 130.318 19.9523 132.165 19.9523H139.694V16.3785H133.325C131.881 16.3785 130.886 16.3311 130.318 16.2128C129.726 16.0945 129.182 15.9051 128.732 15.6211C127.832 15.0531 127.145 14.3194 126.696 13.3963C126.269 12.497 126.056 11.3609 126.056 10.0356C126.056 7.76346 126.601 6.08306 127.666 5.08902Z" fill="white"/><path d="M72.2383 19.9999H89.996V16.4971H76.5712V11.5032H88.2913V8.18973H76.5712V3.55089H89.996V0.0244141H72.2383V19.9999Z" fill="white"/><path d="M94.4243 0.0244141L102.735 10.0121L94.4243 19.9999H99.799L106.358 12.0949V7.95306L99.799 0.0244141H94.4243Z" fill="white"/><path d="M114.597 0.0244141L108.039 7.95306V12.0949L114.597 19.9999H119.972L111.637 10.0121L119.972 0.0244141H114.597Z" fill="white"/><path d="M54.8363 9.87014L46.8571 0.0244141H42.7373V19.9999H47.0702V6.67502L53.9839 14.9587H55.665L62.5786 6.60402V19.9999H66.9115V0.0244141H62.8391L54.8363 9.87014Z" fill="white"/></svg>