<svg width="427" height="295" viewBox="0 0 427 295" fill="none" xmlns="http://www.w3.org/2000/svg">
<g clip-path="url(#clip0_8328_123180)">
<circle opacity="0.1" cx="202.386" cy="171.467" r="119.5" fill="url(#paint0_linear_8328_123180)" stroke="#3D3D3D"/>
<circle opacity="0.2" cx="202.667" cy="171.467" r="65.5" fill="url(#paint1_linear_8328_123180)" stroke="url(#paint2_linear_8328_123180)"/>
<circle opacity="0.2" cx="202.667" cy="171.467" r="167" stroke="url(#paint3_linear_8328_123180)" stroke-linecap="round" stroke-dasharray="2 6"/>
<circle cx="117.183" cy="255.467" r="31.5" fill="#F48C16"/>
<circle cx="117.183" cy="255.467" r="31.5" fill="url(#paint4_linear_8328_123180)"/>
<circle cx="117.183" cy="255.467" r="31.5" fill="url(#paint5_linear_8328_123180)"/>
<path d="M134.5 256.066C134.5 254.07 129.067 252.404 121.847 252.019L121.847 248.838H130.862V242.217H106.21V248.838H115.225V252.035C108.136 252.446 102.834 254.094 102.834 256.066C102.834 258.039 108.136 259.688 115.225 260.098V271.522H121.847V260.113C129.067 259.73 134.5 258.063 134.5 256.066ZM118.667 258.034C110.917 258.034 104.635 256.834 104.635 255.354C104.635 254.1 109.14 253.048 115.225 252.755V253.509H115.226V256.601C116.323 256.663 117.476 256.695 118.667 256.695C119.764 256.695 120.829 256.667 121.847 256.616V252.743C128.065 253.018 132.7 254.082 132.7 255.354C132.7 256.834 126.417 258.034 118.667 258.034Z" fill="#FFFBFD"/>
<g clip-path="url(#clip1_8328_123180)">
<path d="M286.886 118.467C304.559 118.467 318.886 104.14 318.886 86.4668C318.886 68.7937 304.559 54.4668 286.886 54.4668C269.213 54.4668 254.886 68.7937 254.886 86.4668C254.886 104.14 269.213 118.467 286.886 118.467Z" fill="#9391F7"/>
<path d="M286.886 118.467C304.559 118.467 318.886 104.14 318.886 86.4668C318.886 68.7937 304.559 54.4668 286.886 54.4668C269.213 54.4668 254.886 68.7937 254.886 86.4668C254.886 104.14 269.213 118.467 286.886 118.467Z" fill="url(#paint6_linear_8328_123180)"/>
<path fill-rule="evenodd" clip-rule="evenodd" d="M273.393 70.6892C281.477 63.4032 293.867 63.4032 301.95 70.6892L303.445 69.2161C294.525 61.1077 280.784 61.1077 271.864 69.2161L273.393 70.6892ZM304.83 70.5624L303.335 72.0355C310.727 80.003 310.727 92.214 303.335 100.181L304.83 101.655C313.057 92.8636 313.057 79.3195 304.83 70.528V70.5624ZM271.998 72.0636C264.615 80.0291 264.615 92.2294 271.998 100.195L270.504 101.717C262.277 92.9256 262.277 79.382 270.504 70.5905L271.998 72.0636ZM301.936 101.557C293.852 108.843 281.462 108.843 273.379 101.557L271.884 103.03C280.804 111.138 294.545 111.138 303.465 103.03L301.936 101.557ZM286.496 84.9662C288.299 84.9978 292.199 85.0662 292.222 82.37C292.245 79.6102 288.466 79.7074 286.627 79.7547C286.422 79.76 286.242 79.7646 286.093 79.7646L286.049 84.9606C286.176 84.9606 286.327 84.9632 286.496 84.9662ZM286.484 93.2981C288.635 93.3291 293.348 93.3972 293.373 90.4368C293.399 87.4143 288.891 87.5127 286.679 87.561C286.427 87.5665 286.205 87.5714 286.022 87.5709L285.974 93.2928C286.12 93.2928 286.292 93.2953 286.484 93.2981ZM290.786 76.7807C294.182 77.0953 296.861 78.1277 297.134 81.2049C297.344 83.4564 296.372 84.8082 294.838 85.5751C297.346 86.1699 298.906 87.6446 298.565 90.948C298.142 95.0527 295.037 96.1341 290.596 96.3996L290.56 100.686H287.927L287.963 96.434H285.863L285.827 100.706H283.2L283.236 96.3701H281.355H277.931L278.48 93.2682C278.48 93.2682 280.425 93.2977 280.391 93.2682C280.394 93.2687 280.397 93.2687 280.4 93.2687C280.912 93.2997 281.357 92.9148 281.393 92.408L281.491 80.7232C281.392 80.0079 280.736 79.5036 280.008 79.5827C280.038 79.5483 278.097 79.5827 278.097 79.5827L278.12 76.8053H281.773H283.445L283.481 72.5384H286.094L286.059 76.7217C286.761 76.6972 287.467 76.6972 288.159 76.6972L288.194 72.5384H290.822L290.786 76.7807Z" fill="#FFFBFD"/>
</g>
<g clip-path="url(#clip2_8328_123180)">
<path d="M286.886 287.467C304.559 287.467 318.886 273.14 318.886 255.467C318.886 237.794 304.559 223.467 286.886 223.467C269.213 223.467 254.886 237.794 254.886 255.467C254.886 273.14 269.213 287.467 286.886 287.467Z" fill="url(#paint7_linear_8328_123180)"/>
<path d="M286.886 287.467C304.559 287.467 318.886 273.14 318.886 255.467C318.886 237.794 304.559 223.467 286.886 223.467C269.213 223.467 254.886 237.794 254.886 255.467C254.886 273.14 269.213 287.467 286.886 287.467Z" fill="url(#paint8_linear_8328_123180)"/>
<path d="M281.902 273.266C281.902 273.933 281.458 274.155 280.791 274.155C272.57 271.489 266.793 263.934 266.793 255.047C266.793 246.159 272.57 238.605 280.791 235.939C281.458 235.716 281.902 236.161 281.902 236.827V238.383C281.902 238.827 281.68 239.271 281.235 239.494C274.792 241.938 270.348 247.937 270.348 255.047C270.348 262.157 275.014 268.378 281.235 270.6C281.68 270.822 281.902 271.267 281.902 271.711V273.266Z" fill="white"/>
<path d="M288.574 267.705C288.574 268.149 288.129 268.594 287.685 268.594H285.908C285.463 268.594 285.019 268.149 285.019 267.705V265.039C281.464 264.594 279.686 262.595 279.02 259.706C279.02 259.262 279.242 258.817 279.686 258.817H281.686C282.13 258.817 282.353 259.04 282.575 259.484C283.019 261.039 283.908 262.372 286.796 262.372C289.018 262.372 290.574 261.262 290.574 259.484C290.574 257.707 289.685 257.04 286.574 256.596C281.908 255.929 279.686 254.596 279.686 250.819C279.686 247.93 281.908 245.708 285.019 245.264V242.598C285.019 242.153 285.463 241.709 285.908 241.709H287.685C288.129 241.709 288.574 242.153 288.574 242.598V245.264C291.24 245.708 293.018 247.264 293.462 249.708C293.462 250.152 293.24 250.597 292.795 250.597H291.018C290.574 250.597 290.351 250.374 290.129 249.93C289.685 248.375 288.574 247.708 286.574 247.708C284.352 247.708 283.241 248.819 283.241 250.374C283.241 251.93 283.908 252.818 287.241 253.263C291.907 253.929 294.129 255.262 294.129 259.04C294.129 261.928 291.907 264.372 288.574 265.039V267.705Z" fill="white"/>
<path d="M292.795 274.156C292.128 274.378 291.684 273.934 291.684 273.267V271.712C291.684 271.267 291.906 270.823 292.35 270.601C298.794 268.157 303.238 262.158 303.238 255.048C303.238 247.938 298.572 241.716 292.35 239.494C291.906 239.272 291.684 238.828 291.684 238.384V236.828C291.684 236.162 292.128 235.939 292.795 235.939C300.794 238.606 306.793 246.16 306.793 255.048C306.793 263.935 301.016 271.49 292.795 274.156Z" fill="white"/>
</g>
<path d="M118.982 113.082C136.627 113.082 150.932 97.2854 150.932 77.7996C150.932 58.3139 136.627 42.5176 118.982 42.5176C101.336 42.5176 87.0317 58.3139 87.0317 77.7996C87.0317 97.2854 101.336 113.082 118.982 113.082Z" fill="#2470FF"/>
<path d="M118.982 113.082C136.627 113.082 150.932 97.2854 150.932 77.7996C150.932 58.3139 136.627 42.5176 118.982 42.5176C101.336 42.5176 87.0317 58.3139 87.0317 77.7996C87.0317 97.2854 101.336 113.082 118.982 113.082Z" fill="url(#paint9_linear_8328_123180)"/>
<path d="M117.667 68.9668V93.1409L106.292 86.7916L117.667 68.9668Z" fill="#FFFBFD"/>
<path d="M117.667 68.9668L129.043 86.7916L117.667 93.1409V68.9668Z" fill="#FFFBFD"/>
<path d="M117.667 95.1756V103.967L106.292 88.8294L117.667 95.1756Z" fill="#FFFBFD"/>
<path d="M117.667 103.967V95.1756L129.043 88.8294L117.667 103.967Z" fill="#FFFBFD"/>
<circle cx="36.8127" cy="36.8127" r="36.8127" transform="matrix(0.671239 0.741241 -0.671239 0.741241 204.021 115.496)" fill="url(#paint10_linear_8328_123180)"/>
<path d="M219.327 153.187C223.226 157.492 223.226 164.474 219.327 168.78C215.828 172.644 210.379 173.038 206.479 169.967L199.317 177.876L202.85 181.778C203.5 182.496 203.5 183.659 202.85 184.377C202.2 185.094 201.146 185.094 200.497 184.377L196.967 180.479C196.966 180.478 196.965 180.475 196.964 180.474L195.79 181.771L198.147 184.373C198.796 185.091 198.796 186.254 198.147 186.972C197.497 187.689 196.443 187.689 195.793 186.972L193.44 184.373C193.439 184.372 193.438 184.37 193.437 184.369L192.262 185.667C191.612 186.384 190.559 186.384 189.909 185.667C189.259 184.949 189.259 183.786 189.909 183.068L204.127 167.367C201.351 163.061 201.71 157.049 205.207 153.187C209.106 148.881 215.428 148.881 219.327 153.187ZM215.797 157.085C213.847 154.932 210.686 154.932 208.737 157.085C206.787 159.238 206.787 162.729 208.736 164.881C210.686 167.034 213.848 167.034 215.797 164.881C217.747 162.729 217.746 159.238 215.797 157.085Z" fill="#FFFBFD"/>
</g>
<defs>
<linearGradient id="paint0_linear_8328_123180" x1="82.3857" y1="171.467" x2="322.386" y2="171.467" gradientUnits="userSpaceOnUse">
<stop stop-color="#FF49A4" stop-opacity="0.5"/>
<stop offset="0.93" stop-color="#B049FF" stop-opacity="0.5"/>
</linearGradient>
<linearGradient id="paint1_linear_8328_123180" x1="136.667" y1="171.467" x2="268.667" y2="171.467" gradientUnits="userSpaceOnUse">
<stop stop-color="#FF49A4" stop-opacity="0.5"/>
<stop offset="0.93" stop-color="#B049FF" stop-opacity="0.5"/>
</linearGradient>
<linearGradient id="paint2_linear_8328_123180" x1="136.667" y1="171.467" x2="268.667" y2="171.467" gradientUnits="userSpaceOnUse">
<stop stop-color="#FF49A4"/>
<stop offset="0.93" stop-color="#B049FF"/>
</linearGradient>
<linearGradient id="paint3_linear_8328_123180" x1="35.667" y1="171.467" x2="369.667" y2="171.467" gradientUnits="userSpaceOnUse">
<stop stop-color="#FF49A4"/>
<stop offset="0.93" stop-color="#B049FF"/>
</linearGradient>
<linearGradient id="paint4_linear_8328_123180" x1="136.46" y1="240.681" x2="95.8374" y2="271.839" gradientUnits="userSpaceOnUse">
<stop stop-color="#FA43BD"/>
<stop offset="1" stop-color="#FFA930"/>
</linearGradient>
<linearGradient id="paint5_linear_8328_123180" x1="85.6826" y1="255.467" x2="148.683" y2="255.467" gradientUnits="userSpaceOnUse">
<stop stop-color="#732860"/>
<stop offset="0.93" stop-color="#651C8D"/>
</linearGradient>
<linearGradient id="paint6_linear_8328_123180" x1="254.886" y1="86.4668" x2="318.886" y2="86.4668" gradientUnits="userSpaceOnUse">
<stop stop-color="#732860"/>
<stop offset="0.93" stop-color="#651C8D"/>
</linearGradient>
<linearGradient id="paint7_linear_8328_123180" x1="254.886" y1="255.467" x2="318.886" y2="255.467" gradientUnits="userSpaceOnUse">
<stop stop-color="#FF49A4"/>
<stop offset="0.93" stop-color="#B049FF"/>
</linearGradient>
<linearGradient id="paint8_linear_8328_123180" x1="254.886" y1="255.467" x2="318.886" y2="255.467" gradientUnits="userSpaceOnUse">
<stop stop-color="#732860"/>
<stop offset="0.93" stop-color="#651C8D"/>
</linearGradient>
<linearGradient id="paint9_linear_8328_123180" x1="87.0317" y1="77.7996" x2="150.932" y2="77.7996" gradientUnits="userSpaceOnUse">
<stop stop-color="#732860"/>
<stop offset="0.93" stop-color="#651C8D"/>
</linearGradient>
<linearGradient id="paint10_linear_8328_123180" x1="0" y1="36.8127" x2="73.6254" y2="36.8127" gradientUnits="userSpaceOnUse">
<stop stop-color="#FF49A4"/>
<stop offset="0.93" stop-color="#B049FF"/>
</linearGradient>
<clipPath id="clip0_8328_123180">
<rect width="426.667" height="321" fill="white" transform="translate(0.333496 0.349609)"/>
</clipPath>
<clipPath id="clip1_8328_123180">
<rect width="64" height="64" fill="white" transform="translate(254.886 54.4668)"/>
</clipPath>
<clipPath id="clip2_8328_123180">
<rect width="64" height="64" fill="white" transform="translate(254.886 223.467)"/>
</clipPath>
</defs>
</svg>
