<svg width="177" height="18" viewBox="0 0 177 18" fill="none" xmlns="http://www.w3.org/2000/svg">
  <path fill-rule="evenodd" clip-rule="evenodd"
    d="M95.6684 5.69321C95.1657 5.9175 94.6978 6.21525 94.2647 6.58649V0.194336H90.6684V17.561H94.2647V8.97629C94.5895 8.69013 94.9221 8.46585 95.2624 8.30343C95.6104 8.13329 95.9816 8.04821 96.3761 8.04821C96.902 8.04821 97.3003 8.21449 97.571 8.54706C97.8417 8.87188 97.977 9.32819 97.977 9.91597V17.561H101.573V9.91597C101.573 9.25858 101.484 8.65147 101.306 8.09462C101.129 7.53004 100.866 7.04666 100.518 6.64449C100.17 6.23459 99.7404 5.9175 99.2299 5.69321C98.7272 5.46119 98.1471 5.34518 97.4898 5.34518C96.786 5.34518 96.1788 5.46119 95.6684 5.69321ZM137.066 14.2895C137.337 14.5834 137.631 14.7923 137.948 14.916C138.265 15.0397 138.586 15.1016 138.911 15.1016C139.251 15.1016 139.564 15.0397 139.85 14.916C140.136 14.7845 140.38 14.5757 140.581 14.2895C140.79 13.9957 140.952 13.6128 141.068 13.1411C141.184 12.6615 141.242 12.0738 141.242 11.3777C141.242 10.7744 141.196 10.264 141.103 9.84637C141.018 9.421 140.887 9.07683 140.709 8.81388C140.539 8.54319 140.322 8.34984 140.059 8.23383C139.804 8.11008 139.51 8.04821 139.177 8.04821C138.737 8.04821 138.354 8.14489 138.029 8.33824C137.704 8.53159 137.383 8.81388 137.066 9.18511V14.2895ZM137.066 6.80691C137.53 6.36607 138.037 6.01417 138.586 5.75121C139.143 5.48052 139.761 5.34518 140.442 5.34518C141.122 5.34518 141.741 5.48439 142.298 5.76281C142.855 6.04124 143.331 6.43954 143.725 6.95772C144.119 7.46816 144.421 8.08688 144.63 8.81388C144.846 9.54087 144.955 10.3529 144.955 11.2501C144.955 12.2246 144.831 13.1101 144.583 13.9067C144.336 14.7033 143.984 15.3878 143.528 15.9601C143.079 16.5247 142.542 16.9655 141.915 17.2826C141.289 17.592 140.597 17.7466 139.839 17.7466C139.475 17.7466 139.15 17.7118 138.864 17.6422C138.578 17.5726 138.315 17.476 138.075 17.3522C137.836 17.2207 137.615 17.0661 137.414 16.8882C137.221 16.7103 137.031 16.5169 136.846 16.3081L136.718 16.9114C136.656 17.1589 136.556 17.329 136.416 17.4218C136.277 17.5146 136.092 17.561 135.86 17.561H133.47V0.194336H137.066V6.80691ZM154.438 8.16424C154.345 8.31118 154.244 8.41559 154.136 8.47746C154.036 8.53934 153.904 8.57027 153.742 8.57027C153.572 8.57027 153.401 8.53547 153.231 8.46586C153.061 8.38852 152.876 8.30731 152.674 8.22224C152.481 8.13717 152.261 8.05983 152.013 7.99022C151.766 7.91288 151.483 7.87421 151.166 7.87421C150.71 7.87421 150.358 7.96315 150.111 8.14103C149.871 8.31118 149.751 8.55094 149.751 8.8603C149.751 9.08458 149.828 9.2702 149.983 9.41714C150.145 9.56409 150.358 9.69557 150.621 9.81158C150.884 9.91985 151.182 10.0243 151.514 10.1248C151.847 10.2253 152.187 10.3375 152.535 10.4612C152.883 10.585 153.224 10.7319 153.556 10.9021C153.889 11.0645 154.186 11.2694 154.449 11.5169C154.712 11.7567 154.921 12.0506 155.076 12.3986C155.238 12.7466 155.319 13.1643 155.319 13.6515C155.319 14.247 155.211 14.7961 154.995 15.2988C154.778 15.8016 154.453 16.2347 154.02 16.5982C153.595 16.9617 153.065 17.2439 152.431 17.445C151.804 17.6461 151.081 17.7467 150.261 17.7467C149.852 17.7467 149.442 17.708 149.032 17.6307C148.622 17.5533 148.223 17.4489 147.837 17.3174C147.458 17.1859 147.106 17.0313 146.781 16.8534C146.456 16.6678 146.178 16.4706 145.946 16.2617L146.781 14.9392C146.874 14.7845 146.99 14.6647 147.129 14.5796C147.276 14.4868 147.462 14.4404 147.686 14.4404C147.895 14.4404 148.08 14.4868 148.243 14.5796C148.413 14.6724 148.595 14.7729 148.788 14.8812C148.981 14.9895 149.206 15.09 149.461 15.1828C149.724 15.2756 150.053 15.3221 150.447 15.3221C150.725 15.3221 150.961 15.295 151.155 15.2408C151.348 15.179 151.503 15.0978 151.619 14.9972C151.735 14.8967 151.82 14.7845 151.874 14.6608C151.928 14.5371 151.955 14.4094 151.955 14.278C151.955 14.0382 151.874 13.841 151.712 13.6863C151.549 13.5316 151.336 13.4002 151.073 13.2919C150.811 13.1759 150.509 13.0715 150.169 12.9787C149.836 12.8781 149.496 12.766 149.148 12.6422C148.8 12.5185 148.456 12.3715 148.115 12.2014C147.783 12.0235 147.485 11.8031 147.222 11.5401C146.959 11.2694 146.746 10.9407 146.584 10.554C146.421 10.1673 146.34 9.69943 146.34 9.15032C146.34 8.63988 146.437 8.1565 146.63 7.7002C146.831 7.23616 147.129 6.83012 147.524 6.48209C147.918 6.13406 148.413 5.8595 149.008 5.65842C149.604 5.4496 150.3 5.34519 151.097 5.34519C151.53 5.34519 151.947 5.38386 152.35 5.4612C152.759 5.53854 153.142 5.64682 153.498 5.78603C153.854 5.92524 154.179 6.09152 154.473 6.28487C154.766 6.47049 155.026 6.67544 155.25 6.89973L154.438 8.16424ZM125.892 12.8511C126.356 12.7583 126.948 12.6964 127.667 12.6655V14.3361C127.312 14.6995 126.96 14.9625 126.612 15.1249C126.264 15.2873 125.858 15.3685 125.394 15.3685C124.96 15.3685 124.632 15.2873 124.407 15.1249C124.183 14.9548 124.071 14.6647 124.071 14.2548C124.071 14.046 124.121 13.8527 124.222 13.6748C124.33 13.4969 124.52 13.3384 124.79 13.1992C125.061 13.0599 125.428 12.9439 125.892 12.8511ZM123.607 5.77451C122.725 6.08387 121.921 6.55951 121.194 7.20144L121.844 8.32673C121.952 8.49688 122.091 8.64383 122.261 8.76757C122.431 8.89132 122.64 8.95319 122.888 8.95319C123.166 8.95319 123.406 8.90678 123.607 8.81398C123.808 8.72117 124.013 8.61676 124.222 8.50075C124.438 8.38474 124.682 8.28033 124.953 8.18752C125.223 8.09471 125.571 8.04831 125.997 8.04831C126.53 8.04831 126.94 8.20686 127.227 8.52395C127.52 8.83331 127.667 9.33989 127.667 10.0437V10.5541C126.291 10.5851 125.15 10.7243 124.245 10.9718C123.34 11.2192 122.621 11.5286 122.087 11.8998C121.554 12.2633 121.179 12.6694 120.962 13.1179C120.745 13.5588 120.637 13.9958 120.637 14.4289C120.637 14.9702 120.722 15.4497 120.892 15.8674C121.063 16.2773 121.302 16.6214 121.612 16.8999C121.929 17.1783 122.312 17.391 122.76 17.5379C123.209 17.6771 123.708 17.7467 124.257 17.7467C124.667 17.7467 125.038 17.7119 125.37 17.6423C125.711 17.5805 126.028 17.4838 126.322 17.3523C126.623 17.2131 126.913 17.0468 127.192 16.8535C127.47 16.6601 127.76 16.4358 128.062 16.1806L128.317 16.8419C128.433 17.1358 128.576 17.3291 128.746 17.4219C128.924 17.5147 129.183 17.5611 129.524 17.5611H131.171V10.0437C131.171 9.35536 131.063 8.72117 130.846 8.14112C130.629 7.56107 130.316 7.06222 129.906 6.64459C129.504 6.21922 129.009 5.89052 128.421 5.6585C127.841 5.41875 127.188 5.29887 126.461 5.29887C125.448 5.29887 124.496 5.45742 123.607 5.77451ZM119.874 14.4284V17.5606H109.688V0.65798H113.609V14.4284H119.874ZM88.2245 8.38465C88.1162 8.51613 88.0118 8.62054 87.9112 8.69788C87.8107 8.77522 87.6676 8.81389 87.482 8.81389C87.3041 8.81389 87.1417 8.77135 86.9948 8.68628C86.8555 8.60121 86.697 8.5084 86.5191 8.40786C86.3412 8.29958 86.1324 8.20291 85.8927 8.11783C85.6529 8.03276 85.3551 7.99022 84.9994 7.99022C84.5585 7.99022 84.1757 8.07143 83.8509 8.23384C83.5338 8.39626 83.2708 8.62828 83.062 8.9299C82.8532 9.23153 82.6985 9.60276 82.598 10.0436C82.4974 10.4767 82.4472 10.9678 82.4472 11.5169C82.4472 12.6693 82.6676 13.5548 83.1084 14.1736C83.557 14.7923 84.1718 15.1016 84.953 15.1016C85.3706 15.1016 85.6993 15.0514 85.9391 14.9508C86.1866 14.8425 86.3954 14.7265 86.5655 14.6028C86.7357 14.4713 86.8904 14.3514 87.0296 14.2432C87.1765 14.1349 87.3583 14.0807 87.5748 14.0807C87.861 14.0807 88.0775 14.1852 88.2245 14.394L89.2685 15.6817C88.8973 16.1071 88.5068 16.4551 88.0968 16.7258C87.687 16.9887 87.2654 17.1975 86.8323 17.3522C86.407 17.4992 85.9777 17.5997 85.5446 17.6539C85.1115 17.7157 84.69 17.7467 84.2801 17.7467C83.5454 17.7467 82.8416 17.6074 82.1687 17.329C81.5036 17.0506 80.9158 16.6484 80.4054 16.1225C79.9027 15.5889 79.5005 14.9354 79.1989 14.162C78.905 13.3886 78.758 12.5069 78.758 11.5169C78.758 10.6507 78.8857 9.84251 79.1409 9.09232C79.4038 8.33438 79.7867 7.68086 80.2894 7.13175C80.7998 6.5749 81.4263 6.13793 82.1687 5.82083C82.9189 5.50374 83.7851 5.34519 84.7674 5.34519C85.7109 5.34519 86.5385 5.49601 87.25 5.79763C87.9615 6.09926 88.6034 6.5401 89.1757 7.12014L88.2245 8.38465ZM74.2439 9.26633C74.3212 9.53702 74.3599 9.81544 74.3599 10.1016H69.8819C70.0056 9.36687 70.2608 8.80616 70.6475 8.41946C71.0342 8.02502 71.5679 7.82781 72.2485 7.82781C72.6352 7.82781 72.9639 7.89355 73.2346 8.02502C73.5053 8.1565 73.7218 8.33052 73.8842 8.54707C74.0544 8.75589 74.1742 8.99564 74.2439 9.26633ZM70.752 14.3824C70.257 13.9261 69.9515 13.1952 69.8355 12.1898H76.7729C76.9353 12.1898 77.0668 12.1704 77.1673 12.1318C77.2756 12.0931 77.3607 12.0235 77.4225 11.923C77.4844 11.8224 77.5269 11.6871 77.5501 11.5169C77.5733 11.3468 77.5849 11.1264 77.5849 10.8557C77.5849 9.98946 77.4496 9.21606 77.1789 8.53547C76.9159 7.84714 76.5447 7.26709 76.0652 6.79532C75.5934 6.32354 75.025 5.96391 74.3599 5.71642C73.7025 5.46894 72.9755 5.34519 72.1789 5.34519C71.2585 5.34519 70.431 5.50374 69.6963 5.82083C68.9693 6.13793 68.3467 6.56716 67.8285 7.10854C67.3181 7.64992 66.9236 8.28025 66.6452 8.99951C66.3745 9.71877 66.2392 10.4806 66.2392 11.2849C66.2392 12.3522 66.3977 13.288 66.7148 14.0923C67.0396 14.8967 67.4766 15.5695 68.0257 16.1109C68.5826 16.6523 69.2284 17.0622 69.9631 17.3406C70.7055 17.6113 71.4983 17.7467 72.3413 17.7467C72.7512 17.7467 73.1804 17.7157 73.629 17.6539C74.0853 17.5997 74.5377 17.4992 74.9863 17.3522C75.4426 17.1975 75.8835 16.9887 76.3088 16.7258C76.7419 16.4551 77.1441 16.1071 77.5153 15.6817L76.4712 14.394C76.3243 14.1852 76.1077 14.0807 75.8216 14.0807C75.605 14.0807 75.3962 14.131 75.1951 14.2316C75.0018 14.3321 74.7852 14.4442 74.5455 14.568C74.3135 14.6917 74.0466 14.8039 73.745 14.9044C73.4434 15.005 73.0838 15.0552 72.6661 15.0552C71.885 15.0552 71.2469 14.8309 70.752 14.3824ZM62.3898 17.7464C61.8175 17.7464 61.3109 17.6652 60.8701 17.5028C60.437 17.3327 60.0696 17.0968 59.768 16.7951C59.4741 16.4858 59.2498 16.1145 59.0951 15.6814C58.9405 15.2483 58.8631 14.765 58.8631 14.2313V8.01318H57.8422C57.6566 8.01318 57.4981 7.95518 57.3666 7.83917C57.2351 7.71542 57.1694 7.53754 57.1694 7.30552V5.9018L59.0835 5.53057L59.7912 2.59552C59.884 2.22428 60.147 2.03867 60.5801 2.03867H62.4594V5.55377H65.4409V8.01318H62.4594V13.9877C62.4594 14.2661 62.5252 14.4981 62.6567 14.6838C62.7959 14.8616 62.9931 14.9506 63.2483 14.9506C63.3798 14.9506 63.4881 14.939 63.5731 14.9158C63.6659 14.8848 63.7433 14.8539 63.8052 14.823C63.8748 14.7843 63.9366 14.7534 63.9908 14.7302C64.0526 14.6992 64.1222 14.6838 64.1996 14.6838C64.3079 14.6838 64.3929 14.7108 64.4548 14.765C64.5244 14.8114 64.594 14.8887 64.6636 14.997L65.7541 16.7023C65.2901 17.0504 64.768 17.3133 64.188 17.4912C63.6079 17.6613 63.0085 17.7464 62.3898 17.7464ZM52.8929 5.77443C52.1427 5.48827 51.3113 5.34519 50.3987 5.34519C49.4784 5.34519 48.6392 5.48827 47.8813 5.77443C47.1311 6.06059 46.4815 6.47049 45.9323 7.00414C45.391 7.53778 44.9695 8.18744 44.6678 8.9531C44.3739 9.71103 44.227 10.5656 44.227 11.5169C44.227 12.4759 44.3739 13.3421 44.6678 14.1155C44.9695 14.8812 45.391 15.5347 45.9323 16.0761C46.4815 16.6098 47.1311 17.0235 47.8813 17.3174C48.6392 17.6036 49.4784 17.7467 50.3987 17.7467C51.3113 17.7467 52.1427 17.6036 52.8929 17.3174C53.6431 17.0235 54.2851 16.6098 54.8187 16.0761C55.3601 15.5347 55.7777 14.8812 56.0716 14.1155C56.3732 13.3421 56.5241 12.4759 56.5241 11.5169C56.5241 10.5656 56.3732 9.71103 56.0716 8.9531C55.7777 8.18744 55.3601 7.53778 54.8187 7.00414C54.2851 6.47049 53.6431 6.06059 52.8929 5.77443ZM52.2201 14.2084C51.8334 14.7884 51.2263 15.0784 50.3987 15.0784C49.548 15.0784 48.9254 14.7884 48.531 14.2084C48.1365 13.6206 47.9393 12.7312 47.9393 11.5401C47.9393 10.3491 48.1365 9.46355 48.531 8.8835C48.9254 8.30345 49.548 8.01342 50.3987 8.01342C51.2263 8.01342 51.8334 8.30345 52.2201 8.8835C52.6145 9.46355 52.8117 10.3491 52.8117 11.5401C52.8117 12.7312 52.6145 13.6206 52.2201 14.2084ZM40.366 17.7464C39.7937 17.7464 39.2871 17.6652 38.8463 17.5028C38.4132 17.3327 38.0458 17.0968 37.7442 16.7951C37.4503 16.4858 37.226 16.1145 37.0713 15.6814C36.9167 15.2483 36.8393 14.765 36.8393 14.2313V8.01318H35.8184C35.6328 8.01318 35.4743 7.95518 35.3428 7.83917C35.2113 7.71542 35.1456 7.53754 35.1456 7.30552V5.9018L37.0597 5.53057L37.7674 2.59552C37.8602 2.22428 38.1232 2.03867 38.5563 2.03867H40.4356V5.55377H43.4171V8.01318H40.4356V13.9877C40.4356 14.2661 40.5014 14.4981 40.6328 14.6838C40.7721 14.8616 40.9693 14.9506 41.2245 14.9506C41.356 14.9506 41.4643 14.939 41.5493 14.9158C41.6421 14.8848 41.7195 14.8539 41.7813 14.823C41.851 14.7843 41.9128 14.7534 41.967 14.7302C42.0288 14.6992 42.0984 14.6838 42.1758 14.6838C42.2841 14.6838 42.3691 14.7108 42.431 14.765C42.5006 14.8114 42.5702 14.8887 42.6398 14.997L43.7303 16.7023C43.2663 17.0504 42.7442 17.3133 42.1642 17.4912C41.5841 17.6613 40.9847 17.7464 40.366 17.7464ZM30.8691 5.77443C30.1189 5.48827 29.2875 5.34519 28.3749 5.34519C27.4546 5.34519 26.6154 5.48827 25.8575 5.77443C25.1073 6.06059 24.4576 6.47049 23.9085 7.00414C23.3672 7.53778 22.9456 8.18744 22.644 8.9531C22.3501 9.71103 22.2032 10.5656 22.2032 11.5169C22.2032 12.4759 22.3501 13.3421 22.644 14.1155C22.9456 14.8812 23.3672 15.5347 23.9085 16.0761C24.4576 16.6098 25.1073 17.0235 25.8575 17.3174C26.6154 17.6036 27.4546 17.7467 28.3749 17.7467C29.2875 17.7467 30.1189 17.6036 30.8691 17.3174C31.6193 17.0235 32.2612 16.6098 32.7949 16.0761C33.3363 15.5347 33.7539 14.8812 34.0478 14.1155C34.3494 13.3421 34.5002 12.4759 34.5002 11.5169C34.5002 10.5656 34.3494 9.71103 34.0478 8.9531C33.7539 8.18744 33.3363 7.53778 32.7949 7.00414C32.2612 6.47049 31.6193 6.06059 30.8691 5.77443ZM30.1963 14.2084C29.8096 14.7884 29.2025 15.0784 28.3749 15.0784C27.5242 15.0784 26.9016 14.7884 26.5072 14.2084C26.1127 13.6206 25.9155 12.7312 25.9155 11.5401C25.9155 10.3491 26.1127 9.46355 26.5072 8.8835C26.9016 8.30345 27.5242 8.01342 28.3749 8.01342C29.2025 8.01342 29.8096 8.30345 30.1963 8.8835C30.5907 9.46355 30.7879 10.3491 30.7879 11.5401C30.7879 12.7312 30.5907 13.6206 30.1963 14.2084ZM17.5386 7.38705C17.9098 6.7374 18.3352 6.22695 18.8147 5.85572C19.3019 5.48449 19.8588 5.29887 20.4852 5.29887C21.0266 5.29887 21.4674 5.42648 21.8077 5.6817L21.5757 8.32673C21.537 8.49688 21.4713 8.61289 21.3785 8.67476C21.2934 8.73663 21.1735 8.76757 21.0189 8.76757C20.957 8.76757 20.8758 8.7637 20.7752 8.75597C20.6747 8.74824 20.5703 8.7405 20.462 8.73277C20.3537 8.7173 20.2416 8.7057 20.1256 8.69796C20.0173 8.6825 19.9168 8.67476 19.8239 8.67476C19.298 8.67476 18.8765 8.81397 18.5594 9.0924C18.2501 9.37082 17.9871 9.75752 17.7706 10.2525V17.5611H14.1743V5.53089H16.3088C16.4867 5.53089 16.6337 5.54636 16.7497 5.5773C16.8734 5.60823 16.974 5.6585 17.0513 5.72811C17.1364 5.78998 17.1983 5.87505 17.2369 5.98333C17.2833 6.09161 17.322 6.22309 17.3529 6.37777L17.5386 7.38705ZM8.1671 8.22183C7.71853 8.70907 6.9838 8.95269 5.96291 8.95269H3.92114V3.59303H5.96291C6.45789 3.59303 6.88326 3.6549 7.23902 3.77865C7.60252 3.90239 7.90028 4.08027 8.1323 4.31229C8.37205 4.53658 8.54994 4.80727 8.66595 5.12436C8.78196 5.44146 8.83996 5.79335 8.83996 6.18005C8.83996 7.054 8.61567 7.73459 8.1671 8.22183ZM9.02558 1.08722C8.17484 0.801059 7.15395 0.65798 5.96291 0.65798H0V17.5606H3.92114V11.9109H5.96291C7.13075 11.9109 8.14003 11.7717 8.99077 11.4933C9.84925 11.2072 10.5569 10.8127 11.1138 10.31C11.6706 9.8073 12.0844 9.20405 12.3551 8.50025C12.6258 7.79646 12.7611 7.02306 12.7611 6.18005C12.7611 5.39892 12.6296 4.67193 12.3667 3.99907C12.1037 3.32621 11.6938 2.74229 11.137 2.24732C10.5878 1.75234 9.88405 1.36564 9.02558 1.08722ZM176.5 11.9226L174.314 17.5618H172.78L170.594 11.9226H171.997C172.117 11.9226 172.217 11.9517 172.296 12.0097C172.38 12.064 172.436 12.1329 172.465 12.2163L173.248 14.745C173.317 14.9516 173.377 15.1528 173.427 15.3486C173.482 15.5443 173.529 15.7401 173.569 15.9359C173.649 15.5443 173.759 15.1474 173.901 14.745L174.716 12.2163C174.745 12.1329 174.8 12.064 174.879 12.0097C174.959 11.9517 175.053 11.9226 175.162 11.9226H176.5ZM168.937 13.6729C168.973 13.7998 168.991 13.9303 168.991 14.0645H166.892C166.95 13.7201 167.07 13.4572 167.251 13.276C167.432 13.0911 167.682 12.9986 168.001 12.9986C168.183 12.9986 168.337 13.0294 168.464 13.0911C168.59 13.1527 168.692 13.2343 168.768 13.3358C168.848 13.4337 168.904 13.5461 168.937 13.6729ZM167.3 16.0711C167.068 15.8572 166.925 15.5146 166.87 15.0433H170.122C170.198 15.0433 170.26 15.0342 170.307 15.0161C170.358 14.998 170.398 14.9654 170.427 14.9182C170.456 14.8711 170.476 14.8077 170.487 14.7279C170.497 14.6482 170.503 14.5448 170.503 14.4179C170.503 14.0119 170.439 13.6494 170.313 13.3303C170.189 13.0077 170.015 12.7358 169.79 12.5147C169.569 12.2935 169.303 12.1249 168.991 12.0089C168.683 11.8929 168.342 11.8349 167.969 11.8349C167.537 11.8349 167.149 11.9092 166.805 12.0579C166.464 12.2065 166.172 12.4077 165.93 12.6615C165.69 12.9153 165.505 13.2107 165.375 13.5479C165.248 13.885 165.185 14.2421 165.185 14.6191C165.185 15.1194 165.259 15.5581 165.407 15.9351C165.56 16.3122 165.765 16.6276 166.022 16.8813C166.283 17.1351 166.586 17.3273 166.93 17.4578C167.278 17.5847 167.65 17.6481 168.045 17.6481C168.237 17.6481 168.438 17.6336 168.649 17.6046C168.862 17.5792 169.074 17.5321 169.285 17.4632C169.499 17.3907 169.705 17.2928 169.905 17.1696C170.108 17.0427 170.296 16.8795 170.47 16.6801L169.981 16.0765C169.912 15.9786 169.81 15.9297 169.676 15.9297C169.575 15.9297 169.477 15.9533 169.383 16.0004C169.292 16.0475 169.19 16.1001 169.078 16.1581C168.969 16.2161 168.844 16.2687 168.703 16.3158C168.562 16.3629 168.393 16.3865 168.197 16.3865C167.831 16.3865 167.532 16.2814 167.3 16.0711ZM162.659 13.4337C162.532 13.2923 162.394 13.1944 162.246 13.1401C162.097 13.0821 161.941 13.053 161.778 13.053C161.622 13.053 161.479 13.0839 161.348 13.1455C161.218 13.2071 161.104 13.3068 161.006 13.4446C160.912 13.5787 160.837 13.7545 160.783 13.9721C160.729 14.1896 160.701 14.4524 160.701 14.7606C160.701 15.0578 160.723 15.308 160.767 15.511C160.81 15.714 160.87 15.879 160.946 16.0059C161.026 16.1291 161.12 16.2179 161.229 16.2723C161.338 16.3267 161.459 16.3539 161.593 16.3539C161.716 16.3539 161.827 16.343 161.925 16.3213C162.026 16.2959 162.119 16.2614 162.202 16.2179C162.286 16.1744 162.364 16.1201 162.436 16.0548C162.512 15.9859 162.587 15.908 162.659 15.821V13.4337ZM164.345 9.42049V17.5611H163.301C163.09 17.5611 162.953 17.4669 162.887 17.2784L162.757 16.8488C162.645 16.9684 162.527 17.0771 162.403 17.175C162.28 17.2729 162.146 17.3581 162.001 17.4306C161.86 17.4995 161.706 17.5521 161.539 17.5883C161.376 17.6282 161.198 17.6481 161.006 17.6481C160.712 17.6481 160.44 17.5829 160.19 17.4524C159.94 17.3219 159.724 17.1333 159.543 16.8868C159.362 16.6403 159.219 16.3394 159.113 15.9841C159.012 15.6252 158.961 15.2174 158.961 14.7606C158.961 14.34 159.019 13.9503 159.135 13.5914C159.251 13.2289 159.414 12.9171 159.625 12.6561C159.839 12.3914 160.094 12.1848 160.391 12.0361C160.689 11.8875 161.017 11.8132 161.376 11.8132C161.669 11.8132 161.916 11.8549 162.115 11.9383C162.315 12.0216 162.496 12.134 162.659 12.2754V9.42049H164.345ZM156.479 16.3434C156.431 16.4558 156.408 16.5773 156.408 16.7078C156.408 16.8383 156.431 16.9615 156.479 17.0776C156.529 17.1899 156.596 17.2878 156.68 17.3712C156.767 17.4546 156.868 17.5198 156.984 17.567C157.1 17.6141 157.227 17.6377 157.365 17.6377C157.499 17.6377 157.624 17.6141 157.74 17.567C157.856 17.5198 157.958 17.4546 158.045 17.3712C158.132 17.2878 158.199 17.1899 158.246 17.0776C158.297 16.9615 158.322 16.8383 158.322 16.7078C158.322 16.5773 158.297 16.4558 158.246 16.3434C158.199 16.231 158.132 16.1332 158.045 16.0498C157.958 15.9664 157.856 15.9011 157.74 15.854C157.624 15.8033 157.499 15.7779 157.365 15.7779C157.227 15.7779 157.1 15.8033 156.984 15.854C156.868 15.9011 156.767 15.9664 156.68 16.0498C156.596 16.1332 156.529 16.231 156.479 16.3434Z"
    fill="#FFFBFD" />
</svg>