<svg xmlns="http://www.w3.org/2000/svg" fill="none" viewBox="0 0 968 774"><style>.B{fill:#fff}.C{fill:#8d3360}.D{fill:#ff49a4}</style><rect width="730" height="110" x="118.5" fill="#232323" rx="24"/><path d="M150.5 55a23 23 0 0 1 23-23h238a23 23 0 0 1 0 46h-238a23 23 0 0 1-23-23z" class="C"/><path d="M178.7 61.3V48.5h.8v12.8h-.8zm2.3-8.7c0-.4-.2-.8-.5-1s-.8-.4-1.4-.4l-1 .2a1 1 0 0 0-.6.5l-.2.7a1 1 0 0 0 .1.5l.4.4.6.3a6 6 0 0 0 .6.2l1 .2a6.6 6.6 0 0 1 1 .4l1 .5c.3.2.5.6.7.9s.3.7.3 1.1a2.8 2.8 0 0 1-1.8 2.7 5.4 5.4 0 0 1-4.1 0c-.5-.2-1.1-.6-1.4-1s-.5-1.1-.6-1.8h1.9c0 .3 0 .6.3.9l.7.5a3 3 0 0 0 1 .2c.5 0 .8 0 1.1-.2l.7-.5c.1-.2.3-.5.3-.8 0-.2 0-.5-.2-.6l-.7-.5-1-.3-1-.3c-1-.2-1.6-.5-2-1s-.8-1-.8-1.7c0-.6.2-1.1.5-1.6s.8-.8 1.3-1 1.2-.4 2-.4c.7 0 1.3.1 1.8.4s1 .6 1.3 1 .5 1 .5 1.5H181zm9.1 0c0-.4-.2-.8-.6-1a2.8 2.8 0 0 0-2.3-.2 1 1 0 0 0-.6.5l-.2.7a1 1 0 0 0 .1.5l.4.4.6.3a6 6 0 0 0 .6.2l1 .2a6.6 6.6 0 0 1 1 .4l1 .5c.3.2.5.6.7.9s.2.7.2 1.1a2.8 2.8 0 0 1-1.7 2.7 5.4 5.4 0 0 1-4.1 0c-.5-.2-1.1-.6-1.4-1s-.5-1.1-.6-1.8h1.8a1.5 1.5 0 0 0 .4.9 1.7 1.7 0 0 0 .7.5 3 3 0 0 0 1 .2c.5 0 .8 0 1.1-.2l.7-.5c.1-.2.3-.5.3-.8 0-.2 0-.5-.2-.6l-.7-.5a6.2 6.2 0 0 0-1-.3l-1-.3c-1-.2-1.6-.5-2-1s-.8-1-.8-1.7c0-.6.2-1.1.5-1.6s.8-.8 1.3-1 1.2-.4 2-.4c.7 0 1.3.1 1.8.4s1 .6 1.3 1 .5 1 .5 1.5h-1.8zm10-2.8h1.9v6.7c0 .7-.2 1.3-.6 1.9s-.8 1-1.4 1.3a5 5 0 0 1-4.4 0 3.5 3.5 0 0 1-1.4-1.3c-.3-.6-.5-1.2-.5-2v-6.6h1.8v6.5c0 .4.1.8.3 1.1l.8.8c.3.2.8.3 1.2.3s.9 0 1.2-.3.6-.4.8-.8l.3-1v-6.6zm3.9 0h2.2l3 7.4h.2l3-7.4h2.2V60H213v-7h-.1l-2.8 7h-1.4l-2.8-7v7H204V49.8zM216.6 60V49.8h3.9c.7 0 1.4.2 2 .4s.9.7 1.1 1.2.5 1 .5 1.7-.2 1.2-.5 1.7-.6.8-1.2 1-1.2.5-2 .5h-2.7v-1.6h2.5l1.1-.1a1.3 1.3 0 0 0 .7-.6l.2-1-.2-.9c-.1-.3-.4-.4-.7-.5l-1.1-.2h-1.7V60h-1.9zm5.3-4.6 2.5 4.6h-2l-2.5-4.6h2zm6.9-4v-1.6h8.1v1.6h-3.2V60H232v-8.6h-3.1zm11.8 8.7c-.7 0-1.4-.1-2-.4s-.9-.8-1.2-1.4-.5-1.3-.5-2 .2-1.6.5-2.2.7-1 1.3-1.3 1.2-.5 2-.5 1.3.1 1.8.5a3.3 3.3 0 0 1 1.3 1.3c.3.6.5 1.3.5 2.1s-.2 1.5-.5 2-.7 1.1-1.3 1.5-1.1.4-1.9.4zm0-1.4c.4 0 .8-.1 1-.3a2 2 0 0 0 .6-1c.2-.3.2-.7.2-1.2l-.2-1.3-.6-.9c-.3-.3-.6-.3-1-.3s-.7.1-1 .3-.5.6-.6 1a3.8 3.8 0 0 0-.2 1.2c0 .5 0 .9.2 1.3l.6.9c.3.3.6.3 1 .3zm6.8-1.1v-2.2h.3l2.8-3h2l-3.3 3.7h-.4l-1.4 1.5zm-1.6 2.4V49.8h1.8V60h-1.8zm4.8 0-2.5-3.5 1.2-1.2 3.4 4.7h-2.1zm6.2.1a4 4 0 0 1-2-.4 3.2 3.2 0 0 1-1.2-1.4 4.6 4.6 0 0 1 0-4.2 3.4 3.4 0 0 1 3.1-1.8c.5 0 1 0 1.4.2l1 .7c.3.3.7.7.8 1.2s.3 1 .3 1.7v.6H254v-1.2h4.5c0-.4 0-.7-.2-1l-.6-.6a1.7 1.7 0 0 0-1-.2 1.8 1.8 0 0 0-1 .2 1.9 1.9 0 0 0-.6.7 2 2 0 0 0-.2 1v1c0 .5 0 .9.3 1.2l.6.7c.3.2.7.2 1 .2h.8a1.6 1.6 0 0 0 .5-.4 1.4 1.4 0 0 0 .4-.5l1.7.2-.7 1.1-1 .8c-.5.2-1 .2-1.7.2zm6.7-4.6V60h-1.8v-7.6h1.8v1.3c.2-.5.5-.8.9-1s.9-.4 1.4-.4c.6 0 1 0 1.4.3l1 1c.3.4.3 1 .3 1.5V60h-1.8v-4.6c0-.5-.2-.9-.4-1.2s-.7-.4-1.1-.4c-.4 0-.6 0-.9.2l-.5.6c-.1.3-.3.6-.3 1zm10.3 4.5V49.8h1.9v4.3h4.7v-4.3h1.8V60h-1.8v-4.3h-4.7V60h-1.9zm13.7.1c-.7 0-1.4-.1-2-.4s-1-.8-1.2-1.4-.5-1.3-.5-2 .2-1.6.5-2.2.7-1 1.3-1.3 1.2-.5 1.9-.5 1.4.1 2 .5 1 .7 1.2 1.3.5 1.3.5 2.1-.2 1.5-.5 2-.7 1.1-1.3 1.5-1.2.4-1.9.4zm0-1.4c.4 0 .8-.1 1-.3s.5-.6.6-1l.2-1.2c0-.5 0-.9-.2-1.3l-.6-.9c-.3-.3-.6-.3-1-.3s-.7.1-1 .3-.5.6-.6 1l-.2 1.2a3.8 3.8 0 0 0 .2 1.3l.6.9c.3.3.6.3 1 .3zm7-8.9V60h-1.8V49.8h1.8zm4.7 10.3a2.9 2.9 0 0 1-1.6-.4c-.5-.3-.9-.8-1.2-1.4s-.4-1.3-.4-2.1c0-.9.2-1.6.4-2.2s.7-1 1.2-1.3a3 3 0 0 1 2.7-.2l.7.5.4.6v-3.8h1.8V60h-1.7v-1.2h-.1a3 3 0 0 1-.4.6 2.2 2.2 0 0 1-.7.5c-.3.2-.7.2-1.1.2zm.5-1.4c.4 0 .7-.1 1-.4l.6-.8c.2-.4.2-.8.2-1.3l-.2-1.3-.6-.9c-.2-.2-.6-.3-1-.3s-.8.1-1 .4l-.6.8-.2 1.3c0 .5 0 .9.2 1.3l.6.8c.3.2.6.4 1 .4zm8.8 1.4a4 4 0 0 1-2-.4 3.2 3.2 0 0 1-1.2-1.4 4.6 4.6 0 0 1 0-4.2 3.4 3.4 0 0 1 3.1-1.8c.5 0 1 0 1.4.2l1 .7c.3.3.7.7.9 1.2s.2 1 .2 1.7v.6h-6.2v-1.2h4.5c0-.4 0-.7-.2-1l-.6-.6c-.2-.2-.6-.2-1-.2a1.8 1.8 0 0 0-.9.2 1.9 1.9 0 0 0-.7.7 2 2 0 0 0-.2 1v1c0 .5.1.9.3 1.2a1.7 1.7 0 0 0 .6.7c.3.2.7.2 1 .2a2.2 2.2 0 0 0 .8 0 1.6 1.6 0 0 0 .5-.4 1.4 1.4 0 0 0 .4-.5l1.7.2c-.1.4-.3.8-.6 1.1s-.7.6-1.2.8-1 .2-1.6.2zm5-.1v-7.6h1.7v1.2l.8-1s.7-.3 1.2-.3h.3a2.2 2.2 0 0 1 .3 0V54l-.4-.1c-.2-.1-.3 0-.4 0-.4 0-.6 0-1 .2a1.6 1.6 0 0 0-.5.6 1.6 1.6 0 0 0-.2.8V60h-1.8zm11.5-5.6-1.6.2a1.3 1.3 0 0 0-.2-.5l-.5-.4a1.7 1.7 0 0 0-.7 0l-1 .1a1 1 0 0 0-.3.7.7.7 0 0 0 .2.5c.2.2.5.3.9.4l1.3.2c.7.2 1.2.4 1.6.8s.5.8.5 1.3-.1 1-.4 1.3-.7.6-1.2.8-1 .3-1.7.3c-.9 0-1.6-.1-2.2-.5s-1-1-1-1.7l1.7-.2c.1.4.3.7.5.8s.6.3 1 .3c.5 0 .8-.1 1-.3s.5-.4.5-.6a.7.7 0 0 0-.3-.6l-.8-.3-1.3-.3c-.7-.1-1.2-.4-1.6-.7s-.5-.9-.5-1.4c0-.5.1-.9.4-1.2s.6-.7 1-.8 1-.3 1.7-.3c.9 0 1.6.2 2 .5a2.4 2.4 0 0 1 1 1.6zm8.2 5.7c-.7 0-1.3 0-1.8-.3s-.9-.6-1.1-1a2.7 2.7 0 0 1-.5-1.5c0-.4.1-.8.3-1a3.3 3.3 0 0 1 .7-1 9.7 9.7 0 0 1 1-.8l1.8-1.2.6-.5.2-.7c0-.2 0-.4-.2-.6s-.5-.3-.8-.3a1 1 0 0 0-.6.1 1 1 0 0 0-.3.4 1 1 0 0 0-.2.5 1.4 1.4 0 0 0 .2.7 4.9 4.9 0 0 0 .5.7l.6.8 4.8 5.6h-2l-3.9-4.5-.9-1c-.2-.4-.5-.7-.6-1.1l-.3-1.2c0-.5.1-.9.3-1.3a2.4 2.4 0 0 1 1-.9c.4-.2.8-.3 1.4-.3s1 .1 1.4.3.6.5.9.9.3.7.3 1.1a2.4 2.4 0 0 1-.4 1.3c-.2.4-.6.7-1 1l-2 1.5-.8.8-.2.6c0 .3 0 .5.2.7l.6.6c.3.2.5.2.9.2a2.6 2.6 0 0 0 1-.3c.4-.1.7-.4 1-.7l.7-1c.2-.4.3-1 .3-1.5h1.5c0 .6 0 1.2-.2 1.7L337 58l-.7.8-.2.1-.2.2c-.4.3-.8.6-1.3.7l-1.4.2zm13.2-.1H343V49.8h3.5c1 0 1.9.2 2.6.6.8.4 1.3 1 1.7 1.8s.6 1.6.6 2.7-.2 2-.6 2.7-1 1.4-1.7 1.8-1.6.6-2.7.6zm-1.6-1.6h1.6c.7 0 1.3-.1 1.7-.4s.9-.6 1.1-1.2.4-1.1.4-1.9-.2-1.4-.4-2-.6-.8-1-1.1-1.1-.4-1.8-.4h-1.6v7zm11.6 1.7a4 4 0 0 1-2-.4 3.2 3.2 0 0 1-1.2-1.4 4.5 4.5 0 0 1 0-4.2 3.4 3.4 0 0 1 1.2-1.3c.6-.4 1.2-.5 2-.5.4 0 .9 0 1.3.2l1.1.7c.3.3.6.7.8 1.2s.2 1 .2 1.7v.6h-6.2v-1.2h4.5c0-.4 0-.7-.2-1l-.6-.6c-.2-.2-.6-.2-1-.2-.3 0-.6 0-.9.2l-.6.7c-.1.3-.3.6-.3 1v1c0 .5.1.9.3 1.2l.6.7c.2.2.7.2 1 .2h.8a1.6 1.6 0 0 0 .5-.4 1.4 1.4 0 0 0 .4-.5l1.7.2a2.6 2.6 0 0 1-.6 1.1c-.3.3-.7.6-1.2.8s-1 .2-1.6.2zm6.8-10.3V60h-1.8V49.8h1.8zm5.2 10.3c-.8 0-1.4-.1-2-.4s-1-.8-1.3-1.4-.4-1.3-.4-2c0-.9.1-1.5.4-2.1s.8-1.1 1.3-1.4 1.2-.5 1.9-.5a3.9 3.9 0 0 1 1.3.2c.5.1.8.4 1.1.7s.6.7.8 1.2.3 1 .3 1.7v.6h-6.3v-1.2h4.6c0-.4-.1-.7-.3-1a1.6 1.6 0 0 0-.6-.6c-.2-.2-.5-.2-.9-.2-.3 0-.7 0-1 .2l-.6.7c-.2.3-.2.6-.2 1v1c0 .5 0 .9.2 1.2l.7.7c.3.2.6.2 1 .2h.7a1.6 1.6 0 0 0 .6-.4 1.4 1.4 0 0 0 .3-.5l1.7.2a2.6 2.6 0 0 1-.6 1.1l-1.1.8c-.4.2-1 .2-1.6.2zm8.2 3c-.6 0-1.2-.2-1.6-.3s-.9-.4-1.2-.7-.4-.7-.5-1l1.6-.4a1.8 1.8 0 0 0 .3.4c.1.2.3.3.6.4l.9.2c.5 0 .9-.2 1.2-.4s.5-.7.5-1.2v-1.5l-.5.6a2.3 2.3 0 0 1-1.8.7c-.5 0-1-.1-1.6-.4s-.8-.7-1-1.3-.5-1.2-.5-2c0-.9.1-1.6.4-2.2s.7-1 1.2-1.3a3 3 0 0 1 1.5-.4c.5 0 .9 0 1.2.2a2.1 2.1 0 0 1 .6.5c.2.2.4.4.4.6h.1v-1.2h1.8V60c0 .7-.1 1.2-.5 1.6s-.7.8-1.2 1-1.2.3-1.9.3zm0-4.6c.4 0 .8-.1 1-.3s.5-.5.6-.8l.2-1.3c0-.4 0-.9-.2-1.2s-.3-.7-.6-.9-.6-.3-1-.3-.7.1-1 .4l-.6.8c-.2.3-.2.8-.2 1.2l.2 1.3.6.8c.2.2.7.3 1 .3zm7.7 1.7a3.2 3.2 0 0 1-1.3-.3c-.4-.2-.7-.4-1-.8s-.3-.7-.3-1.2 0-.8.2-1.1l.7-.7 1-.4a7.6 7.6 0 0 1 1-.2h1l.7-.3.2-.4c0-.4-.1-.6-.3-.9s-.6-.3-1-.3-.8.1-1 .3l-.6.7-1.6-.2a2.7 2.7 0 0 1 1.7-1.9 4.4 4.4 0 0 1 2.6-.1c.4 0 .7.2 1 .4a2.1 2.1 0 0 1 .7.8c.2.4.3.8.3 1.3V60h-1.7v-1h-.1a2.2 2.2 0 0 1-1.2 1 3 3 0 0 1-1 .2zm.4-1.4c.4 0 .7 0 1-.2l.6-.6c.2-.3.2-.5.2-.7v-1a.8.8 0 0 1-.3.2h-.4l-.5.2h-.5l-.7.2-.5.4-.2.5c0 .4.2.6.4.8s.6.2 1 .2zm9.2-6.4v1.4h-4.4v-1.4h4.4zm-3.3-1.9h1.8v7.2l.1.6c.1.2.2.2.3.2h.4a1.8 1.8 0 0 0 .3 0h.3l.3 1.4a4 4 0 0 1-.5.1 3.4 3.4 0 0 1-1.8-.1 1.9 1.9 0 0 1-1.2-1.9v-7.5zm8.1 9.7c-.7 0-1.4-.2-2-.5s-1-.8-1.2-1.4-.5-1.3-.5-2c0-.9.2-1.5.5-2.1s.7-1.1 1.2-1.4 1.2-.5 2-.5c.4 0 .8 0 1.3.2a3 3 0 0 1 1 .7c.4.3.6.7.8 1.2s.3 1 .3 1.7v.6H396v-1.2h4.5a2 2 0 0 0-.2-1l-.6-.6a1.7 1.7 0 0 0-1-.2c-.3 0-.6 0-1 .2s-.4.4-.6.7-.2.6-.2 1v1c0 .5 0 .9.2 1.2l.7.7c.3.2.7.2 1 .2h.8a1.6 1.6 0 0 0 .5-.4 1.4 1.4 0 0 0 .4-.5l1.6.2c0 .4-.3.8-.6 1.1s-.6.6-1.1.8-1 .3-1.6.3zm11-5.8-1.7.2a1.3 1.3 0 0 0-.2-.5l-.5-.4a1.7 1.7 0 0 0-.7 0c-.4 0-.7 0-1 .2s-.3.3-.3.6a.7.7 0 0 0 .2.5c.2.2.5.3.9.4l1.3.2c.7.2 1.2.4 1.6.8s.5.8.5 1.3-.1 1-.4 1.3-.6.6-1.1.8-1 .4-1.7.4c-1 0-1.7-.2-2.3-.6s-.9-1-1-1.7l1.8-.2c0 .4.2.7.5.8s.6.3 1 .3.7-.1 1-.3.4-.4.4-.6a.7.7 0 0 0-.3-.6l-.7-.3-1.3-.3c-.8-.1-1.3-.4-1.7-.7s-.5-.9-.5-1.4c0-.5.1-.9.4-1.2s.6-.7 1-.8 1-.3 1.7-.3a4 4 0 0 1 2.1.5 2.4 2.4 0 0 1 1 1.6z" class="B"/><path d="M446.5 55a23 23 0 0 1 23-23h180a23 23 0 0 1 0 46h-180a23 23 0 0 1-23-23z" class="C"/><path d="M471.5 60V49.8h1.8v8.7h4.5V60h-6.3zm10 .2a3.2 3.2 0 0 1-1.3-.3l-.9-.8c-.3-.4-.3-.7-.3-1.2s0-.8.2-1.1l.7-.7 1-.4a7.6 7.6 0 0 1 1-.2h1l.7-.3.2-.4c0-.4-.1-.6-.3-.9s-.6-.3-1-.3-.8.1-1 .3l-.6.7-1.7-.2a2.7 2.7 0 0 1 1.8-1.9 4.4 4.4 0 0 1 2.6-.1c.3 0 .7.2 1 .4a2.1 2.1 0 0 1 .7.8c.2.4.3.8.3 1.3V60h-1.7v-1h-.1a2.2 2.2 0 0 1-1.2 1 3 3 0 0 1-1 .2zm.5-1.4c.4 0 .7 0 1-.2l.6-.6c.2-.3.2-.5.2-.7v-1a.8.8 0 0 1-.3.2h-.4l-.5.2h-.5a3.1 3.1 0 0 0-.7.2l-.5.4-.2.5c0 .4.2.6.4.8s.5.2 1 .2zm5.3 1.2v-1.1l4-5h-3.9v-1.5h6v1.2l-3.7 4.8v.1h3.9V60h-6.3zm9 2.9-.6-.1a2.5 2.5 0 0 1-.5-.1l.4-1.4h.7a.9.9 0 0 0 .6-.1l.4-.6.1-.4-2.8-7.8h2l1.7 5.7h.1l1.8-5.7h1.9l-3 8.5-.6 1a2.3 2.3 0 0 1-1 .7 2 2 0 0 1-1.1.3zm16.1-10.3c0-.4-.2-.8-.6-1a2.8 2.8 0 0 0-2.3-.2 1 1 0 0 0-.6.5 1.1 1.1 0 0 0-.3.7 1 1 0 0 0 .2.5c0 .2.2.3.4.4l.6.3.6.2 1 .2a6.6 6.6 0 0 1 1 .4 4 4 0 0 1 1 .5 2.5 2.5 0 0 1 .7.9l.2 1.1a2.8 2.8 0 0 1-1.8 2.7 5.4 5.4 0 0 1-4.1 0c-.6-.2-1-.6-1.4-1-.3-.6-.5-1.1-.5-1.8h1.8l.3.9.8.5c.1.3.7.2 1 .2.4 0 .8 0 1.1-.2l.7-.5c.2-.2.3-.5.3-.8 0-.2-.1-.5-.3-.6l-.6-.5-1-.3-1.1-.3c-.8-.2-1.5-.5-2-1s-.7-1-.7-1.7c0-.6.1-1.1.5-1.6s.7-.8 1.3-1 1.2-.4 2-.4c.6 0 1.3.1 1.8.4a3 3 0 0 1 1.3 1 2.6 2.6 0 0 1 .5 1.5h-1.8zm8.4 4.2v-4.4h1.8V60h-1.8v-1.4c-.2.5-.5.8-1 1s-.8.5-1.4.5c-.5 0-1-.1-1.3-.3s-.7-.6-.9-1-.3-1-.3-1.6v-4.8h1.8v4.5c0 .5.1 1 .4 1.2s.6.4 1 .4c.3 0 .5 0 .8-.2a1.6 1.6 0 0 0 .6-.5c.2-.3.3-.6.3-1zm3.6 3.2v-7.6h1.7v1.3h.1c.2-.5.4-.8.8-1s.8-.4 1.3-.4 1 0 1.3.3l.8 1c.2-.4.5-.7 1-1s.8-.3 1.4-.3c.7 0 1.2.2 1.7.6s.6 1.1.6 2V60h-1.8v-4.8c0-.5 0-.9-.3-1s-.6-.4-1-.4-.7.1-1 .4-.3.6-.3 1V60h-1.8v-5c0-.3-.1-.6-.4-.9s-.5-.3-.9-.3c-.3 0-.5 0-.7.2a1.4 1.4 0 0 0-.5.5l-.2.9V60h-1.8zm12.6 0v-7.6h1.7v1.3c.2-.5.5-.8.9-1s.8-.4 1.3-.4 1 0 1.3.3.6.6.7 1h.1c.2-.4.5-.7.9-1s.9-.3 1.4-.3c.7 0 1.3.2 1.7.6s.7 1.1.7 2V60H546v-4.8c0-.5-.1-.9-.4-1s-.5-.4-.9-.4-.8.1-1 .4-.4.6-.4 1V60h-1.7v-5c0-.3-.2-.6-.4-.9s-.5-.3-1-.3a1.3 1.3 0 0 0-.6.2 1.4 1.4 0 0 0-.5.5c-.2.3-.2.5-.2.9V60H537zm16 .1a4 4 0 0 1-2-.4 3.2 3.2 0 0 1-1.3-1.4 4.6 4.6 0 0 1 0-4.2 3.4 3.4 0 0 1 3.1-1.8c.5 0 1 0 1.4.2l1 .7c.4.3.6.7.8 1.2s.3 1 .3 1.7v.6H550v-1.2h4.6c0-.4 0-.7-.2-1l-.7-.6c-.3-.2-.5-.2-.9-.2a1.8 1.8 0 0 0-1 .2 1.9 1.9 0 0 0-.6.7 2 2 0 0 0-.2 1v1c0 .5 0 .9.2 1.2a1.7 1.7 0 0 0 .7.7c.3.2.6.2 1 .2a2.2 2.2 0 0 0 .7 0 1.6 1.6 0 0 0 .6-.4 1.4 1.4 0 0 0 .4-.5l1.6.2c0 .4-.3.8-.6 1.1s-.6.6-1.1.8-1 .3-1.6.3zm4.8-.1v-7.6h1.8v1.2c.2-.4.4-.7.8-1s.7-.3 1.1-.3h.4a2.2 2.2 0 0 1 .3 0V54l-.4-.1c-.2-.1-.3 0-.4 0-.4 0-.7 0-1 .2a1.6 1.6 0 0 0-.5.6 1.6 1.6 0 0 0-.3.8V60h-1.8zm16-7-.4-.7a2.2 2.2 0 0 0-.5-.5 2 2 0 0 0-.7-.3 2.8 2.8 0 0 0-2.3.2c-.4.3-.8.7-1 1.3s-.4 1.1-.4 1.9c0 .8.2 1.4.4 2s.6.9 1 1.2 1 .4 1.5.4 1-.1 1.3-.3l1-.9c.3-.4.2-.8.2-1.3l.5.1h-2.8v-1.4h4.1v1.2c0 .9-.2 1.6-.5 2.3s-1 1-1.6 1.4-1.4.5-2.2.5c-1 0-1.8-.2-2.5-.6a4.4 4.4 0 0 1-1.6-1.8 6 6 0 0 1-.6-2.8c0-.8 0-1.5.3-2.2s.6-1.2 1-1.6 1-.8 1.5-1a5.2 5.2 0 0 1 3.4-.2c.5.2 1 .4 1.3.7a3.9 3.9 0 0 1 1 1.1c.2.4.4.9.4 1.4h-1.8zm7 7.1c-.8 0-1.4-.1-2-.4s-1-.8-1.3-1.4-.4-1.3-.4-2 .1-1.6.4-2.2.8-1 1.3-1.3 1.2-.5 2-.5 1.3.1 1.9.5 1 .7 1.3 1.3.4 1.3.4 2.1-.1 1.5-.4 2-.8 1.1-1.3 1.5-1.2.4-2 .4zm0-1.4c.4 0 .7-.1 1-.3s.5-.6.6-1l.2-1.2c0-.5 0-.9-.2-1.3l-.6-.9c-.3-.3-.6-.3-1-.3-.5 0-.8.1-1 .3l-.7 1a3.8 3.8 0 0 0-.2 1.2c0 .5 0 .9.2 1.3l.6.9c.2.3.6.3 1 .3zm11.7-6.3-2.7 7.6h-2l-2.7-7.6h1.9l1.7 5.6h.1l1.8-5.6h1.9zm4.4 7.7a4 4 0 0 1-2-.4 3.2 3.2 0 0 1-1.3-1.4c-.3-.6-.4-1.3-.4-2 0-.9.1-1.5.4-2.1a3.4 3.4 0 0 1 1.3-1.4c.5-.4 1.1-.5 1.9-.5.4 0 .9 0 1.3.2l1.1.7c.3.3.6.7.8 1.2s.3 1 .3 1.7v.6H594v-1.2h4.5c0-.4 0-.7-.2-1l-.6-.6c-.3-.2-.6-.2-.9-.2a1.8 1.8 0 0 0-1 .2c-.2.2-.5.4-.6.7l-.3 1v1c0 .5.1.9.3 1.2l.7.7c.3.2.6.2 1 .2h.7a1.6 1.6 0 0 0 .6-.4 1.4 1.4 0 0 0 .3-.5l1.7.2c-.1.4-.3.8-.6 1.1s-.7.6-1.2.8-1 .2-1.5.2zm4.9-.1v-7.6h1.7v1.2h.1l.7-1 1.2-.3h.3a2.2 2.2 0 0 1 .3 0V54l-.3-.1h-.5c-.3 0-.6 0-.9.2a1.6 1.6 0 0 0-.6.6 1.6 1.6 0 0 0-.2.8V60h-1.8zm7.3-4.5V60h-1.8v-7.6h1.8v1.3c.2-.5.5-.8.9-1s.9-.4 1.4-.4c.6 0 1 0 1.4.3l1 1c.3.4.2 1 .2 1.5V60h-1.8v-4.6c0-.5 0-.9-.4-1.2s-.6-.4-1-.4a1.7 1.7 0 0 0-.9.2l-.6.6c-.2.3-.2.6-.2 1zm9 4.7a3.2 3.2 0 0 1-1.3-.3 2.1 2.1 0 0 1-1-.8c-.2-.3-.3-.7-.3-1.2s0-.8.2-1.1l.7-.7 1-.4 1-.2h1.1l.6-.3.2-.4c0-.4-.1-.6-.3-.9s-.6-.3-1-.3-.8.1-1 .3l-.6.7-1.6-.2a2.7 2.7 0 0 1 1.7-1.9 4.4 4.4 0 0 1 2.6-.1 3 3 0 0 1 1 .4l.7.8c.2.3.3.8.3 1.3V60h-1.7v-1a2.2 2.2 0 0 1-.6.5c-.1.2-.4.4-.7.5a3 3 0 0 1-1 .2zm.4-1.4c.4 0 .7 0 1-.2a1.6 1.6 0 0 0 .6-.6l.2-.7v-1c0 .1-.1.2-.3.2a4 4 0 0 1-.4 0l-.5.2h-.4a3.1 3.1 0 0 0-.8.2 1.2 1.2 0 0 0-.5.4l-.2.5c0 .4.2.6.4.8s.6.2 1 .2zm7.2-3.3V60H624v-7.6h1.7v1.3h.1a2.2 2.2 0 0 1 .9-1c.3-.3.8-.4 1.4-.4.5 0 1 0 1.4.3s.7.6.9 1 .3 1 .3 1.5V60h-1.8v-4.6c0-.5-.1-.9-.4-1.2-.2-.3-.6-.4-1-.4s-.7 0-1 .2l-.5.6c-.2.3-.2.6-.2 1zm10 4.7c-.7 0-1.3-.2-1.9-.6a3.4 3.4 0 0 1-1.3-1.3c-.2-.6-.4-1.3-.4-2s.2-1.5.5-2.1a3.3 3.3 0 0 1 1.2-1.4c.6-.4 1.2-.5 2-.5.6 0 1.1 0 1.6.3s.9.6 1.2 1a2.8 2.8 0 0 1 .4 1.4h-1.7a1.6 1.6 0 0 0-.5-1c-.2-.2-.6-.3-1-.3s-.7.1-1 .3a1.9 1.9 0 0 0-.6.9 3.5 3.5 0 0 0 0 2.7c.1.3.3.6.6.8a1.6 1.6 0 0 0 1 .3c.2 0 .5 0 .7-.2l.5-.4c.1-.2.3-.4.3-.7h1.7a3 3 0 0 1-.4 1.4c-.3.4-.7.8-1.2 1s-1 .3-1.6.3zm8.2 0a4 4 0 0 1-2-.5 3.2 3.2 0 0 1-1.3-1.4c-.3-.6-.4-1.3-.4-2 0-.9.1-1.5.4-2.1s.8-1.1 1.3-1.4 1.2-.5 2-.5c.4 0 .8 0 1.2.2l1.2.7c.4.3.5.7.7 1.2s.3 1 .3 1.7v.6H641v-1.2h4.6c0-.4-.1-.7-.3-1l-.6-.6c-.3-.2-.5-.2-.9-.2-.3 0-.7 0-1 .2l-.6.7c-.2.3-.2.6-.2 1v1c0 .5 0 .9.2 1.2l.7.7c.3.2.6.2 1 .2h.7a1.6 1.6 0 0 0 .6-.4 1.4 1.4 0 0 0 .3-.5l1.7.2a2.6 2.6 0 0 1-.6 1.1l-1.1.8c-.4.2-1 .3-1.6.3z" class="B"/><path d="M684.5 55a23 23 0 0 1 23-23h86a23 23 0 0 1 0 46h-86a23 23 0 0 1-23-23z" class="C"/><path d="M709.5 60V49.8h3.8c.8 0 1.5.2 2 .4s1 .7 1.2 1.2.4 1 .4 1.7-.1 1.2-.4 1.7-.7.8-1.2 1-1.2.5-2 .5h-2.7v-1.6h2.4l1.2-.1c.3-.1.5-.4.6-.6l.2-1c0-.3 0-.6-.2-.9l-.6-.5-1.2-.2h-1.7V60h-1.8zm5.3-4.6 2.5 4.6h-2l-2.5-4.6h2zm3.7 4.6v-7.6h1.8V60h-1.8zm1-8.7a1 1 0 0 1-.8-.3c-.2-.2-.3-.4-.3-.7s0-.5.3-.7a1 1 0 0 1 .7-.3 1 1 0 0 1 .8.3c.2.2.3.4.3.7s-.1.5-.3.7a1 1 0 0 1-.8.3zm8.7 3-1.6.3a1.3 1.3 0 0 0-.3-.5c0-.2-.2-.3-.4-.4h-.7c-.4 0-.7 0-1 .2s-.4.3-.3.6a.7.7 0 0 0 .2.5l.8.4 1.3.2c.8.2 1.3.4 1.6.8s.6.8.6 1.3-.2 1-.4 1.3-.7.6-1.2.8-1 .3-1.7.3c-1 0-1.7-.1-2.2-.5s-1-1-1-1.7l1.7-.2c0 .4.2.7.5.8s.6.3 1 .3.8-.1 1-.3.4-.4.4-.6a.7.7 0 0 0-.2-.6l-.8-.3-1.3-.3c-.7-.1-1.3-.4-1.6-.7s-.5-.9-.5-1.4c0-.5 0-.9.3-1.2s.7-.7 1.1-.8 1-.3 1.6-.3c1 0 1.6.2 2.2.5s.8 1 1 1.6zm3.3 3.3v-2.2h.3l2.7-3h2.1l-3.3 3.7h-.4l-1.4 1.5zm-1.6 2.4V49.8h1.8V60h-1.8zm4.8 0-2.5-3.5 1.2-1.2 3.4 4.7h-2.1zm15.4-6.7h-1.9l-.2-.9a2.2 2.2 0 0 0-.6-.6c-.2-.1-.4-.3-.7-.3l-.9-.2a2.6 2.6 0 0 0-2.5 1.7c-.2.5-.3 1.1-.3 2 0 .7.1 1.3.3 1.9s.6 1 1 1.2 1 .4 1.5.4a3 3 0 0 0 .9-.1l.7-.4a2.1 2.1 0 0 0 .5-.6 2.2 2.2 0 0 0 .3-.8h1.9a4 4 0 0 1-.4 1.4 4 4 0 0 1-1 1.1 4.1 4.1 0 0 1-1.3.8c-.4.2-1 .2-1.6.2a4.3 4.3 0 0 1-4-2.4c-.5-.8-.7-1.7-.7-2.8s.2-2 .6-2.8 1-1.4 1.7-1.8 1.5-.6 2.4-.6c.6 0 1 0 1.6.2a4 4 0 0 1 1.3.7l1 1.1.4 1.6zm6.5 3.5v-4.4h1.8V60h-1.8v-1.4c-.2.5-.5.8-.9 1s-.9.5-1.4.5c-.5 0-1-.1-1.4-.3s-.7-.6-.9-1-.3-1-.3-1.6v-4.8h1.8v4.5c0 .5.1 1 .4 1.2s.6.4 1 .4c.3 0 .6 0 .8-.2a1.6 1.6 0 0 0 .6-.5c.2-.3.3-.6.3-1zm3.6 3.2v-7.6h1.8v1.2c.2-.4.4-.7.8-1a2 2 0 0 1 1.1-.3h.7V54a2 2 0 0 0-.4-.1 3.4 3.4 0 0 0-.5 0c-.3 0-.6 0-.8.2l-.6.6a1.6 1.6 0 0 0-.3.8V60h-1.8zm7.6.2a3.2 3.2 0 0 1-1.3-.3c-.4-.2-.7-.4-.9-.8s-.3-.7-.3-1.2 0-.8.2-1.1l.7-.7 1-.4a7.6 7.6 0 0 1 1-.2h1l.7-.3a.4.4 0 0 0 .2-.4c0-.4-.1-.6-.4-.9s-.5-.3-1-.3c-.4 0-.7.1-1 .3s-.4.4-.5.7l-1.7-.2a2.7 2.7 0 0 1 1.8-1.9 4.4 4.4 0 0 1 2.6-.1c.3 0 .7.2 1 .4a2.1 2.1 0 0 1 .7.8c.2.4.3.8.3 1.3V60H770v-1a2.2 2.2 0 0 1-1.2 1 3 3 0 0 1-1 .2zm.5-1.4c.4 0 .7 0 1-.2l.6-.6c.2-.3.2-.5.2-.7v-1a.8.8 0 0 1-.3.2h-.5l-.4.2h-.5l-.7.2-.5.4-.2.5c0 .4.1.6.4.8s.5.2 1 .2zm9.2-6.4v1.4h-4.4v-1.4h4.4zm-3.3-1.9h1.8v7.2l.1.6c.1.2.2.2.3.2h.4a1.8 1.8 0 0 0 .3 0h.2l.3 1.4a4 4 0 0 1-.4.1 3.4 3.4 0 0 1-1.8-.1 1.9 1.9 0 0 1-1.2-1.9v-7.5zm8 9.7c-.7 0-1.3-.2-1.9-.5s-1-.8-1.3-1.4-.4-1.3-.4-2 .1-1.6.4-2.2.8-1 1.3-1.3 1.2-.5 2-.5 1.3.1 1.9.5 1 .7 1.3 1.3.4 1.3.4 2.1-.1 1.5-.4 2-.8 1.1-1.3 1.5-1.2.5-2 .5zm0-1.5c.5 0 .8-.1 1-.3a2 2 0 0 0 .7-1l.2-1.2c0-.5 0-.9-.2-1.3l-.6-.9c-.2-.3-.6-.3-1-.3-.5 0-.8.1-1 .3l-.7 1a5 5 0 0 0-.2 1.2 3.8 3.8 0 0 0 .2 1.3l.6.9c.2.2.6.3 1 .3zm5.2 1.3v-7.6h1.8v1.2c.2-.4.4-.7.8-1a2 2 0 0 1 1.1-.3h.7V54a2 2 0 0 0-.4-.1 3.4 3.4 0 0 0-.4 0c-.4 0-.7 0-1 .2l-.5.6a1.6 1.6 0 0 0-.3.8V60h-1.8z" class="B"/><path fill="url(#A)" d="M334 271a7.5 7.5 0 0 1 7.5-7.5h283a7.5 7.5 0 0 1 7.5 7.5v52a7.5 7.5 0 0 1-7.5 7.5h-283a7.5 7.5 0 0 1-7.5-7.5v-52z"/><path stroke="url(#B)" d="M334 271c0-4.1 3.4-7.5 7.5-7.5h283c4.1 0 7.5 3.4 7.5 7.5v52c0 4.1-3.4 7.5-7.5 7.5h-283a7.5 7.5 0 0 1-7.5-7.5v-52Z"/><path d="M360.2 291h-2l3.7-10.2h2.2l3.6 10.2h-2l-2.7-8-2.8 8zm.1-4h5.4v1.5h-5.4V287zm10.6-6.2V291h-1.8v-10.2h1.8zm6.8 10.2h-2l3.6-10.2h2.3l3.6 10.2h-2l-2.7-8h-.1l-2.7 8zm0-4h5.4v1.5h-5.4V287zm11.8 7c-.6 0-1.2 0-1.7-.2l-1-.7a2.4 2.4 0 0 1-.7-1l1.7-.4.3.4.5.4 1 .2c.5 0 .9-.2 1.2-.4s.5-.7.5-1.2v-1.5l-.5.6a2.3 2.3 0 0 1-1.8.7 3.1 3.1 0 0 1-1.6-.4c-.4-.3-.8-.7-1.1-1.3s-.4-1.2-.4-2c0-.9.1-1.6.4-2.2s.7-1 1.1-1.3a3 3 0 0 1 1.6-.4c.5 0 .8 0 1.1.2a2.1 2.1 0 0 1 .7.5 3 3 0 0 1 .4.6h.1v-1.2h1.8v7.7c0 .7-.2 1.2-.5 1.6s-.7.8-1.2 1-1.2.3-1.9.3zm0-4.5c.4 0 .7-.1 1-.3s.5-.5.6-.8l.2-1.3c0-.4 0-.9-.2-1.2s-.3-.7-.6-.9-.6-.3-1-.3-.7.1-1 .4l-.6.8c-.2.4-.2.8-.2 1.2 0 .5 0 1 .2 1.3a1.8 1.8 0 0 0 .6.8c.3.2.6.3 1 .3zm8.8 1.6c-.7 0-1.4-.1-2-.4s-1-.8-1.2-1.4-.5-1.3-.5-2c0-.9.2-1.5.5-2.1s.7-1.1 1.2-1.4 1.2-.5 2-.5c.4 0 .8 0 1.3.2l1 .7s.7.7.8 1.2c.2.3.3 1 .3 1.7v.6h-6.2v-1.2h4.5c0-.4 0-.7-.2-1l-.6-.6c-.2-.2-.6-.2-1-.2a1.8 1.8 0 0 0-1 .2l-.6.7a2 2 0 0 0-.2 1v1c0 .5 0 .9.2 1.2l.7.7c.3.2.7.2 1 .2h.8c.3 0 .4-.2.5-.4l.4-.5 1.6.2a2.6 2.6 0 0 1-.6 1.1c-.3.3-.6.6-1.1.8s-1 .2-1.6.2zm6.7-4.6v4.5h-1.8v-7.6h1.8v1.3c.2-.5.5-.8.9-1s.9-.4 1.4-.4c.6 0 1 0 1.4.3l1 1c.3.4.2 1 .2 1.5v4.9h-1.8v-4.6c0-.5 0-.9-.4-1.2s-.6-.4-1-.4-.6 0-.9.2l-.6.6c-.2.3-.2.6-.2 1zm10.6-3.1v1.4h-4.4v-1.4h4.4zm-3.3-1.9h1.8v7.8c0 .2.3.2.4.2a1.1 1.1 0 0 0 .4 0h.5l.3 1.4a3.8 3.8 0 0 1-1 .2 3 3 0 0 1-1.3-.2 1.9 1.9 0 0 1-.8-.7c-.2-.3-.3-.7-.3-1.2v-7.5zm8.3 9.5v-10.2h1.9v4.7h.1l4-4.7h2.2l-3.9 4.6 4 5.6h-2.2l-3-4.4-1.2 1.4v3h-1.9zm12.3.1c-.8 0-1.5-.1-2-.4s-1-.8-1.3-1.4-.5-1.3-.5-2c0-.9.2-1.5.5-2.1s.7-1.1 1.3-1.4 1.1-.5 1.9-.5c.4 0 .9 0 1.3.2l1.1.7c.3.3.6.7.8 1.2s.3 1 .3 1.7v.6H430v-1.2h4.5c0-.4 0-.7-.2-1l-.6-.6c-.3-.2-.6-.2-1-.2-.3 0-.6 0-.9.2l-.6.7a2 2 0 0 0-.3 1v1c0 .5.1.9.3 1.2l.7.7c.3.2.6.2 1 .2h.7c.2 0 .4-.2.5-.4l.4-.5 1.7.2a2.6 2.6 0 0 1-.6 1.1c-.3.3-.7.6-1.2.8s-1 .2-1.5.2zm8.3 0c-.8 0-1.5-.1-2-.4s-1-.8-1.3-1.4-.5-1.3-.5-2c0-.9.2-1.5.5-2.1s.7-1.1 1.3-1.4 1.1-.5 1.9-.5c.4 0 .9 0 1.3.2l1.1.7c.3.3.6.7.8 1.2s.3 1 .3 1.7v.6h-6.3v-1.2h4.5c0-.4 0-.7-.2-1l-.6-.6c-.3-.2-.6-.2-1-.2a1.8 1.8 0 0 0-.9.2c-.3.2-.5.4-.6.7a2 2 0 0 0-.3 1v1c0 .5.1.9.3 1.2l.7.7c.3.2.6.2 1 .2h.7c.2 0 .4-.2.5-.4l.4-.5 1.7.2a2.6 2.6 0 0 1-.6 1.1c-.3.3-.7.6-1.2.8s-1 .2-1.5.2zm4.9 2.8v-10.5h1.7v1.2h.1l.4-.6c.1-.2.4-.4.7-.5l1.1-.2a3 3 0 0 1 2.8 1.7c.2.6.4 1.3.4 2.2 0 .8-.2 1.5-.4 2.1s-.7 1-1.2 1.4-1 .4-1.6.4c-.4 0-.8 0-1-.2l-.7-.5-.5-.6v4H446zm1.7-6.7.2 1.3c.1.3.4.6.7.8s.6.4 1 .4c.3 0 .7-.1 1-.4l.5-.8a3.7 3.7 0 0 0 .2-1.3c0-.5 0-1-.2-1.3s-.3-.6-.6-.8-.6-.4-1-.4-.7.1-1 .3-.4.5-.6.9-.2.8-.2 1.3zm10.4 4c-.8 0-1.4-.2-2-.5s-1-.8-1.3-1.4-.4-1.3-.4-2c0-.9.1-1.5.4-2.1s.8-1.1 1.3-1.4 1.2-.5 2-.5c.4 0 .8 0 1.2.2a3 3 0 0 1 1.2.7c.3.3.5.7.7 1.2s.3 1 .3 1.7v.6h-6.3v-1.2h4.6l-.2-1c-.1-.3-.4-.4-.7-.6s-.5-.2-.9-.2a1.8 1.8 0 0 0-1 .2 1.8 1.8 0 0 0-.6.7 2 2 0 0 0-.2 1v1c0 .5 0 .9.2 1.2a1.7 1.7 0 0 0 .7.7c.3.2.6.2 1 .2a2.2 2.2 0 0 0 .7 0 1.6 1.6 0 0 0 .6-.4c.1-.1.3-.3.3-.5l1.7.2a2.6 2.6 0 0 1-.6 1.1 3 3 0 0 1-1.1.8c-.5.2-1 .2-1.6.2zm5-.2v-7.6h1.7v1.2a2 2 0 0 1 2-1.3h.6v1.7a1.9 1.9 0 0 0-.4-.1h-.5c-.3 0-.6 0-.8.2l-.7.6c-.2.3-.2.5-.2.8v4.5h-1.8zm17.4-10.2V291H479l-4.8-7h-.1v7h-1.9v-10.2h1.7l4.8 7v-7h1.9zm5.3 10.3c-.8 0-1.4-.1-2-.4s-1-.8-1.3-1.4-.4-1.3-.4-2c0-.9.1-1.5.4-2.1s.8-1.1 1.3-1.4 1.2-.5 2-.5c.4 0 .8 0 1.2.2l1.2.7c.4.3.5.7.7 1.2s.3 1 .3 1.7v.6H483v-1.2h4.6l-.2-1c-.1-.3-.4-.4-.7-.6s-.5-.2-.9-.2c-.3 0-.7 0-1 .2l-.6.7a2 2 0 0 0-.2 1v1c0 .5 0 .9.2 1.2l.7.7c.3.2.6.2 1 .2h.7c.2 0 .4-.2.6-.4l.3-.5 1.7.2a2.6 2.6 0 0 1-.6 1.1l-1.1.8c-.4.2-1 .2-1.6.2zm8.7-7.7v1.4h-4.4v-1.4h4.4zm-3.3-1.9h1.8v7.2l.1.6a.6.6 0 0 0 .3.2h1l.3 1.4a3.9 3.9 0 0 1-.4.1l-.7.1c-.4 0-.8 0-1.2-.2s-.7-.4-.9-.7-.3-.7-.3-1.2v-7.5zm6.4 9.5-2.1-7.6h1.8l1.3 5.3h.1l1.4-5.3h1.8l1.4 5.3 1.4-5.3h1.8l-2.2 7.6h-1.8l-1.5-5.2-1.5 5.2h-1.9zm13.3.1c-.8 0-1.4-.1-2-.4s-1-.8-1.2-1.4-.5-1.3-.5-2 .2-1.6.5-2.2.7-1 1.2-1.3 1.2-.5 2-.5 1.4.1 2 .5.9.7 1.2 1.3.4 1.3.4 2.1-.1 1.5-.4 2-.7 1.1-1.3 1.5-1.2.4-2 .4zm0-1.4c.4 0 .7-.1 1-.3s.5-.6.6-1a3.7 3.7 0 0 0 .2-1.2c0-.5 0-.9-.2-1.3l-.6-.9c-.3-.3-.6-.3-1-.3s-.8.1-1 .3l-.7 1a3.8 3.8 0 0 0-.2 1.2l.2 1.3c.1.4.4.6.6.9s.7.3 1 .3zm5.2 1.3v-7.6h1.7v1.2a2 2 0 0 1 2-1.3h.6v1.7a1.9 1.9 0 0 0-.4-.1h-.4c-.4 0-.6 0-1 .2a1.6 1.6 0 0 0-.5.6c-.2.2-.2.5-.2.8v4.5h-1.8zm7.1-2.4v-2.2h.3l2.8-3h2l-3.3 3.7h-.4l-1.4 1.5zm-1.6 2.4v-10.2h1.8V291h-1.8zm4.8 0-2.5-3.5 1.2-1.2 3.5 4.7h-2.2zm15.4-6.7h-1.8a2.3 2.3 0 0 0-.8-1.5c-.3-.1-.5-.3-.8-.3a2.8 2.8 0 0 0-.8-.2c-.6 0-1 .2-1.5.5s-.8.6-1 1.2-.4 1.1-.4 2c0 .7.1 1.3.4 1.9s.6 1 1 1.2 1 .4 1.5.4l.8-.1a2.3 2.3 0 0 0 .7-.4 2.1 2.1 0 0 0 .6-.6 2.2 2.2 0 0 0 .3-.8h1.8a4 4 0 0 1-.4 1.4 4 4 0 0 1-1 1.1c-.3.3-.7.6-1.2.8s-1 .2-1.7.2a4.3 4.3 0 0 1-4-2.4c-.4-.8-.6-1.7-.6-2.8s.2-2 .6-2.8 1-1.4 1.6-1.8 1.5-.6 2.4-.6c.6 0 1.1 0 1.6.2a4 4 0 0 1 1.3.7 3.7 3.7 0 0 1 1 1.1 4.2 4.2 0 0 1 .4 1.6zm5 6.8c-.8 0-1.4-.1-2-.4s-1-.8-1.2-1.4-.5-1.3-.5-2 .2-1.6.5-2.2.7-1 1.2-1.3 1.2-.5 2-.5 1.4.1 2 .5.9.7 1.2 1.3.4 1.3.4 2.1-.1 1.5-.4 2-.7 1.1-1.3 1.5-1.2.4-2 .4zm0-1.4c.4 0 .7-.1 1-.3s.5-.6.6-1a3.7 3.7 0 0 0 .2-1.2c0-.5 0-.9-.2-1.3l-.6-.9c-.3-.3-.6-.3-1-.3s-.8.1-1 .3l-.6 1a3.8 3.8 0 0 0-.2 1.2c0 .5 0 .9.2 1.3l.6.9c.3.3.6.3 1 .3zm7-3.2v4.5H552v-7.6h1.7v1.3c.3-.5.5-.8 1-1s.8-.4 1.4-.4c.5 0 1 0 1.3.3l1 1c.3.4.3 1 .3 1.5v4.9H557v-4.6c0-.5-.2-.9-.4-1.2s-.6-.4-1.1-.4c-.3 0-.6 0-.9.2a1.4 1.4 0 0 0-.5.6 2 2 0 0 0-.2 1zm12.7-1.1-1.6.2a1.3 1.3 0 0 0-.7-.9h-.7l-1 .1c-.3.1-.3.4-.3.7a.7.7 0 0 0 .2.5c.2.2.5.3.9.4l1.3.2c.7.2 1.2.4 1.6.8s.5.8.5 1.3a2 2 0 0 1-.4 1.3c-.3.3-.7.6-1.2.8s-1 .3-1.7.3c-.9 0-1.6-.1-2.2-.5s-1-1-1-1.7l1.7-.2c.1.4.3.7.5.8s.6.3 1 .3c.5 0 .8-.1 1-.3s.5-.4.5-.6a.7.7 0 0 0-.3-.6l-.8-.3-1.3-.3c-.7-.1-1.2-.4-1.6-.7s-.5-.9-.5-1.4c0-.5.1-.9.4-1.2s.6-.7 1-.8 1-.3 1.7-.3c.9 0 1.6.2 2 .5s1 1 1 1.6zm5 5.7c-.7 0-1.4-.1-2-.4s-.9-.8-1.2-1.4-.4-1.3-.4-2c0-.9.1-1.5.4-2.1s.7-1.1 1.3-1.4 1.1-.5 1.9-.5c.4 0 .9 0 1.3.2a3 3 0 0 1 1.1.7c.3.3.6.7.8 1.2s.3 1 .3 1.7v.6h-6.3v-1.2h4.5c0-.4 0-.7-.2-1a1.6 1.6 0 0 0-.6-.6c-.3-.2-.6-.2-.9-.2a1.8 1.8 0 0 0-1 .2 1.8 1.8 0 0 0-.6.7 2 2 0 0 0-.3 1v1c0 .5.1.9.3 1.2l.7.7c.3.2.6.2 1 .2h.7c.2 0 .4-.2.6-.4l.3-.5 1.7.2a2.6 2.6 0 0 1-.6 1.1 3 3 0 0 1-1.2.8c-.4.2-1 .2-1.5.2zm6.8-4.6v4.5h-1.8v-7.6h1.7v1.3h.1c.2-.5.5-.8.8-1s.9-.4 1.5-.4c.5 0 1 0 1.4.3l.9 1c.3.4.3 1 .3 1.5v4.9h-1.8v-4.6c0-.5-.1-.9-.4-1.2s-.6-.4-1.1-.4c-.3 0-.6 0-.8.2a1.4 1.4 0 0 0-.6.6 2 2 0 0 0-.2 1zm12.8-1.1-1.7.2a1.3 1.3 0 0 0-.2-.5l-.5-.4h-.7l-1 .1a1 1 0 0 0-.3.7c0 .2 0 .4.2.5l.9.4 1.3.2c.7.2 1.2.4 1.6.8s.5.8.5 1.3-.1 1-.4 1.3-.7.6-1.2.8-1 .3-1.6.3c-1 0-1.7-.1-2.3-.5s-1-1-1-1.7l1.7-.2c.1.4.3.7.5.8s.6.3 1 .3c.5 0 .8-.1 1-.3s.5-.4.5-.6a.7.7 0 0 0-.3-.6l-.8-.3-1.3-.3c-.7-.1-1.2-.4-1.6-.7s-.5-.9-.5-1.4c0-.5.1-.9.4-1.2s.6-.7 1-.8 1-.3 1.7-.3c.9 0 1.6.2 2 .5s1 1 1 1.6zm6.5 2.4v-4.4h1.8v7.6h-1.8v-1.4a2.3 2.3 0 0 1-1 1c-.3.4-.8.5-1.4.5-.5 0-.9-.1-1.3-.3s-.7-.6-.9-1-.3-1-.3-1.6v-4.8h1.8v4.5c0 .5.1 1 .4 1.2s.6.4 1 .4c.3 0 .6 0 .8-.2l.6-.5c.1-.2.3-.6.3-1zm9.7-2.4-1.7.2-.2-.5a1.2 1.2 0 0 0-.5-.4h-.7l-1 .1c-.2.1-.3.4-.3.7 0 .2 0 .4.2.5l.9.4 1.3.2c.7.2 1.2.4 1.6.8s.5.8.5 1.3a2 2 0 0 1-.4 1.3c-.3.3-.7.6-1.2.8s-1 .3-1.6.3c-1 0-1.7-.1-2.3-.5s-1-1-1-1.7l1.7-.2c.1.4.3.7.5.8s.6.3 1 .3c.5 0 .8-.1 1-.3s.5-.4.5-.6a.7.7 0 0 0-.3-.6l-.8-.3-1.3-.3c-.7-.1-1.2-.4-1.6-.7s-.5-.9-.5-1.4c0-.5.1-.9.4-1.2s.6-.7 1-.8 1-.3 1.7-.3c.9 0 1.6.2 2 .5s1 1 1 1.6zm-161 23.2c0-1 .1-2 .4-2.9a8.5 8.5 0 0 1 1.3-2.5h1.4l-.6 1a9.3 9.3 0 0 0-.5 1.4l-.3 1.5a10.5 10.5 0 0 0-.1 1.5 10.8 10.8 0 0 0 .2 2l.5 2c.2.6.5 1 .8 1.4h-1.4a8.5 8.5 0 0 1-1.7-5.4zm6.2 4.4-2.5-8.7h1.7l1.6 6.4h.1l1.7-6.4h1.5l1.7 6.4 1.7-6.4h1.7l-2.5 8.7h-1.6l-1.7-6.1-1.8 6.1h-1.6zm11.7-3.8v3.8h-1.5v-8.7h1.5v3.3a1.9 1.9 0 0 1 .8-1l1.2-.2c.5 0 .9 0 1.2.3s.6.4.8.8.3.8.3 1.3v4.2H467v-4c0-.4 0-.7-.3-1s-.5-.3-1-.3c-.2 0-.5 0-.7.2l-.5.5-.2.8zm5.8 3.8v-6.5h1.6v6.5H470zm.8-7.5a.9.9 0 0 1-.6-.2l-.3-.6.3-.6a.9.9 0 0 1 .6-.2.9.9 0 0 1 .7.2.8.8 0 0 1 .2.6c0 .2 0 .4-.2.6s-.4.2-.7.2zm5.6 1v1.1h-3.7v-1.1h3.7zm-2.8-1.6h1.6v6.6a.5.5 0 0 0 .3.2 1 1 0 0 0 .4 0h.4l.3 1.2-.4.1h-1.5a1.6 1.6 0 0 1-.8-.7c-.2-.3-.3-.6-.3-1v-6.4zm7 8.2c-.7 0-1.3-.1-1.7-.4s-.9-.6-1.1-1.1-.4-1.2-.4-1.8c0-.7.1-1.3.4-1.8s.6-1 1-1.2 1-.4 1.7-.4a3.3 3.3 0 0 1 1.1.2c.4 0 .7.3 1 .6l.6 1c.1.4.3.9.3 1.5v.4h-5.4v-1h3.9a1.7 1.7 0 0 0-.2-.8 1.4 1.4 0 0 0-.5-.5 1.5 1.5 0 0 0-.8-.2c-.3 0-.6 0-.8.2a1.6 1.6 0 0 0-.6.6l-.2.8v1c0 .3 0 .6.2.9a1.5 1.5 0 0 0 .6.6c.3.2.5.2.9.2h.6a1.4 1.4 0 0 0 .5-.4 1.2 1.2 0 0 0 .3-.4l1.4.1a2.3 2.3 0 0 1-.5 1l-1 .7a3 3 0 0 1-1.3.2zm5.7-8.8v8.7H485v-8.7h1.5zm1.6 8.7v-6.5h1.5v6.5H488zm.8-7.5a.9.9 0 0 1-.7-.2l-.2-.6c0-.2 0-.4.3-.6l.6-.2c.3 0 .4 0 .6.2l.3.6-.3.6a.9.9 0 0 1-.6.2zm7.5 2.7-1.4.1-.2-.4a1 1 0 0 0-.4-.3h-.6l-.8.1c-.2.1-.3.3-.3.6 0 .2 0 .3.2.4l.7.3 1.1.3c.6.1 1 .3 1.4.6s.4.7.4 1.1a1.8 1.8 0 0 1-.3 1.1l-1 .8c-.4.2-.9.2-1.4.2-.8 0-1.5-.1-2-.5s-.8-.8-.9-1.4l1.5-.1a1 1 0 0 0 .5.6c.2.2.5.3.8.3.4 0 .7-.1 1-.3s.3-.3.3-.5a.6.6 0 0 0-.3-.5l-.6-.3-1.1-.2c-.7-.1-1.1-.4-1.4-.7s-.5-.7-.5-1.1c0-.4.1-.8.4-1s.5-.6.9-.8.9-.2 1.4-.2c.7 0 1.3.1 1.8.5s.7.7.8 1.3zm4.7-1.7v1.1h-3.8v-1.1h3.8zm-2.8-1.6h1.5v6.6l.3.2h.4a1.4 1.4 0 0 0 .3 0h.1l.3 1.2-.3.1h-1.6c-.3 0-.6-.4-.8-.7s-.2-.6-.2-1v-6.4zm7 8.2c-.7 0-1.3-.1-1.8-.4s-.8-.6-1-1.1-.5-1.2-.5-1.8c0-.7.2-1.3.4-1.8s.6-1 1-1.2 1.1-.4 1.7-.4c.4 0 .8 0 1.2.2l1 .6c.3.3.4.6.6 1s.2.9.2 1.5v.4h-5.3v-1h3.8a1.7 1.7 0 0 0-.2-.8c0-.2-.3-.4-.5-.5l-.8-.2c-.3 0-.5 0-.8.2l-.5.6a2 2 0 0 0-.2.8v1c0 .3 0 .6.2.9a1.5 1.5 0 0 0 .5.6c.3.2.6.2 1 .2h.5a1.3 1.3 0 0 0 .5-.4l.3-.4 1.5.1a2.2 2.2 0 0 1-.6 1c-.2.3-.5.5-1 .7s-.8.2-1.3.2zm6.6 0a2.5 2.5 0 0 1-2.4-1.5 5 5 0 0 1-.3-1.9c0-.7 0-1.3.3-1.8s.6-.9 1-1.1a2.5 2.5 0 0 1 1.4-.4c.3 0 .7 0 .9.2a1.8 1.8 0 0 1 .6.4l.3.5v-3.2h1.6v8.7h-1.5v-1l-.4.5a2 2 0 0 1-.6.4 2 2 0 0 1-1 .2zm.4-1.3c.3 0 .6 0 .8-.2l.5-.8.2-1c0-.5 0-.9-.2-1.2l-.5-.7c-.3-.2-.5-.3-.8-.3-.4 0-.6.1-.9.3s-.4.4-.5.7l-.2 1.1.2 1.1c0 .4.3.6.5.8s.5.2.9.2zm7.4-2.4c0 1.1-.1 2-.4 3s-.7 1.7-1.3 2.5h-1.4l.6-1 .5-1.4c.2-.4.2-1 .3-1.5l.1-1.6a10.5 10.5 0 0 0-1.5-5.4h1.4a8.4 8.4 0 0 1 1.3 2.5c.3.9.4 1.9.4 3z" class="B"/><path d="M420.5 379a23 23 0 0 1 23-23h79a23 23 0 1 1 0 46h-79a23 23 0 0 1-23-23z" class="C"/><path d="M445.5 384v-10.2h3.8c.8 0 1.5.2 2 .4s1 .7 1.2 1.2.4 1 .4 1.7-.1 1.2-.4 1.7-.7.8-1.2 1-1.2.5-2 .5h-2.7v-1.6h2.4l1.2-.1c.3-.1.5-.4.6-.6l.2-1c0-.3 0-.6-.2-.9l-.6-.5-1.2-.2h-1.7v8.6h-1.8zm5.3-4.6 2.5 4.6h-2l-2.5-4.6h2zm7 4.7c-.8 0-1.4-.1-2-.4s-1-.8-1.3-1.4-.4-1.3-.4-2c0-.9.1-1.5.4-2.1s.8-1.1 1.3-1.4 1.2-.5 2-.5c.4 0 .8 0 1.2.2l1.2.7c.4.3.5.7.7 1.2s.3 1 .3 1.7v.6h-6.3v-1.2h4.6c0-.4-.1-.7-.3-1l-.6-.6c-.3-.2-.5-.2-.9-.2-.3 0-.7 0-1 .2l-.6.7c-.2.3-.2.6-.2 1v1c0 .5 0 .9.2 1.2a1.7 1.7 0 0 0 .7.7c.3.2.6.2 1 .2h.7c.2 0 .4-.2.6-.4l.3-.5 1.7.2a2.6 2.6 0 0 1-.6 1.1l-1.1.8c-.4.2-1 .2-1.6.2zm5-.1v-10.2h1.8v3.8l.5-.6.7-.5 1-.2a3 3 0 0 1 2.8 1.7c.3.6.4 1.3.4 2.2 0 .8-.1 1.5-.4 2.1s-.7 1-1.1 1.4-1 .4-1.6.4c-.5 0-.8 0-1.1-.2l-.7-.5-.4-.6h-.1v1.2h-1.8zm1.8-3.8c0 .5 0 1 .2 1.3l.6.8c.3.2.6.4 1 .4s.7-.1 1-.4l.6-.8a3.7 3.7 0 0 0 .2-1.3 3.6 3.6 0 0 0-.2-1.3l-.6-.8a1.6 1.6 0 0 0-2 0c-.3.1-.5.4-.6.8l-.2 1.3zm9.1 4a3 3 0 0 1-1.3-.3 2.1 2.1 0 0 1-.9-.8c-.2-.3-.3-.7-.3-1.2s0-.8.2-1.1a1.9 1.9 0 0 1 .7-.7c.2-.2.6-.3.9-.4l1-.2h1.2l.6-.3c.2 0 .2-.2.2-.4 0-.4-.1-.6-.4-.8s-.5-.4-1-.4c-.4 0-.7.1-1 .3s-.4.4-.5.7l-1.7-.2c.2-.5.4-.9.7-1.2a2.9 2.9 0 0 1 1.1-.7c.4-.2 1-.2 1.5-.2h1c.4 0 .8.3 1 .5l.8.8c.2.3.3.8.3 1.3v5.1H476v-1a2.2 2.2 0 0 1-.5.5l-.7.5-1 .2zm.5-1.4a2 2 0 0 0 1-.2 1.6 1.6 0 0 0 .6-.6l.2-.7v-1a.9.9 0 0 1-.3.2h-.5l-.5.2h-.4l-.7.2-.5.4-.2.5c0 .4.1.6.4.8s.5.2.9.2zm7.2-9V384h-1.8v-10.2h1.8zm4 10.4c-.5 0-.9-.1-1.3-.3s-.7-.4-.9-.8-.3-.7-.3-1.2 0-.8.2-1.1a1.9 1.9 0 0 1 .7-.7 3.3 3.3 0 0 1 .9-.4 7.5 7.5 0 0 1 1-.2h1.2l.6-.3a.4.4 0 0 0 .2-.4c0-.4-.2-.6-.4-.8s-.5-.4-1-.4c-.4 0-.7.1-1 .3s-.4.4-.5.7l-1.7-.2a2.7 2.7 0 0 1 1.8-1.9 4.4 4.4 0 0 1 2.6-.1 3.1 3.1 0 0 1 1 .4 2.1 2.1 0 0 1 .7.8c.2.4.3.8.3 1.3v5.1h-1.8v-1a2.2 2.2 0 0 1-1.2 1 3 3 0 0 1-1 .2zm.5-1.4c.4 0 .7 0 1-.2l.5-.6.3-.7v-1l-.3.2h-.5l-.5.2h-.4l-.7.2-.5.4-.2.5c0 .4.1.6.4.8s.5.2.9.2zm7.2-3.3v4.5h-1.8v-7.6h1.7v1.3a2.2 2.2 0 0 1 1-1c.3-.3.8-.4 1.4-.4.5 0 1 0 1.3.3l1 1c.3.4.3 1 .3 1.5v4.9h-1.8v-4.6c0-.5-.2-.9-.4-1.2s-.7-.4-1.1-.4c-.3 0-.6 0-.9.2l-.5.6-.2 1zm10 4.6c-.7 0-1.4-.1-2-.5a3.4 3.4 0 0 1-1.2-1.3c-.3-.6-.4-1.3-.4-2s.1-1.5.4-2.1.7-1.1 1.3-1.4a4.1 4.1 0 0 1 3.6-.2 2.8 2.8 0 0 1 1.1 1c.3.4.5.9.5 1.4h-1.7c0-.4-.3-.7-.5-1s-.6-.3-1-.3-.7.1-1 .3-.5.5-.7.9-.2.8-.2 1.3 0 1 .2 1.3l.7.9c.3.2.6.3 1 .3.2 0 .4 0 .7-.2a1.4 1.4 0 0 0 .5-.4l.3-.7h1.7c0 .5-.2 1-.5 1.4s-.6.8-1.1 1-1 .3-1.7.3zm8.2 0c-.8 0-1.5-.1-2-.4s-1-.8-1.3-1.4-.5-1.3-.5-2c0-.9.2-1.5.5-2.1s.7-1.1 1.3-1.4 1.1-.5 1.9-.5c.4 0 .9 0 1.3.2l1.1.7c.3.3.6.7.8 1.2s.3 1 .3 1.7v.6h-6.3v-1.2h4.5c0-.4 0-.7-.2-1l-.6-.6c-.3-.2-.6-.2-1-.2-.3 0-.6 0-.9.2l-.6.7c-.1.3-.3.6-.3 1v1c0 .5.1.9.3 1.2l.7.7c.3.2.6.2 1 .2h.7c.2 0 .4-.2.5-.4l.4-.5 1.7.2a2.6 2.6 0 0 1-.6 1.1c-.3.3-.7.6-1.2.8s-1 .2-1.5.2zm4.9-.1v-7.6h1.7v1.2h.1c.1-.4.4-.7.7-1a2 2 0 0 1 1.2-.3h.6v1.7a1.9 1.9 0 0 0-.3-.1 3.4 3.4 0 0 0-.5 0 1.8 1.8 0 0 0-.9.2 1.6 1.6 0 0 0-.6.6l-.2.8v4.5h-1.8z" class="B"/><path fill="url(#C)" d="M115.5 751c0-12.4 10-22.5 22.5-22.5h691a22.5 22.5 0 0 1 0 45H138c-12.4 0-22.5-10-22.5-22.5z"/><path stroke="url(#D)" d="M115.5 751c0-12.4 10-22.5 22.5-22.5h691a22.5 22.5 0 0 1 0 45H138c-12.4 0-22.5-10-22.5-22.5Z"/><path d="M420.6 751a4.9 4.9 0 0 1-2.3 4.5c-.7.4-1.5.6-2.4.6s-1.7-.2-2.4-.6-1.2-1-1.6-1.8-.7-1.7-.7-2.8.2-2 .7-2.8 1-1.4 1.6-1.8 1.5-.6 2.4-.6 1.7.2 2.4.6 1.3 1 1.7 1.8.6 1.7.6 2.8zm-1.9 0c0-.9 0-1.5-.3-2s-.6-1-1-1.3-1-.4-1.5-.4-1 .2-1.4.4-.8.7-1 1.3-.4 1.1-.4 2 .1 1.3.4 1.9.5.9 1 1.2.9.4 1.4.4 1-.2 1.5-.4.7-.7 1-1.2.3-1.2.3-2zm3.6 7.9v-10.5h1.7v1.2h.1l.4-.6c.1-.2.4-.4.7-.5l1.1-.2a3 3 0 0 1 2.8 1.7c.2.6.4 1.3.4 2.2 0 .8-.2 1.5-.4 2.1s-.7 1-1.2 1.4-1 .4-1.6.4c-.4 0-.8 0-1-.2a2.2 2.2 0 0 1-.8-.5l-.4-.6v4h-1.8zm1.7-6.7.2 1.3c.1.3.4.6.7.8s.5.4 1 .4c.3 0 .7-.1 1-.4l.5-.8a3.7 3.7 0 0 0 .2-1.3c0-.5 0-1-.2-1.3s-.3-.6-.6-.8-.6-.4-1-.4-.7.1-1 .3-.4.5-.6.9-.2.8-.2 1.3zm10.8-3.8v1.4h-4.4v-1.4h4.4zm-3.3-1.9h1.8v7.2l.1.6c.1.2.2.2.3.2h1l.3 1.4a3.8 3.8 0 0 1-1 .2 3 3 0 0 1-1.3-.2 1.9 1.9 0 0 1-.9-.7c-.2-.3-.3-.7-.3-1.2v-7.5zm4.8 9.5v-7.6h1.8v7.6h-1.8zm1-8.7a1 1 0 0 1-.8-.3 1 1 0 0 1-.3-.7.9.9 0 0 1 .3-.7 1 1 0 0 1 .7-.3c.3 0 .6.1.8.3s.3.4.3.7a1 1 0 0 1-.3.7 1 1 0 0 1-.8.3zm2.7 8.7v-7.6h1.7v1.3a2 2 0 0 1 .9-1c.4-.3.8-.4 1.3-.4s1 0 1.3.3l.8 1c.2-.4.5-.7.9-1s.9-.3 1.4-.3c.7 0 1.3.2 1.8.6s.6 1.1.6 2v5.1H449v-4.8c0-.5-.1-.9-.4-1s-.5-.4-.9-.4-.8.1-1 .4c-.2.3-.4.6-.4 1v4.8h-1.7v-5c0-.3-.1-.6-.4-.9s-.5-.3-1-.3a1.3 1.3 0 0 0-.6.2l-.5.5a2 2 0 0 0-.2.9v4.6H440zm12.5 0v-7.6h1.8v7.6h-1.8zm1-8.7a1 1 0 0 1-.8-.3 1 1 0 0 1-.3-.7.9.9 0 0 1 .3-.7 1 1 0 0 1 .8-.3c.2 0 .5.1.7.3s.3.4.3.7a1 1 0 0 1-.3.7 1 1 0 0 1-.7.3zm2.6 8.7v-1.1l4-5h-3.9v-1.5h6v1.2l-3.7 4.8v.1h3.9v1.5H456zm11.1.1c-.7 0-1.4-.1-2-.4s-1-.8-1.2-1.4-.5-1.3-.5-2c0-.9.2-1.5.5-2.1s.7-1.1 1.2-1.4 1.2-.5 2-.5c.4 0 .8 0 1.3.2l1 .7c.3.3.7.7.8 1.2s.3 1 .3 1.7v.6h-6.2v-1.2h4.5c0-.4 0-.7-.2-1a1.6 1.6 0 0 0-.6-.6 1.7 1.7 0 0 0-1-.2c-.3 0-.6 0-1 .2s-.4.4-.6.7-.2.6-.2 1v1c0 .5 0 .9.2 1.2l.7.7c.3.2.7.2 1 .2h.8c.3 0 .4-.2.5-.4l.4-.5 1.6.2a2.6 2.6 0 0 1-.6 1.1c-.3.3-.6.6-1.1.8s-1 .2-1.6.2zm7.8 0a2.9 2.9 0 0 1-2.8-1.8 5 5 0 0 1-.4-2.1c0-.9.2-1.6.4-2.2s.7-1 1.2-1.3a3 3 0 0 1 2.7-.2l.7.5.4.6v-3.8h1.8V756h-1.7v-1.2h-.1l-.4.6c-.1.2-.4.4-.7.5l-1.1.2zm.5-1.4c.4 0 .7-.1 1-.4l.6-.8c.2-.4.2-.8.2-1.3l-.2-1.3-.6-.9c-.2-.2-.6-.3-1-.3s-.8.1-1 .4a1.9 1.9 0 0 0-.6.8c-.2.4-.2.8-.2 1.3l.2 1.3c.2.4.3.6.6.8s.6.4 1 .4zm10.4-8.9 2.6 8h.1l2.7-8h2l-3.6 10.2h-2.3l-3.5-10.2h2zm10 10.4c-.4 0-.9-.1-1.2-.3s-.7-.4-1-.8-.3-.7-.3-1.2 0-.8.3-1.1a1.9 1.9 0 0 1 .6-.7l1-.4a7.5 7.5 0 0 1 1-.2h1.1l.6-.3.2-.4c0-.4-.1-.6-.3-.9s-.6-.3-1-.3-.8.1-1 .3l-.6.7-1.6-.2a2.7 2.7 0 0 1 1.7-1.9 4.4 4.4 0 0 1 2.6-.1 3.1 3.1 0 0 1 1 .4 2.1 2.1 0 0 1 .7.8c.2.4.3.8.3 1.3v5.1h-1.7v-1a2.2 2.2 0 0 1-1.3 1 3 3 0 0 1-1 .2zm.5-1.4c.4 0 .7 0 1-.2l.6-.6c.2-.3.2-.5.2-.7v-1c0 .1-.1.2-.3.2h-.4l-.5.2h-.4l-.8.2-.5.4c-.2.2-.2.3-.2.5 0 .4.2.6.4.8s.6.2 1 .2zm10.3-2v-4.4h1.8v7.6h-1.8v-1.4c-.2.5-.5.8-.9 1s-.9.5-1.4.5c-.5 0-1-.1-1.4-.3s-.7-.6-.9-1-.3-1-.3-1.6v-4.8h1.8v4.5c0 .5.1 1 .4 1.2s.6.4 1 .4c.3 0 .6 0 .8-.2l.6-.5c.1-.2.3-.6.3-1zm5.4-7V756h-1.8v-10.2h1.8zm5.7 2.6v1.4h-4.4v-1.4h4.4zm-3.3-1.9h1.8v7.8c0 .2.3.2.4.2a1.1 1.1 0 0 0 .4 0h.5l.3 1.4a3.8 3.8 0 0 1-1 .2 3 3 0 0 1-1.2-.2 1.9 1.9 0 0 1-1-.7l-.2-1.2v-7.5zm7.7-.7h2l2.5 4.5h.1l2.5-4.5h2.1l-3.7 6.4v3.8h-1.8v-3.8l-3.7-6.4zm10.3 10.2v-7.6h1.8v7.6h-1.8zm1-8.7a1 1 0 0 1-.8-.3 1 1 0 0 1-.3-.7.9.9 0 0 1 .3-.7 1 1 0 0 1 .7-.3c.3 0 .6.1.8.3s.3.4.3.7a1 1 0 0 1-.3.7 1 1 0 0 1-.8.3zm6 8.8c-.7 0-1.4-.1-2-.4s-.9-.8-1.2-1.4-.4-1.3-.4-2c0-.9.1-1.5.4-2.1s.7-1.1 1.3-1.4a4.1 4.1 0 0 1 3.2-.3 3 3 0 0 1 1.1.7c.4.3.6.7.8 1.2s.3 1 .3 1.7v.6h-6.3v-1.2h4.5c0-.4 0-.7-.2-1l-.6-.6c-.3-.2-.6-.2-.9-.2a1.8 1.8 0 0 0-1 .2 1.8 1.8 0 0 0-.6.7 2 2 0 0 0-.2 1v1c0 .5 0 .9.2 1.2l.7.7c.3.2.6.2 1 .2h.7c.2 0 .4-.2.6-.4l.3-.5 1.7.2a2.6 2.6 0 0 1-.6 1.1l-1.1.8c-.4.2-1 .2-1.6.2zm6.8-10.3V756h-1.8v-10.2h1.8zm4.7 10.3a2.9 2.9 0 0 1-2.8-1.8 5 5 0 0 1-.4-2.1c0-.9.2-1.6.4-2.2s.7-1 1.2-1.3a3 3 0 0 1 2.7-.2l.7.5.4.6v-3.8h1.8V756h-1.7v-1.2h-.1l-.4.6c-.1.2-.4.4-.7.5l-1.1.2zm.5-1.4c.4 0 .7-.1 1-.4l.6-.8c.2-.4.2-.8.2-1.3l-.2-1.3-.6-.9c-.2-.2-.6-.3-1-.3s-.8.1-1 .4-.5.5-.6.8l-.2 1.3c0 .5 0 .9.2 1.3l.6.8c.3.2.6.4 1 .4z" class="B"/><path fill="#232323" d="M0 459a24 24 0 0 1 24-24h920a24 24 0 0 1 24 24v213a24 24 0 0 1-24 24H24a24 24 0 0 1-24-24V459z"/><path fill="url(#E)" d="M24.5 483c0-13 10.5-23.5 23.5-23.5h872a23.5 23.5 0 1 1 0 47H48c-13 0-23.5-10.5-23.5-23.5z"/><path stroke="url(#F)" d="M24.5 483c0-13 10.5-23.5 23.5-23.5h872a23.5 23.5 0 1 1 0 47H48c-13 0-23.5-10.5-23.5-23.5Z"/><path d="M424.5 488v-10.2h6.5v1.6h-4.7v2.7h4.3v1.6h-4.3v4.3h-1.8zm10-10.2V488h-1.9v-10.2h1.8zm5.2 10.3c-.8 0-1.5-.1-2-.4s-1-.8-1.3-1.4-.4-1.3-.4-2c0-.9.1-1.5.4-2.1s.7-1.1 1.3-1.4 1.1-.5 1.9-.5c.4 0 .9 0 1.3.2a3 3 0 0 1 1.1.7c.3.3.6.7.8 1.2s.3 1 .3 1.7v.6h-6.3v-1.2h4.5c0-.4 0-.7-.2-1l-.6-.6c-.3-.2-.6-.2-1-.2a1.8 1.8 0 0 0-.9.2 1.8 1.8 0 0 0-.6.7 2 2 0 0 0-.3 1v1c0 .5.1.9.3 1.2l.7.7c.3.2.6.2 1 .2h.7c.2 0 .4-.2.5-.4l.4-.5 1.7.2a2.6 2.6 0 0 1-.6 1.1c-.3.3-.7.6-1.2.8s-1 .2-1.5.2zm8.3 0c-.8 0-1.5-.1-2-.4s-1-.8-1.3-1.4-.5-1.3-.5-2c0-.9.2-1.5.5-2.1s.7-1.1 1.3-1.4 1.1-.5 1.9-.5c.4 0 .9 0 1.3.2a3 3 0 0 1 1.1.7c.3.3.6.7.8 1.2s.3 1 .3 1.7v.6H445v-1.2h4.5c0-.4 0-.7-.2-1a1.6 1.6 0 0 0-.6-.6c-.3-.2-.6-.2-1-.2a1.8 1.8 0 0 0-.9.2 1.8 1.8 0 0 0-.6.7 2 2 0 0 0-.3 1v1c0 .5.1.9.3 1.2l.7.7c.3.2.6.2 1 .2h.7a1.6 1.6 0 0 0 .5-.4l.4-.5 1.7.2a2.6 2.6 0 0 1-.6 1.1 3 3 0 0 1-1.2.8c-.4.2-1 .2-1.5.2zm8.7-7.7v1.4h-4.4v-1.4h4.4zm-3.3-1.9h1.8v7.8c0 .2.3.2.4.2h.9l.3 1.4-.4.1a3.3 3.3 0 0 1-.6.1 3 3 0 0 1-1.2-.2 1.9 1.9 0 0 1-1-.7l-.2-1.2v-7.5zm17 2.8h-1.8a2.3 2.3 0 0 0-.3-.9l-.5-.6a2.2 2.2 0 0 0-.7-.3 2.8 2.8 0 0 0-2.4.3c-.4.2-.8.6-1 1.2s-.4 1.1-.4 2c0 .7.2 1.3.4 1.9s.6 1 1 1.2a2.7 2.7 0 0 0 1.5.4l.8-.1.8-.4c.3-.2.3-.4.5-.6a2.2 2.2 0 0 0 .3-.8h1.9a4 4 0 0 1-.5 1.4 4 4 0 0 1-.9 1.1 4.2 4.2 0 0 1-1.3.8c-.5.2-1 .2-1.6.2a4.3 4.3 0 0 1-4-2.4c-.5-.8-.7-1.7-.7-2.8s.2-2 .6-2.8 1-1.4 1.7-1.8 1.5-.6 2.4-.6c.5 0 1 0 1.5.2l1.3.7 1 1.1c.3.4.4 1 .5 1.6zm5 6.8c-.7 0-1.4-.1-2-.4s-1-.8-1.2-1.4-.5-1.3-.5-2 .2-1.6.5-2.2.7-1 1.3-1.3 1.2-.5 1.9-.5 1.4.1 2 .5 1 .7 1.2 1.3.5 1.3.5 2.1-.2 1.5-.5 2-.7 1.1-1.3 1.5-1.2.4-1.9.4zm0-1.4c.4 0 .8-.1 1-.3s.5-.6.6-1a3.7 3.7 0 0 0 .2-1.2c0-.5 0-.9-.2-1.3l-.6-.9c-.3-.3-.6-.3-1-.3s-.7.1-1 .3a2 2 0 0 0-.6 1 3.8 3.8 0 0 0-.2 1.2c0 .5 0 .9.2 1.3a2 2 0 0 0 .6.9c.3.2.6.3 1 .3zm5.2 1.3v-7.6h1.7v1.3h.1a2 2 0 0 1 .8-1c.4-.3.8-.4 1.3-.4s1 0 1.3.3l.8 1c.2-.4.5-.7.9-1s.9-.3 1.4-.3c.7 0 1.3.2 1.8.6s.6 1.1.6 2v5.1h-1.8v-4.8c0-.5-.1-.9-.4-1s-.5-.4-.9-.4-.8.1-1 .4-.4.6-.4 1v4.8h-1.7v-5c0-.3-.1-.6-.4-.9s-.5-.3-1-.3c-.2 0-.4 0-.6.2l-.5.5a2 2 0 0 0-.2.9v4.6h-1.8zm12.6 0v-7.6h1.7v1.3c.2-.5.5-.8.9-1s.8-.4 1.3-.4 1 0 1.3.3.6.6.7 1h.1c.2-.4.5-.7.9-1s.9-.3 1.4-.3c.7 0 1.3.2 1.7.6s.7 1.1.7 2v5.1H502v-4.8c0-.5-.1-.9-.4-1s-.6-.4-1-.4c-.3 0-.7.1-1 .4s-.3.6-.3 1v4.8h-1.8v-5c0-.3 0-.6-.3-.9s-.6-.3-1-.3a1.3 1.3 0 0 0-.7.2l-.5.5c-.2.2-.1.5-.1.9v4.6h-1.8zm14.7.2c-.5 0-.9-.1-1.3-.3s-.7-.4-1-.8-.2-.7-.2-1.2 0-.8.2-1.1l.6-.7c.2-.2.6-.3 1-.4a7.5 7.5 0 0 1 1-.2h1.1l.7-.3a.4.4 0 0 0 .1-.4c0-.4 0-.6-.3-.8s-.5-.4-1-.4c-.4 0-.7.1-1 .3s-.4.4-.5.7l-1.7-.2a2.7 2.7 0 0 1 1.8-1.9 4.4 4.4 0 0 1 2.5-.1c.4 0 .7.2 1 .4a2.2 2.2 0 0 1 .8.8c.2.4.2.8.2 1.3v5.1h-1.7v-1a2.2 2.2 0 0 1-1.2 1 3 3 0 0 1-1 .2zm.5-1.4c.3 0 .7 0 1-.2l.5-.6.3-.7v-1l-.3.2h-.5l-.5.2h-.4l-.7.2-.5.4-.2.5c0 .4.1.6.4.8s.5.2.9.2zm7.2-3.3v4.5h-1.8v-7.6h1.7v1.3c.2-.5.5-.8 1-1s.8-.4 1.3-.4c.6 0 1 0 1.4.3l1 1c.3.4.3 1 .3 1.5v4.9h-1.8v-4.6c0-.5-.2-.9-.4-1.2s-.7-.4-1.1-.4c-.3 0-.6 0-.9.2a1.4 1.4 0 0 0-.5.6 2 2 0 0 0-.2 1zm9.5 4.6a2.9 2.9 0 0 1-2.7-1.8 5 5 0 0 1-.4-2.1c0-.9.1-1.6.4-2.2s.7-1 1.1-1.3a3 3 0 0 1 1.6-.4c.5 0 .8 0 1.1.2a2 2 0 0 1 .7.5 3.3 3.3 0 0 1 .4.6v-3.8h1.9V488h-1.8v-1.2l-.5.6-.7.5-1 .2zm.5-1.4c.4 0 .7-.1 1-.4s.5-.4.6-.8l.2-1.3c0-.5 0-1-.2-1.3s-.3-.7-.6-.9-.6-.3-1-.3-.7.1-1 .4-.5.5-.6.8l-.2 1.3c0 .5 0 .9.2 1.3l.6.8c.2.2.6.4 1 .4zm8.9 1.4c-.8 0-1.4-.1-2-.4s-1-.8-1.3-1.4-.4-1.3-.4-2c0-.9.1-1.5.4-2.1s.7-1.1 1.3-1.4 1.2-.5 1.9-.5c.5 0 1 0 1.3.2l1.1.7c.3.3.6.7.8 1.2s.3 1 .3 1.7v.6h-6.3v-1.2h4.6c0-.4-.1-.7-.3-1l-.6-.6c-.3-.2-.5-.2-.9-.2-.3 0-.7 0-1 .2l-.6.7a2 2 0 0 0-.2 1v1c0 .5 0 .9.2 1.2l.7.7c.3.2.6.2 1 .2h.7c.2 0 .4-.2.6-.4l.3-.5 1.7.2a2.6 2.6 0 0 1-.6 1.1l-1.1.8c-.4.2-1 .2-1.6.2zm5-.1v-7.6h1.7v1.2a2 2 0 0 1 2-1.3h.5v1.7a1.9 1.9 0 0 0-.4-.1h-.5c-.3 0-.6 0-.9.2a1.6 1.6 0 0 0-.6.6l-.2.8v4.5h-1.8z" class="B"/><path d="M55 576a8 8 0 0 1 8-8h110a8 8 0 0 1 8 8v88a8 8 0 0 1-8 8H63a8 8 0 0 1-8-8v-88z" class="C"/><path d="M98 594.4v-1.6h8.1v1.6H103v8.6h-2v-8.6h-3zm11.8 8.7c-.7 0-1.4-.1-2-.4s-.9-.8-1.2-1.4-.4-1.3-.4-2 .1-1.6.4-2.2.7-1 1.3-1.3 1.2-.5 2-.5 1.3.1 1.9.5 1 .7 1.2 1.3.5 1.3.5 2.1-.2 1.5-.5 2-.7 1.1-1.2 1.5-1.2.4-2 .4zm0-1.4c.4 0 .8-.1 1-.3l.7-1a3.7 3.7 0 0 0 .2-1.2l-.2-1.3c-.1-.4-.4-.6-.7-.9s-.6-.3-1-.3-.7.1-1 .3a2 2 0 0 0-.6 1l-.2 1.2c0 .5 0 .9.2 1.3a2 2 0 0 0 .6.9c.3.2.6.3 1 .3zm6.8-1.1v-2.2h.3l2.8-3h2l-3.3 3.7h-.4l-1.4 1.5zM115 603v-10.2h1.8V603H115zm4.8 0-2.5-3.5 1.2-1.2 3.5 4.7h-2.2zm6.2.1a4 4 0 0 1-2-.4 3.2 3.2 0 0 1-1.2-1.4 4.6 4.6 0 0 1 0-4.2 3.4 3.4 0 0 1 3.2-1.8c.4 0 .9 0 1.3.2a3 3 0 0 1 1.1.7c.3.3.6.7.8 1.2s.2 1 .2 1.7v.6h-6.2v-1.2h4.5c0-.4 0-.7-.2-1a1.6 1.6 0 0 0-.6-.6c-.3-.2-.6-.2-1-.2a1.8 1.8 0 0 0-.9.2 1.8 1.8 0 0 0-.6.7 2 2 0 0 0-.3 1v1c0 .5.1.9.3 1.2l.6.7c.2.2.7.2 1 .2h.8c.2 0 .4-.2.5-.4l.4-.5 1.7.2a2.6 2.6 0 0 1-.6 1.1 3 3 0 0 1-1.2.8c-.4.2-1 .2-1.6.2zm6.8-4.6v4.5H131v-7.6h1.7v1.3c.2-.5.5-.8 1-1s.8-.4 1.4-.4c.5 0 1 0 1.3.3l1 1c.3.4.3 1 .3 1.5v4.9h-1.8v-4.6c0-.5-.2-.9-.4-1.2s-.7-.4-1.1-.4c-.3 0-.6 0-.9.2a1.4 1.4 0 0 0-.5.6 2 2 0 0 0-.2 1zM93.5 625v-10.2h3.8c.8 0 1.4.2 2 .4s.9.7 1.2 1.2.4 1 .4 1.7-.2 1.2-.4 1.7-.7.8-1.3 1-1.2.5-2 .5h-2.7v-1.6H97l1.1-.1c.3-.1.5-.4.7-.6s.2-.6.2-1l-.2-.8a1.4 1.4 0 0 0-.7-.6c-.3-.2-.6-.2-1-.2h-1.8v8.6h-1.8zm5.2-4.6 2.6 4.6h-2.1l-2.5-4.6h2zm7 4.7c-.7 0-1.4-.1-2-.4s-.9-.8-1.2-1.4-.4-1.3-.4-2c0-.9.1-1.5.4-2.1s.7-1.1 1.3-1.4 1.1-.5 1.9-.5a3.8 3.8 0 0 1 1.3.2c.4.1.8.4 1.1.7s.6.7.8 1.2.3 1 .3 1.7v.6h-6.3v-1.2h4.5c0-.4 0-.7-.2-1l-.6-.6c-.3-.2-.6-.2-.9-.2-.4 0-.7 0-1 .2l-.6.7c-.1.3-.3.6-.3 1v1c0 .5.1.9.3 1.2l.7.7c.3.2.6.2 1 .2h.7c.2 0 .4-.2.6-.4l.3-.5 1.7.2a2.6 2.6 0 0 1-.6 1.1l-1.1.8c-.4.2-1 .2-1.6.2zm6.5-.1-2.1-7.6h1.8l1.3 5.3h.1l1.4-5.3h1.8l1.4 5.3 1.4-5.3h1.8L119 625h-1.8l-1.5-5.2-1.5 5.2h-1.9zm12.4.2c-.5 0-1-.1-1.3-.3s-.7-.4-1-.8-.3-.7-.3-1.2 0-.8.2-1.1a1.9 1.9 0 0 1 .7-.7l1-.4 1-.2h1l.7-.3.2-.4c0-.4-.1-.6-.3-.9s-.6-.3-1-.3-.8.1-1 .3l-.6.7-1.6-.2a2.7 2.7 0 0 1 1.7-1.9 4.4 4.4 0 0 1 2.6-.1c.4 0 .7.2 1 .4l.7.8c.2.3.3.8.3 1.3v5.1h-1.7v-1h-.1a2.2 2.2 0 0 1-.5.5l-.7.5-1 .2zm.4-1.4c.4 0 .7 0 1-.2l.6-.6c.2-.3.2-.5.2-.7v-1a.9.9 0 0 1-.3.2h-.4l-.5.2h-.5a3.1 3.1 0 0 0-.7.2l-.5.4a.8.8 0 0 0-.2.5c0 .4.2.6.4.8s.6.2 1 .2zm5.4 1.2v-7.6h1.7v1.2h.1l.7-1a2 2 0 0 1 1.2-.3h.3a2.2 2.2 0 0 1 .4 0v1.7a1.9 1.9 0 0 0-.4-.1h-.5c-.3 0-.6 0-.9.2a1.6 1.6 0 0 0-.6.6l-.2.8v4.5h-1.8zm8 .1a2.9 2.9 0 0 1-2.7-1.8 5 5 0 0 1-.4-2.1c0-.9.2-1.6.4-2.2s.7-1 1.2-1.3a3 3 0 0 1 2.7-.2l.7.5.4.6v-3.8h1.8V625h-1.7v-1.2h-.1l-.4.6a2.2 2.2 0 0 1-.7.5c-.3.2-.7.2-1.1.2zm.6-1.4c.4 0 .7-.1 1-.4l.6-.8c.2-.4.2-.8.2-1.3l-.2-1.3a1.8 1.8 0 0 0-.6-.9c-.3-.2-.6-.3-1-.3s-.8.1-1 .4a1.9 1.9 0 0 0-.6.8c-.2.4-.2.8-.2 1.3l.2 1.3c.2.4.3.6.6.8s.6.4 1 .4zM92.3 647v-10.2h1.9v4.3h4.7v-4.3h1.8V647H99v-4.3h-4.7v4.3h-1.9zm12.6.2a3.2 3.2 0 0 1-1.3-.3c-.4-.2-.7-.4-1-.8s-.3-.7-.3-1.2 0-.8.2-1.1a1.9 1.9 0 0 1 .7-.7l1-.4 1-.2h1.1l.6-.3.2-.4c0-.4-.1-.6-.3-.9s-.6-.3-1-.3-.8.1-1 .3l-.6.7-1.6-.2c0-.5.3-.9.6-1.2a2.9 2.9 0 0 1 1.1-.7c.5-.2 1-.2 1.5-.2h1c.4 0 .8.3 1 .5l.8.8c.2.3.3.8.3 1.3v5.1h-1.7v-1a2.2 2.2 0 0 1-1.3 1 3 3 0 0 1-1 .2zm.4-1.4a2 2 0 0 0 1-.2l.6-.6c.2-.3.2-.5.2-.7v-1a.9.9 0 0 1-.3.2h-.4l-.5.2h-.4l-.8.2-.5.4c-.2.2-.2.3-.2.5 0 .4.2.6.4.8s.6.2 1 .2zm5.4 1.2v-7.6h1.8v1.2a2 2 0 0 1 2-1.3h.5v1.7a1.9 1.9 0 0 0-.4-.1h-.5c-.3 0-.6 0-.9.2l-.6.6c-.2.3-.2.5-.2.8v4.5h-1.8zm12.6-7.6-2.7 7.6h-2l-2.7-7.6h1.9l1.8 5.6 1.8-5.6h2zm4.4 7.7c-.8 0-1.4-.1-2-.4s-1-.8-1.3-1.4-.4-1.3-.4-2c0-.9.1-1.5.4-2.1s.7-1.1 1.3-1.4a4.1 4.1 0 0 1 3.2-.3l1.1.7c.3.3.6.7.8 1.2s.3 1 .3 1.7v.6h-6.3v-1.2h4.5c0-.4 0-.7-.2-1l-.6-.6c-.3-.2-.5-.2-.9-.2s-.7 0-1 .2l-.6.7-.2 1v1c0 .5 0 .9.2 1.2l.7.7c.3.2.6.2 1 .2h.7c.2 0 .4-.2.6-.4l.3-.5 1.7.2a2.6 2.6 0 0 1-.6 1.1l-1.1.8c-.4.2-1 .2-1.6.2zm11-5.7-1.7.2a1.3 1.3 0 0 0-.7-.9h-.7l-1 .1c-.3.2-.3.4-.3.7a.7.7 0 0 0 .2.5l.8.4 1.3.2c.8.2 1.3.4 1.7.8s.5.8.5 1.3-.1 1-.4 1.3-.7.6-1.2.8-1 .3-1.7.3c-.9 0-1.7-.1-2.2-.5s-1-1-1-1.7l1.7-.2c0 .4.3.7.5.8s.6.3 1 .3c.5 0 .8-.1 1-.3s.5-.4.5-.6a.7.7 0 0 0-.3-.6l-.8-.3-1.3-.3c-.7-.1-1.3-.4-1.6-.7s-.5-.9-.5-1.4c0-.5.1-.9.4-1.2s.6-.7 1-.8 1-.3 1.7-.3c.9 0 1.6.2 2 .5s1 1 1 1.6zm5.4-2v1.4h-4.4v-1.4h4.4zm-3.3-1.9h1.8v7.2l.1.6a.6.6 0 0 0 .3.2h.9l.3 1.4a3.9 3.9 0 0 1-.4.1l-.6.1c-.5 0-.9 0-1.2-.2s-.7-.4-.9-.7-.3-.7-.3-1.2v-7.5z" class="B"/><use class="D" href="#G"/><path d="M237.5 596v-10.2h3.8a4 4 0 0 1 2 .5 2.9 2.9 0 0 1 1.2 1.2c.3.5.4 1 .4 1.7 0 .6-.1 1.2-.4 1.7s-.7 1-1.2 1.2-1.2.5-2 .5h-2.5V591h2.2c.5 0 .9 0 1.2-.2l.6-.7a2 2 0 0 0 .2-1c0-.3 0-.6-.2-.9l-.6-.6-1.2-.2h-1.7v8.6h-1.8zm9 0v-7.6h1.7v1.2c.2-.4.4-.7.8-1a2 2 0 0 1 1.1-.3h.7v1.7l-.4-.1a3.4 3.4 0 0 0-.4 0c-.4 0-.7 0-1 .2a1.6 1.6 0 0 0-.5.6c-.2.2-.3.5-.3.8v4.5h-1.8zm8.5.1c-.7 0-1.4-.1-2-.4s-1-.8-1.2-1.4-.5-1.3-.5-2 .2-1.6.5-2.2.7-1 1.3-1.3 1.2-.5 1.9-.5 1.4.1 2 .5 1 .7 1.2 1.3.5 1.3.5 2.1-.2 1.5-.5 2-.7 1.1-1.3 1.5-1.2.4-1.9.4zm0-1.4c.4 0 .8-.1 1-.3s.5-.6.6-1a3.7 3.7 0 0 0 .2-1.2c0-.5 0-.9-.2-1.3l-.6-.9c-.3-.3-.6-.3-1-.3s-.7.1-1 .3a2 2 0 0 0-.6 1c-.2.3-.2.7-.2 1.2l.2 1.3a2 2 0 0 0 .6.9c.3.2.6.3 1 .3zm9-6.3v1.4h-4.4v-1.4h4.4zm-3.3-1.9h1.8v7.2l.1.6c.1.2.2.2.3.2a1.1 1.1 0 0 0 .4 0h.5l.3 1.4a3.8 3.8 0 0 1-1 .2 3 3 0 0 1-1.2-.2 1.9 1.9 0 0 1-.9-.7c-.2-.3-.3-.7-.3-1.2v-7.5zm8 9.6c-.7 0-1.3-.1-1.9-.4s-1-.8-1.3-1.4-.4-1.3-.4-2 .1-1.6.4-2.2.8-1 1.3-1.3 1.2-.5 2-.5 1.3.1 1.9.5a3.3 3.3 0 0 1 1.3 1.3c.3.6.4 1.3.4 2.1s-.1 1.5-.4 2a3.3 3.3 0 0 1-1.3 1.5c-.6.3-1.2.4-2 .4zm0-1.4c.5 0 .8-.1 1-.3s.6-.6.7-1a3.7 3.7 0 0 0 .2-1.2c0-.5 0-.9-.2-1.3l-.6-.9c-.3-.3-.6-.3-1-.3s-.8.1-1 .3a2 2 0 0 0-.7 1 3.8 3.8 0 0 0-.2 1.2c0 .5 0 .9.2 1.3a2 2 0 0 0 .6.9c.3.2.7.3 1 .3zm8.6 1.4a3.4 3.4 0 0 1-3.2-1.9 4.2 4.2 0 0 1 0-4c.3-.6.7-1.1 1.2-1.4s1.2-.5 2-.5c.6 0 1.1 0 1.6.3s.9.6 1.2 1 .4.9.4 1.4h-1.7a1.6 1.6 0 0 0-.5-1c-.2-.2-.6-.3-1-.3a1.6 1.6 0 0 0-1 .3c-.3.2-.5.5-.6.9l-.3 1.3c0 .5.1 1 .3 1.3l.6.9a1.6 1.6 0 0 0 1 .3c.3 0 .5 0 .7-.2a1.4 1.4 0 0 0 .5-.4c.2-.2.3-.4.3-.7h1.7c0 .5-.2 1-.4 1.4s-.7.8-1.2 1-1 .3-1.6.3zm8 0a4 4 0 0 1-1.9-.4 3.3 3.3 0 0 1-1.3-1.4c-.3-.6-.4-1.3-.4-2s.1-1.6.4-2.2.8-1 1.3-1.3 1.2-.5 2-.5 1.3.1 1.9.5 1 .7 1.3 1.3.4 1.3.4 2.1-.1 1.5-.4 2-.8 1.1-1.3 1.5-1.2.4-2 .4zm0-1.4c.5 0 .8-.1 1-.3s.6-.6.7-1a3.7 3.7 0 0 0 .2-1.2c0-.5 0-.9-.2-1.3l-.6-.9c-.2-.3-.6-.3-1-.3-.5 0-.8.1-1 .3l-.7 1a3.8 3.8 0 0 0-.2 1.2c0 .5 0 .9.2 1.3l.6.9c.2.3.6.3 1 .3zm7-8.9V596h-1.8v-10.2h1.8zm6.8 10.2h-2l3.6-10.2h2.2l3.6 10.2h-2l-2.7-8-2.8 8zm0-4h5.4v1.5H299V592zm8.7 4v-7.6h1.7v1.2h.1a2 2 0 0 1 1.9-1.3h.6v1.7a1.9 1.9 0 0 0-.3-.1h-.5c-.3 0-.6 0-.9.2a1.6 1.6 0 0 0-.6.6l-.2.8v4.5h-1.8zm7.2-2.4v-2.2h.3l2.7-3h2.1l-3.4 3.7h-.3l-1.4 1.5zm-1.7 2.4v-10.2h1.8V596h-1.8zm4.8 0-2.4-3.5 1.2-1.2 3.4 4.7H318zm10.8-10.2V596h-1.8v-8.4h-.1l-2.4 1.5v-1.7l2.6-1.6h1.7z" class="B"/><use y="56" class="D" href="#G"/><path d="M213 652v-10.2h1.8v4.3h4.8v-4.3h1.8V652h-1.8v-4.3h-4.8v4.3H213zm10.3 0v-7.6h1.8v7.6h-1.8zm1-8.7a1 1 0 0 1-.8-.3 1 1 0 0 1-.3-.7c0-.3.1-.5.3-.7a1 1 0 0 1 .7-.3c.3 0 .6.1.8.3s.3.4.3.7a1 1 0 0 1-.3.7 1 1 0 0 1-.8.3zm6 11.7c-.6 0-1.2 0-1.7-.2l-1-.7-.7-1 1.7-.4.3.4.5.4 1 .2c.5 0 .9-.2 1.2-.4s.5-.7.5-1.2v-1.5l-.5.6a2.1 2.1 0 0 1-.7.5l-1 .2c-.7 0-1.2-.1-1.7-.4s-.8-.7-1.1-1.3-.4-1.2-.4-2c0-.9.1-1.6.4-2.2s.7-1 1.1-1.3a3 3 0 0 1 1.6-.4c.5 0 .8 0 1.1.2a2.1 2.1 0 0 1 .7.5l.4.6h.1v-1.2h1.8v7.7c0 .7-.2 1.2-.5 1.6s-.7.8-1.2 1-1.2.3-1.9.3zm0-4.5c.4 0 .7-.1 1-.3s.5-.5.6-.8l.2-1.3c0-.4 0-.9-.2-1.2s-.3-.7-.6-.9-.6-.3-1-.3-.7.1-1 .4l-.6.8a3.5 3.5 0 0 0-.2 1.2c0 .5 0 1 .2 1.3l.6.8c.2.2.6.3 1 .3zm7.2-3v4.5h-1.8v-10.2h1.8v3.9a2.2 2.2 0 0 1 1-1c.3-.3.8-.4 1.4-.4.5 0 1 0 1.4.3s.7.5.9 1l.3 1.5v4.9h-1.8v-4.6c0-.5-.1-.9-.4-1.2s-.6-.4-1.1-.4a1.7 1.7 0 0 0-.9.2 1.5 1.5 0 0 0-.5.6 2 2 0 0 0-.3 1zm14.2 1h1.6l1 1.4.7.8 1.7 2.2H255l-1.1-1.5-.5-.7-1.6-2.1zm5.3-1.6c0 1.1-.2 2-.6 2.8s-1 1.4-1.7 1.8-1.5.6-2.4.6-1.7-.2-2.4-.6-1.3-1-1.7-1.8-.6-1.7-.6-2.8.2-2 .6-2.8 1-1.4 1.7-1.8 1.5-.6 2.4-.6 1.7.2 2.4.6 1.3 1 1.7 1.8.6 1.7.6 2.8zm-1.9 0c0-.8-.1-1.4-.3-2s-.6-.9-1-1.2-1-.4-1.5-.4-1 .2-1.5.4-.7.7-1 1.3-.3 1.1-.3 2 .1 1.3.3 1.9.6.9 1 1.2 1 .4 1.5.4 1-.2 1.5-.4.7-.7 1-1.2.3-1.2.3-2zm8.4 1.9v-4.4h1.8v7.6h-1.7v-1.4h-.1c-.2.5-.5.8-.9 1s-.8.5-1.4.5c-.5 0-1-.1-1.3-.3a2.3 2.3 0 0 1-1-1l-.2-1.6v-4.8h1.8v4.5c0 .5 0 1 .4 1.2s.6.4 1 .4a1.6 1.6 0 0 0 .8-.2c.2 0 .4-.3.6-.5s.2-.6.2-1zm5.9 3.4c-.5 0-1-.1-1.3-.3s-.7-.4-1-.8-.3-.7-.3-1.2.1-.8.3-1.1l.6-.7 1-.4a7.5 7.5 0 0 1 1-.2h1.1l.6-.3.2-.4c0-.4-.1-.6-.3-.9s-.6-.3-1-.3-.8.1-1 .3l-.6.7-1.6-.2a2.7 2.7 0 0 1 1.7-1.9 4.4 4.4 0 0 1 2.6-.1c.4 0 .7.2 1 .4a2.2 2.2 0 0 1 .7.8c.2.4.3.8.3 1.3v5.1h-1.7v-1a2.2 2.2 0 0 1-1.3 1 3 3 0 0 1-1 .2zm.4-1.4c.4 0 .7 0 1-.2l.6-.6c.2-.3.2-.5.2-.7v-1c0 .1-.1.2-.3.2h-.4l-.5.2h-.4l-.8.2-.5.4c-.2.2-.1.3-.1.5 0 .4 0 .6.3.8s.6.2 1 .2zm7.2-9V652h-1.8v-10.2h1.8zm2 10.2v-7.6h1.8v7.6H279zm.9-8.7a1 1 0 0 1-.8-.3c-.2-.2-.3-.4-.3-.7s.1-.5.3-.7a1 1 0 0 1 .8-.3 1 1 0 0 1 .7.3c.2.2.3.4.3.7s0 .5-.3.7a1 1 0 0 1-.7.3zm6.5 1v1.5H282v-1.4h4.4zm-3.3-1.8h1.8v7.2l.1.6c.1.2.2.2.3.2h1l.3 1.4a3.8 3.8 0 0 1-1 .2 3 3 0 0 1-1.3-.2 1.9 1.9 0 0 1-.9-.7c-.2-.3-.3-.7-.3-1.2v-7.5zm6 12.4a3.6 3.6 0 0 1-.7-.1l-.5-.1.4-1.4h.7a.9.9 0 0 0 .5-.1c.2-.1.3-.3.4-.6l.2-.4-2.8-7.8h2l1.7 5.7 1.8-5.7h2l-3.1 8.5c-.1.4-.3.8-.6 1l-.8.7-1.2.3zm10.5-2.9v-10.2h3.8c.8 0 1.4.2 2 .5s.9.6 1.1 1.2.5 1 .5 1.7c0 .6-.2 1.2-.5 1.7a3 3 0 0 1-1.2 1.2 4 4 0 0 1-2 .5h-2.5V647h2.3c.5 0 .8 0 1.1-.2a1.5 1.5 0 0 0 .7-.7l.2-1c0-.3 0-.6-.2-.9l-.7-.6-1.1-.2h-1.7v8.6h-1.8zm8.9 0v-7.6h1.7v1.2h.1a2 2 0 0 1 1.9-1.3h.6v1.7a1.9 1.9 0 0 0-.3-.1h-.5c-.3 0-.6 0-.9.2a1.6 1.6 0 0 0-.6.6l-.2.8v4.5h-1.8zm8.5.1c-.7 0-1.3-.1-1.9-.4s-1-.8-1.3-1.4-.4-1.3-.4-2 .1-1.6.4-2.2.8-1 1.3-1.3 1.2-.5 2-.5 1.3.1 1.9.5 1 .7 1.3 1.3.4 1.3.4 2.1-.1 1.5-.4 2-.8 1.1-1.3 1.5-1.2.4-2 .4zm0-1.4c.5 0 .8-.1 1-.3l.7-1a3.7 3.7 0 0 0 .2-1.2c0-.5 0-.9-.2-1.3l-.6-.9c-.2-.3-.6-.3-1-.3-.5 0-.8.1-1 .3a2 2 0 0 0-.7 1l-.2 1.2c0 .5 0 .9.2 1.3a2 2 0 0 0 .6.9c.3.2.6.3 1 .3zm9-6.3v1.4h-4.3v-1.4h4.3zm-3.3-1.9h1.8v7.2c0 .2 0 .4.2.6l.2.2h1l.3 1.4a3.8 3.8 0 0 1-1 .2 3 3 0 0 1-1.3-.2 1.9 1.9 0 0 1-.8-.7c-.3-.3-.4-.7-.4-1.2v-7.5zm8.1 9.6c-.7 0-1.4-.1-2-.4s-1-.8-1.2-1.4-.5-1.3-.5-2 .2-1.6.5-2.2.7-1 1.3-1.3 1.2-.5 1.9-.5 1.4.1 2 .5 1 .7 1.2 1.3.5 1.3.5 2.1-.2 1.5-.5 2-.7 1.1-1.3 1.5-1.2.4-1.9.4zm0-1.4c.4 0 .8-.1 1-.3s.5-.6.6-1a3.7 3.7 0 0 0 .2-1.2c0-.5 0-.9-.2-1.3l-.6-.9c-.3-.3-.6-.3-1-.3s-.7.1-1 .3a2 2 0 0 0-.6 1c-.2.3-.2.7-.2 1.2l.2 1.3a2 2 0 0 0 .6.9c.3.2.6.3 1 .3zm8.5 1.4c-.7 0-1.4-.1-2-.5a3.4 3.4 0 0 1-1.2-1.3c-.3-.6-.4-1.3-.4-2s.1-1.5.4-2.1.7-1.1 1.3-1.4a4.1 4.1 0 0 1 3.6-.2 2.8 2.8 0 0 1 1.1 1c.3.4.5.9.5 1.4h-1.7a1.6 1.6 0 0 0-.5-1c-.3-.2-.6-.3-1-.3s-.8.1-1 .3l-.7.9c-.2.4-.2.8-.2 1.3s0 1 .2 1.3l.7.9a1.6 1.6 0 0 0 1 .3 1.6 1.6 0 0 0 .6-.2 1.4 1.4 0 0 0 .6-.4l.3-.7h1.7c0 .5-.2 1-.5 1.4s-.6.8-1.1 1-1 .3-1.7.3zm8.1 0c-.7 0-1.4-.1-2-.4s-1-.8-1.2-1.4-.5-1.3-.5-2 .2-1.6.5-2.2.7-1 1.3-1.3 1.2-.5 1.9-.5 1.4.1 2 .5a3.3 3.3 0 0 1 1.2 1.3c.3.6.5 1.3.5 2.1s-.2 1.5-.5 2a3.3 3.3 0 0 1-1.3 1.5c-.5.3-1.2.4-1.9.4zm0-1.4c.4 0 .8-.1 1-.3s.5-.6.6-1a3.7 3.7 0 0 0 .2-1.2c0-.5 0-.9-.2-1.3l-.6-.9c-.3-.3-.6-.3-1-.3s-.7.1-1 .3-.5.6-.6 1a3.8 3.8 0 0 0-.2 1.2c0 .5 0 .9.2 1.3l.6.9c.3.3.6.3 1 .3zm7-8.9V652h-1.8v-10.2h1.8z" class="B"/><use class="D" href="#H"/><path d="M413 652v-10.2h1.8v4.3h4.8v-4.3h1.8V652h-1.8v-4.3h-4.8v4.3H413zm10.3 0v-7.6h1.8v7.6h-1.8zm1-8.7a1 1 0 0 1-.8-.3 1 1 0 0 1-.3-.7c0-.3.1-.5.3-.7a1 1 0 0 1 .7-.3c.3 0 .6.1.8.3s.3.4.3.7a1 1 0 0 1-.3.7 1 1 0 0 1-.8.3zm6 11.7c-.6 0-1.2 0-1.7-.2l-1-.7-.7-1 1.7-.4.3.4.5.4 1 .2c.5 0 .9-.2 1.2-.4s.5-.7.5-1.2v-1.5l-.5.6a2.1 2.1 0 0 1-.7.5l-1 .2c-.7 0-1.2-.1-1.7-.4s-.8-.7-1.1-1.3-.4-1.2-.4-2c0-.9.1-1.6.4-2.2s.7-1 1.1-1.3a3 3 0 0 1 1.6-.4c.5 0 .8 0 1.1.2a2.1 2.1 0 0 1 .7.5l.4.6h.1v-1.2h1.8v7.7c0 .7-.2 1.2-.5 1.6s-.7.8-1.2 1-1.2.3-1.9.3zm0-4.5c.4 0 .7-.1 1-.3s.5-.5.6-.8l.2-1.3c0-.4 0-.9-.2-1.2s-.3-.7-.6-.9-.6-.3-1-.3-.7.1-1 .4l-.6.8a3.5 3.5 0 0 0-.2 1.2c0 .5 0 1 .2 1.3l.6.8c.2.2.6.3 1 .3zm7.2-3v4.5h-1.8v-10.2h1.8v3.9a2.2 2.2 0 0 1 1-1c.3-.3.8-.4 1.4-.4.5 0 1 0 1.4.3s.7.5.9 1l.3 1.5v4.9h-1.8v-4.6c0-.5-.1-.9-.4-1.2s-.6-.4-1.1-.4a1.7 1.7 0 0 0-.9.2 1.5 1.5 0 0 0-.5.6 2 2 0 0 0-.3 1zm14.2 1h1.6l1 1.4.7.8 1.7 2.2H455l-1.1-1.5-.5-.7-1.6-2.1zm5.3-1.6c0 1.1-.2 2-.6 2.8s-1 1.4-1.7 1.8-1.5.6-2.4.6-1.7-.2-2.4-.6-1.3-1-1.7-1.8-.6-1.7-.6-2.8.2-2 .6-2.8 1-1.4 1.7-1.8 1.5-.6 2.4-.6 1.7.2 2.4.6 1.3 1 1.7 1.8.6 1.7.6 2.8zm-1.9 0c0-.8-.1-1.4-.3-2s-.6-.9-1-1.2-1-.4-1.5-.4-1 .2-1.5.4-.7.7-1 1.3-.3 1.1-.3 2 .1 1.3.3 1.9.6.9 1 1.2 1 .4 1.5.4 1-.2 1.5-.4.7-.7 1-1.2.3-1.2.3-2zm8.4 1.9v-4.4h1.8v7.6h-1.7v-1.4h-.1c-.2.5-.5.8-.9 1s-.8.5-1.4.5c-.5 0-1-.1-1.3-.3a2.3 2.3 0 0 1-1-1l-.2-1.6v-4.8h1.8v4.5c0 .5 0 1 .4 1.2s.6.4 1 .4a1.6 1.6 0 0 0 .8-.2c.2 0 .4-.3.6-.5s.2-.6.2-1zm5.9 3.4c-.5 0-1-.1-1.3-.3s-.7-.4-1-.8-.3-.7-.3-1.2.1-.8.3-1.1l.6-.7 1-.4a7.5 7.5 0 0 1 1-.2h1.1l.6-.3.2-.4c0-.4-.1-.6-.3-.9s-.6-.3-1-.3-.8.1-1 .3l-.6.7-1.6-.2a2.7 2.7 0 0 1 1.7-1.9 4.4 4.4 0 0 1 2.6-.1c.4 0 .7.2 1 .4a2.2 2.2 0 0 1 .7.8c.2.4.3.8.3 1.3v5.1h-1.7v-1a2.2 2.2 0 0 1-1.3 1 3 3 0 0 1-1 .2zm.4-1.4c.4 0 .7 0 1-.2l.6-.6c.2-.3.2-.5.2-.7v-1c0 .1-.1.2-.3.2h-.4l-.5.2h-.4l-.8.2-.5.4c-.2.2-.1.3-.1.5 0 .4 0 .6.3.8s.6.2 1 .2zm7.2-9V652h-1.8v-10.2h1.8zm2 10.2v-7.6h1.8v7.6H479zm.9-8.7a1 1 0 0 1-.8-.3c-.2-.2-.3-.4-.3-.7s.1-.5.3-.7a1 1 0 0 1 .8-.3 1 1 0 0 1 .7.3c.2.2.3.4.3.7s0 .5-.3.7a1 1 0 0 1-.7.3zm6.5 1v1.5H482v-1.4h4.4zm-3.3-1.8h1.8v7.2l.1.6c.1.2.2.2.3.2h1l.3 1.4a3.8 3.8 0 0 1-1 .2 3 3 0 0 1-1.3-.2 1.9 1.9 0 0 1-.9-.7c-.2-.3-.3-.7-.3-1.2v-7.5zm6 12.4a3.6 3.6 0 0 1-.7-.1l-.5-.1.4-1.4h.7a.9.9 0 0 0 .5-.1c.2-.1.3-.3.4-.6l.2-.4-2.8-7.8h2l1.7 5.7 1.8-5.7h2l-3.1 8.5c-.1.4-.3.8-.6 1l-.8.7-1.2.3zm10.5-2.9v-10.2h3.8c.8 0 1.4.2 2 .5s.9.6 1.1 1.2.5 1 .5 1.7c0 .6-.2 1.2-.5 1.7a3 3 0 0 1-1.2 1.2 4 4 0 0 1-2 .5h-2.5V647h2.3c.5 0 .8 0 1.1-.2a1.5 1.5 0 0 0 .7-.7l.2-1c0-.3 0-.6-.2-.9l-.7-.6-1.1-.2h-1.7v8.6h-1.8zm8.9 0v-7.6h1.7v1.2h.1a2 2 0 0 1 1.9-1.3h.6v1.7a1.9 1.9 0 0 0-.3-.1h-.5c-.3 0-.6 0-.9.2a1.6 1.6 0 0 0-.6.6l-.2.8v4.5h-1.8zm8.5.1c-.7 0-1.3-.1-1.9-.4s-1-.8-1.3-1.4-.4-1.3-.4-2 .1-1.6.4-2.2.8-1 1.3-1.3 1.2-.5 2-.5 1.3.1 1.9.5 1 .7 1.3 1.3.4 1.3.4 2.1-.1 1.5-.4 2-.8 1.1-1.3 1.5-1.2.4-2 .4zm0-1.4c.5 0 .8-.1 1-.3l.7-1a3.7 3.7 0 0 0 .2-1.2c0-.5 0-.9-.2-1.3l-.6-.9c-.2-.3-.6-.3-1-.3-.5 0-.8.1-1 .3a2 2 0 0 0-.7 1l-.2 1.2c0 .5 0 .9.2 1.3a2 2 0 0 0 .6.9c.3.2.6.3 1 .3zm9-6.3v1.4h-4.3v-1.4h4.3zm-3.3-1.9h1.8v7.2c0 .2 0 .4.2.6l.2.2h1l.3 1.4a3.8 3.8 0 0 1-1 .2 3 3 0 0 1-1.3-.2 1.9 1.9 0 0 1-.8-.7c-.3-.3-.4-.7-.4-1.2v-7.5zm8.1 9.6c-.7 0-1.4-.1-2-.4s-1-.8-1.2-1.4-.5-1.3-.5-2 .2-1.6.5-2.2.7-1 1.3-1.3 1.2-.5 1.9-.5 1.4.1 2 .5 1 .7 1.2 1.3.5 1.3.5 2.1-.2 1.5-.5 2-.7 1.1-1.3 1.5-1.2.4-1.9.4zm0-1.4c.4 0 .8-.1 1-.3s.5-.6.6-1a3.7 3.7 0 0 0 .2-1.2c0-.5 0-.9-.2-1.3l-.6-.9c-.3-.3-.6-.3-1-.3s-.7.1-1 .3a2 2 0 0 0-.6 1c-.2.3-.2.7-.2 1.2l.2 1.3a2 2 0 0 0 .6.9c.3.2.6.3 1 .3zm8.5 1.4c-.7 0-1.4-.1-2-.5a3.4 3.4 0 0 1-1.2-1.3c-.3-.6-.4-1.3-.4-2s.1-1.5.4-2.1.7-1.1 1.3-1.4a4.1 4.1 0 0 1 3.6-.2 2.8 2.8 0 0 1 1.1 1c.3.4.5.9.5 1.4h-1.7a1.6 1.6 0 0 0-.5-1c-.3-.2-.6-.3-1-.3s-.8.1-1 .3l-.7.9c-.2.4-.2.8-.2 1.3s0 1 .2 1.3l.7.9a1.6 1.6 0 0 0 1 .3 1.6 1.6 0 0 0 .6-.2 1.4 1.4 0 0 0 .6-.4l.3-.7h1.7c0 .5-.2 1-.5 1.4s-.6.8-1.1 1-1 .3-1.7.3zm8.1 0c-.7 0-1.4-.1-2-.4s-1-.8-1.2-1.4-.5-1.3-.5-2 .2-1.6.5-2.2.7-1 1.3-1.3 1.2-.5 1.9-.5 1.4.1 2 .5a3.3 3.3 0 0 1 1.2 1.3c.3.6.5 1.3.5 2.1s-.2 1.5-.5 2a3.3 3.3 0 0 1-1.3 1.5c-.5.3-1.2.4-1.9.4zm0-1.4c.4 0 .8-.1 1-.3s.5-.6.6-1a3.7 3.7 0 0 0 .2-1.2c0-.5 0-.9-.2-1.3l-.6-.9c-.3-.3-.6-.3-1-.3s-.7.1-1 .3a2 2 0 0 0-.6 1 3.8 3.8 0 0 0-.2 1.2c0 .5 0 .9.2 1.3l.6.9c.3.2.6.3 1 .3zm7-8.9V652h-1.8v-10.2h1.8z" class="B"/><use y="-56" class="D" href="#H"/><path d="M436.5 596v-10.2h3.8a4 4 0 0 1 2 .5 2.9 2.9 0 0 1 1.2 1.2c.3.5.4 1 .4 1.7 0 .6-.1 1.2-.4 1.7s-.7 1-1.2 1.2-1.2.5-2 .5h-2.5V591h2.2c.5 0 .9 0 1.2-.2l.6-.7a2 2 0 0 0 .2-1c0-.3 0-.6-.2-.9l-.6-.6-1.2-.2h-1.7v8.6h-1.8zm9 0v-7.6h1.7v1.2c.2-.4.4-.7.8-1a2 2 0 0 1 1.1-.3h.7v1.7l-.4-.1a3.4 3.4 0 0 0-.4 0c-.4 0-.7 0-1 .2a1.6 1.6 0 0 0-.5.6c-.2.2-.3.5-.3.8v4.5h-1.8zm8.5.1c-.7 0-1.4-.1-2-.4s-1-.8-1.2-1.4-.5-1.3-.5-2 .2-1.6.5-2.2.7-1 1.3-1.3 1.2-.5 1.9-.5 1.4.1 2 .5 1 .7 1.2 1.3.5 1.3.5 2.1-.2 1.5-.5 2-.7 1.1-1.3 1.5-1.2.4-1.9.4zm0-1.4c.4 0 .8-.1 1-.3s.5-.6.6-1a3.7 3.7 0 0 0 .2-1.2c0-.5 0-.9-.2-1.3l-.6-.9c-.3-.3-.6-.3-1-.3s-.7.1-1 .3a2 2 0 0 0-.6 1c-.2.3-.2.7-.2 1.2l.2 1.3a2 2 0 0 0 .6.9c.3.2.6.3 1 .3zm9-6.3v1.4h-4.4v-1.4h4.4zm-3.3-1.9h1.8v7.2l.1.6c.1.2.2.2.3.2a1.1 1.1 0 0 0 .4 0h.5l.3 1.4a3.8 3.8 0 0 1-1 .2 3 3 0 0 1-1.2-.2 1.9 1.9 0 0 1-.9-.7c-.2-.3-.3-.7-.3-1.2v-7.5zm8 9.6c-.7 0-1.3-.1-1.9-.4s-1-.8-1.3-1.4-.4-1.3-.4-2 .1-1.6.4-2.2.8-1 1.3-1.3 1.2-.5 2-.5 1.3.1 1.9.5a3.3 3.3 0 0 1 1.3 1.3c.3.6.4 1.3.4 2.1s-.1 1.5-.4 2a3.3 3.3 0 0 1-1.3 1.5c-.6.3-1.2.4-2 .4zm0-1.4c.5 0 .8-.1 1-.3s.6-.6.7-1a3.7 3.7 0 0 0 .2-1.2c0-.5 0-.9-.2-1.3l-.6-.9c-.3-.3-.6-.3-1-.3s-.8.1-1 .3a2 2 0 0 0-.7 1 3.8 3.8 0 0 0-.2 1.2c0 .5 0 .9.2 1.3a2 2 0 0 0 .6.9c.3.2.7.3 1 .3zm8.6 1.4a3.4 3.4 0 0 1-3.2-1.9 4.2 4.2 0 0 1 0-4c.3-.6.7-1.1 1.2-1.4s1.2-.5 2-.5c.6 0 1.1 0 1.6.3s.9.6 1.2 1 .4.9.4 1.4h-1.7a1.6 1.6 0 0 0-.5-1c-.2-.2-.6-.3-1-.3a1.6 1.6 0 0 0-1 .3c-.3.2-.5.5-.6.9l-.3 1.3c0 .5.1 1 .3 1.3l.6.9a1.6 1.6 0 0 0 1 .3c.3 0 .5 0 .7-.2a1.4 1.4 0 0 0 .5-.4c.2-.2.3-.4.3-.7h1.7c0 .5-.2 1-.4 1.4s-.7.8-1.2 1-1 .3-1.6.3zm8 0a4 4 0 0 1-1.9-.4 3.3 3.3 0 0 1-1.3-1.4c-.3-.6-.4-1.3-.4-2s.1-1.6.4-2.2.8-1 1.3-1.3 1.2-.5 2-.5 1.3.1 1.9.5 1 .7 1.3 1.3.4 1.3.4 2.1-.1 1.5-.4 2-.8 1.1-1.3 1.5-1.2.4-2 .4zm0-1.4c.5 0 .8-.1 1-.3s.6-.6.7-1a3.7 3.7 0 0 0 .2-1.2c0-.5 0-.9-.2-1.3l-.6-.9c-.2-.3-.6-.3-1-.3-.5 0-.8.1-1 .3l-.7 1a3.8 3.8 0 0 0-.2 1.2c0 .5 0 .9.2 1.3l.6.9c.2.3.6.3 1 .3zm7-8.9V596h-1.8v-10.2h1.8zm6.8 10.2h-2l3.6-10.2h2.2l3.6 10.2h-2l-2.7-8-2.8 8zm0-4h5.4v1.5H498V592zm8.7 4v-7.6h1.7v1.2h.1a2 2 0 0 1 1.9-1.3h.6v1.7a1.9 1.9 0 0 0-.3-.1h-.5c-.3 0-.6 0-.9.2a1.6 1.6 0 0 0-.6.6l-.2.8v4.5h-1.8zm7.2-2.4v-2.2h.3l2.7-3h2.1l-3.4 3.7h-.3l-1.4 1.5zm-1.7 2.4v-10.2h1.8V596h-1.8zm4.8 0-2.4-3.5 1.2-1.2 3.4 4.7H517zm6.7 0v-1.3l3.5-3.5.8-1 .6-.7a1.9 1.9 0 0 0 .1-.8c0-.3 0-.6-.2-.8a1.4 1.4 0 0 0-.6-.5 2 2 0 0 0-.9-.2c-.3 0-.6 0-.8.2l-.6.6-.2.9h-1.8c0-.7.2-1.2.5-1.7s.7-.9 1.2-1.1a4.4 4.4 0 0 1 3.6 0c.6.3.9.6 1.2 1s.4 1 .4 1.5c0 .4 0 .8-.2 1.2l-.8 1.2-1.5 1.6-1.8 1.8h4.4v1.6h-7z" class="B"/><use class="D" href="#I"/><path d="M613 652v-10.2h1.8v4.3h4.8v-4.3h1.8V652h-1.8v-4.3h-4.8v4.3H613zm10.3 0v-7.6h1.8v7.6h-1.8zm1-8.7a1 1 0 0 1-.8-.3 1 1 0 0 1-.3-.7c0-.3.1-.5.3-.7a1 1 0 0 1 .7-.3c.3 0 .6.1.8.3s.3.4.3.7a1 1 0 0 1-.3.7 1 1 0 0 1-.8.3zm6 11.7c-.6 0-1.2 0-1.7-.2l-1-.7-.7-1 1.7-.4.3.4.5.4 1 .2c.5 0 .9-.2 1.2-.4s.5-.7.5-1.2v-1.5l-.5.6a2.1 2.1 0 0 1-.7.5l-1 .2c-.7 0-1.2-.1-1.7-.4s-.8-.7-1.1-1.3-.4-1.2-.4-2c0-.9.1-1.6.4-2.2s.7-1 1.1-1.3a3 3 0 0 1 1.6-.4c.5 0 .8 0 1.1.2a2.1 2.1 0 0 1 .7.5l.4.6h.1v-1.2h1.8v7.7c0 .7-.2 1.2-.5 1.6s-.7.8-1.2 1-1.2.3-1.9.3zm0-4.5c.4 0 .7-.1 1-.3s.5-.5.6-.8l.2-1.3c0-.4 0-.9-.2-1.2s-.3-.7-.6-.9-.6-.3-1-.3-.7.1-1 .4l-.6.8a3.5 3.5 0 0 0-.2 1.2c0 .5 0 1 .2 1.3l.6.8c.2.2.6.3 1 .3zm7.2-3v4.5h-1.8v-10.2h1.8v3.9a2.2 2.2 0 0 1 1-1c.3-.3.8-.4 1.4-.4.5 0 1 0 1.4.3s.7.5.9 1l.3 1.5v4.9h-1.8v-4.6c0-.5-.1-.9-.4-1.2s-.6-.4-1.1-.4a1.7 1.7 0 0 0-.9.2 1.5 1.5 0 0 0-.5.6 2 2 0 0 0-.3 1zm14.2 1h1.6l1 1.4.7.8 1.7 2.2H655l-1.1-1.5-.5-.7-1.6-2.1zm5.3-1.6c0 1.1-.2 2-.6 2.8s-1 1.4-1.7 1.8-1.5.6-2.4.6-1.7-.2-2.4-.6-1.3-1-1.7-1.8-.6-1.7-.6-2.8.2-2 .6-2.8 1-1.4 1.7-1.8 1.5-.6 2.4-.6 1.7.2 2.4.6 1.3 1 1.7 1.8.6 1.7.6 2.8zm-1.9 0c0-.8-.1-1.4-.3-2s-.6-.9-1-1.2-1-.4-1.5-.4-1 .2-1.5.4-.7.7-1 1.3-.3 1.1-.3 2 .1 1.3.3 1.9.6.9 1 1.2 1 .4 1.5.4 1-.2 1.5-.4.7-.7 1-1.2.3-1.2.3-2zm8.4 1.9v-4.4h1.8v7.6h-1.7v-1.4h-.1c-.2.5-.5.8-.9 1s-.8.5-1.4.5c-.5 0-1-.1-1.3-.3a2.3 2.3 0 0 1-1-1l-.2-1.6v-4.8h1.8v4.5c0 .5 0 1 .4 1.2s.6.4 1 .4a1.6 1.6 0 0 0 .8-.2c.2 0 .4-.3.6-.5s.2-.6.2-1zm5.9 3.4c-.5 0-1-.1-1.3-.3s-.7-.4-1-.8-.3-.7-.3-1.2.1-.8.3-1.1l.6-.7 1-.4a7.5 7.5 0 0 1 1-.2h1.1l.6-.3.2-.4c0-.4-.1-.6-.3-.9s-.6-.3-1-.3-.8.1-1 .3l-.6.7-1.6-.2a2.7 2.7 0 0 1 1.7-1.9 4.4 4.4 0 0 1 2.6-.1c.4 0 .7.2 1 .4a2.2 2.2 0 0 1 .7.8c.2.4.3.8.3 1.3v5.1h-1.7v-1a2.2 2.2 0 0 1-1.3 1 3 3 0 0 1-1 .2zm.4-1.4c.4 0 .7 0 1-.2l.6-.6c.2-.3.2-.5.2-.7v-1c0 .1-.1.2-.3.2h-.4l-.5.2h-.4l-.8.2-.5.4c-.2.2-.1.3-.1.5 0 .4 0 .6.3.8s.6.2 1 .2zm7.2-9V652h-1.8v-10.2h1.8zm2 10.2v-7.6h1.8v7.6H679zm.9-8.7a1 1 0 0 1-.8-.3c-.2-.2-.3-.4-.3-.7s.1-.5.3-.7a1 1 0 0 1 .8-.3 1 1 0 0 1 .7.3c.2.2.3.4.3.7s0 .5-.3.7a1 1 0 0 1-.7.3zm6.5 1v1.5H682v-1.4h4.4zm-3.3-1.8h1.8v7.2l.1.6c.1.2.2.2.3.2h1l.3 1.4a3.8 3.8 0 0 1-1 .2 3 3 0 0 1-1.3-.2 1.9 1.9 0 0 1-.9-.7c-.2-.3-.3-.7-.3-1.2v-7.5zm6 12.4a3.6 3.6 0 0 1-.7-.1l-.5-.1.4-1.4h.7a.9.9 0 0 0 .5-.1c.2-.1.3-.3.4-.6l.2-.4-2.8-7.8h2l1.7 5.7 1.8-5.7h2l-3.1 8.5c-.1.4-.3.8-.6 1l-.8.7-1.2.3zm10.5-2.9v-10.2h3.8c.8 0 1.4.2 2 .5s.9.6 1.1 1.2.5 1 .5 1.7c0 .6-.2 1.2-.5 1.7a3 3 0 0 1-1.2 1.2 4 4 0 0 1-2 .5h-2.5V647h2.3c.5 0 .8 0 1.1-.2a1.5 1.5 0 0 0 .7-.7l.2-1c0-.3 0-.6-.2-.9l-.7-.6-1.1-.2h-1.7v8.6h-1.8zm8.9 0v-7.6h1.7v1.2h.1a2 2 0 0 1 1.9-1.3h.6v1.7a1.9 1.9 0 0 0-.3-.1h-.5c-.3 0-.6 0-.9.2a1.6 1.6 0 0 0-.6.6l-.2.8v4.5h-1.8zm8.5.1c-.7 0-1.3-.1-1.9-.4s-1-.8-1.3-1.4-.4-1.3-.4-2 .1-1.6.4-2.2.8-1 1.3-1.3 1.2-.5 2-.5 1.3.1 1.9.5 1 .7 1.3 1.3.4 1.3.4 2.1-.1 1.5-.4 2-.8 1.1-1.3 1.5-1.2.4-2 .4zm0-1.4c.5 0 .8-.1 1-.3l.7-1a3.7 3.7 0 0 0 .2-1.2c0-.5 0-.9-.2-1.3l-.6-.9c-.2-.3-.6-.3-1-.3-.5 0-.8.1-1 .3a2 2 0 0 0-.7 1l-.2 1.2c0 .5 0 .9.2 1.3a2 2 0 0 0 .6.9c.3.2.6.3 1 .3zm9-6.3v1.4h-4.3v-1.4h4.3zm-3.3-1.9h1.8v7.2c0 .2 0 .4.2.6l.2.2h1l.3 1.4a3.8 3.8 0 0 1-1 .2 3 3 0 0 1-1.3-.2 1.9 1.9 0 0 1-.8-.7c-.3-.3-.4-.7-.4-1.2v-7.5zm8.1 9.6c-.7 0-1.4-.1-2-.4s-1-.8-1.2-1.4-.5-1.3-.5-2 .2-1.6.5-2.2.7-1 1.3-1.3 1.2-.5 1.9-.5 1.4.1 2 .5 1 .7 1.2 1.3.5 1.3.5 2.1-.2 1.5-.5 2-.7 1.1-1.3 1.5-1.2.4-1.9.4zm0-1.4c.4 0 .8-.1 1-.3s.5-.6.6-1a3.7 3.7 0 0 0 .2-1.2c0-.5 0-.9-.2-1.3l-.6-.9c-.3-.3-.6-.3-1-.3s-.7.1-1 .3a2 2 0 0 0-.6 1c-.2.3-.2.7-.2 1.2l.2 1.3a2 2 0 0 0 .6.9c.3.2.6.3 1 .3zm8.5 1.4c-.7 0-1.4-.1-2-.5a3.4 3.4 0 0 1-1.2-1.3c-.3-.6-.4-1.3-.4-2s.1-1.5.4-2.1.7-1.1 1.3-1.4a4.1 4.1 0 0 1 3.6-.2 2.8 2.8 0 0 1 1.1 1c.3.4.5.9.5 1.4h-1.7a1.6 1.6 0 0 0-.5-1c-.3-.2-.6-.3-1-.3s-.8.1-1 .3l-.7.9c-.2.4-.2.8-.2 1.3s0 1 .2 1.3l.7.9a1.6 1.6 0 0 0 1 .3 1.6 1.6 0 0 0 .6-.2 1.4 1.4 0 0 0 .6-.4l.3-.7h1.7c0 .5-.2 1-.5 1.4s-.6.8-1.1 1-1 .3-1.7.3zm8.1 0c-.7 0-1.4-.1-2-.4s-1-.8-1.2-1.4-.5-1.3-.5-2 .2-1.6.5-2.2.7-1 1.3-1.3 1.2-.5 1.9-.5 1.4.1 2 .5a3.3 3.3 0 0 1 1.2 1.3c.3.6.5 1.3.5 2.1s-.2 1.5-.5 2a3.3 3.3 0 0 1-1.3 1.5c-.5.3-1.2.4-1.9.4zm0-1.4c.4 0 .8-.1 1-.3s.5-.6.6-1a3.7 3.7 0 0 0 .2-1.2c0-.5 0-.9-.2-1.3l-.6-.9c-.3-.3-.6-.3-1-.3s-.7.1-1 .3a2 2 0 0 0-.6 1 3.8 3.8 0 0 0-.2 1.2c0 .5 0 .9.2 1.3l.6.9c.3.2.6.3 1 .3zm7-8.9V652h-1.8v-10.2h1.8z" class="B"/><use y="-56" class="D" href="#I"/><path d="M636.5 596v-10.2h3.8a4 4 0 0 1 2 .5 2.9 2.9 0 0 1 1.2 1.2c.3.5.4 1 .4 1.7 0 .6-.1 1.2-.4 1.7s-.7 1-1.2 1.2-1.2.5-2 .5h-2.5V591h2.2c.5 0 .9 0 1.2-.2l.6-.7a2 2 0 0 0 .2-1c0-.3 0-.6-.2-.9l-.6-.6-1.2-.2h-1.7v8.6h-1.8zm9 0v-7.6h1.7v1.2c.2-.4.4-.7.8-1a2 2 0 0 1 1.1-.3h.7v1.7l-.4-.1a3.4 3.4 0 0 0-.4 0c-.4 0-.7 0-1 .2a1.6 1.6 0 0 0-.5.6c-.2.2-.3.5-.3.8v4.5h-1.8zm8.5.1c-.7 0-1.4-.1-2-.4s-1-.8-1.2-1.4-.5-1.3-.5-2 .2-1.6.5-2.2.7-1 1.3-1.3 1.2-.5 1.9-.5 1.4.1 2 .5 1 .7 1.2 1.3.5 1.3.5 2.1-.2 1.5-.5 2-.7 1.1-1.3 1.5-1.2.4-1.9.4zm0-1.4c.4 0 .8-.1 1-.3s.5-.6.6-1a3.7 3.7 0 0 0 .2-1.2c0-.5 0-.9-.2-1.3l-.6-.9c-.3-.3-.6-.3-1-.3s-.7.1-1 .3a2 2 0 0 0-.6 1c-.2.3-.2.7-.2 1.2l.2 1.3a2 2 0 0 0 .6.9c.3.2.6.3 1 .3zm9-6.3v1.4h-4.4v-1.4h4.4zm-3.3-1.9h1.8v7.2l.1.6c.1.2.2.2.3.2a1.1 1.1 0 0 0 .4 0h.5l.3 1.4a3.8 3.8 0 0 1-1 .2 3 3 0 0 1-1.2-.2 1.9 1.9 0 0 1-.9-.7c-.2-.3-.3-.7-.3-1.2v-7.5zm8 9.6c-.7 0-1.3-.1-1.9-.4s-1-.8-1.3-1.4-.4-1.3-.4-2 .1-1.6.4-2.2.8-1 1.3-1.3 1.2-.5 2-.5 1.3.1 1.9.5a3.3 3.3 0 0 1 1.3 1.3c.3.6.4 1.3.4 2.1s-.1 1.5-.4 2a3.3 3.3 0 0 1-1.3 1.5c-.6.3-1.2.4-2 .4zm0-1.4c.5 0 .8-.1 1-.3s.6-.6.7-1a3.7 3.7 0 0 0 .2-1.2c0-.5 0-.9-.2-1.3l-.6-.9c-.3-.3-.6-.3-1-.3s-.8.1-1 .3a2 2 0 0 0-.7 1 3.8 3.8 0 0 0-.2 1.2c0 .5 0 .9.2 1.3a2 2 0 0 0 .6.9c.3.2.7.3 1 .3zm8.6 1.4a3.4 3.4 0 0 1-3.2-1.9 4.2 4.2 0 0 1 0-4c.3-.6.7-1.1 1.2-1.4s1.2-.5 2-.5c.6 0 1.1 0 1.6.3s.9.6 1.2 1 .4.9.4 1.4h-1.7a1.6 1.6 0 0 0-.5-1c-.2-.2-.6-.3-1-.3a1.6 1.6 0 0 0-1 .3c-.3.2-.5.5-.6.9l-.3 1.3c0 .5.1 1 .3 1.3l.6.9a1.6 1.6 0 0 0 1 .3c.3 0 .5 0 .7-.2a1.4 1.4 0 0 0 .5-.4c.2-.2.3-.4.3-.7h1.7c0 .5-.2 1-.4 1.4s-.7.8-1.2 1-1 .3-1.6.3zm8 0a4 4 0 0 1-1.9-.4 3.3 3.3 0 0 1-1.3-1.4c-.3-.6-.4-1.3-.4-2s.1-1.6.4-2.2.8-1 1.3-1.3 1.2-.5 2-.5 1.3.1 1.9.5 1 .7 1.3 1.3.4 1.3.4 2.1-.1 1.5-.4 2-.8 1.1-1.3 1.5-1.2.4-2 .4zm0-1.4c.5 0 .8-.1 1-.3s.6-.6.7-1a3.7 3.7 0 0 0 .2-1.2c0-.5 0-.9-.2-1.3l-.6-.9c-.2-.3-.6-.3-1-.3-.5 0-.8.1-1 .3l-.7 1a3.8 3.8 0 0 0-.2 1.2c0 .5 0 .9.2 1.3l.6.9c.2.3.6.3 1 .3zm7-8.9V596h-1.8v-10.2h1.8zm6.8 10.2h-2l3.6-10.2h2.2l3.6 10.2h-2l-2.7-8-2.8 8zm0-4h5.4v1.5H698V592zm8.7 4v-7.6h1.7v1.2h.1a2 2 0 0 1 1.9-1.3h.6v1.7a1.9 1.9 0 0 0-.3-.1h-.5c-.3 0-.6 0-.9.2a1.6 1.6 0 0 0-.6.6l-.2.8v4.5h-1.8zm7.2-2.4v-2.2h.3l2.7-3h2.1l-3.4 3.7h-.3l-1.4 1.5zm-1.7 2.4v-10.2h1.8V596h-1.8zm4.8 0-2.4-3.5 1.2-1.2 3.4 4.7H717zm10.3.1c-.7 0-1.3 0-1.9-.3s-1-.6-1.3-1-.5-1-.5-1.6h1.9a1.2 1.2 0 0 0 .2.8 1.6 1.6 0 0 0 .7.4 2.4 2.4 0 0 0 1 .2c.3 0 .6 0 .9-.2l.6-.5c.1-.2.3-.5.3-.8a1.4 1.4 0 0 0-.3-.8c-.1-.3-.4-.5-.7-.6l-1-.2h-1v-1.4h1c.3 0 .6 0 .9-.2l.6-.5c.2-.2.2-.5.2-.8 0-.3 0-.5-.2-.7a1.3 1.3 0 0 0-.5-.5c-.3-.2-.5-.2-.9-.2l-.8.1-.7.5c-.2.2-.2.5-.2.8h-1.8c0-.6.2-1.1.5-1.5s.7-.8 1.3-1 1-.4 1.8-.4c.6 0 1.2.1 1.7.4s1 .6 1.2 1 .4.9.4 1.4a2.2 2.2 0 0 1-1.8 2.2c.7.2 1.2.4 1.6.9s.6 1 .6 1.6c0 .5-.2 1-.5 1.5s-.8.8-1.3 1-1.2.4-2 .4z" class="B"/><path d="M787 576a8 8 0 0 1 8-8h110a8 8 0 0 1 8 8v88a8 8 0 0 1-8 8H795a8 8 0 0 1-8-8v-88z" class="C"/><path d="M823.4 614v-10.2h3.8c.8 0 1.5.2 2 .4s1 .7 1.2 1.2.4 1 .4 1.7-.1 1.2-.4 1.7-.7.8-1.2 1-1.2.5-2 .5h-2.7v-1.6h2.5l1-.1c.3-.1.6-.4.7-.6l.3-1c0-.3-.1-.6-.3-.8l-.6-.6-1.1-.2h-1.7v8.6h-1.9zm5.3-4.6 2.5 4.6h-2l-2.5-4.6h2zm7 4.7c-.7 0-1.4-.1-2-.4s-1-.8-1.2-1.4-.5-1.3-.5-2c0-.9.2-1.5.5-2.1s.7-1.1 1.2-1.4 1.2-.5 2-.5c.4 0 .8 0 1.3.2l1 .7c.4.3.7.7.8 1.2s.3 1 .3 1.7v.6H833v-1.2h4.5c0-.4 0-.7-.2-1l-.6-.6c-.2-.2-.6-.2-1-.2-.3 0-.6 0-1 .2s-.4.4-.6.7-.2.6-.2 1v1c0 .5 0 .9.2 1.2a1.7 1.7 0 0 0 .7.7c.3.2.7.2 1 .2h.8c.3 0 .4-.2.5-.4l.4-.5 1.6.2a2.6 2.6 0 0 1-.6 1.1c-.3.3-.6.6-1.1.8s-1 .2-1.6.2zm11-5.7-1.7.2-.2-.5-.5-.4h-.7l-1 .1a1 1 0 0 0-.3.7.7.7 0 0 0 .3.5c.1.2.4.3.8.4l1.3.2c.7.2 1.2.4 1.6.8s.5.8.5 1.3-.1 1-.4 1.3-.6.6-1.1.8-1 .3-1.7.3c-1 0-1.7-.1-2.3-.5s-.9-1-1-1.7l1.8-.2c0 .4.2.7.5.8s.6.3 1 .3.7-.1 1-.3.4-.4.4-.6a.7.7 0 0 0-.3-.6l-.7-.3-1.3-.3c-.8-.1-1.3-.4-1.7-.7s-.5-.9-.5-1.4c0-.5.1-.9.4-1.2s.6-.7 1-.8 1-.3 1.7-.3a4 4 0 0 1 2.1.5 2.4 2.4 0 0 1 1 1.6zm5 5.7c-.8 0-1.4-.1-2-.4s-1-.8-1.3-1.4-.4-1.3-.4-2c0-.9.1-1.5.4-2.1s.8-1.1 1.3-1.4 1.2-.5 2-.5c.4 0 .8 0 1.2.2a3 3 0 0 1 1.2.7c.3.3.5.7.7 1.2s.3 1 .3 1.7v.6h-6.3v-1.2h4.6c0-.4-.1-.7-.3-1l-.6-.6c-.3-.2-.5-.2-.9-.2a1.8 1.8 0 0 0-1 .2 1.8 1.8 0 0 0-.6.7 2 2 0 0 0-.2 1v1c0 .5 0 .9.2 1.2l.7.7c.3.2.6.2 1 .2h.7c.2 0 .4-.2.6-.4l.3-.5 1.7.2a2.6 2.6 0 0 1-.6 1.1l-1.1.8c-.4.2-1 .2-1.6.2zm5-.1v-7.6h1.7v1.2c.2-.4.4-.7.8-1s.7-.3 1.1-.3h.7v1.7a1.9 1.9 0 0 0-.4-.1h-.5c-.3 0-.6 0-.8.2l-.7.6c-.2.3-.2.5-.2.8v4.5h-1.8zm12.5-7.6-2.7 7.6h-2l-2.7-7.6h2l1.7 5.6 1.8-5.6h2zm4.4 7.7a4 4 0 0 1-2-.4 3.2 3.2 0 0 1-1.3-1.4c-.3-.6-.4-1.3-.4-2 0-.9.1-1.5.4-2.1s.8-1.1 1.3-1.4 1.2-.5 1.9-.5c.5 0 1 0 1.3.2a3 3 0 0 1 1.1.7c.4.3.6.7.8 1.2s.3 1 .3 1.7v.6h-6.3v-1.2h4.6c0-.4-.1-.7-.3-1l-.6-.6c-.3-.2-.5-.2-.9-.2a1.8 1.8 0 0 0-1 .2 1.8 1.8 0 0 0-.6.7 2 2 0 0 0-.2 1v1c0 .5 0 .9.2 1.2l.7.7c.3.2.6.2 1 .2h.7c.2 0 .4-.2.6-.4l.3-.5 1.7.2a2.6 2.6 0 0 1-.6 1.1 3 3 0 0 1-1.1.8c-.5.2-1 .2-1.6.2zM830.4 636v-10.2h6.5v1.6h-4.7v2.7h4.2v1.6h-4.2v4.3h-1.8zm12.5-3.2v-4.4h1.8v7.6h-1.8v-1.4a2.3 2.3 0 0 1-.9 1c-.4.4-.9.5-1.4.5-.5 0-1-.1-1.4-.3s-.7-.6-.9-1-.3-1-.3-1.6v-4.8h1.8v4.5c0 .5.1 1 .4 1.2s.6.4 1 .4c.3 0 .6 0 .8-.2l.6-.5c.1-.2.3-.6.3-1zm5.4-1.3v4.5h-1.8v-7.6h1.7v1.3h.1a2.2 2.2 0 0 1 .9-1c.4-.3.8-.4 1.4-.4.5 0 1 0 1.4.3l1 1c.3.4.2 1 .2 1.5v4.9h-1.8v-4.6c0-.5-.1-.9-.4-1.2s-.6-.4-1-.4-.6 0-.9.2a1.4 1.4 0 0 0-.6.6 2 2 0 0 0-.2 1zm9.6 4.6a2.9 2.9 0 0 1-2.7-1.8 5 5 0 0 1-.5-2.1c0-.9.2-1.6.5-2.2s.6-1 1.1-1.3a3 3 0 0 1 2.7-.2l.7.5.4.6v-3.8h1.9V636h-1.8v-1.2h-.1l-.4.6-.7.5-1.1.2zm.5-1.4c.4 0 .7-.1 1-.4l.6-.8c.2-.4.2-.8.2-1.3l-.2-1.3-.6-.9c-.2-.2-.6-.3-1-.3s-.7.1-1 .4-.5.5-.6.8l-.2 1.3c0 .5 0 .9.2 1.3l.6.8c.3.2.6.4 1 .4zm11.5-4.3-1.6.2c0-.2-.2-.4-.3-.5l-.4-.4h-.7c-.4 0-.7 0-1 .2s-.4.3-.4.6a.7.7 0 0 0 .3.5l.8.4 1.3.2c.8.2 1.3.4 1.6.8s.6.8.6 1.3-.2 1-.4 1.3-.7.6-1.2.8-1 .3-1.7.3c-1 0-1.7-.1-2.2-.5s-1-1-1-1.7l1.7-.2c0 .4.2.7.5.8s.6.3 1 .3.8-.1 1-.3.4-.4.4-.6a.7.7 0 0 0-.2-.6l-.8-.3-1.3-.3c-.7-.1-1.3-.4-1.6-.7s-.5-.9-.5-1.4c0-.5 0-.9.3-1.2s.7-.7 1.1-.8 1-.3 1.6-.3c1 0 1.6.2 2.2.5a2.4 2.4 0 0 1 1 1.6z" class="B"/><path stroke="#777576" stroke-dasharray="1 8" stroke-linecap="round" stroke-width="2" d="M484 523v44m0-58h0c0 16 13 29 29 29h163a28.5 28.5 0 0 1 28.5 28.5h0m-221-57.5h0c0 16-13 29-29 29h-163a28.5 28.5 0 0 0-28.5 28.5h0"/><path fill="#777576" d="M484 126a1 1 0 1 0-2 0h2zm-1.7 121.7a1 1 0 0 0 1.4 0l6.4-6.4a1 1 0 0 0-1.4-1.4l-5.7 5.7-5.7-5.7a1 1 0 0 0-1.4 1.4l6.4 6.4zm-.3-121.2a1 1 0 1 0 2 0h-2zm2 8.3a1 1 0 1 0-2 0h2zm-2 1a1 1 0 1 0 2 0h-2zm2 8.3a1 1 0 1 0-2 0h2zm-2 1a1 1 0 1 0 2 0h-2zm2 8.3a1 1 0 1 0-2 0h2zm-2 1a1 1 0 1 0 2 0h-2zm2 8.3a1 1 0 1 0-2 0h2zm-2 1a1 1 0 1 0 2 0h-2zm2 8.3a1 1 0 1 0-2 0h2zm-2 1a1 1 0 1 0 2 0h-2zm2 8.3a1 1 0 1 0-2 0h2zm-2 1a1 1 0 1 0 2 0h-2zm2 8.3a1 1 0 1 0-2 0h2zm-2 1a1 1 0 1 0 2 0h-2zm2 8.3a1 1 0 1 0-2 0h2zm-2 1a1 1 0 1 0 2 0h-2zm2 8.4a1 1 0 1 0-2 0h2zm-2 1a1 1 0 1 0 2 0h-2zm2 8.3a1 1 0 1 0-2 0h2zm-2 1a1 1 0 1 0 2 0h-2zm2 8.3a1 1 0 1 0-2 0h2zm-2 1a1 1 0 1 0 2 0h-2zm2 8.3a1 1 0 1 0-2 0h2zm-2 1a1 1 0 1 0 2 0h-2zm2 8.3a1 1 0 1 0-2 0h2zM482 126v.5h2v-.5h-2zm0 8.8v1h2v-1h-2zm0 9.3v1h2v-1h-2zm0 9.3v1h2v-1h-2zm0 9.3v1h2v-1h-2zm0 9.3v1h2v-1h-2zm0 9.3v1h2v-1h-2zm0 9.3v1h2v-1h-2zm0 9.3v1h2v-1h-2zm0 9.4v1h2v-1h-2zm0 9.3v1h2v-1h-2zm0 9.3v1h2v-1h-2zm0 9.3v1h2v-1h-2zm0 9.3v.5h2v-.5h-2zm-98.3-121.2a1 1 0 0 0-1.4 0l-6.4 6.4a1 1 0 0 0 1.4 1.4l5.7-5.7 5.7 5.7a1 1 0 0 0 1.4-1.4l-6.4-6.4zM203.3 419.7a1 1 0 0 0 1.4 0l6.4-6.4a1 1 0 0 0-1.4-1.4l-5.7 5.7-5.7-5.7a1 1 0 0 0-1.4 1.4l6.4 6.4zm1.7-1.2a1 1 0 1 0-2 0h2zm-2-8.2a1 1 0 1 0 2 0h-2zm2-1a1 1 0 1 0-2 0h2zm-2-8.2a1 1 0 1 0 2 0h-2zm2-1a1 1 0 1 0-2 0h2zm-2-8.2a1 1 0 1 0 2 0h-2zm2-1a1 1 0 1 0-2 0h2zm-2-8.2a1 1 0 1 0 2 0h-2zm2-1a1 1 0 1 0-2 0h2zm-2-8.2a1 1 0 1 0 2 0h-2zm2-1a1 1 0 1 0-2 0h2zm-2-8.2a1 1 0 1 0 2 0h-2zm2-1a1 1 0 1 0-2 0h2zm-2-8.2a1 1 0 1 0 2 0h-2zm2-1a1 1 0 1 0-2 0h2zm-2-8.2a1 1 0 1 0 2 0h-2zm2-1a1 1 0 1 0-2 0h2zm-2-8.1a1 1 0 1 0 2 0h-2zm2-1a1 1 0 1 0-2 0h2zm-2-8.2a1 1 0 1 0 2 0h-2zm2-1a1 1 0 1 0-2 0h2zm-2-8.2a1 1 0 1 0 2 0h-2zm2-1a1 1 0 1 0-2 0h2zm-2-8.2a1 1 0 1 0 2 0h-2zm2-1a1 1 0 1 0-2 0h2zm-2-8.2a1 1 0 1 0 2 0h-2zm2-1a1 1 0 1 0-2 0h2zm-2-8.2a1 1 0 1 0 2 0h-2zm2-1a1 1 0 1 0-2 0h2zm-2-8.2a1 1 0 1 0 2 0h-2zm2-1a1 1 0 1 0-2 0h2zm-2-8.2a1 1 0 1 0 2 0h-2zm2-1a1 1 0 1 0-2 0h2zm-2-8.2a1 1 0 1 0 2 0h-2zm2-1a1 1 0 1 0-2 0h2zm-2-8.2a1 1 0 1 0 2 0h-2zm2-1a1 1 0 1 0-2 0h2zm-2-8.2a1 1 0 1 0 2 0h-2zm2-1a1 1 0 1 0-2 0h2zm-2-8.2a1 1 0 1 0 2 0h-2zm2-1a1 1 0 1 0-2 0h2zm-1.3-7.9a1 1 0 0 0 .8 1.2 1 1 0 0 0 1.2-.8l-2-.4zm2.1-.6a1 1 0 0 0-.8-1.2 1 1 0 0 0-1.1.9l2 .3zm.1-8a1 1 0 0 0 1.9.7l-1.9-.7zm2.2-.2a1 1 0 0 0-.6-1.3 1 1 0 0 0-1.3.6l2 .7zm1.5-7.9a1 1 0 1 0 1.7 1l-1.7-1zm2.2.2a1 1 0 0 0-.4-1.4 1 1 0 0 0-1.3.4l1.7 1zm2.8-7.5a1 1 0 0 0 .2 1.4 1 1 0 0 0 1.4-.1l-1.6-1.3zm2.2.5a1 1 0 1 0-1.5-1.3l1.5 1.3zm4-6.9a1 1 0 0 0 1.3 1.6l-1.3-1.6zm2 1a1 1 0 1 0-1.2-1.6l1.3 1.6zm5.3-6.1a1 1 0 0 0 1 1.7l-1-1.7zm1.8 1.2a1 1 0 0 0-1-1.7l1 1.7zm6.2-5a1 1 0 1 0 .7 1.8l-.7-1.9zm1.6 1.5a1 1 0 1 0-.7-2l.7 2zm7-4a1 1 0 1 0 .3 2l-.3-2zm1.3 1.9a1 1 0 1 0-.4-2l.4 2zm7.5-2.7a1 1 0 1 0 0 2v-2zm1 2a1 1 0 1 0 0-2v2zm7.8-2a1 1 0 1 0 0 2v-2zm1 2a1 1 0 1 0 0-2v2zm7.8-2a1 1 0 1 0 0 2v-2zm1 2a1 1 0 1 0 0-2v2zm7.7-2a1 1 0 1 0 0 2v-2zm1 2a1 1 0 1 0 0-2v2zm7.8-2a1 1 0 1 0 0 2v-2zm1 2a1 1 0 1 0 0-2v2zm7.8-2a1 1 0 1 0 0 2v-2zm1 2a1 1 0 1 0 0-2v2zm7.8-2a1 1 0 1 0 0 2v-2zm1 2a1 1 0 1 0 0-2v2zm7.8-2a1 1 0 1 0 0 2v-2zm1 2a1 1 0 1 0 0-2v2zm7.7-2a1 1 0 1 0 0 2v-2zm1 2a1 1 0 1 0 0-2v2zm7.8-2a1 1 0 1 0 0 2v-2zm1 2a1 1 0 1 0 0-2v2zm7.5-2.7a1 1 0 1 0 .4 2l-.4-2zm1.3 1.8a1 1 0 0 0-.3-2l.3 2zm7-3.9a1 1 0 1 0 .7 1.9l-.7-1.9zm1.6 1.6a1 1 0 1 0-.7-2l.7 2zm6.2-5.1a1 1 0 0 0-.4 1.3 1 1 0 0 0 1.4.4l-1-1.7zm1.8 1.2a1 1 0 1 0-1-1.7l1 1.7zm5.2-6a1 1 0 1 0 1.3 1.5l-1.3-1.6zm2 .8a1 1 0 0 0-1.2-1.5l1.3 1.5zm4.1-6.8a1 1 0 0 0 1.5 1.3l-1.5-1.3zm2.2.5a1 1 0 0 0-.2-1.4 1 1 0 0 0-1.4.1l1.6 1.3zm2.8-7.5a1 1 0 0 0 .4 1.4 1 1 0 0 0 1.3-.4l-1.7-1zm2.2.2a1 1 0 1 0-1.7-1l1.7 1zm1.5-7.9a1 1 0 0 0 .6 1.3 1 1 0 0 0 1.3-.6l-2-.7zm2.2-.2a1 1 0 1 0-1.9-.7l1.9.7zm0-8a1 1 0 0 0 .9 1.1 1 1 0 0 0 1.1-.8l-2-.3zm2.2-.6a1 1 0 0 0-.8-1.2 1 1 0 0 0-1.2.8l2 .4zm-1.3-8a1 1 0 1 0 2 0h-2zm2-1a1 1 0 1 0-2 0h2zm-2-8a1 1 0 1 0 2 0h-2zM205 419v-.5h-2v.5h2zm0-8.7v-1h-2v1h2zm0-9.2v-1h-2v1h2zm0-9.2v-1h-2v1h2zm0-9.2v-1h-2v1h2zm0-9.2v-1h-2v1h2zm0-9.2v-1h-2v1h2zm0-9.2v-1h-2v1h2zm0-9.2v-1h-2v1h2zm0-9.1v-1h-2v1h2zm0-9.2v-1h-2v1h2zm0-9.2v-1h-2v1h2zm0-9.2v-1h-2v1h2zm0-9.2v-1h-2v1h2zm0-9.2v-1h-2v1h2zm0-9.2v-1h-2v1h2zm0-9.2v-1h-2v1h2zm0-9.2v-1h-2v1h2zm0-9.2v-1h-2v1h2zm0-9.2v-1h-2v1h2zm0-9.2v-.5h-2v.5h2zm0-.5v-.5h-2v.5h2zm.7-8 .1-1-2-.3-.1 1 2 .3zm2-8.3.4-1-1.9-.6-.3 1 1.9.6zm3.6-7.8.5-.8-1.7-1-.5.8 1.7 1zm4.9-7 .6-.8-1.5-1.3-.7.8 1.6 1.3zm6-6.1.7-.6-1.3-1.6-.8.6 1.3 1.6zm6.9-5 .8-.5-1-1.7-.8.5 1 1.7zm7.7-3.7.9-.3-.7-2-1 .4.8 1.9zm8.2-2.3 1-.1-.4-2-1 .2.4 2zm8.5-.8h.5v-2h-.5v2zm.5 0h.5v-2h-.5v2zm8.3 0h1v-2h-1v2zm8.8 0h1v-2h-1v2zm8.7 0h1v-2h-1v2zm8.8 0h1v-2h-1v2zm8.8 0h1v-2h-1v2zm8.8 0h1v-2h-1v2zm8.8 0h1v-2h-1v2zm8.7 0h1v-2h-1v2zm8.8 0h.5v-2h-.5v2zm.5 0h.5v-2h-.5v2zm8.4-.7 1-.2-.4-2-1 .2.4 2zm8.6-2.2 1-.3-.8-2-.9.4.7 1.9zm8-3.7 1-.5-1-1.7-1 .5 1 1.7zm7.4-5 .8-.7-1.3-1.5-.8.6 1.3 1.6zm6.3-6.2.7-.8-1.6-1.3-.6.8 1.5 1.3zm5.2-7.3.5-.8-1.7-1-.5.8 1.7 1zm3.9-8 .3-1-1.9-.6-.3 1 1.9.6zm2.3-8.6.2-1-2-.3-.1 1 2 .3zm.9-8.8v-.5h-2v.5h2zm0-.5v-.5h-2v.5h2zm0-8.6v-.5h-2v.5h2zm199.3-1.2a1 1 0 0 1 1.4 0l6.4 6.4a1 1 0 0 1-1.4 1.4l-5.7-5.7-5.7 5.7a1 1 0 0 1-1.4-1.4l6.4-6.4zm180.4 294.4a1 1 0 0 1-1.4 0l-6.4-6.4a1 1 0 0 1 1.4-1.4l5.7 5.7 5.7-5.7a1 1 0 0 1 1.4 1.4l-6.4 6.4zm-1.7-1.2a1 1 0 1 1 2 0h-2zm2-8.2a1 1 0 1 1-2 0h2zm-2-1a1 1 0 1 1 2 0h-2zm2-8.2a1 1 0 1 1-2 0h2zm-2-1a1 1 0 1 1 2 0h-2zm2-8.2a1 1 0 1 1-2 0h2zm-2-1a1 1 0 1 1 2 0h-2zm2-8.2a1 1 0 1 1-2 0h2zm-2-1a1 1 0 1 1 2 0h-2zm2-8.2a1 1 0 1 1-2 0h2zm-2-1a1 1 0 1 1 2 0h-2zm2-8.2a1 1 0 1 1-2 0h2zm-2-1a1 1 0 1 1 2 0h-2zm2-8.2a1 1 0 1 1-2 0h2zm-2-1a1 1 0 1 1 2 0h-2zm2-8.2a1 1 0 1 1-2 0h2zm-2-1a1 1 0 1 1 2 0h-2zm2-8.1a1 1 0 1 1-2 0h2zm-2-1a1 1 0 1 1 2 0h-2zm2-8.2a1 1 0 1 1-2 0h2zm-2-1a1 1 0 1 1 2 0h-2zm2-8.2a1 1 0 1 1-2 0h2zm-2-1a1 1 0 1 1 2 0h-2zm2-8.2a1 1 0 1 1-2 0h2zm-2-1a1 1 0 1 1 2 0h-2zm2-8.2a1 1 0 1 1-2 0h2zm-2-1a1 1 0 1 1 2 0h-2zm2-8.2a1 1 0 1 1-2 0h2zm-2-1a1 1 0 1 1 2 0h-2zm2-8.2a1 1 0 1 1-2 0h2zm-2-1a1 1 0 1 1 2 0h-2zm2-8.2a1 1 0 1 1-2 0h2zm-2-1a1 1 0 1 1 2 0h-2zm2-8.2a1 1 0 1 1-2 0h2zm-2-1a1 1 0 1 1 2 0h-2zm2-8.2a1 1 0 1 1-2 0h2zm-2-1a1 1 0 1 1 2 0h-2zm2-8.2a1 1 0 1 1-2 0h2zm-2-1a1 1 0 1 1 2 0h-2zm2-8.2a1 1 0 1 1-2 0h2zm-2-1a1 1 0 1 1 2 0h-2zm1.3-7.9a1 1 0 0 1-.8 1.2 1 1 0 0 1-1.2-.8l2-.4zm-2.1-.6a1 1 0 0 1 .8-1.2 1 1 0 0 1 1.1.9l-2 .3zm-.1-8a1 1 0 0 1-1.9.7l1.9-.7zm-2.2-.2a1 1 0 0 1 .6-1.3 1 1 0 0 1 1.3.6l-2 .7zm-1.5-7.9a1 1 0 1 1-1.7 1l1.7-1zm-2.2.2a1 1 0 0 1 .4-1.4 1 1 0 0 1 1.3.4l-1.7 1zm-2.8-7.5a1 1 0 0 1-.2 1.4 1 1 0 0 1-1.4-.1l1.6-1.3zm-2.2.5a1 1 0 1 1 1.5-1.3l-1.5 1.3zm-4-6.9a1 1 0 0 1-1.3 1.6l1.3-1.6zm-2 1a1 1 0 1 1 1.2-1.6l-1.3 1.6zm-5.3-6.1a1 1 0 1 1-1 1.7l1-1.7zm-1.8 1.2a1 1 0 0 1 1-1.7l-1 1.7zm-6.2-5a1 1 0 1 1-.7 1.8l.7-1.9zm-1.6 1.5a1 1 0 1 1 .7-2l-.7 2zm-7-4a1 1 0 1 1-.3 2l.3-2zm-1.3 1.9a1 1 0 1 1 .4-2l-.4 2zm-7.5-2.7a1 1 0 1 1 0 2v-2zm-1 2a1 1 0 1 1 0-2v2zm-7.8-2a1 1 0 1 1 0 2v-2zm-1 2a1 1 0 1 1 0-2v2zm-7.8-2a1 1 0 1 1 0 2v-2zm-1 2a1 1 0 1 1 0-2v2zm-7.7-2a1 1 0 1 1 0 2v-2zm-1 2a1 1 0 1 1 0-2v2zm-7.8-2a1 1 0 1 1 0 2v-2zm-1 2a1 1 0 1 1 0-2v2zm-7.8-2a1 1 0 1 1 0 2v-2zm-1 2a1 1 0 1 1 0-2v2zm-7.8-2a1 1 0 1 1 0 2v-2zm-1 2a1 1 0 1 1 0-2v2zm-7.8-2a1 1 0 1 1 0 2v-2zm-1 2a1 1 0 1 1 0-2v2zm-7.7-2a1 1 0 1 1 0 2v-2zm-1 2a1 1 0 1 1 0-2v2zm-7.8-2a1 1 0 1 1 0 2v-2zm-1 2a1 1 0 1 1 0-2v2zm-7.5-2.7a1 1 0 1 1-.4 2l.4-2zm-1.3 1.8a1 1 0 1 1 .3-2l-.3 2zm-7-3.9a1 1 0 1 1-.7 1.9l.7-1.9zM616 183a1 1 0 0 1 .7-2l-.7 2zm-6.2-5.1a1 1 0 0 1 .4 1.3 1 1 0 0 1-1.4.4l1-1.7zm-1.8 1.2a1 1 0 1 1 1-1.7l-1 1.7zm-5.2-6a1 1 0 1 1-1.3 1.5l1.3-1.6zm-2 .8a1 1 0 0 1 1.2-1.5l-1.3 1.5zm-4.1-6.8a1 1 0 0 1-1.5 1.3l1.5-1.3zm-2.2.5a1 1 0 0 1 .2-1.4 1 1 0 0 1 1.4.1l-1.6 1.3zm-2.8-7.5a1 1 0 0 1-.4 1.4 1 1 0 0 1-1.3-.4l1.7-1zm-2.2.2a1 1 0 1 1 1.7-1l-1.7 1zm-1.5-7.9a1 1 0 0 1-.6 1.3 1 1 0 0 1-1.3-.6l2-.7zm-2.2-.2a1 1 0 1 1 1.9-.7l-1.9.7zm0-8a1 1 0 0 1-.9 1.1 1 1 0 0 1-1.1-.8l2-.3zm-2.2-.6a1 1 0 0 1 .8-1.2 1 1 0 0 1 1.2.8l-2 .4zm1.3-8a1 1 0 1 1-2 0h2zm-2-1a1 1 0 1 1 2 0h-2zm2-8a1 1 0 1 1-2 0h2zM762 419v-.5h2v.5h-2zm0-8.7v-1h2v1h-2zm0-9.2v-1h2v1h-2zm0-9.2v-1h2v1h-2zm0-9.2v-1h2v1h-2zm0-9.2v-1h2v1h-2zm0-9.2v-1h2v1h-2zm0-9.2v-1h2v1h-2zm0-9.2v-1h2v1h-2zm0-9.1v-1h2v1h-2zm0-9.2v-1h2v1h-2zm0-9.2v-1h2v1h-2zm0-9.2v-1h2v1h-2zm0-9.2v-1h2v1h-2zm0-9.2v-1h2v1h-2zm0-9.2v-1h2v1h-2zm0-9.2v-1h2v1h-2zm0-9.2v-1h2v1h-2zm0-9.2v-1h2v1h-2zm0-9.2v-1h2v1h-2zm0-9.2v-.5h2v.5h-2zm0-.5v-.5h2v.5h-2zm-.7-8-.1-1 2-.3.1 1-2 .3zm-2-8.3-.4-1 1.9-.6.3 1-1.9.6zm-3.6-7.8-.5-.8 1.7-1 .5.8-1.7 1zm-4.9-7-.6-.8 1.5-1.3.7.8-1.6 1.3zm-6-6.1-.7-.6 1.3-1.6.8.6-1.3 1.6zm-6.9-5-.8-.5 1-1.7.8.5-1 1.7zm-7.7-3.7-.9-.3.7-2 1 .4-.8 1.9zm-8.2-2.3-1-.1.4-2 1 .2-.4 2zm-8.5-.8h-.5v-2h.5v2zm-.5 0h-.5v-2h.5v2zm-8.3 0h-1v-2h1v2zm-8.8 0h-1v-2h1v2zm-8.7 0h-1v-2h1v2zm-8.8 0h-1v-2h1v2zm-8.8 0h-1v-2h1v2zm-8.8 0h-1v-2h1v2zm-8.8 0h-1v-2h1v2zm-8.7 0h-1v-2h1v2zm-8.8 0h-.5v-2h.5v2zm-.5 0a41.2 41.2 0 0 1-.5 0v-2h.5v2zm-8.4-.7-1-.2.4-2 1 .2-.4 2zm-8.6-2.2-1-.3.8-2 .9.4-.7 1.9zm-8-3.7-1-.5 1-1.7 1 .5-1 1.7zm-7.4-5-.8-.7 1.3-1.5.8.6-1.3 1.6zm-6.3-6.2-.7-.8 1.6-1.3.6.8-1.5 1.3zM590 161l-.5-.8 1.7-1 .5.8-1.7 1zm-3.9-8-.3-1 1.9-.6.3 1-1.9.6zm-2.3-8.6-.2-1 2-.3.1 1-2 .3zm-.9-8.8v-.5h2v.5h-2zm0-.5v-.5h2v.5h-2zm0-8.6v-.5h2v.5h-2z"/><defs><linearGradient id="A" x1="333.5" x2="632.5" y1="297" y2="297" href="#J"><stop stop-color="#ff49a4" stop-opacity=".5"/><stop offset=".9" stop-color="#b049ff" stop-opacity=".5"/></linearGradient><linearGradient id="B" x1="333.5" x2="632.5" y1="297" y2="297" href="#J"><stop stop-color="#ff49a4"/><stop offset=".9" stop-color="#b049ff"/></linearGradient><linearGradient id="C" x1="115" x2="852" y1="751" y2="751" href="#J"><stop stop-color="#ff49a4" stop-opacity=".5"/><stop offset=".9" stop-color="#b049ff" stop-opacity=".5"/></linearGradient><linearGradient id="D" x1="115" x2="852" y1="751" y2="751" href="#J"><stop stop-color="#ff49a4"/><stop offset=".9" stop-color="#b049ff"/></linearGradient><linearGradient id="E" x1="24" x2="944" y1="483" y2="483" href="#J"><stop stop-color="#ff49a4" stop-opacity=".5"/><stop offset=".9" stop-color="#b049ff" stop-opacity=".5"/></linearGradient><linearGradient id="F" x1="24" x2="944" y1="483" y2="483" href="#J"><stop stop-color="#ff49a4"/><stop offset=".9" stop-color="#b049ff"/></linearGradient><linearGradient id="J" gradientUnits="userSpaceOnUse"/><path id="G" d="M188 576a8 8 0 0 1 8-8h176a8 8 0 0 1 8 8v30a8 8 0 0 1-8 8H196a8 8 0 0 1-8-8v-30z"/><path id="H" d="M388 632a8 8 0 0 1 8-8h176a8 8 0 0 1 8 8v30a8 8 0 0 1-8 8H396a8 8 0 0 1-8-8v-30z"/><path id="I" d="M588 632a8 8 0 0 1 8-8h176a8 8 0 0 1 8 8v30a8 8 0 0 1-8 8H596a8 8 0 0 1-8-8v-30z"/></defs></svg>