<svg xmlns="http://www.w3.org/2000/svg" width="1008" height="838" fill="none"><rect width="742" height="110" x="133.5" y="32" fill="#232323" rx="24"/><path fill="#8d3360" d="M165.5 87a23 23 0 0 1 23-23h238a23 23 0 0 1 0 46h-238a23 23 0 0 1-23-23"/><path fill="#fff" d="M193.7 93.3V80.5h.8v12.8zm2.3-8.7a1.4 1.4 0 0 0-.5-1q-.6-.4-1.4-.4-.6 0-1 .2a1.5 1.5 0 0 0-.6.5 1.1 1.1 0 0 0-.2.7l.1.5.4.4.6.3.6.2 1 .2 1 .4 1 .5q.5.4.7.9.3.5.3 1.1 0 1-.5 1.6-.5.7-1.3 1-.9.5-2.1.5-1.2 0-2-.4-1-.4-1.4-1-.5-.8-.6-1.8h1.9q0 .5.3.9l.7.5a3 3 0 0 0 1 .2q.7 0 1.1-.2.5-.2.7-.5.3-.3.3-.8a1 1 0 0 0-.2-.6 1.7 1.7 0 0 0-.7-.5 6 6 0 0 0-1-.3l-1-.3q-1.3-.3-2-1-.8-.6-.8-1.7 0-1 .5-1.6.5-.7 1.3-1 .9-.4 2-.4 1 0 1.8.4.9.3 1.3 1 .5.7.5 1.5zm9.1 0a1.4 1.4 0 0 0-.6-1q-.5-.4-1.3-.4-.6 0-1 .2a1.5 1.5 0 0 0-.6.5 1.1 1.1 0 0 0-.2.7l.1.5.4.4.6.3.6.2 1 .2 1 .4 1 .5.7.9q.2.5.2 1.1 0 1-.4 1.6-.5.7-1.3 1-.9.5-2.1.5-1.2 0-2-.4-1-.4-1.4-1-.5-.8-.6-1.8h1.8q0 .5.4.9l.7.5a3 3 0 0 0 1 .2q.7 0 1.1-.2.5-.2.7-.5.3-.3.3-.8a1 1 0 0 0-.2-.6 1.7 1.7 0 0 0-.7-.5 6 6 0 0 0-1-.3l-1-.3q-1.3-.3-2-1-.8-.6-.8-1.7 0-1 .5-1.6.5-.7 1.3-1 .9-.4 2-.4 1 0 1.8.4.9.3 1.3 1 .5.7.5 1.5zm10-2.8h1.9v6.7q0 1-.6 1.9a3.5 3.5 0 0 1-1.4 1.3q-1 .5-2.2.5-1.2 0-2.2-.5a3.5 3.5 0 0 1-1.4-1.3q-.5-.8-.5-2v-6.6h1.8v6.5q0 .7.3 1.1.3.5.8.8.5.3 1.2.3t1.2-.3q.5-.3.8-.8.3-.4.3-1zm3.9 0h2.2l3 7.4h.2l3-7.4h2.2V92H228v-7h-.1l-2.8 7h-1.4l-2.8-7v7H219zM231.6 92V81.8h3.9q1.1 0 2 .4.7.4 1.1 1.2.5.7.5 1.7t-.5 1.7q-.4.7-1.2 1-.8.5-2 .5h-2.7v-1.6h2.5l1.1-.1a1.3 1.3 0 0 0 .7-.6q.2-.4.2-1 0-.5-.2-.8a1.4 1.4 0 0 0-.7-.6q-.4-.2-1.1-.2h-1.7V92zm5.3-4.6 2.5 4.6h-2l-2.5-4.6zm6.9-4v-1.6h8.1v1.6h-3.2V92H247v-8.6zm11.8 8.7q-1.1 0-2-.4a3.3 3.3 0 0 1-1.2-1.4q-.5-1-.5-2 0-1.3.5-2.2a3.3 3.3 0 0 1 1.3-1.3q.8-.5 2-.5t1.8.5a3.3 3.3 0 0 1 1.3 1.3q.5 1 .5 2.1t-.5 2a3.3 3.3 0 0 1-1.3 1.5q-.8.4-1.9.4m0-1.4q.6 0 1-.3a2 2 0 0 0 .6-1q.2-.5.2-1.2t-.2-1.3a2 2 0 0 0-.6-.9q-.4-.3-1-.3t-1 .3a2 2 0 0 0-.6 1 3.8 3.8 0 0 0-.2 1.2q0 .7.2 1.3.2.5.6.9.4.3 1 .3m6.8-1.1v-2.2h.3l2.8-3h2l-3.3 3.7h-.4zm-1.6 2.4V81.8h1.8V92zm4.8 0-2.5-3.5 1.2-1.2 3.4 4.7zm6.2.1q-1.1 0-2-.4a3.2 3.2 0 0 1-1.2-1.4q-.5-.9-.5-2 0-1.3.5-2.1a3.4 3.4 0 0 1 1.2-1.4q.8-.5 2-.5l1.3.2q.6.2 1 .7.6.5.8 1.2.3.7.3 1.7v.6H269v-1.2h4.5a2 2 0 0 0-.2-1 1.6 1.6 0 0 0-.6-.6 1.7 1.7 0 0 0-1-.2l-1 .2a1.9 1.9 0 0 0-.6.7l-.2 1v1q0 .7.3 1.2.2.4.6.7l1 .2h.8l.5-.4.4-.5 1.7.2a2.6 2.6 0 0 1-.7 1.1 3 3 0 0 1-1 .8q-.8.2-1.7.2m6.7-4.6V92h-1.8v-7.6h1.8v1.3q.3-.7.9-1 .6-.4 1.4-.4.8 0 1.4.3.6.3 1 1 .3.6.3 1.5V92h-1.8v-4.6q0-.8-.4-1.2-.4-.4-1.1-.4-.5 0-.9.2a1.4 1.4 0 0 0-.5.6q-.3.4-.3 1m10.3 4.4V81.8h1.9v4.3h4.7v-4.3h1.8V92h-1.8v-4.3h-4.7V92zm13.7.1q-1.1 0-2-.4a3.4 3.4 0 0 1-1.2-1.4q-.5-1-.5-2 0-1.3.5-2.2a3.3 3.3 0 0 1 1.3-1.3q.8-.5 1.9-.5t2 .5q.8.5 1.2 1.3.5 1 .5 2.1t-.5 2a3.3 3.3 0 0 1-1.3 1.5q-.8.4-1.9.4m0-1.4q.6 0 1-.3.4-.4.6-1 .2-.5.2-1.2t-.2-1.3a2 2 0 0 0-.6-.9q-.4-.3-1-.3t-1 .3a2 2 0 0 0-.6 1q-.2.5-.2 1.2t.2 1.3q.2.5.6.9.4.3 1 .3m7-8.9V92h-1.8V81.8zm4.7 10.3a2.9 2.9 0 0 1-1.6-.4q-.7-.5-1.2-1.4-.4-.9-.4-2.1 0-1.3.4-2.2.5-.8 1.2-1.3a3 3 0 0 1 1.6-.4q.6 0 1 .2l.8.5.4.6v-3.8h1.8V92h-1.7v-1.2h-.1a3 3 0 0 1-.4.6 2.2 2.2 0 0 1-.7.5q-.5.2-1.1.2m.5-1.4q.5 0 1-.4.4-.3.6-.8.2-.6.2-1.3 0-.8-.2-1.3-.2-.6-.6-.9-.4-.3-1-.3t-1 .4a1.9 1.9 0 0 0-.6.8 3.6 3.6 0 0 0-.2 1.3q0 .7.2 1.3.2.5.6.8.4.4 1 .4m8.8 1.5q-1.1 0-2-.5a3.2 3.2 0 0 1-1.2-1.4q-.5-.9-.5-2 0-1.2.5-2.1a3.4 3.4 0 0 1 1.2-1.4q.8-.5 2-.5l1.3.2q.6.2 1 .7.6.5.9 1.2.2.7.2 1.7v.6h-6.2v-1.2h4.5a2 2 0 0 0-.2-1 1.6 1.6 0 0 0-.6-.6 1.7 1.7 0 0 0-1-.2q-.5 0-.9.2a1.9 1.9 0 0 0-.7.7l-.2 1v1q0 .7.3 1.2.2.4.6.7l1 .2h.8l.5-.4.4-.5 1.7.2a2.6 2.6 0 0 1-.6 1.1 3 3 0 0 1-1.2.8q-.7.3-1.6.3m5-.2v-7.6h1.7v1.2q.3-.6.8-1a2 2 0 0 1 1.2-.3h.6V86a2 2 0 0 0-.4-.1 3 3 0 0 0-.4 0l-1 .2a1.6 1.6 0 0 0-.7 1.4V92zm11.5-5.6-1.6.2a1.3 1.3 0 0 0-.2-.5 1.2 1.2 0 0 0-.5-.4 1.7 1.7 0 0 0-.7 0q-.6 0-1 .2-.3.2-.3.6a.7.7 0 0 0 .2.5l.9.4 1.3.2q1 .3 1.6.8.5.5.5 1.3 0 .7-.4 1.3-.4.5-1.2.8t-1.7.4q-1.4 0-2.2-.6-.9-.6-1-1.7l1.7-.2q.1.6.5.8.4.3 1 .3.7 0 1-.3.5-.2.5-.6 0-.4-.3-.6-.2-.2-.8-.3l-1.3-.3q-1-.2-1.6-.7-.5-.6-.5-1.4 0-.7.4-1.2.4-.6 1-.8.8-.3 1.7-.3 1.3 0 2 .5.9.6 1 1.6m8.2 5.8q-1 0-1.8-.4a2.9 2.9 0 0 1-1.1-1 2.7 2.7 0 0 1-.5-1.5q0-.6.3-1l.7-1a10 10 0 0 1 1-.8l1.8-1.2a2.2 2.2 0 0 0 .6-.5q.2-.3.2-.7l-.2-.6q-.3-.3-.8-.3l-.6.1-.3.4a1 1 0 0 0-.2.5q0 .4.2.7l.5.7.6.8 4.8 5.6h-2l-3.9-4.5a66 66 0 0 1-.9-1 5.4 5.4 0 0 1-.6-1.1 2.7 2.7 0 0 1-.3-1.2q0-.7.3-1.3a2.4 2.4 0 0 1 1-.9q.6-.3 1.4-.3t1.4.3.9.9.3 1.1q0 .7-.4 1.3-.3.6-1 1l-2 1.5-.8.8-.2.6q0 .4.2.7.2.4.6.6.4.2.9.2t1-.3q.6-.2 1-.7l.7-1q.3-.7.3-1.5h1.5q0 1-.2 1.7a4.3 4.3 0 0 1-.6 1.2 3.5 3.5 0 0 1-.7.8l-.2.1a6 6 0 0 1-.2.2 3.4 3.4 0 0 1-1.3.7 4.6 4.6 0 0 1-1.4.2m13.2-.1H358V81.8h3.5q1.5 0 2.6.6t1.7 1.8q.6 1.1.6 2.7t-.6 2.7a4.1 4.1 0 0 1-1.7 1.8q-1.1.6-2.7.6m-1.6-1.6h1.6q1 0 1.7-.4t1.1-1.2q.4-.7.4-1.9t-.4-2a2.4 2.4 0 0 0-1-1.1q-.8-.4-1.8-.4h-1.6zm11.6 1.7q-1.1 0-2-.4a3.2 3.2 0 0 1-1.2-1.4q-.5-.9-.5-2 0-1.3.5-2.1a3.4 3.4 0 0 1 1.2-1.4q.9-.5 2-.5.7 0 1.3.2.6.2 1.1.7.5.5.8 1.2.2.7.2 1.7v.6h-6.2v-1.2h4.5a2 2 0 0 0-.2-1 1.6 1.6 0 0 0-.6-.6 1.7 1.7 0 0 0-1-.2q-.5 0-.9.2a1.9 1.9 0 0 0-.6.7 2 2 0 0 0-.3 1v1q0 .7.3 1.2.2.4.6.7l1 .2h.8l.5-.4q.3-.2.4-.5l1.7.2a2.6 2.6 0 0 1-.6 1.1 3 3 0 0 1-1.2.8q-.7.2-1.6.2m6.8-10.3V92h-1.8V81.8zm5.2 10.3q-1.2 0-2-.4a3.2 3.2 0 0 1-1.3-1.4q-.4-.9-.4-2 0-1.3.4-2.1a3.4 3.4 0 0 1 1.3-1.4q.8-.5 1.9-.5.7 0 1.3.2.7.2 1.1.7.5.5.8 1.2.3.7.3 1.7v.6h-6.3v-1.2h4.6a2 2 0 0 0-.3-1 1.6 1.6 0 0 0-.6-.6 1.7 1.7 0 0 0-.9-.2l-1 .2a1.9 1.9 0 0 0-.6.7l-.2 1v1q0 .7.2 1.2l.7.7q.4.2 1 .2h.7l.6-.4a1.4 1.4 0 0 0 .3-.5l1.7.2a2.6 2.6 0 0 1-.6 1.1 3 3 0 0 1-1.1.8q-.7.2-1.6.2m8.2 3q-1 0-1.6-.3l-1.2-.7a2.4 2.4 0 0 1-.5-1l1.6-.4q0 .2.3.4.2.3.6.4.3.2.9.2.7 0 1.2-.4t.5-1.2v-1.5a2.6 2.6 0 0 1-.5.6q-.2.3-.7.5-.4.2-1 .2a3.1 3.1 0 0 1-1.7-.4q-.7-.4-1-1.3-.5-.8-.5-2 0-1.3.4-2.2.4-.8 1.2-1.3a3 3 0 0 1 1.5-.4q.7 0 1.2.2.4.2.6.5l.4.6h.1v-1.2h1.8V92q0 1-.5 1.6-.4.7-1.2 1t-1.9.3m0-4.5q.6 0 1-.3t.6-.8q.2-.5.2-1.3 0-.7-.2-1.2-.2-.6-.6-.9-.4-.3-1-.3t-1 .4a1.9 1.9 0 0 0-.6.8 3.5 3.5 0 0 0-.2 1.2q0 .7.2 1.3.2.5.6.8.5.3 1 .3m7.7 1.7a3.2 3.2 0 0 1-1.3-.3 2.1 2.1 0 0 1-1-.8q-.3-.5-.3-1.2t.2-1.1l.7-.7 1-.4a8 8 0 0 1 1-.2h1q.5-.1.7-.3.2 0 .2-.4 0-.5-.3-.9t-1-.3q-.7 0-1 .3-.4.3-.6.7l-1.6-.2q.2-.7.6-1.2.5-.5 1.1-.7a4.3 4.3 0 0 1 1.5-.2h1l1 .5q.5.3.8.8.3.5.3 1.3V92h-1.7v-1h-.1a2.2 2.2 0 0 1-.5.5l-.7.5q-.4.2-1 .2m.4-1.4q.6 0 1-.2t.6-.6q.2-.3.2-.7v-1a.8.8 0 0 1-.3.2h-.4l-.5.2h-.5a3 3 0 0 0-.7.2q-.3.1-.5.4-.2.2-.2.5 0 .5.4.8.4.2 1 .2m9.1-6.4v1.4h-4.4v-1.4zm-3.3-1.9h1.8v7.2l.1.6a.6.6 0 0 0 .3.2h.9l.4 1.4a4 4 0 0 1-.5.1l-.6.1a2.9 2.9 0 0 1-1.2-.2 1.9 1.9 0 0 1-.9-.7q-.3-.5-.3-1.2zm8.1 9.6q-1.1 0-2-.4a3.2 3.2 0 0 1-1.2-1.4q-.5-.9-.5-2 0-1.3.5-2.1a3.4 3.4 0 0 1 1.2-1.4q.8-.5 2-.5l1.3.2q.6.2 1 .7.6.5.8 1.2.3.7.3 1.7v.6H411v-1.2h4.5a1.9 1.9 0 0 0-.2-1 1.6 1.6 0 0 0-.6-.6 1.7 1.7 0 0 0-1-.2l-1 .2a1.9 1.9 0 0 0-.6.7l-.2 1v1q0 .7.2 1.2l.7.7 1 .2h.8l.5-.4.4-.5 1.6.2a2.6 2.6 0 0 1-.6 1.1 3 3 0 0 1-1.1.8q-.7.2-1.6.2m11-5.7-1.7.2a1.3 1.3 0 0 0-.2-.5 1.2 1.2 0 0 0-.5-.4 1.7 1.7 0 0 0-.7 0l-1 .2q-.3.2-.3.6a.7.7 0 0 0 .2.5l.9.4 1.3.2q1 .3 1.6.8.5.5.5 1.3 0 .7-.4 1.3-.4.5-1.1.8t-1.7.3q-1.4 0-2.3-.5-.8-.6-1-1.7l1.8-.2q0 .6.5.8.3.3 1 .3.6 0 1-.3.4-.2.4-.6 0-.4-.3-.6-.2-.2-.7-.3l-1.3-.3q-1.1-.2-1.7-.7-.5-.6-.5-1.4 0-.7.4-1.2.4-.6 1-.8.8-.3 1.7-.3 1.3 0 2.1.5.8.6 1 1.6"/><path fill="#8d3360" d="M461.5 87a23 23 0 0 1 23-23h214a23 23 0 0 1 0 46h-214a23 23 0 0 1-23-23"/><path fill="#fff" d="M490 92h-3.5V81.8h3.5q1.5 0 2.6.6a4.1 4.1 0 0 1 1.7 1.8q.6 1.1.6 2.7t-.6 2.7a4.1 4.1 0 0 1-1.7 1.8q-1 .6-2.6.6m-1.7-1.6h1.6q1 0 1.7-.4t1.1-1.2q.4-.7.4-1.9t-.4-2a2.4 2.4 0 0 0-1-1.1q-.7-.4-1.8-.4h-1.6zm9.1 1.6h-2l3.6-10.2h2.3l3.6 10.2h-2l-2.7-8zm0-4h5.4v1.5h-5.3zm17.5-1q0 1.6-.7 2.7-.6 1.2-1.6 1.8-1 .6-2.4.6t-2.4-.6q-1-.6-1.7-1.8-.6-1.2-.6-2.8 0-1.6.6-2.8.6-1.2 1.7-1.8 1-.6 2.4-.6 1.3 0 2.4.6 1 .6 1.6 1.8.7 1.2.7 2.8m-1.9 0q0-1.1-.4-2-.3-.7-1-1.2a2.6 2.6 0 0 0-1.4-.4 2.6 2.6 0 0 0-1.5.4q-.6.5-1 1.3t-.4 2 .4 1.9q.4.8 1 1.2.6.4 1.5.4t1.4-.4q.7-.4 1-1.2.4-.8.4-2m8.1-.7v1.4h-4.5v-1.4zm2-4.4h2.3l3 7.4h.1l3-7.4h2.3V92H532v-7l-2.9 7h-1.3l-2.8-7h-.1v7H523zM538 92.2a3.2 3.2 0 0 1-1.3-.3 2.1 2.1 0 0 1-.9-.8q-.3-.5-.3-1.2t.2-1.1q.2-.4.7-.7l.9-.4a8 8 0 0 1 1-.2h1.2l.6-.3q.2 0 .2-.4 0-.5-.4-.9t-1-.3q-.6 0-1 .3t-.5.7l-1.7-.2q.2-.7.7-1.2.4-.5 1-.7a4.3 4.3 0 0 1 1.6-.2h1l1 .5q.5.3.8.8.3.5.3 1.3V92h-1.8v-1a2.2 2.2 0 0 1-.5.5l-.7.5-1 .2m.4-1.4 1-.2q.3-.2.5-.6.3-.3.3-.7v-1a.8.8 0 0 1-.3.2h-.5l-.5.2h-.4a3 3 0 0 0-.7.2q-.3.1-.5.4-.2.2-.2.5 0 .5.4.8.3.2.9.2m7.2-3.3V92h-1.8v-7.6h1.7v1.3q.3-.7 1-1 .5-.4 1.4-.4.7 0 1.3.3.6.3 1 1 .3.6.3 1.5V92h-1.8v-4.6q0-.8-.4-1.2-.4-.4-1.1-.4-.5 0-.9.2a1.4 1.4 0 0 0-.5.6q-.2.4-.2 1m8.9 4.6q-.7 0-1.3-.3a2.1 2.1 0 0 1-1-.8q-.3-.5-.3-1.2t.3-1.1q.2-.4.6-.7a3.3 3.3 0 0 1 1-.4 8 8 0 0 1 1-.2h1.1l.6-.3q.2 0 .2-.4 0-.5-.3-.9t-1-.3q-.6 0-1 .3t-.5.7l-1.7-.2q.2-.7.6-1.2.5-.5 1.2-.7a4.3 4.3 0 0 1 1.4-.2h1.1l1 .5q.5.3.7.8.3.5.3 1.3V92h-1.7v-1a2.2 2.2 0 0 1-.5.5l-.8.5q-.4.2-1 .2m.5-1.4q.5 0 .9-.2t.6-.6q.2-.3.2-.7v-1a.8.8 0 0 1-.3.2h-.4l-.5.2h-.4a3 3 0 0 0-.7.2 1.2 1.2 0 0 0-.5.4q-.2.2-.2.5 0 .5.3.8.4.2 1 .2m8.7 4.2q-1 0-1.7-.2-.7-.3-1.1-.7a2.4 2.4 0 0 1-.6-1l1.6-.4.3.4q.2.3.6.4.3.2.9.2.8 0 1.3-.4t.5-1.2v-1.5h-.1a2.6 2.6 0 0 1-.4.6l-.7.5q-.5.2-1.1.2a3.1 3.1 0 0 1-1.6-.4q-.7-.4-1.2-1.3-.4-.8-.4-2 0-1.3.4-2.2.5-.8 1.2-1.3a3 3 0 0 1 1.6-.4q.6 0 1 .2l.8.5.4.6v-1.2h1.8V92q0 1-.4 1.6-.5.7-1.3 1-.8.3-1.8.3m0-4.5q.5 0 1-.3l.6-.8q.3-.5.2-1.3 0-.7-.2-1.2-.2-.6-.6-.9-.4-.3-1-.3t-1 .4a1.9 1.9 0 0 0-.6.8 3.5 3.5 0 0 0-.2 1.2q0 .7.2 1.3.2.5.6.8.4.3 1 .3m8.8 1.6q-1.2 0-2-.4a3.2 3.2 0 0 1-1.3-1.4q-.4-.9-.4-2 0-1.3.4-2.1a3.4 3.4 0 0 1 1.3-1.4q.8-.5 1.9-.5.7 0 1.3.2.6.2 1.1.7.5.5.8 1.2.3.7.3 1.7v.6h-6.3v-1.2h4.5a1.9 1.9 0 0 0-.2-1 1.6 1.6 0 0 0-.6-.6 1.7 1.7 0 0 0-.9-.2q-.6 0-1 .2a1.9 1.9 0 0 0-.6.7q-.3.5-.3 1v1q0 .7.3 1.2.2.4.7.7.4.2 1 .2h.7l.6-.4q.3-.2.3-.5l1.7.2a2.6 2.6 0 0 1-.6 1.1 3 3 0 0 1-1.2.8q-.6.3-1.5.3m7.7 0a2.9 2.9 0 0 1-1.6-.5q-.7-.5-1.1-1.4-.4-.8-.4-2.1t.4-2.2q.4-.8 1.1-1.3a2.9 2.9 0 0 1 1.6-.4q.7 0 1.1.2.5.2.7.5l.4.6v-3.8h1.9V92h-1.8v-1.2a3 3 0 0 1-.5.6 2.2 2.2 0 0 1-.7.5q-.4.2-1 .2m.4-1.4q.6 0 1-.4.4-.3.6-.8.2-.6.2-1.3 0-.8-.2-1.3-.2-.6-.6-.9-.4-.3-1-.3t-1 .4a1.9 1.9 0 0 0-.6.8 3.6 3.6 0 0 0-.2 1.3q0 .7.2 1.3.2.5.6.8.4.4 1 .4m9 1.3V81.8h3.9q1.1 0 2 .4.7.4 1.1 1.2.5.7.5 1.7t-.5 1.7q-.4.7-1.2 1-.8.5-2 .5h-2.7v-1.6h2.5l1.1-.1q.5-.2.7-.6.2-.4.2-1 0-.5-.2-.8a1.4 1.4 0 0 0-.7-.6q-.4-.2-1.1-.2h-1.7V92zm5.3-4.6 2.5 4.6h-2l-2.5-4.6zm3.8 4.6v-7.6h1.8V92zm.9-8.7a1 1 0 0 1-.8-.3 1 1 0 0 1-.3-.7q0-.4.3-.7.4-.3.8-.3t.7.3q.3.3.3.7a1 1 0 0 1-.3.7 1 1 0 0 1-.7.3m8.8 3-1.7.3a1.3 1.3 0 0 0-.2-.5 1.2 1.2 0 0 0-.5-.4 1.7 1.7 0 0 0-.7 0l-1 .2q-.3.2-.3.6a.7.7 0 0 0 .2.5l.9.4 1.3.2q1 .3 1.6.8.5.5.5 1.3 0 .7-.4 1.3-.4.5-1.1.8t-1.7.3q-1.4 0-2.3-.5-.8-.6-1-1.7l1.7-.2q.2.6.6.8.3.3 1 .3.6 0 1-.3.4-.2.4-.6 0-.4-.3-.6-.2-.2-.7-.3l-1.3-.3q-1.1-.2-1.7-.7-.5-.6-.5-1.4 0-.7.4-1.2.4-.6 1-.8.8-.3 1.7-.3 1.3 0 2.1.5.8.6 1 1.6m3.3 3.2v-2.2h.2l2.8-3h2l-3.3 3.7h-.4zM610 92V81.8h1.8V92zm4.8 0-2.5-3.5 1.2-1.2L617 92zm6.7 0V81.8h6.6v1.6h-4.7V86h4.2v1.6h-4.2V92zm8 0v-7.6h1.8v1.2q.3-.6.8-1a2 2 0 0 1 1.2-.3h.6V86a2 2 0 0 0-.4-.1 3 3 0 0 0-.4 0l-1 .2q-.3.2-.5.6a1.6 1.6 0 0 0-.2.8V92zm7.7.2a3.2 3.2 0 0 1-1.3-.3 2.1 2.1 0 0 1-1-.8q-.3-.5-.3-1.2t.2-1.1l.7-.7 1-.4a8 8 0 0 1 1-.2h1q.5-.1.7-.3.2 0 .2-.4 0-.5-.3-.9t-1-.3q-.7 0-1 .3-.4.3-.6.7l-1.6-.2q.2-.7.6-1.2.5-.5 1.1-.7a4.3 4.3 0 0 1 1.5-.2h1l1 .5q.5.3.8.8.3.5.3 1.3V92h-1.7v-1a2.2 2.2 0 0 1-.6.5l-.7.5q-.4.2-1 .2m.4-1.4q.6 0 1-.2t.6-.6q.2-.3.2-.7v-1a.8.8 0 0 1-.3.2h-.4l-.5.2h-.5a3 3 0 0 0-.7.2q-.3.1-.5.4a.8.8 0 0 0-.2.5q0 .5.4.8.4.2 1 .2M643 92v-7.6h1.7v1.3h.1q.3-.7.8-1 .6-.4 1.3-.4.8 0 1.3.3.6.4.8 1 .3-.6 1-1 .5-.3 1.4-.3 1 0 1.7.6.6.7.6 2V92H652v-4.8q0-.8-.3-1a1.4 1.4 0 0 0-1-.4q-.6 0-1 .4-.3.4-.3 1V92h-1.8v-5q0-.5-.4-.9-.3-.3-.9-.3-.4 0-.7.2l-.5.5q-.2.4-.2.9V92zm16 .1q-1.2 0-2-.4a3.2 3.2 0 0 1-1.3-1.4q-.5-.9-.5-2 0-1.3.5-2.1a3.4 3.4 0 0 1 1.3-1.4q.8-.5 1.9-.5.7 0 1.3.2.6.2 1.1.7.5.5.8 1.2.2.7.2 1.7v.6h-6.2v-1.2h4.5a1.9 1.9 0 0 0-.2-1 1.6 1.6 0 0 0-.6-.6 1.7 1.7 0 0 0-1-.2q-.5 0-.9.2a1.9 1.9 0 0 0-.6.7q-.3.5-.3 1v1q0 .7.3 1.2.2.4.7.7.4.2 1 .2h.7l.5-.4.4-.5 1.7.2a2.6 2.6 0 0 1-.6 1.1 3 3 0 0 1-1.2.8q-.7.2-1.5.2m6.4-.1-2.2-7.6h1.9l1.3 5.3 1.5-5.3h1.8l1.4 5.3 1.3-5.3h1.9l-2.2 7.6h-1.8l-1.5-5.2-1.5 5.2zm13.3.1q-1.2 0-2-.4a3.4 3.4 0 0 1-1.3-1.4q-.4-1-.4-2 0-1.3.4-2.2a3.3 3.3 0 0 1 1.3-1.3q.8-.5 2-.5 1 0 1.9.5.8.4 1.3 1.3.4 1 .4 2.1t-.4 2a3.3 3.3 0 0 1-1.3 1.5q-.8.4-2 .4m0-1.4q.7 0 1-.3.5-.4.7-1 .2-.5.2-1.2t-.2-1.3a2 2 0 0 0-.6-.9q-.4-.3-1-.3-.7 0-1 .3a2 2 0 0 0-.7 1 3.8 3.8 0 0 0-.2 1.2q0 .7.2 1.3.2.5.6.9.4.3 1 .3M684 92v-7.6h1.8v1.2q.3-.6.8-1a2 2 0 0 1 1.2-.3h.6V86a2 2 0 0 0-.4-.1 3 3 0 0 0-.4 0l-1 .2q-.3.2-.5.6a1.6 1.6 0 0 0-.3.8V92zm7.2-2.4v-2.2h.3l2.8-3h2L693 88h-.4zm-1.6 2.4V81.8h1.8V92zm4.8 0-2.5-3.5 1.2-1.2 3.4 4.7z"/><path fill="#8d3360" d="M733.5 87a23 23 0 0 1 23-23h64a23 23 0 0 1 0 46h-64a23 23 0 0 1-23-23"/><path fill="#fff" d="M765.3 85a2.6 2.6 0 0 0-.3-.7 2.2 2.2 0 0 0-.5-.5 2.1 2.1 0 0 0-.7-.3 2.9 2.9 0 0 0-.9-.2q-.8 0-1.4.4-.7.5-1 1.3-.4.8-.4 1.9 0 1.2.4 2 .3.8 1 1.2.6.4 1.5.4.7 0 1.3-.3a2.1 2.1 0 0 0 .9-.9q.3-.5.3-1.3l.4.1h-2.7v-1.4h4v1.2q0 1.3-.5 2.3a3.8 3.8 0 0 1-1.5 1.4q-1 .5-2.2.5-1.4 0-2.5-.6-1-.6-1.7-1.8-.6-1.2-.6-2.8 0-1.2.4-2.2a4.8 4.8 0 0 1 1-1.6 4.2 4.2 0 0 1 1.5-1 4.7 4.7 0 0 1 1.8-.4q.9 0 1.6.2l1.3.7q.6.5 1 1.1.3.6.4 1.4zm8.6 3.8v-4.4h1.8V92h-1.8v-1.4a2.3 2.3 0 0 1-1 1q-.5.5-1.4.5-.7 0-1.3-.3a2.3 2.3 0 0 1-.9-1q-.3-.7-.3-1.6v-4.8h1.8v4.5q0 .8.4 1.2t1 .4l.8-.2q.4-.2.6-.5.3-.4.3-1m5.8 3.4q-.7 0-1.3-.3a2.1 2.1 0 0 1-1-.8q-.2-.5-.2-1.2t.2-1.1q.2-.4.6-.7a3.3 3.3 0 0 1 1-.4 8 8 0 0 1 1-.2h1.1q.5-.1.6-.3.2 0 .2-.4 0-.5-.3-.9t-1-.3q-.6 0-1 .3t-.5.7l-1.7-.2q.2-.7.7-1.2.4-.5 1-.7a4.3 4.3 0 0 1 1.5-.2h1.1l1 .5q.5.3.8.8.2.5.2 1.3V92H782v-1a2.2 2.2 0 0 1-.5.5l-.8.5q-.4.2-1 .2m.5-1.4 1-.2q.3-.2.5-.6.2-.3.2-.7v-1a.8.8 0 0 1-.2.2 4 4 0 0 1-.5 0l-.5.2h-.4a3 3 0 0 0-.7.2q-.3.1-.5.4-.2.2-.2.5 0 .5.4.8.3.2.9.2m5.3 1.2v-7.6h1.8v1.2q.3-.6.8-1a2 2 0 0 1 1.2-.3h.6V86a2 2 0 0 0-.4-.1 3 3 0 0 0-.4 0l-1 .2q-.3.2-.5.6a1.6 1.6 0 0 0-.3.8V92zm8.1.1a2.9 2.9 0 0 1-1.6-.4q-.7-.5-1.1-1.4-.4-.9-.4-2.1 0-1.3.4-2.2.4-.8 1.1-1.3a3 3 0 0 1 1.6-.4q.7 0 1.1.2.5.2.7.5l.4.6v-3.8h1.9V92h-1.8v-1.2a3 3 0 0 1-.5.6 2.2 2.2 0 0 1-.7.5q-.4.2-1 .2m.4-1.4q.6 0 1-.4.4-.3.6-.8.2-.6.2-1.3 0-.8-.2-1.3-.2-.6-.6-.9-.4-.3-1-.3t-1 .4a1.9 1.9 0 0 0-.6.8 3.6 3.6 0 0 0-.2 1.3q0 .7.2 1.3.2.5.6.8.4.4 1 .4m5.5 1.3v-7.6h1.8V92zm1-8.7a1 1 0 0 1-.8-.3 1 1 0 0 1-.3-.7q0-.4.3-.7.3-.3.7-.3.4 0 .7.3.4.3.4.7a1 1 0 0 1-.4.7 1 1 0 0 1-.7.3m5 8.9q-.8 0-1.4-.3a2.1 2.1 0 0 1-.9-.8q-.3-.5-.3-1.2t.2-1.1l.7-.7a3.3 3.3 0 0 1 1-.4 8 8 0 0 1 1-.2h1q.5-.1.7-.3.2 0 .2-.4 0-.5-.3-.9t-1-.3q-.7 0-1 .3-.4.3-.6.7l-1.7-.2q.2-.7.7-1.2.5-.5 1.1-.7a4.3 4.3 0 0 1 1.5-.2h1l1 .5q.5.3.8.8.3.5.3 1.3V92h-1.7v-1h-.1a2.2 2.2 0 0 1-.5.5l-.7.5-1 .2m.4-1.4q.6 0 1-.2t.6-.6q.2-.3.2-.7v-1a.8.8 0 0 1-.3.2h-.4l-.5.2h-.5a3 3 0 0 0-.7.2 1.2 1.2 0 0 0-.5.4q-.2.2-.2.5 0 .5.4.8.4.2 1 .2m7-3.3V92h-1.7v-7.6h1.7v1.3h.1q.3-.7.8-1 .6-.4 1.5-.4.8 0 1.4.3.5.3.9 1 .3.6.3 1.5V92h-1.8v-4.6q0-.8-.4-1.2-.4-.4-1-.4t-1 .2a1.4 1.4 0 0 0-.5.6q-.2.4-.2 1"/><path fill="url(#a)" d="M362.5 295.5h283a7.5 7.5 0 0 1 7.5 7.5v52a7.5 7.5 0 0 1-7.5 7.5h-283a7.5 7.5 0 0 1-7.5-7.5v-52a7.5 7.5 0 0 1 7.5-7.5"/><path stroke="url(#b)" d="M362.5 295.5h283a7.5 7.5 0 0 1 7.5 7.5v52a7.5 7.5 0 0 1-7.5 7.5h-283a7.5 7.5 0 0 1-7.5-7.5v-52a7.5 7.5 0 0 1 7.5-7.5Z"/><path fill="#fff" d="M381.2 323h-2l3.7-10.2h2.2l3.6 10.2h-2l-2.7-8zm.1-4h5.4v1.5h-5.4zm10.6-6.2V323h-1.8v-10.2zm6.8 10.2h-2l3.6-10.2h2.3l3.6 10.2h-2l-2.7-8h-.1zm0-4h5.4v1.5h-5.4zm11.8 7q-1 0-1.7-.2l-1-.7a2.4 2.4 0 0 1-.7-1l1.7-.4q0 .2.3.4.2.3.5.4.4.2 1 .2.7 0 1.2-.4t.5-1.2v-1.5a2.6 2.6 0 0 1-.5.6 2.1 2.1 0 0 1-.7.5q-.4.2-1 .2a3.1 3.1 0 0 1-1.7-.4q-.7-.4-1.1-1.3-.4-.8-.4-2 0-1.3.4-2.2.4-.8 1.1-1.3a2.9 2.9 0 0 1 1.6-.4q.7 0 1.1.2.5.2.7.5l.4.6h.1v-1.2h1.8v7.7q0 1-.5 1.6-.4.7-1.2 1t-1.9.3m0-4.5q.6 0 1-.3t.6-.8.2-1.3q0-.7-.2-1.2-.2-.6-.6-.9-.4-.3-1-.3t-1 .4a1.9 1.9 0 0 0-.6.8 3.5 3.5 0 0 0-.2 1.2q0 .7.2 1.3.2.5.6.8.4.3 1 .3m8.8 1.6q-1.1 0-2-.4a3.2 3.2 0 0 1-1.2-1.4q-.5-.9-.5-2 0-1.3.5-2.1a3.4 3.4 0 0 1 1.2-1.4q.8-.5 2-.5l1.3.2q.6.2 1 .7.6.5.8 1.2.3.7.3 1.7v.6h-6.2v-1.2h4.5a1.9 1.9 0 0 0-.2-1 1.6 1.6 0 0 0-.6-.6 1.7 1.7 0 0 0-1-.2l-1 .2a1.8 1.8 0 0 0-.6.7 2 2 0 0 0-.2 1v1q0 .7.2 1.2l.7.7 1 .2h.8l.5-.4.4-.5 1.6.2a2.6 2.6 0 0 1-.6 1.1 3 3 0 0 1-1.1.8q-.7.2-1.6.2m6.7-4.6v4.5h-1.8v-7.6h1.8v1.3q.3-.7.9-1 .6-.4 1.4-.4.8 0 1.4.3.6.3 1 1 .2.6.2 1.5v4.9h-1.8v-4.6q0-.7-.4-1.2-.3-.4-1-.4-.5 0-.9.2a1.4 1.4 0 0 0-.6.6q-.2.4-.2 1m10.6-3.2v1.4h-4.4v-1.4zm-3.3-1.9h1.8v7.8a.6.6 0 0 0 .4.2h.9l.3 1.4-.4.1-.6.1a2.9 2.9 0 0 1-1.3-.2 1.9 1.9 0 0 1-.8-.7q-.3-.5-.3-1.2zm8.3 9.5v-10.2h1.9v4.7h.1l4-4.7h2.2l-3.9 4.6 4 5.6h-2.2l-3-4.4-1.2 1.4v3zm12.3.1q-1.2 0-2-.4a3.2 3.2 0 0 1-1.3-1.4q-.5-.9-.5-2 0-1.3.5-2.1a3.4 3.4 0 0 1 1.3-1.4q.8-.5 1.9-.5.7 0 1.3.2.6.2 1.1.7.5.5.8 1.2.3.7.3 1.7v.6H451v-1.2h4.5a2 2 0 0 0-.2-1 1.6 1.6 0 0 0-.6-.6 1.7 1.7 0 0 0-1-.2q-.5 0-.9.2a1.8 1.8 0 0 0-.6.7 2 2 0 0 0-.3 1v1q0 .7.3 1.2.2.4.7.7.4.2 1 .2h.7l.5-.4q.3-.2.4-.5l1.7.2a2.6 2.6 0 0 1-.6 1.1 3 3 0 0 1-1.2.8q-.7.2-1.5.2m8.3 0q-1.2 0-2-.4a3.2 3.2 0 0 1-1.3-1.4q-.5-.9-.5-2 0-1.3.5-2.1a3.4 3.4 0 0 1 1.3-1.4q.8-.5 1.9-.5.7 0 1.3.2.6.2 1.1.7.5.5.8 1.2.3.7.3 1.7v.6h-6.3v-1.2h4.5a1.9 1.9 0 0 0-.2-1 1.6 1.6 0 0 0-.6-.6 1.7 1.7 0 0 0-1-.2q-.5 0-.9.2a1.8 1.8 0 0 0-.6.7 2 2 0 0 0-.3 1v1q0 .7.3 1.2.2.4.7.7.4.2 1 .2h.7l.5-.4q.3-.2.4-.5l1.7.2a2.6 2.6 0 0 1-.6 1.1 3 3 0 0 1-1.2.8q-.7.2-1.5.2m4.9 2.8v-10.5h1.7v1.2h.1l.4-.6.7-.5q.5-.2 1.1-.2 1 0 1.6.4.7.5 1.2 1.3.4 1 .4 2.2 0 1.2-.4 2.1-.4 1-1.2 1.4a2.9 2.9 0 0 1-1.6.4q-.6 0-1-.2a2.2 2.2 0 0 1-.7-.5 3.5 3.5 0 0 1-.5-.6v4zm1.7-6.7q0 .7.2 1.3.3.5.7.8.4.4 1 .4.5 0 1-.4l.5-.8a3.7 3.7 0 0 0 .2-1.3q0-.7-.2-1.3a1.9 1.9 0 0 0-.6-.8q-.4-.4-1-.4-.5 0-1 .3l-.6.9q-.2.5-.2 1.3m10.4 4q-1.1 0-2-.5a3.3 3.3 0 0 1-1.3-1.4q-.4-.9-.4-2 0-1.3.4-2.1a3.4 3.4 0 0 1 1.3-1.4q.8-.5 2-.5l1.2.2a3 3 0 0 1 1.2.7l.7 1.2q.3.7.3 1.7v.6h-6.3v-1.2h4.6a2 2 0 0 0-.2-1 1.6 1.6 0 0 0-.7-.6 1.7 1.7 0 0 0-.9-.2l-1 .2a1.8 1.8 0 0 0-.6.7l-.2 1v1q0 .7.2 1.2l.7.7q.4.2 1 .2h.7l.6-.4.3-.5 1.7.2a2.6 2.6 0 0 1-.6 1.1 3 3 0 0 1-1.1.8q-.7.2-1.6.2m5-.1v-7.6h1.7v1.2q.3-.6.8-1a2 2 0 0 1 1.1-.3h.7v1.7a2 2 0 0 0-.4-.1 3.4 3.4 0 0 0-.5 0l-.8.2a1.6 1.6 0 0 0-.7.6 1.6 1.6 0 0 0-.2.8v4.5zm17.4-10.2V323H500l-4.8-7h-.1v7h-1.9v-10.2h1.7l4.8 7v-7zm5.3 10.3q-1.1 0-2-.4a3.2 3.2 0 0 1-1.3-1.4q-.4-.9-.4-2 0-1.3.4-2.1a3.4 3.4 0 0 1 1.3-1.4q.8-.5 2-.5l1.2.2q.7.2 1.2.7l.7 1.2q.3.7.3 1.7v.6H504v-1.2h4.6a1.9 1.9 0 0 0-.2-1 1.6 1.6 0 0 0-.7-.6 1.7 1.7 0 0 0-.9-.2l-1 .2a1.8 1.8 0 0 0-.6.7 2 2 0 0 0-.2 1v1q0 .7.2 1.2l.7.7q.4.2 1 .2h.7l.6-.4.3-.5 1.7.2a2.6 2.6 0 0 1-.6 1.1 3 3 0 0 1-1.1.8q-.7.2-1.6.2m8.7-7.7v1.4h-4.4v-1.4zm-3.3-1.9h1.8v7.2l.1.6a.6.6 0 0 0 .3.2h1l.3 1.4-.4.1-.7.1a2.9 2.9 0 0 1-1.2-.2 1.9 1.9 0 0 1-.9-.7q-.3-.5-.3-1.2zm6.4 9.5-2.1-7.6h1.8l1.3 5.3h.1l1.4-5.3h1.8l1.4 5.3 1.4-5.3h1.8l-2.2 7.6h-1.8l-1.5-5.2-1.5 5.2zm13.3.1q-1.1 0-2-.4a3.3 3.3 0 0 1-1.2-1.4q-.5-.9-.5-2 0-1.3.5-2.2a3.3 3.3 0 0 1 1.2-1.3q.9-.5 2-.5 1 0 2 .5.7.4 1.2 1.3.4 1 .4 2.1t-.4 2a3.3 3.3 0 0 1-1.3 1.5q-.8.4-2 .4m0-1.4q.7 0 1-.3.5-.4.7-1a3.7 3.7 0 0 0 .2-1.2q0-.7-.2-1.3a2 2 0 0 0-.6-.9q-.4-.3-1-.3t-1 .3a2 2 0 0 0-.7 1 3.8 3.8 0 0 0-.2 1.2q0 .7.2 1.3.2.5.6.9.5.3 1 .3m5.3 1.3v-7.6h1.7v1.2q.3-.6.8-1 .5-.3 1.2-.3h.6v1.7a2 2 0 0 0-.4-.1 3 3 0 0 0-.4 0l-1 .2a1.6 1.6 0 0 0-.5.6 1.6 1.6 0 0 0-.2.8v4.5zm7.1-2.4v-2.2h.3l2.8-3h2l-3.3 3.7h-.4zm-1.6 2.4v-10.2h1.8V323zm4.8 0-2.5-3.5 1.2-1.2 3.5 4.7zm15.4-6.7h-1.8a2.3 2.3 0 0 0-.3-.9 2.2 2.2 0 0 0-.5-.6 2.2 2.2 0 0 0-.8-.3 2.8 2.8 0 0 0-.8-.2q-.9 0-1.5.5-.6.4-1 1.2-.4.8-.4 2 0 1 .4 1.9.4.8 1 1.2.6.4 1.5.4l.8-.1a2.3 2.3 0 0 0 .7-.4 2.2 2.2 0 0 0 .9-1.4h1.8q0 .8-.4 1.4a4 4 0 0 1-1 1.1 4.2 4.2 0 0 1-1.2.8 4.9 4.9 0 0 1-1.7.2q-1.3 0-2.4-.6-1-.6-1.6-1.8-.6-1.1-.6-2.8 0-1.6.6-2.8.6-1.2 1.6-1.8 1.1-.6 2.4-.6.9 0 1.6.2l1.3.7q.6.5 1 1.1.3.7.4 1.6m5 6.8q-1.1 0-2-.4a3.3 3.3 0 0 1-1.2-1.4q-.5-1-.5-2 0-1.3.5-2.2a3.3 3.3 0 0 1 1.2-1.3q.9-.5 2-.5t2 .5q.7.4 1.2 1.3.4 1 .4 2.1t-.4 2a3.3 3.3 0 0 1-1.3 1.5q-.8.4-2 .4m.1-1.4q.6 0 1-.3.4-.4.6-1a3.7 3.7 0 0 0 .2-1.2q0-.7-.2-1.3a2 2 0 0 0-.6-.9q-.4-.3-1-.3t-1 .3a2 2 0 0 0-.6 1 3.8 3.8 0 0 0-.2 1.2q0 .7.2 1.3.2.5.6.9.4.3 1 .3m7-3.2v4.5H573v-7.6h1.7v1.3q.3-.7 1-1 .5-.4 1.4-.4.7 0 1.3.3.6.3 1 1 .3.6.3 1.5v4.9H578v-4.6q0-.7-.4-1.2-.4-.4-1.1-.4-.5 0-.9.2a1.4 1.4 0 0 0-.5.6q-.2.4-.2 1m12.7-1.2-1.6.2a1.3 1.3 0 0 0-.2-.5 1.2 1.2 0 0 0-.5-.4 1.7 1.7 0 0 0-.7 0l-1 .1q-.3.3-.3.7a.7.7 0 0 0 .2.5l.9.4 1.3.2q1 .3 1.6.8.5.5.5 1.3a2 2 0 0 1-.4 1.3q-.4.5-1.2.8t-1.7.3q-1.4 0-2.2-.5-.9-.6-1-1.7l1.7-.2q.1.6.5.8.4.3 1 .3.7 0 1-.3.5-.2.5-.6a.7.7 0 0 0-.3-.6q-.2-.2-.8-.3l-1.3-.3q-1-.2-1.6-.7-.5-.6-.5-1.4 0-.7.4-1.2.4-.6 1-.8.8-.3 1.7-.3 1.3 0 2 .5.9.6 1 1.6m5 5.7q-1 0-2-.4a3.3 3.3 0 0 1-1.2-1.4q-.4-.9-.4-2 0-1.3.4-2.1a3.4 3.4 0 0 1 1.3-1.4q.8-.5 1.9-.5.7 0 1.3.2a3 3 0 0 1 1.1.7q.5.5.8 1.2.3.7.3 1.7v.6h-6.3v-1.2h4.5a1.9 1.9 0 0 0-.2-1 1.6 1.6 0 0 0-.6-.6 1.7 1.7 0 0 0-.9-.2q-.6 0-1 .2a1.8 1.8 0 0 0-.6.7q-.3.5-.3 1v1q0 .7.3 1.2.2.4.7.7.4.2 1 .2h.7l.6-.4.3-.5 1.7.2a2.6 2.6 0 0 1-.6 1.1 3 3 0 0 1-1.2.8q-.6.2-1.5.2m6.7-4.6v4.5h-1.8v-7.6h1.7v1.3h.1q.3-.7.8-1 .6-.4 1.5-.4.8 0 1.4.3.5.3.9 1 .3.6.3 1.5v4.9h-1.8v-4.6q0-.7-.4-1.2-.4-.4-1.1-.4-.5 0-.8.2a1.4 1.4 0 0 0-.6.6q-.2.4-.2 1m12.8-1.2-1.7.2a1.3 1.3 0 0 0-.2-.5 1.2 1.2 0 0 0-.5-.4 1.7 1.7 0 0 0-.7 0l-1 .1q-.3.3-.3.7a.7.7 0 0 0 .2.5l.9.4 1.3.2q1 .3 1.6.8.5.5.5 1.3a2.1 2.1 0 0 1-.4 1.3q-.4.5-1.2.8-.7.3-1.6.3-1.4 0-2.3-.5-.9-.6-1-1.7l1.7-.2q.2.6.5.8.4.3 1 .3.7 0 1-.3.5-.2.5-.6a.7.7 0 0 0-.3-.6q-.2-.2-.8-.3l-1.3-.3q-1-.2-1.6-.7-.5-.6-.5-1.4a2 2 0 0 1 .4-1.2q.4-.6 1-.8.8-.3 1.7-.3 1.3 0 2 .5.9.6 1 1.6m6.6 2.4v-4.4h1.8v7.6h-1.8v-1.4a2.3 2.3 0 0 1-1 1q-.5.5-1.4.5-.7 0-1.3-.3a2.3 2.3 0 0 1-.9-1q-.3-.7-.3-1.6v-4.8h1.8v4.5q0 .8.4 1.2t1 .4l.8-.2q.4-.2.6-.5.3-.4.3-1m9.7-2.4-1.7.2a1.3 1.3 0 0 0-.2-.5 1.2 1.2 0 0 0-.5-.4 1.7 1.7 0 0 0-.7 0l-1 .1q-.3.3-.3.7a.7.7 0 0 0 .2.5l.9.4 1.3.2q1 .3 1.6.8.5.5.5 1.3a2 2 0 0 1-.4 1.3q-.4.5-1.2.8-.7.3-1.6.3-1.4 0-2.3-.5-.9-.6-1-1.7l1.7-.2q.2.6.5.8.4.3 1 .3.7 0 1-.3.5-.2.5-.6a.7.7 0 0 0-.3-.6q-.2-.2-.8-.3l-1.3-.3q-1-.2-1.6-.7-.5-.6-.5-1.4 0-.7.4-1.2.4-.6 1-.8.8-.3 1.7-.3 1.3 0 2 .5.9.6 1 1.6m-161 23.2q0-1.6.5-2.9a8.5 8.5 0 0 1 1.3-2.5h1.4a5.4 5.4 0 0 0-.6 1 9 9 0 0 0-.5 1.4l-.3 1.5a10.5 10.5 0 0 0 0 3.6l.6 1.9.8 1.4h-1.4a8.5 8.5 0 0 1-1.3-2.4q-.4-1.4-.4-3m6.2 4.4-2.5-8.7h1.7l1.6 6.4h.1l1.7-6.4h1.5l1.7 6.4 1.7-6.4h1.7l-2.5 8.7h-1.6l-1.7-6.1-1.8 6.1zm11.7-3.8v3.8h-1.5v-8.7h1.5v3.3a1.9 1.9 0 0 1 .8-1q.5-.2 1.2-.2t1.2.3q.5.2.8.8.3.5.3 1.3v4.2H488v-4q0-.6-.3-1-.3-.3-1-.3-.4 0-.7.2-.3.1-.5.5-.2.3-.2.8m5.8 3.8v-6.5h1.6v6.5zm.8-7.5a.9.9 0 0 1-.6-.2.8.8 0 0 1-.3-.6q0-.4.3-.6a.9.9 0 0 1 .6-.2q.4 0 .7.2a.8.8 0 0 1 .2.6l-.2.6a.9.9 0 0 1-.7.2m5.6 1v1.1h-3.7v-1.1zm-2.8-1.6h1.6v6.6a.5.5 0 0 0 .3.2h.8l.3 1.2-.4.1h-.5a2.5 2.5 0 0 1-1 0 1.6 1.6 0 0 1-.8-.7q-.3-.4-.3-1zm7 8.2q-1 0-1.7-.4a2.8 2.8 0 0 1-1.1-1.1q-.4-.8-.4-1.8t.4-1.8a2.9 2.9 0 0 1 1-1.2q.7-.4 1.7-.4.6 0 1.1.2.6.2 1 .6.4.4.6 1 .3.6.3 1.5v.4h-5.4v-1h3.9a1.7 1.7 0 0 0-.2-.8 1.4 1.4 0 0 0-.5-.5 1.5 1.5 0 0 0-.8-.2q-.5 0-.8.2a1.6 1.6 0 0 0-.6.6 1.7 1.7 0 0 0-.2.8v1q0 .5.2.9t.6.6q.4.2.9.2h.6l.5-.4.3-.4 1.4.1a2.3 2.3 0 0 1-.5 1q-.4.5-1 .7a3.7 3.7 0 0 1-1.3.2m5.7-8.8v8.7H506v-8.7zm1.6 8.7v-6.5h1.5v6.5zm.8-7.5a.9.9 0 0 1-.7-.2.8.8 0 0 1-.2-.6q0-.4.3-.6a.9.9 0 0 1 .6-.2q.4 0 .6.2a.8.8 0 0 1 .3.6q0 .3-.3.6a.9.9 0 0 1-.6.2m7.5 2.7-1.4.1a1.1 1.1 0 0 0-.6-.7 1.4 1.4 0 0 0-.6 0l-.8.1q-.3.2-.3.6a.6.6 0 0 0 .2.4q.2.2.7.3l1.1.3q1 .2 1.4.6.4.4.4 1.1a1.8 1.8 0 0 1-.3 1.1q-.4.5-1 .8-.6.2-1.4.2-1.2 0-2-.5a2 2 0 0 1-.9-1.4l1.5-.1q.2.4.5.6.3.3.8.3.6 0 1-.3.3-.2.3-.5a.6.6 0 0 0-.3-.5l-.6-.3-1.1-.2q-1-.2-1.4-.7-.5-.4-.5-1.1a1.7 1.7 0 0 1 .4-1q.3-.5.9-.8.6-.2 1.4-.2 1.1 0 1.8.5.6.4.8 1.3m4.7-1.7v1.1h-3.8v-1.1zm-2.8-1.6h1.5v6.6a.5.5 0 0 0 .3.2h.8l.3 1.2-.3.1h-.6a2.5 2.5 0 0 1-1 0 1.6 1.6 0 0 1-.8-.7q-.2-.4-.2-1zm7 8.2q-1 0-1.8-.4a2.8 2.8 0 0 1-1-1.1q-.5-.8-.5-1.8t.4-1.8a2.9 2.9 0 0 1 1-1.2q.8-.4 1.7-.4l1.2.2 1 .6.6 1q.2.6.2 1.5v.4h-5.3v-1h3.8a1.7 1.7 0 0 0-.2-.8 1.4 1.4 0 0 0-.5-.5q-.3-.2-.8-.2l-.8.2q-.3.2-.5.6l-.2.8v1q0 .5.2.9t.5.6q.4.2 1 .2h.5l.5-.4.3-.4 1.5.1a2.2 2.2 0 0 1-.6 1q-.3.5-1 .7-.5.2-1.3.2m6.7 0q-.8 0-1.4-.4t-1-1.1-.3-1.9q0-1 .3-1.8.4-.8 1-1.1a2.5 2.5 0 0 1 1.4-.4q.5 0 .9.2l.6.4.3.5v-3.2h1.6v8.7h-1.5v-1l-.4.5a1.9 1.9 0 0 1-.6.4q-.4.2-1 .2m.5-1.3q.5 0 .8-.2.4-.3.5-.8.2-.4.2-1 0-.7-.2-1.2a1.6 1.6 0 0 0-.5-.7q-.3-.3-.8-.3t-.9.3l-.5.7a3.1 3.1 0 0 0-.2 1.1q0 .6.2 1.1l.5.8q.4.2.9.2m7.4-2.4q0 1.6-.4 3a8.4 8.4 0 0 1-1.3 2.5h-1.4l.6-1 .5-1.4.3-1.5a10.1 10.1 0 0 0 0-3.6 11 11 0 0 0-.6-2l-.8-1.4h1.4a8.4 8.4 0 0 1 1.3 2.5q.4 1.3.4 3"/><path fill="#8d3360" d="M441.5 411a23 23 0 0 1 23-23h79a23 23 0 1 1 0 46h-79a23 23 0 0 1-23-23"/><path fill="#fff" d="M466.5 416v-10.2h3.8q1.2 0 2 .4t1.2 1.2q.4.7.4 1.7t-.4 1.7q-.4.7-1.2 1-.8.5-2 .5h-2.7v-1.6h2.4l1.2-.1q.4-.2.6-.6.2-.4.2-1 0-.5-.2-.9a1.4 1.4 0 0 0-.6-.5q-.5-.2-1.2-.2h-1.7v8.6zm5.3-4.6 2.5 4.6h-2l-2.5-4.6zm7 4.7q-1.1 0-2-.4a3.2 3.2 0 0 1-1.3-1.4q-.4-.9-.4-2 0-1.3.4-2.1a3.4 3.4 0 0 1 1.3-1.4q.8-.5 2-.5l1.2.2q.7.2 1.2.7l.7 1.2q.3.7.3 1.7v.6h-6.3v-1.2h4.6a1.9 1.9 0 0 0-.3-1 1.6 1.6 0 0 0-.6-.6 1.7 1.7 0 0 0-.9-.2l-1 .2a1.8 1.8 0 0 0-.6.7l-.2 1v1q0 .7.2 1.2l.7.7q.4.2 1 .2h.7l.6-.4.3-.5 1.7.2a2.6 2.6 0 0 1-.6 1.1 3 3 0 0 1-1.1.8q-.7.2-1.6.2m5-.1v-10.2h1.8v3.8l.5-.6q.2-.3.7-.5.4-.2 1-.2 1 0 1.7.4.7.5 1 1.3.5 1 .5 2.2 0 1.2-.4 2.1-.4 1-1.1 1.4a2.9 2.9 0 0 1-1.6.4q-.7 0-1.1-.2a2.2 2.2 0 0 1-.7-.5 3.5 3.5 0 0 1-.4-.6h-.1v1.2zm1.8-3.8q0 .7.2 1.3.2.5.6.8.4.4 1 .4t1-.4q.4-.3.6-.8a3.7 3.7 0 0 0 .2-1.3 3.6 3.6 0 0 0-.2-1.3 1.9 1.9 0 0 0-.6-.8q-.4-.4-1-.4t-1 .3q-.4.3-.6.9-.2.5-.2 1.3m9.1 4q-.7 0-1.3-.3a2.1 2.1 0 0 1-.9-.8q-.3-.5-.3-1.2t.2-1.1l.7-.7.9-.4a7.5 7.5 0 0 1 1-.2h1.2l.6-.3q.2 0 .2-.4 0-.5-.4-.8-.3-.4-1-.4-.6 0-1 .3a1.4 1.4 0 0 0-.5.7l-1.7-.2q.2-.7.7-1.2a2.9 2.9 0 0 1 1.1-.7 4.3 4.3 0 0 1 1.5-.2h1l1 .5q.5.3.8.8.3.5.3 1.3v5.1H497v-1a2.2 2.2 0 0 1-.5.5 2.2 2.2 0 0 1-.7.5 3 3 0 0 1-1 .2m.4-1.4 1-.2.6-.6q.2-.3.2-.7v-1a.9.9 0 0 1-.3.2h-.5l-.5.2h-.4a3 3 0 0 0-.7.2 1.2 1.2 0 0 0-.5.4q-.2.2-.2.5 0 .5.4.8.3.2.9.2m7.2-9V416h-1.8v-10.2zm4 10.4q-.7 0-1.3-.3a2.1 2.1 0 0 1-.9-.8q-.3-.5-.3-1.2t.2-1.1q.2-.4.7-.7a3.3 3.3 0 0 1 .9-.4 7.5 7.5 0 0 1 1-.2h1.2l.6-.3q.2 0 .2-.4 0-.5-.4-.8-.3-.4-1-.4-.6 0-1 .3a1.4 1.4 0 0 0-.5.7l-1.7-.2q.2-.7.7-1.2.4-.5 1-.7a4.3 4.3 0 0 1 1.6-.2h1a3.1 3.1 0 0 1 1 .5q.5.3.8.8.3.5.3 1.3v5.1h-1.8v-1a2.2 2.2 0 0 1-.5.5 2.2 2.2 0 0 1-.7.5 3 3 0 0 1-1 .2m.4-1.4 1-.2q.3-.2.5-.6.3-.3.3-.7v-1a.9.9 0 0 1-.3.2h-.5l-.5.2h-.4a3 3 0 0 0-.7.2q-.3.1-.5.4-.2.2-.2.5 0 .5.4.8.3.2.9.2m7.2-3.3v4.5h-1.8v-7.6h1.7v1.3a2.2 2.2 0 0 1 1-1q.5-.4 1.4-.4.7 0 1.3.3.6.3 1 1 .3.6.3 1.5v4.9h-1.8v-4.6q0-.7-.4-1.2-.4-.4-1.1-.4-.5 0-.9.2a1.4 1.4 0 0 0-.5.6q-.2.4-.2 1m10 4.5q-1.1 0-2-.5a3.4 3.4 0 0 1-1.2-1.3q-.4-1-.4-2 0-1.3.4-2.1a3.3 3.3 0 0 1 1.3-1.4q.8-.5 2-.5.8 0 1.6.3a2.8 2.8 0 0 1 1.1 1q.4.6.5 1.4h-1.7a1.6 1.6 0 0 0-.5-1q-.4-.3-1-.3t-1 .3q-.4.3-.7.9-.2.5-.2 1.3t.2 1.3q.3.6.7.9.4.3 1 .3l.7-.2q.3-.1.5-.4l.3-.7h1.7a3 3 0 0 1-.5 1.4q-.4.6-1.1 1-.7.3-1.7.3m8.2 0q-1.2 0-2-.4a3.2 3.2 0 0 1-1.3-1.4q-.5-.9-.5-2 0-1.3.5-2.1a3.4 3.4 0 0 1 1.3-1.4q.8-.5 1.9-.5.7 0 1.3.2.6.2 1.1.7.5.5.8 1.2.3.7.3 1.7v.6h-6.3v-1.2h4.5a1.9 1.9 0 0 0-.2-1 1.6 1.6 0 0 0-.6-.6 1.7 1.7 0 0 0-1-.2q-.5 0-.9.2a1.8 1.8 0 0 0-.6.7q-.3.5-.3 1v1q0 .7.3 1.2.2.4.7.7.4.2 1 .2h.7l.5-.4.4-.5 1.7.2a2.6 2.6 0 0 1-.6 1.1 3 3 0 0 1-1.2.8q-.7.2-1.5.2m4.9-.1v-7.6h1.7v1.2h.1q.2-.6.7-1a2 2 0 0 1 1.2-.3h.6v1.7a2 2 0 0 0-.3-.1 3.4 3.4 0 0 0-.5 0 1.8 1.8 0 0 0-.9.2 1.6 1.6 0 0 0-.6.6 1.6 1.6 0 0 0-.2.8v4.5z"/><path fill="url(#c)" d="M159 760.5h691a22.5 22.5 0 0 1 0 45H159a22.5 22.5 0 0 1 0-45"/><path stroke="url(#d)" d="M159 760.5h691a22.5 22.5 0 0 1 0 45H159a22.5 22.5 0 0 1 0-45Z"/><path fill="#fff" d="M441.6 783q0 1.6-.6 2.7-.6 1.2-1.7 1.8-1 .6-2.4.6-1.3 0-2.4-.6-1-.6-1.6-1.8-.7-1.2-.7-2.8 0-1.6.7-2.8.6-1.2 1.6-1.8 1-.6 2.4-.6t2.4.6q1 .6 1.7 1.8.6 1.2.6 2.8m-1.9 0q0-1.1-.3-2-.4-.7-1-1.2-.6-.4-1.5-.4a2.6 2.6 0 0 0-1.4.4q-.7.5-1 1.3-.4.8-.4 2t.4 1.9q.3.8 1 1.2.6.4 1.4.4t1.5-.4q.6-.4 1-1.2.3-.8.3-2m3.6 8v-10.5h1.7v1.2h.1l.4-.6.7-.5q.5-.2 1.1-.2 1 0 1.6.4.7.5 1.2 1.3.4 1 .4 2.2 0 1.2-.4 2.1-.4 1-1.2 1.4a2.9 2.9 0 0 1-1.6.4q-.6 0-1-.2a2.2 2.2 0 0 1-.8-.5 3.4 3.4 0 0 1-.4-.6v4zm1.7-6.7q0 .7.2 1.3.3.5.7.8.4.4 1 .4.5 0 1-.4l.5-.8a3.7 3.7 0 0 0 .2-1.3 3.6 3.6 0 0 0-.2-1.3 1.9 1.9 0 0 0-.6-.8q-.4-.4-1-.4t-1 .3q-.4.3-.6.9-.2.5-.2 1.3m10.8-3.8v1.4h-4.4v-1.4zm-3.3-1.9h1.8v7.2l.1.6a.6.6 0 0 0 .3.2h1l.3 1.4-.4.1-.7.1a2.9 2.9 0 0 1-1.2-.2 1.9 1.9 0 0 1-.9-.7q-.3-.5-.3-1.2zm4.8 9.5v-7.6h1.8v7.6zm1-8.7a1 1 0 0 1-.8-.3 1 1 0 0 1-.3-.7q0-.4.3-.7a1 1 0 0 1 .7-.3q.5 0 .8.3.3.3.3.7a1 1 0 0 1-.3.7 1 1 0 0 1-.8.3m2.8 8.7v-7.6h1.7v1.3a2 2 0 0 1 .9-1q.5-.4 1.3-.4t1.3.3q.5.4.8 1 .3-.6.9-1 .6-.3 1.4-.3 1 0 1.8.6.6.7.6 2v5.1H470v-4.8q0-.8-.4-1a1.4 1.4 0 0 0-.9-.4q-.6 0-1 .4t-.4 1v4.8h-1.7v-5q0-.5-.4-.9-.3-.3-1-.3l-.6.2-.5.5a1.7 1.7 0 0 0-.2.9v4.6zm12.5 0v-7.6h1.8v7.6zm1-8.7a1 1 0 0 1-.8-.3 1 1 0 0 1-.3-.7q0-.4.3-.7a1 1 0 0 1 .8-.3q.4 0 .7.3.3.3.3.7a1 1 0 0 1-.3.7 1 1 0 0 1-.7.3m2.6 8.7v-1.1l4-5h-3.9v-1.5h6v1.2l-3.7 4.8v.1h3.9v1.5zm11.1.1q-1.1 0-2-.4a3.2 3.2 0 0 1-1.2-1.4q-.5-.9-.5-2 0-1.3.5-2.1a3.4 3.4 0 0 1 1.2-1.4q.8-.5 2-.5l1.3.2q.6.2 1 .7.6.5.8 1.2.3.7.3 1.7v.6h-6.2v-1.2h4.5a1.9 1.9 0 0 0-.2-1 1.6 1.6 0 0 0-.6-.6 1.7 1.7 0 0 0-1-.2l-1 .2a1.8 1.8 0 0 0-.6.7l-.2 1v1q0 .7.2 1.2l.7.7 1 .2h.8l.5-.4.4-.5 1.6.2a2.6 2.6 0 0 1-.6 1.1 3 3 0 0 1-1.1.8q-.7.2-1.6.2m7.8 0q-1 0-1.6-.4t-1.2-1.4-.4-2.1q0-1.3.4-2.2.5-.8 1.2-1.3a3 3 0 0 1 1.6-.4q.7 0 1 .2l.8.5.4.6v-3.8h1.8V788h-1.7v-1.2h-.1a3 3 0 0 1-.4.6 2.2 2.2 0 0 1-.7.5q-.5.2-1.1.2m.5-1.4q.5 0 1-.4.4-.3.6-.8.2-.6.2-1.3 0-.8-.2-1.3-.2-.6-.6-.9-.4-.3-1-.3t-1 .4a1.9 1.9 0 0 0-.6.8 3.6 3.6 0 0 0-.2 1.3q0 .7.2 1.3.2.5.6.8.4.4 1 .4m10.4-8.9 2.6 8h.1l2.7-8h2l-3.6 10.2h-2.3l-3.5-10.2zm10 10.4q-.7 0-1.2-.3a2.1 2.1 0 0 1-1-.8q-.3-.5-.3-1.2t.3-1.1.6-.7 1-.4a7.5 7.5 0 0 1 1-.2h1.1l.6-.3q.2 0 .2-.4 0-.5-.3-.8-.4-.4-1-.4-.7 0-1 .3a1.4 1.4 0 0 0-.6.7l-1.6-.2q.2-.7.6-1.2.5-.5 1.1-.7a4.3 4.3 0 0 1 1.5-.2h1.1a3.1 3.1 0 0 1 1 .5q.4.3.7.8.3.5.3 1.3v5.1h-1.7v-1a2.2 2.2 0 0 1-.6.5 2.2 2.2 0 0 1-.7.5 3 3 0 0 1-1 .2m.4-1.4q.6 0 1-.2t.6-.6q.2-.3.2-.7v-1a.9.9 0 0 1-.3.2h-.4l-.5.2h-.4a3 3 0 0 0-.8.2q-.3.1-.5.4-.2.2-.2.5 0 .5.4.8.4.2 1 .2m10.2-2v-4.4h1.8v7.6h-1.8v-1.4a2.3 2.3 0 0 1-.9 1q-.6.5-1.4.5-.8 0-1.4-.3a2.3 2.3 0 0 1-.9-1q-.3-.7-.3-1.6v-4.8h1.8v4.5q0 .8.4 1.2t1 .4l.8-.2q.4-.2.6-.5.3-.4.3-1m5.4-7V788h-1.8v-10.2zm5.7 2.6v1.4h-4.4v-1.4zm-3.3-1.9h1.8v7.8a.6.6 0 0 0 .4.2h.9l.3 1.4-.4.1-.6.1a2.9 2.9 0 0 1-1.2-.2 1.9 1.9 0 0 1-1-.7q-.2-.5-.2-1.2zm7.7-.7h2l2.5 4.5h.1l2.5-4.5h2.1l-3.7 6.4v3.8h-1.8v-3.8zm10.3 10.2v-7.6h1.8v7.6zm1-8.7a1 1 0 0 1-.8-.3 1 1 0 0 1-.3-.7q0-.4.3-.7a1 1 0 0 1 .7-.3q.5 0 .8.3.3.3.3.7a1 1 0 0 1-.3.7 1 1 0 0 1-.8.3m6.2 8.8q-1.2 0-2-.4a3.2 3.2 0 0 1-1.3-1.4q-.4-.9-.4-2 0-1.3.4-2.1a3.4 3.4 0 0 1 1.3-1.4q.8-.5 1.9-.5.7 0 1.3.2a3 3 0 0 1 1.1.7q.5.5.8 1.2.3.7.3 1.7v.6h-6.3v-1.2h4.5a2 2 0 0 0-.2-1 1.6 1.6 0 0 0-.6-.6 1.7 1.7 0 0 0-.9-.2l-1 .2a1.8 1.8 0 0 0-.6.7 2 2 0 0 0-.2 1v1q0 .7.2 1.2.2.4.7.7.4.2 1 .2h.7l.6-.4.3-.5 1.7.2a2.6 2.6 0 0 1-.6 1.1 3 3 0 0 1-1.1.8q-.7.2-1.6.2m6.7-10.3V788h-1.8v-10.2zm4.7 10.3q-1 0-1.6-.4-.7-.5-1.2-1.4t-.4-2.1q0-1.3.4-2.2.5-.8 1.2-1.3a3 3 0 0 1 1.6-.4q.7 0 1 .2l.8.5.4.6v-3.8h1.8V788h-1.7v-1.2h-.1a3 3 0 0 1-.4.6 2.2 2.2 0 0 1-.7.5q-.5.2-1.1.2m.5-1.4q.6 0 1-.4.4-.3.6-.8.2-.6.2-1.3 0-.8-.2-1.3-.2-.6-.6-.9-.4-.3-1-.3t-1 .4a1.9 1.9 0 0 0-.6.8 3.6 3.6 0 0 0-.2 1.3q0 .7.2 1.3.2.5.6.8.4.4 1 .4"/><path fill="#232323" d="M21 491a24 24 0 0 1 24-24h920a24 24 0 0 1 24 24v213a24 24 0 0 1-24 24H45a24 24 0 0 1-24-24z"/><path fill="url(#e)" d="M69 491.5h872a23.5 23.5 0 1 1 0 47H69a23.5 23.5 0 1 1 0-47"/><path stroke="url(#f)" d="M69 491.5h872a23.5 23.5 0 1 1 0 47H69a23.5 23.5 0 1 1 0-47Z"/><path fill="#fff" d="M445.5 520v-10.2h6.5v1.6h-4.7v2.7h4.3v1.6h-4.3v4.3zm10-10.2V520h-1.9v-10.2zm5.2 10.3q-1.2 0-2-.4a3.2 3.2 0 0 1-1.3-1.4q-.4-.9-.4-2 0-1.3.4-2.1a3.4 3.4 0 0 1 1.3-1.4q.8-.5 1.9-.5.7 0 1.3.2a3 3 0 0 1 1.1.7q.5.5.8 1.2.3.7.3 1.7v.6h-6.3v-1.2h4.5a2 2 0 0 0-.2-1 1.6 1.6 0 0 0-.6-.6 1.7 1.7 0 0 0-1-.2q-.5 0-.9.2a1.8 1.8 0 0 0-.6.7 2 2 0 0 0-.3 1v1q0 .7.3 1.2.2.4.7.7.4.2 1 .2h.7l.5-.4q.3-.2.4-.5l1.7.2a2.6 2.6 0 0 1-.6 1.1 3 3 0 0 1-1.2.8q-.7.2-1.5.2m8.3 0q-1.2 0-2-.4a3.3 3.3 0 0 1-1.3-1.4q-.5-.9-.5-2 0-1.3.5-2.1a3.4 3.4 0 0 1 1.3-1.4q.8-.5 1.9-.5.7 0 1.3.2a3 3 0 0 1 1.1.7q.5.5.8 1.2.3.7.3 1.7v.6H466v-1.2h4.5a1.9 1.9 0 0 0-.2-1 1.6 1.6 0 0 0-.6-.6 1.7 1.7 0 0 0-1-.2q-.5 0-.9.2a1.8 1.8 0 0 0-.6.7q-.3.5-.3 1v1q0 .7.3 1.2.2.4.7.7a2 2 0 0 0 1 .2h.7l.5-.4.4-.5 1.7.2a2.6 2.6 0 0 1-.6 1.1 3 3 0 0 1-1.2.8q-.7.2-1.5.2m8.7-7.7v1.4h-4.4v-1.4zm-3.3-1.9h1.8v7.8a.6.6 0 0 0 .4.2h1l.3 1.4-.4.1a3.3 3.3 0 0 1-.6.1 2.9 2.9 0 0 1-1.2-.2 1.9 1.9 0 0 1-1-.7q-.2-.5-.2-1.2zm17 2.8h-1.8a2.3 2.3 0 0 0-.3-.9 2.2 2.2 0 0 0-1.2-1 2.8 2.8 0 0 0-1 0q-.7 0-1.4.4-.6.4-1 1.2-.4.8-.4 2 0 1 .4 1.9.4.8 1 1.2a2.7 2.7 0 0 0 1.5.4l.8-.1.8-.4q.3-.2.5-.6l.3-.8h1.9a4 4 0 0 1-.5 1.4 4 4 0 0 1-.9 1.1 4.2 4.2 0 0 1-1.3.8 4.9 4.9 0 0 1-1.6.2q-1.4 0-2.4-.6-1.1-.6-1.7-1.8-.6-1.1-.6-2.8 0-1.6.6-2.8.6-1.2 1.7-1.8t2.4-.6q.8 0 1.5.2.8.3 1.3.7.6.5 1 1.1l.5 1.6m4.9 6.8q-1.1 0-2-.4a3.3 3.3 0 0 1-1.2-1.4q-.5-1-.5-2 0-1.3.5-2.2a3.3 3.3 0 0 1 1.3-1.3q.8-.5 1.9-.5t2 .5q.8.4 1.2 1.3.5 1 .5 2.1 0 1.2-.5 2a3.3 3.3 0 0 1-1.3 1.5q-.8.4-1.9.4m0-1.4q.6 0 1-.3.4-.4.6-1a3.7 3.7 0 0 0 .2-1.2q0-.7-.2-1.3a2 2 0 0 0-.6-.9q-.4-.3-1-.3t-1 .3a2 2 0 0 0-.6 1 3.8 3.8 0 0 0-.2 1.2q0 .7.2 1.3.2.5.6.9.4.3 1 .3m5.2 1.3v-7.6h1.7v1.3h.1q.2-.7.8-1 .5-.4 1.3-.4t1.3.3q.6.4.8 1 .3-.6.9-1 .6-.3 1.4-.3 1.1 0 1.8.6.6.7.6 2v5.1h-1.8v-4.8q0-.8-.4-1a1.4 1.4 0 0 0-.9-.4q-.6 0-1 .4t-.4 1v4.8H506v-5q0-.5-.4-.9-.3-.3-1-.3l-.6.2-.5.5a1.7 1.7 0 0 0-.2.9v4.6zm12.6 0v-7.6h1.7v1.3q.3-.7.9-1 .5-.4 1.3-.4.7 0 1.3.3.5.4.7 1h.1q.3-.6.9-1 .6-.3 1.4-.3 1 0 1.7.6.7.7.7 2v5.1H523v-4.8q0-.8-.4-1a1.4 1.4 0 0 0-1-.4q-.6 0-1 .4-.3.4-.3 1v4.8h-1.8v-5q0-.5-.3-.9-.4-.3-1-.3l-.7.2-.5.5a1.7 1.7 0 0 0-.1.9v4.6zm14.7.2q-.7 0-1.3-.3a2.1 2.1 0 0 1-1-.8q-.2-.5-.2-1.2t.2-1.1q.2-.4.7-.7l.9-.4a7.5 7.5 0 0 1 1-.2h1.1q.5-.1.7-.3l.1-.4q0-.5-.3-.8-.3-.4-1-.4-.6 0-1 .3a1.4 1.4 0 0 0-.5.7l-1.7-.2q.2-.7.7-1.2.4-.5 1-.7a4.3 4.3 0 0 1 1.5-.2h1.1l1 .5q.5.3.8.8.2.5.2 1.3v5.1h-1.7v-1a2.2 2.2 0 0 1-.5.5 2.2 2.2 0 0 1-.7.5 3 3 0 0 1-1 .2m.4-1.4 1-.2q.3-.2.5-.6.3-.3.3-.7v-1a.9.9 0 0 1-.3.2h-.5l-.5.2h-.4a3 3 0 0 0-.7.2q-.3.1-.5.4-.2.2-.2.5 0 .5.4.8.3.2.9.2m7.2-3.3v4.5h-1.8v-7.6h1.7v1.3q.3-.7 1-1 .5-.4 1.3-.4t1.4.3q.6.3 1 1 .3.6.3 1.5v4.9h-1.8v-4.6q0-.7-.4-1.2-.4-.4-1.1-.4-.5 0-.9.2a1.4 1.4 0 0 0-.5.6q-.2.4-.2 1m9.5 4.5q-.9 0-1.6-.4-.7-.5-1.1-1.4-.4-.8-.4-2.1t.4-2.2q.4-.8 1.1-1.3a2.9 2.9 0 0 1 1.6-.4q.7 0 1.1.2.5.2.7.5l.4.6v-3.8h1.9V520h-1.8v-1.2a3 3 0 0 1-.5.6 2.2 2.2 0 0 1-.7.5q-.4.2-1 .2m.4-1.4q.6 0 1-.4.4-.3.6-.8.2-.6.2-1.3t-.2-1.3q-.2-.6-.6-.9-.4-.3-1-.3t-1 .4a1.9 1.9 0 0 0-.6.8 3.6 3.6 0 0 0-.2 1.3q0 .7.2 1.3.2.5.6.8.4.4 1 .4m8.9 1.4q-1.2 0-2-.4a3.2 3.2 0 0 1-1.3-1.4q-.4-.9-.4-2 0-1.3.4-2.1a3.4 3.4 0 0 1 1.3-1.4q.8-.5 1.9-.5.7 0 1.3.2.7.2 1.1.7.5.5.8 1.2.3.7.3 1.7v.6h-6.3v-1.2h4.6a1.9 1.9 0 0 0-.3-1 1.6 1.6 0 0 0-.6-.6 1.7 1.7 0 0 0-.9-.2l-1 .2a1.8 1.8 0 0 0-.6.7 2 2 0 0 0-.2 1v1q0 .7.2 1.2l.7.7q.4.2 1 .2h.7l.6-.4.3-.5 1.7.2a2.6 2.6 0 0 1-.6 1.1 3 3 0 0 1-1.1.8q-.7.2-1.6.2m5-.1v-7.6h1.7v1.2q.2-.6.7-1 .6-.3 1.2-.3h.7v1.7a2 2 0 0 0-.4-.1 3 3 0 0 0-.5 0q-.5 0-.9.2a1.6 1.6 0 0 0-.6.6 1.6 1.6 0 0 0-.2.8v4.5z"/><path fill="#8d3360" d="M76 608a8 8 0 0 1 8-8h110a8 8 0 0 1 8 8v88a8 8 0 0 1-8 8H84a8 8 0 0 1-8-8z"/><path fill="#fff" d="M119 626.4v-1.6h8.1v1.6H124v8.6h-2v-8.6zm11.8 8.7q-1.1 0-2-.4a3.3 3.3 0 0 1-1.2-1.4q-.4-1-.4-2 0-1.3.4-2.2a3.3 3.3 0 0 1 1.3-1.3q.8-.5 2-.5t1.9.5q.8.4 1.2 1.3.5 1 .5 2.1 0 1.2-.5 2a3.3 3.3 0 0 1-1.2 1.5q-.9.4-2 .4m0-1.4q.6 0 1-.3.5-.4.7-1a3.7 3.7 0 0 0 .2-1.2q0-.7-.2-1.3a2 2 0 0 0-.7-.9q-.4-.3-1-.3t-1 .3a2 2 0 0 0-.6 1q-.2.5-.2 1.2t.2 1.3q.2.5.6.9.4.3 1 .3m6.8-1.1v-2.2h.3l2.8-3h2l-3.3 3.7h-.4zM136 635v-10.2h1.8V635zm4.8 0-2.5-3.5 1.2-1.2 3.5 4.7zm6.2.1q-1.1 0-2-.4a3.2 3.2 0 0 1-1.2-1.4q-.5-.9-.5-2 0-1.3.5-2.1a3.4 3.4 0 0 1 1.2-1.4q.9-.5 2-.5.7 0 1.3.2a3 3 0 0 1 1.1.7q.5.5.8 1.2.2.7.2 1.7v.6h-6.2v-1.2h4.5a1.9 1.9 0 0 0-.2-1 1.6 1.6 0 0 0-.6-.6 1.7 1.7 0 0 0-1-.2q-.5 0-.9.2a1.8 1.8 0 0 0-.6.7q-.3.5-.3 1v1q0 .7.3 1.2.2.4.6.7l1 .2h.8l.5-.4q.3-.2.4-.5l1.7.2a2.6 2.6 0 0 1-.6 1.1 3 3 0 0 1-1.2.8q-.7.2-1.6.2m6.8-4.6v4.5H152v-7.6h1.7v1.3q.3-.7 1-1 .5-.4 1.3-.4t1.4.3q.6.3 1 1 .3.6.3 1.5v4.9h-1.8v-4.6q0-.7-.4-1.2-.4-.4-1.1-.4-.5 0-.9.2a1.4 1.4 0 0 0-.5.6q-.2.4-.2 1M114.5 657v-10.2h3.8q1.2 0 2 .4t1.2 1.2q.4.7.4 1.7t-.4 1.7q-.5.7-1.3 1-.8.5-2 .5h-2.7v-1.6h2.5l1.1-.1q.5-.2.7-.6.2-.4.2-1 0-.5-.2-.8a1.4 1.4 0 0 0-.7-.6q-.4-.2-1-.2h-1.8v8.6zm5.2-4.6 2.6 4.6h-2.1l-2.5-4.6zm7 4.7q-1 0-2-.4a3.2 3.2 0 0 1-1.2-1.4q-.4-.9-.4-2 0-1.3.4-2.1a3.4 3.4 0 0 1 1.3-1.4q.8-.5 1.9-.5.7 0 1.3.2.6.2 1.1.7.5.5.8 1.2.3.7.3 1.7v.6h-6.3v-1.2h4.5a2 2 0 0 0-.2-1 1.6 1.6 0 0 0-.6-.6 1.7 1.7 0 0 0-.9-.2q-.6 0-1 .2a1.8 1.8 0 0 0-.6.7l-.3 1v1q0 .7.3 1.2.2.4.7.7.4.2 1 .2h.7l.6-.4.3-.5 1.7.2a2.6 2.6 0 0 1-.6 1.1 3 3 0 0 1-1.1.8q-.7.2-1.6.2m6.4-.1-2.1-7.6h1.8l1.3 5.3h.1l1.4-5.3h1.8l1.4 5.3 1.4-5.3h1.8L140 657h-1.8l-1.5-5.2-1.5 5.2zm12.4.2q-.8 0-1.3-.3a2.1 2.1 0 0 1-1-.8q-.3-.5-.3-1.2t.2-1.1l.7-.7 1-.4a7.5 7.5 0 0 1 1-.2h1q.5-.1.7-.3.2 0 .2-.4 0-.5-.3-.8-.4-.4-1-.4-.7 0-1 .3a1.4 1.4 0 0 0-.6.7l-1.6-.2q.2-.7.6-1.2.5-.5 1.1-.7.7-.2 1.5-.2h1l1 .5q.5.3.8.8.3.5.3 1.3v5.1h-1.7v-1h-.1a2.2 2.2 0 0 1-.5.5 2.2 2.2 0 0 1-.7.5 3 3 0 0 1-1 .2m.4-1.4q.6 0 1-.2t.6-.6q.2-.3.2-.7v-1a.9.9 0 0 1-.3.2h-.4l-.5.2h-.5a3 3 0 0 0-.7.2 1.2 1.2 0 0 0-.5.4.8.8 0 0 0-.2.5q0 .5.4.8.4.2 1 .2m5.3 1.2v-7.6h1.7v1.2h.1q.2-.6.7-1a2 2 0 0 1 1.2-.3h.7v1.7a2 2 0 0 0-.4-.1 3 3 0 0 0-.5 0q-.5 0-.9.2a1.6 1.6 0 0 0-.6.6 1.6 1.6 0 0 0-.2.8v4.5zm8 .1q-.8 0-1.5-.4t-1.2-1.4-.4-2.1q0-1.3.4-2.2.5-.8 1.2-1.3a3 3 0 0 1 1.6-.4q.6 0 1 .2l.8.5.4.6v-3.8h1.8V657h-1.7v-1.2h-.1a3 3 0 0 1-.4.6 2.2 2.2 0 0 1-.7.5q-.5.2-1.1.2m.5-1.4q.5 0 1-.4.4-.3.6-.8.2-.6.2-1.3 0-.8-.2-1.3a1.8 1.8 0 0 0-.6-.9q-.4-.3-1-.3t-1 .4a1.9 1.9 0 0 0-.6.8 3.6 3.6 0 0 0-.2 1.3q0 .7.2 1.3.2.5.6.8.4.4 1 .4M113.3 679v-10.2h1.9v4.3h4.7v-4.3h1.8V679H120v-4.3h-4.7v4.3zm12.6.2a3.2 3.2 0 0 1-1.3-.3 2.1 2.1 0 0 1-1-.8q-.3-.5-.3-1.2t.2-1.1.7-.7 1-.4a7.5 7.5 0 0 1 1-.2h1.1l.6-.3q.2 0 .2-.4 0-.5-.3-.9-.4-.3-1-.3-.7 0-1 .3a1.4 1.4 0 0 0-.6.7l-1.6-.2q.2-.7.6-1.2a2.9 2.9 0 0 1 1.1-.7 4.3 4.3 0 0 1 1.5-.2h1l1 .5q.5.3.8.8.3.5.3 1.3v5.1h-1.7v-1a2.2 2.2 0 0 1-.6.5 2.2 2.2 0 0 1-.7.5 3 3 0 0 1-1 .2m.4-1.4q.6 0 1-.2t.6-.6q.2-.3.2-.7v-1a.9.9 0 0 1-.3.2h-.4l-.5.2h-.4a3 3 0 0 0-.8.2 1.2 1.2 0 0 0-.5.4q-.2.2-.2.5 0 .5.4.8.4.2 1 .2m5.3 1.2v-7.6h1.8v1.2q.2-.6.7-1a2 2 0 0 1 1.2-.3h.7v1.7a2 2 0 0 0-.4-.1 3.4 3.4 0 0 0-.5 0q-.5 0-.9.2a1.6 1.6 0 0 0-.6.6 1.6 1.6 0 0 0-.2.8v4.5zm12.6-7.6-2.7 7.6h-2l-2.7-7.6h1.9l1.8 5.6 1.8-5.6zm4.4 7.7q-1.2 0-2-.4a3.2 3.2 0 0 1-1.3-1.4q-.4-.9-.4-2 0-1.3.4-2.1a3.4 3.4 0 0 1 1.3-1.4q.8-.5 1.9-.5.7 0 1.3.2.6.2 1.1.7.5.5.8 1.2.3.7.3 1.7v.6h-6.3v-1.2h4.5a1.9 1.9 0 0 0-.2-1 1.6 1.6 0 0 0-.6-.6 1.7 1.7 0 0 0-.9-.2l-1 .2a1.8 1.8 0 0 0-.6.7l-.2 1v1q0 .7.2 1.2.2.4.7.7.4.2 1 .2h.7l.6-.4q.3-.2.3-.5l1.7.2a2.6 2.6 0 0 1-.6 1.1 3 3 0 0 1-1.1.8q-.7.2-1.6.2m11-5.7-1.7.2a1.3 1.3 0 0 0-.3-.5 1.2 1.2 0 0 0-.4-.4 1.7 1.7 0 0 0-.7 0q-.6 0-1 .2-.3.2-.3.6a.7.7 0 0 0 .2.5l.8.4 1.3.2q1.1.3 1.7.8.5.5.5 1.3a2 2 0 0 1-.4 1.3q-.4.5-1.2.8t-1.7.3q-1.4 0-2.2-.5-.9-.6-1-1.7l1.7-.2q.1.6.5.8.4.3 1 .3.7 0 1-.3.5-.2.5-.6a.7.7 0 0 0-.3-.6l-.8-.3-1.3-.3q-1-.2-1.6-.7-.5-.6-.5-1.4a2 2 0 0 1 .4-1.2q.3-.6 1-.8.7-.3 1.7-.3 1.3 0 2 .5.8.6 1 1.6m5.5-2v1.4h-4.4v-1.4zm-3.3-1.9h1.8v7.2l.1.6a.6.6 0 0 0 .3.2h.9l.3 1.4-.4.1-.6.1a2.9 2.9 0 0 1-1.2-.2 1.9 1.9 0 0 1-.9-.7q-.3-.5-.3-1.2z"/><path fill="#ff49a4" d="M209 608a8 8 0 0 1 8-8h176a8 8 0 0 1 8 8v30a8 8 0 0 1-8 8H217a8 8 0 0 1-8-8z"/><path fill="#fff" d="M258.5 628v-10.2h3.8q1.2 0 2 .5a2.9 2.9 0 0 1 1.2 1.2q.4.7.4 1.7t-.4 1.7a3 3 0 0 1-1.2 1.2q-.8.5-2 .5h-2.5V623h2.2q.7 0 1.2-.2.4-.2.6-.7a2.1 2.1 0 0 0 .2-1q0-.5-.2-.9a1.4 1.4 0 0 0-.6-.6q-.5-.2-1.2-.2h-1.7v8.6zm9 0v-7.6h1.7v1.2q.3-.6.8-1a2 2 0 0 1 1.1-.3h.7v1.7a2 2 0 0 0-.4-.1 3.4 3.4 0 0 0-.4 0l-1 .2a1.6 1.6 0 0 0-.5.6 1.6 1.6 0 0 0-.3.8v4.5zm8.5.1q-1.1 0-2-.4a3.3 3.3 0 0 1-1.2-1.4q-.5-1-.5-2 0-1.3.5-2.2a3.3 3.3 0 0 1 1.3-1.3q.8-.5 1.9-.5t2 .5q.8.4 1.2 1.3.5 1 .5 2.1 0 1.2-.5 2a3.3 3.3 0 0 1-1.3 1.5q-.8.4-1.9.4m0-1.4q.6 0 1-.3.4-.4.6-1a3.7 3.7 0 0 0 .2-1.2q0-.7-.2-1.3a2 2 0 0 0-.6-.9q-.4-.3-1-.3t-1 .3a2 2 0 0 0-.6 1q-.2.5-.2 1.2t.2 1.3q.2.5.6.9.4.3 1 .3m9-6.3v1.4h-4.4v-1.4zm-3.3-1.9h1.8v7.2l.1.6a.6.6 0 0 0 .3.2h.9l.3 1.4-.4.1-.6.1a2.9 2.9 0 0 1-1.2-.2 1.9 1.9 0 0 1-.9-.7q-.3-.5-.3-1.2zm8 9.6q-1 0-1.9-.4a3.3 3.3 0 0 1-1.3-1.4q-.4-1-.4-2 0-1.3.4-2.2a3.3 3.3 0 0 1 1.3-1.3q.8-.5 2-.5 1 0 1.9.5.8.4 1.3 1.3.4 1 .4 2.1 0 1.2-.4 2a3.3 3.3 0 0 1-1.3 1.5q-.8.4-2 .4m0-1.4q.7 0 1-.3.5-.4.7-1a3.7 3.7 0 0 0 .2-1.2q0-.7-.2-1.3a2 2 0 0 0-.6-.9q-.4-.3-1-.3-.7 0-1 .3a2 2 0 0 0-.7 1 3.8 3.8 0 0 0-.2 1.2q0 .7.2 1.3.2.5.6.9.4.3 1 .3m8.6 1.4q-1.2 0-2-.5a3.4 3.4 0 0 1-1.2-1.3q-.5-1-.5-2 0-1.3.5-2.1a3.4 3.4 0 0 1 1.2-1.4q.8-.5 2-.5.9 0 1.6.3.7.3 1.2 1 .4.6.4 1.4h-1.7a1.6 1.6 0 0 0-.5-1q-.4-.3-1-.3t-1 .3q-.4.3-.6.9-.3.5-.3 1.3t.3 1.3q.2.6.6.9.4.3 1 .3.4 0 .7-.2.3-.1.5-.4l.3-.7h1.7a3 3 0 0 1-.4 1.4 2.8 2.8 0 0 1-1.2 1q-.7.3-1.6.3m8 0q-1 0-1.9-.4a3.3 3.3 0 0 1-1.3-1.4q-.4-1-.4-2 0-1.3.4-2.2a3.3 3.3 0 0 1 1.3-1.3q.8-.5 2-.5t1.9.5q.8.4 1.3 1.3.4 1 .4 2.1 0 1.2-.4 2a3.3 3.3 0 0 1-1.3 1.5q-.8.4-2 .4m0-1.4q.7 0 1-.3.5-.4.7-1a3.7 3.7 0 0 0 .2-1.2q0-.7-.2-1.3a2 2 0 0 0-.6-.9q-.4-.3-1-.3-.7 0-1 .3a2 2 0 0 0-.7 1 3.8 3.8 0 0 0-.2 1.2q0 .7.2 1.3.2.5.6.9.4.3 1 .3m7-8.9V628h-1.8v-10.2zm6.8 10.2h-2l3.6-10.2h2.2l3.6 10.2h-2l-2.7-8zm0-4h5.4v1.5H320zm8.7 4v-7.6h1.7v1.2h.1q.2-.6.7-1a2 2 0 0 1 1.2-.3h.6v1.7a2 2 0 0 0-.3-.1 3.4 3.4 0 0 0-.5 0q-.5 0-.9.2a1.6 1.6 0 0 0-.6.6 1.6 1.6 0 0 0-.2.8v4.5zm7.2-2.4v-2.2h.3l2.7-3h2.1l-3.4 3.7h-.3zm-1.7 2.4v-10.2h1.8V628zm4.8 0-2.4-3.5 1.2-1.2 3.4 4.7zm10.8-10.2V628h-1.8v-8.4h-.1l-2.4 1.5v-1.7l2.6-1.6z"/><path fill="#ff49a4" d="M209 664a8 8 0 0 1 8-8h176a8 8 0 0 1 8 8v30a8 8 0 0 1-8 8H217a8 8 0 0 1-8-8z"/><path fill="#fff" d="M234 684v-10.2h1.8v4.3h4.8v-4.3h1.8V684h-1.8v-4.3h-4.8v4.3zm10.3 0v-7.6h1.8v7.6zm1-8.7q-.5 0-.8-.3a1 1 0 0 1-.3-.7q0-.4.3-.7.3-.3.7-.3.5 0 .8.3.3.3.3.7a1 1 0 0 1-.3.7 1 1 0 0 1-.8.3m6.1 11.7q-1 0-1.7-.2l-1-.7a2.4 2.4 0 0 1-.7-1l1.7-.4q0 .2.3.4.2.3.5.4.4.2 1 .2.7 0 1.2-.4t.5-1.2v-1.5a2.6 2.6 0 0 1-.5.6 2.1 2.1 0 0 1-.7.5q-.4.2-1 .2a3.1 3.1 0 0 1-1.7-.4q-.7-.4-1.1-1.3-.4-.8-.4-2 0-1.3.4-2.2.4-.8 1.1-1.3a2.9 2.9 0 0 1 1.6-.4q.7 0 1.1.2.5.2.7.5l.4.6h.1v-1.2h1.8v7.7q0 1-.5 1.6-.4.7-1.2 1-.9.3-1.9.3m0-4.5q.6 0 1-.3t.6-.8q.2-.5.2-1.3 0-.7-.2-1.2-.2-.6-.6-.9-.4-.3-1-.3t-1 .4a1.9 1.9 0 0 0-.6.8 3.5 3.5 0 0 0-.2 1.2q0 .7.2 1.3.2.5.6.8.4.3 1 .3m7.2-3v4.5h-1.8v-10.2h1.8v3.9a2.2 2.2 0 0 1 1-1q.5-.4 1.4-.4.8 0 1.4.3.5.3.9 1 .3.6.3 1.5v4.9h-1.8v-4.6q0-.8-.4-1.2-.4-.4-1.1-.4a1.7 1.7 0 0 0-.9.2 1.5 1.5 0 0 0-.5.6q-.3.4-.3 1m14.2 1h1.6l1 1.3.7.8 1.7 2.2H276l-1.1-1.5-.5-.7zm5.3-1.7q0 1.7-.6 2.8-.6 1.2-1.7 1.8-1 .6-2.4.6t-2.4-.6q-1-.6-1.7-1.8-.6-1.2-.6-2.8 0-1.6.6-2.8.7-1.2 1.7-1.8 1-.6 2.4-.6t2.4.6q1 .6 1.7 1.8.6 1.2.6 2.8m-1.9 0q0-1.1-.3-2-.4-.7-1-1.2a2.6 2.6 0 0 0-1.5-.4q-.8 0-1.5.4-.6.5-1 1.3-.3.8-.3 2t.3 1.9q.4.8 1 1.2.7.4 1.5.4t1.5-.4q.6-.4 1-1.2.3-.8.3-2m8.4 1.9v-4.4h1.8v7.6h-1.7v-1.4h-.1a2.3 2.3 0 0 1-.9 1q-.5.5-1.4.5-.7 0-1.3-.3a2.3 2.3 0 0 1-1-1q-.2-.7-.2-1.6v-4.8h1.8v4.5q0 .8.4 1.2.4.4 1 .4l.8-.2.6-.5q.2-.4.2-1m5.9 3.4q-.8 0-1.3-.3a2.1 2.1 0 0 1-1-.8q-.3-.5-.3-1.2t.3-1.1q.2-.4.6-.7l1-.4a7.5 7.5 0 0 1 1-.2h1.1l.6-.3q.2 0 .2-.4 0-.5-.3-.9-.4-.3-1-.3-.7 0-1 .3a1.4 1.4 0 0 0-.6.7l-1.6-.2q.2-.7.6-1.2.5-.5 1.1-.7a4.3 4.3 0 0 1 1.5-.2h1.1l1 .5q.5.3.7.8.3.5.3 1.3v5.1h-1.7v-1a2.2 2.2 0 0 1-.5.5 2.2 2.2 0 0 1-.8.5 3 3 0 0 1-1 .2m.4-1.4q.6 0 1-.2t.6-.6q.2-.3.2-.7v-1a.9.9 0 0 1-.3.2h-.4l-.5.2h-.4a3 3 0 0 0-.8.2q-.3.1-.5.4l-.1.5q0 .5.3.8.4.2 1 .2m7.1-9V684h-1.8v-10.2zm2 10.2v-7.6h1.8v7.6zm.9-8.7q-.5 0-.8-.3a1 1 0 0 1-.3-.7q0-.4.3-.7.3-.3.8-.3.4 0 .7.3.3.3.3.7a1 1 0 0 1-.3.7 1 1 0 0 1-.7.3m6.5 1v1.5H303v-1.4zm-3.3-1.8h1.8v7.2l.1.6a.6.6 0 0 0 .3.2h1l.3 1.4-.4.1-.7.1a2.9 2.9 0 0 1-1.2-.2 1.9 1.9 0 0 1-.9-.7q-.3-.5-.3-1.2zm6 12.4a3.6 3.6 0 0 1-.7-.1 2.6 2.6 0 0 1-.5-.1l.4-1.4h.7a.9.9 0 0 0 .5-.1q.3-.2.4-.6l.2-.4-2.8-7.8h2l1.7 5.7 1.8-5.7h2l-3.1 8.5q-.2.6-.6 1a2.3 2.3 0 0 1-.8.7q-.5.3-1.2.3m10.5-2.9v-10.2h3.8q1.1 0 2 .5.7.4 1.1 1.2.5.7.5 1.7t-.5 1.7a3 3 0 0 1-1.2 1.2q-.8.5-2 .5h-2.5V679h2.3q.7 0 1.1-.2a1.5 1.5 0 0 0 .7-.7q.2-.4.2-1t-.2-.9a1.4 1.4 0 0 0-.7-.6q-.4-.2-1.1-.2h-1.7v8.6zm8.9 0v-7.6h1.7v1.2h.1q.2-.6.7-1a2 2 0 0 1 1.2-.3h.6v1.7a2 2 0 0 0-.3-.1 3.4 3.4 0 0 0-.5 0q-.5 0-.9.2a1.6 1.6 0 0 0-.6.6 1.6 1.6 0 0 0-.2.8v4.5zm8.5.1q-1 0-1.9-.4a3.3 3.3 0 0 1-1.3-1.4q-.4-1-.4-2 0-1.3.4-2.2a3.3 3.3 0 0 1 1.3-1.3q.8-.5 2-.5t1.9.5q.8.4 1.3 1.3.4 1 .4 2.1 0 1.2-.4 2a3.3 3.3 0 0 1-1.3 1.5q-.8.4-2 .4m0-1.4q.7 0 1-.3.5-.4.7-1a3.7 3.7 0 0 0 .2-1.2q0-.7-.2-1.3a2 2 0 0 0-.6-.9q-.4-.3-1-.3-.7 0-1 .3a2 2 0 0 0-.7 1q-.2.5-.2 1.2t.2 1.3q.2.5.6.9.4.3 1 .3m9-6.3v1.4h-4.3v-1.4zm-3.3-1.9h1.8v7.2q0 .4.2.6a.6.6 0 0 0 .2.2h1l.3 1.4-.4.1-.7.1a2.9 2.9 0 0 1-1.2-.2 1.9 1.9 0 0 1-.8-.7q-.4-.5-.4-1.2zm8.1 9.6q-1.1 0-2-.4a3.3 3.3 0 0 1-1.2-1.4q-.5-1-.5-2 0-1.3.5-2.2a3.3 3.3 0 0 1 1.3-1.3q.8-.5 1.9-.5t2 .5q.8.4 1.2 1.3.5 1 .5 2.1 0 1.2-.5 2a3.3 3.3 0 0 1-1.3 1.5q-.8.4-1.9.4m0-1.4q.6 0 1-.3.4-.4.6-1a3.7 3.7 0 0 0 .2-1.2q0-.7-.2-1.3a2 2 0 0 0-.6-.9q-.4-.3-1-.3t-1 .3a2 2 0 0 0-.6 1q-.2.5-.2 1.2t.2 1.3q.2.5.6.9.4.3 1 .3m8.5 1.4q-1.1 0-2-.5a3.4 3.4 0 0 1-1.2-1.3q-.4-1-.4-2 0-1.3.4-2.1a3.3 3.3 0 0 1 1.3-1.4q.8-.5 2-.5.8 0 1.6.3a2.8 2.8 0 0 1 1.1 1q.4.6.5 1.4h-1.7a1.6 1.6 0 0 0-.5-1q-.4-.3-1-.3t-1 .3q-.5.3-.7.9-.2.5-.2 1.3t.2 1.3q.2.6.7.9.4.3 1 .3l.6-.2q.4-.1.6-.4l.3-.7h1.7a3 3 0 0 1-.5 1.4q-.4.6-1.1 1-.7.3-1.7.3m8.1 0q-1.1 0-2-.4a3.3 3.3 0 0 1-1.2-1.4q-.5-1-.5-2 0-1.3.5-2.2a3.3 3.3 0 0 1 1.3-1.3q.8-.5 1.9-.5 1.1 0 2 .5.8.4 1.2 1.3.5 1 .5 2.1 0 1.2-.5 2a3.3 3.3 0 0 1-1.3 1.5q-.8.4-1.9.4m0-1.4q.6 0 1-.3.4-.4.6-1a3.7 3.7 0 0 0 .2-1.2q0-.7-.2-1.3a2 2 0 0 0-.6-.9q-.4-.3-1-.3t-1 .3a2 2 0 0 0-.6 1 3.8 3.8 0 0 0-.2 1.2q0 .7.2 1.3.2.5.6.9.4.3 1 .3m7-8.9V684h-1.8v-10.2z"/><path fill="#ff49a4" d="M409 664a8 8 0 0 1 8-8h176a8 8 0 0 1 8 8v30a8 8 0 0 1-8 8H417a8 8 0 0 1-8-8z"/><path fill="#fff" d="M434 684v-10.2h1.8v4.3h4.8v-4.3h1.8V684h-1.8v-4.3h-4.8v4.3zm10.3 0v-7.6h1.8v7.6zm1-8.7q-.5 0-.8-.3a1 1 0 0 1-.3-.7q0-.4.3-.7.3-.3.7-.3.5 0 .8.3.3.3.3.7a1 1 0 0 1-.3.7 1 1 0 0 1-.8.3m6.1 11.7q-1 0-1.7-.2l-1-.7a2.4 2.4 0 0 1-.7-1l1.7-.4q0 .2.3.4.2.3.5.4.4.2 1 .2.7 0 1.2-.4t.5-1.2v-1.5a2.6 2.6 0 0 1-.5.6 2.1 2.1 0 0 1-.7.5q-.4.2-1 .2a3.1 3.1 0 0 1-1.7-.4q-.7-.4-1.1-1.3-.4-.8-.4-2 0-1.3.4-2.2.4-.8 1.1-1.3a2.9 2.9 0 0 1 1.6-.4q.7 0 1.1.2.5.2.7.5l.4.6h.1v-1.2h1.8v7.7q0 1-.5 1.6-.4.7-1.2 1-.9.3-1.9.3m0-4.5q.6 0 1-.3t.6-.8q.2-.5.2-1.3 0-.7-.2-1.2-.2-.6-.6-.9-.4-.3-1-.3t-1 .4a1.9 1.9 0 0 0-.6.8 3.5 3.5 0 0 0-.2 1.2q0 .7.2 1.3.2.5.6.8.4.3 1 .3m7.2-3v4.5h-1.8v-10.2h1.8v3.9a2.2 2.2 0 0 1 1-1q.5-.4 1.4-.4.8 0 1.4.3.5.3.9 1 .3.6.3 1.5v4.9h-1.8v-4.6q0-.8-.4-1.2-.4-.4-1.1-.4a1.7 1.7 0 0 0-.9.2 1.5 1.5 0 0 0-.5.6q-.3.4-.3 1m14.2 1h1.6l1 1.3.7.8 1.7 2.2H476l-1.1-1.5-.5-.7zm5.3-1.7q0 1.7-.6 2.8-.6 1.2-1.7 1.8-1 .6-2.4.6-1.3 0-2.4-.6-1-.6-1.7-1.8-.6-1.2-.6-2.8 0-1.6.6-2.8.7-1.2 1.7-1.8 1-.6 2.4-.6 1.3 0 2.4.6 1 .6 1.7 1.8.6 1.2.6 2.8m-1.9 0q0-1.1-.3-2-.4-.7-1-1.2a2.6 2.6 0 0 0-1.5-.4q-.8 0-1.5.4-.6.5-1 1.3-.3.8-.3 2t.3 1.9q.4.8 1 1.2.7.4 1.5.4t1.5-.4q.6-.4 1-1.2.3-.8.3-2m8.4 1.9v-4.4h1.8v7.6h-1.7v-1.4h-.1a2.3 2.3 0 0 1-.9 1q-.5.5-1.4.5-.7 0-1.3-.3a2.3 2.3 0 0 1-1-1q-.2-.7-.2-1.6v-4.8h1.8v4.5q0 .8.4 1.2t1 .4l.8-.2.6-.5q.2-.4.2-1m5.9 3.4q-.8 0-1.3-.3a2.1 2.1 0 0 1-1-.8q-.3-.5-.3-1.2t.3-1.1q.2-.4.6-.7l1-.4a7.5 7.5 0 0 1 1-.2h1.1l.6-.3q.2 0 .2-.4 0-.5-.3-.9-.4-.3-1-.3-.7 0-1 .3a1.4 1.4 0 0 0-.6.7l-1.6-.2q.2-.7.6-1.2.5-.5 1.1-.7a4.3 4.3 0 0 1 1.5-.2h1.1l1 .5q.5.3.7.8.3.5.3 1.3v5.1h-1.7v-1a2.2 2.2 0 0 1-.5.5 2.2 2.2 0 0 1-.8.5 3 3 0 0 1-1 .2m.4-1.4q.6 0 1-.2t.6-.6q.2-.3.2-.7v-1a.9.9 0 0 1-.3.2h-.4l-.5.2h-.4a3 3 0 0 0-.8.2q-.3.1-.5.4l-.1.5q0 .5.3.8.4.2 1 .2m7.1-9V684h-1.8v-10.2zm2 10.2v-7.6h1.8v7.6zm.9-8.7q-.5 0-.8-.3a1 1 0 0 1-.3-.7q0-.4.3-.7.3-.3.8-.3.4 0 .7.3.3.3.3.7a1 1 0 0 1-.3.7 1 1 0 0 1-.7.3m6.5 1v1.5H503v-1.4zm-3.3-1.8h1.8v7.2l.1.6a.6.6 0 0 0 .3.2h1l.3 1.4-.4.1-.7.1a2.9 2.9 0 0 1-1.2-.2 1.9 1.9 0 0 1-.9-.7q-.3-.5-.3-1.2zm6 12.4a3.6 3.6 0 0 1-.7-.1 2.6 2.6 0 0 1-.5-.1l.4-1.4h.7a.9.9 0 0 0 .5-.1q.3-.2.4-.6l.2-.4-2.8-7.8h2l1.7 5.7 1.8-5.7h2l-3.1 8.5q-.2.6-.6 1a2.3 2.3 0 0 1-.8.7q-.5.3-1.2.3m10.5-2.9v-10.2h3.8q1.1 0 2 .5.7.4 1.1 1.2.5.7.5 1.7t-.5 1.7a3 3 0 0 1-1.2 1.2q-.8.5-2 .5h-2.5V679h2.3q.7 0 1.1-.2a1.5 1.5 0 0 0 .7-.7q.2-.4.2-1t-.2-.9a1.4 1.4 0 0 0-.7-.6q-.4-.2-1.1-.2h-1.7v8.6zm8.9 0v-7.6h1.7v1.2h.1q.2-.6.7-1a2 2 0 0 1 1.2-.3h.6v1.7a2 2 0 0 0-.3-.1 3.4 3.4 0 0 0-.5 0q-.5 0-.9.2a1.6 1.6 0 0 0-.6.6 1.6 1.6 0 0 0-.2.8v4.5zm8.5.1q-1 0-1.9-.4a3.3 3.3 0 0 1-1.3-1.4q-.4-1-.4-2 0-1.3.4-2.2a3.3 3.3 0 0 1 1.3-1.3q.8-.5 2-.5t1.9.5q.8.4 1.3 1.3.4 1 .4 2.1 0 1.2-.4 2a3.3 3.3 0 0 1-1.3 1.5q-.8.4-2 .4m0-1.4q.7 0 1-.3.5-.4.7-1a3.7 3.7 0 0 0 .2-1.2q0-.7-.2-1.3a2 2 0 0 0-.6-.9q-.4-.3-1-.3-.7 0-1 .3a2 2 0 0 0-.7 1q-.2.5-.2 1.2t.2 1.3q.2.5.6.9.4.3 1 .3m9-6.3v1.4h-4.3v-1.4zm-3.3-1.9h1.8v7.2q0 .4.2.6a.6.6 0 0 0 .2.2h1l.3 1.4-.4.1-.7.1a2.9 2.9 0 0 1-1.2-.2 1.9 1.9 0 0 1-.8-.7q-.4-.5-.4-1.2zm8.1 9.6q-1.1 0-2-.4a3.3 3.3 0 0 1-1.2-1.4q-.5-1-.5-2 0-1.3.5-2.2a3.3 3.3 0 0 1 1.3-1.3q.8-.5 1.9-.5t2 .5q.8.4 1.2 1.3.5 1 .5 2.1 0 1.2-.5 2a3.3 3.3 0 0 1-1.3 1.5q-.8.4-1.9.4m0-1.4q.6 0 1-.3.4-.4.6-1a3.7 3.7 0 0 0 .2-1.2q0-.7-.2-1.3a2 2 0 0 0-.6-.9q-.4-.3-1-.3t-1 .3a2 2 0 0 0-.6 1q-.2.5-.2 1.2t.2 1.3q.2.5.6.9.4.3 1 .3m8.5 1.4q-1.1 0-2-.5a3.4 3.4 0 0 1-1.2-1.3q-.4-1-.4-2 0-1.3.4-2.1a3.3 3.3 0 0 1 1.3-1.4q.8-.5 2-.5.8 0 1.6.3a2.8 2.8 0 0 1 1.1 1q.4.6.5 1.4h-1.7a1.6 1.6 0 0 0-.5-1q-.4-.3-1-.3t-1 .3q-.5.3-.7.9-.2.5-.2 1.3t.2 1.3q.2.6.7.9.4.3 1 .3l.6-.2q.4-.1.6-.4l.3-.7h1.7a3 3 0 0 1-.5 1.4q-.4.6-1.1 1-.7.3-1.7.3m8.1 0q-1.1 0-2-.4a3.3 3.3 0 0 1-1.2-1.4q-.5-1-.5-2 0-1.3.5-2.2a3.3 3.3 0 0 1 1.3-1.3q.8-.5 1.9-.5 1.1 0 2 .5.8.4 1.2 1.3.5 1 .5 2.1 0 1.2-.5 2a3.3 3.3 0 0 1-1.3 1.5q-.8.4-1.9.4m0-1.4q.6 0 1-.3.4-.4.6-1a3.7 3.7 0 0 0 .2-1.2q0-.7-.2-1.3a2 2 0 0 0-.6-.9q-.4-.3-1-.3t-1 .3a2 2 0 0 0-.6 1 3.8 3.8 0 0 0-.2 1.2q0 .7.2 1.3.2.5.6.9.4.3 1 .3m7-8.9V684h-1.8v-10.2z"/><path fill="#ff49a4" d="M409 608a8 8 0 0 1 8-8h176a8 8 0 0 1 8 8v30a8 8 0 0 1-8 8H417a8 8 0 0 1-8-8z"/><path fill="#fff" d="M457.5 628v-10.2h3.8q1.2 0 2 .5a2.9 2.9 0 0 1 1.2 1.2q.4.7.4 1.7t-.4 1.7a3 3 0 0 1-1.2 1.2q-.8.5-2 .5h-2.5V623h2.2q.7 0 1.2-.2.4-.2.6-.7a2.1 2.1 0 0 0 .2-1q0-.5-.2-.9a1.4 1.4 0 0 0-.6-.6q-.5-.2-1.2-.2h-1.7v8.6zm9 0v-7.6h1.7v1.2q.3-.6.8-1a2 2 0 0 1 1.1-.3h.7v1.7a2 2 0 0 0-.4-.1 3.4 3.4 0 0 0-.4 0l-1 .2a1.6 1.6 0 0 0-.5.6 1.6 1.6 0 0 0-.3.8v4.5zm8.5.1q-1.1 0-2-.4a3.3 3.3 0 0 1-1.2-1.4q-.5-1-.5-2 0-1.3.5-2.2a3.3 3.3 0 0 1 1.3-1.3q.8-.5 1.9-.5t2 .5q.8.4 1.2 1.3.5 1 .5 2.1 0 1.2-.5 2a3.3 3.3 0 0 1-1.3 1.5q-.8.4-1.9.4m0-1.4q.6 0 1-.3.4-.4.6-1a3.7 3.7 0 0 0 .2-1.2q0-.7-.2-1.3a2 2 0 0 0-.6-.9q-.4-.3-1-.3t-1 .3a2 2 0 0 0-.6 1q-.2.5-.2 1.2t.2 1.3q.2.5.6.9.4.3 1 .3m9-6.3v1.4h-4.4v-1.4zm-3.3-1.9h1.8v7.2l.1.6a.6.6 0 0 0 .3.2h.9l.3 1.4-.4.1-.6.1a2.9 2.9 0 0 1-1.2-.2 1.9 1.9 0 0 1-.9-.7q-.3-.5-.3-1.2zm8 9.6q-1 0-1.9-.4a3.3 3.3 0 0 1-1.3-1.4q-.4-1-.4-2 0-1.3.4-2.2a3.3 3.3 0 0 1 1.3-1.3q.8-.5 2-.5 1 0 1.9.5.8.4 1.3 1.3.4 1 .4 2.1 0 1.2-.4 2a3.3 3.3 0 0 1-1.3 1.5q-.8.4-2 .4m0-1.4q.7 0 1-.3.5-.4.7-1a3.7 3.7 0 0 0 .2-1.2q0-.7-.2-1.3a2 2 0 0 0-.6-.9q-.4-.3-1-.3-.7 0-1 .3a2 2 0 0 0-.7 1 3.8 3.8 0 0 0-.2 1.2q0 .7.2 1.3.2.5.6.9.4.3 1 .3m8.6 1.4q-1.2 0-2-.5a3.4 3.4 0 0 1-1.2-1.3q-.5-1-.5-2 0-1.3.5-2.1a3.4 3.4 0 0 1 1.2-1.4q.8-.5 2-.5.9 0 1.6.3.7.3 1.2 1 .4.6.4 1.4h-1.7a1.6 1.6 0 0 0-.5-1q-.4-.3-1-.3t-1 .3q-.4.3-.6.9-.3.5-.3 1.3t.3 1.3q.2.6.6.9.4.3 1 .3.4 0 .7-.2.3-.1.5-.4l.3-.7h1.7a3 3 0 0 1-.4 1.4 2.8 2.8 0 0 1-1.2 1q-.7.3-1.6.3m8 0q-1 0-1.9-.4a3.3 3.3 0 0 1-1.3-1.4q-.4-1-.4-2 0-1.3.4-2.2a3.3 3.3 0 0 1 1.3-1.3q.8-.5 2-.5t1.9.5q.8.4 1.3 1.3.4 1 .4 2.1 0 1.2-.4 2a3.3 3.3 0 0 1-1.3 1.5q-.8.4-2 .4m0-1.4q.7 0 1-.3.5-.4.7-1a3.7 3.7 0 0 0 .2-1.2q0-.7-.2-1.3a2 2 0 0 0-.6-.9q-.4-.3-1-.3-.7 0-1 .3a2 2 0 0 0-.7 1 3.8 3.8 0 0 0-.2 1.2q0 .7.2 1.3.2.5.6.9.4.3 1 .3m7-8.9V628h-1.8v-10.2zm6.8 10.2h-2l3.6-10.2h2.2l3.6 10.2h-2l-2.7-8zm0-4h5.4v1.5H519zm8.7 4v-7.6h1.7v1.2h.1q.2-.6.7-1a2 2 0 0 1 1.2-.3h.6v1.7a2 2 0 0 0-.3-.1 3.4 3.4 0 0 0-.5 0q-.5 0-.9.2a1.6 1.6 0 0 0-.6.6 1.6 1.6 0 0 0-.2.8v4.5zm7.2-2.4v-2.2h.3l2.7-3h2.1l-3.4 3.7h-.3zm-1.7 2.4v-10.2h1.8V628zm4.8 0-2.4-3.5 1.2-1.2 3.4 4.7zm6.7 0v-1.3l3.5-3.5.8-1q.4-.3.6-.7a1.9 1.9 0 0 0 .1-.8q0-.5-.2-.8a1.4 1.4 0 0 0-.6-.5 2 2 0 0 0-.9-.2q-.5 0-.8.2-.4.2-.6.6a1.9 1.9 0 0 0-.2.9h-1.8q0-1 .5-1.7a3 3 0 0 1 1.2-1.1q.7-.4 1.8-.4 1 0 1.8.4.7.3 1.2 1 .4.7.4 1.5l-.2 1.2q-.2.5-.8 1.2l-1.5 1.6-1.8 1.8h4.4v1.6z"/><path fill="#ff49a4" d="M609 664a8 8 0 0 1 8-8h176a8 8 0 0 1 8 8v30a8 8 0 0 1-8 8H617a8 8 0 0 1-8-8z"/><path fill="#fff" d="M634 684v-10.2h1.8v4.3h4.8v-4.3h1.8V684h-1.8v-4.3h-4.8v4.3zm10.3 0v-7.6h1.8v7.6zm1-8.7q-.5 0-.8-.3a1 1 0 0 1-.3-.7q0-.4.3-.7.3-.3.7-.3.5 0 .8.3.3.3.3.7a1 1 0 0 1-.3.7 1 1 0 0 1-.8.3m6.1 11.7q-1 0-1.7-.2l-1-.7a2.4 2.4 0 0 1-.7-1l1.7-.4q0 .2.3.4.2.3.5.4.4.2 1 .2.7 0 1.2-.4t.5-1.2v-1.5a2.6 2.6 0 0 1-.5.6 2.1 2.1 0 0 1-.7.5q-.4.2-1 .2a3.1 3.1 0 0 1-1.7-.4q-.7-.4-1.1-1.3-.4-.8-.4-2 0-1.3.4-2.2.4-.8 1.1-1.3a2.9 2.9 0 0 1 1.6-.4q.7 0 1.1.2.5.2.7.5l.4.6h.1v-1.2h1.8v7.7q0 1-.5 1.6-.4.7-1.2 1-.9.3-1.9.3m0-4.5q.6 0 1-.3t.6-.8q.2-.5.2-1.3 0-.7-.2-1.2-.2-.6-.6-.9-.4-.3-1-.3t-1 .4a1.9 1.9 0 0 0-.6.8 3.5 3.5 0 0 0-.2 1.2q0 .7.2 1.3.2.5.6.8.4.3 1 .3m7.2-3v4.5h-1.8v-10.2h1.8v3.9a2.2 2.2 0 0 1 1-1q.5-.4 1.4-.4.8 0 1.4.3.5.3.9 1 .3.6.3 1.5v4.9h-1.8v-4.6q0-.8-.4-1.2-.4-.4-1.1-.4a1.7 1.7 0 0 0-.9.2 1.5 1.5 0 0 0-.5.6q-.3.4-.3 1m14.2 1h1.6l1 1.3.7.8 1.7 2.2H676l-1.1-1.5-.5-.7zm5.3-1.7q0 1.7-.6 2.8-.6 1.2-1.7 1.8-1 .6-2.4.6t-2.4-.6q-1-.6-1.7-1.8-.6-1.2-.6-2.8 0-1.6.6-2.8.6-1.2 1.7-1.8 1-.6 2.4-.6 1.3 0 2.4.6 1 .6 1.7 1.8.6 1.2.6 2.8m-1.9 0q0-1.1-.3-2-.4-.7-1-1.2a2.6 2.6 0 0 0-1.5-.4q-.8 0-1.5.4-.6.5-1 1.3-.3.8-.3 2t.3 1.9q.4.8 1 1.2.7.4 1.5.4t1.5-.4q.6-.4 1-1.2.3-.8.3-2m8.4 1.9v-4.4h1.8v7.6h-1.7v-1.4h-.1a2.3 2.3 0 0 1-.9 1q-.5.5-1.4.5-.7 0-1.3-.3a2.3 2.3 0 0 1-1-1q-.2-.7-.2-1.6v-4.8h1.8v4.5q0 .8.4 1.2t1 .4l.8-.2.6-.5q.2-.4.2-1m5.9 3.4q-.8 0-1.3-.3a2.1 2.1 0 0 1-1-.8q-.3-.5-.3-1.2t.3-1.1q.2-.4.6-.7l1-.4a7.5 7.5 0 0 1 1-.2h1.1l.6-.3q.2 0 .2-.4 0-.5-.3-.9-.4-.3-1-.3-.7 0-1 .3a1.4 1.4 0 0 0-.6.7l-1.6-.2q.2-.7.6-1.2.5-.5 1.1-.7a4.3 4.3 0 0 1 1.5-.2h1.1l1 .5q.5.3.7.8.3.5.3 1.3v5.1h-1.7v-1a2.2 2.2 0 0 1-.5.5 2.2 2.2 0 0 1-.8.5 3 3 0 0 1-1 .2m.4-1.4q.6 0 1-.2t.6-.6q.2-.3.2-.7v-1a.9.9 0 0 1-.3.2h-.4l-.5.2h-.4a3 3 0 0 0-.8.2q-.3.1-.5.4l-.1.5q0 .5.3.8.4.2 1 .2m7.1-9V684h-1.8v-10.2zm2 10.2v-7.6h1.8v7.6zm.9-8.7q-.5 0-.8-.3a1 1 0 0 1-.3-.7q0-.4.3-.7.3-.3.8-.3.4 0 .7.3.3.3.3.7a1 1 0 0 1-.3.7 1 1 0 0 1-.7.3m6.5 1v1.5H703v-1.4zm-3.3-1.8h1.8v7.2l.1.6a.6.6 0 0 0 .3.2h1l.3 1.4-.4.1-.7.1a2.9 2.9 0 0 1-1.2-.2 1.9 1.9 0 0 1-.9-.7q-.3-.5-.3-1.2zm6 12.4a3.6 3.6 0 0 1-.7-.1 2.6 2.6 0 0 1-.5-.1l.4-1.4h.7a.9.9 0 0 0 .5-.1q.3-.2.4-.6l.2-.4-2.8-7.8h2l1.7 5.7 1.8-5.7h2l-3.1 8.5q-.2.6-.6 1a2.3 2.3 0 0 1-.8.7q-.5.3-1.2.3m10.5-2.9v-10.2h3.8q1.1 0 2 .5.7.4 1.1 1.2.5.7.5 1.7t-.5 1.7a3 3 0 0 1-1.2 1.2q-.8.5-2 .5h-2.5V679h2.3q.7 0 1.1-.2a1.5 1.5 0 0 0 .7-.7q.2-.4.2-1t-.2-.9a1.4 1.4 0 0 0-.7-.6q-.4-.2-1.1-.2h-1.7v8.6zm8.9 0v-7.6h1.7v1.2h.1q.2-.6.7-1a2 2 0 0 1 1.2-.3h.6v1.7a2 2 0 0 0-.3-.1 3.4 3.4 0 0 0-.5 0q-.5 0-.9.2a1.6 1.6 0 0 0-.6.6 1.6 1.6 0 0 0-.2.8v4.5zm8.5.1q-1 0-1.9-.4a3.3 3.3 0 0 1-1.3-1.4q-.4-1-.4-2 0-1.3.4-2.2a3.3 3.3 0 0 1 1.3-1.3q.8-.5 2-.5t1.9.5q.8.4 1.3 1.3.4 1 .4 2.1 0 1.2-.4 2a3.3 3.3 0 0 1-1.3 1.5q-.8.4-2 .4m0-1.4q.7 0 1-.3.5-.4.7-1a3.7 3.7 0 0 0 .2-1.2q0-.7-.2-1.3a2 2 0 0 0-.6-.9q-.4-.3-1-.3-.7 0-1 .3a2 2 0 0 0-.7 1q-.2.5-.2 1.2t.2 1.3q.2.5.6.9.4.3 1 .3m9-6.3v1.4h-4.3v-1.4zm-3.3-1.9h1.8v7.2q0 .4.2.6a.6.6 0 0 0 .2.2h1l.3 1.4-.4.1-.7.1a2.9 2.9 0 0 1-1.2-.2 1.9 1.9 0 0 1-.8-.7q-.4-.5-.4-1.2zm8.1 9.6q-1.1 0-2-.4a3.3 3.3 0 0 1-1.2-1.4q-.5-1-.5-2 0-1.3.5-2.2a3.3 3.3 0 0 1 1.3-1.3q.8-.5 1.9-.5t2 .5q.8.4 1.2 1.3.5 1 .5 2.1 0 1.2-.5 2a3.3 3.3 0 0 1-1.3 1.5q-.8.4-1.9.4m0-1.4q.6 0 1-.3.4-.4.6-1a3.7 3.7 0 0 0 .2-1.2q0-.7-.2-1.3a2 2 0 0 0-.6-.9q-.4-.3-1-.3t-1 .3a2 2 0 0 0-.6 1q-.2.5-.2 1.2t.2 1.3q.2.5.6.9.4.3 1 .3m8.5 1.4q-1.1 0-2-.5a3.4 3.4 0 0 1-1.2-1.3q-.4-1-.4-2 0-1.3.4-2.1a3.3 3.3 0 0 1 1.3-1.4q.8-.5 2-.5.8 0 1.6.3a2.8 2.8 0 0 1 1.1 1q.4.6.5 1.4h-1.7a1.6 1.6 0 0 0-.5-1q-.4-.3-1-.3t-1 .3q-.5.3-.7.9-.2.5-.2 1.3t.2 1.3q.2.6.7.9.4.3 1 .3l.6-.2q.4-.1.6-.4l.3-.7h1.7a3 3 0 0 1-.5 1.4q-.4.6-1.1 1-.7.3-1.7.3m8.1 0q-1.1 0-2-.4a3.3 3.3 0 0 1-1.2-1.4q-.5-1-.5-2 0-1.3.5-2.2a3.3 3.3 0 0 1 1.3-1.3q.8-.5 1.9-.5 1.1 0 2 .5.8.4 1.2 1.3.5 1 .5 2.1 0 1.2-.5 2a3.3 3.3 0 0 1-1.3 1.5q-.8.4-1.9.4m0-1.4q.6 0 1-.3.4-.4.6-1a3.7 3.7 0 0 0 .2-1.2q0-.7-.2-1.3a2 2 0 0 0-.6-.9q-.4-.3-1-.3t-1 .3a2 2 0 0 0-.6 1 3.8 3.8 0 0 0-.2 1.2q0 .7.2 1.3.2.5.6.9.4.3 1 .3m7-8.9V684h-1.8v-10.2z"/><path fill="#ff49a4" d="M609 608a8 8 0 0 1 8-8h176a8 8 0 0 1 8 8v30a8 8 0 0 1-8 8H617a8 8 0 0 1-8-8z"/><path fill="#fff" d="M657.5 628v-10.2h3.8q1.2 0 2 .5a2.9 2.9 0 0 1 1.2 1.2q.4.7.4 1.7t-.4 1.7a3 3 0 0 1-1.2 1.2q-.8.5-2 .5h-2.5V623h2.2q.7 0 1.2-.2.4-.2.6-.7a2.1 2.1 0 0 0 .2-1q0-.5-.2-.9a1.4 1.4 0 0 0-.6-.6q-.5-.2-1.2-.2h-1.7v8.6zm9 0v-7.6h1.7v1.2q.3-.6.8-1a2 2 0 0 1 1.1-.3h.7v1.7a2 2 0 0 0-.4-.1 3.4 3.4 0 0 0-.4 0l-1 .2a1.6 1.6 0 0 0-.5.6 1.6 1.6 0 0 0-.3.8v4.5zm8.5.1q-1.1 0-2-.4a3.3 3.3 0 0 1-1.2-1.4q-.5-1-.5-2 0-1.3.5-2.2a3.3 3.3 0 0 1 1.3-1.3q.8-.5 1.9-.5t2 .5q.8.4 1.2 1.3.5 1 .5 2.1 0 1.2-.5 2a3.3 3.3 0 0 1-1.3 1.5q-.8.4-1.9.4m0-1.4q.6 0 1-.3.4-.4.6-1a3.7 3.7 0 0 0 .2-1.2q0-.7-.2-1.3a2 2 0 0 0-.6-.9q-.4-.3-1-.3t-1 .3a2 2 0 0 0-.6 1q-.2.5-.2 1.2t.2 1.3q.2.5.6.9.4.3 1 .3m9-6.3v1.4h-4.4v-1.4zm-3.3-1.9h1.8v7.2l.1.6a.6.6 0 0 0 .3.2h.9l.3 1.4-.4.1-.6.1a2.9 2.9 0 0 1-1.2-.2 1.9 1.9 0 0 1-.9-.7q-.3-.5-.3-1.2zm8 9.6q-1 0-1.9-.4a3.3 3.3 0 0 1-1.3-1.4q-.4-1-.4-2 0-1.3.4-2.2a3.3 3.3 0 0 1 1.3-1.3q.8-.5 2-.5 1 0 1.9.5.8.4 1.3 1.3.4 1 .4 2.1 0 1.2-.4 2a3.3 3.3 0 0 1-1.3 1.5q-.8.4-2 .4m0-1.4q.7 0 1-.3.5-.4.7-1a3.7 3.7 0 0 0 .2-1.2q0-.7-.2-1.3a2 2 0 0 0-.6-.9q-.4-.3-1-.3-.7 0-1 .3a2 2 0 0 0-.7 1 3.8 3.8 0 0 0-.2 1.2q0 .7.2 1.3.2.5.6.9.4.3 1 .3m8.6 1.4q-1.2 0-2-.5a3.4 3.4 0 0 1-1.2-1.3q-.5-1-.5-2 0-1.3.5-2.1a3.4 3.4 0 0 1 1.2-1.4q.8-.5 2-.5.9 0 1.6.3.7.3 1.2 1 .4.6.4 1.4h-1.7a1.6 1.6 0 0 0-.5-1q-.4-.3-1-.3t-1 .3q-.4.3-.6.9-.3.5-.3 1.3t.3 1.3q.2.6.6.9.4.3 1 .3.4 0 .7-.2.3-.1.5-.4l.3-.7h1.7a3 3 0 0 1-.4 1.4 2.8 2.8 0 0 1-1.2 1q-.7.3-1.6.3m8 0q-1 0-1.9-.4a3.3 3.3 0 0 1-1.3-1.4q-.4-1-.4-2 0-1.3.4-2.2a3.3 3.3 0 0 1 1.3-1.3q.8-.5 2-.5t1.9.5q.8.4 1.3 1.3.4 1 .4 2.1 0 1.2-.4 2a3.3 3.3 0 0 1-1.3 1.5q-.8.4-2 .4m0-1.4q.7 0 1-.3.5-.4.7-1a3.7 3.7 0 0 0 .2-1.2q0-.7-.2-1.3a2 2 0 0 0-.6-.9q-.4-.3-1-.3-.7 0-1 .3a2 2 0 0 0-.7 1 3.8 3.8 0 0 0-.2 1.2q0 .7.2 1.3.2.5.6.9.4.3 1 .3m7-8.9V628h-1.8v-10.2zm6.8 10.2h-2l3.6-10.2h2.2l3.6 10.2h-2l-2.7-8zm0-4h5.4v1.5H719zm8.7 4v-7.6h1.7v1.2h.1q.2-.6.7-1a2 2 0 0 1 1.2-.3h.6v1.7a2 2 0 0 0-.3-.1 3.4 3.4 0 0 0-.5 0q-.5 0-.9.2a1.6 1.6 0 0 0-.6.6 1.6 1.6 0 0 0-.2.8v4.5zm7.2-2.4v-2.2h.3l2.7-3h2.1l-3.4 3.7h-.3zm-1.7 2.4v-10.2h1.8V628zm4.8 0-2.4-3.5 1.2-1.2 3.4 4.7zm10.3.1q-1 0-1.9-.3-.8-.4-1.3-1a2.6 2.6 0 0 1-.5-1.6h1.9l.2.8q.3.3.7.4.4.2 1 .2.5 0 .9-.2t.6-.5q.3-.4.3-.8a1.4 1.4 0 0 0-.3-.8 1.6 1.6 0 0 0-.7-.6q-.4-.2-1-.2h-1v-1.4h1q.5 0 .9-.2t.6-.5l.2-.8a1.4 1.4 0 0 0-.2-.7 1.3 1.3 0 0 0-.5-.5 1.8 1.8 0 0 0-.9-.2l-.8.1a1.6 1.6 0 0 0-.7.5q-.2.3-.2.8h-1.8q0-.9.5-1.5a3.2 3.2 0 0 1 1.3-1q.8-.4 1.8-.4t1.7.4q.8.3 1.2 1 .4.6.4 1.4 0 .9-.5 1.4-.5.6-1.3.8 1 .2 1.6.9.6.6.6 1.6 0 .8-.5 1.5t-1.3 1q-.9.4-2 .4"/><path fill="#8d3360" d="M808 608a8 8 0 0 1 8-8h110a8 8 0 0 1 8 8v88a8 8 0 0 1-8 8H816a8 8 0 0 1-8-8z"/><path fill="#fff" d="M844.4 646v-10.2h3.8q1.2 0 2 .4t1.2 1.2q.4.7.4 1.7t-.4 1.7q-.4.7-1.2 1-.8.5-2 .5h-2.7v-1.6h2.5l1-.1q.5-.2.7-.6.3-.4.3-1 0-.5-.3-.8a1.4 1.4 0 0 0-.6-.6q-.5-.2-1.1-.2h-1.7v8.6zm5.3-4.6 2.5 4.6h-2l-2.5-4.6zm7 4.7q-1.1 0-2-.4a3.2 3.2 0 0 1-1.2-1.4q-.5-.9-.5-2 0-1.3.5-2.1a3.4 3.4 0 0 1 1.2-1.4q.8-.5 2-.5l1.3.2q.6.2 1 .7.6.5.8 1.2.3.7.3 1.7v.6H854v-1.2h4.5a1.9 1.9 0 0 0-.2-1 1.6 1.6 0 0 0-.6-.6 1.7 1.7 0 0 0-1-.2l-1 .2a1.8 1.8 0 0 0-.6.7l-.2 1v1q0 .7.2 1.2l.7.7 1 .2h.8l.5-.4.4-.5 1.6.2a2.6 2.6 0 0 1-.6 1.1 3 3 0 0 1-1.1.8q-.7.2-1.6.2m11-5.7-1.7.2a1.3 1.3 0 0 0-.2-.5 1.2 1.2 0 0 0-.5-.4 1.7 1.7 0 0 0-.7 0l-1 .2q-.3.2-.3.6a.7.7 0 0 0 .3.5l.8.4 1.3.2q1 .3 1.6.8.5.5.5 1.3a2 2 0 0 1-.4 1.3q-.4.5-1.1.8-.8.3-1.7.3-1.4 0-2.3-.5-.8-.6-1-1.7l1.8-.2q0 .6.5.8.3.3 1 .3.6 0 1-.3.4-.2.4-.6a.7.7 0 0 0-.3-.6q-.2-.2-.7-.3l-1.3-.3q-1.1-.2-1.7-.7-.5-.6-.5-1.4a2 2 0 0 1 .4-1.2q.4-.6 1-.8.8-.3 1.7-.3 1.3 0 2.1.5a2.4 2.4 0 0 1 1 1.6m5 5.7q-1.1 0-2-.4a3.2 3.2 0 0 1-1.3-1.4q-.4-.9-.4-2 0-1.3.4-2.1a3.4 3.4 0 0 1 1.3-1.4q.8-.5 2-.5l1.2.2a3 3 0 0 1 1.2.7l.7 1.2q.3.7.3 1.7v.6h-6.3v-1.2h4.6a2 2 0 0 0-.3-1 1.6 1.6 0 0 0-.6-.6 1.7 1.7 0 0 0-.9-.2l-1 .2a1.8 1.8 0 0 0-.6.7 2 2 0 0 0-.2 1v1q0 .7.2 1.2l.7.7q.4.2 1 .2h.7l.6-.4.3-.5 1.7.2a2.6 2.6 0 0 1-.6 1.1 3 3 0 0 1-1.1.8q-.7.2-1.6.2m5-.1v-7.6h1.7v1.2q.3-.6.8-1 .5-.3 1.1-.3h.7v1.7a2 2 0 0 0-.4-.1 3.4 3.4 0 0 0-.5 0q-.5 0-.8.2a1.6 1.6 0 0 0-.7.6 1.6 1.6 0 0 0-.2.8v4.5zm12.5-7.6-2.7 7.6h-2l-2.7-7.6h2l1.7 5.6 1.8-5.6zm4.4 7.7q-1.2 0-2-.4a3.2 3.2 0 0 1-1.3-1.4q-.4-.9-.4-2 0-1.3.4-2.1a3.4 3.4 0 0 1 1.3-1.4q.8-.5 1.9-.5.7 0 1.3.2.7.2 1.1.7.5.5.8 1.2.3.7.3 1.7v.6h-6.3v-1.2h4.6a1.9 1.9 0 0 0-.3-1 1.6 1.6 0 0 0-.6-.6 1.7 1.7 0 0 0-.9-.2l-1 .2a1.8 1.8 0 0 0-.6.7l-.2 1v1q0 .7.2 1.2l.7.7q.4.2 1 .2h.7l.6-.4q.3-.2.3-.5l1.7.2a2.6 2.6 0 0 1-.6 1.1 3 3 0 0 1-1.1.8q-.7.2-1.6.2M851.4 668v-10.2h6.5v1.6h-4.7v2.7h4.2v1.6h-4.2v4.3zm12.5-3.2v-4.4h1.8v7.6h-1.8v-1.4a2.3 2.3 0 0 1-.9 1q-.6.5-1.4.5-.8 0-1.4-.3a2.3 2.3 0 0 1-.9-1q-.3-.7-.3-1.6v-4.8h1.8v4.5q0 .8.4 1.2.4.4 1 .4.5 0 .8-.2.4-.2.6-.5.3-.4.3-1m5.4-1.3v4.5h-1.8v-7.6h1.7v1.3h.1a2.2 2.2 0 0 1 .9-1q.6-.4 1.4-.4.8 0 1.4.3.6.3 1 1 .2.6.2 1.5v4.9h-1.8v-4.6q0-.7-.4-1.2-.4-.4-1-.4-.5 0-.9.2a1.4 1.4 0 0 0-.6.6q-.2.4-.2 1m9.6 4.5q-1 0-1.6-.4-.7-.5-1.1-1.4t-.5-2.1q0-1.3.5-2.2.4-.8 1.1-1.3a3 3 0 0 1 1.6-.4q.7 0 1.1.2l.7.5.4.6v-3.8h1.9V668h-1.8v-1.2h-.1a3 3 0 0 1-.4.6 2.2 2.2 0 0 1-.7.5q-.4.2-1.1.2m.5-1.4q.6 0 1-.4.4-.3.6-.8.2-.6.2-1.3 0-.8-.2-1.3-.2-.6-.6-.9-.4-.3-1-.3t-1 .4a1.9 1.9 0 0 0-.6.8 3.6 3.6 0 0 0-.2 1.3q0 .7.2 1.3.2.5.6.8.4.4 1 .4m11.5-4.3-1.6.2a1.3 1.3 0 0 0-.3-.5 1.2 1.2 0 0 0-.4-.4 1.7 1.7 0 0 0-.7 0q-.6 0-1 .2t-.4.6a.7.7 0 0 0 .3.5l.8.4 1.3.2q1.1.3 1.6.8.6.5.6 1.3a2 2 0 0 1-.4 1.3q-.5.5-1.2.8t-1.7.3q-1.4 0-2.2-.5-.9-.6-1-1.7l1.7-.2q.1.6.5.8.4.3 1 .3.7 0 1-.3.4-.2.4-.6a.7.7 0 0 0-.2-.6l-.8-.3-1.3-.3q-1.1-.2-1.6-.7-.6-.6-.5-1.4a2 2 0 0 1 .3-1.2q.4-.6 1.1-.8.7-.3 1.6-.3 1.4 0 2.2.5a2.4 2.4 0 0 1 1 1.6"/><path stroke="#777576" stroke-dasharray="1 8" stroke-linecap="round" stroke-width="2" d="M505 555v44m0-58c0 16 13 29 29 29h163a28.5 28.5 0 0 1 28.5 28.5m-221-57.5c0 16-13 29-29 29h-163a28.5 28.5 0 0 0-28.5 28.5"/><path fill="#777576" d="M505 158a1 1 0 0 0-2 0zm-1.7 121.7a1 1 0 0 0 1.4 0l6.4-6.4a1 1 0 1 0-1.4-1.4l-5.7 5.7-5.7-5.7a1 1 0 1 0-1.4 1.4zm-.3-121.2a1 1 0 0 0 2 0zm2 8.3a1 1 0 1 0-2 0zm-2 1a1 1 0 0 0 2 0zm2 8.3a1 1 0 0 0-2 0zm-2 1a1 1 0 1 0 2 0zm2 8.3a1 1 0 0 0-2 0zm-2 1a1 1 0 0 0 2 0zm2 8.3a1 1 0 1 0-2 0zm-2 1a1 1 0 0 0 2 0zm2 8.3a1 1 0 0 0-2 0zm-2 1a1 1 0 0 0 2 0zm2 8.3a1 1 0 0 0-2 0zm-2 1a1 1 0 1 0 2 0zm2 8.3a1 1 0 1 0-2 0zm-2 1a1 1 0 0 0 2 0zm2 8.3a1 1 0 0 0-2 0zm-2 1a1 1 0 0 0 2 0zm2 8.4a1 1 0 0 0-2 0zm-2 1a1 1 0 1 0 2 0zm2 8.3a1 1 0 0 0-2 0zm-2 1a1 1 0 0 0 2 0zm2 8.3a1 1 0 1 0-2 0zm-2 1a1 1 0 0 0 2 0zm2 8.3a1 1 0 0 0-2 0zm-2 1a1 1 0 1 0 2 0zm2 8.3a1 1 0 0 0-2 0zM504 158h-1v.5h2v-.5zm0 8.8h-1v1h2v-1zm0 9.3h-1v1h2v-1zm0 9.3h-1v1h2v-1zm0 9.3h-1v1h2v-1zm0 9.3h-1v1h2v-1zm0 9.3h-1v1h2v-1zm0 9.3h-1v1h2v-1zm0 9.3h-1v1h2v-1zm0 9.4h-1v1h2v-1zm0 9.3h-1v1h2v-1zm0 9.3h-1v1h2v-1zm0 9.3h-1v1h2v-1zm0 9.3h-1v.5h2v-.5zm-99.3-121.2a1 1 0 0 0-1.4 0l-6.4 6.4a1 1 0 1 0 1.4 1.4l5.7-5.7 5.7 5.7a1 1 0 1 0 1.4-1.4zM224.3 451.7a1 1 0 0 0 1.4 0l6.4-6.4a1 1 0 1 0-1.4-1.4l-5.7 5.7-5.7-5.7a1 1 0 1 0-1.4 1.4zm1.7-1.2a1 1 0 0 0-2 0zm-2-8.2a1 1 0 0 0 2 0zm2-1a1 1 0 0 0-2 0zm-2-8.2a1 1 0 0 0 2 0zm2-1a1 1 0 0 0-2 0zm-2-8.2a1 1 0 1 0 2 0zm2-1a1 1 0 1 0-2 0zm-2-8.2a1 1 0 0 0 2 0zm2-1a1 1 0 0 0-2 0zm-2-8.2a1 1 0 0 0 2 0zm2-1a1 1 0 0 0-2 0zm-2-8.2a1 1 0 0 0 2 0zm2-1a1 1 0 0 0-2 0zm-2-8.2a1 1 0 0 0 2 0zm2-1a1 1 0 0 0-2 0zm-2-8.2a1 1 0 1 0 2 0zm2-1a1 1 0 0 0-2 0zm-2-8.1a1 1 0 1 0 2 0zm2-1a1 1 0 1 0-2 0zm-2-8.2a1 1 0 0 0 2 0zm2-1a1 1 0 0 0-2 0zm-2-8.2a1 1 0 0 0 2 0zm2-1a1 1 0 0 0-2 0zm-2-8.2a1 1 0 0 0 2 0zm2-1a1 1 0 0 0-2 0zm-2-8.2a1 1 0 0 0 2 0zm2-1a1 1 0 0 0-2 0zm-2-8.2a1 1 0 1 0 2 0zm2-1a1 1 0 0 0-2 0zm-2-8.2a1 1 0 1 0 2 0zm2-1a1 1 0 1 0-2 0zm-2-8.2a1 1 0 0 0 2 0zm2-1a1 1 0 0 0-2 0zm-2-8.2a1 1 0 0 0 2 0zm2-1a1 1 0 0 0-2 0zm-2-8.2a1 1 0 0 0 2 0zm2-1a1 1 0 0 0-2 0zm-2-8.2a1 1 0 0 0 2 0zm2-1a1 1 0 0 0-2 0zm-2-8.2a1 1 0 0 0 2 0zm2-1a1 1 0 1 0-2 0h1zm-1.3-7.9a1 1 0 0 0 2 .4l-1-.2zm2.1-.6a1 1 0 0 0-2-.3l1 .1zm.1-8a1 1 0 1 0 1.9.7l-1-.4zm2.2-.2a1 1 0 0 0-1.9-.7l1 .3zm1.5-7.9a1 1 0 0 0 1.7 1l-.8-.5zm2.2.2a1 1 0 1 0-1.7-1l.8.5zm2.8-7.5a1 1 0 1 0 1.6 1.3l-.8-.7zm2.2.5a1 1 0 0 0-1.5-1.3l.7.7zm4-6.9a1 1 0 1 0 1.3 1.6l-.6-.8zm2 1a1 1 0 0 0-1.2-1.6l.6.8zm5.3-6.1a1 1 0 0 0 1 1.7l-.5-.9zm1.8 1.2a1 1 0 0 0-1-1.7l.5.8zm6.2-5a1 1 0 0 0 .7 1.8l-.4-1zm1.6 1.5a1 1 0 1 0-.7-2l.4 1zm7-4a1 1 0 0 0 .3 2l-.2-1zm1.3 1.9a1 1 0 0 0-.4-2l.2 1zm7.5-2.7a1 1 0 0 0 0 2v-1zm1 2a1 1 0 0 0 0-2zm7.8-2a1 1 0 1 0 0 2zm1 2a1 1 0 1 0 0-2zm7.8-2a1 1 0 1 0 0 2zm1 2a1 1 0 0 0 0-2zm7.7-2a1 1 0 1 0 0 2zm1 2a1 1 0 0 0 0-2zm7.8-2a1 1 0 1 0 0 2zm1 2a1 1 0 0 0 0-2zm7.8-2a1 1 0 1 0 0 2zm1 2a1 1 0 0 0 0-2zm7.8-2a1 1 0 1 0 0 2zm1 2a1 1 0 1 0 0-2zm7.8-2a1 1 0 1 0 0 2zm1 2a1 1 0 0 0 0-2zm7.7-2a1 1 0 1 0 0 2zm1 2a1 1 0 0 0 0-2zm7.8-2a1 1 0 1 0 0 2zm1 2a1 1 0 0 0 0-2v1zm7.5-2.7a1 1 0 0 0 .4 2l-.2-1zm1.3 1.8a1 1 0 1 0-.3-2l.2 1zm7-3.9a1 1 0 1 0 .7 1.9l-.3-1zm1.6 1.6a1 1 0 0 0-.7-2l.4 1zm6.2-5.1a1 1 0 1 0 1 1.7l-.5-.9zm1.8 1.2a1 1 0 0 0-1-1.7l.5.9zm5.2-6a1 1 0 0 0 1.3 1.5l-.6-.8zm2 .8a1 1 0 1 0-1.2-1.5l.6.8zm4.1-6.8a1 1 0 0 0 1.5 1.3l-.7-.7zm2.2.5a1 1 0 1 0-1.6-1.3l.8.7zm2.8-7.5a1 1 0 0 0 1.7 1l-.8-.5zm2.2.2a1 1 0 0 0-1.7-1l.8.5zm1.5-7.9a1 1 0 0 0 1.9.7l-1-.3zm2.2-.2a1 1 0 0 0-1.9-.7l1 .3zm0-8a1 1 0 1 0 2 .3l-1-.1zm2.2-.6a1 1 0 0 0-2-.4l1 .2zm-1.3-8a1 1 0 1 0 2 0h-1zm2-1a1 1 0 0 0-2 0zm-2-8a1 1 0 1 0 2 0zM225 451h1v-.5h-2v.5zm0-8.7h1v-1h-2v1zm0-9.2h1v-1h-2v1zm0-9.2h1v-1h-2v1zm0-9.2h1v-1h-2v1zm0-9.2h1v-1h-2v1zm0-9.2h1v-1h-2v1zm0-9.2h1v-1h-2v1zm0-9.2h1v-1h-2v1zm0-9.1h1v-1h-2v1zm0-9.2h1v-1h-2v1zm0-9.2h1v-1h-2v1zm0-9.2h1v-1h-2v1zm0-9.2h1v-1h-2v1zm0-9.2h1v-1h-2v1zm0-9.2h1v-1h-2v1zm0-9.2h1v-1h-2v1zm0-9.2h1v-1h-2v1zm0-9.2h1v-1h-2v1zm0-9.2h1v-1h-2v1zm0-9.2h1v-.5h-2v.5zm0-.5h1v-.5h-2v.5zm.7-8.2 1 .2.1-1-1-.2-1-.1-.1 1zm2.1-8.5 1 .4.3-1-1-.3-.9-.3-.3 1zm3.7-7.9.8.5.5-.8-.9-.5-.8-.5a56 56 0 0 0-.5.8zm4.9-7.2.8.7.6-.8-.8-.6-.7-.7-.7.8zm6-6.2.7.8.8-.6-.7-.8-.6-.8-.8.6zm7.2-5 .5.8.8-.5-.5-.9-.5-.8-.8.5zm7.8-3.8.4.9.9-.3-.3-1-.4-1-1 .4zm8.4-2.4.2 1 1-.1-.2-1-.2-1-1 .2zm8.7-.8v1h.5v-2h-.5zm.5 0v1h.5v-2h-.5zm8.3 0v1h1v-2h-1zm8.8 0v1h1v-2h-1zm8.7 0v1h1v-2h-1zm8.8 0v1h1v-2h-1zm8.8 0v1h1v-2h-1zm8.8 0v1h1v-2h-1zm8.8 0v1h1v-2h-1zm8.7 0v1h1v-2h-1zm8.8 0v1h.5v-2h-.5zm.5 0v1h.5v-2h-.5zm8.2-.7.2 1 1-.2-.2-1-.2-1-1 .2zm8.5-2.1.3.9 1-.3-.4-1-.4-1q-.4.3-.9.4zm7.9-3.7.5 1 .8-.6-.5-.8-.5-.9-.8.5zm7.2-4.9.6.8.8-.7-.7-.7-.6-.8-.8.6zm6.2-6 .7.6.7-.8-.8-.6-.8-.7-.6.8zm5-7.2 1 .5.4-.8-.9-.5-.8-.5-.5.8zm3.8-7.8 1 .3.3-1-1-.3-.9-.3-.3 1zm2.4-8.4 1 .1.1-1-1-.1-1-.2-.1 1zm.8-8.7h1v-.5h-2v.5zm0-.5h1v-.5h-2v.5zm0-8.6h1v-.5h-2v.5zm200.3-1.2a1 1 0 0 1 1.4 0l6.4 6.4a1 1 0 1 1-1.4 1.4l-5.7-5.7-5.7 5.7a1 1 0 1 1-1.4-1.4zm180.4 294.4a1 1 0 0 1-1.4 0l-6.4-6.4a1 1 0 1 1 1.4-1.4l5.7 5.7 5.7-5.7a1 1 0 1 1 1.4 1.4zm-1.7-1.2a1 1 0 0 1 2 0zm2-8.2a1 1 0 0 1-2 0zm-2-1a1 1 0 0 1 2 0zm2-8.2a1 1 0 0 1-2 0zm-2-1a1 1 0 0 1 2 0zm2-8.2a1 1 0 1 1-2 0zm-2-1a1 1 0 1 1 2 0zm2-8.2a1 1 0 0 1-2 0zm-2-1a1 1 0 0 1 2 0zm2-8.2a1 1 0 0 1-2 0zm-2-1a1 1 0 0 1 2 0zm2-8.2a1 1 0 0 1-2 0zm-2-1a1 1 0 0 1 2 0zm2-8.2a1 1 0 0 1-2 0zm-2-1a1 1 0 0 1 2 0zm2-8.2a1 1 0 1 1-2 0zm-2-1a1 1 0 0 1 2 0zm2-8.1a1 1 0 1 1-2 0zm-2-1a1 1 0 1 1 2 0zm2-8.2a1 1 0 0 1-2 0zm-2-1a1 1 0 0 1 2 0zm2-8.2a1 1 0 0 1-2 0zm-2-1a1 1 0 0 1 2 0zm2-8.2a1 1 0 0 1-2 0zm-2-1a1 1 0 0 1 2 0zm2-8.2a1 1 0 0 1-2 0zm-2-1a1 1 0 0 1 2 0zm2-8.2a1 1 0 1 1-2 0zm-2-1a1 1 0 0 1 2 0zm2-8.2a1 1 0 1 1-2 0zm-2-1a1 1 0 1 1 2 0zm2-8.2a1 1 0 0 1-2 0zm-2-1a1 1 0 0 1 2 0zm2-8.2a1 1 0 0 1-2 0zm-2-1a1 1 0 0 1 2 0zm2-8.2a1 1 0 0 1-2 0zm-2-1a1 1 0 0 1 2 0zm2-8.2a1 1 0 0 1-2 0zm-2-1a1 1 0 0 1 2 0zm2-8.2a1 1 0 0 1-2 0zm-2-1a1 1 0 1 1 2 0h-1zm1.3-7.9a1 1 0 0 1-2 .4l1-.2zm-2.1-.6a1 1 0 0 1 2-.3l-1 .1zm-.1-8a1 1 0 1 1-1.9.7l1-.4zm-2.2-.2a1 1 0 0 1 1.9-.7l-1 .3zm-1.5-7.9a1 1 0 0 1-1.7 1l.8-.5zm-2.2.2a1 1 0 1 1 1.7-1l-.8.5zm-2.8-7.5a1 1 0 1 1-1.6 1.3l.8-.7zm-2.2.5a1 1 0 0 1 1.5-1.3l-.7.7zm-4-6.9a1 1 0 1 1-1.3 1.6l.6-.8zm-2 1a1 1 0 0 1 1.2-1.6l-.6.8zm-5.3-6.1a1 1 0 0 1-1 1.7l.5-.9zm-1.8 1.2a1 1 0 0 1 1-1.7l-.5.8zm-6.2-5a1 1 0 0 1-.7 1.8l.4-1zm-1.6 1.5a1 1 0 1 1 .7-2l-.3 1zm-7-4a1 1 0 0 1-.3 2l.2-1zm-1.3 1.9a1 1 0 0 1 .4-2l-.2 1zm-7.5-2.7a1 1 0 0 1 0 2v-1zm-1 2a1 1 0 0 1 0-2zm-7.8-2a1 1 0 1 1 0 2zm-1 2a1 1 0 1 1 0-2zm-7.8-2a1 1 0 1 1 0 2zm-1 2a1 1 0 0 1 0-2zm-7.7-2a1 1 0 1 1 0 2zm-1 2a1 1 0 0 1 0-2zm-7.8-2a1 1 0 1 1 0 2zm-1 2a1 1 0 0 1 0-2zm-7.8-2a1 1 0 1 1 0 2zm-1 2a1 1 0 0 1 0-2zm-7.8-2a1 1 0 1 1 0 2zm-1 2a1 1 0 1 1 0-2zm-7.8-2a1 1 0 1 1 0 2zm-1 2a1 1 0 0 1 0-2zm-7.7-2a1 1 0 1 1 0 2zm-1 2a1 1 0 0 1 0-2zm-7.8-2a1 1 0 1 1 0 2zm-1 2a1 1 0 0 1 0-2v1zm-7.5-2.7a1 1 0 0 1-.4 2l.2-1zm-1.3 1.8a1 1 0 1 1 .3-2l-.2 1zm-7-3.9a1 1 0 1 1-.7 1.9l.3-1zM637 215a1 1 0 0 1 .7-2l-.4 1zm-6.2-5.1a1 1 0 1 1-1 1.7l.5-.9zm-1.8 1.2a1 1 0 0 1 1-1.7l-.5.9zm-5.2-6a1 1 0 0 1-1.3 1.5l.6-.8zm-2 .8a1 1 0 1 1 1.2-1.5l-.6.8zm-4.1-6.8a1 1 0 0 1-1.5 1.3l.7-.7zm-2.2.5a1 1 0 1 1 1.6-1.3l-.8.7zm-2.8-7.5a1 1 0 0 1-1.7 1l.8-.5zm-2.2.2a1 1 0 0 1 1.7-1l-.8.5zm-1.5-7.9a1 1 0 0 1-1.9.7l1-.3zm-2.2-.2a1 1 0 0 1 1.9-.7l-1 .3zm0-8a1 1 0 1 1-2 .3l1-.1zm-2.2-.6a1 1 0 0 1 2-.4l-1 .2zm1.3-8a1 1 0 1 1-2 0h1zm-2-1a1 1 0 0 1 2 0zm2-8a1 1 0 1 1-2 0zM784 451h-1v-.5h2v.5zm0-8.7h-1v-1h2v1zm0-9.2h-1v-1h2v1zm0-9.2h-1v-1h2v1zm0-9.2h-1v-1h2v1zm0-9.2h-1v-1h2v1zm0-9.2h-1v-1h2v1zm0-9.2h-1v-1h2v1zm0-9.2h-1v-1h2v1zm0-9.1h-1v-1h2v1zm0-9.2h-1v-1h2v1zm0-9.2h-1v-1h2v1zm0-9.2h-1v-1h2v1zm0-9.2h-1v-1h2v1zm0-9.2h-1v-1h2v1zm0-9.2h-1v-1h2v1zm0-9.2h-1v-1h2v1zm0-9.2h-1v-1h2v1zm0-9.2h-1v-1h2v1zm0-9.2h-1v-1h2v1zm0-9.2h-1v-.5h2v.5zm0-.5h-1v-.5h2v.5zm-.7-8.2-1 .2a57 57 0 0 0-.1-1l1-.2 1-.1.1 1zm-2.1-8.5-1 .4a56 56 0 0 0-.3-1l1-.3.9-.3.3 1zm-3.7-7.9-.8.5a52 52 0 0 0-.5-.8l.9-.5.8-.5.5.8zm-4.9-7.2-.8.7a53 53 0 0 0-.6-.8l.8-.6.7-.7.7.8zm-6-6.2-.7.8-.8-.6.7-.8.6-.8.8.6zm-7.2-5-.5.8a48 48 0 0 0-.8-.5l.5-.9.5-.8.8.5zm-7.8-3.8-.4.9-.9-.3.4-1 .3-1q.4.3 1 .4zm-8.4-2.4-.2 1a41 41 0 0 0-1-.1l.2-1 .2-1 1 .2zm-8.7-.8v1h-.5v-2h.5zm-.5 0v1h-.5v-2h.5zm-8.3 0v1h-1v-2h1zm-8.8 0v1h-1v-2h1zm-8.7 0v1h-1v-2h1zm-8.8 0v1h-1v-2h1zm-8.8 0v1h-1v-2h1zm-8.8 0v1h-1v-2h1zm-8.8 0v1h-1v-2h1zm-8.7 0v1h-1v-2h1zm-8.8 0v1h-.5v-2h.5zm-.5 0v1h-.5v-2h.5zm-8.2-.7-.2 1a52 52 0 0 1-1-.2l.2-1 .2-1 1 .2zm-8.5-2.1-.3.9-1-.3.4-1 .4-1q.4.3.9.4zm-7.9-3.7-.5 1a45 45 0 0 1-.8-.6l.5-.8.5-.9.8.5zm-7.2-4.9-.6.8a58 58 0 0 1-.8-.7l.7-.7.6-.8.8.6zm-6.2-6-.7.6a46 46 0 0 1-.7-.8l.8-.6.8-.7.6.8zm-5-7.2-1 .5a52 52 0 0 1-.4-.8l.9-.5.8-.5.5.8zm-3.8-7.8-1 .3a49 49 0 0 1-.3-1l1-.3.9-.3.3 1zm-2.4-8.4-1 .1-.1-1 1-.1 1-.2.1 1zm-.8-8.7h-1v-.5h2v.5zm0-.5h-1v-.5h2v.5zm0-8.6h-1v-.5h2v.5z"/><defs><linearGradient id="a" x1="354.5" x2="653.5" y1="329" y2="329" gradientUnits="userSpaceOnUse"><stop stop-color="#ff49a4" stop-opacity=".5"/><stop offset=".9" stop-color="#b049ff" stop-opacity=".5"/></linearGradient><linearGradient id="b" x1="354.5" x2="653.5" y1="329" y2="329" gradientUnits="userSpaceOnUse"><stop stop-color="#ff49a4"/><stop offset=".9" stop-color="#b049ff"/></linearGradient><linearGradient id="c" x1="136" x2="873" y1="783" y2="783" gradientUnits="userSpaceOnUse"><stop stop-color="#ff49a4" stop-opacity=".5"/><stop offset=".9" stop-color="#b049ff" stop-opacity=".5"/></linearGradient><linearGradient id="d" x1="136" x2="873" y1="783" y2="783" gradientUnits="userSpaceOnUse"><stop stop-color="#ff49a4"/><stop offset=".9" stop-color="#b049ff"/></linearGradient><linearGradient id="e" x1="45" x2="965" y1="515" y2="515" gradientUnits="userSpaceOnUse"><stop stop-color="#ff49a4" stop-opacity=".5"/><stop offset=".9" stop-color="#b049ff" stop-opacity=".5"/></linearGradient><linearGradient id="f" x1="45" x2="965" y1="515" y2="515" gradientUnits="userSpaceOnUse"><stop stop-color="#ff49a4"/><stop offset=".9" stop-color="#b049ff"/></linearGradient></defs></svg>