<svg width="110" height="35" viewBox="0 0 110 35" fill="none" xmlns="http://www.w3.org/2000/svg">
<path fill-rule="evenodd" clip-rule="evenodd" d="M101.189 5.81367V4.90501C101.189 3.48388 102.223 3.14582 102.974 3.14582H104.059V0.381068C103.775 0.251875 103.077 0.122681 102.352 0.122681C99.5331 0.122681 97.7223 1.98523 97.7223 4.85548V5.81583H95.92V8.75283H97.7223V18.5673H101.2V8.75283H106.027V18.5673H109.505V5.81367H101.189ZM35.8315 7.09027C36.7658 6.08922 38.1284 5.50573 39.8871 5.50549C43.4953 5.50598 45.6804 7.96052 45.6804 11.4312V18.567H42.2029V11.147C42.2029 9.51266 41.2404 8.69874 39.886 8.69874C38.5317 8.69874 37.5692 9.51481 37.5692 11.147V18.567H34.0917V11.147C34.0917 9.51266 33.1292 8.69874 31.7748 8.69874C30.4204 8.69874 29.4579 9.51481 29.4579 11.147V18.567H25.9805V11.4312C25.9805 7.95802 28.166 5.50549 31.7748 5.50549C33.534 5.50549 34.897 6.09117 35.8315 7.09027ZM6.25062 10.8765L6.25052 10.8765C5.8559 10.7966 5.45994 10.7164 5.04072 10.6192C4.11698 10.4039 3.66049 10.1067 3.66049 9.38326C3.66049 8.65978 4.42059 8.11716 5.36801 8.11716C6.88604 8.11716 7.30376 9.0732 7.41142 9.82468L10.5745 9.17871C10.4109 7.80925 9.13832 5.50745 5.34217 5.50745C2.4676 5.50745 0.35313 7.39583 0.35313 9.66964C0.35313 11.9435 2.11017 13.0179 3.82414 13.4507C4.20247 13.5465 4.51778 13.6175 4.83063 13.6879L4.83069 13.688L4.83073 13.688C5.10187 13.749 5.37118 13.8097 5.67807 13.8857C6.61473 14.1182 7.29515 14.3077 7.29515 14.9731C7.29515 15.6384 6.72454 16.2392 5.53165 16.2392C3.95979 16.2392 3.36765 15.309 3.28583 14.3185L0 14.9644C0.163646 16.3942 1.54602 18.8769 5.55964 18.8769C9.05865 18.8769 10.7382 16.8119 10.7382 14.7427C10.7382 12.5679 9.50006 11.5666 6.90541 11.0133V11.0111C6.68511 10.9644 6.46807 10.9205 6.25062 10.8765ZM20.6543 13.2341C20.6543 14.8663 19.5884 15.6823 18.2319 15.6823C16.8753 15.6823 15.8095 14.8684 15.8095 13.2341V5.81409H12.332V12.9499C12.332 16.4209 14.6231 18.8756 18.2319 18.8756C21.8407 18.8756 24.1317 16.4231 24.1317 12.9499V5.81409H20.6543V13.2341ZM61.6321 5.50549C59.874 5.50597 58.5117 6.08943 57.5776 7.09027C56.6431 6.09117 55.2801 5.50549 53.5209 5.50549C49.9121 5.50549 47.7266 7.95802 47.7266 11.4312V18.567H51.204V11.147C51.204 9.51481 52.1665 8.69874 53.5209 8.69874C54.8753 8.69874 55.8378 9.51266 55.8378 11.147V18.567H59.3153V11.147C59.3153 9.51481 60.2778 8.69874 61.6321 8.69874C62.9865 8.69874 63.949 9.51266 63.949 11.147V18.567H67.4265V11.4312C67.4265 7.96087 65.2418 5.50647 61.6321 5.50549ZM87.0331 7.84004C87.5542 6.54595 89.0765 5.65881 90.5364 5.65881H90.5386C90.967 5.65881 91.346 5.71049 91.6712 5.81385V8.75085H90.5924C88.7406 8.75085 87.3173 10.0213 87.3173 12.2025V18.5653H83.8398V5.81385H87.0331V7.84004ZM105.326 3.14826C105.326 1.83731 106.381 0.782452 107.664 0.781861C108.946 0.782452 110.001 1.83731 110.001 3.14826H105.326ZM107.664 0.781861L107.662 0.78186H107.665L107.664 0.781861ZM92.519 16.2009C91.2362 16.2015 90.1817 17.2563 90.1817 18.5673H94.8563C94.8563 17.2563 93.8018 16.2015 92.519 16.2009ZM75.8968 15.9271C77.4773 15.9271 78.3192 15.0745 78.7649 14.0194L81.7945 15.0142C81.071 17.1351 79.0168 18.8749 75.871 18.8749C72.2622 18.8749 69.084 16.3664 69.084 12.075C69.084 8.01616 72.1846 5.50549 75.5501 5.50549C79.6111 5.50549 82.0421 7.99678 82.0421 12.0815C82.0421 12.4521 82.0114 12.7749 81.9964 12.9331C81.9915 12.9844 81.9883 13.0184 81.9883 13.031H72.5851C72.6648 14.7127 74.1333 15.9271 75.8968 15.9271ZM78.541 10.8067C78.4872 9.5385 77.6323 8.29823 75.6018 8.29823C73.7587 8.29823 72.7423 9.644 72.6627 10.8067H78.541Z" fill="url(#paint0_linear_10795_18969)"/>
<path d="M2.84872 23.8182V34H1.00426V23.8182H2.84872ZM6.56623 29.5256V34H4.76651V26.3636H6.48668V27.6612H6.57617C6.75183 27.2337 7.0319 26.8939 7.41637 26.642C7.80415 26.3902 8.28308 26.2642 8.85316 26.2642C9.38015 26.2642 9.83919 26.3769 10.2303 26.6023C10.6247 26.8277 10.9296 27.1541 11.1451 27.5817C11.3638 28.0092 11.4715 28.5279 11.4682 29.1378V34H9.6685V29.4162C9.6685 28.9058 9.53593 28.5064 9.27077 28.218C9.00894 27.9297 8.64601 27.7855 8.182 27.7855C7.86713 27.7855 7.58706 27.8551 7.3418 27.9943C7.09985 28.1302 6.90927 28.3274 6.77006 28.5859C6.63417 28.8445 6.56623 29.1577 6.56623 29.5256ZM19.3333 28.3821L17.6926 28.5611C17.6462 28.3954 17.565 28.2396 17.449 28.0938C17.3364 27.9479 17.1839 27.8303 16.9917 27.7408C16.7994 27.6513 16.5641 27.6065 16.2857 27.6065C15.9112 27.6065 15.5963 27.6877 15.3411 27.8501C15.0892 28.0125 14.9649 28.223 14.9682 28.4815C14.9649 28.7036 15.0461 28.8842 15.2118 29.0234C15.3809 29.1626 15.6593 29.277 16.0471 29.3665L17.3496 29.6449C18.0721 29.8007 18.6091 30.0476 18.9604 30.3857C19.315 30.7237 19.494 31.1662 19.4973 31.7131C19.494 32.1937 19.3532 32.6179 19.0748 32.9858C18.7997 33.3504 18.4168 33.6354 17.9263 33.8409C17.4358 34.0464 16.8723 34.1491 16.236 34.1491C15.3013 34.1491 14.5489 33.9536 13.9789 33.5625C13.4088 33.1681 13.0691 32.6196 12.9597 31.9169L14.7147 31.7479C14.7942 32.0926 14.9632 32.3527 15.2218 32.5284C15.4803 32.7041 15.8167 32.7919 16.231 32.7919C16.6586 32.7919 17.0016 32.7041 17.2601 32.5284C17.522 32.3527 17.6529 32.1357 17.6529 31.8771C17.6529 31.6584 17.5684 31.4777 17.3993 31.3352C17.2336 31.1927 16.9751 31.0833 16.6238 31.0071L15.3212 30.7337C14.5887 30.5812 14.0468 30.3243 13.6955 29.9631C13.3442 29.5985 13.1702 29.1378 13.1735 28.581C13.1702 28.1103 13.2978 27.7027 13.5563 27.358C13.8181 27.0099 14.181 26.7415 14.6451 26.5526C15.1124 26.3603 15.651 26.2642 16.2608 26.2642C17.1557 26.2642 17.86 26.4548 18.3738 26.8359C18.8908 27.2171 19.2106 27.7325 19.3333 28.3821ZM24.7946 26.3636V27.7557H20.4047V26.3636H24.7946ZM21.4885 24.5341H23.2882V31.7031C23.2882 31.9451 23.3246 32.1307 23.3975 32.2599C23.4738 32.3859 23.5732 32.4721 23.6958 32.5185C23.8185 32.5649 23.9544 32.5881 24.1035 32.5881C24.2162 32.5881 24.319 32.5798 24.4118 32.5632C24.5079 32.5466 24.5808 32.5317 24.6305 32.5185L24.9338 33.9254C24.8377 33.9586 24.7001 33.995 24.5211 34.0348C24.3455 34.0746 24.13 34.0978 23.8748 34.1044C23.4241 34.1177 23.0181 34.0497 22.6568 33.9006C22.2955 33.7481 22.0088 33.5128 21.7967 33.1946C21.5879 32.8764 21.4851 32.4787 21.4885 32.0014V24.5341ZM26.2997 34V26.3636H28.0994V34H26.2997ZM27.2045 25.2798C26.9195 25.2798 26.6742 25.1854 26.4688 24.9964C26.2633 24.8042 26.1605 24.5739 26.1605 24.3054C26.1605 24.0336 26.2633 23.8033 26.4688 23.6143C26.6742 23.4221 26.9195 23.326 27.2045 23.326C27.4929 23.326 27.7382 23.4221 27.9403 23.6143C28.1458 23.8033 28.2486 24.0336 28.2486 24.3054C28.2486 24.5739 28.1458 24.8042 27.9403 24.9964C27.7382 25.1854 27.4929 25.2798 27.2045 25.2798ZM33.7633 26.3636V27.7557H29.3734V26.3636H33.7633ZM30.4572 24.5341H32.2569V31.7031C32.2569 31.9451 32.2934 32.1307 32.3663 32.2599C32.4425 32.3859 32.542 32.4721 32.6646 32.5185C32.7872 32.5649 32.9231 32.5881 33.0723 32.5881C33.185 32.5881 33.2877 32.5798 33.3805 32.5632C33.4766 32.5466 33.5495 32.5317 33.5993 32.5185L33.9025 33.9254C33.8064 33.9586 33.6689 33.995 33.4899 34.0348C33.3142 34.0746 33.0988 34.0978 32.8436 34.1044C32.3928 34.1177 31.9868 34.0497 31.6255 33.9006C31.2643 33.7481 30.9776 33.5128 30.7654 33.1946C30.5566 32.8764 30.4539 32.4787 30.4572 32.0014V24.5341ZM40.1357 30.7884V26.3636H41.9354V34H40.1903V32.6428H40.1108C39.9384 33.0703 39.6551 33.42 39.2607 33.6918C38.8696 33.9635 38.3873 34.0994 37.8139 34.0994C37.3134 34.0994 36.871 33.9884 36.4865 33.7663C36.1054 33.541 35.8071 33.2145 35.5916 32.7869C35.3762 32.3561 35.2685 31.8357 35.2685 31.2259V26.3636H37.0682V30.9474C37.0682 31.4313 37.2008 31.8158 37.4659 32.1009C37.7311 32.3859 38.0791 32.5284 38.5099 32.5284C38.7751 32.5284 39.032 32.4638 39.2805 32.3345C39.5291 32.2053 39.733 32.013 39.892 31.7578C40.0545 31.4993 40.1357 31.1761 40.1357 30.7884ZM47.5993 26.3636V27.7557H43.2093V26.3636H47.5993ZM44.2931 24.5341H46.0929V31.7031C46.0929 31.9451 46.1293 32.1307 46.2022 32.2599C46.2785 32.3859 46.3779 32.4721 46.5005 32.5185C46.6232 32.5649 46.7591 32.5881 46.9082 32.5881C47.0209 32.5881 47.1236 32.5798 47.2164 32.5632C47.3126 32.5466 47.3855 32.5317 47.4352 32.5185L47.7385 33.9254C47.6423 33.9586 47.5048 33.995 47.3258 34.0348C47.1502 34.0746 46.9347 34.0978 46.6795 34.1044C46.2288 34.1177 45.8227 34.0497 45.4615 33.9006C45.1002 33.7481 44.8135 33.5128 44.6014 33.1946C44.3926 32.8764 44.2898 32.4787 44.2931 32.0014V24.5341ZM49.1044 34V26.3636H50.9041V34H49.1044ZM50.0092 25.2798C49.7242 25.2798 49.4789 25.1854 49.2734 24.9964C49.0679 24.8042 48.9652 24.5739 48.9652 24.3054C48.9652 24.0336 49.0679 23.8033 49.2734 23.6143C49.4789 23.4221 49.7242 23.326 50.0092 23.326C50.2976 23.326 50.5429 23.4221 50.745 23.6143C50.9505 23.8033 51.0533 24.0336 51.0533 24.3054C51.0533 24.5739 50.9505 24.8042 50.745 24.9964C50.5429 25.1854 50.2976 25.2798 50.0092 25.2798ZM56.0858 34.1491C55.34 34.1491 54.6937 33.9851 54.1468 33.657C53.6 33.3288 53.1757 32.8698 52.8741 32.2798C52.5758 31.6899 52.4267 31.0005 52.4267 30.2116C52.4267 29.4228 52.5758 28.7318 52.8741 28.1385C53.1757 27.5452 53.6 27.0845 54.1468 26.7564C54.6937 26.4283 55.34 26.2642 56.0858 26.2642C56.8315 26.2642 57.4778 26.4283 58.0247 26.7564C58.5716 27.0845 58.9941 27.5452 59.2924 28.1385C59.594 28.7318 59.7449 29.4228 59.7449 30.2116C59.7449 31.0005 59.594 31.6899 59.2924 32.2798C58.9941 32.8698 58.5716 33.3288 58.0247 33.657C57.4778 33.9851 56.8315 34.1491 56.0858 34.1491ZM56.0957 32.7074C56.5001 32.7074 56.8381 32.5964 57.1099 32.3743C57.3817 32.1489 57.5839 31.8473 57.7164 31.4695C57.8523 31.0916 57.9203 30.6707 57.9203 30.2067C57.9203 29.7393 57.8523 29.3168 57.7164 28.9389C57.5839 28.5578 57.3817 28.2545 57.1099 28.0291C56.8381 27.8037 56.5001 27.6911 56.0957 27.6911C55.6814 27.6911 55.3367 27.8037 55.0616 28.0291C54.7898 28.2545 54.586 28.5578 54.4501 28.9389C54.3175 29.3168 54.2512 29.7393 54.2512 30.2067C54.2512 30.6707 54.3175 31.0916 54.4501 31.4695C54.586 31.8473 54.7898 32.1489 55.0616 32.3743C55.3367 32.5964 55.6814 32.7074 56.0957 32.7074ZM63.0721 29.5256V34H61.2724V26.3636H62.9925V27.6612H63.082C63.2577 27.2337 63.5378 26.8939 63.9222 26.642C64.31 26.3902 64.7889 26.2642 65.359 26.2642C65.886 26.2642 66.3451 26.3769 66.7362 26.6023C67.1306 26.8277 67.4355 27.1541 67.6509 27.5817C67.8697 28.0092 67.9774 28.5279 67.9741 29.1378V34H66.1744V29.4162C66.1744 28.9058 66.0418 28.5064 65.7766 28.218C65.5148 27.9297 65.1519 27.7855 64.6879 27.7855C64.373 27.7855 64.0929 27.8551 63.8477 27.9943C63.6057 28.1302 63.4151 28.3274 63.2759 28.5859C63.14 28.8445 63.0721 29.1577 63.0721 29.5256ZM72.0011 34.1541C71.5172 34.1541 71.0813 34.0679 70.6935 33.8956C70.3091 33.7199 70.0041 33.4614 69.7788 33.12C69.5567 32.7786 69.4457 32.3577 69.4457 31.8572C69.4457 31.4264 69.5252 31.0701 69.6843 30.7884C69.8434 30.5066 70.0605 30.2812 70.3356 30.1122C70.6107 29.9432 70.9206 29.8156 71.2653 29.7294C71.6133 29.6399 71.9729 29.5753 72.3441 29.5355C72.7915 29.4891 73.1545 29.4477 73.4329 29.4112C73.7113 29.3714 73.9135 29.3118 74.0394 29.2322C74.1687 29.1494 74.2333 29.0218 74.2333 28.8494V28.8196C74.2333 28.4451 74.1223 28.1551 73.9002 27.9496C73.6781 27.7441 73.3583 27.6413 72.9407 27.6413C72.4999 27.6413 72.1502 27.7375 71.8917 27.9297C71.6365 28.1219 71.4641 28.349 71.3746 28.6108L69.6942 28.3722C69.8268 27.9081 70.0456 27.5204 70.3505 27.2088C70.6554 26.8939 71.0283 26.6586 71.4691 26.5028C71.9099 26.3438 72.3971 26.2642 72.9308 26.2642C73.2987 26.2642 73.6649 26.3073 74.0295 26.3935C74.3941 26.4796 74.7272 26.6222 75.0288 26.821C75.3304 27.0166 75.5723 27.2834 75.7546 27.6214C75.9402 27.9595 76.033 28.3821 76.033 28.8892V34H74.3029V32.951H74.2433C74.1339 33.1631 73.9798 33.362 73.7809 33.5476C73.5853 33.7299 73.3384 33.8774 73.0401 33.9901C72.7451 34.0994 72.3988 34.1541 72.0011 34.1541ZM72.4684 32.8317C72.8297 32.8317 73.1429 32.7604 73.408 32.6179C73.6732 32.4721 73.877 32.2798 74.0195 32.0412C74.1654 31.8026 74.2383 31.5424 74.2383 31.2607V30.3608C74.1819 30.4072 74.0858 30.4503 73.9499 30.4901C73.8174 30.5298 73.6682 30.5646 73.5025 30.5945C73.3368 30.6243 73.1727 30.6508 73.0103 30.674C72.8479 30.6972 72.707 30.7171 72.5877 30.7337C72.3192 30.7701 72.079 30.8298 71.8668 30.9126C71.6547 30.9955 71.4873 31.1115 71.3647 31.2607C71.2421 31.4065 71.1808 31.5954 71.1808 31.8274C71.1808 32.1589 71.3017 32.4091 71.5437 32.5781C71.7856 32.7472 72.0939 32.8317 72.4684 32.8317ZM79.6424 23.8182V34H77.8427V23.8182H79.6424Z" fill="url(#paint1_linear_10795_18969)"/>
<defs>
<linearGradient id="paint0_linear_10795_18969" x1="0" y1="9.49977" x2="110.001" y2="9.49977" gradientUnits="userSpaceOnUse">
<stop stop-color="#FF49A4"/>
<stop offset="0.93" stop-color="#B049FF"/>
</linearGradient>
<linearGradient id="paint1_linear_10795_18969" x1="0" y1="29" x2="81" y2="29" gradientUnits="userSpaceOnUse">
<stop stop-color="#FF49A4"/>
<stop offset="0.93" stop-color="#B049FF"/>
</linearGradient>
</defs>
</svg>
