<svg width="63" height="18" viewBox="0 0 63 18" fill="none" xmlns="http://www.w3.org/2000/svg">
<path fill-rule="evenodd" clip-rule="evenodd" d="M54.5954 7.158V6.70366C54.5954 5.9931 55.1122 5.82407 55.4879 5.82407H56.0305V4.44169C55.8884 4.3771 55.5396 4.3125 55.1768 4.3125C53.7675 4.3125 52.8621 5.24377 52.8621 6.6789V7.15907H51.9609V8.62758H52.8621V13.5348H54.6008V8.62758H57.0146V13.5348H58.7533V7.158H54.5954ZM21.9177 7.7963C22.3849 7.29577 23.0662 7.00403 23.9455 7.00391C25.7496 7.00415 26.8421 8.23142 26.8421 9.96675V13.5347H25.1034V9.82464C25.1034 9.00749 24.6222 8.60053 23.945 8.60053C23.2678 8.60053 22.7865 9.00856 22.7865 9.82464V13.5347H21.0478V9.82464C21.0478 9.00749 20.5666 8.60053 19.8894 8.60053C19.2122 8.60053 18.7309 9.00856 18.7309 9.82464V13.5347H16.9922V9.96675C16.9922 8.23017 18.085 7.00391 19.8894 7.00391C20.769 7.00391 21.4505 7.29675 21.9177 7.7963ZM7.1253 9.68963L7.12525 9.68962C6.92794 9.64967 6.72997 9.60959 6.52036 9.561C6.05849 9.45334 5.83025 9.30477 5.83025 8.94302C5.83025 8.58128 6.21029 8.30997 6.684 8.30997C7.44302 8.30997 7.65188 8.78799 7.70571 9.16373L9.28726 8.84075C9.20544 8.15602 8.56916 7.00512 6.67108 7.00512C5.2338 7.00512 4.17657 7.94931 4.17657 9.08622C4.17657 10.2231 5.05508 10.7604 5.91207 10.9768C6.10124 11.0246 6.2589 11.0601 6.41534 11.0954L6.41535 11.0954C6.55093 11.1259 6.68558 11.1562 6.83904 11.1942C7.30736 11.3105 7.64757 11.4052 7.64757 11.7379C7.64757 12.0706 7.36227 12.371 6.76583 12.371C5.9799 12.371 5.68383 11.9059 5.64292 11.4106L4 11.7336C4.08182 12.4485 4.77301 13.6898 6.77982 13.6898C8.52932 13.6898 9.36908 12.6573 9.36908 11.6227C9.36908 10.5353 8.75003 10.0347 7.45271 9.75802V9.75695C7.34255 9.73361 7.23403 9.71164 7.1253 9.68963ZM14.3252 10.8682C14.3252 11.6843 13.7923 12.0923 13.114 12.0923C12.4357 12.0923 11.9028 11.6854 11.9028 10.8682V7.1582H10.1641V10.7261C10.1641 12.4616 11.3096 13.689 13.114 13.689C14.9184 13.689 16.0639 12.4627 16.0639 10.7261V7.1582H14.3252V10.8682ZM34.816 7.00404C33.9369 7.00428 33.2558 7.29601 32.7887 7.79643C32.3215 7.29688 31.64 7.00404 30.7604 7.00404C28.956 7.00404 27.8632 8.23031 27.8632 9.96689V13.5348H29.6019V9.82477C29.6019 9.0087 30.0832 8.60066 30.7604 8.60066C31.4376 8.60066 31.9188 9.00762 31.9188 9.82477V13.5348H33.6575V9.82477C33.6575 9.0087 34.1388 8.60066 34.816 8.60066C35.4932 8.60066 35.9744 9.00762 35.9744 9.82477V13.5348H37.7132V9.96689C37.7132 8.23173 36.6208 7.00453 34.816 7.00404ZM47.5185 8.17069C47.779 7.52364 48.5402 7.08008 49.2702 7.08008H49.2712C49.4855 7.08008 49.675 7.10592 49.8375 7.15759V8.6261H49.2981C48.3723 8.6261 47.6606 9.2613 47.6606 10.3519V13.5333H45.9219V7.15759H47.5185V8.17069ZM56.6641 5.8248C56.6641 5.16933 57.1913 4.6419 57.8327 4.6416C58.4741 4.6419 59.0014 5.16933 59.0014 5.8248H56.6641ZM57.8327 4.6416L57.8322 4.6416H57.8333L57.8327 4.6416ZM50.2585 12.3516C49.6171 12.3519 49.0898 12.8793 49.0898 13.5348H51.4272C51.4272 12.8793 50.8999 12.3519 50.2585 12.3516ZM41.9494 12.2147C42.7396 12.2147 43.1606 11.7884 43.3834 11.2608L44.8982 11.7582C44.5365 12.8187 43.5094 13.6886 41.9365 13.6886C40.1321 13.6886 38.543 12.4344 38.543 10.2887C38.543 8.25924 40.0933 7.00391 41.776 7.00391C43.8065 7.00391 45.022 8.24955 45.022 10.2919C45.022 10.4772 45.0067 10.6386 44.9992 10.7177C44.9967 10.7434 44.9951 10.7603 44.9951 10.7667H40.2935C40.3334 11.6075 41.0676 12.2147 41.9494 12.2147ZM43.2715 9.65453C43.2446 9.02041 42.8171 8.40028 41.8019 8.40028C40.8803 8.40028 40.3721 9.07316 40.3323 9.65453H43.2715Z" fill="url(#paint0_linear_14369_74290)"/>
<defs>
<linearGradient id="paint0_linear_14369_74290" x1="4" y1="9.00116" x2="59.0014" y2="9.00116" gradientUnits="userSpaceOnUse">
<stop stop-color="#FF49A4"/>
<stop offset="0.93" stop-color="#B049FF"/>
</linearGradient>
</defs>
</svg>
