<svg width="103" height="35" viewBox="0 0 103 35" fill="none" xmlns="http://www.w3.org/2000/svg">
<path fill-rule="evenodd" clip-rule="evenodd" d="M24.9303 4.42721L22.4436 20.1861V20.1881C22.4159 20.3628 22.6555 20.4422 22.7387 20.2854L27.3951 11.4226C27.4901 11.242 27.506 11.0317 27.4406 10.8391L25.2351 4.40151C25.1816 4.24467 24.956 4.26457 24.9303 4.42721ZM16.9869 16.1923L19.5211 28.7503C19.5567 28.9269 19.8141 28.9149 19.8319 28.7343L21.7998 8.81198C21.8157 8.64526 21.5998 8.57178 21.5107 8.71076L17.0879 15.6485C16.9869 15.8093 16.9493 16.0057 16.9869 16.1923ZM9.00876 20.4969L18.195 31.2092C18.3672 31.4097 18.6879 31.219 18.5968 30.9709L16.1102 24.2238C15.9954 23.9122 15.7697 23.6521 15.4787 23.4935L9.30176 20.1337C9.07011 20.0067 8.83648 20.2965 9.00876 20.4969ZM21.7127 25.0468L26.5751 17.956C26.7414 17.7139 27.0305 17.589 27.3216 17.6326L30.4317 18.105C30.6317 18.1347 30.699 18.3907 30.5407 18.5158L21.9563 25.2769C21.8039 25.396 21.6039 25.2075 21.7127 25.0487V25.0468ZM11.7862 17.0785L12.3425 13.1194C12.3663 12.9566 12.588 12.927 12.6533 13.0778L16.0843 21.0932C16.1536 21.2559 15.9517 21.3968 15.823 21.2758L11.9941 17.6739C11.8317 17.521 11.7525 17.2968 11.7842 17.0766L11.7862 17.0785ZM35.0898 23.4914C35.5967 23.926 36.2798 24.2774 37.137 24.5352L37.141 24.5372C38.0081 24.7952 38.893 24.9342 39.8057 24.944C40.847 24.944 41.7419 24.7873 42.4705 24.4638C43.1991 24.1404 43.7416 23.7157 44.1019 23.1798C44.4622 22.644 44.6365 22.0428 44.6365 21.3779C44.6365 20.6 44.4345 19.9809 44.0286 19.5283C43.6228 19.0759 43.1338 18.7345 42.5616 18.5123C41.9994 18.2822 41.2609 18.0677 40.3759 17.8654C39.7206 17.7085 39.2137 17.5697 38.8356 17.4407C38.4576 17.3116 38.1526 17.145 37.9052 16.9227C37.6576 16.7004 37.5369 16.4227 37.5369 16.0813C37.5369 15.5912 37.7586 15.1942 38.1823 14.8985C38.606 14.6028 39.2613 14.454 40.1364 14.454C40.6709 14.454 41.2232 14.5373 41.7954 14.6941C42.3676 14.8509 42.912 15.091 43.4367 15.3966L44.1376 13.6681C43.6307 13.3268 43.0229 13.0669 42.3121 12.8823C41.6014 12.6978 40.8828 12.6045 40.1542 12.6045C39.1128 12.6045 38.2279 12.7612 37.4993 13.0847C36.7787 13.4081 36.2362 13.8328 35.8759 14.3787C35.5155 14.9244 35.3413 15.5257 35.3413 16.1904C35.3413 16.9763 35.5432 17.6054 35.9491 18.0677C36.3549 18.5302 36.844 18.8715 37.4062 19.0838C37.9685 19.2962 38.707 19.5184 39.6196 19.7308C40.2749 19.8876 40.7818 20.0265 41.1599 20.1555C41.538 20.2844 41.8409 20.4591 42.0904 20.6813C42.3379 20.9036 42.4587 21.1914 42.4587 21.5326C42.4587 21.9951 42.2449 22.3742 41.8034 22.6599C41.3618 22.9457 40.6966 23.0845 39.8117 23.0845C39.093 23.0845 38.3744 22.9655 37.6635 22.7155C36.9449 22.4654 36.3451 22.1518 35.856 21.7629L35.0898 23.4914ZM55.0188 17.0294C55.0188 17.7975 54.7616 18.3789 54.2626 18.7956C53.7657 19.2025 53.0272 19.4049 52.059 19.4049H49.4576V14.6441H52.059C53.0272 14.6441 53.7637 14.8466 54.2626 15.2633C54.7694 15.6701 55.0188 16.2615 55.0188 17.0294ZM56.6404 14.7473C56.2265 14.1003 55.6366 13.6103 54.8704 13.2688L54.8685 13.2669C54.0943 12.9255 53.1916 12.7588 52.1581 12.7588H47.2344V24.767H49.4576V21.3001H52.16C53.2014 21.3001 54.1042 21.1236 54.8704 20.7821C55.6445 20.4408 56.2246 19.9506 56.6404 19.3036C57.0561 18.6568 57.258 17.9166 57.258 17.0294C57.258 16.1424 57.0561 15.3843 56.6404 14.7473ZM65.5393 20.2284L63.2803 14.9776L61.0392 20.2284H65.5393ZM66.2777 21.9847H60.2929L59.1129 24.7571H56.8164L62.2014 12.7588H64.3872L69.792 24.7571H67.4676L66.2777 21.9847ZM76.2368 14.6441C77.205 14.6441 77.9416 14.8466 78.4405 15.2633C78.9472 15.6701 79.1967 16.2615 79.1967 17.0195C79.1967 17.7855 78.9373 18.377 78.4405 18.7937C77.9435 19.2104 77.205 19.4227 76.2368 19.4227H73.6355V14.6441H76.2368ZM76.7992 21.2446L79.2422 24.7571H79.2383V24.775H81.6457L78.8878 20.8278C79.7094 20.5044 80.335 20.0142 80.7786 19.3672C81.2121 18.7203 81.4338 17.9246 81.4338 17.0374C81.4338 16.1504 81.232 15.3923 80.8162 14.7552C80.4024 14.1083 79.8124 13.6181 79.0463 13.2767C78.2819 12.9335 77.3693 12.7588 76.3359 12.7588H71.4121V24.7571H73.6355V21.2624H76.3379C76.5418 21.2624 76.6982 21.2544 76.7992 21.2446ZM86.3248 21.689L88.2233 19.7404L92.4541 24.7571H95.0559L89.7159 18.1209L94.7429 12.7588H92.2443L86.3248 18.9147V12.7588H84.1016V24.7571H86.3248V21.689Z" fill="#D2D2D2"/>
</svg>
