<svg width="115" height="35" viewBox="0 0 115 35" fill="none" xmlns="http://www.w3.org/2000/svg">
<path d="M10.4297 20.9734V26.5692C10.4297 26.9137 10.7206 27.0567 10.8111 27.0892C10.9016 27.1282 11.2055 27.2127 11.477 26.9592L15.7014 22.8911C16.0611 22.5447 16.4083 22.1805 16.6692 21.7545C16.792 21.5542 16.8429 21.4414 16.8429 21.4414C17.1016 20.915 17.1016 20.408 16.8493 19.9011C16.4745 19.1472 15.5176 18.3803 14.0759 17.6523L11.6128 19.0302C10.8823 19.4461 10.4297 20.1805 10.4297 20.9734Z" fill="#777576"/>
<path d="M8 8.52758V14.3964C8 15.1308 8.49134 15.7807 9.18957 15.9887C11.5687 16.6776 15.7127 18.1594 16.7148 20.3366C16.844 20.6226 16.9216 20.9021 16.9476 21.1945C17.6135 19.9792 17.9173 18.5818 17.7751 17.165C17.5811 15.1568 16.5207 13.3305 14.8658 12.1671L8.96329 8.02714C8.85984 7.94915 8.73701 7.91016 8.61418 7.91016C8.51073 7.91016 8.42022 7.92965 8.32325 7.98165C8.12929 8.09213 8 8.29361 8 8.52758Z" fill="#D2D2D2"/>
<path d="M26.1392 20.9734V26.5692C26.1392 26.9137 25.8484 27.0567 25.7578 27.0892C25.6674 27.1282 25.3634 27.2127 25.0919 26.9592L20.7692 22.7965C20.475 22.513 20.194 22.2133 19.9724 21.8699C19.7968 21.598 19.7261 21.4414 19.7261 21.4414C19.4674 20.915 19.4674 20.408 19.7194 19.9011C20.0945 19.1472 21.0514 18.3803 22.4929 17.6523L24.9561 19.0302C25.6932 19.4461 26.1392 20.1805 26.1392 20.9734Z" fill="#777576"/>
<path d="M28.5751 8.52661V14.3954C28.5751 15.1298 28.0836 15.7797 27.3853 15.9877C25.0063 16.6766 20.8624 18.1584 19.8603 20.3356C19.7308 20.6216 19.6532 20.9011 19.6275 21.1935C18.9616 19.9782 18.6578 18.5809 18.8 17.164C18.9938 15.1558 20.0541 13.3295 21.7093 12.1661L27.6118 8.02617C27.7152 7.94817 27.838 7.90918 27.9608 7.90918C28.0642 7.90918 28.1548 7.92868 28.2516 7.98067C28.4457 8.09116 28.5751 8.29263 28.5751 8.52661Z" fill="#D2D2D2"/>
<path fill-rule="evenodd" clip-rule="evenodd" d="M40.8457 9.79492H38.5859V23.7893H40.2346V12.6521H40.3898L45.1904 23.7893H47.0912L51.8915 12.6521H52.0467V23.7893H53.6954V9.79492H51.4747L46.2378 21.9331H46.0826L40.8457 9.79492ZM60.549 13.6533C57.5426 13.6533 55.5156 15.4998 55.5156 18.8429C55.5156 22.1763 57.5426 24.0228 60.549 24.0228C63.5455 24.0228 65.5821 22.1763 65.5821 18.8429C65.5821 15.4998 63.5455 13.6533 60.549 13.6533ZM60.549 22.6233C58.5706 22.6233 57.2419 21.2919 57.2419 18.8429C57.2419 16.3842 58.5706 15.0625 60.549 15.0625C62.5176 15.0625 63.8463 16.3842 63.8463 18.8429C63.8463 21.2919 62.5176 22.6233 60.549 22.6233ZM67.2129 13.8865H68.8615V15.0722H69.0167C69.3563 14.3724 69.977 13.8477 71.4606 13.8477H72.8377V15.3248H71.4994C69.6472 15.3248 68.9197 16.3453 68.9197 18.357V23.7895H67.2129V13.8865ZM74.1484 13.8876V27.6779H75.8553V22.4786H76.0104C76.7475 23.5767 77.9402 24.0141 79.3078 24.0141C81.8776 24.0141 83.8464 22.2648 83.8464 18.8439C83.8464 15.4134 81.8776 13.6641 79.3078 13.6641C77.9113 13.6641 76.7087 14.1111 75.9717 15.2579H75.8165V13.8876H74.1484ZM78.9586 22.5952C77.0772 22.5952 75.7971 21.2443 75.7971 18.8439C75.7971 16.4338 77.0772 15.0829 78.9586 15.0829C80.8496 15.0829 82.13 16.4338 82.13 18.8439C82.13 21.2443 80.8496 22.5952 78.9586 22.5952ZM85.4805 9.79492H87.1873V15.1108H87.3425C88.0503 14.0613 89.2239 13.6628 90.6106 13.6628C92.9091 13.6628 94.3638 14.829 94.3638 17.2489V23.7893H92.657V17.4141C92.657 15.8008 91.7743 15.0914 90.2325 15.0914C88.545 15.0914 87.1873 16.0924 87.1873 18.2596V23.7893H85.4805V9.79492ZM100.933 13.6533C97.9271 13.6533 95.9004 15.4998 95.9004 18.8429C95.9004 22.1763 97.9271 24.0228 100.933 24.0228C103.93 24.0228 105.967 22.1763 105.967 18.8429C105.967 15.4998 103.93 13.6533 100.933 13.6533ZM100.933 22.6233C98.9551 22.6233 97.6266 21.2919 97.6266 18.8429C97.6266 16.3842 98.9551 15.0625 100.933 15.0625C102.902 15.0625 104.231 16.3842 104.231 18.8429C104.231 21.2919 102.902 22.6233 100.933 22.6233Z" fill="#D2D2D2"/>
</svg>
