<svg width="134" height="34" viewBox="0 0 134 34" fill="none" xmlns="http://www.w3.org/2000/svg">
<path fill-rule="evenodd" clip-rule="evenodd" d="M123.062 18.8144C123.062 17.2694 122.172 16.1458 120.768 16.1458C119.363 16.1458 118.474 17.2694 118.474 18.8144C118.474 20.3594 119.363 21.483 120.768 21.483C122.172 21.483 123.062 20.3594 123.062 18.8144ZM123.015 15.1158V11.1363C123.015 10.8554 123.202 10.6213 123.437 10.5745L125.543 10.0127V23.4915H123.202V22.321C122.594 23.1638 121.564 23.6787 120.206 23.6787C117.49 23.6787 115.899 21.4783 115.899 18.7629C115.899 16.0475 117.49 13.8471 120.206 13.8471C121.517 13.8471 122.5 14.4089 122.968 15.0643L123.015 15.1158ZM108.552 14.1326V15.3031C108.974 14.5072 109.957 13.9454 111.362 13.9454C113.609 13.9454 114.826 15.4435 114.826 17.6908V23.543H112.298V17.9717C112.298 16.8949 111.83 16.1458 110.706 16.1458C109.489 16.1458 108.787 16.9417 108.787 18.2058V23.5898H106.258V14.1795H108.599L108.552 14.1326ZM100.27 23.7256C97.5075 23.7256 96.0093 22.5551 96.0093 19.512V14.1326H98.5376V19.5635C98.5376 20.8744 99.1463 21.483 100.27 21.483C101.394 21.483 102.002 20.8744 102.002 19.5635V14.1326H104.531V19.5167C104.531 22.5598 103.032 23.7256 100.27 23.7256ZM87.5864 18.8144C87.5864 20.4998 88.6164 21.483 89.9742 21.483C91.332 21.483 92.362 20.4998 92.362 18.8144C92.362 17.129 91.332 16.1458 89.9742 16.1458C88.6164 16.1458 87.5864 17.129 87.5864 18.8144ZM89.9742 23.7256C86.9777 23.7256 85.0581 21.4783 85.0581 18.8097C85.0581 16.1411 86.9777 13.8939 89.9742 13.8939C92.9707 13.8939 94.8903 16.1411 94.8903 18.8097C94.8903 21.4783 92.9707 23.7256 89.9742 23.7256ZM77.2906 18.8144C77.2906 20.3594 78.1802 21.483 79.5848 21.483C80.9894 21.483 81.879 20.3126 81.879 18.8144C81.879 17.2694 80.9894 16.1458 79.5848 16.1458C78.1802 16.1458 77.2906 17.2694 77.2906 18.8144ZM77.3843 22.513V26.3989C77.3843 26.6798 77.197 26.9138 76.9629 26.9607L74.856 27.5225V14.0858H77.197V15.2563C77.8056 14.4135 78.8357 13.8986 80.1935 13.8986C82.909 13.8986 84.5009 16.099 84.5009 18.8144C84.5009 21.5298 82.909 23.7302 80.1935 23.7302C78.8825 23.7302 77.8993 23.1684 77.4311 22.513H77.3843ZM67.2758 18.159V23.4962H64.7475V17.9249C64.7475 16.8949 64.3729 16.099 63.2493 16.099C62.0788 16.099 61.4233 16.8481 61.4233 18.1121V23.4962H58.895V14.0858H61.236V15.2563C61.6574 14.4604 62.5938 13.8986 63.9516 13.8986C65.2157 13.8986 66.1521 14.4135 66.6671 15.2094C67.5099 14.2731 68.4463 13.8986 69.8041 13.8986C72.0514 13.8986 73.2219 15.4435 73.2219 17.644V23.4962H70.6937V17.9249C70.6937 16.8949 70.3191 16.099 69.1954 16.099C67.9781 16.099 67.3694 16.8481 67.3694 18.159H67.2758ZM50.3784 18.8144C50.3784 20.4998 51.4084 21.483 52.7662 21.483C54.124 21.483 55.1541 20.4998 55.1541 18.8144C55.1541 17.129 54.124 16.1458 52.7662 16.1458C51.4084 16.1458 50.3784 17.129 50.3784 18.8144ZM52.7662 23.7256C49.7697 23.7256 47.8501 21.4783 47.8501 18.8097C47.8501 16.1411 49.7697 13.8939 52.7662 13.8939C55.7627 13.8939 57.6823 16.1411 57.6823 18.8097C57.6823 21.4783 55.7627 23.7256 52.7662 23.7256ZM34.6094 17.129C34.6094 13.1495 37.3718 10.5324 41.0191 10.5324C44.2028 10.5324 46.6843 12.4051 47.1946 15.495H44.3854C44.0109 13.9032 42.6999 13.0137 41.0144 13.0137C38.6734 13.0137 37.3624 14.6055 37.3624 17.1337C37.3624 19.6618 38.6734 21.2536 41.0144 21.2536C42.6999 21.2536 44.0109 20.3641 44.3854 18.7723H47.1946C46.7264 21.8622 44.1981 23.7349 41.0191 23.7349C37.3718 23.7256 34.6094 21.1085 34.6094 17.129Z" fill="#D2D2D2"/>
<path fill-rule="evenodd" clip-rule="evenodd" d="M9.53004 24.2865C8.87456 23.9119 8.5 23.1628 8.5 22.4138V18.1534C8.5 18.0129 8.54682 17.8256 8.64046 17.6852C8.87456 17.2638 9.4364 17.1234 9.9046 17.3575L19.4512 22.9288C20.0131 23.2565 20.3408 23.8651 20.3408 24.5206V28.9214C20.3408 29.1087 20.294 29.3428 20.2004 29.4832C19.8726 29.9982 19.2171 30.1387 18.7021 29.8578L9.57686 24.2865H9.53004ZM23.8055 16.2385C24.3673 16.5662 24.6951 17.1749 24.6951 17.8303V26.721C24.6951 27.0019 24.5546 27.236 24.3205 27.3764L22.2136 28.5469C22.1668 28.5469 22.1668 28.5937 22.12 28.5937V23.631C22.12 22.9756 21.7922 22.4138 21.2304 22.086L12.8543 17.0812V11.5099C12.8543 11.3695 12.9011 11.1822 12.9947 11.0418C13.2288 10.6204 13.7907 10.48 14.2589 10.714L23.8055 16.2853V16.2385ZM27.9678 9.64193C28.5297 9.96965 28.8574 10.5783 28.8574 11.2337V24.2443C28.8574 24.5252 28.7169 24.7593 28.4828 24.8998L26.5164 25.9766V16.894C26.5164 16.2385 26.1886 15.6767 25.6268 15.349L17.0634 10.1991V4.90867C17.0634 4.76821 17.1102 4.58094 17.2039 4.44049C17.438 4.01913 17.9998 3.87868 18.468 4.11277L28.0146 9.68406L27.9678 9.64193Z" fill="#D2D2D2"/>
</svg>
