<svg width="116" height="35" viewBox="0 0 116 35" fill="none" xmlns="http://www.w3.org/2000/svg">
<path fill-rule="evenodd" clip-rule="evenodd" d="M8 25.6641C7.99793 16.7482 15.0924 9.51855 23.8434 9.51855C32.5931 9.51855 39.6883 16.7482 39.6869 25.6641H35.6393C35.6393 18.9827 30.4 13.5655 23.8434 13.5655C17.2869 13.5655 12.0476 18.9827 12.0476 25.6641H8ZM94.6537 18.9922C95.142 21.1246 97.0365 22.6694 99.1682 22.6694C101.95 22.6694 103.176 20.2956 103.176 20.2956H107.035C106.372 22.7205 103.717 26.0701 99.1703 26.0701C94.6234 26.0701 90.9613 22.4736 90.9613 17.946C90.9613 13.4191 94.6441 9.73633 99.1703 9.73633C103.696 9.73633 107.379 13.4198 107.379 17.946C107.379 18.2198 107.311 18.9922 107.311 18.9922H94.6537ZM103.596 16.4977C102.989 14.486 101.214 13.1356 99.1703 13.1356C97.1248 13.1356 95.3496 14.486 94.7441 16.4977H103.596ZM42.7923 17.946C42.7923 22.426 46.3427 26.0701 50.8689 26.0701C53.1972 26.0701 55.2296 24.3881 55.791 23.0122L56.0234 23.0736V25.6632H59.2096V17.9025C59.2096 13.5639 55.5275 9.73633 51.0013 9.73633C46.4751 9.73633 42.7923 13.4667 42.7923 17.946ZM46.3641 17.9212C46.3641 15.2818 48.4448 13.1356 51.0013 13.1356C53.5579 13.1356 55.6379 15.3018 55.6379 17.9212C55.6379 20.5398 53.5585 22.6701 51.0013 22.6701C48.4441 22.6701 46.3641 20.5598 46.3641 17.9212ZM60.2275 17.946C60.2275 22.426 63.7779 26.0701 68.3041 26.0701C70.6323 26.0701 72.6648 24.3881 73.2261 23.0122L73.4579 23.0736V25.6632H76.6454V17.9025C76.6454 13.5639 72.9627 9.73633 68.4365 9.73633C63.9103 9.73633 60.2275 13.4667 60.2275 17.946ZM63.7992 17.9212C63.7992 15.2818 65.8799 13.1356 68.4365 13.1356C70.9937 13.1356 73.073 15.3018 73.073 17.9212C73.073 20.5398 70.9937 22.6701 68.4365 22.6701C65.8792 22.6701 63.7992 20.5598 63.7992 17.9212ZM75.4537 10.1446L81.9951 25.6612V25.6618H85.6592L92.1999 10.1446H88.622L83.8268 21.5749L79.033 10.1446H75.4537ZM21.9162 25.102C21.3118 25.7064 20.492 26.046 19.6372 26.046C18.7823 26.046 17.9625 25.7064 17.3581 25.102C16.7536 24.4975 16.4141 23.6777 16.4141 22.8229C16.4141 21.9681 16.7536 21.1483 17.3581 20.5438C17.9625 19.9394 18.7823 19.5998 19.6372 19.5998C20.492 19.5998 21.3118 19.9394 21.9162 20.5438C22.5207 21.1483 22.8603 21.9681 22.8603 22.8229C22.8603 23.6777 22.5207 24.4975 21.9162 25.102ZM30.3397 25.102C29.7352 25.7064 28.9154 26.046 28.0606 26.046C27.2058 26.046 26.386 25.7064 25.7815 25.102C25.1771 24.4975 24.8375 23.6777 24.8375 22.8229C24.8375 21.9681 25.1771 21.1483 25.7815 20.5438C26.386 19.9394 27.2058 19.5998 28.0606 19.5998C28.9154 19.5998 29.7352 19.9394 30.3397 20.5438C30.9441 21.1483 31.2837 21.9681 31.2837 22.8229C31.2837 23.6777 30.9441 24.4975 30.3397 25.102Z" fill="#D2D2D2"/>
</svg>
